<svg width="271" height="59" viewBox="0 0 271 59" fill="none" xmlns="http://www.w3.org/2000/svg">
<path d="M10.849 12.775C10.849 12.8917 10.8907 12.9917 10.974 13.075C11.0574 13.1417 11.1574 13.175 11.274 13.175H12.224C12.324 13.175 12.4074 13.2 12.474 13.25C12.5574 13.2833 12.6157 13.375 12.649 13.525C12.699 13.675 12.7324 13.9083 12.749 14.225C12.7657 14.5417 12.774 14.975 12.774 15.525C12.774 16.1083 12.7657 16.5667 12.749 16.9C12.7324 17.2333 12.699 17.4833 12.649 17.65C12.6157 17.8167 12.5574 17.9167 12.474 17.95C12.4074 17.9833 12.324 18 12.224 18H11.124C10.5074 18 9.91569 17.8833 9.34902 17.65C8.79902 17.4 8.38236 16.925 8.09902 16.225C7.68236 16.5583 7.24902 16.7833 6.79902 16.9C6.36569 17 5.84069 17.05 5.22402 17.05C4.57402 17.05 3.97402 16.9583 3.42402 16.775C2.89069 16.575 2.42402 16.275 2.02402 15.875C1.64069 15.4583 1.34069 14.9417 1.12402 14.325C0.924023 13.6917 0.824023 12.9417 0.824023 12.075C0.824023 11.425 0.932357 10.7833 1.14902 10.15C1.38236 9.5 1.69902 8.925 2.09902 8.425C2.51569 7.925 3.01569 7.51667 3.59902 7.2C4.19902 6.88333 4.87402 6.725 5.62402 6.725H6.32402V5.2H10.849V12.775ZM5.07402 11.95C5.07402 12.2333 5.13236 12.4167 5.24902 12.5C5.38236 12.5833 5.55736 12.625 5.77402 12.625C6.05736 12.625 6.25736 12.5667 6.37402 12.45C6.50736 12.3167 6.57402 12.15 6.57402 11.95V11.125H5.89902C5.34902 11.125 5.07402 11.4 5.07402 11.95ZM13.7584 13.175C13.8584 13.175 13.9501 13.1417 14.0334 13.075C14.1167 12.9917 14.1584 12.8917 14.1584 12.775V9.05H18.6834V13.175C18.6834 13.975 18.5667 14.675 18.3334 15.275C18.1167 15.875 17.8084 16.375 17.4084 16.775C17.0084 17.175 16.5251 17.4833 15.9584 17.7C15.4084 17.9 14.8084 18 14.1584 18H12.2334C12.1334 18 12.0501 17.9833 11.9834 17.95C11.9001 17.9167 11.8417 17.825 11.8084 17.675C11.7584 17.5083 11.7251 17.2667 11.7084 16.95C11.6917 16.6333 11.6834 16.2 11.6834 15.65C11.6834 15.0667 11.6917 14.6083 11.7084 14.275C11.7251 13.9417 11.7584 13.7 11.8084 13.55C11.8417 13.3833 11.9001 13.2833 11.9834 13.25C12.0501 13.2 12.1334 13.175 12.2334 13.175H13.7584ZM17.8834 22.8H13.3334V19.35H17.8834V22.8ZM32.8705 12.775C32.8705 12.8917 32.9122 12.9917 32.9955 13.075C33.0788 13.1417 33.1788 13.175 33.2955 13.175H34.2455C34.3455 13.175 34.4288 13.2 34.4955 13.25C34.5788 13.2833 34.6372 13.375 34.6705 13.525C34.7205 13.675 34.7538 13.9083 34.7705 14.225C34.7872 14.5417 34.7955 14.975 34.7955 15.525C34.7955 16.1083 34.7872 16.5667 34.7705 16.9C34.7538 17.2333 34.7205 17.4833 34.6705 17.65C34.6372 17.8167 34.5788 17.9167 34.4955 17.95C34.4288 17.9833 34.3455 18 34.2455 18H33.1455C32.5288 18 31.9372 17.8833 31.3705 17.65C30.8205 17.4 30.4038 16.925 30.1205 16.225C29.7038 16.5583 29.2705 16.7833 28.8205 16.9C28.3872 17 27.8622 17.05 27.2455 17.05C26.5955 17.05 25.9955 16.9583 25.4455 16.775C24.9122 16.575 24.4455 16.275 24.0455 15.875C23.6622 15.4583 23.3622 14.9417 23.1455 14.325C22.9455 13.6917 22.8455 12.9417 22.8455 12.075C22.8455 11.425 22.9538 10.7833 23.1705 10.15C23.4038 9.5 23.7205 8.925 24.1205 8.425C24.5372 7.925 25.0372 7.51667 25.6205 7.2C26.2205 6.88333 26.8955 6.725 27.6455 6.725H28.3455V5.2H32.8705V12.775ZM27.0955 11.95C27.0955 12.2333 27.1538 12.4167 27.2705 12.5C27.4038 12.5833 27.5788 12.625 27.7955 12.625C28.0788 12.625 28.2788 12.5667 28.3955 12.45C28.5288 12.3167 28.5955 12.15 28.5955 11.95V11.125H27.9205C27.3705 11.125 27.0955 11.4 27.0955 11.95ZM36.1799 13.175C36.5965 13.175 37.0049 13.175 37.4049 13.175C37.8215 13.1583 38.2465 13.1167 38.6799 13.05C39.1299 12.9667 39.6049 12.8583 40.1049 12.725C40.6215 12.575 41.1882 12.3583 41.8049 12.075C41.7382 11.875 41.6382 11.7417 41.5049 11.675C41.3715 11.5917 41.1965 11.55 40.9799 11.55H35.6299L36.0299 7H42.2299C42.7132 7 43.1799 7.06667 43.6299 7.2C44.0966 7.33333 44.5466 7.625 44.9799 8.075C45.4132 8.50833 45.8215 9.15 46.2049 10C46.6049 10.85 46.9716 12 47.3049 13.45L42.2299 16.35C41.6799 16.6667 41.1715 16.9333 40.7049 17.15C40.2382 17.35 39.7632 17.5167 39.2799 17.65C38.8132 17.7667 38.3132 17.8583 37.7799 17.925C37.2632 17.975 36.6799 18 36.0299 18H34.2549C34.1549 18 34.0715 17.9833 34.0049 17.95C33.9215 17.9167 33.8632 17.825 33.8299 17.675C33.7799 17.5083 33.7465 17.2667 33.7299 16.95C33.7132 16.6333 33.7049 16.2 33.7049 15.65C33.7049 15.0667 33.7132 14.6083 33.7299 14.275C33.7465 13.9417 33.7799 13.7 33.8299 13.55C33.8632 13.3833 33.9215 13.2833 34.0049 13.25C34.0715 13.2 34.1549 13.175 34.2549 13.175H36.1799ZM42.5299 22.8H37.9799V19.35H42.5299V22.8ZM60.3785 13.175C60.4785 13.175 60.5618 13.2 60.6285 13.25C60.6952 13.2833 60.7452 13.375 60.7785 13.525C60.8285 13.675 60.8618 13.9083 60.8785 14.225C60.8952 14.5417 60.9035 14.975 60.9035 15.525C60.9035 16.1083 60.8952 16.5667 60.8785 16.9C60.8618 17.2333 60.8285 17.4833 60.7785 17.65C60.7452 17.8167 60.6952 17.9167 60.6285 17.95C60.5618 17.9833 60.4785 18 60.3785 18H58.9535C58.9035 19.0167 58.7118 19.9083 58.3785 20.675C58.0618 21.4417 57.6285 22.0833 57.0785 22.6C56.5285 23.1333 55.8785 23.5333 55.1285 23.8C54.3785 24.0667 53.5618 24.2 52.6785 24.2H48.9535L48.6785 19.375H52.9535C53.5035 19.375 53.8868 19.2667 54.1035 19.05C54.3368 18.8333 54.4535 18.4833 54.4535 18H54.0535C53.0202 18 52.1702 17.8833 51.5035 17.65C50.8368 17.4167 50.3118 17.0917 49.9285 16.675C49.5618 16.2417 49.3035 15.7167 49.1535 15.1C49.0202 14.4833 48.9535 13.8 48.9535 13.05C48.9535 12.3333 49.0618 11.65 49.2785 11C49.4952 10.35 49.8118 9.78333 50.2285 9.3C50.6618 8.8 51.1868 8.40833 51.8035 8.125C52.4202 7.825 53.1202 7.675 53.9035 7.675C54.5868 7.675 55.2368 7.775 55.8535 7.975C56.4702 8.175 57.0118 8.5 57.4785 8.95C57.9452 9.38333 58.3118 9.95 58.5785 10.65C58.8618 11.3333 59.0035 12.175 59.0035 13.175H60.3785ZM53.2285 12.75C53.2285 13.0167 53.2785 13.225 53.3785 13.375C53.4785 13.525 53.7035 13.6 54.0535 13.6H54.7285V12.9C54.7285 12.2667 54.4702 11.95 53.9535 11.95C53.4702 11.95 53.2285 12.2167 53.2285 12.75ZM61.9029 13.175C62.0029 13.175 62.0946 13.1417 62.1779 13.075C62.2613 12.9917 62.3029 12.8917 62.3029 12.775V9.05H66.8279V13.175C66.8279 13.975 66.7113 14.675 66.4779 15.275C66.2613 15.875 65.9529 16.375 65.5529 16.775C65.1529 17.175 64.6696 17.4833 64.1029 17.7C63.5529 17.9 62.9529 18 62.3029 18H60.3779C60.2779 18 60.1946 17.9833 60.1279 17.95C60.0446 17.9167 59.9863 17.825 59.9529 17.675C59.9029 17.5083 59.8696 17.2667 59.8529 16.95C59.8363 16.6333 59.8279 16.2 59.8279 15.65C59.8279 15.0667 59.8363 14.6083 59.8529 14.275C59.8696 13.9417 59.9029 13.7 59.9529 13.55C59.9863 13.3833 60.0446 13.2833 60.1279 13.25C60.1946 13.2 60.2779 13.175 60.3779 13.175H61.9029ZM67.5279 7.675H60.3779V4.25H67.5279V7.675ZM77.015 13.175C77.115 13.175 77.1984 13.2 77.265 13.25C77.3484 13.2833 77.4067 13.375 77.44 13.525C77.49 13.675 77.5234 13.9083 77.54 14.225C77.5567 14.5417 77.565 14.975 77.565 15.525C77.565 16.1083 77.5567 16.5667 77.54 16.9C77.5234 17.2333 77.49 17.4833 77.44 17.65C77.4067 17.8167 77.3484 17.9167 77.265 17.95C77.1984 17.9833 77.115 18 77.015 18H75.79C74.9234 18 74.19 17.875 73.59 17.625C73.0067 17.3583 72.5317 17.0083 72.165 16.575C71.7984 16.1417 71.5317 15.6333 71.365 15.05C71.1984 14.45 71.115 13.825 71.115 13.175V2.75H75.665V12.775C75.665 13.0417 75.7984 13.175 76.065 13.175H77.015ZM78.5289 13.175C78.6289 13.175 78.7206 13.1417 78.8039 13.075C78.8872 12.9917 78.9289 12.8917 78.9289 12.775V9.05H83.4539V13.175C83.4539 13.975 83.3372 14.675 83.1039 15.275C82.8872 15.875 82.5789 16.375 82.1789 16.775C81.7789 17.175 81.2956 17.4833 80.7289 17.7C80.1789 17.9 79.5789 18 78.9289 18H77.0039C76.9039 18 76.8206 17.9833 76.7539 17.95C76.6706 17.9167 76.6122 17.825 76.5789 17.675C76.5289 17.5083 76.4956 17.2667 76.4789 16.95C76.4622 16.6333 76.4539 16.2 76.4539 15.65C76.4539 15.0667 76.4622 14.6083 76.4789 14.275C76.4956 13.9417 76.5289 13.7 76.5789 13.55C76.6122 13.3833 76.6706 13.2833 76.7539 13.25C76.8206 13.2 76.9039 13.175 77.0039 13.175H78.5289ZM82.6539 22.8H78.1039V19.35H82.6539V22.8ZM93.641 12.9C93.641 12.8333 93.6243 12.75 93.591 12.65C93.5577 12.55 93.4827 12.3583 93.366 12.075L91.316 6.725L95.566 4.8L98.616 12.775C98.716 13.0417 98.8993 13.175 99.166 13.175H99.966C100.066 13.175 100.149 13.2 100.216 13.25C100.299 13.2833 100.358 13.375 100.391 13.525C100.441 13.675 100.474 13.9083 100.491 14.225C100.508 14.5417 100.516 14.975 100.516 15.525C100.516 16.1083 100.508 16.5667 100.491 16.9C100.474 17.2333 100.441 17.4833 100.391 17.65C100.358 17.8167 100.299 17.9167 100.216 17.95C100.149 17.9833 100.066 18 99.966 18H98.741C98.4077 18 97.9993 17.95 97.516 17.85C97.0327 17.75 96.616 17.525 96.266 17.175C95.8493 17.525 95.466 17.75 95.116 17.85C94.7827 17.95 94.4743 18 94.191 18H87.866L87.466 13.175H93.316C93.5327 13.175 93.641 13.0833 93.641 12.9ZM100.928 13.175C101.044 13.175 101.144 13.1417 101.228 13.075C101.311 12.9917 101.353 12.8917 101.353 12.775V9.05H105.903V12.775C105.903 13.0417 106.036 13.175 106.303 13.175H107.253C107.353 13.175 107.436 13.2 107.503 13.25C107.586 13.2833 107.644 13.375 107.678 13.525C107.728 13.675 107.761 13.9083 107.778 14.225C107.794 14.5417 107.803 14.975 107.803 15.525C107.803 16.1083 107.794 16.5667 107.778 16.9C107.761 17.2333 107.728 17.4833 107.678 17.65C107.644 17.8167 107.586 17.9167 107.503 17.95C107.436 17.9833 107.353 18 107.253 18H106.478C105.911 18 105.386 17.95 104.903 17.85C104.436 17.75 104.028 17.525 103.678 17.175C103.278 17.525 102.869 17.75 102.453 17.85C102.053 17.95 101.686 18 101.353 18H99.9775C99.8775 18 99.7942 17.9833 99.7275 17.95C99.6442 17.9167 99.5859 17.825 99.5525 17.675C99.5025 17.5083 99.4692 17.2667 99.4525 16.95C99.4359 16.6333 99.4275 16.2 99.4275 15.65C99.4275 15.0667 99.4359 14.6083 99.4525 14.275C99.4692 13.9417 99.5025 13.7 99.5525 13.55C99.5859 13.3833 99.6442 13.2833 99.7275 13.25C99.7942 13.2 99.8775 13.175 99.9775 13.175H100.928ZM105.903 7.675H101.353V4.25H105.903V7.675ZM108.628 12.775C108.628 11.1083 109.07 9.8 109.953 8.85C110.853 7.88333 112.078 7.4 113.628 7.4C115.261 7.4 116.486 7.875 117.303 8.825C118.12 9.775 118.528 11.0417 118.528 12.625V12.775C118.528 12.8917 118.57 12.9917 118.653 13.075C118.736 13.1417 118.836 13.175 118.953 13.175H119.903C120.003 13.175 120.086 13.2 120.153 13.25C120.22 13.2833 120.278 13.375 120.328 13.525C120.378 13.675 120.411 13.9083 120.428 14.225C120.445 14.5417 120.453 14.975 120.453 15.525C120.453 16.1083 120.445 16.5667 120.428 16.9C120.411 17.2333 120.378 17.4833 120.328 17.65C120.278 17.8167 120.22 17.9167 120.153 17.95C120.086 17.9833 120.003 18 119.903 18C119.236 18 118.603 17.9583 118.003 17.875C117.403 17.775 116.861 17.5583 116.378 17.225C115.545 17.7417 114.57 18 113.453 18C112.97 18 112.495 17.9333 112.028 17.8C111.561 17.6667 111.161 17.4583 110.828 17.175C110.628 17.3583 110.411 17.5 110.178 17.6C109.961 17.7 109.711 17.7833 109.428 17.85C109.161 17.9167 108.853 17.9583 108.503 17.975C108.153 17.9917 107.736 18 107.253 18C107.153 18 107.07 17.9833 107.003 17.95C106.92 17.9167 106.861 17.825 106.828 17.675C106.778 17.5083 106.745 17.2667 106.728 16.95C106.711 16.6333 106.703 16.2 106.703 15.65C106.703 15.0667 106.711 14.6083 106.728 14.275C106.745 13.9417 106.778 13.7 106.828 13.55C106.861 13.3833 106.92 13.2833 107.003 13.25C107.07 13.2 107.153 13.175 107.253 13.175H108.203C108.32 13.175 108.42 13.1417 108.503 13.075C108.586 12.9917 108.628 12.8917 108.628 12.775ZM112.753 12.625C112.753 12.975 112.828 13.2 112.978 13.3C113.128 13.4 113.311 13.45 113.528 13.45C113.711 13.45 113.878 13.4 114.028 13.3C114.178 13.2 114.253 12.975 114.253 12.625C114.253 12.075 114.011 11.8 113.528 11.8C113.011 11.8 112.753 12.075 112.753 12.625ZM120.849 13.175C120.966 13.175 121.066 13.1417 121.149 13.075C121.233 12.9917 121.274 12.8917 121.274 12.775V9.05H125.674V12.775C125.674 12.8917 125.716 12.9917 125.799 13.075C125.883 13.1417 125.983 13.175 126.099 13.175C126.199 13.175 126.291 13.1417 126.374 13.075C126.458 12.9917 126.499 12.8917 126.499 12.775V9.05H130.899V12.775C130.899 12.8917 130.941 12.9917 131.024 13.075C131.108 13.1417 131.208 13.175 131.324 13.175C131.424 13.175 131.516 13.1417 131.599 13.075C131.683 12.9917 131.724 12.8917 131.724 12.775V9.05H136.124V13.175C136.124 14.0083 135.991 14.725 135.724 15.325C135.458 15.925 135.099 16.425 134.649 16.825C134.199 17.225 133.683 17.525 133.099 17.725C132.533 17.9083 131.941 18 131.324 18C130.974 18 130.558 17.95 130.074 17.85C129.591 17.75 129.183 17.525 128.849 17.175C128.416 17.525 128.008 17.75 127.624 17.85C127.258 17.95 126.974 18 126.774 18H126.099C125.749 18 125.333 17.95 124.849 17.85C124.366 17.75 123.949 17.525 123.599 17.175C123.199 17.525 122.808 17.75 122.424 17.85C122.041 17.95 121.749 18 121.549 18H119.899C119.799 18 119.716 17.9833 119.649 17.95C119.566 17.9167 119.508 17.825 119.474 17.675C119.424 17.5083 119.391 17.2667 119.374 16.95C119.358 16.6333 119.349 16.2 119.349 15.65C119.349 15.0667 119.358 14.6083 119.374 14.275C119.391 13.9417 119.424 13.7 119.474 13.55C119.508 13.3833 119.566 13.2833 119.649 13.25C119.716 13.2 119.799 13.175 119.899 13.175H120.849ZM130.199 3.55H126.624V0.124999H130.199V3.55ZM131.999 7.675H124.849V4.25H131.999V7.675ZM149.319 13.175C149.419 13.175 149.502 13.2 149.569 13.25C149.636 13.2833 149.686 13.375 149.719 13.525C149.769 13.675 149.802 13.9083 149.819 14.225C149.836 14.5417 149.844 14.975 149.844 15.525C149.844 16.1083 149.836 16.5667 149.819 16.9C149.802 17.2333 149.769 17.4833 149.719 17.65C149.686 17.8167 149.636 17.9167 149.569 17.95C149.502 17.9833 149.419 18 149.319 18H147.894C147.844 19.0167 147.652 19.9083 147.319 20.675C147.002 21.4417 146.569 22.0833 146.019 22.6C145.469 23.1333 144.819 23.5333 144.069 23.8C143.319 24.0667 142.502 24.2 141.619 24.2H137.894L137.619 19.375H141.894C142.444 19.375 142.827 19.2667 143.044 19.05C143.277 18.8333 143.394 18.4833 143.394 18H142.994C141.961 18 141.111 17.8833 140.444 17.65C139.777 17.4167 139.252 17.0917 138.869 16.675C138.502 16.2417 138.244 15.7167 138.094 15.1C137.961 14.4833 137.894 13.8 137.894 13.05C137.894 12.3333 138.002 11.65 138.219 11C138.436 10.35 138.752 9.78333 139.169 9.3C139.602 8.8 140.127 8.40833 140.744 8.125C141.361 7.825 142.061 7.675 142.844 7.675C143.527 7.675 144.177 7.775 144.794 7.975C145.411 8.175 145.952 8.5 146.419 8.95C146.886 9.38333 147.252 9.95 147.519 10.65C147.802 11.3333 147.944 12.175 147.944 13.175H149.319ZM142.169 12.75C142.169 13.0167 142.219 13.225 142.319 13.375C142.419 13.525 142.644 13.6 142.994 13.6H143.669V12.9C143.669 12.2667 143.411 11.95 142.894 11.95C142.411 11.95 142.169 12.2167 142.169 12.75ZM150.843 13.175C150.743 12.9083 150.693 12.5 150.693 11.95C150.693 11.3667 150.818 10.8 151.068 10.25C151.318 9.68333 151.668 9.18333 152.118 8.75C152.568 8.3 153.11 7.94167 153.743 7.675C154.393 7.40833 155.118 7.275 155.918 7.275C156.368 7.275 156.768 7.33333 157.118 7.45L159.643 4.95L164.643 10.25C165.21 10.85 165.593 11.4333 165.793 12C165.993 12.55 166.093 13.0833 166.093 13.6C166.093 14.2167 165.985 14.7917 165.768 15.325C165.552 15.8583 165.235 16.325 164.818 16.725C164.402 17.125 163.893 17.4417 163.293 17.675C162.71 17.8917 162.043 18 161.293 18H158.268C157.702 18 157.177 17.9917 156.693 17.975C156.227 17.9417 155.785 17.8583 155.368 17.725C154.818 17.8583 154.235 17.9417 153.618 17.975C153.002 17.9917 152.485 18 152.068 18H149.318C149.218 18 149.135 17.9833 149.068 17.95C148.985 17.9167 148.927 17.825 148.893 17.675C148.843 17.5083 148.81 17.2667 148.793 16.95C148.777 16.6333 148.768 16.2 148.768 15.65C148.768 15.0667 148.777 14.6083 148.793 14.275C148.81 13.9417 148.843 13.7 148.893 13.55C148.927 13.3833 148.985 13.2833 149.068 13.25C149.135 13.2 149.218 13.175 149.318 13.175H150.843ZM155.443 13.325C155.66 13.1917 155.835 13.025 155.968 12.825C156.118 12.6083 156.193 12.3583 156.193 12.075C156.193 11.875 156.127 11.6917 155.993 11.525C155.86 11.3583 155.677 11.275 155.443 11.275C155.21 11.275 155.027 11.3583 154.893 11.525C154.76 11.6917 154.693 11.875 154.693 12.075C154.693 12.3583 154.76 12.6083 154.893 12.825C155.043 13.025 155.227 13.1917 155.443 13.325ZM161.418 12.825C161.418 12.7583 161.402 12.7 161.368 12.65C161.335 12.5833 161.277 12.5 161.193 12.4C161.11 12.3 160.985 12.175 160.818 12.025C160.652 11.8583 160.443 11.65 160.193 11.4V11.55C160.193 11.8833 160.16 12.1917 160.093 12.475C160.043 12.7417 159.985 12.975 159.918 13.175H160.868C161.085 13.175 161.227 13.15 161.293 13.1C161.377 13.0333 161.418 12.9417 161.418 12.825ZM176.533 17.6L176.958 13.175H186.583C186.683 13.175 186.767 13.2 186.833 13.25C186.9 13.2833 186.958 13.375 187.008 13.525C187.058 13.675 187.092 13.9083 187.108 14.225C187.125 14.5417 187.133 14.975 187.133 15.525C187.133 16.1083 187.125 16.5667 187.108 16.9C187.092 17.2333 187.058 17.4833 187.008 17.65C186.958 17.8167 186.9 17.9167 186.833 17.95C186.767 17.9833 186.683 18 186.583 18H185.458C185.392 18.8167 185.183 19.5583 184.833 20.225C184.5 20.9083 184.042 21.4917 183.458 21.975C182.875 22.4583 182.175 22.8333 181.358 23.1C180.542 23.3667 179.625 23.5 178.608 23.5H176.808C175.775 23.5 174.85 23.3417 174.033 23.025C173.233 22.7083 172.55 22.25 171.983 21.65C171.417 21.0667 170.983 20.35 170.683 19.5C170.383 18.65 170.233 17.6917 170.233 16.625V11.4H174.758V16.75C174.758 17.3833 174.942 17.8667 175.308 18.2C175.675 18.5333 176.267 18.7 177.083 18.7H179.308C179.792 18.7 180.208 18.65 180.558 18.55C180.908 18.4667 181.083 18.2833 181.083 18C181.083 17.7333 180.95 17.6 180.683 17.6H176.533ZM188.099 13.175C188.199 13.175 188.291 13.1417 188.374 13.075C188.458 12.9917 188.499 12.8917 188.499 12.775V9.05H193.024V13.175C193.024 13.975 192.908 14.675 192.674 15.275C192.458 15.875 192.149 16.375 191.749 16.775C191.349 17.175 190.866 17.4833 190.299 17.7C189.749 17.9 189.149 18 188.499 18H186.574C186.474 18 186.391 17.9833 186.324 17.95C186.241 17.9167 186.183 17.825 186.149 17.675C186.099 17.5083 186.066 17.2667 186.049 16.95C186.033 16.6333 186.024 16.2 186.024 15.65C186.024 15.0667 186.033 14.6083 186.049 14.275C186.066 13.9417 186.099 13.7 186.149 13.55C186.183 13.3833 186.241 13.2833 186.324 13.25C186.391 13.2 186.474 13.175 186.574 13.175H188.099ZM193.724 22.8H186.574V19.35H193.724V22.8ZM194.553 2.75H199.103V18H194.553V2.75ZM206.654 12.9C206.654 12.8333 206.637 12.75 206.604 12.65C206.57 12.55 206.495 12.3583 206.379 12.075L204.329 6.725L208.579 4.8L211.629 12.775C211.729 13.0417 211.912 13.175 212.179 13.175H212.979C213.079 13.175 213.162 13.2 213.229 13.25C213.312 13.2833 213.37 13.375 213.404 13.525C213.454 13.675 213.487 13.9083 213.504 14.225C213.52 14.5417 213.529 14.975 213.529 15.525C213.529 16.1083 213.52 16.5667 213.504 16.9C213.487 17.2333 213.454 17.4833 213.404 17.65C213.37 17.8167 213.312 17.9167 213.229 17.95C213.162 17.9833 213.079 18 212.979 18H211.754C211.42 18 211.012 17.95 210.529 17.85C210.045 17.75 209.629 17.525 209.279 17.175C208.862 17.525 208.479 17.75 208.129 17.85C207.795 17.95 207.487 18 207.204 18H200.879L200.479 13.175H206.329C206.545 13.175 206.654 13.0833 206.654 12.9ZM209.554 3.7H205.004V0.274999H209.554V3.7ZM214.415 13.175C214.382 13.075 214.365 12.9667 214.365 12.85C214.365 12.7333 214.365 12.6167 214.365 12.5C214.365 11.7833 214.474 11.1083 214.69 10.475C214.907 9.84167 215.224 9.29167 215.64 8.825C216.057 8.34167 216.565 7.96667 217.165 7.7C217.765 7.41667 218.449 7.275 219.215 7.275C219.749 7.275 220.332 7.35833 220.965 7.525C221.599 7.69167 222.332 8.01667 223.165 8.5L221.79 12.35C221.157 12.15 220.674 12.0083 220.34 11.925C220.024 11.8417 219.724 11.8 219.44 11.8C219.24 11.8 219.057 11.8667 218.89 12C218.724 12.1333 218.64 12.3167 218.64 12.55C218.64 12.7167 218.682 12.8667 218.765 13C218.849 13.1167 219.032 13.175 219.315 13.175H223.715L223.315 18H212.99C212.89 18 212.807 17.9833 212.74 17.95C212.657 17.9167 212.599 17.825 212.565 17.675C212.515 17.5083 212.482 17.2667 212.465 16.95C212.449 16.6333 212.44 16.2 212.44 15.65C212.44 15.0667 212.449 14.6083 212.465 14.275C212.482 13.9417 212.515 13.7 212.565 13.55C212.599 13.3833 212.657 13.2833 212.74 13.25C212.807 13.2 212.89 13.175 212.99 13.175H214.415ZM221.39 5.9H216.84V2.475H221.39V5.9ZM244.35 18C243.716 18 243.1 17.9583 242.5 17.875C241.9 17.7917 241.366 17.5833 240.9 17.25C240.466 17.5167 239.991 17.7083 239.475 17.825C238.958 17.9417 238.433 18 237.9 18C237.216 18 236.583 17.9083 236 17.725C235.433 17.525 234.941 17.2417 234.525 16.875C234.108 16.4917 233.783 16.0167 233.55 15.45C233.333 14.8667 233.225 14.2 233.225 13.45V12.775C233.225 12.5417 233.225 12.3667 233.225 12.25C233.241 12.1333 233.266 12.0333 233.3 11.95H232.825C232.708 11.95 232.608 11.9917 232.525 12.075C232.441 12.1583 232.4 12.25 232.4 12.35V23.225H227.875V12.625C227.875 11.9417 227.966 11.2917 228.15 10.675C228.35 10.0417 228.658 9.48333 229.075 9C229.508 8.51667 230.05 8.13333 230.7 7.85C231.366 7.55 232.166 7.4 233.1 7.4H238.325C239.208 7.4 239.95 7.525 240.55 7.775C241.15 8.00833 241.625 8.34167 241.975 8.775C242.341 9.19167 242.6 9.68333 242.75 10.25C242.9 10.8167 242.975 11.425 242.975 12.075V12.775C242.975 12.8917 243.016 12.9917 243.1 13.075C243.183 13.1417 243.283 13.175 243.4 13.175H244.35C244.45 13.175 244.533 13.2 244.6 13.25C244.683 13.2833 244.75 13.375 244.8 13.525C244.85 13.675 244.883 13.9083 244.9 14.225C244.916 14.5417 244.925 14.975 244.925 15.525C244.925 16.1083 244.916 16.5667 244.9 16.9C244.883 17.2333 244.85 17.4833 244.8 17.65C244.75 17.8167 244.683 17.9167 244.6 17.95C244.533 17.9833 244.45 18 244.35 18ZM238.05 13.6C238.233 13.6 238.391 13.5583 238.525 13.475C238.658 13.3917 238.725 13.25 238.725 13.05V12.35C238.725 12.15 238.65 12.0083 238.5 11.925C238.366 11.8417 238.216 11.8 238.05 11.8C237.866 11.8 237.7 11.8417 237.55 11.925C237.416 12.0083 237.35 12.15 237.35 12.35V13.05C237.35 13.25 237.416 13.3917 237.55 13.475C237.7 13.5583 237.866 13.6 238.05 13.6ZM251.338 13.175C251.455 13.175 251.555 13.1417 251.638 13.075C251.721 12.9917 251.763 12.8917 251.763 12.775V9.05H256.313V13.175C256.313 13.975 256.196 14.675 255.963 15.275C255.746 15.875 255.43 16.375 255.013 16.775C254.613 17.175 254.13 17.4833 253.563 17.7C253.013 17.9 252.413 18 251.763 18H244.338C244.238 18 244.155 17.9833 244.088 17.95C244.005 17.9167 243.946 17.825 243.913 17.675C243.863 17.5083 243.83 17.2667 243.813 16.95C243.796 16.6333 243.788 16.2 243.788 15.65C243.788 15.0667 243.796 14.6083 243.813 14.275C243.83 13.9417 243.863 13.7 243.913 13.55C243.946 13.3833 244.005 13.2833 244.088 13.25C244.155 13.2 244.238 13.175 244.338 13.175H251.338ZM252.863 22.8H245.713V19.35H252.863V22.8ZM262.634 16.9C262.634 17.8333 262.476 18.7167 262.159 19.55C261.843 20.3833 261.401 21.1083 260.834 21.725C260.268 22.3583 259.584 22.8583 258.784 23.225C258.001 23.5917 257.126 23.775 256.159 23.775H254.909L254.509 18.975H255.609C256.509 18.975 257.143 18.7917 257.509 18.425C257.893 18.0583 258.084 17.6 258.084 17.05V9.05H262.634V16.9ZM262.059 3.55H258.484V0.124999H262.059V3.55ZM263.859 7.675H256.709V4.25H263.859V7.675ZM270.203 16.9C270.203 17.8333 270.044 18.7167 269.728 19.55C269.411 20.3833 268.969 21.1083 268.403 21.725C267.836 22.3583 267.153 22.8583 266.353 23.225C265.569 23.5917 264.694 23.775 263.728 23.775H262.478L262.078 18.975H263.178C264.078 18.975 264.711 18.7917 265.078 18.425C265.461 18.0583 265.653 17.6 265.653 17.05V9.05H270.203V16.9ZM28.3295 44.775C28.3295 44.8917 28.3712 44.9917 28.4545 45.075C28.5378 45.1417 28.6378 45.175 28.7545 45.175H29.7045C29.8045 45.175 29.8878 45.2 29.9545 45.25C30.0378 45.2833 30.0962 45.375 30.1295 45.525C30.1795 45.675 30.2128 45.9083 30.2295 46.225C30.2462 46.5417 30.2545 46.975 30.2545 47.525C30.2545 48.1083 30.2462 48.5667 30.2295 48.9C30.2128 49.2333 30.1795 49.4833 30.1295 49.65C30.0962 49.8167 30.0378 49.9167 29.9545 49.95C29.8878 49.9833 29.8045 50 29.7045 50H28.6045C27.9878 50 27.3962 49.8833 26.8295 49.65C26.2795 49.4 25.8628 48.925 25.5795 48.225C25.1628 48.5583 24.7295 48.7833 24.2795 48.9C23.8462 49 23.3212 49.05 22.7045 49.05C22.0545 49.05 21.4545 48.9583 20.9045 48.775C20.3712 48.575 19.9045 48.275 19.5045 47.875C19.1212 47.4583 18.8212 46.9417 18.6045 46.325C18.4045 45.6917 18.3045 44.9417 18.3045 44.075C18.3045 43.425 18.4128 42.7833 18.6295 42.15C18.8628 41.5 19.1795 40.925 19.5795 40.425C19.9962 39.925 20.4962 39.5167 21.0795 39.2C21.6795 38.8833 22.3545 38.725 23.1045 38.725H23.8045V37.2H28.3295V44.775ZM22.5545 43.95C22.5545 44.2333 22.6128 44.4167 22.7295 44.5C22.8628 44.5833 23.0378 44.625 23.2545 44.625C23.5378 44.625 23.7378 44.5667 23.8545 44.45C23.9878 44.3167 24.0545 44.15 24.0545 43.95V43.125H23.3795C22.8295 43.125 22.5545 43.4 22.5545 43.95ZM31.2389 45.175C31.3389 45.175 31.4305 45.1417 31.5139 45.075C31.5972 44.9917 31.6389 44.8917 31.6389 44.775V41.05H36.1639V45.175C36.1639 45.975 36.0472 46.675 35.8139 47.275C35.5972 47.875 35.2889 48.375 34.8889 48.775C34.4889 49.175 34.0055 49.4833 33.4389 49.7C32.8889 49.9 32.2889 50 31.6389 50H29.7139C29.6139 50 29.5305 49.9833 29.4639 49.95C29.3805 49.9167 29.3222 49.825 29.2889 49.675C29.2389 49.5083 29.2055 49.2667 29.1889 48.95C29.1722 48.6333 29.1639 48.2 29.1639 47.65C29.1639 47.0667 29.1722 46.6083 29.1889 46.275C29.2055 45.9417 29.2389 45.7 29.2889 45.55C29.3222 45.3833 29.3805 45.2833 29.4639 45.25C29.5305 45.2 29.6139 45.175 29.7139 45.175H31.2389ZM36.8639 54.8H29.7139V51.35H36.8639V54.8ZM43.5922 44.9C43.5922 44.8333 43.5755 44.75 43.5422 44.65C43.5089 44.55 43.4339 44.3583 43.3172 44.075L41.2672 38.725L45.5172 36.8L48.5672 44.775C48.6672 45.0417 48.8505 45.175 49.1172 45.175H49.9172C50.0172 45.175 50.1005 45.2 50.1672 45.25C50.2505 45.2833 50.3089 45.375 50.3422 45.525C50.3922 45.675 50.4255 45.9083 50.4422 46.225C50.4589 46.5417 50.4672 46.975 50.4672 47.525C50.4672 48.1083 50.4589 48.5667 50.4422 48.9C50.4255 49.2333 50.3922 49.4833 50.3422 49.65C50.3089 49.8167 50.2505 49.9167 50.1672 49.95C50.1005 49.9833 50.0172 50 49.9172 50H48.6922C48.3589 50 47.9505 49.95 47.4672 49.85C46.9839 49.75 46.5672 49.525 46.2172 49.175C45.8005 49.525 45.4172 49.75 45.0672 49.85C44.7339 49.95 44.4255 50 44.1422 50H37.8172L37.4172 45.175H43.2672C43.4839 45.175 43.5922 45.0833 43.5922 44.9ZM46.4922 35.7H41.9422V32.275H46.4922V35.7ZM52.6787 45.175L51.0287 42.725L52.9537 39.125H58.5787C59.8954 39.125 60.887 39.4333 61.5537 40.05C62.237 40.65 62.5787 41.4 62.5787 42.3C62.5787 42.9333 62.4787 43.45 62.2787 43.85C62.0954 44.25 61.8287 44.6917 61.4787 45.175H63.9537C64.0537 45.175 64.137 45.2 64.2037 45.25C64.2704 45.2833 64.3287 45.375 64.3787 45.525C64.4287 45.675 64.462 45.9083 64.4787 46.225C64.4954 46.5417 64.5037 46.975 64.5037 47.525C64.5037 48.1083 64.4954 48.5667 64.4787 48.9C64.462 49.2333 64.4287 49.4833 64.3787 49.65C64.3287 49.8167 64.2704 49.9167 64.2037 49.95C64.137 49.9833 64.0537 50 63.9537 50H61.2037C60.3704 50 59.587 49.9667 58.8537 49.9C58.1204 49.8333 57.4787 49.5917 56.9287 49.175C56.2454 49.5917 55.5037 49.8333 54.7037 49.9C53.9204 49.9667 53.1537 50 52.4037 50H49.9287C49.8287 50 49.7454 49.9833 49.6787 49.95C49.5954 49.9167 49.537 49.825 49.5037 49.675C49.4537 49.5083 49.4204 49.2667 49.4037 48.95C49.387 48.6333 49.3787 48.2 49.3787 47.65C49.3787 47.0667 49.387 46.6083 49.4037 46.275C49.4204 45.9417 49.4537 45.7 49.5037 45.55C49.537 45.3833 49.5954 45.2833 49.6787 45.25C49.7454 45.2 49.8287 45.175 49.9287 45.175H52.6787ZM58.4537 43.925C58.4537 43.675 58.2704 43.55 57.9037 43.55H55.8537L57.2037 45.175C57.6204 44.8417 57.9287 44.5917 58.1287 44.425C58.3454 44.2417 58.4537 44.075 58.4537 43.925ZM59.5537 37.75H55.0037V34.325H59.5537V37.75ZM65.4674 45.175C65.5674 45.175 65.659 45.1417 65.7424 45.075C65.8257 44.9917 65.8674 44.8917 65.8674 44.775V41.05H70.3924V45.175C70.3924 45.975 70.2757 46.675 70.0424 47.275C69.8257 47.875 69.5174 48.375 69.1174 48.775C68.7174 49.175 68.234 49.4833 67.6674 49.7C67.1174 49.9 66.5174 50 65.8674 50H63.9424C63.8424 50 63.759 49.9833 63.6924 49.95C63.609 49.9167 63.5507 49.825 63.5174 49.675C63.4674 49.5083 63.434 49.2667 63.4174 48.95C63.4007 48.6333 63.3924 48.2 63.3924 47.65C63.3924 47.0667 63.4007 46.6083 63.4174 46.275C63.434 45.9417 63.4674 45.7 63.5174 45.55C63.5507 45.3833 63.609 45.2833 63.6924 45.25C63.759 45.2 63.8424 45.175 63.9424 45.175H65.4674ZM71.0924 39.675H63.9424V36.25H71.0924V39.675ZM76.8795 46.825C76.5962 46.3417 76.4128 45.9167 76.3295 45.55C76.2462 45.1833 76.2045 44.8333 76.2045 44.5C76.2045 43.7833 76.3128 43.1083 76.5295 42.475C76.7462 41.8417 77.0545 41.2917 77.4545 40.825C77.8712 40.3417 78.3795 39.9667 78.9795 39.7C79.5795 39.4167 80.2628 39.275 81.0295 39.275C81.5628 39.275 82.1462 39.3583 82.7795 39.525C83.4295 39.6917 84.1712 40.0167 85.0045 40.5L83.6295 44.35C82.9962 44.15 82.5128 44.0083 82.1795 43.925C81.8628 43.8417 81.5628 43.8 81.2795 43.8C81.0628 43.8 80.8712 43.8667 80.7045 44C80.5378 44.1333 80.4545 44.3167 80.4545 44.55C80.4545 44.7167 80.4962 44.8667 80.5795 45C80.6628 45.1167 80.8462 45.175 81.1295 45.175H85.5545L85.1295 50H81.0045C80.3045 50 79.8045 50.15 79.5045 50.45C79.2212 50.7667 79.0795 51.1667 79.0795 51.65C79.0795 52.1333 79.2628 52.525 79.6295 52.825C79.9962 53.1417 80.5878 53.3 81.4045 53.3H85.8295L85.4545 58.125H81.2795C80.0128 58.125 78.9462 57.9583 78.0795 57.625C77.2295 57.3083 76.5378 56.8667 76.0045 56.3C75.4878 55.7333 75.1128 55.0667 74.8795 54.3C74.6628 53.5333 74.5545 52.7 74.5545 51.8C74.5545 50.8333 74.7545 49.925 75.1545 49.075C75.5545 48.2083 76.1295 47.4583 76.8795 46.825ZM98.7574 45.175C98.8574 45.175 98.9408 45.2 99.0074 45.25C99.0741 45.2833 99.1241 45.375 99.1574 45.525C99.2074 45.675 99.2408 45.9083 99.2574 46.225C99.2741 46.5417 99.2824 46.975 99.2824 47.525C99.2824 48.1083 99.2741 48.5667 99.2574 48.9C99.2408 49.2333 99.2074 49.4833 99.1574 49.65C99.1241 49.8167 99.0741 49.9167 99.0074 49.95C98.9408 49.9833 98.8574 50 98.7574 50H97.3324C97.2824 51.0167 97.0908 51.9083 96.7574 52.675C96.4408 53.4417 96.0074 54.0833 95.4574 54.6C94.9074 55.1333 94.2574 55.5333 93.5074 55.8C92.7574 56.0667 91.9408 56.2 91.0574 56.2H87.3324L87.0574 51.375H91.3324C91.8824 51.375 92.2658 51.2667 92.4824 51.05C92.7158 50.8333 92.8324 50.4833 92.8324 50H92.4324C91.3991 50 90.5491 49.8833 89.8824 49.65C89.2158 49.4167 88.6908 49.0917 88.3074 48.675C87.9408 48.2417 87.6824 47.7167 87.5324 47.1C87.3991 46.4833 87.3324 45.8 87.3324 45.05C87.3324 44.3333 87.4408 43.65 87.6574 43C87.8741 42.35 88.1908 41.7833 88.6074 41.3C89.0408 40.8 89.5658 40.4083 90.1824 40.125C90.7991 39.825 91.4991 39.675 92.2824 39.675C92.9658 39.675 93.6158 39.775 94.2324 39.975C94.8491 40.175 95.3908 40.5 95.8574 40.95C96.3241 41.3833 96.6908 41.95 96.9574 42.65C97.2408 43.3333 97.3824 44.175 97.3824 45.175H98.7574ZM91.6074 44.75C91.6074 45.0167 91.6574 45.225 91.7574 45.375C91.8574 45.525 92.0824 45.6 92.4324 45.6H93.1074V44.9C93.1074 44.2667 92.8491 43.95 92.3324 43.95C91.8491 43.95 91.6074 44.2167 91.6074 44.75ZM100.282 45.175C100.382 45.175 100.474 45.1417 100.557 45.075C100.64 44.9917 100.682 44.8917 100.682 44.775V41.05H105.207V45.175C105.207 45.975 105.09 46.675 104.857 47.275C104.64 47.875 104.332 48.375 103.932 48.775C103.532 49.175 103.049 49.4833 102.482 49.7C101.932 49.9 101.332 50 100.682 50H98.7568C98.6568 50 98.5735 49.9833 98.5068 49.95C98.4235 49.9167 98.3652 49.825 98.3318 49.675C98.2818 49.5083 98.2485 49.2667 98.2318 48.95C98.2152 48.6333 98.2068 48.2 98.2068 47.65C98.2068 47.0667 98.2152 46.6083 98.2318 46.275C98.2485 45.9417 98.2818 45.7 98.3318 45.55C98.3652 45.3833 98.4235 45.2833 98.5068 45.25C98.5735 45.2 98.6568 45.175 98.7568 45.175H100.282ZM105.232 39.675H100.682V36.25H105.232V39.675ZM119.819 49.45C119.819 50.55 119.661 51.5167 119.344 52.35C119.044 53.2 118.611 53.9083 118.044 54.475C117.477 55.0417 116.802 55.4667 116.019 55.75C115.252 56.05 114.411 56.2 113.494 56.2H109.769L109.494 51.375H113.769C114.319 51.375 114.702 51.2667 114.919 51.05C115.152 50.8333 115.269 50.4833 115.269 50H114.869C113.836 50 112.986 49.8833 112.319 49.65C111.652 49.4167 111.127 49.0917 110.744 48.675C110.377 48.2417 110.119 47.7167 109.969 47.1C109.836 46.4833 109.769 45.8 109.769 45.05C109.769 44.3333 109.877 43.65 110.094 43C110.311 42.35 110.627 41.7833 111.044 41.3C111.477 40.8 112.002 40.4083 112.619 40.125C113.236 39.825 113.936 39.675 114.719 39.675C115.402 39.675 116.052 39.775 116.669 39.975C117.286 40.175 117.827 40.5 118.294 40.95C118.761 41.3833 119.127 41.95 119.394 42.65C119.677 43.3333 119.819 44.175 119.819 45.175V49.45ZM114.044 44.75C114.044 45.0167 114.094 45.225 114.194 45.375C114.294 45.525 114.519 45.6 114.869 45.6H115.544V44.9C115.544 44.2667 115.286 43.95 114.769 43.95C114.286 43.95 114.044 44.2167 114.044 44.75ZM130.244 49.6L130.669 45.175H140.294C140.394 45.175 140.477 45.2 140.544 45.25C140.611 45.2833 140.669 45.375 140.719 45.525C140.769 45.675 140.802 45.9083 140.819 46.225C140.836 46.5417 140.844 46.975 140.844 47.525C140.844 48.1083 140.836 48.5667 140.819 48.9C140.802 49.2333 140.769 49.4833 140.719 49.65C140.669 49.8167 140.611 49.9167 140.544 49.95C140.477 49.9833 140.394 50 140.294 50H139.169C139.102 50.8167 138.894 51.5583 138.544 52.225C138.211 52.9083 137.752 53.4917 137.169 53.975C136.586 54.4583 135.886 54.8333 135.069 55.1C134.252 55.3667 133.336 55.5 132.319 55.5H130.519C129.486 55.5 128.561 55.3417 127.744 55.025C126.944 54.7083 126.261 54.25 125.694 53.65C125.127 53.0667 124.694 52.35 124.394 51.5C124.094 50.65 123.944 49.6917 123.944 48.625V43.4H128.469V48.75C128.469 49.3833 128.652 49.8667 129.019 50.2C129.386 50.5333 129.977 50.7 130.794 50.7H133.019C133.502 50.7 133.919 50.65 134.269 50.55C134.619 50.4667 134.794 50.2833 134.794 50C134.794 49.7333 134.661 49.6 134.394 49.6H130.244ZM141.81 45.175C141.91 45.175 142.002 45.1417 142.085 45.075C142.168 44.9917 142.21 44.8917 142.21 44.775V41.05H146.735V45.175C146.735 45.975 146.618 46.675 146.385 47.275C146.168 47.875 145.86 48.375 145.46 48.775C145.06 49.175 144.577 49.4833 144.01 49.7C143.46 49.9 142.86 50 142.21 50H140.285C140.185 50 140.102 49.9833 140.035 49.95C139.952 49.9167 139.893 49.825 139.86 49.675C139.81 49.5083 139.777 49.2667 139.76 48.95C139.743 48.6333 139.735 48.2 139.735 47.65C139.735 47.0667 139.743 46.6083 139.76 46.275C139.777 45.9417 139.81 45.7 139.86 45.55C139.893 45.3833 139.952 45.2833 140.035 45.25C140.102 45.2 140.185 45.175 140.285 45.175H141.81ZM146.76 39.675H142.21V36.25H146.76V39.675ZM154.408 45.175C154.508 45.175 154.591 45.2 154.658 45.25C154.741 45.2833 154.799 45.375 154.833 45.525C154.883 45.675 154.916 45.9083 154.933 46.225C154.949 46.5417 154.958 46.975 154.958 47.525C154.958 48.1083 154.949 48.5667 154.933 48.9C154.916 49.2333 154.883 49.4833 154.833 49.65C154.799 49.8167 154.741 49.9167 154.658 49.95C154.591 49.9833 154.508 50 154.408 50H153.183C152.316 50 151.583 49.875 150.983 49.625C150.399 49.3583 149.924 49.0083 149.558 48.575C149.191 48.1417 148.924 47.6333 148.758 47.05C148.591 46.45 148.508 45.825 148.508 45.175V34.75H153.058V44.775C153.058 45.0417 153.191 45.175 153.458 45.175H154.408ZM155.771 44.775C155.771 43.1083 156.213 41.8 157.096 40.85C157.996 39.8833 159.221 39.4 160.771 39.4C162.405 39.4 163.63 39.875 164.446 40.825C165.263 41.775 165.671 43.0417 165.671 44.625V44.775C165.671 44.8917 165.713 44.9917 165.796 45.075C165.88 45.1417 165.98 45.175 166.096 45.175H167.046C167.146 45.175 167.23 45.2 167.296 45.25C167.363 45.2833 167.421 45.375 167.471 45.525C167.521 45.675 167.555 45.9083 167.571 46.225C167.588 46.5417 167.596 46.975 167.596 47.525C167.596 48.1083 167.588 48.5667 167.571 48.9C167.555 49.2333 167.521 49.4833 167.471 49.65C167.421 49.8167 167.363 49.9167 167.296 49.95C167.23 49.9833 167.146 50 167.046 50C166.38 50 165.746 49.9583 165.146 49.875C164.546 49.775 164.005 49.5583 163.521 49.225C162.688 49.7417 161.713 50 160.596 50C160.113 50 159.638 49.9333 159.171 49.8C158.705 49.6667 158.305 49.4583 157.971 49.175C157.771 49.3583 157.555 49.5 157.321 49.6C157.105 49.7 156.855 49.7833 156.571 49.85C156.305 49.9167 155.996 49.9583 155.646 49.975C155.296 49.9917 154.88 50 154.396 50C154.296 50 154.213 49.9833 154.146 49.95C154.063 49.9167 154.005 49.825 153.971 49.675C153.921 49.5083 153.888 49.2667 153.871 48.95C153.855 48.6333 153.846 48.2 153.846 47.65C153.846 47.0667 153.855 46.6083 153.871 46.275C153.888 45.9417 153.921 45.7 153.971 45.55C154.005 45.3833 154.063 45.2833 154.146 45.25C154.213 45.2 154.296 45.175 154.396 45.175H155.346C155.463 45.175 155.563 45.1417 155.646 45.075C155.73 44.9917 155.771 44.8917 155.771 44.775ZM159.896 44.625C159.896 44.975 159.971 45.2 160.121 45.3C160.271 45.4 160.455 45.45 160.671 45.45C160.855 45.45 161.021 45.4 161.171 45.3C161.321 45.2 161.396 44.975 161.396 44.625C161.396 44.075 161.155 43.8 160.671 43.8C160.155 43.8 159.896 44.075 159.896 44.625ZM167.993 45.175C168.11 45.175 168.21 45.1417 168.293 45.075C168.376 44.9917 168.418 44.8917 168.418 44.775V41.05H172.818V44.775C172.818 44.8917 172.86 44.9917 172.943 45.075C173.026 45.1417 173.126 45.175 173.243 45.175C173.343 45.175 173.435 45.1417 173.518 45.075C173.601 44.9917 173.643 44.8917 173.643 44.775V41.05H178.043V44.775C178.043 44.8917 178.085 44.9917 178.168 45.075C178.251 45.1417 178.351 45.175 178.468 45.175C178.568 45.175 178.66 45.1417 178.743 45.075C178.826 44.9917 178.868 44.8917 178.868 44.775V41.05H183.268V44.775C183.268 44.8917 183.31 44.9917 183.393 45.075C183.476 45.1417 183.568 45.175 183.668 45.175H184.643C184.743 45.175 184.826 45.2 184.893 45.25C184.976 45.2833 185.035 45.375 185.068 45.525C185.118 45.675 185.151 45.9083 185.168 46.225C185.185 46.5417 185.193 46.975 185.193 47.525C185.193 48.1083 185.185 48.5667 185.168 48.9C185.151 49.2333 185.118 49.4833 185.068 49.65C185.035 49.8167 184.976 49.9167 184.893 49.95C184.826 49.9833 184.743 50 184.643 50H183.843C183.276 50 182.776 49.95 182.343 49.85C181.926 49.75 181.543 49.525 181.193 49.175C180.776 49.525 180.335 49.75 179.868 49.85C179.418 49.95 178.951 50 178.468 50C178.118 50 177.701 49.95 177.218 49.85C176.735 49.75 176.326 49.525 175.993 49.175C175.56 49.525 175.151 49.75 174.768 49.85C174.401 49.95 174.118 50 173.918 50H173.243C172.893 50 172.476 49.95 171.993 49.85C171.51 49.75 171.093 49.525 170.743 49.175C170.343 49.525 169.951 49.75 169.568 49.85C169.185 49.95 168.893 50 168.693 50H167.043C166.943 50 166.86 49.9833 166.793 49.95C166.71 49.9167 166.651 49.825 166.618 49.675C166.568 49.5083 166.535 49.2667 166.518 48.95C166.501 48.6333 166.493 48.2 166.493 47.65C166.493 47.0667 166.501 46.6083 166.518 46.275C166.535 45.9417 166.568 45.7 166.618 45.55C166.651 45.3833 166.71 45.2833 166.793 45.25C166.86 45.2 166.943 45.175 167.043 45.175H167.993ZM186.571 45.175C186.987 45.175 187.396 45.175 187.796 45.175C188.212 45.1583 188.637 45.1167 189.071 45.05C189.521 44.9667 189.996 44.8583 190.496 44.725C191.012 44.575 191.579 44.3583 192.196 44.075C192.129 43.875 192.029 43.7417 191.896 43.675C191.762 43.5917 191.587 43.55 191.371 43.55H186.021L186.421 39H192.621C193.104 39 193.571 39.0667 194.021 39.2C194.487 39.3333 194.937 39.625 195.371 40.075C195.804 40.5083 196.212 41.15 196.596 42C196.996 42.85 197.362 44 197.696 45.45L192.621 48.35C192.071 48.6667 191.562 48.9333 191.096 49.15C190.629 49.35 190.154 49.5167 189.671 49.65C189.204 49.7667 188.704 49.8583 188.171 49.925C187.654 49.975 187.071 50 186.421 50H184.646C184.546 50 184.462 49.9833 184.396 49.95C184.312 49.9167 184.254 49.825 184.221 49.675C184.171 49.5083 184.137 49.2667 184.121 48.95C184.104 48.6333 184.096 48.2 184.096 47.65C184.096 47.0667 184.104 46.6083 184.121 46.275C184.137 45.9417 184.171 45.7 184.221 45.55C184.254 45.3833 184.312 45.2833 184.396 45.25C184.462 45.2 184.546 45.175 184.646 45.175H186.571ZM192.921 54.8H188.371V51.35H192.921V54.8ZM207.453 40.2C208.22 39.5833 209.095 39.275 210.078 39.275C210.761 39.275 211.386 39.4083 211.953 39.675C212.536 39.925 213.028 40.2833 213.428 40.75C213.845 41.2167 214.17 41.775 214.403 42.425C214.636 43.0583 214.753 43.75 214.753 44.5C214.753 44.6 214.753 44.7 214.753 44.8C214.753 44.9 214.745 45 214.728 45.1C214.811 45.1333 214.953 45.1583 215.153 45.175C215.353 45.175 215.495 45.175 215.578 45.175H216.128C216.228 45.175 216.311 45.2 216.378 45.25C216.445 45.2833 216.503 45.375 216.553 45.525C216.603 45.675 216.636 45.9083 216.653 46.225C216.67 46.5417 216.678 46.975 216.678 47.525C216.678 48.1083 216.67 48.5667 216.653 48.9C216.636 49.2333 216.603 49.4833 216.553 49.65C216.503 49.8167 216.445 49.9167 216.378 49.95C216.311 49.9833 216.228 50 216.128 50H215.578C215.095 50 214.586 49.95 214.053 49.85C213.536 49.75 213.02 49.5083 212.503 49.125C212.086 49.4083 211.611 49.625 211.078 49.775C210.545 49.925 209.936 50 209.253 50H201.953L201.553 45.175H202.928V34.75H207.453V40.2ZM209.528 45.325C209.811 45.325 210.02 45.25 210.153 45.1C210.286 44.9333 210.353 44.75 210.353 44.55C210.353 44.3667 210.278 44.2 210.128 44.05C209.995 43.8833 209.811 43.8 209.578 43.8C209.345 43.8 209.045 43.9333 208.678 44.2C208.328 44.4667 207.878 44.8417 207.328 45.325H209.528ZM217.665 45.175C217.765 45.175 217.856 45.1417 217.94 45.075C218.023 44.9917 218.065 44.8917 218.065 44.775V41.05H222.59V45.175C222.59 45.975 222.473 46.675 222.24 47.275C222.023 47.875 221.715 48.375 221.315 48.775C220.915 49.175 220.431 49.4833 219.865 49.7C219.315 49.9 218.715 50 218.065 50H216.14C216.04 50 215.956 49.9833 215.89 49.95C215.806 49.9167 215.748 49.825 215.715 49.675C215.665 49.5083 215.631 49.2667 215.615 48.95C215.598 48.6333 215.59 48.2 215.59 47.65C215.59 47.0667 215.598 46.6083 215.615 46.275C215.631 45.9417 215.665 45.7 215.715 45.55C215.748 45.3833 215.806 45.2833 215.89 45.25C215.956 45.2 216.04 45.175 216.14 45.175H217.665ZM223.29 54.8H216.14V51.35H223.29V54.8ZM224.118 34.75H228.668V50H224.118V34.75ZM235.144 44.825C235.144 45.0583 235.277 45.175 235.544 45.175H236.494C236.594 45.175 236.677 45.2 236.744 45.25C236.827 45.2833 236.886 45.375 236.919 45.525C236.969 45.675 237.002 45.9083 237.019 46.225C237.036 46.5417 237.044 46.975 237.044 47.525C237.044 48.1083 237.036 48.5667 237.019 48.9C237.002 49.2333 236.969 49.4833 236.919 49.65C236.886 49.8167 236.827 49.9167 236.744 49.95C236.677 49.9833 236.594 50 236.494 50H236.094C235.694 50 235.344 49.975 235.044 49.925C234.944 50.7417 234.719 51.5 234.369 52.2C234.019 52.9167 233.569 53.5333 233.019 54.05C232.469 54.5833 231.819 55 231.069 55.3C230.336 55.6167 229.536 55.775 228.669 55.775H225.919L225.494 50.975H228.119C229.019 50.975 229.652 50.7917 230.019 50.425C230.402 50.0583 230.594 49.6 230.594 49.05V41.05H235.144V44.825ZM237.451 45.175C237.568 45.175 237.668 45.1417 237.751 45.075C237.834 44.9917 237.876 44.8917 237.876 44.775V41.05H242.276V44.775C242.276 44.8917 242.318 44.9917 242.401 45.075C242.484 45.1417 242.584 45.175 242.701 45.175C242.801 45.175 242.893 45.1417 242.976 45.075C243.059 44.9917 243.101 44.8917 243.101 44.775V41.05H247.501V44.775C247.501 44.8917 247.543 44.9917 247.626 45.075C247.709 45.1417 247.809 45.175 247.926 45.175C248.026 45.175 248.118 45.1417 248.201 45.075C248.284 44.9917 248.326 44.8917 248.326 44.775V41.05H252.726V45.175C252.726 46.0083 252.593 46.725 252.326 47.325C252.059 47.925 251.701 48.425 251.251 48.825C250.801 49.225 250.284 49.525 249.701 49.725C249.134 49.9083 248.543 50 247.926 50C247.576 50 247.159 49.95 246.676 49.85C246.193 49.75 245.784 49.525 245.451 49.175C245.018 49.525 244.609 49.75 244.226 49.85C243.859 49.95 243.576 50 243.376 50H242.701C242.351 50 241.934 49.95 241.451 49.85C240.968 49.75 240.551 49.525 240.201 49.175C239.801 49.525 239.409 49.75 239.026 49.85C238.643 49.95 238.351 50 238.151 50H236.501C236.401 50 236.318 49.9833 236.251 49.95C236.168 49.9167 236.109 49.825 236.076 49.675C236.026 49.5083 235.993 49.2667 235.976 48.95C235.959 48.6333 235.951 48.2 235.951 47.65C235.951 47.0667 235.959 46.6083 235.976 46.275C235.993 45.9417 236.026 45.7 236.076 45.55C236.109 45.3833 236.168 45.2833 236.251 45.25C236.318 45.2 236.401 45.175 236.501 45.175H237.451ZM246.801 35.55H243.226V32.125H246.801V35.55ZM248.601 39.675H241.451V36.25H248.601V39.675Z" fill="white"/>
</svg>
