<svg width="137" height="57" viewBox="0 0 137 57" fill="none" xmlns="http://www.w3.org/2000/svg">
<path d="M25.067 23.5C24.0337 23.5 23.1087 23.3417 22.292 23.025C21.492 22.7083 20.8087 22.25 20.242 21.65C19.6753 21.0667 19.242 20.35 18.942 19.5C18.642 18.65 18.492 17.6917 18.492 16.625V11.4H23.017V16.75C23.017 17.3833 23.2003 17.8667 23.567 18.2C23.9337 18.5333 24.5253 18.7 25.342 18.7H26.167C27.067 18.7 27.7087 18.5167 28.092 18.15C28.4753 17.7833 28.667 17.3167 28.667 16.75V9.05H33.192V16.475C33.192 17.4417 33.0337 18.35 32.717 19.2C32.4003 20.05 31.942 20.7917 31.342 21.425C30.7587 22.075 30.042 22.5833 29.192 22.95C28.342 23.3167 27.3837 23.5 26.317 23.5H25.067ZM27.292 9.9H22.742V6.475H27.292V9.9ZM40.7516 16.9C40.7516 17.8333 40.5932 18.7167 40.2766 19.55C39.9599 20.3833 39.5182 21.1083 38.9516 21.725C38.3849 22.3583 37.7016 22.8583 36.9016 23.225C36.1182 23.5917 35.2432 23.775 34.2766 23.775H33.0266L32.6266 18.975H33.7266C34.6266 18.975 35.2599 18.7917 35.6266 18.425C36.0099 18.0583 36.2016 17.6 36.2016 17.05V9.05H40.7516V16.9ZM40.7516 7.675H36.2016V4.25H40.7516V7.675ZM52.5748 17.45C52.5748 18.55 52.4165 19.5167 52.0998 20.35C51.7998 21.2 51.3665 21.9083 50.7998 22.475C50.2331 23.0417 49.5581 23.4667 48.7748 23.75C48.0081 24.05 47.1665 24.2 46.2498 24.2H42.5248L42.2498 19.375H46.5248C47.0748 19.375 47.4581 19.2667 47.6748 19.05C47.9081 18.8333 48.0248 18.4833 48.0248 18H47.6248C46.5915 18 45.7415 17.8833 45.0748 17.65C44.4081 17.4167 43.8831 17.0917 43.4998 16.675C43.1331 16.2417 42.8748 15.7167 42.7248 15.1C42.5915 14.4833 42.5248 13.8 42.5248 13.05C42.5248 12.3333 42.6331 11.65 42.8498 11C43.0665 10.35 43.3831 9.78333 43.7998 9.3C44.2331 8.8 44.7581 8.40833 45.3748 8.125C45.9915 7.825 46.6915 7.675 47.4748 7.675C48.1581 7.675 48.8081 7.775 49.4248 7.975C50.0415 8.175 50.5831 8.5 51.0498 8.95C51.5165 9.38333 51.8831 9.95 52.1498 10.65C52.4331 11.3333 52.5748 12.175 52.5748 13.175V17.45ZM46.7998 12.75C46.7998 13.0167 46.8498 13.225 46.9498 13.375C47.0498 13.525 47.2748 13.6 47.6248 13.6H48.2998V12.9C48.2998 12.2667 48.0415 11.95 47.5248 11.95C47.0415 11.95 46.7998 12.2167 46.7998 12.75ZM71.25 9.05V12.775C71.25 12.8917 71.2917 12.9917 71.375 13.075C71.4583 13.1417 71.5583 13.175 71.675 13.175C71.9417 13.175 72.075 13.0417 72.075 12.775V9.05H76.5V12.775C76.5 13.0417 76.6333 13.175 76.9 13.175C77.0167 13.175 77.1167 13.1417 77.2 13.075C77.2833 12.9917 77.325 12.8917 77.325 12.775V9.05H81.7V12.775C81.7 12.8917 81.7417 12.9917 81.825 13.075C81.9083 13.1417 82.0083 13.175 82.125 13.175H83.075C83.175 13.175 83.2583 13.2 83.325 13.25C83.4083 13.2833 83.4667 13.375 83.5 13.525C83.55 13.675 83.5833 13.9083 83.6 14.225C83.6167 14.5417 83.625 14.975 83.625 15.525C83.625 16.1083 83.6167 16.5667 83.6 16.9C83.5833 17.2333 83.55 17.4833 83.5 17.65C83.4667 17.8167 83.4083 17.9167 83.325 17.95C83.2583 17.9833 83.175 18 83.075 18H82.3C81.7333 18 81.2333 17.95 80.8 17.85C80.3833 17.75 80 17.525 79.65 17.175C79.2333 17.525 78.7917 17.75 78.325 17.85C77.8583 17.95 77.3833 18 76.9 18C76.5667 18 76.1583 17.95 75.675 17.85C75.1917 17.75 74.775 17.525 74.425 17.175C74.0083 17.525 73.6083 17.75 73.225 17.85C72.8583 17.95 72.5667 18 72.35 18C72.0167 18 71.6833 17.9667 71.35 17.9C71.0333 17.8333 70.775 17.7333 70.575 17.6L71.25 16.475C71.25 17.4417 71.1 18.35 70.8 19.2C70.5 20.05 70.0583 20.7917 69.475 21.425C68.9083 22.075 68.2083 22.5833 67.375 22.95C66.5417 23.3167 65.5917 23.5 64.525 23.5H63.275C62.2417 23.5 61.3167 23.3417 60.5 23.025C59.7 22.7083 59.0167 22.25 58.45 21.65C57.8833 21.0667 57.45 20.35 57.15 19.5C56.85 18.65 56.7 17.6917 56.7 16.625V11.4H61.225V16.75C61.225 17.3833 61.4083 17.8667 61.775 18.2C62.1417 18.5333 62.7333 18.7 63.55 18.7H64.375C65.275 18.7 65.9167 18.5167 66.3 18.15C66.6833 17.7833 66.875 17.3167 66.875 16.75V9.05H71.25ZM75.925 3.55H72.35V0.124999H75.925V3.55ZM77.725 7.675H70.575V4.25H77.725V7.675ZM84.6002 13.175C84.5002 12.9083 84.4502 12.5 84.4502 11.95C84.4502 11.3667 84.5752 10.8 84.8252 10.25C85.0752 9.68333 85.4252 9.18333 85.8752 8.75C86.3252 8.3 86.8669 7.94167 87.5002 7.675C88.1502 7.40833 88.8752 7.275 89.6752 7.275C90.1252 7.275 90.5252 7.33333 90.8752 7.45L93.4002 4.95L98.4002 10.25C98.9669 10.85 99.3502 11.4333 99.5502 12C99.7502 12.55 99.8502 13.0833 99.8502 13.6C99.8502 14.2167 99.7419 14.7917 99.5252 15.325C99.3085 15.8583 98.9919 16.325 98.5752 16.725C98.1585 17.125 97.6502 17.4417 97.0502 17.675C96.4669 17.8917 95.8002 18 95.0502 18H92.0252C91.4585 18 90.9335 17.9917 90.4502 17.975C89.9835 17.9417 89.5419 17.8583 89.1252 17.725C88.5752 17.8583 87.9919 17.9417 87.3752 17.975C86.7585 17.9917 86.2419 18 85.8252 18H83.0752C82.9752 18 82.8919 17.9833 82.8252 17.95C82.7419 17.9167 82.6835 17.825 82.6502 17.675C82.6002 17.5083 82.5669 17.2667 82.5502 16.95C82.5335 16.6333 82.5252 16.2 82.5252 15.65C82.5252 15.0667 82.5335 14.6083 82.5502 14.275C82.5669 13.9417 82.6002 13.7 82.6502 13.55C82.6835 13.3833 82.7419 13.2833 82.8252 13.25C82.8919 13.2 82.9752 13.175 83.0752 13.175H84.6002ZM89.2002 13.325C89.4169 13.1917 89.5919 13.025 89.7252 12.825C89.8752 12.6083 89.9502 12.3583 89.9502 12.075C89.9502 11.875 89.8835 11.6917 89.7502 11.525C89.6169 11.3583 89.4335 11.275 89.2002 11.275C88.9669 11.275 88.7835 11.3583 88.6502 11.525C88.5169 11.6917 88.4502 11.875 88.4502 12.075C88.4502 12.3583 88.5169 12.6083 88.6502 12.825C88.8002 13.025 88.9835 13.1917 89.2002 13.325ZM95.1752 12.825C95.1752 12.7583 95.1585 12.7 95.1252 12.65C95.0919 12.5833 95.0335 12.5 94.9502 12.4C94.8669 12.3 94.7419 12.175 94.5752 12.025C94.4085 11.8583 94.2002 11.65 93.9502 11.4V11.55C93.9502 11.8833 93.9169 12.1917 93.8502 12.475C93.8002 12.7417 93.7419 12.975 93.6752 13.175H94.6252C94.8419 13.175 94.9835 13.15 95.0502 13.1C95.1335 13.0333 95.1752 12.9417 95.1752 12.825ZM107.256 13.175C107.356 13.175 107.44 13.2 107.506 13.25C107.59 13.2833 107.648 13.375 107.681 13.525C107.731 13.675 107.765 13.9083 107.781 14.225C107.798 14.5417 107.806 14.975 107.806 15.525C107.806 16.1083 107.798 16.5667 107.781 16.9C107.765 17.2333 107.731 17.4833 107.681 17.65C107.648 17.8167 107.59 17.9167 107.506 17.95C107.44 17.9833 107.356 18 107.256 18H106.031C105.165 18 104.431 17.875 103.831 17.625C103.248 17.3583 102.773 17.0083 102.406 16.575C102.04 16.1417 101.773 15.6333 101.606 15.05C101.44 14.45 101.356 13.825 101.356 13.175V2.75H105.906V12.775C105.906 13.0417 106.04 13.175 106.306 13.175H107.256ZM112.195 13.175C112.478 13.175 112.62 13.0667 112.62 12.85C112.62 12.7167 112.528 12.55 112.345 12.35L107.795 7.825V4.525L117.57 0.949999L118.67 5.475L113.845 7.275L115.77 9.2C116.22 9.65 116.587 10.0667 116.87 10.45C117.153 10.8167 117.378 11.175 117.545 11.525C117.712 11.8583 117.82 12.1917 117.87 12.525C117.937 12.8583 117.97 13.2167 117.97 13.6C117.97 14.3833 117.845 15.0583 117.595 15.625C117.362 16.175 117.028 16.625 116.595 16.975C116.178 17.325 115.687 17.5833 115.12 17.75C114.553 17.9167 113.945 18 113.295 18H107.245C107.145 18 107.062 17.9833 106.995 17.95C106.912 17.9167 106.853 17.825 106.82 17.675C106.77 17.5083 106.737 17.2667 106.72 16.95C106.703 16.6333 106.695 16.2 106.695 15.65C106.695 15.0667 106.703 14.6083 106.72 14.275C106.737 13.9417 106.77 13.7 106.82 13.55C106.853 13.3833 106.912 13.2833 106.995 13.25C107.062 13.2 107.145 13.175 107.245 13.175H112.195ZM0.852832 45.175C0.852832 44.3583 1.0195 43.5917 1.35283 42.875C1.68617 42.1417 2.20283 41.35 2.90283 40.5L1.85283 39.4L5.05283 36.25C6.33617 37.4167 7.3695 38.4333 8.15283 39.3C8.93617 40.15 9.53617 40.9167 9.95283 41.6C10.3862 42.2667 10.6695 42.8833 10.8028 43.45C10.9528 44.0167 11.0278 44.5917 11.0278 45.175C11.0278 45.875 10.8945 46.5167 10.6278 47.1C10.3612 47.6833 9.9945 48.1917 9.52783 48.625C9.07783 49.0583 8.52783 49.4 7.87783 49.65C7.2445 49.8833 6.55283 50 5.80283 50C5.05283 50 4.3695 49.8833 3.75283 49.65C3.13617 49.4167 2.61117 49.0917 2.17783 48.675C1.76117 48.2583 1.43617 47.7583 1.20283 47.175C0.969499 46.575 0.852832 45.9083 0.852832 45.175ZM6.75283 44.725C6.75283 44.2583 6.47783 43.775 5.92783 43.275C5.37783 43.8083 5.10283 44.2917 5.10283 44.725C5.10283 45.2083 5.37783 45.45 5.92783 45.45C6.47783 45.45 6.75283 45.2083 6.75283 44.725ZM18.4257 45.175C18.5257 45.175 18.609 45.2 18.6757 45.25C18.759 45.2833 18.8174 45.375 18.8507 45.525C18.9007 45.675 18.934 45.9083 18.9507 46.225C18.9674 46.5417 18.9757 46.975 18.9757 47.525C18.9757 48.1083 18.9674 48.5667 18.9507 48.9C18.934 49.2333 18.9007 49.4833 18.8507 49.65C18.8174 49.8167 18.759 49.9167 18.6757 49.95C18.609 49.9833 18.5257 50 18.4257 50H17.2007C16.334 50 15.6007 49.875 15.0007 49.625C14.4174 49.3583 13.9424 49.0083 13.5757 48.575C13.209 48.1417 12.9424 47.6333 12.7757 47.05C12.609 46.45 12.5257 45.825 12.5257 45.175V34.75H17.0757V44.775C17.0757 45.0417 17.209 45.175 17.4757 45.175H18.4257ZM19.3646 45.175C19.4812 45.175 19.5812 45.1417 19.6646 45.075C19.7479 44.9917 19.7896 44.8917 19.7896 44.775C19.7896 43.1083 20.2312 41.8 21.1146 40.85C22.0146 39.8833 23.2396 39.4 24.7896 39.4C26.4229 39.4 27.6479 39.875 28.4646 40.825C29.2812 41.775 29.6896 43.0417 29.6896 44.625C29.6896 46.2917 29.2396 47.6083 28.3396 48.575C27.4396 49.525 26.1979 50 24.6146 50C24.1312 50 23.6562 49.9333 23.1896 49.8C22.7229 49.6667 22.3229 49.4583 21.9896 49.175C21.7896 49.3583 21.5729 49.5 21.3396 49.6C21.1229 49.7 20.8729 49.7833 20.5896 49.85C20.3229 49.9167 20.0146 49.9583 19.6646 49.975C19.3146 49.9917 18.8979 50 18.4146 50C18.3146 50 18.2312 49.9833 18.1646 49.95C18.0812 49.9167 18.0229 49.825 17.9896 49.675C17.9396 49.5083 17.9062 49.2667 17.8896 48.95C17.8729 48.6333 17.8646 48.2 17.8646 47.65C17.8646 47.0667 17.8729 46.6083 17.8896 46.275C17.9062 45.9417 17.9396 45.7 17.9896 45.55C18.0229 45.3833 18.0812 45.2833 18.1646 45.25C18.2312 45.2 18.3146 45.175 18.4146 45.175H19.3646ZM23.9146 44.625C23.9146 44.975 23.9896 45.2 24.1396 45.3C24.2896 45.4 24.4729 45.45 24.6896 45.45C24.8729 45.45 25.0396 45.4 25.1896 45.3C25.3396 45.2 25.4146 44.975 25.4146 44.625C25.4146 44.075 25.1729 43.8 24.6896 43.8C24.1729 43.8 23.9146 44.075 23.9146 44.625ZM43.5862 35.975C43.7696 36.975 43.9029 37.8667 43.9862 38.65C44.0696 39.4333 44.1196 40.025 44.1362 40.425C44.1862 40.4917 44.2446 40.5333 44.3112 40.55C44.3946 40.5667 44.4612 40.575 44.5112 40.575C44.6446 40.575 44.7529 40.5333 44.8362 40.45C44.9196 40.3667 44.9612 40.25 44.9612 40.1C44.9612 40.0167 44.9279 39.6583 44.8612 39.025C44.7946 38.375 44.6946 37.6333 44.5612 36.8L49.0862 35.975C49.2862 37.1417 49.4029 38.0917 49.4362 38.825C49.4696 39.5583 49.4862 40.1667 49.4862 40.65C49.4862 41.3 49.3862 41.9167 49.1862 42.5C48.9862 43.0667 48.6946 43.5583 48.3112 43.975C47.9446 44.3917 47.4862 44.725 46.9362 44.975C46.4029 45.2083 45.7946 45.325 45.1112 45.325C44.7779 45.325 44.3696 45.25 43.8862 45.1C43.4029 44.9333 42.9612 44.6417 42.5612 44.225C42.1779 44.625 41.7529 44.9083 41.2862 45.075C40.8362 45.2417 40.3196 45.325 39.7362 45.325C39.6196 45.325 39.5196 45.325 39.4362 45.325C39.3529 45.325 39.2696 45.3083 39.1862 45.275V51.375H34.6612V45.325C34.6612 44.5417 34.6362 43.825 34.5862 43.175C34.5362 42.5083 34.4529 41.8667 34.3362 41.25C34.2362 40.6333 34.1029 40.025 33.9362 39.425C33.7862 38.8083 33.6112 38.1583 33.4112 37.475L37.8112 35.975L38.7862 40.1C38.8529 40.4167 38.9946 40.575 39.2112 40.575C39.4612 40.575 39.5862 40.4167 39.5862 40.1C39.5862 40.0167 39.5446 39.7083 39.4612 39.175C39.3946 38.625 39.2612 37.8333 39.0612 36.8L43.5862 35.975ZM60.4415 48.9C60.4415 49.8333 60.2832 50.7167 59.9665 51.55C59.6498 52.3833 59.2082 53.1083 58.6415 53.725C58.0748 54.3583 57.3915 54.8583 56.5915 55.225C55.8082 55.5917 54.9332 55.775 53.9665 55.775H51.2165L50.7915 50.975H53.4165C54.3165 50.975 54.9498 50.7917 55.3165 50.425C55.6998 50.0583 55.8915 49.6 55.8915 49.05V41.05H60.4415V48.9ZM64.0147 40.1L67.4397 36.8L71.8397 42.175C72.4731 42.925 72.8814 43.6 73.0647 44.2C73.2647 44.8 73.3647 45.3583 73.3647 45.875C73.3647 46.4417 73.2647 46.975 73.0647 47.475C72.8814 47.975 72.5981 48.4167 72.2147 48.8C71.8314 49.1667 71.3397 49.4583 70.7397 49.675C70.1564 49.8917 69.4647 50 68.6647 50H62.0647L61.6647 45.175H67.4397C67.7064 45.175 67.8397 45.0667 67.8397 44.85C67.8397 44.7 67.7481 44.5083 67.5647 44.275L64.0147 40.1ZM89.3136 45.175C89.4136 45.175 89.4969 45.2 89.5636 45.25C89.6302 45.2833 89.6802 45.375 89.7136 45.525C89.7636 45.675 89.7969 45.9083 89.8136 46.225C89.8302 46.5417 89.8386 46.975 89.8386 47.525C89.8386 48.1083 89.8302 48.5667 89.8136 48.9C89.7969 49.2333 89.7636 49.4833 89.7136 49.65C89.6802 49.8167 89.6302 49.9167 89.5636 49.95C89.4969 49.9833 89.4136 50 89.3136 50H87.8886C87.8386 51.0167 87.6469 51.9083 87.3136 52.675C86.9969 53.4417 86.5636 54.0833 86.0136 54.6C85.4636 55.1333 84.8136 55.5333 84.0636 55.8C83.3136 56.0667 82.4969 56.2 81.6136 56.2H77.8886L77.6136 51.375H81.8886C82.4386 51.375 82.8219 51.2667 83.0386 51.05C83.2719 50.8333 83.3886 50.4833 83.3886 50H82.9886C81.9552 50 81.1052 49.8833 80.4386 49.65C79.7719 49.4167 79.2469 49.0917 78.8636 48.675C78.4969 48.2417 78.2386 47.7167 78.0886 47.1C77.9552 46.4833 77.8886 45.8 77.8886 45.05C77.8886 44.3333 77.9969 43.65 78.2136 43C78.4302 42.35 78.7469 41.7833 79.1636 41.3C79.5969 40.8 80.1219 40.4083 80.7386 40.125C81.3552 39.825 82.0552 39.675 82.8386 39.675C83.5219 39.675 84.1719 39.775 84.7886 39.975C85.4052 40.175 85.9469 40.5 86.4136 40.95C86.8802 41.3833 87.2469 41.95 87.5136 42.65C87.7969 43.3333 87.9386 44.175 87.9386 45.175H89.3136ZM82.1636 44.75C82.1636 45.0167 82.2136 45.225 82.3136 45.375C82.4136 45.525 82.6386 45.6 82.9886 45.6H83.6636V44.9C83.6636 44.2667 83.4052 43.95 82.8886 43.95C82.4052 43.95 82.1636 44.2167 82.1636 44.75ZM90.263 45.175C90.3797 45.175 90.4797 45.1417 90.563 45.075C90.6463 44.9917 90.688 44.8917 90.688 44.775V34.75H95.238V44.775C95.238 45.0417 95.3713 45.175 95.638 45.175H96.588C96.688 45.175 96.7713 45.2 96.838 45.25C96.9213 45.2833 96.9797 45.375 97.013 45.525C97.063 45.675 97.0963 45.9083 97.113 46.225C97.1297 46.5417 97.138 46.975 97.138 47.525C97.138 48.1083 97.1297 48.5667 97.113 48.9C97.0963 49.2333 97.063 49.4833 97.013 49.65C96.9797 49.8167 96.9213 49.9167 96.838 49.95C96.7713 49.9833 96.688 50 96.588 50H95.813C95.2463 50 94.7213 49.95 94.238 49.85C93.7713 49.75 93.363 49.525 93.013 49.175C92.613 49.525 92.2047 49.75 91.788 49.85C91.388 49.95 91.0213 50 90.688 50H89.313C89.213 50 89.1297 49.9833 89.063 49.95C88.9797 49.9167 88.9213 49.825 88.888 49.675C88.838 49.5083 88.8047 49.2667 88.788 48.95C88.7713 48.6333 88.763 48.2 88.763 47.65C88.763 47.0667 88.7713 46.6083 88.788 46.275C88.8047 45.9417 88.838 45.7 88.888 45.55C88.9213 45.3833 88.9797 45.2833 89.063 45.25C89.1297 45.2 89.213 45.175 89.313 45.175H90.263ZM97.5384 45.175C97.655 45.175 97.755 45.1417 97.8384 45.075C97.9217 44.9917 97.9634 44.8917 97.9634 44.775V41.05H102.513V44.775C102.513 45.0417 102.647 45.175 102.913 45.175H103.863C103.963 45.175 104.047 45.2 104.113 45.25C104.197 45.2833 104.255 45.375 104.288 45.525C104.338 45.675 104.372 45.9083 104.388 46.225C104.405 46.5417 104.413 46.975 104.413 47.525C104.413 48.1083 104.405 48.5667 104.388 48.9C104.372 49.2333 104.338 49.4833 104.288 49.65C104.255 49.8167 104.197 49.9167 104.113 49.95C104.047 49.9833 103.963 50 103.863 50H103.088C102.522 50 101.997 49.95 101.513 49.85C101.047 49.75 100.638 49.525 100.288 49.175C99.8884 49.525 99.48 49.75 99.0634 49.85C98.6634 49.95 98.2967 50 97.9634 50H96.5884C96.4884 50 96.405 49.9833 96.3384 49.95C96.255 49.9167 96.1967 49.825 96.1634 49.675C96.1134 49.5083 96.08 49.2667 96.0634 48.95C96.0467 48.6333 96.0384 48.2 96.0384 47.65C96.0384 47.0667 96.0467 46.6083 96.0634 46.275C96.08 45.9417 96.1134 45.7 96.1634 45.55C96.1967 45.3833 96.255 45.2833 96.3384 45.25C96.405 45.2 96.4884 45.175 96.5884 45.175H97.5384ZM103.738 54.8H96.5884V51.35H103.738V54.8ZM108.814 45.175C109.097 45.175 109.239 45.0667 109.239 44.85C109.239 44.7167 109.147 44.55 108.964 44.35L104.414 39.825V36.525L114.189 32.95L115.289 37.475L110.464 39.275L112.389 41.2C112.839 41.65 113.205 42.0667 113.489 42.45C113.772 42.8167 113.997 43.175 114.164 43.525C114.33 43.8583 114.439 44.1917 114.489 44.525C114.555 44.8583 114.589 45.2167 114.589 45.6C114.589 46.3833 114.464 47.0583 114.214 47.625C113.98 48.175 113.647 48.625 113.214 48.975C112.797 49.325 112.305 49.5833 111.739 49.75C111.172 49.9167 110.564 50 109.914 50H103.864C103.764 50 103.68 49.9833 103.614 49.95C103.53 49.9167 103.472 49.825 103.439 49.675C103.389 49.5083 103.355 49.2667 103.339 48.95C103.322 48.6333 103.314 48.2 103.314 47.65C103.314 47.0667 103.322 46.6083 103.339 46.275C103.355 45.9417 103.389 45.7 103.439 45.55C103.472 45.3833 103.53 45.2833 103.614 45.25C103.68 45.2 103.764 45.175 103.864 45.175H108.814ZM120.11 51.375V45.325C120.11 44.5417 120.085 43.825 120.035 43.175C119.985 42.5083 119.902 41.8667 119.785 41.25C119.685 40.6333 119.552 40.025 119.385 39.425C119.235 38.8083 119.06 38.1583 118.86 37.475L123.26 35.975C123.527 36.8083 123.752 37.5833 123.935 38.3C124.119 39 124.26 39.7083 124.36 40.425C124.46 41.1417 124.527 41.8833 124.56 42.65C124.61 43.4167 124.635 44.2583 124.635 45.175V51.375H120.11ZM131.899 45.325C131.783 45.325 131.683 45.325 131.599 45.325C131.516 45.325 131.433 45.3083 131.349 45.275V51.375H126.824V45.325C126.824 44.5417 126.799 43.825 126.749 43.175C126.699 42.5083 126.616 41.8667 126.499 41.25C126.399 40.6333 126.266 40.025 126.099 39.425C125.949 38.8083 125.774 38.1583 125.574 37.475L129.974 35.975L130.949 40.1C131.016 40.4167 131.158 40.575 131.374 40.575C131.624 40.575 131.749 40.4167 131.749 40.1C131.749 40.0167 131.708 39.7083 131.624 39.175C131.558 38.625 131.424 37.8333 131.224 36.8L135.749 35.975C135.966 37.075 136.108 38.0083 136.174 38.775C136.258 39.5417 136.299 40.1667 136.299 40.65C136.299 41.3 136.199 41.9167 135.999 42.5C135.799 43.0667 135.508 43.5583 135.124 43.975C134.758 44.3917 134.299 44.725 133.749 44.975C133.199 45.2083 132.583 45.325 131.899 45.325Z" fill="white"/>
</svg>
