<svg width="169" height="58" viewBox="0 0 169 58" fill="none" xmlns="http://www.w3.org/2000/svg">
<path d="M0.178719 5.36H4.54672V20H0.178719V5.36ZM11.7958 15.104C11.7958 15.04 11.7798 14.96 11.7478 14.864C11.7158 14.768 11.6438 14.584 11.5318 14.312L9.56384 9.176L13.6438 7.328L16.5718 14.984C16.6678 15.24 16.8438 15.368 17.0998 15.368H17.8678C17.9638 15.368 18.0438 15.392 18.1078 15.44C18.1878 15.472 18.2438 15.56 18.2758 15.704C18.3238 15.848 18.3558 16.072 18.3718 16.376C18.3878 16.68 18.3958 17.096 18.3958 17.624C18.3958 18.184 18.3878 18.624 18.3718 18.944C18.3558 19.264 18.3238 19.504 18.2758 19.664C18.2438 19.824 18.1878 19.92 18.1078 19.952C18.0438 19.984 17.9638 20 17.8678 20H16.6918C16.3718 20 15.9798 19.952 15.5158 19.856C15.0518 19.76 14.6518 19.544 14.3158 19.208C13.9158 19.544 13.5478 19.76 13.2118 19.856C12.8918 19.952 12.5958 20 12.3238 20H6.25184L5.86784 15.368H11.4838C11.6918 15.368 11.7958 15.28 11.7958 15.104ZM14.5798 6.272H10.2118V2.984H14.5798V6.272ZM19.2469 15.368C19.2149 15.272 19.1989 15.168 19.1989 15.056C19.1989 14.944 19.1989 14.832 19.1989 14.72C19.1989 14.032 19.3029 13.384 19.5109 12.776C19.7189 12.168 20.0229 11.64 20.4229 11.192C20.8229 10.728 21.3109 10.368 21.8869 10.112C22.4629 9.84 23.1189 9.704 23.8549 9.704C24.3669 9.704 24.9269 9.784 25.5349 9.944C26.1429 10.104 26.8469 10.416 27.6469 10.88L26.3269 14.576C25.7189 14.384 25.2549 14.248 24.9349 14.168C24.6309 14.088 24.3429 14.048 24.0709 14.048C23.8789 14.048 23.7029 14.112 23.5429 14.24C23.3829 14.368 23.3029 14.544 23.3029 14.768C23.3029 14.928 23.3429 15.072 23.4229 15.2C23.5029 15.312 23.6789 15.368 23.9509 15.368H28.1749L27.7909 20H17.8789C17.7829 20 17.7029 19.984 17.6389 19.952C17.5589 19.92 17.5029 19.832 17.4709 19.688C17.4229 19.528 17.3909 19.296 17.3749 18.992C17.3589 18.688 17.3509 18.272 17.3509 17.744C17.3509 17.184 17.3589 16.744 17.3749 16.424C17.3909 16.104 17.4229 15.872 17.4709 15.728C17.5029 15.568 17.5589 15.472 17.6389 15.44C17.7029 15.392 17.7829 15.368 17.8789 15.368H19.2469ZM25.9429 8.384H21.5749V5.096H25.9429V8.384ZM38.2161 19.616L38.6241 15.368H47.8641C47.9601 15.368 48.0401 15.392 48.1041 15.44C48.1681 15.472 48.2241 15.56 48.2721 15.704C48.3201 15.848 48.3521 16.072 48.3681 16.376C48.3841 16.68 48.3921 17.096 48.3921 17.624C48.3921 18.184 48.3841 18.624 48.3681 18.944C48.3521 19.264 48.3201 19.504 48.2721 19.664C48.2241 19.824 48.1681 19.92 48.1041 19.952C48.0401 19.984 47.9601 20 47.8641 20H46.7841C46.7201 20.784 46.5201 21.496 46.1841 22.136C45.8641 22.792 45.4241 23.352 44.8641 23.816C44.3041 24.28 43.6321 24.64 42.8481 24.896C42.0641 25.152 41.1841 25.28 40.2081 25.28H38.4801C37.4881 25.28 36.6001 25.128 35.8161 24.824C35.0481 24.52 34.3921 24.08 33.8481 23.504C33.3041 22.944 32.8881 22.256 32.6001 21.44C32.3121 20.624 32.1681 19.704 32.1681 18.68V13.664H36.5121V18.8C36.5121 19.408 36.6881 19.872 37.0401 20.192C37.3921 20.512 37.9601 20.672 38.7441 20.672H40.8801C41.3441 20.672 41.7441 20.624 42.0801 20.528C42.4161 20.448 42.5841 20.272 42.5841 20C42.5841 19.744 42.4561 19.616 42.2001 19.616H38.2161ZM48.7675 15.368C48.8795 15.368 48.9755 15.336 49.0555 15.272C49.1355 15.192 49.1755 15.096 49.1755 14.984V11.408H53.5435V14.984C53.5435 15.24 53.6715 15.368 53.9275 15.368H54.8395C54.9355 15.368 55.0155 15.392 55.0795 15.44C55.1595 15.472 55.2155 15.56 55.2475 15.704C55.2955 15.848 55.3275 16.072 55.3435 16.376C55.3595 16.68 55.3675 17.096 55.3675 17.624C55.3675 18.184 55.3595 18.624 55.3435 18.944C55.3275 19.264 55.2955 19.504 55.2475 19.664C55.2155 19.824 55.1595 19.92 55.0795 19.952C55.0155 19.984 54.9355 20 54.8395 20H54.0955C53.5515 20 53.0475 19.952 52.5835 19.856C52.1355 19.76 51.7435 19.544 51.4075 19.208C51.0235 19.544 50.6315 19.76 50.2315 19.856C49.8475 19.952 49.4955 20 49.1755 20H47.8555C47.7595 20 47.6795 19.984 47.6155 19.952C47.5355 19.92 47.4795 19.832 47.4475 19.688C47.3995 19.528 47.3675 19.296 47.3515 18.992C47.3355 18.688 47.3275 18.272 47.3275 17.744C47.3275 17.184 47.3355 16.744 47.3515 16.424C47.3675 16.104 47.3995 15.872 47.4475 15.728C47.4795 15.568 47.5355 15.472 47.6155 15.44C47.6795 15.392 47.7595 15.368 47.8555 15.368H48.7675ZM53.5435 10.088H49.1755V6.8H53.5435V10.088ZM61.5598 15.368C61.6718 15.368 61.7678 15.336 61.8478 15.272C61.9278 15.192 61.9678 15.096 61.9678 14.984V11.408H66.3358V15.368C66.3358 16.136 66.2238 16.808 65.9998 17.384C65.7918 17.96 65.4878 18.44 65.0878 18.824C64.7038 19.208 64.2398 19.504 63.6958 19.712C63.1678 19.904 62.5918 20 61.9678 20H54.8398C54.7438 20 54.6638 19.984 54.5998 19.952C54.5198 19.92 54.4638 19.832 54.4318 19.688C54.3838 19.528 54.3518 19.296 54.3358 18.992C54.3198 18.688 54.3118 18.272 54.3118 17.744C54.3118 17.184 54.3198 16.744 54.3358 16.424C54.3518 16.104 54.3838 15.872 54.4318 15.728C54.4638 15.568 54.5198 15.472 54.5998 15.44C54.6638 15.392 54.7438 15.368 54.8398 15.368H61.5598ZM63.0238 24.608H56.1598V21.296H63.0238V24.608ZM65.6605 20.936C66.5245 20.936 67.1325 20.76 67.4845 20.408C67.8525 20.056 68.0365 19.616 68.0365 19.088V11.408H72.4045V15.032C72.4045 15.256 72.5325 15.368 72.7885 15.368H73.7005C73.7965 15.368 73.8765 15.392 73.9405 15.44C74.0205 15.472 74.0765 15.56 74.1085 15.704C74.1565 15.848 74.1885 16.072 74.2045 16.376C74.2205 16.68 74.2285 17.096 74.2285 17.624C74.2285 18.184 74.2205 18.624 74.2045 18.944C74.1885 19.264 74.1565 19.504 74.1085 19.664C74.0765 19.824 74.0205 19.92 73.9405 19.952C73.8765 19.984 73.7965 20 73.7005 20H73.3165C72.9325 20 72.5965 19.976 72.3085 19.928C72.2125 20.712 71.9965 21.44 71.6605 22.112C71.3245 22.8 70.8925 23.392 70.3645 23.888C69.8365 24.4 69.2125 24.8 68.4925 25.088C67.7885 25.392 67.0125 25.544 66.1645 25.544H64.9885L64.6045 20.936H65.6605ZM72.4045 10.088H68.0365V6.8H72.4045V10.088ZM74.235 3.464L82.923 0.319999L83.475 2.912L74.235 6.296V3.464ZM78.459 15.368C78.731 15.368 78.867 15.264 78.867 15.056C78.867 14.928 78.779 14.768 78.603 14.576L74.235 10.232V7.064L83.619 3.632L84.675 7.976L80.043 9.704L81.891 11.552C82.755 12.416 83.467 13.104 84.027 13.616C84.603 14.112 85.083 14.496 85.467 14.768C85.867 15.024 86.203 15.192 86.475 15.272C86.747 15.336 87.019 15.368 87.291 15.368H87.699C87.795 15.368 87.875 15.392 87.939 15.44C88.003 15.472 88.059 15.56 88.107 15.704C88.155 15.848 88.187 16.072 88.203 16.376C88.219 16.68 88.227 17.096 88.227 17.624C88.227 18.184 88.219 18.624 88.203 18.944C88.187 19.264 88.155 19.504 88.107 19.664C88.059 19.824 88.003 19.92 87.939 19.952C87.875 19.984 87.795 20 87.699 20H87.291C86.731 20 86.243 19.992 85.827 19.976C85.427 19.944 85.059 19.888 84.723 19.808C84.403 19.712 84.099 19.576 83.811 19.4C83.539 19.224 83.251 18.984 82.947 18.68C82.531 19.144 82.035 19.48 81.459 19.688C80.883 19.896 80.235 20 79.515 20H73.707C73.611 20 73.531 19.984 73.467 19.952C73.387 19.92 73.331 19.832 73.299 19.688C73.251 19.528 73.219 19.296 73.203 18.992C73.187 18.688 73.179 18.272 73.179 17.744C73.179 17.184 73.187 16.744 73.203 16.424C73.219 16.104 73.251 15.872 73.299 15.728C73.331 15.568 73.387 15.472 73.467 15.44C73.531 15.392 73.611 15.368 73.707 15.368H78.459ZM88.7648 15.368C88.8608 15.368 88.9488 15.336 89.0288 15.272C89.1088 15.192 89.1488 15.096 89.1488 14.984V11.408H93.4928V15.368C93.4928 16.136 93.3808 16.808 93.1568 17.384C92.9488 17.96 92.6528 18.44 92.2688 18.824C91.8848 19.208 91.4208 19.504 90.8768 19.712C90.3488 19.904 89.7728 20 89.1488 20H87.3008C87.2048 20 87.1248 19.984 87.0608 19.952C86.9808 19.92 86.9248 19.832 86.8928 19.688C86.8448 19.528 86.8128 19.296 86.7968 18.992C86.7808 18.688 86.7728 18.272 86.7728 17.744C86.7728 17.184 86.7808 16.744 86.7968 16.424C86.8128 16.104 86.8448 15.872 86.8928 15.728C86.9248 15.568 86.9808 15.472 87.0608 15.44C87.1248 15.392 87.2048 15.368 87.3008 15.368H88.7648ZM94.1648 24.608H87.3008V21.296H94.1648V24.608ZM100.624 15.368C100.72 15.368 100.8 15.392 100.864 15.44C100.944 15.472 101 15.56 101.032 15.704C101.08 15.848 101.112 16.072 101.128 16.376C101.144 16.68 101.152 17.096 101.152 17.624C101.152 18.184 101.144 18.624 101.128 18.944C101.112 19.264 101.08 19.504 101.032 19.664C101 19.824 100.944 19.92 100.864 19.952C100.8 19.984 100.72 20 100.624 20H99.448C98.616 20 97.912 19.88 97.336 19.64C96.776 19.384 96.32 19.048 95.968 18.632C95.616 18.216 95.36 17.728 95.2 17.168C95.04 16.592 94.96 15.992 94.96 15.368V5.36H99.328V14.984C99.328 15.24 99.456 15.368 99.712 15.368H100.624ZM102.461 15.368C102.861 15.368 103.253 15.368 103.637 15.368C104.037 15.352 104.445 15.312 104.861 15.248C105.293 15.168 105.749 15.064 106.229 14.936C106.725 14.792 107.269 14.584 107.861 14.312C107.797 14.12 107.701 13.992 107.573 13.928C107.445 13.848 107.277 13.808 107.069 13.808H101.933L102.317 9.44H108.269C108.733 9.44 109.181 9.504 109.613 9.632C110.061 9.76 110.493 10.04 110.909 10.472C111.325 10.888 111.717 11.504 112.085 12.32C112.469 13.136 112.821 14.24 113.141 15.632L108.269 18.416C107.741 18.72 107.253 18.976 106.805 19.184C106.357 19.376 105.901 19.536 105.437 19.664C104.989 19.776 104.509 19.864 103.997 19.928C103.501 19.976 102.941 20 102.317 20H100.613C100.517 20 100.437 19.984 100.373 19.952C100.293 19.92 100.237 19.832 100.205 19.688C100.157 19.528 100.125 19.296 100.109 18.992C100.093 18.688 100.085 18.272 100.085 17.744C100.085 17.184 100.093 16.744 100.109 16.424C100.125 16.104 100.157 15.872 100.205 15.728C100.237 15.568 100.293 15.472 100.373 15.44C100.437 15.392 100.517 15.368 100.613 15.368H102.461ZM108.557 24.608H104.189V21.296H108.557V24.608ZM123.3 25.28C122.308 25.28 121.42 25.128 120.636 24.824C119.868 24.52 119.212 24.08 118.668 23.504C118.124 22.944 117.708 22.256 117.42 21.44C117.132 20.624 116.988 19.704 116.988 18.68V13.664H121.332V18.8C121.332 19.408 121.508 19.872 121.86 20.192C122.212 20.512 122.78 20.672 123.564 20.672H124.356C125.22 20.672 125.836 20.496 126.204 20.144C126.572 19.792 126.756 19.344 126.756 18.8V11.408H131.1V18.536C131.1 19.464 130.948 20.336 130.644 21.152C130.34 21.968 129.9 22.68 129.324 23.288C128.764 23.912 128.076 24.4 127.26 24.752C126.444 25.104 125.524 25.28 124.5 25.28H123.3ZM125.436 12.224H121.068V8.936H125.436V12.224ZM138.194 15.368C138.29 15.368 138.37 15.392 138.434 15.44C138.514 15.472 138.57 15.56 138.602 15.704C138.65 15.848 138.682 16.072 138.698 16.376C138.714 16.68 138.722 17.096 138.722 17.624C138.722 18.184 138.714 18.624 138.698 18.944C138.682 19.264 138.65 19.504 138.602 19.664C138.57 19.824 138.514 19.92 138.434 19.952C138.37 19.984 138.29 20 138.194 20H137.018C136.186 20 135.482 19.88 134.906 19.64C134.346 19.384 133.89 19.048 133.538 18.632C133.186 18.216 132.93 17.728 132.77 17.168C132.61 16.592 132.53 15.992 132.53 15.368V5.36H136.898V14.984C136.898 15.24 137.026 15.368 137.282 15.368H138.194ZM142.936 15.368C143.208 15.368 143.344 15.264 143.344 15.056C143.344 14.928 143.256 14.768 143.08 14.576L138.712 10.232V7.064L148.096 3.632L149.152 7.976L144.52 9.704L146.368 11.552C147.232 12.416 147.944 13.104 148.504 13.616C149.08 14.112 149.56 14.496 149.944 14.768C150.344 15.024 150.68 15.192 150.952 15.272C151.224 15.336 151.496 15.368 151.768 15.368H152.176C152.272 15.368 152.352 15.392 152.416 15.44C152.48 15.472 152.536 15.56 152.584 15.704C152.632 15.848 152.664 16.072 152.68 16.376C152.696 16.68 152.704 17.096 152.704 17.624C152.704 18.184 152.696 18.624 152.68 18.944C152.664 19.264 152.632 19.504 152.584 19.664C152.536 19.824 152.48 19.92 152.416 19.952C152.352 19.984 152.272 20 152.176 20H151.768C151.208 20 150.72 19.992 150.304 19.976C149.904 19.944 149.536 19.888 149.2 19.808C148.88 19.712 148.576 19.576 148.288 19.4C148.016 19.224 147.728 18.984 147.424 18.68C147.008 19.144 146.512 19.48 145.936 19.688C145.36 19.896 144.712 20 143.992 20H138.184C138.088 20 138.008 19.984 137.944 19.952C137.864 19.92 137.808 19.832 137.776 19.688C137.728 19.528 137.696 19.296 137.68 18.992C137.664 18.688 137.656 18.272 137.656 17.744C137.656 17.184 137.664 16.744 137.68 16.424C137.696 16.104 137.728 15.872 137.776 15.728C137.808 15.568 137.864 15.472 137.944 15.44C138.008 15.392 138.088 15.368 138.184 15.368H142.936ZM153.088 15.368C153.2 15.368 153.296 15.336 153.376 15.272C153.456 15.192 153.496 15.096 153.496 14.984C153.496 13.384 153.92 12.128 154.768 11.216C155.632 10.288 156.808 9.824 158.296 9.824C159.864 9.824 161.04 10.28 161.824 11.192C162.608 12.104 163 13.32 163 14.84C163 16.44 162.568 17.704 161.704 18.632C160.84 19.544 159.648 20 158.128 20C157.664 20 157.208 19.936 156.76 19.808C156.312 19.68 155.928 19.48 155.608 19.208C155.416 19.384 155.208 19.52 154.984 19.616C154.776 19.712 154.536 19.792 154.264 19.856C154.008 19.92 153.712 19.96 153.376 19.976C153.04 19.992 152.64 20 152.176 20C152.08 20 152 19.984 151.936 19.952C151.856 19.92 151.8 19.832 151.768 19.688C151.72 19.528 151.688 19.296 151.672 18.992C151.656 18.688 151.648 18.272 151.648 17.744C151.648 17.184 151.656 16.744 151.672 16.424C151.688 16.104 151.72 15.872 151.768 15.728C151.8 15.568 151.856 15.472 151.936 15.44C152 15.392 152.08 15.368 152.176 15.368H153.088ZM157.456 14.84C157.456 15.176 157.528 15.392 157.672 15.488C157.816 15.584 157.992 15.632 158.2 15.632C158.376 15.632 158.536 15.584 158.68 15.488C158.824 15.392 158.896 15.176 158.896 14.84C158.896 14.312 158.664 14.048 158.2 14.048C157.704 14.048 157.456 14.312 157.456 14.84ZM164.452 5.36H168.82V20H164.452V5.36ZM26.1317 47.368C26.0677 47.176 26.0277 46.96 26.0117 46.72C25.9957 46.464 25.9877 46.2 25.9877 45.928C25.9877 45.336 26.0917 44.76 26.2997 44.2C26.5237 43.624 26.8357 43.112 27.2357 42.664C27.6517 42.216 28.1637 41.856 28.7717 41.584C29.3797 41.312 30.0757 41.176 30.8597 41.176C31.6917 41.176 32.4037 41.312 32.9957 41.584C33.6037 41.856 34.0997 42.216 34.4837 42.664C34.8837 43.096 35.1717 43.592 35.3477 44.152C35.5397 44.696 35.6357 45.248 35.6357 45.808C35.6357 46.128 35.6117 46.424 35.5637 46.696C35.5317 46.952 35.4837 47.176 35.4197 47.368H36.9557C37.0517 47.368 37.1317 47.392 37.1957 47.44C37.2597 47.472 37.3157 47.56 37.3637 47.704C37.4117 47.848 37.4437 48.072 37.4597 48.376C37.4757 48.68 37.4837 49.096 37.4837 49.624C37.4837 50.184 37.4757 50.624 37.4597 50.944C37.4437 51.264 37.4117 51.504 37.3637 51.664C37.3157 51.824 37.2597 51.92 37.1957 51.952C37.1317 51.984 37.0517 52 36.9557 52H33.7637C33.2357 52 32.7317 51.984 32.2517 51.952C31.7877 51.904 31.3237 51.744 30.8597 51.472C30.6357 51.6 30.3877 51.704 30.1157 51.784C29.8437 51.848 29.5717 51.896 29.2997 51.928C29.0437 51.96 28.7957 51.984 28.5557 52C28.3317 52 28.1397 52 27.9797 52H22.1717C21.3397 52 20.6357 51.88 20.0597 51.64C19.4997 51.384 19.0437 51.048 18.6917 50.632C18.3397 50.216 18.0837 49.728 17.9237 49.168C17.7637 48.592 17.6837 47.992 17.6837 47.368V43.408H22.0277V46.984C22.0277 47.096 22.0677 47.192 22.1477 47.272C22.2277 47.336 22.3237 47.368 22.4357 47.368H26.1317ZM30.8117 47.368C31.0197 47.24 31.1877 47.08 31.3157 46.888C31.4597 46.696 31.5317 46.464 31.5317 46.192C31.5317 46 31.4677 45.824 31.3397 45.664C31.2117 45.488 31.0357 45.4 30.8117 45.4C30.5717 45.4 30.3877 45.488 30.2597 45.664C30.1317 45.824 30.0677 46 30.0677 46.192C30.0677 46.464 30.1397 46.696 30.2837 46.888C30.4277 47.08 30.6037 47.24 30.8117 47.368ZM32.9957 39.856H28.6277V36.568H32.9957V39.856ZM37.869 47.368C37.981 47.368 38.077 47.336 38.157 47.272C38.237 47.192 38.277 47.096 38.277 46.984V37.36H42.645V46.984C42.645 47.24 42.773 47.368 43.029 47.368H43.941C44.037 47.368 44.117 47.392 44.181 47.44C44.261 47.472 44.317 47.56 44.349 47.704C44.397 47.848 44.429 48.072 44.445 48.376C44.461 48.68 44.469 49.096 44.469 49.624C44.469 50.184 44.461 50.624 44.445 50.944C44.429 51.264 44.397 51.504 44.349 51.664C44.317 51.824 44.261 51.92 44.181 51.952C44.117 51.984 44.037 52 43.941 52H43.197C42.653 52 42.149 51.952 41.685 51.856C41.237 51.76 40.845 51.544 40.509 51.208C40.125 51.544 39.733 51.76 39.333 51.856C38.949 51.952 38.597 52 38.277 52H36.957C36.861 52 36.781 51.984 36.717 51.952C36.637 51.92 36.581 51.832 36.549 51.688C36.501 51.528 36.469 51.296 36.453 50.992C36.437 50.688 36.429 50.272 36.429 49.744C36.429 49.184 36.437 48.744 36.453 48.424C36.469 48.104 36.501 47.872 36.549 47.728C36.581 47.568 36.637 47.472 36.717 47.44C36.781 47.392 36.861 47.368 36.957 47.368H37.869ZM44.8534 47.368C44.9654 47.368 45.0614 47.336 45.1414 47.272C45.2214 47.192 45.2614 47.096 45.2614 46.984V43.408H49.6294V46.984C49.6294 47.24 49.7574 47.368 50.0134 47.368H50.9254C51.0214 47.368 51.1014 47.392 51.1654 47.44C51.2454 47.472 51.3014 47.56 51.3334 47.704C51.3814 47.848 51.4134 48.072 51.4294 48.376C51.4454 48.68 51.4534 49.096 51.4534 49.624C51.4534 50.184 51.4454 50.624 51.4294 50.944C51.4134 51.264 51.3814 51.504 51.3334 51.664C51.3014 51.824 51.2454 51.92 51.1654 51.952C51.1014 51.984 51.0214 52 50.9254 52H50.1814C49.6374 52 49.1334 51.952 48.6694 51.856C48.2214 51.76 47.8294 51.544 47.4934 51.208C47.1094 51.544 46.7174 51.76 46.3174 51.856C45.9334 51.952 45.5814 52 45.2614 52H43.9414C43.8454 52 43.7654 51.984 43.7014 51.952C43.6214 51.92 43.5654 51.832 43.5334 51.688C43.4854 51.528 43.4534 51.296 43.4374 50.992C43.4214 50.688 43.4134 50.272 43.4134 49.744C43.4134 49.184 43.4214 48.744 43.4374 48.424C43.4534 48.104 43.4854 47.872 43.5334 47.728C43.5654 47.568 43.6214 47.472 43.7014 47.44C43.7654 47.392 43.8454 47.368 43.9414 47.368H44.8534ZM50.8054 42.088H43.9414V38.8H50.8054V42.088ZM52.2458 45.808L52.6298 41.44H58.5818C59.0458 41.44 59.4858 41.496 59.9018 41.608C60.3178 41.72 60.7098 41.952 61.0778 42.304C61.4618 42.656 61.8218 43.168 62.1578 43.84C62.4938 44.496 62.8218 45.368 63.1418 46.456L61.9658 47.368H64.5098C64.6058 47.368 64.6858 47.392 64.7498 47.44C64.8298 47.472 64.8858 47.56 64.9178 47.704C64.9658 47.848 64.9978 48.072 65.0138 48.376C65.0298 48.68 65.0378 49.096 65.0378 49.624C65.0378 50.184 65.0298 50.624 65.0138 50.944C64.9978 51.264 64.9658 51.504 64.9178 51.664C64.8858 51.824 64.8298 51.92 64.7498 51.952C64.6858 51.984 64.6058 52 64.5098 52H62.5418C61.6298 52 60.8938 51.816 60.3338 51.448C59.7898 51.08 59.3578 50.656 59.0378 50.176L58.5818 50.416C58.0538 50.72 57.5658 50.976 57.1178 51.184C56.6698 51.376 56.2138 51.536 55.7498 51.664C55.3018 51.776 54.8218 51.864 54.3098 51.928C53.8138 51.976 53.2538 52 52.6298 52H50.9258C50.8298 52 50.7498 51.984 50.6858 51.952C50.6058 51.92 50.5498 51.832 50.5178 51.688C50.4698 51.528 50.4378 51.296 50.4218 50.992C50.4058 50.688 50.3978 50.272 50.3978 49.744C50.3978 49.184 50.4058 48.744 50.4218 48.424C50.4378 48.104 50.4698 47.872 50.5178 47.728C50.5498 47.568 50.6058 47.472 50.6858 47.44C50.7498 47.392 50.8298 47.368 50.9258 47.368H52.7738C53.1738 47.368 53.5658 47.368 53.9498 47.368C54.3498 47.352 54.7578 47.312 55.1738 47.248C55.6058 47.168 56.0618 47.064 56.5418 46.936C57.0378 46.792 57.5818 46.584 58.1738 46.312C58.1098 46.12 58.0138 45.992 57.8858 45.928C57.7578 45.848 57.5898 45.808 57.3818 45.808H52.2458ZM59.2538 39.976H54.8858V36.688H59.2538V39.976ZM65.4315 47.368C65.5435 47.368 65.6395 47.336 65.7195 47.272C65.7995 47.192 65.8395 47.096 65.8395 46.984C65.8395 45.384 66.2635 44.128 67.1115 43.216C67.9755 42.288 69.1515 41.824 70.6395 41.824C72.2075 41.824 73.3835 42.28 74.1675 43.192C74.9515 44.104 75.3435 45.32 75.3435 46.84C75.3435 48.44 74.9115 49.704 74.0475 50.632C73.1835 51.544 71.9915 52 70.4715 52C70.0075 52 69.5515 51.936 69.1035 51.808C68.6555 51.68 68.2715 51.48 67.9515 51.208C67.7595 51.384 67.5515 51.52 67.3275 51.616C67.1195 51.712 66.8795 51.792 66.6075 51.856C66.3515 51.92 66.0555 51.96 65.7195 51.976C65.3835 51.992 64.9835 52 64.5195 52C64.4235 52 64.3435 51.984 64.2795 51.952C64.1995 51.92 64.1435 51.832 64.1115 51.688C64.0635 51.528 64.0315 51.296 64.0155 50.992C63.9995 50.688 63.9915 50.272 63.9915 49.744C63.9915 49.184 63.9995 48.744 64.0155 48.424C64.0315 48.104 64.0635 47.872 64.1115 47.728C64.1435 47.568 64.1995 47.472 64.2795 47.44C64.3435 47.392 64.4235 47.368 64.5195 47.368H65.4315ZM69.7995 46.84C69.7995 47.176 69.8715 47.392 70.0155 47.488C70.1595 47.584 70.3355 47.632 70.5435 47.632C70.7195 47.632 70.8795 47.584 71.0235 47.488C71.1675 47.392 71.2395 47.176 71.2395 46.84C71.2395 46.312 71.0075 46.048 70.5435 46.048C70.0475 46.048 69.7995 46.312 69.7995 46.84ZM84.8443 42.592C85.5803 42 86.4203 41.704 87.3643 41.704C88.0203 41.704 88.6203 41.832 89.1643 42.088C89.7243 42.328 90.1963 42.672 90.5803 43.12C90.9803 43.568 91.2923 44.104 91.5163 44.728C91.7403 45.336 91.8523 46 91.8523 46.72C91.8523 46.816 91.8523 46.912 91.8523 47.008C91.8523 47.104 91.8443 47.2 91.8283 47.296C91.9083 47.328 92.0443 47.352 92.2363 47.368C92.4283 47.368 92.5643 47.368 92.6443 47.368H93.1723C93.2683 47.368 93.3483 47.392 93.4123 47.44C93.4763 47.472 93.5323 47.56 93.5803 47.704C93.6283 47.848 93.6603 48.072 93.6763 48.376C93.6923 48.68 93.7003 49.096 93.7003 49.624C93.7003 50.184 93.6923 50.624 93.6763 50.944C93.6603 51.264 93.6283 51.504 93.5803 51.664C93.5323 51.824 93.4763 51.92 93.4123 51.952C93.3483 51.984 93.2683 52 93.1723 52H92.6443C92.1803 52 91.6923 51.952 91.1803 51.856C90.6843 51.76 90.1883 51.528 89.6923 51.16C89.2923 51.432 88.8363 51.64 88.3243 51.784C87.8123 51.928 87.2283 52 86.5723 52H79.5643L79.1803 47.368H80.5003V37.36H84.8443V42.592ZM86.8363 47.512C87.1083 47.512 87.3083 47.44 87.4363 47.296C87.5643 47.136 87.6283 46.96 87.6283 46.768C87.6283 46.592 87.5563 46.432 87.4123 46.288C87.2843 46.128 87.1083 46.048 86.8843 46.048C86.6603 46.048 86.3723 46.176 86.0203 46.432C85.6843 46.688 85.2523 47.048 84.7243 47.512H86.8363ZM94.6476 47.368C94.7436 47.368 94.8316 47.336 94.9116 47.272C94.9916 47.192 95.0316 47.096 95.0316 46.984V43.408H99.3756V47.368C99.3756 48.136 99.2636 48.808 99.0396 49.384C98.8316 49.96 98.5356 50.44 98.1516 50.824C97.7676 51.208 97.3036 51.504 96.7596 51.712C96.2316 51.904 95.6556 52 95.0316 52H93.1836C93.0876 52 93.0076 51.984 92.9436 51.952C92.8636 51.92 92.8076 51.832 92.7756 51.688C92.7276 51.528 92.6956 51.296 92.6796 50.992C92.6636 50.688 92.6556 50.272 92.6556 49.744C92.6556 49.184 92.6636 48.744 92.6796 48.424C92.6956 48.104 92.7276 47.872 92.7756 47.728C92.8076 47.568 92.8636 47.472 92.9436 47.44C93.0076 47.392 93.0876 47.368 93.1836 47.368H94.6476ZM100.048 56.608H93.1836V53.296H100.048V56.608ZM100.843 37.36H105.211V52H100.843V37.36ZM111.428 47.032C111.428 47.256 111.556 47.368 111.812 47.368H112.724C112.82 47.368 112.9 47.392 112.964 47.44C113.044 47.472 113.1 47.56 113.132 47.704C113.18 47.848 113.212 48.072 113.228 48.376C113.244 48.68 113.252 49.096 113.252 49.624C113.252 50.184 113.244 50.624 113.228 50.944C113.212 51.264 113.18 51.504 113.132 51.664C113.1 51.824 113.044 51.92 112.964 51.952C112.9 51.984 112.82 52 112.724 52H112.34C111.956 52 111.62 51.976 111.332 51.928C111.236 52.712 111.02 53.44 110.684 54.112C110.348 54.8 109.916 55.392 109.388 55.888C108.86 56.4 108.236 56.8 107.516 57.088C106.812 57.392 106.044 57.544 105.212 57.544H102.572L102.164 52.936H104.684C105.548 52.936 106.156 52.76 106.508 52.408C106.876 52.056 107.06 51.616 107.06 51.088V43.408H111.428V47.032ZM113.642 47.368C113.754 47.368 113.85 47.336 113.93 47.272C114.01 47.192 114.05 47.096 114.05 46.984V43.408H118.274V46.984C118.274 47.096 118.314 47.192 118.394 47.272C118.474 47.336 118.57 47.368 118.682 47.368C118.778 47.368 118.866 47.336 118.946 47.272C119.026 47.192 119.066 47.096 119.066 46.984V43.408H123.29V46.984C123.29 47.096 123.33 47.192 123.41 47.272C123.49 47.336 123.586 47.368 123.698 47.368C123.794 47.368 123.882 47.336 123.962 47.272C124.042 47.192 124.082 47.096 124.082 46.984V43.408H128.306V47.368C128.306 48.168 128.178 48.856 127.922 49.432C127.666 50.008 127.322 50.488 126.89 50.872C126.458 51.256 125.962 51.544 125.402 51.736C124.858 51.912 124.29 52 123.698 52C123.362 52 122.962 51.952 122.498 51.856C122.034 51.76 121.642 51.544 121.322 51.208C120.906 51.544 120.514 51.76 120.146 51.856C119.794 51.952 119.522 52 119.33 52H118.682C118.346 52 117.946 51.952 117.482 51.856C117.018 51.76 116.618 51.544 116.282 51.208C115.898 51.544 115.522 51.76 115.154 51.856C114.786 51.952 114.506 52 114.314 52H112.73C112.634 52 112.554 51.984 112.49 51.952C112.41 51.92 112.354 51.832 112.322 51.688C112.274 51.528 112.242 51.296 112.226 50.992C112.21 50.688 112.202 50.272 112.202 49.744C112.202 49.184 112.21 48.744 112.226 48.424C112.242 48.104 112.274 47.872 112.322 47.728C112.354 47.568 112.41 47.472 112.49 47.44C112.554 47.392 112.634 47.368 112.73 47.368H113.642ZM122.618 38.128H119.186V34.84H122.618V38.128ZM124.346 42.088H117.482V38.8H124.346V42.088ZM138.944 50.944C138.944 51.84 138.792 52.688 138.488 53.488C138.184 54.288 137.76 54.984 137.216 55.576C136.672 56.184 136.016 56.664 135.248 57.016C134.496 57.368 133.656 57.544 132.728 57.544H130.088L129.68 52.936H132.2C133.064 52.936 133.672 52.76 134.024 52.408C134.392 52.056 134.576 51.616 134.576 51.088V43.408H138.944V50.944ZM142.374 42.496L145.662 39.328L149.886 44.488C150.494 45.208 150.886 45.856 151.062 46.432C151.254 47.008 151.35 47.544 151.35 48.04C151.35 48.584 151.254 49.096 151.062 49.576C150.886 50.056 150.614 50.48 150.246 50.848C149.878 51.2 149.406 51.48 148.83 51.688C148.27 51.896 147.606 52 146.838 52H140.502L140.118 47.368H145.662C145.918 47.368 146.046 47.264 146.046 47.056C146.046 46.912 145.958 46.728 145.782 46.504L142.374 42.496Z" fill="white"/>
</svg>
