<svg id="Capa_1" enable-background="new 0 0 512 512" height="512" viewBox="0 0 512 512" width="512" xmlns="http://www.w3.org/2000/svg"><g><path d="m154.006 130v31.178c-3.772-.76-7.228-1.178-10-1.178-16.542 0-30 13.458-30 30s13.458 30 30 30c2.772 0 6.228-.418 10-1.178v31.178c0 5.523 4.477 9.99 10 9.99h31.178c-.76 3.772-1.178 7.228-1.178 10 0 16.542 13.458 30.01 30 30.01s30-13.458 30-30c0-2.772-.418-6.228-1.178-10h31.178c5.523 0 10-4.477 10-10v-31.178c3.772.76 7.228 1.178 10 1.178 16.542 0 30-13.458 30-30s-13.458-30-30-30c-2.772 0-6.228.418-10 1.178v-31.178c0-5.523-4.477-10-10-10h-31.178c.76-3.772 1.178-7.228 1.178-10 0-16.542-13.458-30-30-30s-30 13.458-30 30c0 2.772.418 6.228 1.178 10h-31.178c-5.523 0-10 4.477-10 10zm20 44.33v-34.33h34.33c6.895 0 11.735-6.835 9.424-13.346-2.579-7.264-3.754-13.725-3.754-16.654 0-5.514 4.486-10 10-10s10 4.486 10 10c0 2.929-1.175 9.39-3.754 16.654-2.306 6.496 2.514 13.346 9.424 13.346h34.33v34.33c0 6.894 6.833 11.735 13.346 9.424 7.264-2.579 13.725-3.754 16.654-3.754 5.514 0 10 4.486 10 10s-4.486 10-10 10c-2.929 0-9.39-1.175-16.654-3.754-6.496-2.306-13.346 2.513-13.346 9.424v34.33h-34.33c-6.895 0-11.735 6.835-9.424 13.346 2.579 7.264 3.754 13.725 3.754 16.654 0 5.514-4.486 10-10 10s-10-4.486-10-10c0-2.929 1.175-9.39 3.754-16.654 2.306-6.496-2.514-13.346-9.424-13.346h-34.33v-34.33c0-6.882-6.82-11.74-13.346-9.424-7.264 2.579-13.725 3.754-16.654 3.754-5.514 0-10-4.486-10-10s4.486-10 10-10c2.929 0 9.39 1.175 16.654 3.754 6.498 2.305 13.346-2.514 13.346-9.424z"/><circle cx="97.006" cy="63" r="10"/><path d="m114.106 500.586c-.41 2.87.445 5.776 2.345 7.966 1.899 2.19 4.656 3.448 7.555 3.448h160c5.523 0 10-4.477 10-10 0-21.272 17.473-46 40-46h40c26.113 0 47.614-20.12 49.814-45.672l3.117-3.116c9.489-9.49 11.28-23.807 5.371-35.118 5.964-3.567 10.453-9.037 12.81-15.695 2.714-7.666 2.242-15.888-1.325-23.184l-6.182-14.095 19.858-6.403c9.935-3.312 17.303-11.375 19.709-21.569 2.396-10.152-.555-20.616-7.896-28.014-53.215-55.633-42.595-44.582-44.064-46.065-7.23-7.229-11.211-16.843-11.211-27.069 0-104.767-85.233-190-190-190-34.138 0-67.62 9.161-96.826 26.491-4.75 2.819-6.315 8.954-3.497 13.703 2.818 4.75 8.954 6.315 13.703 3.497 26.118-15.499 56.07-23.691 86.619-23.691 93.738 0 170 76.262 170 170 0 15.53 6.032 30.132 16.988 41.13 0 0 44.008 46.009 44.061 46.062 3.555 3.554 3.043 7.731 2.658 9.361-.385 1.632-1.797 5.599-6.476 7.16l-30.3 9.77c-2.692.868-4.89 2.835-6.051 5.415-1.161 2.579-1.174 5.529-.038 8.12 8.122 18.509 10.754 24.535 10.934 24.895 1.227 2.453 1.398 5.227.483 7.811-.914 2.583-2.792 4.629-5.284 5.762l-8.61 3.91c-2.986 1.356-5.118 4.091-5.704 7.319s.449 6.538 2.768 8.857l3.36 3.36c3.898 3.897 3.898 10.24 0 14.138l-5.86 5.86c-1.875 1.875-2.929 4.419-2.929 7.071 0 16.542-13.458 30-30 30h-40c-30.126 0-54.537 26.784-59.196 56h-139.507c7.183-70.696-16.284-115.242-39.015-158.396-20.788-39.465-42.282-80.272-42.282-143.605 0-30.548 8.192-60.501 23.691-86.62 2.818-4.75 1.252-10.884-3.497-13.703-4.749-2.818-10.885-1.253-13.703 3.497-17.331 29.206-26.491 62.688-26.491 96.826 0 68.278 22.667 111.31 44.587 152.925 23.478 44.573 45.655 86.674 35.513 157.661z"/></g></svg>