<svg width="23" height="23" viewBox="0 0 23 23" fill="none" xmlns="http://www.w3.org/2000/svg">
<path d="M1.24342 11.5995V22.1152H21.7566V11.5994C22.5163 10.9608 23 10.004 23 8.93629V5.81033L19.9485 0.884766H3.143L0 5.80427V8.93629C0 10.0041 0.483732 10.9609 1.24342 11.5995ZM6.72034 2.49437L5.34759 6.05982V8.15488V8.93629C5.34759 9.23359 5.27748 9.51468 5.15344 9.76448C4.84752 10.3806 4.21185 10.8053 3.47858 10.8053C3.25923 10.8053 3.04872 10.767 2.85299 10.6973C2.12922 10.4394 1.60958 9.74751 1.60958 8.93632V8.1549V6.27458L4.02471 2.49439L6.72034 2.49437ZM10.6952 2.49437V8.1549V8.93632C10.6952 9.23362 10.6251 9.51471 10.5011 9.7645C10.1951 10.3806 9.55946 10.8053 8.82619 10.8053C8.09293 10.8053 7.45725 10.3806 7.15133 9.7645C7.0273 9.51471 6.95719 9.2336 6.95719 8.93632V8.1549V6.35899L8.44512 2.49439L10.6952 2.49437ZM14.5549 2.49437L16.0428 6.35899V8.1549V8.93632C16.0428 9.23362 15.9727 9.51471 15.8487 9.7645C15.5427 10.3806 14.9071 10.8053 14.1738 10.8053C13.4405 10.8053 12.8049 10.3806 12.4989 9.7645C12.3749 9.51471 12.3048 9.2336 12.3048 8.93632V8.1549V2.49437H14.5549ZM19.0522 2.49437L21.3904 6.26852V8.1549V8.93632C21.3904 9.74751 20.8708 10.4394 20.147 10.6973C19.9513 10.767 19.7408 10.8053 19.5214 10.8053C18.7881 10.8053 18.1525 10.3806 17.8466 9.7645C17.7225 9.51471 17.6524 9.2336 17.6524 8.93632V8.1549V6.05984L16.2797 2.49441L19.0522 2.49437ZM20.147 20.5056H2.85302V12.3584C3.05601 12.3954 3.26507 12.4149 3.47861 12.4149C4.55228 12.4149 5.5138 11.9261 6.15241 11.1592C6.79102 11.9261 7.75254 12.4149 8.82619 12.4149C9.89987 12.4149 10.8614 11.9261 11.5 11.1592C12.1386 11.9261 13.1002 12.4149 14.1738 12.4149C15.2475 12.4149 16.209 11.9261 16.8476 11.1592C17.4862 11.9261 18.4477 12.4149 19.5214 12.4149C19.7349 12.4149 19.944 12.3955 20.147 12.3584V20.5056Z" fill="#FF5757"/>
</svg>
