<?xml version="1.0" encoding="UTF-8" ?>
<!DOCTYPE svg PUBLIC "-//W3C//DTD SVG 1.1//EN" "http://www.w3.org/Graphics/SVG/1.1/DTD/svg11.dtd">
<svg width="512pt" height="512pt" viewBox="0 0 512 512" version="1.1" xmlns="http://www.w3.org/2000/svg">
<g id="#c2c2c2ff">
<path fill="#c2c2c2" opacity="1.00" d=" M 153.42 56.68 C 197.44 46.96 245.99 59.46 279.09 90.27 C 319.53 52.32 383.48 42.52 433.46 66.49 C 459.71 78.92 481.73 100.00 495.44 125.60 C 506.04 145.14 511.65 167.27 512.00 189.48 L 512.00 192.39 C 511.77 206.57 509.21 220.63 504.90 234.13 C 499.79 255.31 488.88 274.58 476.18 292.09 C 470.25 299.55 464.82 307.41 458.37 314.44 C 432.96 343.96 403.70 369.89 373.43 394.31 C 346.19 415.81 318.06 436.20 288.96 455.11 C 283.93 458.74 276.85 459.85 271.39 456.50 C 259.74 449.35 248.68 441.30 237.34 433.67 C 214.25 416.92 191.14 400.12 169.39 381.62 C 164.81 377.54 158.69 374.16 157.18 367.73 C 155.00 360.23 159.66 351.61 167.16 349.42 C 172.10 347.78 177.76 348.89 181.75 352.23 C 191.17 359.83 200.51 367.53 209.90 375.17 C 232.40 392.62 255.38 409.45 279.09 425.21 C 313.08 402.71 345.66 378.11 376.72 351.72 C 402.01 329.77 426.34 306.47 446.91 279.97 C 459.35 263.27 470.93 245.24 475.79 224.74 C 479.68 212.25 482.06 199.09 481.01 185.98 C 480.08 162.66 471.07 139.79 456.04 121.96 C 440.45 103.38 418.48 89.97 394.50 85.73 C 357.09 78.69 316.20 92.36 291.48 121.52 C 287.31 126.89 279.67 128.98 273.34 126.50 C 268.95 124.99 266.21 121.04 263.16 117.81 C 232.28 84.66 179.67 74.33 138.62 93.60 C 122.25 101.48 107.66 113.27 97.12 128.11 C 78.53 153.46 71.92 187.34 80.16 217.74 C 82.48 225.41 84.13 233.31 87.53 240.60 C 89.69 245.17 91.91 249.70 94.10 254.25 C 123.79 254.24 153.49 254.25 183.18 254.25 C 192.68 232.44 202.18 210.63 211.65 188.81 C 213.46 184.53 215.39 179.89 219.50 177.32 C 225.47 173.19 234.34 174.44 239.05 179.93 C 241.31 182.36 242.36 185.60 243.14 188.76 C 250.44 219.74 257.76 250.72 265.10 281.70 C 274.68 266.03 284.20 250.32 293.80 234.65 C 296.55 229.97 301.62 226.71 307.12 226.69 C 324.44 226.52 341.76 226.70 359.08 226.60 C 364.52 226.23 370.47 227.54 374.05 231.97 C 379.36 237.81 378.86 247.70 372.98 252.96 C 369.58 256.36 364.62 257.40 359.97 257.17 C 345.20 257.20 330.42 257.03 315.65 257.26 C 301.65 280.66 287.31 303.85 273.20 327.19 C 271.15 330.71 268.39 334.08 264.43 335.48 C 258.48 337.95 251.14 335.91 247.19 330.87 C 244.46 327.61 243.73 323.29 242.76 319.28 C 236.37 292.24 229.94 265.21 223.53 238.17 C 218.33 250.07 213.17 261.99 207.99 273.90 C 205.63 280.94 198.43 285.41 191.08 284.79 C 132.68 284.76 74.27 284.81 15.87 284.77 C 7.78 285.15 0.42 278.38 0.00 270.32 L 0.00 268.95 C 0.26 261.12 7.13 254.23 15.03 254.29 C 30.02 254.17 45.01 254.29 60.00 254.24 C 55.99 244.84 53.49 234.94 50.62 225.16 C 40.12 186.15 48.54 142.81 72.27 110.21 C 91.62 83.33 120.93 63.56 153.42 56.68 Z" />
</g>
</svg>
