<svg xmlns="http://www.w3.org/2000/svg" width="20.276" height="19.169" viewBox="0 0 20.276 19.169">
  <g id="Group_4486" data-name="Group 4486" transform="translate(-29.147 -3.822)">
    <path id="Path_804" data-name="Path 804" d="M-203.541-131.178q-1.111-1.105-2.222-2.209a1.014,1.014,0,0,1-.336-.94.959.959,0,0,1,.671-.789.949.949,0,0,1,1.011.223c.3.288.6.59.892.887q1.553,1.553,3.1,3.107a1.022,1.022,0,0,1,0,1.6q-1.988,1.991-3.979,3.979a1.013,1.013,0,0,1-1.48.035,1.007,1.007,0,0,1,.05-1.463l2.13-2.134c.054-.054.1-.111.189-.2h-.319q-7.657,0-15.314,0a1.061,1.061,0,0,1-.974-.475,1,1,0,0,1,.662-1.53,2.2,2.2,0,0,1,.4-.027h15.495Z" transform="translate(249.456 147.971)" fill="#6ca7ff"/>
    <path id="Path_805" data-name="Path 805" d="M-216.963-186.2h15.687a1.009,1.009,0,0,1,1.092.974.991.991,0,0,1-.875,1.037,2.535,2.535,0,0,1-.355.016h-15.551c.093.1.147.164.205.223.7.707,1.415,1.406,2.11,2.121a1,1,0,0,1-.423,1.678.948.948,0,0,1-.989-.236q-2.053-2.043-4.095-4.1a.979.979,0,0,1,.009-1.41q2.023-2.04,4.061-4.064a1,1,0,0,1,1.429-.011.993.993,0,0,1,.009,1.429c-.7.714-1.406,1.415-2.11,2.121C-216.816-186.357-216.871-186.294-216.963-186.2Z" transform="translate(249.598 194.083)" fill="#6ca7ff"/>
  </g>
</svg>
