<svg width="176" height="193" viewBox="0 0 176 193" fill="none" xmlns="http://www.w3.org/2000/svg">
    <g filter="url(#filter0_d)">
        <path
            d="M120.19 112.059C122.549 110.115 136.17 101.689 143.629 94.5917C149.451 89.0455 151.704 74.5636 142.747 67.5192C131.102 58.3711 119.925 67.9761 119.925 67.9761C119.925 67.9761 118.947 62.5467 112.147 59.3592C103.583 55.343 92.7352 53.8449 82.7583 53.9724C73.0895 54.0892 64.1858 55.258 56.2808 59.1361C49.2045 62.6105 48.7795 67.5617 48.7795 67.5617C48.7795 67.5617 39.4933 58.6899 28.1139 65.8936C16.7452 73.108 20.007 87.558 25.4789 93.6249C32.6083 101.53 41.172 105.557 45.0608 108.468C48.9389 111.379 52.6577 114.152 52.6577 116.649C52.6577 119.146 51.5527 119.699 51.1277 119.56C50.7133 119.422 49.9802 116.989 48.0783 118.03C45.4858 119.465 46.272 125.245 51.6802 125.797C56.9183 126.339 57.917 120.804 57.917 120.804L58.7458 115.395L67.3414 121.356L76.7658 129.123L76.4895 135.774C76.4895 135.774 76.0752 140.906 73.5783 145.347C71.0814 149.789 67.0652 154.219 67.0652 154.219L66.9377 158.235L101.883 157.407L100.778 153.529C100.778 153.529 96.2733 148.577 93.5639 143.265C91.6302 139.461 91.322 135.625 91.322 135.625L91.237 126.084L109.374 114.97C109.374 114.97 111.318 116.5 111.042 117.053C110.766 117.605 110.702 123.269 115.058 125.372C119.361 127.455 122.825 124.82 122.411 121.207C121.996 117.605 119.776 118.849 119.085 119.401C118.395 119.954 116.865 120.092 116.45 118.009C116.025 115.948 117.831 114.004 120.19 112.059ZM30.9083 92.4455L26.7539 79.8017L31.7795 73.2249L37.4108 71.578C37.4108 71.578 44.6039 76.9436 44.8589 77.3792C45.1139 77.8149 49.4489 86.7292 49.4489 86.7292L55.1652 107.427L30.9083 92.4455ZM112.572 109.074C112.657 108.638 117.938 86.8992 117.938 86.8992C117.938 86.6442 121.656 84.9124 121.656 84.5617C121.656 84.2111 128.414 73.2142 128.414 73.2142L139.676 73.6499L142.014 84.8167L136.383 94.0817C136.393 94.0924 112.487 109.499 112.572 109.074Z"
            fill="#FEC417" />
        <path
            d="M144.415 81.5549C143.587 71.6524 133.79 69.283 129.764 70.7174C125.737 72.1517 123.123 74.8399 122.23 78.6649C121.508 81.7567 120.785 83.818 119.957 84.1367C119.043 84.4767 118.204 84.3386 118.204 84.3386C118.204 84.3386 118.055 77.6449 118.097 74.9461C118.204 69.3786 119.904 67.9549 119.904 67.9549C119.904 67.9549 119.542 66.0742 118.82 65.033C118.097 64.0024 116.759 62.6636 116.759 62.6636C116.759 62.6636 117.067 65.3411 115.728 65.968C114.389 66.5949 112.944 65.6599 112.944 65.6599L114.283 71.2274C114.283 71.2274 112.115 98.9799 111.914 99.5961C111.712 100.212 103.562 114.344 103.562 114.344C103.562 114.344 98.8129 118.785 96.5498 119.815C94.276 120.846 92.321 123.534 83.5554 123.63C74.7898 123.736 67.2567 116.819 67.2567 116.819L59.7235 109.594L54.156 93.1892L53.3273 76.4761L53.6779 70.3986L53.9223 67.8592L53.5292 66.5736C53.5292 66.5736 52.8067 67.2961 51.4679 66.988C50.1292 66.6799 49.6085 64.9267 49.6085 64.9267C49.6085 64.9267 49.0879 65.7555 48.9923 66.1699C48.886 66.5842 48.7798 67.5405 48.7798 67.5405C48.7798 67.5405 50.2248 69.0599 50.5329 71.2274C50.841 73.3949 50.4267 82.373 48.886 82.1605C47.3348 81.9586 47.8448 74.4255 41.9692 71.5355C36.8798 69.028 29.2829 69.7824 26.1804 76.0724C23.0885 82.3624 25.3517 89.7892 35.0523 96.7061C44.7529 103.623 55.0804 109.435 56.7167 114.981C58.6717 121.579 54.241 125.5 54.241 125.5C54.241 125.5 57.4604 125.054 59.0435 121.6C59.5535 120.485 59.7448 118.859 59.8192 117.892C63.4848 122.674 68.3617 126.722 74.8217 128.677C77.2654 129.516 80.0173 129.941 83.8423 129.941C84.3948 129.941 84.9367 129.92 85.4785 129.899C89.9517 129.739 93.7767 128.9 97.4848 127.062C102.489 124.745 106.367 121.207 109.364 117.191C109.279 118.147 109.863 120.527 110.979 122.408C112.934 125.712 116.238 125.914 116.238 125.914C116.238 125.914 111.701 123.237 112.625 116.84C113.55 110.444 117.779 108.17 124.175 104.048C130.592 99.9149 145.234 91.4574 144.415 81.5549ZM39.5998 95.5905C36.7204 93.5611 31.6735 90.8517 29.591 86.7186C26.8179 81.2042 29.0704 74.5424 34.3404 73.7242C45.2842 72.003 45.486 85.5924 46.2085 87.2392C46.931 88.8861 48.9923 88.9924 48.9923 88.9924C48.9923 88.9924 49.0667 89.9061 49.3642 91.6699C49.3748 91.723 49.3854 91.7655 49.3854 91.8186L49.4173 91.978C49.6192 93.1786 49.906 94.6767 50.3098 96.3874L50.3417 96.5149C50.5648 97.4817 50.7985 98.3955 51.0429 99.2349C51.5317 100.999 52.1267 102.9 52.8598 104.855C51.7973 104.133 45.7092 99.9149 39.5998 95.5905ZM138.742 87.9511C136.457 91.6486 131.835 94.4005 128.425 96.7167C124.026 99.7024 117.481 104.186 115.632 105.44C116.057 104.314 116.429 103.198 116.769 102.104C117.322 100.659 117.906 98.8949 118.31 96.993C119.372 91.9992 119.553 87.6324 119.553 87.6324C119.553 87.6324 121.72 88.2486 123.059 86.8036C124.398 85.3586 124.897 80.8749 126.151 78.7605C128.106 75.4561 132.027 72.0561 137.913 76.1786C141.313 78.5692 141.44 83.5736 138.742 87.9511Z"
            fill="#FFA828" />
        <path
            d="M81.3024 133.267L87.3056 133.192C87.3056 133.192 87.4649 139.748 88.4106 144.636C89.3562 149.534 90.6206 154.974 90.6206 154.974C90.6206 154.974 78.3912 159.075 78.4655 154.655C78.5399 150.235 80.3568 141.629 80.3568 141.629C80.3568 141.629 81.4618 131.376 81.3024 133.267Z"
            fill="#FFA828" />
        <path
            d="M71.2296 65.1393C71.2296 65.1393 77.9127 64.3849 84.1284 64.4805C90.344 64.5761 96.7402 65.798 96.7402 65.798C96.7402 65.798 96.3684 86.6018 95.2315 98.2786C94.1052 109.956 89.6852 118.7 88.5059 121.176C87.369 123.577 86.5402 124.862 86.5402 124.862L80.5477 124.161L70.1884 103.357L71.2296 65.1393Z"
            fill="#FFA828" />
        <path
            d="M63.2293 68.2524C63.2293 68.2524 65.11 67.3067 67.8406 66.2761C70.3162 65.3411 72.5475 65.0542 72.5475 65.0542C72.5475 65.0542 72.6112 78.8455 72.8343 88.6842C73.0256 97.0674 76.1281 110.805 77.6368 114.482C79.1456 118.158 81.8656 123.768 81.8656 123.768C81.8656 123.768 76.3937 122.982 73.0256 118.71C71.2512 116.458 62.9531 99.033 62.6662 87.5474C62.3793 76.0617 63.5056 67.9655 63.2293 68.2524Z"
            fill="#FFEFAB" />
        <path
            d="M60.1164 69.8462C59.9251 70.4094 58.427 82.2775 60.7751 93.285C63.1233 104.292 66.5976 111.826 68.8926 114.811C70.9326 117.457 72.2608 118.711 73.0151 118.711C73.7695 118.711 69.9126 109.584 68.117 102.422C66.332 95.2719 65.3864 86.6975 65.1951 82.4687C65.0039 78.2294 64.8233 67.3069 64.8233 67.3069C64.8233 67.3069 62.7514 68.2525 62.2839 68.5287C61.8164 68.8156 60.1164 69.8462 60.1164 69.8462Z"
            fill="#FFFCFD" />
        <path
            d="M73.6736 154.198C73.6736 154.198 77.7217 147.611 78.5717 142.617C79.4217 137.623 79.8892 133.203 79.8892 133.203L82.3967 133.309C82.3967 133.309 82.1523 140.545 81.8655 145.443C81.5786 150.341 80.7392 155.144 80.7392 155.144L73.6736 154.198Z"
            fill="#FFEFAB" />
        <path
            d="M76.7866 129.123C76.7866 129.123 78.6673 127.285 83.8416 127.285C89.016 127.285 91.2366 129.272 91.2366 129.272L91.3748 135.658C91.3748 135.658 87.9323 134.585 83.746 134.531C80.261 134.489 76.5104 135.785 76.5104 135.785L76.7866 129.123Z"
            fill="#D1701C" />
        <path
            d="M54.1874 65.7026C55.0587 64.8951 63.4099 58.6264 83.1831 58.4564C104.454 58.2651 112.434 64.4276 112.933 64.7676C113.496 65.1395 114.155 66.8395 113.879 67.5939C113.592 68.3482 113.029 68.6245 111.435 67.9657C109.831 67.307 101.926 61.5376 82.9068 62.1326C64.6424 62.6957 56.8968 68.2526 56.0787 68.7201C55.4199 69.092 54.198 69.1876 53.6349 68.4332C53.0612 67.6895 53.6243 66.2339 54.1874 65.7026Z"
            fill="#D1701C" />
        <path
            d="M113.879 70.133C111.435 70.3243 113.125 90.0018 107.95 102.327C102.404 115.512 95.3279 119.274 95.6148 120.028C95.9016 120.782 102.829 118.689 107.196 112.495C111.244 106.757 113.688 101.668 114.825 94.8893C115.94 88.1105 116.599 69.9205 113.879 70.133Z"
            fill="#D1701C" />
        <path
            d="M53.6669 72.3855C53.0506 72.3536 53.6775 82.1711 52.6788 86.4849C52.2963 88.1424 51.3613 88.4824 51.2656 88.8542C51.17 89.2261 53.3163 101.859 56.9181 107.405C60.4031 112.771 67.2775 119.454 68.4038 118.328C69.53 117.202 63.41 113.43 59.2769 105.238C56.8969 100.542 54.4744 93.4655 54.3788 85.3692C54.315 80.0142 54.9844 72.4599 53.6669 72.3855Z"
            fill="#D1701C" />
        <path
            d="M109.193 168.754L109.182 153.571H60.4456C60.5943 153.571 60.4774 165.917 60.4562 168.807H53.5287V179.804H115.419V168.807L109.193 168.754Z"
            fill="#865C50" />
        <path
            d="M76.064 161.551C74.8634 161.497 73.4821 161.742 73.429 163.229C73.3759 164.717 73.3759 169.02 73.3759 169.838C73.3759 170.656 74.0452 171.368 75.724 171.421C77.4027 171.474 93.1596 171.421 94.2646 171.421C95.3696 171.421 95.9433 170.465 95.9858 169.509C96.039 168.552 95.9327 164.526 95.9327 163.431C95.9327 161.614 94.3071 161.614 93.2021 161.614C92.0121 161.593 76.064 161.551 76.064 161.551Z"
            fill="#FCC219" />
        <path
            d="M108.458 138.604L114.5 138L108.458 137.396L112.304 132.697L107.604 136.542L107 130.5L106.396 136.542L101.697 132.697L105.542 137.396L99.5 138L105.542 138.604L101.697 143.303L106.396 139.458L107 145.5L107.604 139.458L112.304 143.303L108.458 138.604Z"
            fill="#FFEFAB" />
        <path
            d="M34.56 157C34.4001 157.001 34.2423 156.963 34.1 156.89L29 154.22L23.9 156.89C23.7344 156.977 23.5477 157.016 23.3611 157.002C23.1745 156.988 22.9955 156.923 22.8444 156.812C22.6934 156.702 22.5763 156.551 22.5066 156.378C22.4369 156.204 22.4173 156.014 22.45 155.83L23.45 150.2L19.33 146.2C19.2015 146.072 19.1103 145.911 19.0662 145.735C19.0222 145.559 19.027 145.374 19.08 145.2C19.138 145.022 19.2446 144.864 19.3878 144.744C19.5309 144.624 19.7049 144.546 19.89 144.52L25.59 143.69L28.1 138.56C28.1819 138.391 28.3097 138.248 28.4689 138.149C28.6281 138.049 28.8122 137.996 29 137.996C29.1879 137.996 29.3719 138.049 29.5311 138.149C29.6903 138.248 29.8181 138.391 29.9 138.56L32.44 143.68L38.14 144.51C38.3251 144.536 38.4991 144.614 38.6423 144.734C38.7854 144.854 38.892 145.012 38.95 145.19C39.0031 145.364 39.0078 145.549 38.9638 145.725C38.9197 145.901 38.8286 146.062 38.7 146.19L34.58 150.19L35.58 155.82C35.6157 156.007 35.597 156.201 35.5261 156.378C35.4553 156.556 35.3352 156.709 35.18 156.82C34.9989 156.947 34.7809 157.01 34.56 157ZM29 152.1C29.1603 152.096 29.3189 152.134 29.46 152.21L33.23 154.21L32.51 150C32.4821 149.839 32.4939 149.674 32.5444 149.519C32.595 149.364 32.6827 149.223 32.8 149.11L35.8 146.18L31.6 145.56C31.446 145.529 31.3014 145.462 31.1781 145.365C31.0547 145.268 30.956 145.143 30.89 145L29 141.25L27.11 145C27.0377 145.144 26.9317 145.268 26.8011 145.362C26.6706 145.456 26.5192 145.517 26.36 145.54L22.16 146.16L25.16 149.09C25.2773 149.203 25.365 149.344 25.4156 149.499C25.4661 149.654 25.4779 149.819 25.45 149.98L24.73 154.14L28.5 152.14C28.6598 152.081 28.8329 152.067 29 152.1Z"
            fill="#FFEFAB" />
        <path
            d="M147.879 151.265L139.031 151.224L136.337 142.27L133.643 151.224L124.795 151.265L131.978 156.98L128.346 166.73L136.337 160.535L144.332 166.73L140.696 156.98L147.879 151.265Z"
            fill="#EDC26E" />
        <path
            d="M144.738 152.509L139.031 151.461L136.337 146.668L133.643 151.461L128.143 152.57L131.976 157.215L130.971 163.407L136.336 160.77L141.847 163.466L140.693 157.216L144.738 152.509Z"
            fill="#FAEC78" />
        <path
            d="M165.958 103.104L172 102.5L165.958 101.896L169.804 97.1965L165.104 101.042L164.5 95L163.896 101.042L159.197 97.1965L163.042 101.896L157 102.5L163.042 103.104L159.197 107.803L163.896 103.958L164.5 110L165.104 103.958L169.804 107.803L165.958 103.104Z"
            fill="#FFEFAB" />
        <path
            d="M52.7789 13.443L62.2188 12.5L52.7789 11.5559L58.7867 4.21328L51.4438 10.2215L50.5 0.78125L49.5559 10.2215L42.2133 4.21328L48.2211 11.5559L38.7812 12.5L48.2211 13.443L42.2133 20.7863L49.5559 14.7789L50.5 24.2188L51.4438 14.7789L58.7867 20.7863L52.7789 13.443Z"
            fill="#FFEFAB" />
        <path
            d="M162.56 46C162.4 46.0006 162.242 45.9629 162.1 45.89L157 43.22L151.9 45.89C151.734 45.9771 151.548 46.0159 151.361 46.0022C151.174 45.9884 150.995 45.9226 150.844 45.8122C150.693 45.7018 150.576 45.5512 150.507 45.3776C150.437 45.2039 150.417 45.0142 150.45 44.83L151.45 39.2L147.33 35.2C147.201 35.0717 147.11 34.9109 147.066 34.7347C147.022 34.5585 147.027 34.3737 147.08 34.2C147.138 34.0223 147.245 33.8643 147.388 33.7441C147.531 33.624 147.705 33.5463 147.89 33.52L153.59 32.69L156.1 27.56C156.182 27.3909 156.31 27.2483 156.469 27.1486C156.628 27.0488 156.812 26.9959 157 26.9959C157.188 26.9959 157.372 27.0488 157.531 27.1486C157.69 27.2483 157.818 27.3909 157.9 27.56L160.44 32.68L166.14 33.51C166.325 33.5363 166.499 33.614 166.642 33.7341C166.785 33.8543 166.892 34.0123 166.95 34.19C167.003 34.3637 167.008 34.5485 166.964 34.7247C166.92 34.9009 166.829 35.0617 166.7 35.19L162.58 39.19L163.58 44.82C163.616 45.0075 163.597 45.2012 163.526 45.3784C163.455 45.5556 163.335 45.7089 163.18 45.82C162.999 45.9469 162.781 46.0102 162.56 46ZM157 41.1C157.16 41.0959 157.319 41.1339 157.46 41.21L161.23 43.21L160.51 39C160.482 38.8392 160.494 38.6741 160.544 38.519C160.595 38.3638 160.683 38.2234 160.8 38.11L163.8 35.18L159.6 34.56C159.446 34.529 159.301 34.4621 159.178 34.3648C159.055 34.2675 158.956 34.1425 158.89 34L157 30.25L155.11 34C155.038 34.1437 154.932 34.2678 154.801 34.3618C154.671 34.4558 154.519 34.517 154.36 34.54L150.16 35.16L153.16 38.09C153.277 38.2034 153.365 38.3438 153.416 38.499C153.466 38.6541 153.478 38.8192 153.45 38.98L152.73 43.14L156.5 41.14C156.66 41.0806 156.833 41.0668 157 41.1Z"
            fill="#FFEFAB" />
        <path
            d="M19.2825 116.93L13.62 116.903L11.8958 111.173L10.1713 116.903L4.50854 116.93L9.10579 120.588L6.78155 126.828L11.8958 122.863L17.0125 126.828L14.6855 120.588L19.2825 116.93Z"
            fill="#EDC26E" />
        <path
            d="M17.2725 117.726L13.62 117.055L11.8957 113.987L10.1712 117.055L6.65125 117.765L9.10475 120.738L8.46175 124.7L11.8947 123.012L15.4222 124.738L14.6835 120.738L17.2725 117.726Z"
            fill="#FAEC78" />
    </g>
    <defs>
        <filter id="filter0_d" x="0" y="0" width="176" height="193" filterUnits="userSpaceOnUse"
            color-interpolation-filters="sRGB">
            <feFlood flood-opacity="0" result="BackgroundImageFix" />
            <feColorMatrix in="SourceAlpha" type="matrix" values="0 0 0 0 0 0 0 0 0 0 0 0 0 0 0 0 0 0 127 0"
                result="hardAlpha" />
            <feOffset dy="4" />
            <feGaussianBlur stdDeviation="2" />
            <feComposite in2="hardAlpha" operator="out" />
            <feColorMatrix type="matrix" values="0 0 0 0 0 0 0 0 0 0 0 0 0 0 0 0 0 0 0.25 0" />
            <feBlend mode="normal" in2="BackgroundImageFix" result="effect1_dropShadow" />
            <feBlend mode="normal" in="SourceGraphic" in2="effect1_dropShadow" result="shape" />
        </filter>
    </defs>
</svg>
