<?xml version="1.0" encoding="utf-8"?>
<!-- Generator: Adobe Illustrator 23.1.0, SVG Export Plug-In . SVG Version: 6.00 Build 0)  -->
<svg version="1.1" id="Layer_1" xmlns="http://www.w3.org/2000/svg" xmlns:xlink="http://www.w3.org/1999/xlink" x="0px" y="0px"
	 viewBox="0 0 187 159" style="enable-background:new 0 0 187 159;" xml:space="preserve">
<g>
	<path style="fill:#8DC63F;" d="M78.3,0h2.9c3.8,1.1,6.1,5.7,4,9.2c-2,4.2-8.5,4.3-10.7,0.3C72.3,6,74.5,1.3,78.3,0z"/>
</g>
<g>
	<path style="fill:#8FD2CA;" d="M35.3,2.5C38.8,1,42.9,4.3,42.3,8c-0.3,3.7-5,5.9-7.9,3.7C30.9,9.6,31.5,3.8,35.3,2.5z"/>
	<path style="fill:#8FD2CA;" d="M49.1,24.2c2.3-1.5,4.7,1.9,2.7,3.6C49.5,29.6,46.8,25.9,49.1,24.2z"/>
</g>
<g>
	<path style="fill:#EA705E;" d="M80.4,32.4c2.7-1,5.6,1.9,4.7,4.6c-0.5,2.5-4,3.6-6,1.9C76.9,37.1,77.7,33.2,80.4,32.4z"/>
</g>
<g>
	<path style="fill:#F2BA58;" d="M0,43.5c1-4.8,6.9-7.6,11-4.6c4.6,2.9,3.8,10.8-1.3,12.6c-4,1.8-8.5-1-9.7-5V43.5z"/>
</g>
<g>
	<path style="fill:#DEDEDE;" d="M86.3,55.9c6.3-4.8,12.6-9.5,18.9-14.3c12.7,16.3,25,32.8,37.5,49.3c-5.9,3.9-11.8,7.7-17.7,11.6
		c-3.5-12.1-6.9-24.2-10.4-36.3c-4.5,0.9-9,2.2-13.3,3.8C97.2,64.5,92.2,59.6,86.3,55.9z"/>
</g>
<g>
	<path style="fill:#FF9693;" d="M41.7,57.2c-1.7,0.8-1.8,3.5-0.1,4.3c1.6,1.3,4.3-0.6,3.8-2.6C45.3,57.3,43.1,56.3,41.7,57.2
		 M79,63.8c-0.1,0.8-0.3,2.3-0.4,3.1c5.9,4.7,11.5,10.1,14.3,17.3c1.5,2.8,1.8,7.9,6.2,7.1c-0.1-1.6,0-3.2-0.5-4.8
		c-2.8-8.3-8.1-15.8-15.1-21.2C82.3,64.3,80.6,64.1,79,63.8 M57.9,70.5c-1.5,1-1.8,3.4-0.4,4.7c1.4,1.6,4.5,1,5-1.1
		C63.6,71.5,60.2,68.8,57.9,70.5 M79.2,74.4c-2.8,1.1-3.2,5.4-0.6,7c2.2,1.7,5.7,0.4,6.2-2.3C85.7,76,82.1,72.9,79.2,74.4
		 M14.5,81.6c-3.8,1.4-4.5,7.3-1.1,9.6c3.2,2.6,8.6,0.3,8.8-3.8C22.8,83.3,18.2,79.8,14.5,81.6 M42.6,86.3c-2.5,1-0.8,5.1,1.7,3.8
		C46.7,89.3,45.1,85.1,42.6,86.3 M7.4,91.3C2.6,105.8,7.3,123,18.8,133c4.4,4,9.5,8.6,15.7,8.9c-0.3-1.3-0.3-3-1.8-3.5
		c-7-3.8-13.6-8.7-17.8-15.6c-5.5-8.3-6.9-18.9-4.9-28.6C10.7,92.5,8.4,92.1,7.4,91.3 M99.3,96.5c-1.5,0.4-1.4,2.3-0.9,3.5
		c0.7,2.4,1.3,4.7,2.2,7c0.3,2.1,3.9,1.9,3.9-0.3c0.3-2.5-0.7-5-1.6-7.4C102.3,98,101.1,96,99.3,96.5z M82.8,53.6
		c-0.2,1.7-1.7,3-3.4,3c-1.9,0-3.5-1.6-3.5-3.5c0-0.8,0.3-1.6,0.8-2.1c-5.8-2.1-12.1-3.2-18.6-3.2c-9.6,0-18.6,2.4-26.4,6.6
		c1.3,1.1,2.1,2.7,2.1,4.5c0,3.2-2.6,5.8-5.8,5.8c-2.6,0-4.8-1.7-5.5-4.1c-12.3,10.2-20.2,25.7-20.2,43c0,24.8,16.2,45.9,38.7,53.1
		c0.6-13.4,1.2-27.8,1.2-27.8s0.2-2.6-1.1-4.7c-5.3-1.4-9.3-7.4-9.3-14.6c0-8.3,5.2-14.9,11.6-14.9c6.4,0,11.6,6.7,11.6,14.9
		c0,7.3-4.1,13.4-9.4,14.7c-0.8,1.3-1.1,3.4-0.9,6.1c0.2,2.2,0.8,15.4,1.3,27.7c3.9,0.9,8,1.3,12.1,1.3c4.4,0,8.6-0.5,12.7-1.5
		c0.6-13.1,1.1-24.8,1.1-24.8s0.4-4.6-2.6-7.1c-0.2-0.1-0.4-0.2-0.6-0.3c-2.3-0.6-6.4-2.8-6.3-8.8c0,0,0-0.1,0-0.2
		c0-0.2,0-0.5,0-0.7c0.1-5,1.3-21.5,1.3-21.5h2.1l-0.4,17.9c0,0,0,0,0,0.1c0,0,0,0,0,0l0,0.1c0,0,0,0,0,0c0.1,0.9,0.8,1.6,1.7,1.6
		c0.9,0,1.6-0.7,1.7-1.6c0,0,0,0,0,0c0.5-17,0.6-18.1,0.6-18.1h2.4v17.3c0,0,0,0,0,0c0,0,0,0,0,0.1c0,0.8,0.7,1.5,1.5,1.5
		c0.6,0,1.1-0.3,1.3-0.8c0,0,0-0.1,0.1-0.1c0,0,0-0.1,0-0.1c0-0.1,0-0.1,0.1-0.2c0,0,0-0.1,0-0.1c0-0.1,0-0.2,0-0.2c0,0,0,0,0,0
		c0,0,0,0,0,0l0.3-17.3h2.1l0.4,16.1c0,0,0,0,0,0c0,0,0,0,0,0c0,0.9,0.7,1.5,1.6,1.5c0.8,0,1.5-0.6,1.6-1.4c0,0,0,0,0,0
		c0,0,0-0.1,0-0.1c0,0,0,0,0,0c0,0,0,0,0,0c-0.2-10.4,0-16.1,0-16.1h1.9c0,0,1,10.3,1.4,17.6c0,0,0,0,0,0c0,0.5,0.1,1,0.1,1.5
		c0.1,1,0.1,1.8,0.1,2.4c0,0.3,0,0.5,0,0.7c0,0,0,0.1,0,0.1c0.1,6-3.9,8.1-6.3,8.8c-0.2,0.1-0.4,0.2-0.6,0.3c-3,2.5-2.6,7.1-2.6,7.1
		s0.3,6.2,0.6,14.6h0c0.1,2.7,0.3,5.6,0.4,8.7c22.1-7.4,38-28.3,38-52.9C113.9,81.6,101.2,62.7,82.8,53.6z"/>
</g>
<g>
	<path style="fill:#F0EFEE;" d="M41.3,58.3c1.4-0.9,3.5,0.1,3.7,1.8c0.5,2-2.1,3.8-3.7,2.5C39.6,61.8,39.7,59.1,41.3,58.3z"/>
	<path style="fill:#F0EFEE;" d="M57.3,71.5c2.2-1.7,5.7,0.9,4.5,3.5c-0.5,2.1-3.6,2.7-4.9,1.1C55.5,74.9,55.8,72.4,57.3,71.5z"/>
	<path style="fill:#F0EFEE;" d="M78.3,75.4c2.9-1.5,6.5,1.5,5.5,4.6c-0.5,2.6-4,4-6.2,2.3C75.2,80.7,75.6,76.5,78.3,75.4z"/>
	<path style="fill:#F0EFEE;" d="M14.3,82.4c3.7-1.8,8.3,1.7,7.6,5.7c-0.3,4.1-5.6,6.4-8.7,3.8C9.8,89.6,10.5,83.9,14.3,82.4z"/>
</g>
<g>
	<path style="opacity:0.87;fill:#97571B;enable-background:new    ;" d="M135.3,60.5C135.3,60.5,135.4,60.6,135.3,60.5
		C135.4,60.6,135.3,60.5,135.3,60.5z"/>
</g>
<g>
	<path style="fill:#FFABA9;" d="M78.2,64.9c1.6,0.3,3.3,0.5,4.5,1.6c6.9,5.3,12.1,12.7,14.9,20.9c0.6,1.5,0.4,3.1,0.5,4.7
		c-4.3,0.8-4.7-4.3-6.1-7.1c-2.8-7.1-8.3-12.5-14.2-17.1C77.9,67.2,78.1,65.6,78.2,64.9z"/>
	<path style="fill:#FFABA9;" d="M98.3,97.2c1.8-0.5,3,1.4,3.6,2.8c0.9,2.3,1.8,4.8,1.6,7.3c0,2.1-3.6,2.4-3.9,0.3
		c-0.8-2.3-1.5-4.6-2.2-6.9C96.9,99.5,96.8,97.7,98.3,97.2z"/>
</g>
<g>
	<path style="fill:#FFC6C5;" d="M102.6,70c4.3-1.6,8.8-2.9,13.3-3.8c3.4,12.1,6.9,24.2,10.4,36.3c3.6,12.2,6.6,24.5,10.7,36.6
		c-15.5,3-30.8,6.4-46.2,9.5c2.6-2.8,5.5-5.3,8.1-8c9.4-10.4,14.8-24.5,14.4-38.6C113.2,90.5,109.2,79.3,102.6,70z"/>
</g>
<g>
	<path style="fill:#F1E9E8;" d="M42.2,87.1c2.4-1.1,4,3,1.7,3.8C41.4,92.1,39.7,88.1,42.2,87.1z"/>
</g>
<g>
	<path style="fill:#FFA9A7;" d="M7.3,92.1c1,0.8,3.3,1.2,2.6,3c-2,9.6-0.7,20,4.8,28.3c4.2,6.8,10.7,11.6,17.6,15.4
		c1.5,0.5,1.5,2.2,1.8,3.5c-6.2-0.3-11.2-4.8-15.5-8.8C7.2,123.4,2.6,106.4,7.3,92.1z"/>
</g>
<g>
	<path style="fill:#5E2C00;" d="M181.2,112.9c-0.8-1.7-1.5-3.2-2.7-4.6c-1.3-1.5-2.8-2.7-4.4-3.8c-1-0.7-2.3-1.2-3.4-1.8
		c-2-1-4.4-0.8-6.4-1.8c-1.8-0.9-3.5-2.1-5.3-2.9c-1.8-0.7-3.7-1-5.6-1.1c-1.9-0.1-3.8,0.3-5.6,0.9c-0.7,0.2-1.2,0.5-1.8,0.8
		c-4.1,1.6-6.9,6.2-8.3,10c-2.2,6-1.5,13,0.6,19c0.9,2.6,2.2,5.5,4.4,7.2c1,0.8,1.9,1.6,3.3,1.7c0.7,0.1,1.3-0.1,1.9-0.1
		c0.9,0,1.7,0.4,2.4,0.7c1.4,0.6,2.3,2,3.5,2.9c0,0,0.1,0,0.1,0c1,0.7,2,0.8,3.2,1c2.8,0.4,5.8-0.7,8.3-1.8
		c5.8-2.5,11.3-6.9,14.2-12.6C181.5,122.9,183.1,117,181.2,112.9z"/>
	<path style="fill:#F97878;" d="M178.2,127.8c-3.5,5.2-8.6,9.2-14.5,11.3c-2.3,0.8-5.1,1.7-7.5,1.1c-1.3-0.1-2.5-0.8-3.5-1.8
		c-0.7-0.7-1.4-1.6-2.4-2c-0.9-0.4-1.8-0.4-2.7-0.4c-0.2,0-0.5,0-0.7,0c-0.9,0-1.4-0.2-2.2-0.6c-2.4-1.3-3.9-4.2-5-6.6
		c-2.5-5.7-3.2-12.2-1.8-18.3c1-4.2,4-10.1,8.6-11.5c4.8-2.5,11.3-1.7,15.6,1.7c0.4,0.3,0.8,0.5,1.3,0.7c1.5,0.6,3.1,0.8,4.7,1.2
		c1.5,0.3,2.9,0.8,4.2,1.6c2.3,1.3,4.6,3,6.1,5.3c0.7,1.1,1.4,1.9,1.8,3.1c0.3,0.4,0.5,1.3,0.8,1.8
		C182.5,118.6,180.5,124.3,178.2,127.8z"/>
	<path style="fill:#FDE8E9;" d="M137.4,116.1c0.8-6,3.7-12.7,9.3-15.6c2.7-1.4,5.6-1.9,8.6-1.6c1.7,0.2,3.4,0.6,5,1.3
		c0.7,0.3,1.4,0.6,2.1,0.8c-0.1-0.1-0.3-0.2-0.4-0.3c-4.3-3.4-10.7-4.2-15.6-1.7c-4.5,1.4-7.6,7.3-8.6,11.5c-0.5,2.3-0.7,4.6-0.7,7
		C137.3,117,137.3,116.5,137.4,116.1z"/>
	<path style="fill:#FF7676;" d="M181,114.3c-0.2-0.5-0.5-1.3-0.8-1.8c-0.4-1.3-1.1-2.1-1.8-3.1c-1.5-2.3-3.8-4-6.1-5.3
		c-1.3-0.7-2.8-1.2-4.2-1.6c-1.6-0.4-3.2-0.6-4.7-1.2c-0.3-0.1-0.6-0.3-0.9-0.5c0.1,0.4,0,0.7-0.5,0.9c-1,0.4-2.7,0-2.7,1.5
		c0,0.1,0,0.1,0,0.2c0,0,0,0,0,0c0,0,0,0.1,0,0.1c0.1,0.3,0.2,0.6,0.4,0.9c0.1,0.1,0.2,0.2,0.3,0.3c0.7,0.5,1.5,0.9,2.4,1.1
		c1.4,0.3,3,0.4,4.3,1.1c0,0,0,0,0,0c1.9,0.7,3.4,2.3,3.9,4.2c0.8,2.9,0.4,6.2-0.3,9.1c-0.8,3.5-2.2,6.8-4,9.9
		c-1.3,2.3-2.9,4.5-5.1,5.9c-1.1,0.7-2.3,1.1-3.5,1.3c-1.5,0.2-2.8-0.2-4.1-1c-1.3-0.8-2.5-1.8-3.9-2.2c-1.6-0.5-3.2-0.1-4.8-0.7
		c-1.5-0.6-2.5-1.8-3.3-3.1c-0.9-1.4-1.6-2.8-2.1-4.4c-1.3-3.6-2-7.4-2.2-11.3c-0.3,4.7,0.5,9.5,2.4,13.9c1.1,2.4,2.5,5.3,5,6.6
		c0.8,0.4,1.3,0.6,2.2,0.6c0.2,0,0.5,0,0.7,0c0.9,0.1,1.8,0.1,2.7,0.4c0.9,0.4,1.6,1.3,2.4,2c1,1,2.2,1.6,3.5,1.8
		c2.5,0.6,5.3-0.3,7.5-1.1c5.9-2.1,11-6.1,14.5-11.3C180.5,124.3,182.5,118.6,181,114.3z"/>
	<g>
		<path style="fill:#5E2C00;" d="M172.4,95.3c0.4-0.3,1.2-0.5,1.3-1c0.3-0.6,0-1.5-0.3-2.1c-0.3-0.8-1.1-1.3-1.9-1
			c-0.3,0.1-0.5,0.3-0.6,0.6c0,0,0,0,0,0c-1.8,2.4-3.9,4.5-5.9,6.8c-1.3,1.6-2.9,3.9-3.1,6.1c-0.7-0.5-1.3-1.2-1.8-2
			c0,0.2,0.1,0.5,0.2,0.7c0.1,0.2,0.2,0.4,0.3,0.6c0.1,0.2,0.3,0.4,0.5,0.6c0.3,0.3,0.6,0.6,1.1,0.7c1.2,0.5,2.4,0.6,3.6,0.3
			c-0.7-0.1-1.3-0.1-1.9-0.2c0.9-2.9,2.3-5.3,4.7-7.4C169.8,97.1,171.1,96.1,172.4,95.3z"/>
		<path style="fill:#843A1C;" d="M163.2,105.4c-0.2-0.1-0.4-0.2-0.7-0.3c0.2-1,0.4-1.9,0.8-2.9c0.6-1.5,1.6-2.8,2.6-4
			c1.6-2,3.6-3.7,4.9-5.9c0,0.1,0,0.2,0.1,0.4c0,0,0,0,0,0c0-0.5,0.3-1,0.7-1.2c0.7-0.3,1.2,0.3,1.5,0.9c0.2,0.5,0.7,1.8,0.1,2.2
			c-0.4,0.2-0.9,0.1-1.3-0.2c0,0-0.1,0.1,0,0.1c0.2,0.3,0.5,0.4,0.8,0.5c-0.2,0.1-0.5,0.2-0.7,0.3c-0.6,0.3-1.1,0.8-1.7,1.1
			c-1.2,0.8-2.4,1.8-3.4,2.8C165.4,100.6,163.6,103.1,163.2,105.4z"/>
		<path style="fill:#843A1C;" d="M165.8,99.4c1-1.2,2.2-2.4,3.3-3.5c0.7-0.7,1.5-1.4,2.3-1.9c0-0.8,0.2-1.5,0.9-1.4
			c0.6,0.1,0.9,0.4,1.1,0.9c-0.1-0.4-0.2-0.9-0.4-1.2c-0.2-0.6-0.8-1.2-1.5-0.9c-0.4,0.2-0.6,0.7-0.7,1.2c0,0,0,0,0,0
			c-0.1-0.1-0.1-0.2-0.1-0.4c-1.3,2.2-3.2,4-4.9,5.9c-1,1.2-2,2.5-2.6,4c-0.3,0.8-0.5,1.6-0.7,2.4C163.4,102.7,164.5,101,165.8,99.4
			z"/>
	</g>
</g>
<g>
	<path style="fill:#5E2C00;" d="M136.8,22.1c-0.3,0.8-0.4,1.8-0.4,2.7c0,0.5,0,1,0,1.6c-0.3-0.7-0.5-1.5-0.7-2.3
		c-0.3-1-0.5-2.1-0.7-3.1c-0.1-0.8-0.1-1.8-0.4-2.5c-0.5-0.9-1.8-0.4-2.4,0c-0.8,0.6-0.5,1.7-0.2,2.7c-0.7-1.4-1.9-3-2.9-1.6
		c-0.5,0.6,0,1.9,0.2,2.5c0.1,0.3,0.2,0.5,0.3,0.8c-0.6-0.5-1.4-0.9-2.1-0.8c-1.5,0.2-1.8,2-1.2,3.1c0.4,0.6,1,1.1,1.5,1.6
		c0.2,0.2,0.4,0.4,0.6,0.5c-0.7-0.2-1.2,0.1-1.6,0.8c-0.4,0.6-0.2,1.9,0.3,2.4c0.9,0.9,2.2,1.2,3.3,1.7c1.2,0.6,2.6,1.3,3.6,2.3
		c0,0,0,0.1,0,0.1c0,0,0,0,0.1,0c-1.1,2.4-0.8,5,0.1,7.6c0.5,1.8,1.3,3.6,1.9,5.1c2.8,6.6,6.8,12.8,11.5,18.2
		c2.4,2.8,4.8,5.5,7.6,7.8c1.2,1.1,2.6,2,3.9,2.9c1.1,0.7,2.7,1.6,4.1,1.2c2.7-0.9,1.1-6.2,0.7-8c-0.8-3.6-1.9-7.1-3.2-10.6
		c-1.8-5-3.7-10.1-6.5-14.7c-1.4-2.3-2.9-4.4-4.4-6.6c-1.3-1.8-2.6-3.9-4.5-5.1c-1.7-1.2-3.4-2.3-5.6-2.1c-0.2,0-0.3,0-0.4,0.1
		c-0.8-2.2-0.8-5,0.3-7.1c0.2-0.4,1.3-1.3,1.2-1.8c-0.1-0.6-0.6-1-1.1-1.4C138.3,18.9,137.1,21,136.8,22.1z"/>
	<path style="fill:#CDDA60;" d="M133.8,18.6c0.7-0.1,0.5,0.4,0.6,0.8c0.1,0.4,0.1,0.8,0.2,1.3c0.1,0.9,0.4,1.8,0.6,2.6
		c0.4,1.5,0.9,3,1.5,4.4c0.4,1,0.9,2,1.7,2.7c-0.2,0.1-0.3,0.1-0.5,0.2c0,0,0,0,0,0c-2.1-2.4-3.9-5-5.2-7.9c0-0.1-0.1-0.2-0.1-0.3
		C132.3,20.9,131.5,18.9,133.8,18.6z"/>
	<path style="fill:#CDDA60;" d="M129.9,22.6c-0.2-0.5-0.4-1.2-0.4-1.7c0-1.2,1.2-1.1,1.6-0.3c1.1,1.9,1.9,4,3.1,5.9
		c1,1.5,2.1,3,3.3,4.4c-0.4,0.2-0.7,0.4-1,0.7c-1.8-1.6-3.2-3.5-4.6-5.5C131.1,24.9,130.4,23.8,129.9,22.6z"/>
	<path style="fill:#CDDA60;" d="M129.3,27.6c-1-0.9-2.9-2-2.8-3.4c0-0.9,0.9-1.4,1.6-1.5c0.5-0.1,1.5,0.7,1.9,1.2
		c0.3,0.6,0.7,1.1,1,1.7c1.4,2.2,3.1,4.6,5.2,6.1c-0.4,0.3-0.8,0.7-1.1,1.1c-0.1-0.1-0.1,0-0.1,0.1c0,0,0,0,0,0
		C133.3,31,131.3,29.3,129.3,27.6z"/>
	<path style="fill:#CDDA60;" d="M130.6,31.7c-0.8-0.5-1.7-0.8-2.6-1.2c-1-0.4-0.9-1.5-0.6-2.3c0.3-0.7,0.8-0.6,1.5-0.5
		c0,0,0,0,0.1,0c0.5,0.4,0.9,0.8,1.4,1.2c1.5,1.3,3,2.9,4.7,4c-0.1,0.1-0.2,0.3-0.3,0.4c-0.2,0.3-0.4,0.6-0.5,0.9
		C133.3,33.2,131.7,32.4,130.6,31.7z"/>
	<path style="fill:#F07F36;" d="M142.4,31.4c3.7,1.1,6,4.9,8,7.9c2.3,3.4,4.4,6.7,6.1,10.5c3.2,7,5.9,14.5,7.3,22
		c0.3,1.7,0.8,4.3-1.3,4.9c-0.8,0.3-2.1-0.4-2.8-0.8c-0.9-0.6-1.8-1.1-2.7-1.7c-3.2-2.3-5.8-5.2-8.3-8.1
		c-4.6-5.2-8.3-10.9-11.3-17.1c-0.4-0.7-0.7-1.5-1.1-2.3c0,0,0-0.1,0-0.2c-0.4-0.9-0.8-1.9-1.1-2.9c-0.2-0.6-0.3-1.2-0.5-1.8
		c-1.1-2.7-0.4-6.2,1.3-8.5c0.9-1.2,2.3-2.1,3.8-2.3c0.8-0.1,1.5,0,2.1,0.2C142,31.2,142.2,31.3,142.4,31.4z"/>
	<path style="fill:#F07F36;" d="M141.8,31.2c-0.7-0.2-1.4-0.3-2.1-0.2c-1.5,0.2-2.9,1.1-3.8,2.3c0,0.1-0.1,0.1-0.1,0.2
		c1.7-0.7,3.7-0.1,5.2,1c2.5,1.8,4.6,4.3,6.5,6.8c2,2.7,3.7,5.6,5.3,8.6c1.6,3.1,3.2,6.3,4.5,9.5c0.7,1.7,1.3,3.5,1.8,5.3
		c0.5,1.6,1.1,3.3,1.6,4.9c0.5,1.5,1,3.2,1,4.8c0,0.7-0.1,1.5-0.7,1.9c-0.1,0.1-0.2,0.1-0.3,0.2c0.6,0.3,1.3,0.4,1.8,0.3
		c2.1-0.7,1.6-3.3,1.3-4.9c-1.3-7.6-4.1-15.1-7.3-22c-1.7-3.7-3.8-7.1-6.1-10.5c-2-3-4.3-6.8-8-7.9C142.2,31.3,142,31.2,141.8,31.2z
		"/>
	<path style="fill:#F29038;" d="M156.4,72.7c-2-1.6-3.6-3.5-5.2-5.4c-2.3-2.9-4.5-5.9-6.7-8.8c-2.1-2.9-4.1-5.9-5.7-9.2
		c-0.8-1.6-1.5-3.3-2.2-5c-0.7-1.6-1.3-3.3-1.7-5.1c-0.2-1-0.4-2-0.4-3c-0.5,1.8-0.5,3.8,0.2,5.5c0.1,0.6,0.3,1.2,0.5,1.8
		c0.4,1,0.8,1.9,1.1,2.9c0,0.1,0,0.1,0,0.2c0.3,0.8,0.7,1.6,1.1,2.3c3,6.2,6.8,12,11.3,17.1c2.6,2.9,5.2,5.8,8.3,8.1
		c0.9,0.6,1.8,1.2,2.7,1.7c0.2,0.1,0.4,0.3,0.7,0.4c0.1,0,0.2-0.1,0.3-0.1C159.3,75,157.8,73.9,156.4,72.7z"/>
	<path style="fill:#CDDA60;" d="M139.7,21.7c-0.2,0.2-0.4,0.4-0.5,0.7c-0.8,1.2-1.1,2.8-1.1,4.3c0,0.3,0.5,3.7,0.7,3.6
		c0,0,0,0.1,0,0.1c-0.1,0-0.1,0-0.2,0c0-0.1-0.1-0.2-0.2-0.3c-0.8-0.6-1.3-1.8-1.6-2.7c0,0,0,0,0-0.1c-0.3-1.5,0-3.3,0.4-4.8
		c0.2-0.9,0.7-1.6,1.4-2.1C139.3,19.9,140.4,21,139.7,21.7z"/>
	<path style="fill:#F07F36;" d="M152.4,59.6c1.2-0.6,2.2-1.5,3.5-2c1.2-0.5,2.4-0.7,3.6-0.7c-0.1-0.3-0.2-0.6-0.3-0.9
		C156.5,56.3,153.6,57.2,152.4,59.6z"/>
	<path style="fill:#F07F36;" d="M158,60c0.8-0.3,1.6-0.4,2.5-0.4c-0.1-0.2-0.1-0.3-0.2-0.5C159.5,59.3,158.7,59.5,158,60z"/>
	<path style="fill:#F07F36;" d="M153.2,50.3c-1,0.6-2.6,1.5-2.9,2.8c1.9-1.4,4.1-3,6.3-3c-0.1-0.1-0.1-0.3-0.2-0.4
		c-0.1-0.2-0.1-0.3-0.2-0.5C155.2,49.4,154.2,49.7,153.2,50.3z"/>
	<path style="fill:#F07F36;" d="M147.8,45.1c1.6-0.8,3.4-1.8,5.2-1.7c-0.3-0.4-0.6-0.9-0.8-1.3C150.3,42.2,148.3,43.3,147.8,45.1z"
		/>
	<path style="fill:#F07F36;" d="M142.3,33.4c-0.9,0.8-1.9,1.9-1.9,3.2c1.1-0.7,2.2-1.5,3.4-2c0.8-0.4,1.7-0.6,2.6-0.6
		c-0.7-0.7-1.4-1.3-2.2-1.8C143.5,32.5,142.8,33,142.3,33.4z"/>
	<path style="fill:#F07F36;" d="M145.4,38.6c1.3-0.2,2.5-0.8,3.8-1.1c-0.2-0.2-0.3-0.5-0.5-0.7C147.4,36.9,146,37.5,145.4,38.6z"/>
	<path style="fill:#F07F36;" d="M156.7,65.3c1.2-0.4,2.6-0.6,3.9-0.5c0.5,0,1.1,0.1,1.6,0.1c-0.1-0.3-0.2-0.7-0.3-1
		C160,63.8,158,64.1,156.7,65.3z"/>
</g>
</svg>
