<svg width="214" height="139" viewBox="0 0 214 139" fill="none" xmlns="http://www.w3.org/2000/svg">
<path d="M213.84 111.756H185.07V114.098H213.84V111.756Z" fill="#E6E6E6"/>
<path d="M130.797 138.959H136.083V84.5449H130.797V138.959Z" fill="#E6E6E6"/>
<path d="M112.342 114.078L185.071 114.078V111.735L112.342 111.735V114.078Z" fill="#F5F5F5"/>
<path d="M213.84 124.673H185.07V127.016H213.84V124.673Z" fill="#E6E6E6"/>
<path d="M112.342 127.029L185.071 127.029V124.686L112.342 124.686V127.029Z" fill="#F5F5F5"/>
<path d="M213.84 85.8536H185.07V88.1962H213.84V85.8536Z" fill="#E6E6E6"/>
<path d="M112.342 88.243L185.071 88.243V85.9004L112.342 85.9004V88.243Z" fill="#F5F5F5"/>
<path d="M213.84 98.771H185.07V101.114H213.84V98.771Z" fill="#E6E6E6"/>
<path d="M112.342 101.194L185.071 101.194V98.8516L112.342 98.8516V101.194Z" fill="#F5F5F5"/>
<path d="M203.529 138.96H208.815V84.5456H203.529V138.96Z" fill="#E6E6E6"/>
<path d="M179.756 138.96H185.042V84.5456H179.756V138.96Z" fill="#F5F5F5"/>
<path d="M112.371 138.96H117.657V84.5456H112.371V138.96Z" fill="#F5F5F5"/>
<path d="M164.6 83.9579H167.477V52.2329H164.6V83.9579Z" fill="#E6E6E6"/>
<path d="M165.031 83.9136H165.834V52.1886H165.031V83.9136Z" fill="#F0F0F0"/>
<path d="M155.563 85.8548H176.572C176.572 84.3823 175.368 83.1776 173.896 83.1776H158.173C156.701 83.2445 155.563 84.3823 155.563 85.8548Z" fill="#F0F0F0"/>
<path d="M161.317 85.0528H162.388C162.522 85.0528 162.655 84.9189 162.655 84.7851V82.5764C162.655 82.4425 162.522 82.3087 162.388 82.3087H161.317C161.183 82.3087 161.05 82.4425 161.05 82.5764V84.7851C161.05 84.9859 161.183 85.0528 161.317 85.0528Z" fill="#F0F0F0"/>
<path d="M153.355 59.7523H178.847L176.439 39.4054C176.171 36.9959 174.164 35.2557 171.755 35.2557H160.447C158.039 35.2557 156.032 37.0629 155.764 39.4054L153.355 59.7523Z" fill="#F5F5F5"/>
<path d="M169.512 133.405C169.512 133.44 133.768 133.51 89.7236 133.51C45.6366 133.51 9.89267 133.475 9.89267 133.405C9.89267 133.37 45.6366 133.3 89.7236 133.3C133.768 133.335 169.512 133.37 169.512 133.405Z" fill="white"/>
<path d="M101.537 132.324L72.7438 123.074C72.6671 123.049 72.5864 123.039 72.506 123.045L50.3603 124.685C46.4685 115.255 41.5923 103.467 39.3737 98.0836C39.0083 97.1962 38.4151 96.421 37.6539 95.8364C36.8927 95.2518 35.9906 94.8785 35.0389 94.7543L11.056 91.6424C10.7705 91.6069 10.4807 91.6472 10.2157 91.7591C9.95073 91.871 9.71982 92.0506 9.54616 92.2798C9.37249 92.5091 9.26219 92.78 9.22632 93.0654C9.19044 93.3507 9.23025 93.6405 9.34176 93.9056L22.8465 125.394C23.0252 125.812 23.2889 126.188 23.6207 126.499C23.9525 126.809 24.3452 127.048 24.774 127.198L52.2058 138.137C52.8331 138.386 53.5121 138.476 54.1825 138.4L55.9337 138.207C62.0155 137.572 92.0228 134.517 101.41 133.533C101.551 133.517 101.682 133.453 101.781 133.352C101.881 133.252 101.943 133.12 101.958 132.979C101.973 132.838 101.939 132.697 101.863 132.578C101.786 132.458 101.671 132.369 101.537 132.324Z" fill="#E0E0E0"/>
<path d="M101.537 132.323C101.586 132.337 101.633 132.356 101.677 132.381C101.743 132.418 101.802 132.467 101.849 132.527C101.897 132.587 101.931 132.656 101.951 132.729C101.989 132.85 101.991 132.98 101.956 133.101C101.921 133.223 101.851 133.332 101.755 133.414C101.625 133.512 101.466 133.566 101.303 133.566L100.762 133.623L94.0241 134.337L69.2374 136.916L61.0354 137.768L56.6718 138.219L54.4245 138.461C53.649 138.584 52.8547 138.492 52.1279 138.195L33.7675 130.888L28.8463 128.933L26.3529 127.94L25.0938 127.44C24.8847 127.354 24.6837 127.28 24.4582 127.186C23.8101 126.893 23.2707 126.404 22.9162 125.788C22.6865 125.378 22.5389 124.943 22.3462 124.525L21.2676 121.958L19.0489 116.792L9.81338 95.2791L9.37867 94.2664C9.19208 93.9304 9.09598 93.5518 9.09979 93.1675C9.12269 92.7764 9.27616 92.4043 9.53565 92.1106C9.79513 91.817 10.1456 91.6189 10.5311 91.548C10.6261 91.5328 10.722 91.5232 10.8181 91.5193C10.9125 91.5193 11.015 91.5193 11.1052 91.5398L11.6465 91.6095L12.7251 91.7489L14.8741 92.0277L23.3591 93.1347L31.6555 94.2295L33.706 94.496C34.3827 94.5985 35.0553 94.6395 35.736 94.8035C37.084 95.1487 38.2542 95.9852 39.0169 97.1487C39.359 97.7274 39.6459 98.3369 39.874 98.9692L40.6286 100.798L42.1173 104.41L45.0208 111.446L50.4752 124.673L50.385 124.619L71.9646 123.02L72.5675 122.975C72.6755 122.973 72.7828 122.993 72.8832 123.033L73.1662 123.123L74.2858 123.484L76.4676 124.185L80.5932 125.517L87.852 127.858L98.0021 131.139L100.668 132.008C101.271 132.205 101.578 132.315 101.578 132.315C101.578 132.315 101.262 132.225 100.66 132.036L97.9857 131.192L87.8192 127.953L80.5153 125.649L76.3855 124.328L74.2038 123.631L73.0842 123.275C72.908 123.204 72.7232 123.157 72.5347 123.135L71.94 123.18L50.3644 124.82H50.2988L50.2742 124.759L44.8034 111.515L41.9081 104.484L40.4153 100.872L39.6607 99.043C39.4433 98.4243 39.1687 97.8272 38.8405 97.2594C38.1087 96.1431 36.9874 95.3392 35.695 95.0044C35.0553 94.8486 34.3663 94.7994 33.6896 94.701L31.6391 94.4345L23.355 93.352L14.8412 92.245L12.6923 91.9662L11.6137 91.8268C11.2688 91.7543 10.9152 91.7322 10.5639 91.7612C10.2263 91.8237 9.91942 91.9973 9.69201 92.2544C9.4646 92.5115 9.32975 92.8373 9.30895 93.1798C9.30564 93.5315 9.39473 93.8779 9.56731 94.1844L10.002 95.1971L19.2335 116.727L21.448 121.897L22.5389 124.443C22.7275 124.853 22.8875 125.304 23.0966 125.673C23.4299 126.251 23.9362 126.71 24.5443 126.985C24.7453 127.071 24.9544 127.149 25.1677 127.235L26.4267 127.735L28.9201 128.732L33.8414 130.688L52.1607 138.031C52.8609 138.32 53.6274 138.409 54.3753 138.289L56.6226 138.047L60.9943 137.6L69.1964 136.78L94.0159 134.259L100.758 133.586L101.303 133.533C101.46 133.535 101.612 133.486 101.738 133.394C101.831 133.316 101.899 133.213 101.934 133.097C101.968 132.981 101.969 132.858 101.935 132.742C101.916 132.67 101.883 132.602 101.838 132.543C101.793 132.484 101.737 132.434 101.673 132.397C101.586 132.34 101.537 132.328 101.537 132.323Z" fill="#263238"/>
<path d="M64.4802 126.625L75.2782 131.143L88.7337 129.741L77.419 125.066L64.4802 126.625Z" fill="#F5F5F5"/>
<path d="M56.3396 135.161L77.419 133.258L57.2911 125.28L50.8196 125.767L54.2399 134.017L56.3396 135.161Z" fill="#F5F5F5"/>
<path d="M99.4497 132.311L99.3021 132.336L98.892 132.385L97.2516 132.557L91.1205 133.148L71.0254 135.021L55.2282 136.452H55.1626L55.138 136.391L51.6398 127.855L50.6761 125.472L50.43 124.845C50.3767 124.702 50.3521 124.628 50.3521 124.628C50.3521 124.628 50.389 124.697 50.4546 124.837L50.7253 125.456L51.7301 127.822L55.298 136.329L55.2077 136.276L71.0008 134.812L91.0959 133L97.1942 132.475L98.8346 132.344L99.2652 132.315L99.4497 132.311Z" fill="black"/>
<path d="M10.0389 92.7987H10.2235L10.7566 92.8643L12.8071 93.1308L20.3284 94.1558C23.5026 94.5986 27.3002 95.1275 31.4751 95.7508L34.6944 96.2469L35.5146 96.3863C35.6499 96.4068 35.7934 96.4396 35.9247 96.4724L36.1666 96.538C36.2323 96.5667 36.302 96.5913 36.3676 96.6241C36.6393 96.7479 36.8833 96.925 37.0853 97.1448C37.194 97.2643 37.2789 97.4035 37.3354 97.5548L37.4954 97.9648L40.1487 104.591L49.4253 127.822L52.214 134.882L52.9645 136.805L53.1531 137.305C53.1768 137.361 53.196 137.419 53.2106 137.477C53.1804 137.425 53.1543 137.37 53.1326 137.313L52.9235 136.817L52.1361 134.911L49.2654 127.875L39.9437 104.636L37.2944 98.0099L37.1345 97.5999C37.0842 97.4783 37.0119 97.3671 36.9212 97.2719C36.7376 97.0727 36.5159 96.9124 36.2692 96.8004C36.2076 96.7676 36.142 96.7471 36.0805 96.7184L35.8837 96.6733C35.7524 96.6446 35.6212 96.6118 35.4736 96.5913L34.6534 96.4478L31.4381 95.9476L20.2997 94.3075L12.7907 93.2251L10.7402 92.9217L10.2194 92.8479L10.0389 92.7987Z" fill="black"/>
<path d="M31.6961 115.179C32.4655 114.604 32.2585 113.026 31.2337 111.655C30.209 110.283 28.7546 109.637 27.9852 110.212C27.2158 110.787 27.4228 112.364 28.4476 113.736C29.4723 115.107 30.9268 115.753 31.6961 115.179Z" fill="white"/>
<path d="M160.986 88.2312C159.612 80.441 150.996 75.7423 148.15 73.1552L152.427 78.8748C154.616 87.9032 155.446 97.2076 154.888 106.481C154.826 107.489 154.941 108.855 155.663 109.002C155.923 109.022 156.182 108.942 156.385 108.777C158.911 107.137 160.551 103.447 160.92 99.6213C161.289 95.7959 161.622 91.8352 160.986 88.2312Z" fill="#686DE0"/>
<path d="M154.687 79.5061C154.277 78.7189 154.449 76.226 152.226 78.8337L152.087 77.8579L138.365 67.3329L107.812 68.9196C104.88 69.1041 100.471 74.1801 99.376 76.2998C98.4737 84.1843 98.2892 91.1832 98.2892 91.1832C98.2892 91.1832 97.2393 99.9492 98.2892 104.094C99.3391 108.24 100.582 109.72 102.193 112.938C103.383 115.136 104.865 117.162 106.598 118.961L108.025 130.032L139.943 132.902L154.56 132.082C154.56 132.082 153.251 110.253 153.251 109.863C153.251 109.683 155.076 105.468 157.037 100.995C160.383 93.3603 158.501 86.8945 154.687 79.5061Z" fill="#A4B0BE"/>
<path d="M74.5154 119.212C74.6754 119.212 76.2707 108.436 77.3123 105.985C78.2966 103.676 99.3718 76.2794 99.3718 76.2794L104.334 92.2698L102.193 100.806L90.7104 114.619L87.4665 124.632L74.5154 119.212Z" fill="#A4B0BE"/>
<path d="M158.927 87.6982C157.414 78.1081 149.942 78.5263 149.942 78.5263L142.515 91.4457V118.154L106.684 121.253L106.02 130.249C106.02 130.249 141.699 138.408 149.962 135.673C155.421 133.849 160.018 129.294 160.535 121.836C161.051 114.378 160.428 97.2883 158.927 87.6982Z" fill="#A4B0BE"/>
<path d="M90.7638 114.619C90.6575 114.009 90.5206 113.404 90.3537 112.807C89.9061 111.377 89.0979 110.086 88.0069 109.058C86.9159 108.031 85.5788 107.301 84.1242 106.94C83.5187 106.805 82.9069 106.701 82.291 106.628C82.4585 106.607 82.628 106.607 82.7955 106.628C83.2505 106.641 83.7034 106.694 84.1488 106.788C85.6458 107.118 87.0254 107.847 88.1411 108.899C89.2567 109.95 90.0667 111.283 90.4849 112.758C90.6135 113.2 90.7013 113.653 90.7474 114.111C90.7747 114.279 90.7802 114.45 90.7638 114.619Z" fill="black"/>
<path d="M107.91 120.888L108.066 120.86L108.521 120.794L110.277 120.565L116.74 119.744L138.065 117.153L142.802 116.587L142.708 116.69C142.982 109.425 143.118 103.02 143.068 98.4363C143.068 96.1443 143.019 94.3034 142.986 93.0365L142.954 91.5809V91.2078C142.949 91.1655 142.949 91.123 142.954 91.0807C142.958 91.123 142.958 91.1655 142.954 91.2078L142.978 91.585L143.048 93.0365C143.101 94.3034 143.159 96.1402 143.191 98.4363C143.265 103.024 143.167 109.437 142.9 116.702V116.792H142.81L138.073 117.362L116.76 119.908L110.289 120.651L108.529 120.843L108.07 120.888H107.91Z" fill="black"/>
<path d="M161.031 120.888C161.036 120.943 161.036 120.998 161.031 121.052L161.002 121.549C160.966 122.16 160.896 122.769 160.793 123.373C160.633 124.331 160.398 125.276 160.092 126.198C159.673 127.418 159.112 128.584 158.419 129.671C157.575 130.991 156.511 132.157 155.273 133.119C153.849 134.226 152.202 135.012 150.446 135.423C149.502 135.651 148.543 135.812 147.575 135.903C146.587 135.985 145.578 136.034 144.549 136.018C142.427 135.976 140.31 135.779 138.217 135.427L126.115 133.435L120.837 132.557L116.248 131.737C113.447 131.213 111.175 130.815 109.6 130.577L107.783 130.31L107.311 130.241L107.151 130.212H107.316L107.791 130.261C108.201 130.306 108.825 130.38 109.612 130.487C111.191 130.7 113.471 131.077 116.276 131.582L120.865 132.402L126.148 133.258L138.25 135.235C140.332 135.584 142.438 135.781 144.549 135.825C145.57 135.825 146.575 135.796 147.555 135.719C148.511 135.63 149.459 135.474 150.393 135.251C152.125 134.852 153.75 134.084 155.158 133C156.385 132.055 157.441 130.909 158.283 129.609C158.977 128.536 159.542 127.386 159.969 126.182C160.283 125.268 160.528 124.332 160.703 123.381C160.838 122.598 160.92 121.983 160.949 121.565L160.994 121.089C160.999 121.021 161.011 120.954 161.031 120.888Z" fill="black"/>
<path d="M106.946 121.549C106.928 121.494 106.916 121.438 106.91 121.381L106.832 120.88L106.561 118.97V118.998L103.846 115.993C103.319 115.237 102.841 114.448 102.415 113.631C101.942 112.7 101.524 111.742 101.164 110.761C100.364 108.544 99.8138 106.245 99.5236 103.906C99.2385 101.377 99.1795 98.8274 99.3472 96.2879C99.4744 93.9467 99.7163 91.8516 99.946 90.0967C100.176 88.3419 100.393 86.9274 100.549 85.9474L100.733 84.824L100.787 84.5329C100.79 84.4991 100.799 84.466 100.811 84.4345C100.816 84.4685 100.816 84.503 100.811 84.537L100.779 84.8322L100.635 85.9639C100.508 86.9438 100.311 88.3624 100.102 90.1214C99.8927 91.8803 99.6671 93.9713 99.5482 96.3043C99.3929 98.8321 99.4573 101.369 99.7409 103.885C100.035 106.21 100.582 108.495 101.373 110.7C101.729 111.67 102.139 112.618 102.603 113.541C103.02 114.354 103.487 115.14 104.002 115.895L106.68 118.937L106.901 120.852L106.951 121.356C106.957 121.42 106.955 121.485 106.946 121.549Z" fill="black"/>
<path d="M147.977 122.549C147.705 122.248 147.456 121.927 147.231 121.59C146.784 120.991 146.157 120.171 145.427 119.293C144.697 118.416 143.999 117.653 143.487 117.112C143.191 116.832 142.917 116.531 142.667 116.21C142.999 116.443 143.307 116.709 143.585 117.006C144.991 118.375 146.251 119.887 147.346 121.516C147.591 121.837 147.803 122.184 147.977 122.549Z" fill="black"/>
<path d="M83.2958 120.532C82.9923 118.781 81.3929 117.411 81.3929 117.411C81.3929 117.411 80.6342 115.284 79.49 114.722C78.3458 114.16 77.4395 115.284 76.4471 114.98C75.4546 114.677 73.3262 114.599 72.6413 114.98C71.9564 115.361 71.1198 117.489 71.1198 117.489C70.4294 117.518 69.754 117.7 69.1431 118.022C68.6253 118.29 68.1772 118.674 67.8349 119.146C67.5383 119.03 67.2134 119.007 66.9035 119.08C66.5936 119.153 66.3133 119.319 66.1001 119.556C65.6825 120.041 65.371 120.608 65.1856 121.22L64.632 122.672C64.5268 122.892 64.4775 123.134 64.4884 123.377C64.5302 123.579 64.6394 123.761 64.7981 123.893C64.9568 124.025 65.1556 124.099 65.362 124.103C65.5676 124.101 65.7706 124.057 65.9584 123.973C66.1461 123.889 66.3144 123.767 66.4528 123.615C66.7329 123.34 66.9794 123.033 67.1869 122.701L67.3222 123.652C67.3222 123.652 67.5519 125.157 68.7658 125.251C69.586 125.312 70.517 124.337 70.517 124.337L72.6454 124.107L72.9489 126.235C73.0889 126.644 73.3563 126.998 73.712 127.245C74.0677 127.491 74.493 127.617 74.9256 127.604C75.6884 127.604 76.6767 126.313 76.6767 126.313L78.6534 127.075C78.6534 127.075 80.9377 128.674 81.9999 128.141C82.2973 127.99 82.5344 127.742 82.6722 127.438C82.8101 127.134 82.8405 126.792 82.7586 126.469C83.2152 125.953 83.5763 125.36 83.8248 124.718C84.1488 123.799 83.5993 122.278 83.2958 120.532Z" fill="#FFBE9D"/>
<path d="M67.3017 123.287C67.1922 121.776 67.4046 120.258 67.9251 118.834C67.9866 118.834 67.7569 119.831 67.5888 121.057C67.4207 122.283 67.3674 123.287 67.3017 123.287Z" fill="#EB996E"/>
<path d="M70.6154 121.282C70.7468 121.799 70.8089 122.331 70.8 122.865C70.8437 123.25 70.8045 123.64 70.6851 124.009C70.5662 124.296 70.3981 124.419 70.3858 124.386C70.3734 124.353 70.476 124.226 70.5416 123.976C70.6107 123.618 70.6259 123.252 70.5867 122.889C70.5244 122.355 70.5341 121.814 70.6154 121.282Z" fill="#EB996E"/>
<path d="M71.4028 121.169C71.7902 120.775 72.0702 120.422 72.0282 120.381C71.9862 120.339 71.6381 120.625 71.2507 121.019C70.8634 121.414 70.5834 121.766 70.6254 121.808C70.6674 121.849 71.0155 121.563 71.4028 121.169Z" fill="#EB996E"/>
<path d="M72.3132 116.284C72.3611 116.669 72.3776 117.057 72.3624 117.444C72.3624 118.158 72.3952 119.146 72.4526 120.232C72.51 121.319 72.5921 122.282 72.6577 123.016C72.7137 123.399 72.7384 123.786 72.7315 124.173C72.6168 123.801 72.5412 123.419 72.5059 123.033C72.4034 122.323 72.2968 121.339 72.2394 120.245C72.182 119.15 72.1861 118.162 72.2107 117.444C72.2042 117.055 72.2386 116.666 72.3132 116.284Z" fill="#EB996E"/>
<path d="M80.2938 117.1C80.2938 117.1 80.2077 117.305 80.0601 117.67C79.8621 118.193 79.7044 118.73 79.5885 119.277L79.3506 120.417C79.2686 120.861 79.1478 121.297 78.9897 121.721C78.8094 122.198 78.5101 122.621 78.1203 122.951C77.909 123.139 77.656 123.274 77.3823 123.345C77.1085 123.417 76.8217 123.422 76.5455 123.361C76.2599 123.295 76.002 123.141 75.8073 122.922C75.6289 122.705 75.514 122.442 75.4751 122.164C75.4198 121.665 75.4116 121.163 75.4505 120.663C75.4969 119.824 75.626 118.992 75.836 118.178C75.9756 117.63 76.1551 117.093 76.3733 116.571C76.4512 116.386 76.5168 116.247 76.566 116.161C76.6152 116.075 76.6398 116.017 76.648 116.022C76.596 116.221 76.5302 116.417 76.4512 116.608C76.2653 117.136 76.1092 117.674 75.9837 118.219C75.797 119.027 75.6844 119.851 75.6474 120.679C75.6163 121.163 75.6287 121.649 75.6843 122.131C75.7181 122.372 75.8174 122.598 75.9714 122.787C76.1385 122.97 76.3572 123.099 76.5988 123.156C76.8419 123.212 77.095 123.211 77.3373 123.151C77.5796 123.091 77.8044 122.975 77.9932 122.811C78.3596 122.503 78.6418 122.106 78.8134 121.659C79.0721 120.871 79.2844 120.069 79.449 119.257C79.5801 118.705 79.7628 118.167 79.9945 117.649C80.0599 117.509 80.1324 117.372 80.2118 117.239C80.2569 117.145 80.2856 117.1 80.2938 117.1Z" fill="#EB996E"/>
<path d="M81.0976 118.022C81.04 118.477 80.8394 118.902 80.5246 119.235C80.2098 119.568 79.7972 119.792 79.3465 119.876C79.7083 119.641 80.0511 119.377 80.3718 119.088C80.6412 118.753 80.8839 118.396 81.0976 118.022Z" fill="#EB996E"/>
<path d="M76.6931 123.328C76.8277 123.896 76.8624 124.483 76.7956 125.062C76.7732 125.581 76.7004 126.096 76.5783 126.6V126.629C76.5629 126.636 76.5459 126.641 76.5286 126.641C76.5114 126.642 76.4942 126.638 76.4784 126.631C76.4626 126.624 76.4487 126.614 76.4376 126.6C76.4264 126.587 76.4185 126.572 76.4142 126.555C76.4142 126.514 76.4142 126.493 76.4142 126.497C76.4142 126.501 76.4142 126.497 76.4429 126.534C76.4716 126.571 76.5003 126.567 76.5126 126.534L76.4921 126.567C76.4921 126.288 76.5537 125.706 76.5906 125.034C76.5848 124.463 76.6191 123.893 76.6931 123.328Z" fill="#EB996E"/>
<path d="M81.52 121.626C81.3604 121.886 81.1734 122.128 80.9623 122.348C80.4867 122.895 80.0676 123.488 79.7114 124.119C79.3649 124.749 79.1684 125.451 79.1373 126.169C79.1373 126.723 79.2316 127.059 79.1947 127.067C79.0477 126.791 78.9756 126.482 78.9856 126.169C78.9711 125.417 79.1549 124.675 79.5187 124.017C79.8868 123.368 80.3407 122.773 80.8679 122.246C81.0583 122.013 81.2774 121.805 81.52 121.626Z" fill="#EB996E"/>
<path d="M80.6793 125.407C80.5514 124.945 80.5735 124.455 80.7423 124.007C80.9111 123.559 81.2179 123.176 81.6184 122.914C83.0456 121.901 87.3312 119.224 87.4255 119.224C87.5198 119.224 92.4575 117.584 94.5367 117.371C96.6159 117.157 105.716 121.676 105.716 121.676C105.716 121.676 107.828 124.718 107.488 127.637C107.147 130.556 105.249 130.725 105.249 130.725L102.603 130.089L99.8804 129.568C99.8804 129.568 93.8559 131.245 92.9086 130.934C91.9613 130.622 91.6373 129.597 92.6584 129.039C93.6796 128.482 96.6323 127.613 96.6323 127.613L98.9002 126.649L91.5306 127.699C91.5306 127.699 85.2889 128.929 84.5589 128.752C83.8289 128.576 83.7387 128.039 83.6567 127.522C83.6567 127.522 81.1427 128.752 80.3758 128.08C79.6089 127.408 79.3095 125.968 80.6793 125.407Z" fill="#FFBE9D"/>
<path d="M96.6118 123.599C96.4287 123.626 96.2432 123.636 96.0582 123.627C95.7055 123.627 95.1888 123.627 94.5613 123.668C93.8244 123.699 93.0922 123.802 92.3755 123.976C91.9528 124.082 91.5409 124.228 91.1452 124.41C90.7351 124.599 90.3249 124.82 89.9148 125.071C89.5017 125.308 89.0712 125.513 88.6271 125.686C88.2066 125.841 87.7661 125.936 87.3189 125.968C86.582 125.968 85.8474 126.051 85.1289 126.214C84.6579 126.362 84.242 126.648 83.9355 127.034C83.8329 127.185 83.7411 127.342 83.6608 127.506C83.6608 127.506 83.6608 127.457 83.6854 127.362C83.7279 127.23 83.7886 127.105 83.8658 126.989C84.1617 126.565 84.5856 126.246 85.0756 126.079C85.8016 125.889 86.548 125.789 87.2984 125.78C88.1912 125.676 89.0491 125.372 89.8082 124.89C90.2183 124.656 90.6284 124.423 91.0631 124.23C91.468 124.045 91.8896 123.9 92.3222 123.795C93.0528 123.627 93.7993 123.538 94.549 123.529C95.1847 123.529 95.7014 123.529 96.0541 123.553C96.2411 123.549 96.428 123.564 96.6118 123.599Z" fill="#EB996E"/>
<path d="M94.3809 120.499C94.3809 120.499 94.3399 120.532 94.2497 120.569C94.1157 120.628 93.9789 120.68 93.8396 120.724C93.338 120.881 92.8252 120.999 92.3058 121.077C91.6537 121.192 90.8663 121.282 90.0297 121.487C89.1273 121.76 88.2601 122.139 87.446 122.615C85.9336 123.458 84.3533 124.174 82.7216 124.755C82.0983 124.98 81.5857 125.14 81.2289 125.251C81.0482 125.317 80.8614 125.365 80.6711 125.394C80.8416 125.304 81.0201 125.23 81.2043 125.173L82.6683 124.615C84.2756 123.997 85.8378 123.266 87.3435 122.43C88.1712 121.946 89.0555 121.566 89.9764 121.298C90.7368 121.127 91.5063 120.998 92.2812 120.913C92.7974 120.848 93.3096 120.754 93.815 120.63C94.0007 120.575 94.1897 120.531 94.3809 120.499Z" fill="#EB996E"/>
<path d="M100.373 122.241C100.34 122.241 100.331 122.045 100.254 121.749C100.158 121.366 99.9697 121.012 99.706 120.718C99.4423 120.423 99.1108 120.198 98.7403 120.06C98.4532 119.949 98.2605 119.921 98.2646 119.888C98.2687 119.855 98.4696 119.839 98.7854 119.917C99.2021 120.026 99.5775 120.255 99.8649 120.576C100.152 120.896 100.339 121.295 100.401 121.721C100.446 122.045 100.397 122.241 100.373 122.241Z" fill="#EB996E"/>
<path d="M103.768 126.879C103.762 126.648 103.741 126.418 103.707 126.19C103.566 125.656 103.252 125.184 102.813 124.849C102.359 124.522 101.858 124.265 101.328 124.087C101.099 124.023 100.88 123.929 100.676 123.808C100.916 123.814 101.153 123.859 101.377 123.943C101.942 124.086 102.474 124.337 102.944 124.681C103.423 125.042 103.748 125.571 103.854 126.161C103.914 126.403 103.884 126.658 103.768 126.879Z" fill="#EB996E"/>
<path d="M83.6649 127.518C83.5592 127.609 83.4385 127.682 83.3081 127.731C82.9653 127.892 82.6118 128.029 82.25 128.141C81.9989 128.227 81.7428 128.297 81.4831 128.351C81.171 128.392 80.8537 128.359 80.5563 128.256C80.3885 128.195 80.2354 128.099 80.1068 127.974C79.9783 127.85 79.8772 127.7 79.8099 127.535C79.655 127.202 79.5954 126.833 79.6376 126.469C79.6738 126.188 79.8126 125.931 80.0272 125.747C80.2152 125.58 80.4266 125.442 80.6547 125.337L80.6014 125.456C80.4344 124.948 80.4727 124.395 80.708 123.914C80.9054 123.554 81.1699 123.236 81.4872 122.975C81.6898 122.805 81.9066 122.653 82.1352 122.52C82.2134 122.464 82.3009 122.423 82.3935 122.397C82.3935 122.426 82.0614 122.627 81.5733 123.074C81.2856 123.336 81.0467 123.647 80.868 123.992C80.6666 124.435 80.6431 124.939 80.8023 125.399L80.8269 125.476L80.749 125.517C80.3635 125.718 79.9001 126.014 79.855 126.497C79.8212 126.831 79.8808 127.167 80.0272 127.469C80.0821 127.611 80.1658 127.739 80.2732 127.846C80.3805 127.954 80.509 128.037 80.6506 128.092C80.9128 128.188 81.1929 128.224 81.4708 128.199C81.7225 128.153 81.9717 128.094 82.2172 128.023C82.6724 127.895 83.0374 127.768 83.2835 127.674C83.4056 127.611 83.5332 127.558 83.6649 127.518Z" fill="#EB996E"/>
<path d="M115.44 44.5814C114.55 35.7006 112.667 26.8608 113.057 17.9308L105.753 22.4901C106.114 26.0203 102.94 28.7632 101.094 31.7973C99.9924 33.6509 99.346 35.7393 99.2085 37.8912C99.0709 40.043 99.4459 42.1968 100.303 44.1755C100.959 45.6516 101.89 47.0456 102.132 48.6405C102.542 51.3384 100.877 54.0855 101.488 56.7423C102.193 59.8051 105.946 61.4902 108.968 60.6251C111.991 59.76 114.152 56.935 115.042 53.9379C115.932 50.9407 115.751 47.7057 115.44 44.5814Z" fill="#263238"/>
<path d="M106.147 20.9771C106.55 18.8095 107.522 16.788 108.964 15.1201C110.407 13.4522 112.267 12.1979 114.354 11.486C116.441 10.774 118.68 10.63 120.841 11.0687C123.002 11.5074 125.008 12.513 126.652 13.9824C127.985 15.1755 129.076 16.6679 130.618 17.57C132.361 18.5909 132.582 18.2465 134.505 18.8656C136.429 19.4847 140.185 24.495 140.247 26.5123L141.736 35.2824C141.789 37.357 139.201 38.6855 137.204 38.1524C135.207 37.6194 133.792 35.8523 132.644 34.122C131.495 32.3918 130.404 30.5181 128.637 29.4315C125.705 27.6316 121.94 28.55 118.618 29.4315C115.296 30.3131 111.437 31.0716 108.673 29.0215C106.294 27.2462 105.605 23.8923 106.147 20.9771Z" fill="#263238"/>
<path d="M105.089 33.6997C105.089 27.9268 108.493 20.645 114.259 20.9033L132.426 24.3474C133.272 24.3857 134.072 24.7398 134.669 25.3395C135.266 25.9393 135.616 26.7411 135.65 27.5865L136.33 70.8425H136.458C136.458 70.8425 130.146 86.714 118.089 83.7332C115.698 83.1428 117.466 77.1936 116.834 74.5859L116.715 74.6105L116.645 73.7085C116.292 71.7572 116.145 69.7741 116.207 67.7921C115.956 64.3111 115.87 62.8719 115.87 62.917C115.87 62.9621 108.447 62.138 106.348 52.6668C105.302 47.9435 105.064 40.1123 105.089 33.6997Z" fill="#FFBE9D"/>
<path d="M108.275 41.248C108.291 41.5685 108.432 41.8701 108.667 42.0884C108.902 42.3067 109.213 42.4245 109.534 42.4166C109.692 42.4199 109.848 42.3916 109.994 42.3334C110.14 42.2752 110.273 42.1883 110.385 42.0779C110.497 41.9674 110.586 41.8356 110.646 41.6902C110.707 41.5449 110.737 41.389 110.736 41.2316C110.72 40.9112 110.579 40.6096 110.344 40.3913C110.109 40.173 109.798 40.0552 109.477 40.0631C109.319 40.0598 109.163 40.0881 109.017 40.1463C108.871 40.2044 108.738 40.2913 108.626 40.4018C108.514 40.5123 108.425 40.6441 108.365 40.7894C108.305 40.9348 108.274 41.0907 108.275 41.248Z" fill="#263238"/>
<path d="M107.028 37.6646C107.193 37.8163 108.082 37.07 109.403 36.9962C110.724 36.9224 111.736 37.5252 111.864 37.353C111.929 37.275 111.757 36.9962 111.314 36.7133C110.718 36.3512 110.025 36.1822 109.329 36.2295C108.641 36.2684 107.983 36.5255 107.451 36.9634C107.069 37.2955 106.951 37.5949 107.028 37.6646Z" fill="#263238"/>
<path d="M120.238 40.5797C120.254 40.9002 120.394 41.2018 120.63 41.4201C120.865 41.6384 121.176 41.7561 121.497 41.7483C121.654 41.7515 121.81 41.7234 121.956 41.6655C122.102 41.6076 122.235 41.521 122.347 41.411C122.459 41.301 122.547 41.1696 122.608 41.0248C122.668 40.8799 122.699 40.7244 122.699 40.5674C122.683 40.247 122.542 39.9454 122.307 39.7271C122.072 39.5088 121.76 39.391 121.44 39.3989C121.283 39.3956 121.127 39.4238 120.981 39.4817C120.835 39.5396 120.702 39.6261 120.59 39.7362C120.478 39.8462 120.389 39.9775 120.329 40.1224C120.268 40.2673 120.237 40.4228 120.238 40.5797Z" fill="#263238"/>
<path d="M120.049 37.1275C120.213 37.2792 121.103 36.533 122.424 36.4592C123.744 36.3854 124.757 36.9881 124.884 36.8159C124.95 36.738 124.778 36.4592 124.335 36.1763C123.739 35.8141 123.046 35.6451 122.35 35.6924C121.662 35.7316 121.004 35.9887 120.472 36.4264C120.09 36.7626 119.967 37.0619 120.049 37.1275Z" fill="#263238"/>
<path d="M115.837 47.226C115.837 47.1522 115.017 47.0579 113.664 46.9677C113.324 46.9677 113 46.9062 112.93 46.6766C112.88 46.3302 112.938 45.9769 113.094 45.6639L113.939 43.0316C115.108 39.2841 115.928 36.2131 115.776 36.168C115.624 36.1229 114.546 39.1201 113.389 42.8676L112.569 45.5122C112.381 45.9327 112.348 46.406 112.475 46.8488C112.531 46.9649 112.613 47.0666 112.715 47.1461C112.816 47.2257 112.935 47.2811 113.061 47.308C113.264 47.3451 113.471 47.3548 113.676 47.3367C115.005 47.3367 115.837 47.2998 115.837 47.226Z" fill="#263238"/>
<path d="M115.866 62.9172C120.386 62.7141 124.76 61.2606 128.502 58.7187C128.502 58.7187 125.664 65.5863 116.014 65.2788L115.866 62.9172Z" fill="#EB996E"/>
<path d="M116.588 50.379C116.823 50.051 117.137 49.788 117.502 49.6144C117.866 49.4409 118.269 49.3626 118.671 49.3868C118.966 49.3909 119.257 49.4548 119.526 49.5746C119.795 49.6944 120.038 49.8677 120.238 50.0838C120.428 50.2934 120.55 50.5565 120.586 50.8373C120.622 51.1182 120.57 51.4033 120.439 51.6541C120.241 51.9037 119.972 52.0885 119.668 52.1849C119.365 52.2813 119.039 52.2849 118.733 52.1953C118.086 52.015 117.482 51.7069 116.957 51.2892C116.798 51.1933 116.659 51.0681 116.547 50.9202C116.494 50.8503 116.463 50.7662 116.458 50.6786C116.453 50.591 116.474 50.5038 116.518 50.4282" fill="#EB996E"/>
<path d="M119.787 47.9066C119.569 47.9066 119.656 49.3416 118.487 50.4364C117.318 51.5311 115.78 51.4655 115.78 51.6664C115.78 51.7566 116.137 51.9247 116.785 51.9042C117.627 51.8661 118.429 51.5322 119.049 50.9612C119.643 50.4118 120 49.6532 120.045 48.8455C120.066 48.2387 119.885 47.8943 119.787 47.9066Z" fill="#263238"/>
<path d="M119.418 32.113C119.569 32.4656 120.882 32.2155 122.444 32.3098C124.007 32.4041 125.29 32.7526 125.475 32.4164C125.557 32.2565 125.319 31.9326 124.79 31.5964C124.089 31.2107 123.309 30.9895 122.51 30.9497C121.71 30.91 120.912 31.0526 120.176 31.3668C119.619 31.6456 119.348 31.949 119.418 32.113Z" fill="#263238"/>
<path d="M107.283 33.8064C107.533 34.0934 108.427 33.7244 109.522 33.6465C110.617 33.5686 111.572 33.7285 111.753 33.4005C111.839 33.2406 111.675 32.9495 111.248 32.6912C110.683 32.383 110.039 32.2496 109.398 32.308C108.757 32.3664 108.148 32.6139 107.648 33.0192C107.283 33.3472 107.172 33.667 107.283 33.8064Z" fill="#263238"/>
<path d="M114.419 18.4352L115.165 17.3445C120.749 17.6308 126.268 18.6764 131.569 20.4524C133.681 21.1617 135.834 22.0351 137.352 23.6669C139.439 25.9138 139.952 29.161 140.366 32.2033C141.932 43.7779 143.376 55.7133 140.407 67.0131C139.439 65.6519 137.676 65.123 136.019 64.9098C134.362 64.6966 132.635 64.6966 131.098 64.0283C130.262 63.6457 129.517 63.0928 128.908 62.4051C128.299 61.7173 127.841 60.91 127.562 60.0348C127.018 58.2679 127.109 56.3661 127.821 54.6595C128.596 52.7612 130.068 50.8834 129.556 48.8989C129.018 46.8202 126.525 45.7664 125.832 43.7369C124.63 40.2272 129.441 36.7093 128.206 33.2119C127.751 31.9204 126.541 31.0348 125.278 30.5018C124.015 29.9687 122.653 29.7104 121.378 29.2143C119.258 28.3407 117.455 26.8402 116.211 24.9137C114.967 22.9873 114.342 20.7268 114.419 18.4352Z" fill="#263238"/>
<path d="M142.794 24.1507C136.827 15.7947 132.787 14.7861 127.181 14.4704L134.973 31.9368C136.142 34.7454 137.749 38.1566 138 41.1907C138.295 44.7824 137.048 47.796 135.379 50.99C133.378 54.8235 131.18 58.4808 127.739 61.109C124.298 63.7372 116.641 67.0172 112.663 65.3362L118.212 68.4359L131.467 68.4851L146.907 68.5466C146.907 68.5466 148.711 66.968 150.299 62.8802C154.277 52.6669 149.441 33.4702 142.794 24.1507Z" fill="#686DE0"/>
<path d="M153.784 78.5754C153.784 78.5754 150.463 71.7611 146.128 68.0136C141.793 64.2661 139.131 64.303 132.947 64.8278C126.763 65.3526 118.11 66.3244 116.059 65.8077L115.866 62.9377C114.849 62.8393 110.678 60.8056 109.866 59.5797C108.316 61.1664 107.64 62.8598 107.992 64.6597L106.979 65.041C105.486 65.5875 104.246 66.6644 103.495 68.0663C102.745 69.4682 102.537 71.0972 102.911 72.6426C103.297 74.1186 104.232 75.0248 106.098 75.3446C113.52 76.6279 133.365 71.265 139.341 71.2445C145.316 71.224 153.784 78.5754 153.784 78.5754Z" fill="#686DE0"/>
<path d="M105.445 75.2749C105.618 75.2692 105.791 75.2788 105.962 75.3036C106.298 75.3364 106.782 75.3897 107.439 75.4348C109.248 75.5762 111.064 75.6063 112.877 75.525C115.562 75.3872 118.232 75.0251 120.857 74.4426C122.342 74.1187 123.888 73.7251 125.475 73.2659L130.376 71.757C133.73 70.732 137.101 70.0391 140.177 70.3425C142.891 70.5874 145.518 71.4273 147.871 72.8025C149.451 73.7264 150.88 74.888 152.107 76.2466C152.44 76.6142 152.752 77.0002 153.042 77.4029C153.151 77.5309 153.248 77.6681 153.333 77.8129C153.207 77.6948 153.092 77.5658 152.989 77.4275C152.78 77.1609 152.452 76.7878 152.013 76.3204C148.884 73.0426 144.667 71.0166 140.153 70.6213C137.134 70.3425 133.816 71.0313 130.474 72.0481C128.797 72.5524 127.165 73.0896 125.553 73.5529C123.941 74.0162 122.403 74.3975 120.91 74.7173C118.266 75.2897 115.576 75.63 112.872 75.7341C111.05 75.7944 109.227 75.7273 107.414 75.5332C106.774 75.4676 106.278 75.3938 105.942 75.3405C105.775 75.3328 105.609 75.3109 105.445 75.2749Z" fill="#263238"/>
<path d="M154.141 76.3326C146.653 66.6072 132.295 62.8761 121.017 67.747L109.124 70.2686C105.987 70.8139 100.955 71.8348 100.713 74.7377C100.499 77.8153 101.17 80.89 102.649 83.598C105.413 88.4115 103.912 94.861 106.676 99.6786C107.984 101.954 109.317 104.263 111.216 106.071C113.114 107.879 115.702 109.146 118.31 108.863C121.214 108.551 123.593 106.427 125.438 104.164C129.412 99.2891 131.893 93.3686 135.617 88.3008C139.341 83.2331 143.72 79.5061 151.537 79.0223C152.96 78.9362 157.004 80.8264 157.004 80.8264C157.123 80.2646 154.498 76.7919 154.141 76.3326Z" fill="#686DE0"/>
<g opacity="0.3">
<path opacity="0.3" d="M138.135 70.5475C132.964 70.5475 127.882 73.0322 122.871 74.1392C102.71 78.5755 102.71 70.9739 102.71 70.9739C102.079 74.5451 105.433 76.1893 108.964 77.0052C115.706 78.5632 122.908 79.3996 127.772 77.8498C131.688 76.6198 135.785 75.7014 139.743 74.5697C143.7 73.4381 149.405 73.8686 152.402 76.6813C149.712 72.2737 143.306 70.5352 138.135 70.5475Z" fill="black"/>
</g>
<g opacity="0.3">
<path opacity="0.3" d="M111.933 70.0062C112.175 70.5337 112.527 71.0032 112.966 71.3831C113.404 71.7629 113.919 72.0442 114.476 72.208C115.593 72.5277 116.762 72.6279 117.917 72.5032C122.133 72.2162 126.184 70.8099 130.175 69.4158C126.984 69.3051 123.9 70.4162 120.771 71.0559C117.642 71.6955 114.115 71.7365 111.572 69.8258" fill="black"/>
</g>
<path d="M155.154 79.4609C155.121 79.4329 155.09 79.4013 155.064 79.3666L154.81 79.0796C154.596 78.8213 154.26 78.4605 153.821 78.0013C152.587 76.7004 151.093 75.6724 149.437 74.9836C148.281 74.5508 147.068 74.2897 145.837 74.2087C144.424 74.0932 143.003 74.1372 141.6 74.3399C138.627 74.7499 135.477 75.7995 132.143 76.7508C128.809 77.702 125.614 78.6942 122.584 78.8541C119.913 78.97 117.238 78.7788 114.611 78.2842C112.372 77.8742 110.588 77.3986 109.354 77.0952L107.935 76.7303L107.566 76.6319L107.443 76.5909H107.57L107.943 76.6688L109.37 76.9927C110.6 77.2756 112.397 77.7225 114.636 78.1161C117.253 78.5865 119.915 78.7612 122.571 78.6368C125.573 78.4687 128.76 77.5216 132.082 76.5253C135.404 75.5289 138.57 74.5244 141.572 74.1267C142.99 73.9261 144.426 73.8875 145.853 74.0119C147.383 74.1059 148.878 74.5022 150.254 75.1778C151.629 75.8534 152.857 76.795 153.866 77.948C154.297 78.4195 154.625 78.7885 154.826 79.055L155.064 79.3543C155.098 79.3861 155.128 79.4219 155.154 79.4609Z" fill="black"/>
<path d="M147.625 69.4322C147.593 69.4129 147.564 69.3895 147.539 69.3625L147.301 69.1452C147.1 68.9443 146.784 68.6737 146.374 68.3252C145.195 67.3701 143.901 66.5657 142.523 65.9307C140.476 64.9942 138.3 64.3682 136.068 64.0733C133.332 63.7354 130.563 63.7437 127.829 64.0979C125.092 64.4595 122.376 64.9659 119.693 65.615C118.507 65.8936 117.286 65.9904 116.071 65.902C115.003 65.8215 113.978 65.45 113.106 64.8278C112.407 64.2967 111.81 63.6439 111.343 62.9007C110.991 62.3459 110.685 61.7631 110.428 61.1582C110.215 60.6621 110.08 60.2644 109.989 59.9937L109.895 59.6862C109.881 59.6837 109.868 59.6759 109.86 59.6645C109.851 59.6531 109.847 59.6389 109.848 59.6246C109.849 59.6103 109.856 59.5971 109.867 59.5874C109.877 59.5777 109.891 59.5724 109.905 59.5724C109.92 59.5724 109.934 59.5777 109.944 59.5874C109.955 59.5971 109.961 59.6103 109.963 59.6246C109.964 59.6389 109.96 59.6531 109.951 59.6645C109.942 59.6759 109.93 59.6837 109.916 59.6862L110.03 59.9896C110.133 60.2521 110.281 60.6457 110.506 61.1336C110.774 61.727 111.088 62.2986 111.445 62.8433C111.913 63.5655 112.506 64.1985 113.196 64.713C114.051 65.3097 115.052 65.6626 116.092 65.7339C117.288 65.8124 118.49 65.7101 119.656 65.4305C122.343 64.7699 125.065 64.258 127.808 63.897C130.561 63.5427 133.348 63.5427 136.101 63.897C138.345 64.1958 140.531 64.8331 142.585 65.7872C143.967 66.436 145.259 67.263 146.427 68.2472C146.837 68.604 147.141 68.891 147.334 69.1001L147.555 69.3338C147.583 69.363 147.606 69.3961 147.625 69.4322Z" fill="black"/>
<path d="M145.213 69.2272H145.107L144.803 69.178L143.634 68.9853C142.201 68.7655 140.757 68.6205 139.308 68.5507C137.16 68.4475 135.006 68.5161 132.869 68.7557C130.258 69.1095 127.672 69.6202 125.122 70.285C122.399 70.9451 119.746 71.515 117.293 71.4781C116.132 71.4858 114.975 71.348 113.849 71.0681C112.867 70.7903 111.96 70.2989 111.191 69.629C110.088 68.6644 109.192 67.4857 108.558 66.1644C108.316 65.6883 108.125 65.1881 107.988 64.672C108.007 64.7014 108.022 64.7331 108.033 64.7663L108.144 65.0533C108.242 65.3034 108.398 65.6724 108.632 66.1275C109.288 67.4194 110.191 68.57 111.289 69.5142C112.046 70.1596 112.935 70.6313 113.894 70.8959C115.006 71.1725 116.148 71.3102 117.293 71.3059C119.721 71.3059 122.35 70.7565 125.085 70.1005C127.649 69.4328 130.251 68.9262 132.877 68.5835C135.025 68.3518 137.188 68.2983 139.345 68.4236C140.797 68.507 142.243 68.6753 143.675 68.9279C144.18 69.0222 144.574 69.1001 144.84 69.1616L145.139 69.2313L145.213 69.2272Z" fill="black"/>
<path d="M145.582 50.83C145.549 51.0634 145.497 51.2937 145.427 51.5188C145.362 51.7881 145.282 52.0536 145.189 52.3143C145.082 52.6177 144.98 52.9744 144.816 53.3475C144.651 53.7206 144.492 54.1388 144.274 54.5775C144.057 55.0162 143.815 55.4549 143.552 55.9265C142.355 57.944 140.797 59.7244 138.955 61.1787C138.525 61.5026 138.135 61.8183 137.725 62.0766C137.315 62.3349 136.946 62.5727 136.589 62.7736C136.232 62.9745 135.904 63.1385 135.617 63.282C135.372 63.4089 135.12 63.5225 134.862 63.6223C134.648 63.7219 134.426 63.8042 134.198 63.8684C134.398 63.7454 134.608 63.6385 134.825 63.5485C135.03 63.4542 135.281 63.3353 135.564 63.1795C135.847 63.0237 136.175 62.8638 136.515 62.6465C136.855 62.4292 137.241 62.2119 137.626 61.9331C138.012 61.6543 138.422 61.355 138.857 61.0311C140.664 59.5754 142.205 57.8162 143.409 55.8322C143.675 55.3688 143.938 54.9342 144.143 54.5078C144.348 54.0814 144.553 53.6878 144.705 53.3106C144.857 52.9334 144.992 52.5972 145.115 52.2979C145.238 51.9986 145.32 51.7362 145.386 51.5188C145.433 51.2844 145.499 51.054 145.582 50.83Z" fill="black"/>
<path d="M144.963 75.2666C144.852 75.2665 144.741 75.2569 144.631 75.2379L144.221 75.1846C144.065 75.1846 143.88 75.1846 143.675 75.1559C142.516 75.1298 141.361 75.3089 140.263 75.6848C139.507 75.9455 138.771 76.2606 138.061 76.6278C137.248 77.0558 136.458 77.5266 135.695 78.0383C134.075 79.1125 132.389 80.4368 130.577 81.7693L121.312 88.6165L118.491 90.6666L117.732 91.2078C117.645 91.2758 117.551 91.3362 117.453 91.3882C117.532 91.3099 117.617 91.2386 117.708 91.175L118.458 90.5928L121.239 88.4812L130.466 81.5848C132.279 80.2523 133.968 78.9362 135.605 77.8619C136.377 77.3498 137.176 76.8803 138 76.4556C138.72 76.0902 139.467 75.7791 140.235 75.5249C141.35 75.1571 142.523 74.9986 143.696 75.0575C143.901 75.0575 144.106 75.0821 144.245 75.1067L144.656 75.1805C144.76 75.2006 144.863 75.2294 144.963 75.2666Z" fill="black"/>
<path d="M158.197 87.8416C158.121 87.6547 158.062 87.4612 158.021 87.2635C157.918 86.8904 157.779 86.3451 157.586 85.6809C157.37 84.9041 157.096 84.1448 156.766 83.4094C156.355 82.5125 155.793 81.6929 155.105 80.9862C154.42 80.2797 153.564 79.7626 152.62 79.4856C151.843 79.2768 151.035 79.206 150.233 79.2765C149.491 79.3578 148.754 79.4824 148.027 79.6496C148.027 79.6496 148.076 79.6209 148.17 79.584C148.264 79.5471 148.408 79.4979 148.58 79.4446C149.116 79.2875 149.665 79.1804 150.221 79.1248C151.044 79.0307 151.879 79.0891 152.681 79.297C153.664 79.5736 154.555 80.1055 155.265 80.8386C155.971 81.5617 156.543 82.4044 156.955 83.3274C157.292 84.0753 157.567 84.8502 157.775 85.644C157.951 86.3164 158.07 86.874 158.148 87.2512C158.182 87.4461 158.199 87.6437 158.197 87.8416Z" fill="black"/>
<g clip-path="url(#clip0_14_4)">
<path d="M122.121 55.0692L121.581 54.0043C121.611 53.9747 125.389 52.0816 126.828 50.8688C130.246 48.0291 133.364 43.533 133.424 43.4738L134.414 44.1541C134.294 44.3316 131.146 48.8574 127.608 51.7858C126.049 53.0873 122.271 54.9805 122.121 55.0692Z" fill="#698694"/>
<path d="M124.939 51.8154C124.939 51.8154 119.782 54.0931 119.782 54.596C119.782 55.0988 120.592 56.1045 121.221 56.0454C121.821 55.9862 123.59 55.0101 123.92 54.6255C124.22 54.2114 124.789 53.1761 125.419 52.6733L124.939 51.8154Z" fill="#263238"/>
<path d="M134.354 36.5815L133.154 36.5223C133.154 36.4632 133.364 31.4937 131.385 26.4947C126.46 14.052 124.478 7.67377 132.525 26.1102C134.593 31.3458 134.384 36.3744 134.354 36.5815Z" fill="#698694"/>
<path d="M133.754 47.3192C135.857 47.3192 137.562 44.9089 137.562 41.9356C137.562 38.9623 135.857 36.552 133.754 36.552C131.651 36.552 129.946 38.9623 129.946 41.9356C129.946 44.9089 131.651 47.3192 133.754 47.3192Z" fill="#698694"/>
<path d="M137.562 41.9356C137.562 41.9356 137.562 41.906 137.562 41.8468C137.562 41.7877 137.562 41.7285 137.532 41.6398C137.532 41.4327 137.502 41.1665 137.442 40.8115C137.322 40.1016 137.052 39.0367 136.272 38.0014C136.093 37.7352 135.823 37.4986 135.553 37.2915C135.253 37.0844 134.953 36.8774 134.593 36.7886C134.234 36.6703 133.844 36.6112 133.424 36.6703C133.034 36.7295 132.615 36.8774 132.255 37.0844C131.535 37.5577 130.966 38.2972 130.606 39.1551C130.216 40.0129 130.036 40.989 130.036 41.9652C130.036 42.9413 130.216 43.9175 130.606 44.7753C130.966 45.6331 131.535 46.3726 132.255 46.8459C132.615 47.0825 133.004 47.2304 133.424 47.26C133.814 47.3192 134.234 47.26 134.593 47.1417C134.953 47.0234 135.283 46.8163 135.553 46.6388C135.823 46.4022 136.063 46.1655 136.272 45.9289C137.082 44.8936 137.322 43.8287 137.442 43.1188C137.502 42.7638 137.532 42.468 137.532 42.2905C137.532 42.2018 137.532 42.1426 137.562 42.0835C137.562 41.9652 137.562 41.9356 137.562 41.9356C137.562 41.9356 137.562 41.9652 137.562 42.0243C137.562 42.0835 137.562 42.1426 137.562 42.2314C137.562 42.4384 137.532 42.7047 137.502 43.0596C137.382 43.7696 137.172 44.864 136.362 45.9289C136.183 46.1951 135.913 46.4318 135.643 46.6684C135.343 46.8755 135.013 47.1121 134.653 47.2008C134.264 47.3192 133.844 47.3783 133.424 47.3192C133.004 47.26 132.585 47.1121 132.195 46.8755C131.445 46.4022 130.846 45.6331 130.456 44.7457C130.066 43.8583 129.886 42.8821 129.886 41.8764C129.886 40.8707 130.066 39.8946 130.456 39.0072C130.846 38.1198 131.415 37.3802 132.195 36.8774C132.585 36.6407 133.004 36.4928 133.424 36.4337C133.844 36.3745 134.264 36.4337 134.653 36.552C135.043 36.6703 135.373 36.8774 135.643 37.0844C135.913 37.3211 136.183 37.5577 136.362 37.824C137.172 38.8888 137.412 39.9833 137.502 40.6932C137.532 41.0482 137.562 41.344 137.562 41.5215C137.562 41.6102 137.562 41.6694 137.562 41.7285C137.562 41.906 137.562 41.9356 137.562 41.9356Z" fill="#263238"/>
<path d="M134.354 45.0711C135.695 45.0711 136.782 43.5349 136.782 41.6398C136.782 39.7448 135.695 38.2085 134.354 38.2085C133.012 38.2085 131.925 39.7448 131.925 41.6398C131.925 43.5349 133.012 45.0711 134.354 45.0711Z" fill="#698694"/>
<path d="M136.752 41.6398C136.722 41.6398 136.752 41.3735 136.662 40.9298C136.572 40.4861 136.422 39.8058 135.913 39.155C135.673 38.8296 135.313 38.5338 134.863 38.3859C134.623 38.3268 134.384 38.2972 134.144 38.3268C133.904 38.3564 133.634 38.4451 133.424 38.593C132.974 38.8888 132.615 39.3621 132.375 39.8945C132.135 40.427 132.015 41.0482 132.015 41.6693C132.015 42.2905 132.135 42.9117 132.375 43.4441C132.615 43.9766 132.974 44.4499 133.424 44.7457C133.664 44.8936 133.904 44.9823 134.144 45.0119C134.384 45.0415 134.653 45.0119 134.863 44.9527C135.313 44.8048 135.673 44.509 135.913 44.1836C136.422 43.5329 136.572 42.8525 136.662 42.4088C136.752 41.906 136.752 41.6398 136.752 41.6398C136.752 41.6398 136.752 41.6989 136.752 41.8172C136.752 41.9356 136.752 42.113 136.722 42.3497C136.662 42.7934 136.512 43.5033 136.003 44.1836C135.763 44.509 135.373 44.864 134.893 45.0119C134.653 45.1006 134.384 45.1302 134.114 45.1006C133.844 45.071 133.574 44.9527 133.334 44.8048C132.855 44.509 132.465 44.0062 132.225 43.4441C131.985 42.8821 131.865 42.2609 131.865 41.6102C131.865 40.9594 131.985 40.3382 132.225 39.7762C132.465 39.2142 132.855 38.7113 133.334 38.4155C133.574 38.2676 133.844 38.1789 134.114 38.1197C134.384 38.0901 134.653 38.1197 134.893 38.2085C135.373 38.3859 135.733 38.7113 136.003 39.0367C136.512 39.717 136.662 40.427 136.722 40.8707C136.752 41.1073 136.752 41.2848 136.752 41.4031C136.782 41.5806 136.782 41.6398 136.752 41.6398Z" fill="#263238"/>
<path d="M134.504 44.095C135.464 44.095 136.242 42.9958 136.242 41.6399C136.242 40.2839 135.464 39.1847 134.504 39.1847C133.543 39.1847 132.765 40.2839 132.765 41.6399C132.765 42.9958 133.543 44.095 134.504 44.095Z" fill="#698694"/>
<path d="M136.243 41.6399C136.213 41.6399 136.243 41.4624 136.183 41.137C136.123 40.8116 136.003 40.3383 135.643 39.865C135.463 39.6284 135.223 39.4213 134.893 39.303C134.564 39.1847 134.174 39.2439 133.874 39.4509C133.214 39.8651 132.885 40.7525 132.885 41.6399C132.885 42.5273 133.244 43.4147 133.874 43.8288C134.204 44.0358 134.594 44.095 134.893 43.9767C135.223 43.8879 135.463 43.6513 135.643 43.4147C136.003 42.9414 136.123 42.4681 136.183 42.1427C136.243 41.8173 136.243 41.6399 136.243 41.6399C136.243 41.6399 136.243 41.699 136.243 41.7878C136.243 41.8765 136.243 41.9948 136.213 42.1723C136.153 42.4977 136.063 43.0005 135.703 43.5034C135.523 43.74 135.253 44.0063 134.893 44.1246C134.713 44.1837 134.504 44.2133 134.324 44.1837C134.114 44.1542 133.934 44.095 133.754 43.9767C133.394 43.74 133.124 43.3851 132.944 43.0005C132.765 42.5864 132.675 42.1427 132.675 41.6694C132.675 41.1962 132.765 40.7525 132.944 40.3383C133.124 39.9242 133.394 39.5692 133.754 39.3622C133.934 39.2439 134.144 39.1847 134.324 39.1551C134.534 39.1255 134.713 39.1551 134.893 39.2143C135.253 39.3326 135.523 39.5692 135.703 39.8355C136.063 40.3383 136.183 40.8412 136.213 41.1666C136.243 41.3441 136.243 41.4624 136.243 41.5511C136.272 41.5807 136.272 41.6399 136.243 41.6399Z" fill="#263238"/>
</g>
<path d="M72.538 0.53714V66.04H3.19896L0.701088 0.976756L72.538 0.53714Z" fill="#C2C2C2"/>
<path d="M0.708054 1.01661L0.708054 65.9543H70.047V1.01661H0.708054Z" fill="#F5F5F5"/>
<path d="M70.3638 66.354H0.377197V0.537109H70.3638V66.354ZM1.02479 65.4747H69.6699V1.41634H1.02479V65.4747Z" fill="#F5F5F5"/>
<path d="M62.7976 9.38556H8.49202V58.183H62.7976V9.38556Z" fill="#E9E9E9"/>
<path d="M62.7975 9.38549C62.7975 9.38549 62.705 9.38549 62.5199 9.38549C62.3349 9.38549 62.0574 9.38549 61.7336 9.38549C61.0397 9.38549 60.0683 9.38549 58.7731 9.38549C56.1827 9.38549 52.3897 9.44829 47.579 9.44829C38.0038 9.44829 24.4506 9.5111 8.49194 9.5739L8.63071 9.38549C8.63071 24.2697 8.63071 40.7867 8.63071 58.1829L8.44569 57.9317C28.9375 57.9317 47.8103 57.9945 62.7512 57.9945L62.6124 58.1829C62.6587 43.3616 62.6587 31.1779 62.705 22.6996C62.705 18.4918 62.7512 15.1633 62.7512 12.9024C62.7512 11.772 62.7512 10.8927 62.7512 10.3275C62.7975 9.6995 62.7975 9.38549 62.7975 9.38549C62.7975 9.38549 62.7975 9.6995 62.7975 10.2647C62.7975 10.8299 62.7975 11.7092 62.7975 12.8396C62.7975 15.1005 62.7975 18.3662 62.8437 22.6368C62.8437 31.1151 62.89 43.3616 62.9362 58.2457V58.4341H62.7975C47.8565 58.4341 28.9837 58.4341 8.49194 58.4969H8.30692V58.2457C8.30692 40.9123 8.30692 24.3953 8.30692 9.44829V9.25989H8.44569C24.4506 9.32269 38.0501 9.32269 47.6252 9.38549C52.3897 9.38549 56.1827 9.44829 58.7731 9.44829C60.0683 9.44829 61.0397 9.44829 61.7336 9.44829C62.0574 9.44829 62.2887 9.44829 62.4737 9.44829C62.7512 9.38549 62.7975 9.38549 62.7975 9.38549Z" fill="#959499"/>
<path d="M0.701045 0.788391C0.747301 0.725588 1.16361 1.1652 1.90372 1.85603C2.59758 2.54686 3.56897 3.55169 4.63288 4.68214C5.69678 5.81258 6.57566 6.88022 7.22326 7.69665C7.87086 8.51308 8.24091 9.0155 8.19465 9.0783C8.1484 9.20391 6.48315 7.31984 4.40159 5.05895C2.32003 2.79807 0.654788 0.913995 0.701045 0.788391Z" fill="#959499"/>
<path d="M66.4142 5.22915C68.4774 3.01203 70.0986 1.12652 70.0352 1.01773C69.9717 0.908946 68.2478 2.61808 66.1845 4.8352C64.1213 7.05231 62.5001 8.93783 62.5635 9.04661C62.627 9.1554 64.351 7.44626 66.4142 5.22915Z" fill="#959499"/>
<path d="M69.9475 65.9144C67.3571 63.0883 64.813 60.2622 62.2226 57.4361L69.9475 65.9144Z" fill="#E9E9E9"/>
<path d="M70.0062 65.9668C70.0706 65.859 68.3851 63.8594 66.2416 61.5006C64.0981 59.1418 62.3082 57.3169 62.2439 57.4247C62.1795 57.5325 63.865 59.5321 66.0085 61.8909C68.1521 64.2497 69.9419 66.0746 70.0062 65.9668Z" fill="#959499"/>
<path d="M4.52909 62.1645C6.57281 59.97 8.17818 58.1027 8.1148 57.9939C8.05141 57.8851 6.34326 59.5759 4.29954 61.7704C2.25582 63.965 0.650446 65.8322 0.713833 65.941C0.77722 66.0498 2.48537 64.359 4.52909 62.1645Z" fill="#959499"/>
<path d="M39.799 14.8105C39.9723 15.3252 40.0915 15.8577 40.2143 16.3868C40.5588 17.9576 40.7977 19.5504 40.9817 21.1479C41.3495 24.286 41.2243 27.4798 40.6424 30.5835C40.1854 32.9914 39.4664 35.3587 38.3963 37.5631C37.9819 38.4157 37.5031 39.2356 36.9665 40.015C36.2724 41.045 35.4911 42.0143 34.6383 42.9142C34.8405 42.5072 35.0651 42.1118 35.2685 41.705C36.2782 39.7485 37.1759 37.7236 37.7937 35.6032C38.1923 34.2621 38.4927 32.8918 38.7155 31.5101C38.8344 30.7458 38.9444 29.9796 39.0013 29.208C39.1113 27.7344 39.0989 26.2512 38.9621 24.7798C38.8824 23.9309 38.7556 23.0858 38.5614 22.2557C38.3537 21.2688 38.0719 20.2994 37.7581 19.3423C38.4407 17.8327 39.1177 16.3207 39.799 14.8105Z" fill="#FF5757"/>
<path d="M28.8626 20.9342C29.4008 20.7955 29.9519 20.7159 30.504 20.6633C32.0947 20.612 33.7233 20.8745 35.1516 21.6093C36.1798 22.1391 37.0915 22.9446 37.6384 23.9825C38.1632 24.9596 38.328 26.1076 38.1939 27.2046C38.1127 27.865 37.9498 28.5174 37.688 29.1289C37.4098 29.7874 37.035 30.3974 36.6571 31.0009C35.4115 32.9883 34.2502 35.0472 33.4387 37.259C33.1794 37.992 32.9839 38.7563 32.9514 39.5372C32.9 40.6009 33.229 41.6924 33.9051 42.5154C34.1553 42.8247 34.4365 43.106 34.7104 43.3935C34.2015 43.4839 33.6938 43.5847 33.1803 43.6437C32.807 43.6862 32.4318 43.7111 32.057 43.7335C31.9417 43.1272 31.7952 42.5246 31.7438 41.9076C31.6821 41.2057 31.753 40.4973 31.9031 39.8111C32.0466 39.167 32.24 38.5352 32.4525 37.9111C32.8264 36.807 33.3205 35.7497 33.854 34.7167C34.159 34.1172 34.4688 33.5195 34.7302 32.8991C34.9886 32.2907 35.1969 31.6604 35.3483 31.0163C35.5124 30.3224 35.6249 29.6116 35.6167 28.8964C35.6109 27.7573 35.3167 26.613 34.7229 25.6412C34.1061 24.6202 33.1666 23.8048 32.0786 23.3353C30.9421 22.8324 29.6561 22.7115 28.4388 22.9307C27.4082 23.11 26.4296 23.5389 25.5601 24.1212C24.5818 24.7757 23.729 25.6172 23.0395 26.5758C22.3761 27.4969 21.8626 28.5324 21.5632 29.6322C21.1664 31.0784 21.115 32.6076 21.319 34.0901C21.4984 35.3743 21.8623 36.6303 22.3749 37.8182C22.8397 38.8931 23.4204 39.919 24.1269 40.8506C24.4647 41.2936 24.8304 41.7157 25.2333 42.1001C25.6185 42.4727 26.0511 42.789 26.4746 43.1146C27.2568 43.7071 28.0819 44.2556 28.9885 44.6334C29.9246 44.9867 30.8622 45.3353 31.7976 45.6898C32.2157 46.7382 32.6389 47.7844 33.0578 48.8325C32.8447 48.8525 32.6401 48.7855 32.4352 48.7394C29.2965 47.9858 26.3654 46.3662 24.0449 44.1C23.1635 43.2382 22.3703 42.2839 21.6936 41.25C21.0792 40.299 20.5338 39.2937 20.1616 38.2188C19.7296 36.9605 19.491 35.6369 19.4244 34.3072C19.3535 32.7875 19.5147 31.2416 20.0288 29.8056C20.383 28.7661 20.7803 27.7346 21.3294 26.7827C21.5784 26.3489 21.8669 25.9397 22.1785 25.5499C23.56 23.8011 25.3333 22.3478 27.3751 21.4645C27.8588 21.2555 28.3537 21.0698 28.8626 20.9342Z" fill="#FF5757"/>
<path d="M41.8928 24.0178C42.8328 23.6944 43.823 23.473 44.8208 23.5102C45.6097 23.5259 46.4108 23.5923 47.1602 23.8595C47.9145 24.1205 48.5636 24.629 49.0774 25.2378C49.7055 25.984 50.1502 26.8719 50.4661 27.7942C50.9693 29.2813 51.1538 30.865 51.1225 32.432C51.0888 33.8254 50.8963 35.2197 50.4959 36.5552C50.1125 37.8468 49.5741 39.0889 48.9272 40.267C48.3647 41.2893 47.7181 42.2642 46.9942 43.177C46.2387 44.127 45.399 45.0115 44.466 45.7848C43.6233 46.4861 42.6939 47.0831 41.694 47.5274C40.3767 48.1241 38.9174 48.4878 37.4684 48.3224C36.315 48.1985 35.2105 47.7094 34.3188 46.9626C33.7101 46.4578 33.1924 45.8469 32.7604 45.1831C32.7081 45.0995 32.6473 45.0202 32.6123 44.927C33.5563 45.0334 34.5179 45.1354 35.4619 44.9716C35.8377 44.8941 36.208 44.7923 36.5825 44.7109C37.2364 45.1437 37.9859 45.4017 38.7404 45.5883C39.3451 45.7393 39.969 45.8281 40.5925 45.79C41.7344 45.7325 42.831 45.2935 43.7762 44.6571C44.7126 44.0268 45.5219 43.2201 46.2324 42.342C47.0006 41.3871 47.6609 40.3442 48.2143 39.2481C48.7578 38.153 49.085 36.9583 49.2701 35.7506C49.489 34.2567 49.4939 32.7195 49.1823 31.2385C48.9874 30.3316 48.6675 29.4403 48.1498 28.6683C47.705 28.0076 47.1025 27.4403 46.3765 27.1117C45.7277 26.8208 45.0111 26.7108 44.3052 26.7157C43.4634 26.7274 42.6142 26.8869 41.8484 27.2479C41.8849 26.1718 41.8955 25.0945 41.8928 24.0178Z" fill="#FF5757"/>
<path d="M28.6206 23.9036C28.8416 23.8661 29.0639 23.8335 29.2864 23.808C30.311 23.7739 31.3623 23.9639 32.2612 24.4783C33.0222 24.9081 33.6482 25.5666 34.0656 26.338C34.6663 27.4399 34.8682 28.7321 34.7703 29.9775C34.6223 31.841 33.8017 33.6675 32.4236 34.9286C32.0569 35.2733 31.6192 35.5432 31.1406 35.6951C30.4532 35.9183 29.7054 35.9036 29.011 35.7194C28.0706 35.4701 27.2094 34.94 26.5393 34.2301C26.1 33.7622 25.7416 33.2079 25.5409 32.593C25.3877 32.1269 25.3342 31.6325 25.3439 31.1431C25.353 30.5915 25.4269 30.0439 25.485 29.4961C24.9122 30.2217 24.5003 31.0622 24.168 31.9237C23.6159 33.3693 23.4715 34.976 23.7879 36.4945C24.0144 37.5991 24.472 38.6451 25.0542 39.6037C25.4108 40.1946 25.8167 40.7532 26.2402 41.2965C26.4317 41.5323 26.6086 41.7819 26.8278 41.9928C27.2173 42.4008 27.6019 42.814 28.0165 43.1962C27.5404 42.8854 27.1136 42.506 26.6688 42.1524C26.2645 41.8379 25.879 41.4975 25.5257 41.1252C23.9551 39.4718 22.8902 37.3369 22.4904 35.0815C22.2356 33.6312 22.2697 32.1269 22.6181 30.6954C23.0075 29.0875 23.7685 27.5644 24.8614 26.3275C25.5911 25.4999 26.4709 24.8041 27.455 24.3122C27.825 24.129 28.2129 23.9744 28.6206 23.9036ZM29.9154 27.7544C29.6196 27.8156 29.3308 27.9146 29.0627 28.0554C28.4546 28.3674 27.9576 28.9006 27.707 29.5437C27.4809 30.0944 27.4413 30.7206 27.6034 31.2943C27.783 31.947 28.2029 32.525 28.7559 32.906C29.2484 33.2475 29.847 33.4271 30.4438 33.4166C30.9847 33.404 31.5301 33.2749 31.9986 32.9951C32.43 32.7403 32.7872 32.359 33.0149 31.9092C33.3551 31.2451 33.4238 30.4479 33.2156 29.7319C33.0566 29.1757 32.7227 28.67 32.2652 28.3204C31.8043 27.9625 31.2312 27.7744 30.656 27.7273C30.4095 27.7098 30.158 27.696 29.9154 27.7544Z" fill="#FF5757"/>
<path d="M43.2866 28.4551C43.3687 28.4222 43.4596 28.44 43.5459 28.44C43.9888 28.4585 44.4415 28.6106 44.7598 28.9325C45.0715 29.2412 45.2332 29.6892 45.2143 30.1282C45.2016 30.5718 45.0085 31.0081 44.6844 31.3082C44.3619 31.6089 43.9226 31.7706 43.486 31.7758C43.0753 31.7807 42.6734 31.595 42.3925 31.295C42.0012 30.883 41.8136 30.2761 41.9252 29.7138C41.9945 29.3725 42.1754 29.0432 42.4639 28.844C42.715 28.6694 43.0087 28.5753 43.2866 28.4551Z" fill="#FF5757"/>
<path d="M46.1135 30.9027C46.5197 30.2654 46.9249 29.6274 47.3326 28.991C47.7294 29.9053 48.0322 30.8637 48.1976 31.849C48.4694 33.4874 48.4551 35.1876 48.0425 36.8011C47.4764 39.0602 46.2029 41.0979 44.5642 42.72C44.1961 43.0794 43.8191 43.4339 43.4065 43.741C43.3375 43.8102 43.2582 43.8674 43.181 43.9267C43.246 43.8606 43.3077 43.7905 43.3795 43.7315C43.3612 43.6645 43.4403 43.6799 43.4676 43.6436C44.1985 42.9122 44.906 42.1454 45.4736 41.2744C46.184 40.1513 46.6279 38.8711 46.8669 37.5644C47.2676 35.3355 47.0472 32.9721 46.1135 30.9027Z" fill="#FF5757"/>
<path d="M43.8951 33.623C44.3228 33.037 44.7691 32.4648 45.1993 31.8804C45.5459 32.7071 45.742 33.5901 45.8803 34.4743C46.0226 35.487 46.101 36.5305 45.891 37.5399C45.6432 38.8447 45.2434 40.1399 44.5381 41.2704C43.9331 42.2509 43.1043 43.0757 42.178 43.7457C41.5465 44.2225 40.8631 44.6247 40.152 44.9659C40.5129 44.157 40.7369 43.2934 40.8908 42.4218C39.7027 43.0278 38.5796 43.7718 37.331 44.252C36.5485 44.5573 35.7222 44.7501 34.8852 44.8085C33.843 44.8866 32.7957 44.771 31.7745 44.5613C31.0664 44.4147 30.3733 44.2044 29.6825 43.991C30.9512 44.0107 32.2229 43.9919 33.4855 43.852C34.3252 43.7567 35.1618 43.6138 35.9754 43.3789C36.82 43.1342 37.6433 42.7923 38.3787 42.3022C39.2223 41.7451 39.9316 40.9786 40.4092 40.0803C40.6573 39.612 40.8668 39.1171 40.9695 38.5941C41.1583 37.6453 41.096 36.6575 40.8683 35.7216C40.7582 35.2783 40.6108 34.8436 40.4126 34.4325C40.8795 33.7186 41.3809 33.0287 41.8931 32.3477C42.2589 33.35 42.5455 34.3848 42.6979 35.4434C42.8572 36.5311 42.8745 37.6438 42.7082 38.7321C42.5948 39.4842 42.3929 40.2223 42.1099 40.9273C42.1239 40.9568 42.1379 40.9863 42.1522 41.0162C42.1898 41.0232 42.2278 41.0272 42.2668 41.0278C42.6073 40.8787 42.8526 40.5814 43.0703 40.2878C43.5202 39.6609 43.8623 38.9609 44.141 38.2411C44.3888 37.5728 44.598 36.873 44.6004 36.1533C44.5761 35.6546 44.4946 35.1587 44.3678 34.6763C44.262 34.3061 44.1368 33.9274 43.8951 33.623Z" fill="#FF5757"/>
<path d="M34.5815 48.4072C34.8919 48.56 35.1825 48.7586 35.4236 49.0098C35.783 49.3769 36.0259 49.8691 36.0572 50.388C36.0946 50.935 35.9061 51.4746 35.6139 51.9283C35.4714 52.1605 35.2853 52.3594 35.1163 52.5712H35.105C35.1716 52.3938 35.1321 52.1971 35.0515 52.032C34.9299 51.7792 34.7408 51.5677 34.5426 51.3737C34.2142 51.0617 33.8473 50.789 33.45 50.5731C33.8269 49.8509 34.2042 49.129 34.5815 48.4072Z" fill="#FF5757"/>
<defs>
<clipPath id="clip0_14_4">
<rect width="22.9963" height="41.2347" fill="white" transform="translate(114.565 14.8106)"/>
</clipPath>
</defs>
</svg>
