<svg width="17" height="18" viewBox="0 0 17 18" fill="none" xmlns="http://www.w3.org/2000/svg">
<path d="M13.0232 13.9612C13.1172 14.3116 13.1312 14.6789 13.0643 15.0355C12.9974 15.3922 12.8512 15.7289 12.6368 16.0204C12.2877 16.5022 11.7839 16.8471 11.211 16.9966C10.5532 17.1773 9.8518 17.0963 9.25157 16.7705C8.65134 16.4446 8.19816 15.8988 7.98565 15.2457C7.19629 15.45 6.40472 15.6498 5.61591 15.8579C5.31367 15.9568 4.9908 15.9728 4.68039 15.9043C4.36998 15.8359 4.0832 15.6854 3.84951 15.4683C3.60563 15.2516 3.43485 14.9635 3.36095 14.6443C3.28704 14.3251 3.31369 13.9906 3.43717 13.6874C3.69054 13.0351 3.96102 12.389 4.20997 11.7351C4.25263 11.6167 4.25955 11.4883 4.22985 11.3661C3.96599 10.376 3.63258 9.40091 3.42944 8.39857C3.2113 7.46003 3.28241 6.47672 3.63326 5.58C3.98411 4.68328 4.59799 3.91585 5.39291 3.38022C5.44798 3.35193 5.49035 3.30362 5.51145 3.24504C5.53256 3.18647 5.53084 3.122 5.50662 3.06466C5.43891 2.85228 5.41473 2.62823 5.43556 2.40613C5.45639 2.18404 5.52178 1.96853 5.62777 1.7727C5.73377 1.57688 5.87815 1.40482 6.05213 1.26699C6.22612 1.12917 6.42609 1.02845 6.63988 0.970948C6.85682 0.901684 7.08519 0.876364 7.31187 0.89645C7.53855 0.916536 7.75907 0.981631 7.9607 1.08798C8.16233 1.19434 8.3411 1.33984 8.48672 1.51614C8.63235 1.69243 8.74196 1.89603 8.80924 2.1152C8.82294 2.20715 8.86949 2.29088 8.94014 2.35063C9.0108 2.41039 9.10069 2.44206 9.19288 2.43967C10.2043 2.55477 11.1582 2.97273 11.9318 3.63964C12.7053 4.30656 13.2629 5.19184 13.5327 6.18131C13.7778 7.06231 14.0212 7.94388 14.2729 8.82266C14.3004 8.91309 14.3535 8.9934 14.4258 9.05362C15.0176 9.5239 15.6248 9.97471 16.2088 10.4544C16.5353 10.7179 16.7446 11.1013 16.7908 11.5203C16.8369 11.9393 16.7162 12.3597 16.455 12.689C16.2296 12.9857 15.9117 13.1972 15.5525 13.2895C14.762 13.5015 13.085 13.9417 13.0232 13.9612ZM9.68029 14.8111C9.71537 14.9276 9.77427 15.0354 9.8532 15.1275C9.93212 15.2197 10.0293 15.2941 10.1385 15.3461C10.2477 15.3981 10.3666 15.4264 10.4873 15.4292C10.608 15.4321 10.728 15.4094 10.8395 15.3626C11.0305 15.2973 11.188 15.1582 11.2774 14.9759C11.3667 14.7936 11.3805 14.5829 11.3159 14.3903L9.68029 14.8111Z" fill="#FDB237"/>
<path d="M12.2355 0.446162C12.6396 0.495101 13.029 0.629363 13.3781 0.840195C13.936 1.16904 14.4194 1.6118 14.7976 2.14008C15.1757 2.66835 15.4402 3.27049 15.574 3.90786C15.5936 4.01547 15.5914 4.12598 15.5675 4.23272C15.5437 4.33946 15.4987 4.44023 15.4352 4.52897C15.3717 4.61772 15.2911 4.6926 15.1982 4.74913C15.1052 4.80565 15.002 4.84264 14.8945 4.85788C14.6776 4.90424 14.4513 4.86436 14.2629 4.74655C14.0745 4.62875 13.9385 4.44214 13.8832 4.22565C13.7202 3.57967 13.3751 2.99512 12.8896 2.54266C12.6338 2.3131 12.3232 2.15449 11.9882 2.0824C11.7824 2.04788 11.5971 1.93629 11.4694 1.76995C11.3416 1.60361 11.2809 1.39479 11.2993 1.18525C11.3323 0.964862 11.4477 0.765548 11.6217 0.628137C11.7958 0.490725 12.0154 0.425621 12.2355 0.446162Z" fill="#FDB237"/>
<path d="M0.289675 6.1713C0.261799 5.19426 0.605633 4.24347 1.25071 3.5138C1.35655 3.3576 1.50014 3.23117 1.66791 3.14645C1.83567 3.06173 2.02207 3.02152 2.20953 3.02961C2.37179 3.03829 2.52772 3.09602 2.65698 3.19529C2.78625 3.29455 2.88289 3.43075 2.93432 3.58616C2.9944 3.73202 3.00655 3.89346 2.969 4.0468C2.93145 4.20014 2.84618 4.33732 2.72566 4.43823C2.4739 4.66731 2.27918 4.95295 2.15729 5.27203C2.0354 5.59111 1.98975 5.93465 2.02406 6.27482C2.04591 6.59772 2.09599 6.91805 2.17366 7.23208C2.20499 7.33966 2.21467 7.45245 2.20215 7.56386C2.18963 7.67526 2.15515 7.78303 2.10074 7.88081C2.04633 7.97859 1.9731 8.06443 1.88533 8.13328C1.79756 8.20212 1.69703 8.25258 1.58964 8.28171C1.48011 8.31652 1.36473 8.3286 1.25045 8.31721C1.13617 8.30582 1.02535 8.2712 0.924707 8.21545C0.824061 8.15969 0.73566 8.08395 0.664845 7.9928C0.594031 7.90165 0.542281 7.79698 0.512695 7.6851C0.396223 7.18978 0.328313 6.68333 0.239441 6.18244L0.289675 6.1713Z" fill="#FDB237"/>
</svg>
