<svg width="17" height="17" viewBox="0 0 17 17" fill="none" xmlns="http://www.w3.org/2000/svg">
<path d="M13.1288 13.6675C13.2236 14.0179 13.2377 14.3852 13.1702 14.7418C13.1028 15.0985 12.9554 15.4352 12.7392 15.7268C12.3872 16.2085 11.8792 16.5535 11.3016 16.703C10.6384 16.8836 9.93121 16.8027 9.32601 16.4768C8.72082 16.151 8.26391 15.6051 8.04964 14.9521C7.25376 15.1563 6.45565 15.3561 5.66033 15.5643C5.35559 15.6631 5.03005 15.6792 4.71707 15.6107C4.4041 15.5422 4.11496 15.3918 3.87933 15.1747C3.63344 14.9579 3.46125 14.6699 3.38673 14.3506C3.31222 14.0314 3.33909 13.6969 3.46359 13.3937C3.71905 12.7414 3.99176 12.0952 4.24277 11.4413C4.28578 11.323 4.29276 11.1946 4.26281 11.0723C3.99678 10.0822 3.66061 9.10707 3.45579 8.1047C3.23585 7.16613 3.30755 6.18279 3.66129 5.28605C4.01504 4.3893 4.63399 3.62184 5.43548 3.0862C5.49101 3.05791 5.53372 3.0096 5.555 2.95102C5.57628 2.89245 5.57455 2.82798 5.55013 2.77064C5.48186 2.55825 5.45749 2.33419 5.47849 2.11209C5.49949 1.88999 5.56541 1.67447 5.67228 1.47864C5.77915 1.28281 5.92473 1.11075 6.10015 0.972915C6.27557 0.835083 6.47719 0.73436 6.69275 0.67686C6.91148 0.607595 7.14174 0.582274 7.37029 0.60236C7.59885 0.622447 7.82119 0.687543 8.02448 0.793898C8.22778 0.900254 8.40802 1.04577 8.55485 1.22207C8.70168 1.39836 8.8122 1.60197 8.88003 1.82115C8.89384 1.9131 8.94078 1.99683 9.01201 2.05659C9.08325 2.11634 9.17389 2.14801 9.26684 2.14562C10.2866 2.26073 11.2484 2.6787 12.0283 3.34563C12.8083 4.01257 13.3705 4.89788 13.6425 5.88737C13.8896 6.7684 14.1351 7.64999 14.3889 8.5288C14.4165 8.61923 14.4701 8.69955 14.543 8.75977C15.1396 9.23006 15.7519 9.68088 16.3407 10.1606C16.6699 10.4241 16.8809 10.8075 16.9275 11.2265C16.974 11.6456 16.8523 12.066 16.5889 12.3952C16.3617 12.6919 16.0411 12.9035 15.679 12.9957C14.8825 13.2039 14.085 13.407 13.2857 13.6124C13.2384 13.6302 13.1911 13.648 13.1288 13.6675ZM15.1842 11.4112C15.0962 11.3394 15.0428 11.2932 14.9871 11.2504C14.4629 10.8458 13.9419 10.4361 13.4121 10.0382C13.0636 9.78276 12.8146 9.41432 12.7075 8.99576C12.4687 8.11194 12.1988 7.23703 11.9706 6.35043C11.8361 5.86068 11.5977 5.40563 11.2716 5.01623C10.9456 4.62683 10.5395 4.3122 10.081 4.09375C9.62247 3.87529 9.12229 3.75813 8.61447 3.75023C8.10664 3.74232 7.60307 3.84386 7.13799 4.04794C6.38042 4.3554 5.76425 4.93359 5.40927 5.67008C5.05429 6.40658 4.98588 7.24876 5.21731 8.03291C5.49281 8.93954 5.72989 9.85786 5.98869 10.7695C6.10135 11.1465 6.07972 11.551 5.92748 11.9138C5.78945 12.25 5.65273 12.5867 5.5173 12.924C5.37983 13.2651 5.24346 13.6074 5.09096 13.9886L15.1842 11.4112ZM9.75884 14.5174C9.79421 14.6339 9.85359 14.7417 9.93317 14.8339C10.0127 14.926 10.1107 15.0005 10.2209 15.0524C10.331 15.1044 10.4508 15.1327 10.5725 15.1356C10.6942 15.1384 10.8152 15.1157 10.9276 15.0689C11.1202 15.0037 11.279 14.8646 11.3691 14.6822C11.4592 14.4999 11.4731 14.2893 11.4079 14.0966L9.75884 14.5174Z" fill="black" fill-opacity="0.25"/>
<path d="M12.3346 0.152026C12.742 0.200966 13.1346 0.335232 13.4867 0.54607C14.0491 0.874922 14.5366 1.31769 14.9178 1.84599C15.2991 2.37428 15.5657 2.97644 15.7006 3.61382C15.7204 3.72144 15.7182 3.83195 15.6941 3.93869C15.6701 4.04543 15.6247 4.14621 15.5607 4.23495C15.4967 4.3237 15.4154 4.39859 15.3217 4.45512C15.228 4.51164 15.1239 4.54863 15.0155 4.56387C14.7968 4.61023 14.5687 4.57035 14.3787 4.45254C14.1887 4.33474 14.0516 4.14812 13.9959 3.93162C13.8315 3.28562 13.4836 2.70106 12.9941 2.24858C12.7361 2.01901 12.4229 1.86041 12.0852 1.78831C11.8777 1.75379 11.6909 1.6422 11.5621 1.47585C11.4333 1.30951 11.3721 1.10068 11.3906 0.891135C11.4239 0.670741 11.5402 0.471421 11.7157 0.334006C11.8912 0.196591 12.1126 0.131485 12.3346 0.152026Z" fill="black" fill-opacity="0.25"/>
<path d="M0.29009 5.87735C0.261984 4.90028 0.608658 3.94946 1.25906 3.21977C1.36577 3.06356 1.51055 2.93713 1.67971 2.85241C1.84886 2.76769 2.03679 2.72748 2.2258 2.73557C2.38941 2.74425 2.54662 2.80198 2.67695 2.90125C2.80729 3.00052 2.90473 3.13672 2.95657 3.29213C3.01716 3.438 3.02941 3.59944 2.99155 3.75278C2.95369 3.90613 2.86771 4.04331 2.7462 4.14423C2.49235 4.37331 2.29603 4.65897 2.17313 4.97805C2.05023 5.29714 2.0042 5.64069 2.0388 5.98087C2.06084 6.30378 2.11132 6.62412 2.18964 6.93816C2.22122 7.04574 2.23099 7.15854 2.21836 7.26995C2.20574 7.38136 2.17097 7.48912 2.11611 7.58691C2.06126 7.6847 1.98742 7.77053 1.89893 7.83938C1.81043 7.90823 1.70907 7.95869 1.60079 7.98782C1.49036 8.02263 1.37403 8.03471 1.2588 8.02332C1.14358 8.01193 1.03185 7.97731 0.930368 7.92155C0.82889 7.8658 0.739759 7.79005 0.668359 7.6989C0.59696 7.60775 0.544783 7.50307 0.514952 7.39119C0.397518 6.89586 0.329047 6.38939 0.239441 5.88848L0.29009 5.87735Z" fill="black" fill-opacity="0.25"/>
</svg>
