<svg xmlns="http://www.w3.org/2000/svg" width="30" height="29.903" viewBox="0 0 30 29.903">
  <g id="notification_icon" data-name="notification icon" transform="translate(0)">
    <path id="Path_798" data-name="Path 798" d="M-305.344,133.226a4.319,4.319,0,0,1-.7,3.7,4.638,4.638,0,0,1-2.583,1.754,4.817,4.817,0,0,1-5.843-3.146c-1.43.367-2.864.726-4.293,1.1a3.245,3.245,0,0,1-3.2-.7,2.832,2.832,0,0,1-.747-3.2c.459-1.172.949-2.333,1.4-3.508a1.144,1.144,0,0,0,.036-.663c-.478-1.779-1.082-3.531-1.45-5.332a8.51,8.51,0,0,1,3.557-9.017.442.442,0,0,0,.206-.567,2.957,2.957,0,0,1,2.053-3.762,3.126,3.126,0,0,1,3.93,2.056.685.685,0,0,0,.695.583,9.227,9.227,0,0,1,7.862,6.723c.444,1.583.885,3.167,1.341,4.746a.867.867,0,0,0,.277.415c1.072.845,2.172,1.655,3.23,2.517a2.857,2.857,0,0,1,.446,4.015,2.989,2.989,0,0,1-1.635,1.079c-1.431.374-2.864.739-4.3,1.108C-305.147,133.159-305.232,133.191-305.344,133.226Zm3.693-4.054c-.158-.129-.254-.212-.354-.289-.942-.727-1.878-1.463-2.83-2.178a3.353,3.353,0,0,1-1.266-1.873c-.429-1.588-.914-3.16-1.324-4.753a6.356,6.356,0,0,0-8.683-4.137,5.919,5.919,0,0,0-3.451,7.16c.495,1.629.921,3.279,1.386,4.917a3.054,3.054,0,0,1-.11,2.056q-.372.906-.737,1.815c-.247.613-.492,1.228-.766,1.913Zm-9.748,5.581a1.566,1.566,0,0,0,2.1.991,1.378,1.378,0,0,0,.863-1.747Z" transform="translate(328.502 -108.942)" fill="#fff"/>
    <path id="Path_799" data-name="Path 799" d="M-166.567,101.05a5.247,5.247,0,0,1,2.07.708,8.4,8.4,0,0,1,3.978,5.512,1.458,1.458,0,0,1-1.231,1.707,1.558,1.558,0,0,1-1.832-1.136,6.2,6.2,0,0,0-1.8-3.024,3.581,3.581,0,0,0-1.633-.827,1.5,1.5,0,0,1-1.248-1.612A1.569,1.569,0,0,1-166.567,101.05Z" transform="translate(188.298 -101.05)" fill="#fff"/>
    <path id="Path_800" data-name="Path 800" d="M-381.937,156.136a6.879,6.879,0,0,1,1.741-4.775,2,2,0,0,1,1.737-.87,1.466,1.466,0,0,1,1.313,1,1.328,1.328,0,0,1-.378,1.531,3.912,3.912,0,0,0-1.271,3.3,9.891,9.891,0,0,0,.271,1.72,1.512,1.512,0,0,1-1.058,1.886,1.54,1.54,0,0,1-1.951-1.072c-.211-.89-.334-1.8-.495-2.7Z" transform="translate(382.027 -145.849)" fill="#fff"/>
  </g>
</svg>
