<?xml version="1.0" encoding="utf-8"?>
<!-- Generator: Adobe Illustrator 23.1.0, SVG Export Plug-In . SVG Version: 6.00 Build 0)  -->
<svg version="1.1" id="Layer_1" xmlns="http://www.w3.org/2000/svg" xmlns:xlink="http://www.w3.org/1999/xlink" x="0px" y="0px"
	 viewBox="0 0 96 96" style="enable-background:new 0 0 96 96;" xml:space="preserve">
<path style="fill:#D7F2EC;" d="M67.4,0H27.9C13.3,0.9,0.7,13.5,0,28.2v39.4C0.6,82.4,13.5,95.4,28.3,96h38.4
	C82.2,96,96,82.2,96,66.7V27.9C95.1,13.2,82.2,0.5,67.4,0z"/>
<g>
	<path style="fill:#1DAD8D;" d="M22.6,32.3c-0.1-2.8,2.8-4,5.1-4c0.1,2.4,0.5,5.2,3.4,5.6c2.9-0.1,3.7-3.1,3.8-5.5
		c6.7,0.1,13.4,0,20.1,0c0.2,2.4,1.1,5.3,4,5.4c2.8-0.5,3.3-3.3,3.4-5.6c2.1,0.1,4.5,0.7,5,3.1c0.3,5,0,10,0.1,15
		c-0.9,0-2.8,0-3.7,0c0-2.3,0-4.7,0.1-7c-12.6-0.1-25.1,0-37.7,0c0.1,8.2,0,16.5,0.1,24.7c6.9,0,13.7,0,20.6,0c0,0.9,0,2.7,0,3.6
		c-6.9,0-13.9,0.1-20.8,0c-2.2,0-3.8-2.1-3.5-4.2C22.6,52.9,22.6,42.6,22.6,32.3z"/>
	<path style="fill:#1DAD8D;" d="M29.5,42.7c2.4,0,4.8,0,7.1,0c0,2.4,0,4.9-0.1,7.3c-2.4-0.1-4.8-0.1-7.1-0.2
		C29.5,47.4,29.5,45.1,29.5,42.7z"/>
	<path style="fill:#1DAD8D;" d="M39.7,42.6c2.4,0,4.8,0,7.2,0.1c-0.1,2.4-0.1,4.8,0,7.1c-2.4,0-4.7,0-7.1,0.1
		C39.8,47.5,39.8,45.1,39.7,42.6z"/>
	<path style="fill:#1DAD8D;" d="M50,42.7c2.4,0,4.8,0,7.2,0c0,2.4,0,4.8-0.1,7.3c-2.4,0-4.8,0-7.2,0C50,47.5,50,45.1,50,42.7z"/>
	<g>
		<path style="fill:#1DAD8D;" d="M50.8,68.5c-3.1-8,2.8-17.8,11.4-18.7c7.9-1.3,15.7,5.5,15.6,13.4c0.7,7.2-4.9,13.6-11.7,15H62
			C56.9,77.1,52.3,73.6,50.8,68.5z M61.5,53.8c-4.6,1.1-8,5.7-7.6,10.4c-0.1,5.4,4.9,10.4,10.3,10.1c5.7,0.1,10.7-5.5,9.9-11.2
			C74.1,57,67.3,52,61.5,53.8z"/>
	</g>
	<path style="fill:#1DAD8D;" d="M29.5,53.1c2.3,0,4.7,0,7.1,0.1c0,2.4,0,4.8,0,7.2c-2.4,0-4.7,0-7.1,0C29.5,58,29.5,55.5,29.5,53.1z
		"/>
	<path style="fill:#1DAD8D;" d="M39.8,53.1c2.3,0,4.7,0,7,0c0,2.4,0,4.9,0.1,7.3c-2.4,0-4.7,0-7.1,0C39.8,58,39.8,55.5,39.8,53.1z"
		/>
	<path style="fill:#1DAD8D;" d="M60.6,57.6c1-1.2,2-1.2,3.2-0.2c0.5,2.1,0.2,4.3,0.2,6.5c2,0,4-0.1,6.1,0.1c1.5,0.8,1.1,2.5,0,3.3
		c-2,0.3-4,0.2-6,0.2c-1.2-0.2-3.5,0.4-3.6-1.5C60.3,63.3,60.2,60.4,60.6,57.6z"/>
	<path style="fill:#1DAD8D;" d="M31.3,31.9L31.3,31.9c-1,0-1.8-0.8-1.8-1.8v-7.6c0-1,0.8-1.8,1.8-1.8h0c1,0,1.8,0.8,1.8,1.8v7.6
		C33.1,31.1,32.3,31.9,31.3,31.9z"/>
	<path style="fill:#1DAD8D;" d="M58.8,32.2L58.8,32.2c-1,0-1.8-0.8-1.8-1.8v-7.6c0-1,0.8-1.8,1.8-1.8l0,0c1,0,1.8,0.8,1.8,1.8v7.6
		C60.7,31.4,59.8,32.2,58.8,32.2z"/>
</g>
</svg>
