<svg width="74" height="73" viewBox="0 0 74 73" fill="none" xmlns="http://www.w3.org/2000/svg">
<g opacity="0.15" clip-path="url(#clip0_3482_3342)">
<path d="M15.5375 38.536C15.5375 26.6779 25.1848 17.0307 37.0428 17.0307C48.9008 17.0307 58.5482 26.6779 58.5482 38.536C58.5482 50.394 48.9007 60.0414 37.0428 60.0414C25.1849 60.0414 15.5375 50.394 15.5375 38.536ZM18.1889 38.5358C18.1889 48.932 26.6467 57.3897 37.0428 57.3897C47.4389 57.3897 55.8967 48.932 55.8967 38.5358C55.8967 28.1397 47.4389 19.6821 37.0428 19.6821C26.6465 19.6821 18.1889 28.1398 18.1889 38.5358Z" fill="#1ABC9C" stroke="#F5F8FE" stroke-width="0.2"/>
<path d="M37.0419 24.6726C29.3982 24.6726 23.1797 30.8911 23.1797 38.5348C23.1797 46.1785 29.3983 52.3971 37.0419 52.3971C44.6854 52.3971 50.9041 46.1785 50.9041 38.5348C50.9041 30.8911 44.6855 24.6726 37.0419 24.6726ZM37.0419 50.5674C30.407 50.5674 25.0092 45.1695 25.0092 38.5347C25.0092 31.9 30.4069 26.5021 37.0419 26.5021C43.6767 26.5021 49.0745 31.8999 49.0745 38.5347C49.0745 45.1695 43.6767 50.5674 37.0419 50.5674Z" fill="#1ABC9C"/>
<path d="M37.0419 24.6726C29.3982 24.6726 23.1797 30.8911 23.1797 38.5348C23.1797 46.1785 29.3983 52.3971 37.0419 52.3971C44.6854 52.3971 50.9041 46.1785 50.9041 38.5348C50.9041 30.8911 44.6855 24.6726 37.0419 24.6726ZM37.0419 50.5674C30.407 50.5674 25.0092 45.1695 25.0092 38.5347C25.0092 31.9 30.4069 26.5021 37.0419 26.5021C43.6767 26.5021 49.0745 31.8999 49.0745 38.5347C49.0745 45.1695 43.6767 50.5674 37.0419 50.5674Z" stroke="#F5F8FE"/>
<path d="M60.7131 12.0596L60.7131 12.0595L60.7128 12.0576C60.7091 12.0273 60.7004 11.9567 60.7256 11.8791L60.7131 12.0596ZM60.7131 12.0596L64.4152 42.2113L64.4274 42.3106L64.5267 42.2984L68.4856 41.8123L68.5849 41.8001M60.7131 12.0596L68.5849 41.8001M68.5849 41.8001L68.5727 41.7009M68.5849 41.8001L68.5727 41.7009M68.5727 41.7009L66.1081 21.6287C65.8306 19.3685 65.1207 17.2174 63.9983 15.2358M68.5727 41.7009L60.9349 11.6574C60.9989 11.6272 61.0593 11.6136 61.1157 11.6136C61.2649 11.6136 61.354 11.7082 61.3847 11.7408L61.3859 11.7421L61.3861 11.7422L61.5104 11.8734C62.4724 12.8882 63.3093 14.0194 63.9983 15.2358M63.9983 15.2358L63.913 15.2841L63.9983 15.2358C63.9983 15.2358 63.9983 15.2358 63.9983 15.2358ZM66.3052 13.9291L66.3052 13.9291C67.6005 16.2157 68.4194 18.6975 68.7396 21.3056L73.364 58.9669C73.4537 59.6975 73.3715 60.4102 73.1491 61.0644L73.2431 61.0963L73.1491 61.0644C73.0997 61.2099 73.0434 61.3523 72.9806 61.4916C72.9178 61.6308 72.8484 61.7665 72.7727 61.8986C72.0538 63.1536 70.7737 64.0667 69.2318 64.2561C69.0365 64.2801 68.842 64.2917 68.65 64.2917C66.4365 64.292 64.4954 62.7395 64.0185 60.5665L63.9208 60.588L64.0185 60.5665C63.9866 60.4216 63.9614 60.274 63.9429 60.1238L58.0811 12.3828L58.0811 12.3828C57.918 11.0546 58.5938 9.82952 59.8043 9.25907C61.0151 8.68848 62.3898 8.94695 63.3103 9.91807L63.3823 9.84978L63.3103 9.91807L63.4347 10.0494L63.5073 9.9806L63.4347 10.0494C64.5444 11.2201 65.5102 12.5254 66.3052 13.9291ZM68.8389 21.2935C68.5171 18.6723 67.694 16.1779 66.3922 13.8798L73.4633 58.9547L68.8389 21.2935ZM70.6026 60.3112L70.6027 60.3111C70.7265 59.9968 70.7764 59.6481 70.7323 59.2902L68.9202 44.5312L68.908 44.4319L68.8087 44.4441L64.8498 44.9302L64.7505 44.9424L64.7627 45.0416L66.5749 59.8006C66.7156 60.9469 67.7621 61.7658 68.909 61.6241C69.6973 61.5273 70.3299 61.0019 70.6026 60.3112Z" fill="#1ABC9C" stroke="#F5F8FE" stroke-width="0.2"/>
<path d="M18.0714 10.3259L18.0714 10.3259C17.3444 10.2363 16.6832 10.7535 16.594 11.4803L15.2973 22.0413L15.198 22.0291L15.2973 22.0413C15.0892 23.7353 13.7197 25.0136 12.0257 25.1169L12.0166 25.1175L12.0075 25.1164L11.0623 25.0003L10.9631 24.9881L10.9752 24.8889L12.6806 10.9999C12.7698 10.2733 12.2531 9.61169 11.5262 9.52233L11.5262 9.52232C10.7994 9.43232 10.1381 9.94992 10.0488 10.6767L8.34343 24.5657L8.33125 24.6649L8.232 24.6527L7.286 24.5367L7.27687 24.5355L7.2681 24.5328C5.6497 24.0225 4.63046 22.4509 4.8384 20.7571L4.92372 20.7676L4.8384 20.7571L6.13514 10.1962C6.22437 9.46956 5.70758 8.80797 4.98077 8.71861L4.98066 8.7186C4.25422 8.62848 3.59258 9.1462 3.50334 9.87298L2.20659 20.4339C1.88736 23.0344 3.21442 25.472 5.45289 26.6411L5.51641 26.6743L5.5054 26.7451L0.654897 57.9608L0.654728 57.9618L0.654722 57.9618L0.653301 57.9707C0.460333 59.2784 0.795104 60.5772 1.59618 61.6286C2.39722 62.68 3.5604 63.3476 4.87124 63.5086L18.0714 10.3259ZM18.0714 10.3259C18.7982 10.4153 19.315 11.0768 19.226 11.8035L17.9292 22.3645L18.0285 22.3767L17.9292 22.3645C17.61 24.9652 15.7323 27.0094 13.2772 27.6021L13.2076 27.6189L13.2011 27.6902L10.3342 59.1254C10.2136 60.4483 9.57812 61.6355 8.54425 62.4696L8.60704 62.5474L8.54425 62.4696C7.66912 63.1756 6.60723 63.549 5.50255 63.549C5.30203 63.549 5.09994 63.5367 4.89738 63.5118L4.89718 63.5118L4.87142 63.5086L18.0714 10.3259ZM3.70535 60.0219C4.06943 60.5 4.59917 60.804 5.19567 60.8771L5.19583 60.8771L5.22144 60.8802C5.22148 60.8802 5.22152 60.8803 5.22157 60.8803C5.82052 60.9547 6.40959 60.7852 6.87949 60.406C7.34952 60.0267 7.63882 59.4862 7.69375 58.8848L7.59417 58.8757L7.69375 58.8848L10.5372 27.705L10.546 27.6084L10.4498 27.5966L9.32556 27.4586L9.32565 27.4579H9.31897L8.19763 27.3202L8.1015 27.3084L8.08662 27.4041L3.27589 58.3618L3.27575 58.3627C3.18947 58.9556 3.34204 59.5451 3.70535 60.0219ZM3.70535 60.0219L3.78159 59.9638L3.70537 60.0219C3.70536 60.0219 3.70535 60.0219 3.70535 60.0219ZM8.14493 24.5413L7.29817 24.4374L9.94956 10.6645L8.25636 24.4542L8.24418 24.5535L8.14493 24.5413Z" fill="#1ABC9C" stroke="#F5F8FE" stroke-width="0.2"/>
</g>
<defs>
<clipPath id="clip0_3482_3342">
<rect width="73" height="73" fill="white" transform="translate(0.5)"/>
</clipPath>
</defs>
</svg>
