<?xml version="1.0" encoding="UTF-8" ?>
<!DOCTYPE svg PUBLIC "-//W3C//DTD SVG 1.1//EN" "http://www.w3.org/Graphics/SVG/1.1/DTD/svg11.dtd">
<svg width="96pt" height="96pt" viewBox="0 0 96 96" version="1.1" xmlns="http://www.w3.org/2000/svg">
<g id="#edeaffff">
<path fill="#edeaff" opacity="1.00" d=" M 28.63 0.00 L 67.27 0.00 C 82.35 0.38 95.57 13.55 96.00 28.63 L 96.00 66.35 C 96.17 81.90 82.55 95.79 67.02 96.00 L 29.10 96.00 C 13.83 95.85 0.37 82.50 0.00 67.26 L 0.00 28.74 C 0.37 13.65 13.56 0.44 28.63 0.00 M 30.33 24.52 C 26.47 25.85 23.75 29.83 24.05 33.93 C 24.08 44.32 24.01 54.71 24.08 65.10 C 23.99 69.75 28.13 74.28 32.90 73.96 C 43.63 73.95 54.35 73.93 65.08 73.96 C 69.89 74.42 74.45 69.88 73.98 65.07 C 73.93 54.35 73.93 43.64 73.98 32.92 C 74.33 27.68 69.03 23.55 64.03 24.05 C 52.81 24.35 41.49 23.45 30.33 24.52 Z" />
<path fill="#edeaff" opacity="1.00" d=" M 31.63 37.39 C 40.54 27.37 57.77 27.29 66.60 37.45 C 63.98 40.70 61.39 43.97 58.77 47.22 C 52.31 47.19 45.85 47.31 39.40 47.14 C 36.83 43.87 34.20 40.65 31.63 37.39 M 49.09 45.29 C 50.79 45.26 52.49 45.24 54.19 45.24 C 54.99 41.44 56.03 37.70 56.85 33.91 C 53.92 37.46 51.82 41.59 49.09 45.29 Z" />
</g>
<g id="#927dfcff">
<path fill="#927dfc" opacity="1.00" d=" M 30.33 24.52 C 41.49 23.45 52.81 24.35 64.03 24.05 C 69.03 23.55 74.33 27.68 73.98 32.92 C 73.93 43.64 73.93 54.35 73.98 65.07 C 74.45 69.88 69.89 74.42 65.08 73.96 C 54.35 73.93 43.63 73.95 32.90 73.96 C 28.13 74.28 23.99 69.75 24.08 65.10 C 24.01 54.71 24.08 44.32 24.05 33.93 C 23.75 29.83 26.47 25.85 30.33 24.52 M 31.63 37.39 C 34.20 40.65 36.83 43.87 39.40 47.14 C 45.85 47.31 52.31 47.19 58.77 47.22 C 61.39 43.97 63.98 40.70 66.60 37.45 C 57.77 27.29 40.54 27.37 31.63 37.39 Z" />
<path fill="#927dfc" opacity="1.00" d=" M 49.09 45.29 C 51.82 41.59 53.92 37.46 56.85 33.91 C 56.03 37.70 54.99 41.44 54.19 45.24 C 52.49 45.24 50.79 45.26 49.09 45.29 Z" />
</g>
</svg>
