<svg width="21" height="21" viewBox="0 0 21 21" fill="none" xmlns="http://www.w3.org/2000/svg">
<path d="M18.2101 0.656733C18.6002 0.451655 19.0423 0.344194 19.4832 0.35814C19.8105 0.365932 20.1391 0.346245 20.466 0.367163C20.742 0.41064 20.9586 0.650581 21 0.923335V1.08289C20.9684 1.38722 20.7092 1.64726 20.402 1.66613C20.055 1.6813 19.7068 1.66449 19.3594 1.67269C18.9517 1.69074 18.5633 1.9196 18.3405 2.26003C18.2167 2.44009 18.1617 2.65419 18.1096 2.86337C17.1901 6.31525 16.2684 9.76672 15.3489 13.219C15.1622 14.0643 14.3649 14.728 13.4958 14.7353C10.2957 14.7345 7.09611 14.7353 3.89607 14.7349C3.08396 14.7259 2.32189 14.1472 2.08687 13.3708C1.39043 11.0148 0.693574 8.65888 0 6.30212V6.13396C0.031582 5.87105 0.225586 5.63357 0.486445 5.57205C0.816621 5.4732 1.20053 5.68484 1.28666 6.02076C1.96957 8.33035 2.65084 10.6408 3.33334 12.9503C3.40758 13.2137 3.659 13.4187 3.93504 13.4216C7.09406 13.4237 10.2535 13.4208 13.4129 13.4228C13.6102 13.4302 13.8054 13.3404 13.9318 13.1891C14.0569 13.043 14.0835 12.8462 14.1344 12.6673C15.0564 9.20931 15.9785 5.75128 16.9009 2.29367C17.0859 1.59804 17.5703 0.98814 18.2101 0.656733Z" fill="#FF5757"/>
<path d="M8.42382 4.9012C8.70396 4.85034 9.00871 5.00579 9.1256 5.26706C9.20066 5.41348 9.18794 5.58206 9.18794 5.7412C9.18712 6.33264 9.18753 6.92408 9.18794 7.51553C9.84501 7.51676 10.5025 7.5143 11.1596 7.51676C11.3966 7.51881 11.63 7.65252 11.7379 7.86621C11.8646 8.10246 11.8302 8.41499 11.6481 8.61351C11.5254 8.7505 11.3429 8.83622 11.1575 8.82925C10.5009 8.82761 9.8446 8.82884 9.18794 8.82843C9.18712 9.48098 9.18753 10.1335 9.18794 10.7865C9.19738 11.0293 9.05792 11.268 8.84259 11.38C8.5764 11.5264 8.21382 11.4579 8.0231 11.22C7.92343 11.0995 7.87052 10.9432 7.87462 10.7869C7.87503 10.1344 7.87544 9.48139 7.87462 8.82843C7.21878 8.82884 6.56294 8.82761 5.9071 8.82925C5.63886 8.83991 5.37923 8.65863 5.29023 8.40679C5.19876 8.16849 5.26152 7.87974 5.44609 7.70297C5.57734 7.57254 5.76478 7.51183 5.94771 7.51553C6.59001 7.51594 7.23232 7.51594 7.87462 7.51553C7.87585 6.856 7.8738 6.19606 7.87544 5.53612C7.87175 5.22727 8.11867 4.94468 8.42382 4.9012Z" fill="#FF5757"/>
<path d="M5.35094 16.0605C6.02196 15.9892 6.71923 16.2344 7.19501 16.7139C7.5658 17.0757 7.80451 17.5687 7.8607 18.0834C7.92838 18.6617 7.76923 19.2659 7.41527 19.7294C6.99978 20.288 6.31646 20.6399 5.61878 20.642C5.11469 20.6559 4.60815 20.4935 4.20496 20.1908C3.71524 19.8307 3.38137 19.2671 3.30262 18.6642C3.20418 17.987 3.42772 17.2693 3.90227 16.7746C4.27674 16.3702 4.80215 16.1114 5.35094 16.0605ZM5.39483 17.38C5.04702 17.4456 4.74473 17.711 4.64137 18.0506C4.53842 18.3525 4.60528 18.7003 4.80256 18.9493C5.01749 19.2302 5.39155 19.3803 5.741 19.3163C6.26601 19.2392 6.65976 18.6835 6.54409 18.1626C6.4555 17.6482 5.90794 17.2676 5.39483 17.38Z" fill="#FF5757"/>
<path d="M11.9117 16.0606C12.5844 15.9888 13.2841 16.2349 13.7599 16.7169C14.1294 17.0778 14.3665 17.5696 14.4231 18.0827C14.4908 18.6602 14.3325 19.2639 13.9793 19.7274C13.5642 20.2869 12.8813 20.6392 12.1836 20.642C11.68 20.6564 11.1738 20.4948 10.7707 20.1929C10.2797 19.834 9.94542 19.2705 9.86544 18.6676C9.76618 17.9892 9.98972 17.2698 10.4651 16.7743C10.8387 16.3703 11.3637 16.1119 11.9117 16.0606ZM11.9585 17.3801C11.4806 17.4629 11.1148 17.9358 11.1583 18.4194C11.1841 18.789 11.4372 19.1298 11.7829 19.2623C12.1209 19.4013 12.5323 19.3222 12.7993 19.0744C13.07 18.8316 13.1947 18.4317 13.0868 18.081C12.9613 17.6061 12.4416 17.2759 11.9585 17.3801Z" fill="#FF5757"/>
</svg>
