<svg width="35" height="35" viewBox="0 0 35 35" fill="none" xmlns="http://www.w3.org/2000/svg">

    <path
        d="M26.4556 17.2804C26.1532 17.2804 25.9113 17.5223 25.9113 17.8247V22.7763C25.9113 24.1231 24.8145 25.2158 23.4718 25.2158H11.5282C10.1815 25.2158 9.08871 24.1191 9.08871 22.7763V17.7441C9.08871 17.4416 8.84677 17.1997 8.54435 17.1997C8.24194 17.1997 8 17.4416 8 17.7441V22.7763C8 24.7239 9.58468 26.3045 11.5282 26.3045H23.4718C25.4194 26.3045 27 24.7199 27 22.7763V17.8247C27 17.5263 26.7581 17.2804 26.4556 17.2804Z"
        fill="#FF5757" />
    <path
        d="M17.1169 21.9821C17.2218 22.0869 17.3629 22.1434 17.5 22.1434C17.6371 22.1434 17.7782 22.091 17.883 21.9821L21.3427 18.5224C21.5564 18.3087 21.5564 17.966 21.3427 17.7523C21.129 17.5385 20.7863 17.5385 20.5726 17.7523L18.0443 20.2845V9.24016C18.0443 8.93774 17.8024 8.6958 17.5 8.6958C17.1976 8.6958 16.9556 8.93774 16.9556 9.24016V20.2845L14.4234 17.7523C14.2097 17.5385 13.8669 17.5385 13.6532 17.7523C13.4395 17.966 13.4395 18.3087 13.6532 18.5224L17.1169 21.9821Z"
        fill="#FF5757" />
</svg>
