<svg width="35" height="35" viewBox="0 0 35 35" fill="none" xmlns="http://www.w3.org/2000/svg">
    <rect opacity="0.2" width="35" height="35" rx="10" fill="#959499" />
    <path
        d="M17.4459 8H18.5209C20.2542 8.20208 21.8501 9.32083 22.5626 10.925C23.1605 12.1646 22.973 13.5687 23.0001 14.8958C24.1542 15.9312 24.9813 17.3167 25.3146 18.8313C25.9126 21.3396 25.0896 24.1396 23.2042 25.9042C21.9584 27.1479 20.2396 27.8521 18.498 28H17.5042C15.7626 27.8542 14.0438 27.15 12.798 25.9062C10.9146 24.1458 10.0917 21.3521 10.6813 18.8458C11.0146 17.325 11.8438 15.9333 13.0001 14.8958C13.023 13.5208 12.8334 12.0583 13.5021 10.7917C14.2313 9.2625 15.7771 8.21875 17.4459 8ZM15.5792 10.15C14.4396 11.0604 14.1167 12.5958 14.2501 13.9854C16.5292 12.6687 19.4688 12.6771 21.7501 13.9833C21.8313 12.7917 21.6855 11.4917 20.8438 10.5729C19.5896 9.01875 17.0667 8.80833 15.5792 10.15ZM16.8376 14.3646C14.4251 14.8062 12.3813 16.7875 11.8938 19.1958C11.3605 21.5146 12.3417 24.0833 14.2521 25.4896C16.4292 27.1854 19.723 27.1479 21.8605 25.4021C23.8626 23.8625 24.7646 21.0292 23.9521 18.6271C23.0896 15.6917 19.8396 13.7187 16.8376 14.3646Z"
        fill="#959499" />
    <path
        d="M17.6542 18.7187C18.023 18.4187 18.6626 18.7582 18.623 19.2312C18.6209 20.1395 18.648 21.0478 18.6084 21.9541C18.4313 22.5187 17.5709 22.5207 17.3917 21.9562C17.348 21.1207 17.3876 20.2832 17.3709 19.4478C17.348 19.177 17.3938 18.8645 17.6542 18.7187Z"
        fill="#959499" />
</svg>
