<svg width="12" height="13" viewBox="0 0 12 13" fill="none" xmlns="http://www.w3.org/2000/svg">
<path d="M4.22031 0C3.98723 0 3.79828 0.181884 3.79828 0.40625C3.79828 0.630616 3.98723 0.8125 4.22031 0.8125H7.59657C7.82965 0.8125 8.0186 0.630616 8.0186 0.40625C8.0186 0.181884 7.82965 0 7.59657 0H4.22031ZM10.6827 1.56731C10.5179 1.40866 10.2507 1.40866 10.0859 1.56731C9.92105 1.72596 9.92105 1.98318 10.0859 2.14183L11.2795 3.29088C11.4444 3.44953 11.7116 3.44953 11.8764 3.29088C12.0412 3.13223 12.0412 2.87501 11.8764 2.71636L10.6827 1.56731ZM5.90844 3.25C5.67536 3.25 5.48641 3.43188 5.48641 3.65625V7.71875C5.48641 7.94312 5.67536 8.125 5.90844 8.125C6.14152 8.125 6.33047 7.94312 6.33047 7.71875V3.65625C6.33047 3.43188 6.14152 3.25 5.90844 3.25ZM5.90844 13C9.17158 13 11.8169 10.4536 11.8169 7.3125C11.8169 4.17138 9.17158 1.625 5.90844 1.625C2.6453 1.625 0 4.17138 0 7.3125C0 10.4536 2.6453 13 5.90844 13ZM5.90844 12.1875C3.11146 12.1875 0.844063 10.0049 0.844063 7.3125C0.844063 4.62011 3.11146 2.4375 5.90844 2.4375C8.70542 2.4375 10.9728 4.62011 10.9728 7.3125C10.9728 10.0049 8.70542 12.1875 5.90844 12.1875Z" fill="#959499"/>
</svg>
