<svg width="40" height="40" viewBox="0 0 40 40" fill="none" xmlns="http://www.w3.org/2000/svg">
    <path
        d="M0 20C0 10.5719 0 5.85786 2.92893 2.92893C5.85786 0 10.5719 0 20 0V0C29.4281 0 34.1421 0 37.0711 2.92893C40 5.85786 40 10.5719 40 20V20C40 29.4281 40 34.1421 37.0711 37.0711C34.1421 40 29.4281 40 20 40V40C10.5719 40 5.85786 40 2.92893 37.0711C0 34.1421 0 29.4281 0 20V20Z"
        fill="#D8FFF7" />
    <path
        d="M15.7143 21.4286C16.5033 21.4286 17.1429 20.789 17.1429 20C17.1429 19.211 16.5033 18.5714 15.7143 18.5714C14.9253 18.5714 14.2857 19.211 14.2857 20C14.2857 20.789 14.9253 21.4286 15.7143 21.4286ZM17.1429 24.2857C17.1429 25.0747 16.5033 25.7143 15.7143 25.7143C14.9253 25.7143 14.2857 25.0747 14.2857 24.2857C14.2857 23.4967 14.9253 22.8571 15.7143 22.8571C16.5033 22.8571 17.1429 23.4967 17.1429 24.2857ZM20 21.4286C20.789 21.4286 21.4286 20.789 21.4286 20C21.4286 19.211 20.789 18.5714 20 18.5714C19.211 18.5714 18.5714 19.211 18.5714 20C18.5714 20.789 19.211 21.4286 20 21.4286ZM21.4286 24.2857C21.4286 25.0747 20.789 25.7143 20 25.7143C19.211 25.7143 18.5714 25.0747 18.5714 24.2857C18.5714 23.4967 19.211 22.8571 20 22.8571C20.789 22.8571 21.4286 23.4967 21.4286 24.2857ZM24.2857 21.4286C25.0747 21.4286 25.7143 20.789 25.7143 20C25.7143 19.211 25.0747 18.5714 24.2857 18.5714C23.4967 18.5714 22.8571 19.211 22.8571 20C22.8571 20.789 23.4967 21.4286 24.2857 21.4286ZM30 13.5714C30 11.599 28.401 10 26.4286 10H13.5714C11.599 10 10 11.599 10 13.5714V26.4286C10 28.401 11.599 30 13.5714 30H26.4286C28.401 30 30 28.401 30 26.4286V13.5714ZM11.4286 15.7143H28.5714V26.4286C28.5714 27.612 27.612 28.5714 26.4286 28.5714H13.5714C12.388 28.5714 11.4286 27.612 11.4286 26.4286V15.7143ZM13.5714 11.4286H26.4286C27.612 11.4286 28.5714 12.388 28.5714 13.5714V14.2857H11.4286V13.5714C11.4286 12.388 12.388 11.4286 13.5714 11.4286Z"
        fill="#1ABC9C" />
</svg>
