<?xml version="1.0" encoding="utf-8"?>
<!-- Generator: Adobe Illustrator 23.1.0, SVG Export Plug-In . SVG Version: 6.00 Build 0)  -->
<svg version="1.1" id="Isolation_Mode" xmlns="http://www.w3.org/2000/svg" xmlns:xlink="http://www.w3.org/1999/xlink" x="0px"
	 y="0px" viewBox="0 0 246.6 410.2" style="enable-background:new 0 0 246.6 410.2;" xml:space="preserve">
<line style="fill:none;stroke:#AFD9EB;stroke-width:8;stroke-linecap:round;stroke-linejoin:round;stroke-miterlimit:10;stroke-dasharray:0,18;" x1="104.5" y1="362.6" x2="104.5" y2="-32.6"/>
<g>
	<g>
		<path style="fill:#AFE4E8;" d="M206.9,212.6C206.9,212.6,206.9,212.6,206.9,212.6c-0.3-0.3-0.5-0.6-0.8-0.9c0,0,0,0,0,0l0,0
			c0,0,0,0,0,0c0,0,0,0-0.1,0c0,0,0,0-0.1-0.1c-0.7-0.2-1.3-0.5-2-0.7c0,0,0,0,0.1,0c-1.3-0.4-2.7-0.7-4-0.9
			c-6-0.8-12.1-1.6-18.1-2.4c-2.8-0.4-5.6-0.7-8.4-0.8h0c-0.6,0-1.1-0.1-1.7-0.1c0,0,0,0,0,0c-0.2,0-0.3,0-0.5,0c-0.1,0-0.2,0-0.3,0
			c-0.1,0-0.1,0-0.2,0c-0.2,0-0.3,0-0.5,0c-0.5,0-1,0-1.5,0c-0.1,0-0.2,0-0.3,0c-0.1,0-0.3,0-0.4,0c-0.1,0-0.2,0-0.3,0
			c-0.5,0-1.1,0-1.6,0c-0.1,0-0.1,0-0.2,0c-0.2,0-0.3,0-0.5,0c0,0-0.1,0-0.1,0c-0.8,0-1.6,0-2.4,0.1c-2.6,0.1-5.2,0.1-7.9,0.1
			c-0.5,0-1,0-1.5,0c0,0,0,0,0,0c-0.1,0-0.2,0-0.4,0c-0.2,0-0.3,0-0.5,0c-0.2,0-0.3,0-0.5,0c0,0,0,0,0,0c-0.5,0-1,0.1-1.5,0.1
			c0,0,0,0-0.1,0c-0.3,0-0.6,0-1,0c-0.3,0-0.7,0-1,0c-8.5,1.8-9,3.6-10.7,6.9c-2.2,4.3-2.9,26.6-25.6,34.2
			c-22.7,7.5-31.1-26-42.8-20.7c-7.3,3.2-12.7,5.9-16.6,8.5c-2.4,1.5-4.7,3.3-7,5.1c-4.5,3.6-9.4,6.9-14.2,10
			c-2.4,1.6-4.8,3.1-7.1,4.9c-1.2,1-3.1,1.9-3.8,3.4c-0.9,1.8,0.2,4.3,0.7,6c0.9,3.2,2.1,6.4,3.2,9.5c2,5.6,4,11.5,6.5,16.9
			c1.5,3.4,3.8,5,7.6,4.9c8.2-0.4,15.7-4.5,23.1-8.3c10.2,27.4,17.9,64.4,18.7,75.9c1.1,14.1,20.5-2.3,39.8,18.5
			c19.3,20.8,19.1,22.3,38.7,17.1c19.6-5.2,13.6-32.2,20.2-42.8s22-12.8,26.4-21.3c4.1-7.9-17.9-44.9-24.1-81.2
			c5.4-1.4,10.8-2.5,16.3-3.5c4.8-0.9,9.3-1.2,10.1-8.2c0.8-6.9,0.9-14.4,0.3-21.7c0-0.1,0-0.2,0-0.4c0-1.5,0.1-3.5,0-5.4
			c-0.2-0.6-0.3-1.1-0.4-1.7C207.5,213.2,207.2,212.9,206.9,212.6z"/>
	</g>
	<g>
		<g>
			<path style="fill:none;" d="M185.8,340.9c-5.6,5.1-9.6,12.9-12.6,20c-3.1,7.3-4.3,15.4-4.4,23.5c0,0.8,0.2,4.2,0.5,8.2
				c7.2-10.2,4.9-27.7,9.9-35.7c6.5-10.6,22-12.8,26.4-21.3c0.7-1.3,0.6-3.5,0.1-6.3C198.4,330.8,191.3,335.9,185.8,340.9z"/>
		</g>
		<g>
			<path style="fill:none;" d="M121.7,251c9.3-5,14.5-15.3,17.8-25.7c1.8-5.5,3.4-11.2,4.3-17c-4.1,1.4-4.7,3.1-6,5.7
				c-2.2,4.3-2.9,26.6-25.6,34.2c-22.7,7.5-31.1-26-42.8-20.7c0,0,0,0-0.1,0C82.1,244.6,101.9,261.5,121.7,251z"/>
		</g>
		<g>
			<path style="fill:none;" d="M123.5,376c-7-7-13.5-10.6-22.7-12.2c-3.5-0.6-7.1-1.4-10.6-1.2c-3.3,0.2-6.4,1.2-9.5,2.1
				c1.6,13.1,20.7-2.6,39.7,18c11.7,12.6,16.2,18.1,22.3,19.3c-1.1-2-2.2-4.1-3.3-6.1C135.2,388.2,129.5,382,123.5,376z"/>
		</g>
		<g>
			<path style="fill:none;" d="M173.4,206.8c-3.5-0.2-7-0.3-10.4-0.1c-2.6,0.1-5.2,0.1-7.9,0.1c-2.2,0-4.3,0.3-6.5,0.3
				c-0.5,0.1-1.1,0.2-1.5,0.3c-1,8-3.4,15.8-6.1,23.1c-3.9,10.6-10.1,20.1-20.1,24.5c-20.9,9.2-41.1-8.5-54.1-26.3
				c-29.2,13.4-25.4,17.4-12.2,42.8c12.9,24.7,23.7,72.8,25.7,90c2.7-0.7,5.3-1.5,8-1.9c4.1-0.5,8.3,0.3,12.4,1
				c7,1.2,13.5,3.2,19.3,8.1c6.6,5.6,13.3,12.4,18.3,19.8c3,4.4,5.2,9.3,7.8,13.8c3.3-0.1,7.3-1,12.9-2.5c3-0.8,5.4-2.1,7.4-3.8
				c-0.3-3.9-0.5-7.7-0.5-11.6c0.1-8.4,1.3-16.7,4.4-24.2c3.4-8.3,8-17,14.6-22.5c5.8-4.9,12.5-9.9,20-11.3
				c-4.7-16.6-21.5-49.5-24.5-80.3C178.1,222,178,211,173.4,206.8z"/>
		</g>
		<g>
			<path style="fill:#8DC6CC;" d="M120.8,255c10-4.4,16.1-13.9,20.1-24.5c2.7-7.2,5.1-15.1,6.1-23.1c-1.2,0.3-2.3,0.6-3.2,0.9
				c-0.9,5.8-2.6,11.5-4.3,17c-3.4,10.3-8.5,20.7-17.8,25.7c-19.8,10.6-39.6-6.4-52.3-23.5c-0.9,0.4-1.8,0.8-2.7,1.2
				C79.7,246.5,99.9,264.2,120.8,255z"/>
		</g>
		<g>
			<path style="fill:#8DC6CC;" d="M120.1,368.7c-5.8-5-12.3-6.9-19.3-8.1c-4.1-0.7-8.3-1.5-12.4-1c-2.7,0.4-5.4,1.2-8,1.9
				c0.1,1,0.2,1.9,0.3,2.7c0,0.2,0,0.4,0.1,0.5c3.1-0.8,6.3-1.9,9.5-2.1c3.5-0.2,7.2,0.5,10.6,1.2c9.2,1.6,15.6,5.3,22.7,12.2
				c6.1,6,11.7,12.2,15.9,19.9c1.1,2,2.2,4.1,3.3,6.1c1.1,0.2,2.3,0.3,3.5,0.3c-2.7-4.5-4.9-9.4-7.8-13.8
				C133.3,381.1,126.7,374.3,120.1,368.7z"/>
		</g>
		<g>
			<path style="fill:#8DC6CC;" d="M173.2,360.9c3-7.2,7-15,12.6-20c5.5-5,12.5-10.1,19.8-11.5c-0.2-1-0.5-2-0.8-3.1
				c-7.5,1.4-14.2,6.4-20,11.3c-6.6,5.6-11.2,14.3-14.6,22.5c-3.1,7.6-4.3,15.8-4.4,24.2c0,3.9,0.2,7.7,0.5,11.6
				c1.1-1,2.1-2.1,2.9-3.3c-0.3-4-0.5-7.5-0.5-8.2C168.9,376.3,170.1,368.3,173.2,360.9z"/>
		</g>
	</g>
	<g>
		<g>
			<path style="fill:none;" d="M80.5,364.2c0.3,4,2.1,5.5,4.9,6.1c-0.6-0.6-1.1-1.2-1.6-1.9C82.7,367.1,81.6,365.7,80.5,364.2z"/>
		</g>
		<g>
			<path style="fill:none;" d="M144.2,402.2c-3.5-1.3-6.7-3-9.9-5C137.9,400.4,140.7,401.9,144.2,402.2z"/>
		</g>
	</g>
	<g>
		<g>
			<path style="fill:none;" d="M25,264.4c-0.9-2.3-1.9-4.6-2.6-7c-0.7,0.5-1.3,1.1-1.7,1.8c-0.9,1.8,0.2,4.3,0.7,6
				c0.9,3.2,2.1,6.4,3.2,9.5c2,5.6,4,11.5,6.5,16.9c1.5,3.3,3.7,4.9,7.1,4.9c-3-5.8-5.5-11.8-7.8-17.9
				C28.6,273.9,26.8,269.2,25,264.4z"/>
		</g>
		<g>
			<path style="fill:none;" d="M206.9,212.6C206.9,212.6,206.9,212.6,206.9,212.6c-0.3-0.3-0.5-0.6-0.8-0.9c0,0,0,0,0,0l0,0
				c0,0,0,0,0,0c0,0,0,0-0.1,0c0,0,0,0-0.1-0.1c-0.7-0.2-1.3-0.5-2-0.7c0,0,0,0,0.1,0c-0.1,0-0.3-0.1-0.5-0.1
				c1,7.5,0.6,15.5,0.4,22.8c-0.2,4.8-0.2,9.6-0.5,14.4c0,0.6-0.1,1.1-0.1,1.7c2.4-1,4.2-2.7,4.6-6.9c0.8-6.9,0.9-14.4,0.3-21.7
				c0-0.1,0-0.2,0-0.4c0-1.5,0.1-3.5,0-5.4c-0.2-0.6-0.3-1.1-0.4-1.7C207.5,213.2,207.2,212.9,206.9,212.6z"/>
		</g>
		<g>
			<path style="fill:none;" d="M200.8,233.6c0.2-7.4,0.7-15.8-0.5-23.4c-0.1,0-0.2,0-0.3,0c-6-0.8-12.1-1.6-18.1-2.4
				c-2.8-0.4-5.6-0.7-8.4-0.8h0c-0.6,0-1.1-0.1-1.7-0.1c0,0,0,0,0,0c-0.2,0-0.3,0-0.5,0c-0.1,0-0.2,0-0.3,0c-0.1,0-0.1,0-0.2,0
				c-0.2,0-0.3,0-0.5,0c-0.5,0-1,0-1.5,0c-0.1,0-0.2,0-0.3,0c-0.1,0-0.3,0-0.4,0c-0.1,0-0.2,0-0.3,0c-0.5,0-1.1,0-1.6,0
				c-0.1,0-0.1,0-0.2,0c-0.2,0-0.3,0-0.5,0c0,0-0.1,0-0.1,0c-0.8,0-1.6,0-2.4,0.1c-2.6,0.1-5.2,0.1-7.9,0.1c-0.5,0-1,0-1.5,0
				c0,0,0,0,0,0c-0.1,0-0.2,0-0.4,0c-0.2,0-0.3,0-0.5,0c-0.2,0-0.3,0-0.5,0c0,0,0,0,0,0c-0.5,0-1,0.1-1.5,0.1c0,0,0,0-0.1,0
				c-0.3,0-0.6,0-1,0c-0.3,0-0.7,0-1,0c-8.5,1.8-9,3.6-10.7,6.9c-2.2,4.3-2.9,26.6-25.6,34.2c-22.7,7.5-31.1-26-42.8-20.7
				c-7.3,3.2-12.7,5.9-16.6,8.5c-2.4,1.5-4.7,3.3-7,5.1c-4.5,3.6-9.4,6.9-14.2,10c-2.2,1.4-4.4,2.8-6.5,4.5
				c0.7,3.6,2.6,7.3,3.8,10.5c1.5,4,3,8,4.5,11.9c2.4,6.2,5.1,12.5,8.2,18.4c7-1.1,13.6-4.6,20.1-8c10.2,27.4,17.9,64.4,18.7,75.9
				c1.1,14.1,20.5-2.3,39.8,18.5c19.3,20.8,19.1,22.3,38.7,17.1c19.6-5.2,13.6-32.2,20.2-42.8s22-12.8,26.4-21.3
				c4.1-7.9-17.9-44.9-24.1-81.2c5.4-1.4,10.8-2.5,16.3-3.5c0.8-0.1,1.5-0.3,2.3-0.4c0.1-1.7,0.1-3.4,0.2-5
				C200.5,241.6,200.6,237.6,200.8,233.6z"/>
		</g>
		<g>
			<path style="fill:#8DC6CC;" d="M29,265.9c-1.2-3.3-3.1-6.9-3.8-10.5c-0.2,0.1-0.4,0.3-0.6,0.4c-0.6,0.5-1.4,1-2.1,1.5
				c0.7,2.4,1.7,4.7,2.6,7c1.8,4.7,3.5,9.5,5.4,14.2c2.4,6,4.9,12.1,7.8,17.9c0.2,0,0.3,0,0.5,0c1,0,2-0.1,2.9-0.3
				c-3.1-5.9-5.8-12.2-8.2-18.4C31.9,273.9,30.5,269.9,29,265.9z"/>
		</g>
		<g>
			<path style="fill:#8DC6CC;" d="M203.9,233.6c0.2-7.3,0.6-15.3-0.4-22.8c-1.1-0.3-2.2-0.5-3.3-0.7c1.2,7.6,0.8,16,0.5,23.4
				c-0.1,4-0.3,8-0.4,12c-0.1,1.6-0.1,3.3-0.2,5c1.1-0.2,2.2-0.5,3.2-0.9c0-0.6,0.1-1.1,0.1-1.7
				C203.7,243.2,203.8,238.4,203.9,233.6z"/>
		</g>
	</g>
	<g>
		<g>
			<path style="fill:none;" d="M206.9,212.6C206.9,212.6,206.9,212.6,206.9,212.6c-0.3-0.3-0.5-0.6-0.8-0.9c0,0,0,0,0,0l0,0
				c0,0,0,0,0,0c0,0,0,0-0.1,0c0,0,0,0-0.1-0.1c-0.7-0.2-1.3-0.5-2-0.7c0,0,0,0,0.1,0c-1.3-0.4-2.7-0.7-4-0.9
				c-6-0.8-12.1-1.6-18.1-2.4c-2.8-0.4-5.6-0.7-8.4-0.8h0c-0.6,0-1.1-0.1-1.7-0.1c0,0,0,0,0,0c-0.2,0-0.3,0-0.5,0
				c-0.1,0-0.2,0-0.3,0c-0.1,0-0.1,0-0.2,0c-0.2,0-0.3,0-0.5,0c-0.5,0-1,0-1.5,0c-0.1,0-0.2,0-0.3,0c-0.1,0-0.3,0-0.4,0
				c-0.1,0-0.2,0-0.3,0c-0.5,0-1.1,0-1.6,0c-0.1,0-0.1,0-0.2,0c-0.2,0-0.3,0-0.5,0c0,0-0.1,0-0.1,0c-0.8,0-1.6,0-2.4,0.1
				c-2.6,0.1-5.2,0.1-7.9,0.1c-0.5,0-1,0-1.5,0c0,0,0,0,0,0c-0.1,0-0.2,0-0.4,0c-0.2,0-0.3,0-0.5,0c-0.2,0-0.3,0-0.5,0c0,0,0,0,0,0
				c-0.5,0-1,0.1-1.5,0.1c0,0,0,0-0.1,0c-0.3,0-0.6,0-1,0c-0.3,0-0.7,0-1,0c-8.5,1.8-9,3.6-10.7,6.9c-2.2,4.3-2.9,26.6-25.6,34.2
				c-22.7,7.5-31.1-26-42.8-20.7c-3.4,1.5-6.4,3-9.1,4.3c0.3,1.1,0.5,2.2,0.8,3.4c2.4,10.2,5.2,20.3,7.7,30.5
				c2.3,8.9,5,17.5,8.7,25.9c3.6,8,8,15.3,12.6,22.8c4.5,7.3,9.2,13.4,15.6,19.2c6.1,5.6,11.6,9.4,18.5,14.1
				c7.1,4.9,14.5,8.7,22.3,12.3c4.2,1.9,8.2,4.3,12.3,6.4c3.1,1.6,6.4,2.7,9.9,3.9c2.1,0.8,4.3,1.5,6.4,2.2
				c0.9-6.1,1.6-11.8,3.9-15.5c6.5-10.6,22-12.8,26.4-21.3c4.1-7.9-17.9-44.9-24.1-81.2c5.4-1.4,10.8-2.5,16.3-3.5
				c4.8-0.9,9.3-1.2,10.1-8.2c0.8-6.9,0.9-14.4,0.3-21.7c0-0.1,0-0.2,0-0.4c0-1.5,0.1-3.5,0-5.4c-0.2-0.6-0.3-1.1-0.4-1.7
				C207.5,213.2,207.2,212.9,206.9,212.6z"/>
		</g>
		<g style="opacity:5.000000e-02;">
			<path style="fill:#2D2D2D;" d="M158.9,366.3c-4.1-2.1-8.1-4.5-12.3-6.4c-7.8-3.6-15.2-7.4-22.3-12.3c-6.9-4.7-12.4-8.5-18.5-14.1
				c-6.3-5.8-11-12-15.6-19.2c-4.6-7.4-9.1-14.8-12.6-22.8c-3.8-8.4-6.5-17-8.7-25.9c-2.6-10.2-5.3-20.3-7.7-30.5
				c-0.3-1.1-0.5-2.2-0.8-3.4c-2.9,1.5-5.4,2.9-7.5,4.2c-2.4,1.5-4.7,3.3-7,5.1c-4.5,3.6-9.4,6.9-14.2,10c-2.4,1.6-4.8,3.1-7.1,4.9
				c-1.2,1-3.1,1.9-3.8,3.4c-0.9,1.8,0.2,4.3,0.7,6c0.9,3.2,2.1,6.4,3.2,9.5c2,5.6,4,11.5,6.5,16.9c1.5,3.4,3.8,5,7.6,4.9
				c8.2-0.4,15.7-4.5,23.1-8.3c10.2,27.4,17.9,64.4,18.7,75.9c1.1,14.1,20.5-2.3,39.8,18.5c19.3,20.8,19.1,22.3,38.7,17.1
				c12.7-3.4,14.7-16,16.3-27.3c-2.1-0.7-4.3-1.5-6.4-2.2C165.3,369,162,367.9,158.9,366.3z"/>
		</g>
	</g>
	<g>
		<path style="fill:#8DC6CC;" d="M168.6,271c-0.5-1.7-0.9-3.7-1.5-5.5c-0.1-0.4-0.2-0.8-0.3-1.3c-0.8-3.2-2.1-2.9-4.9-2.5
			c-4.2,0.6-8.3,1.8-12.4,2.9c-3.3,0.9-6.8,1.9-10,3.3c-2.5,1.1-0.8,5-0.2,7.2c1.5,6,3.4,13.6,7.6,18.7c1.5,2.1,3.5,4.1,5.5,4.9
			c3.4,1.3,7.3,0,10.4-1.4c2.7-1.2,6.5-3.3,7.6-6.4c0.6-1.7,0.3-4.1,0.2-5.8c-0.1-2-0.2-4-0.6-6C169.8,276.3,169.3,273.6,168.6,271z
			"/>
	</g>
</g>
</svg>
