<?xml version="1.0" encoding="utf-8"?>
<!-- Generator: Adobe Illustrator 23.1.0, SVG Export Plug-In . SVG Version: 6.00 Build 0)  -->
<svg version="1.1" id="Isolation_Mode" xmlns="http://www.w3.org/2000/svg" xmlns:xlink="http://www.w3.org/1999/xlink" x="0px"
	 y="0px" viewBox="0 0 246.6 410.2" style="enable-background:new 0 0 246.6 410.2;" xml:space="preserve">
<line style="fill:none;stroke:#AFD9EB;stroke-width:8;stroke-linecap:round;stroke-linejoin:round;stroke-miterlimit:10;stroke-dasharray:0,18;" x1="104.5" y1="383.6" x2="104.5" y2="-11.6"/>
<g>
	<g>
		<path style="fill:#FF7B9E;" d="M169.3,306.1c0.6-10.4,0.9-21-0.5-31.4c-1.5-10.7-5-23.9-17.4-24.6c0,0-0.1,0-0.1,0c0,0,0,0,0,0
			c-0.5,0-1,0-1.5,0c-0.8-0.2-1.6-0.3-2.5-0.3c-1.5,0-3.2,0.3-4.5,1.1c-1.8,0.8-3.5,2-4.8,3.5c-4.8,5.5-4.7,13.1-6,19.9
			c-1.4,7.5-4.3,14.9-10.1,20.1c-10.4,9.2-25.7,9.9-36.7,1.3c-5.9-4.6-9.5-11.2-10.8-18.5c-1.3-7.1-0.4-14.1-0.5-21.2
			c-0.1-3-0.8-5.8-2.2-8.1c-1.5-4.5-6.7-7.7-11.5-7.8c-0.5,0-1.1,0-1.6,0c-2.7-0.1-5.5,0.4-7.5,1.7c-2.4,0.8-4.2,2.6-5.6,4.9
			c-0.1,0.1-0.2,0.2-0.2,0.3c-0.1,0.2-0.2,0.3-0.3,0.5c-0.4,0.3-0.8,0.7-1,1.3c-0.1,0.3-0.2,0.5-0.3,0.8c-0.1,0.2-0.2,0.4-0.3,0.6
			c-0.6,0.5-0.9,1.2-1,1.8c-1.7,3.3-2.9,6.8-3.7,10.5c-2.9,7.8-5.6,15.7-8,23.7c-3.7,12.2-7.7,25-8.2,37.8
			c-0.8,21.3,11.8,39.6,30,49.8c10.4,5.8,22.2,8.8,34,10c11,1.1,22.4,1,33.3-1c9.8-1.8,19.5-5.3,27.2-11.8c0.1-0.1,0.3-0.2,0.4-0.3
			c1.7-1.2,3.3-2.5,4.8-4c7.7-7.6,11.5-17.5,13.8-27.9C168.3,328.1,168.7,317.1,169.3,306.1z"/>
	</g>
	<g>
		<g>
			<path style="fill:none;" d="M169.3,306.1c0.6-10.4,0.9-21-0.5-31.4c-1.5-10.7-5-23.9-17.4-24.6c0,0-0.1,0-0.1,0c0,0,0,0,0,0
				c-0.5,0-1,0-1.5,0c-0.5-0.1-0.9-0.2-1.4-0.2c-7.3,11-8,25-12.4,37.1c-3.9,10.6-11.3,20.7-22.4,24.4c-12.2,4.1-22.6-1.6-31.8-9.5
				c-8.8-7.5-13.5-16.1-15.8-27.4c-1.7-8.5-2-18-8.2-24.7c-2.5-2.6-1.4-7.3,1.2-9.3c0.3-0.2,0.5-0.4,0.8-0.5c-0.4,0-0.8,0-1.1,0
				c-2.7-0.1-5.5,0.4-7.5,1.7c-2.4,0.8-4.2,2.6-5.6,4.9c-0.1,0.1-0.2,0.2-0.2,0.3c-0.1,0.2-0.2,0.3-0.3,0.5c-0.4,0.3-0.8,0.7-1,1.3
				c-0.1,0.3-0.2,0.5-0.3,0.8c-0.1,0.2-0.2,0.4-0.3,0.6c-0.6,0.5-0.9,1.2-1,1.8c-1.7,3.3-2.9,6.8-3.7,10.5c-2.9,7.8-5.6,15.7-8,23.7
				c-3.7,12.2-7.7,25-8.2,37.8c-0.8,21.3,11.8,39.6,30,49.8c10.4,5.8,22.2,8.8,34,10c11,1.1,22.4,1,33.3-1
				c9.8-1.8,19.5-5.3,27.2-11.8c0.1-0.1,0.3-0.2,0.4-0.3c1.7-1.2,3.3-2.5,4.8-4c7.7-7.6,11.5-17.5,13.8-27.9
				C168.3,328.1,168.7,317.1,169.3,306.1z"/>
		</g>
		<g style="opacity:0.1;">
			<path style="fill:#2D2D2D;" d="M57.8,249.9c6.2,6.7,4.2,18.3,5.9,26.9c2.2,11.3,7.1,20.2,15.9,27.7c9.2,7.9,24.5,12.2,36.7,8.1
				c11.1-3.7,19.2-12.2,23.1-22.8c4.5-12.1,1.8-29,9.1-39.9c-0.4,0-0.7-0.1-1.1-0.1c-1.5,0-3.2,0.3-4.5,1.1c-1.8,0.8-3.5,2-4.8,3.5
				c-4.8,5.5-4.7,13.1-6,19.9c-1.4,7.5-4.3,14.9-10.1,20.1c-10.4,9.2-25.7,9.9-36.7,1.3c-5.9-4.6-9.5-11.2-10.8-18.5
				c-1.3-7.1-0.4-14.1-0.5-21.2c-0.1-3-0.8-5.8-2.2-8.1c-1.5-4.5-6.7-7.7-11.5-7.8c-0.2,0-0.3,0-0.5,0c-0.3,0.2-0.5,0.5-0.8,0.5
				C54.9,240.4,55.3,247.3,57.8,249.9z"/>
		</g>
	</g>
	<g>
		<path style="fill:#FFAFBF;" d="M229.9,277c-5.6-3.9-13.7-4.3-18.5-9.3c-4.3-4.6-4.6-11.8-7.5-17.1c-2.9-5.1-8-8.6-13.9-9.2
			c-0.4,0-0.8-0.1-1.2-0.1c-3.3-4.3-9.2-6-14.4-6.3c-12.6-0.8-24.5,5.2-32.8,14.5c-4.1,4.6-7.3,10.1-9.2,16
			c-2.4,7.5-2.7,15.9-6.9,22.7c-7.6,12.4-27.7,18.4-38.1,6c-9.6-11.4-8.3-29.2-13.1-42.8c-2.5-7.1-7.3-13.2-13.3-18
			c-2.9-2.3-6.2-3.9-9.3-5.8c1.2-1.1,2.3-2.4,3-4.1c2.2-4.8,0.4-11.4-4.5-13.7c-5.5-2.7-11,1-11.8,6.8c-0.5,3.2,0.4,6.1,2,8.8
			c-2.2,0-4.5-0.5-6.6-1c-8.2-2.2-19.4-5.8-20.3-15.7c-0.4-4-6.6-3.1-6.2,0.9c0.6,6.6,4.9,11.9,10.4,15.2c6.2,3.7,14.7,6.7,22,6.9
			c1.9,0,3.9-0.2,5.7-0.7c0.5,0.4,1,0.8,1.5,1.1c6.2,4.2,12.2,6.9,16.4,13.4c4,6.4,5.9,13.9,7.5,21.2c2.9,13.3,5.7,30.3,18.8,37.5
			c11.7,6.4,26.7,2.8,36-6.2c4.9-4.7,7.7-10.5,9.4-17c1.9-7.3,2.9-14.7,6.9-21.3c6.6-10.9,19.1-19.4,32.3-18.3
			c1.9,0.2,4.4,0.6,6.6,1.5c-2.5,1.1-4.5,2.8-5.2,5.4c-1.5,5.5,4.2,10.4,9.4,8.8c4.1-1.3,6.2-5,6.1-8.9c6.4,1.6,8.5,8.3,10.6,14.3
			c2.3,6.9,6.1,11.8,12.9,14.8c5.7,2.5,18.2,5.1,16.1,13.8c-0.9,3.9,5.3,4.7,6.2,0.8C238.3,285.7,234.6,280.3,229.9,277z
			 M44.9,216.1c1.8-2.5,4.2,0.4,4.4,2.3c0.3,2-0.8,3.6-2.3,4.8c-0.1,0.1-0.2,0.2-0.3,0.2C44.7,221.2,43.2,218.4,44.9,216.1z
			 M184.5,249.9c-1.2,1.4-3.6,1-2.2-0.9c0.5-0.6,1.5-1,2.7-1.2C185,248.5,184.9,249.4,184.5,249.9z"/>
	</g>
	<g>
		<path style="fill:#FFAFBF;" d="M170.8,325.5c0.9-0.7,1.7-1.8,2.4-2.6c1.8-2.3,2.9-5.1,3.4-8c1-5-0.4-9.7-2.7-14.1
			c-0.6-1.1-1.7-2.7-1.8-3.7c0.3,0.2,1.6-2,1.8-2.3c3-4.1,4.7-8.5,4.5-13.6c-0.2-4.8-2.4-9.1-6.2-12c-1.5-1.1-3.2-2-5-2.7
			c0.7,2.7,1.2,5.5,1.6,8.1c1.5,10.4,1.1,21,0.5,31.4c-0.6,10.9-1.1,22-3.4,32.7c-2.3,10.4-6.1,20.3-13.8,27.9
			c-1.5,1.5-3.1,2.8-4.8,4c-0.1,0.1-0.3,0.2-0.4,0.3c-7.7,6.5-17.4,10-27.2,11.8c-10.9,2-22.3,2.1-33.3,1c-11.8-1.2-23.6-4.2-34-10
			c-18.3-10.2-30.8-28.5-30-49.8c0.5-12.8,4.5-25.6,8.2-37.8c2.4-8,5.1-15.9,8-23.7c0.7-3.7,2-7.2,3.7-10.5c0.1-0.6,0.4-1.3,1-1.8
			c0.1-0.2,0.2-0.4,0.3-0.6c0.1-0.3,0.2-0.5,0.3-0.8c0.2-0.6,0.6-1,1-1.3c0.1-0.2,0.2-0.3,0.3-0.5c0.1-0.1,0.2-0.2,0.2-0.3
			c0.6-1,1.3-1.8,2-2.6c-0.4,0-0.9,0-1.4,0.1c-9.1,1.5-17.5,6.9-16.2,17.3c0.1,1,0.3,2.1,0.5,3.1c-4.5,2.2-7.7,5.7-8.6,10.7
			c-0.7,4,0.3,8,1.6,11.7c0.5,1.4,1.2,2.8,1.2,4.2c-0.1,0.1-0.2,0.3-0.4,0.6c-0.3,0.4-0.7,0.8-1,1.2c-0.1,0.1-0.2,0.3-0.3,0.4
			c-0.5,0.6-1.1,1.1-1.7,1.6c-1.2,1.2-2.5,2.4-3.6,3.7c-2.6,3-4.1,6.7-4,10.7c0.1,4.2,2.2,7.5,4.6,10.8c0.1,0.1,0.9,0.8,1.1,1.1
			c0,0,0,0.1,0,0.1c0,0-0.1,0-0.1-0.1c0.1,0,0.1,0.1,0.1,0.1c0,0,0,0,0,0c-0.2,0.4-0.4,0.8-0.6,1.2c0.3-0.5-0.8,1.2-0.8,1.2
			c-0.4,0.6-0.8,1.1-1.2,1.7c-1.1,1.6-2.1,3.1-3.1,4.8c-1.8,3.1-2.8,6.7-2.2,10.3c0.6,4.3,3.2,7.6,6.5,10.3c1,0.9,2.5,1.6,2.8,2.4
			c-0.2-0.2-0.1,2.1-0.1,2.6c-0.3,9,3,17.8,11.9,21.5c1.9,0.8,4,1.4,6.1,1.6c1.4,0.1,1.3,0,2,0.6c1.2,1,2,2.8,3.1,4
			c1.6,1.8,3.4,3.6,5.4,5c8,5.7,16.4,6.3,25.8,5.4c3.8-0.3,6.1,0.9,9.5,2.6c4.1,2,8.4,3.3,13,3c7.5-0.5,13.1-6.1,19.2-8.5
			c2.1-0.9,5.6-0.7,8.6-0.7c4.8,0,9.2-0.4,13.4-2.8c4-2.3,6.8-5.8,7.9-10.3c0.1-0.4,0.2-0.9,0.3-1.3c0.1,0,0.2,0,0.3,0
			c9.2,0.1,17.6-5.6,18.7-15.2c0.2-2.1,0-4.1-0.3-6.2c0-0.1-0.1-0.5-0.2-0.9c0.7-0.3,1.5-0.7,1.7-0.8c1.8-0.7,3.6-1.6,5.1-2.9
			C180.1,343.4,175.9,331.9,170.8,325.5z M146.9,374.3C146.9,373,147.7,373.3,146.9,374.3L146.9,374.3z M170.4,325.8
			c0.1,0,0.1-0.1,0.2-0.2C170.5,326.2,169.3,326.6,170.4,325.8z"/>
	</g>
	<g>
		<g>
			<path style="fill:none;" d="M102.9,370.8c13-8.3,25.8-17.7,37.4-27.9c22.4-19.8,28.7-49.7,26.3-78.5c-2.4-7.4-6.7-13.8-15.2-14.3
				c0,0-0.1,0-0.1,0c0,0,0,0,0,0c-0.5,0-1,0-1.5,0c-0.8-0.2-1.6-0.3-2.5-0.3c-1.5,0-3.2,0.3-4.5,1.1c-1.8,0.8-3.5,2-4.8,3.5
				c-4.8,5.5-4.7,13.1-6,19.9c-1.4,7.5-4.3,14.9-10.1,20.1c-10.4,9.2-25.7,9.9-36.7,1.3c-5.9-4.6-9.5-11.2-10.8-18.5
				c-1.3-7.1-0.4-14.1-0.5-21.2c-0.1-3-0.8-5.8-2.2-8.1c-1.5-4.5-6.7-7.7-11.5-7.8c-0.5,0-1.1,0-1.6,0c-2.7-0.1-5.5,0.4-7.5,1.7
				c-2.4,0.8-4.2,2.6-5.6,4.9c-0.1,0.1-0.2,0.2-0.2,0.3c-0.1,0.2-0.2,0.3-0.3,0.5c-0.4,0.3-0.8,0.7-1,1.3c-0.1,0.3-0.2,0.5-0.3,0.8
				c-0.1,0.2-0.2,0.4-0.3,0.6c-0.6,0.5-0.9,1.2-1,1.8c-1.7,3.3-2.9,6.8-3.7,10.5c-2.9,7.8-5.6,15.7-8,23.7
				c-3.7,12.2-7.7,25-8.2,37.8c-0.8,21.3,11.8,39.6,30,49.8c8,4.5,16.9,7.3,26,8.9C87,379.8,95.2,375.7,102.9,370.8z"/>
		</g>
		<g style="opacity:0.1;">
			<path style="fill:#2D2D2D;" d="M140.3,342.9c-11.6,10.2-24.4,19.6-37.4,27.9c-7.7,4.9-15.8,9.1-24.4,12c2.7,0.5,5.3,0.8,8,1.1
				c11,1.1,22.4,1,33.3-1c9.8-1.8,19.5-5.3,27.2-11.8c0.1-0.1,0.3-0.2,0.4-0.3c1.7-1.2,3.3-2.5,4.8-4c7.7-7.6,11.5-17.5,13.8-27.9
				c2.4-10.7,2.8-21.8,3.4-32.7c0.6-10.4,0.9-21-0.5-31.4c-0.5-3.3-1.1-6.9-2.2-10.3C169,293.2,162.7,323.1,140.3,342.9z"/>
		</g>
	</g>
</g>
</svg>
