<svg width="32" height="39" viewBox="0 0 32 39" fill="none" xmlns="http://www.w3.org/2000/svg">
    <path
        d="M17.3193 0.59552C18.2351 0.735108 19.165 0.900921 19.9933 1.32053C20.8464 1.697 21.6004 2.25112 22.2872 2.85854C23.5266 4.04799 24.3955 5.60969 24.628 7.2822C24.7155 7.78303 24.7244 8.29146 24.7244 8.79821C24.7244 12.7481 24.7253 16.698 24.7235 20.6471C24.7359 21.5422 24.3549 22.4558 23.6344 23.0396C23.4426 23.1868 23.2357 23.4084 22.9679 23.2849C22.556 23.1047 22.1255 22.9634 21.7356 22.7392C22.0804 22.5633 22.4393 22.4076 22.7593 22.1919C23.2313 21.8543 23.4674 21.2808 23.4868 20.7292C23.4912 16.638 23.4877 12.5468 23.4894 8.45559C23.5018 6.70862 22.754 4.97435 21.4669 3.73667C20.6368 2.99051 19.6547 2.38309 18.571 2.03793C18.5312 2.5819 18.5692 3.12587 18.5462 3.66984C18.1697 3.66053 17.7931 3.66053 17.4165 3.66392C17.2645 3.65715 17.0815 3.68845 16.9754 3.55732C16.3876 3.00574 15.8156 2.43893 15.2242 1.88988C13.5093 1.95841 11.8395 2.6665 10.6196 3.81873C9.39087 5.05641 8.6722 6.75177 8.68722 8.4632C8.68811 12.5239 8.68369 16.5847 8.68899 20.6454C8.68457 21.252 8.94446 21.8975 9.48899 22.2409C9.79131 22.4296 10.1193 22.5776 10.4384 22.7384C10.0477 22.9643 9.61805 23.1157 9.19905 23.2824C9.06026 23.2857 8.90115 23.3331 8.78888 23.2274C8.12413 22.7849 7.66623 22.0819 7.51153 21.3239C7.42313 20.9314 7.45584 20.5287 7.4523 20.1302C7.45142 16.2107 7.45054 12.2921 7.45319 8.37268C7.45672 6.58172 8.14623 4.81277 9.33695 3.4355C10.891 1.66146 13.3228 0.631051 15.7405 0.708882C16.2629 1.20971 16.7862 1.71053 17.3096 2.21051C17.3281 1.67246 17.3237 1.13357 17.3193 0.59552Z"
        fill="#C4C4C4" />
    <path
        d="M13.0044 4.84573C13.4155 4.84235 13.8274 4.84404 14.2394 4.84827C14.2774 5.54029 14.4462 6.25092 14.8732 6.82365C15.3098 7.40907 15.9057 7.91074 16.6279 8.13916C17.9848 8.6053 19.4513 8.26014 20.8471 8.43441C21.6197 8.61038 22.2111 9.31424 22.2482 10.0714C22.2977 11.8632 22.2146 13.7117 21.5092 15.3952C21.1644 16.2962 20.6703 17.1557 19.9923 17.8663C19.8933 17.9805 19.7722 18.1015 19.7899 18.2639C19.781 19.2258 19.7907 20.1877 19.7863 21.1504C19.7784 21.5548 19.8844 21.9981 20.2168 22.2731C20.4723 22.4786 20.8197 22.4879 21.1273 22.5666C20.9337 22.5607 20.7198 22.5912 20.5881 22.7409C20.3538 22.9778 20.4122 23.3331 20.3989 23.6317C19.8588 23.5226 19.3514 23.2409 19.0402 22.7976C18.7167 22.3399 18.5514 21.7866 18.554 21.235C18.5514 20.4889 18.5549 19.7427 18.5532 18.9974C17.0407 19.7825 15.1322 19.785 13.6223 18.994C13.6117 19.8535 13.6409 20.7148 13.6108 21.5743C13.5693 22.5539 12.7817 23.4464 11.7775 23.6469C11.7545 23.3449 11.8199 22.9879 11.591 22.7434C11.4592 22.5895 11.2418 22.5607 11.0464 22.5675C11.3346 22.4905 11.6555 22.4905 11.9074 22.3187C12.2354 22.0929 12.3971 21.7003 12.3857 21.3205C12.3901 20.3019 12.391 19.2825 12.3857 18.2639C12.4033 18.0795 12.2513 17.9501 12.1417 17.8198C11.4699 17.1278 11.0084 16.2716 10.6654 15.3927C10.1907 14.237 9.99184 12.9943 9.92731 11.76C9.87339 10.9978 10.0493 10.1991 10.5505 9.59003C11.1163 8.85148 12.0444 8.38703 13.0053 8.38788C13.0124 8.77957 13.0133 9.17126 13.0089 9.56296C12.2937 9.57903 11.6148 10.0088 11.3266 10.6365C11.1154 11.0401 11.1631 11.4994 11.1834 11.9351C11.2975 13.5129 11.6679 15.1228 12.5925 16.4577C13.1335 17.2758 13.9406 17.9738 14.9289 18.2428C15.9693 18.5592 17.1423 18.4154 18.082 17.8892C19.0729 17.3139 19.7598 16.3571 20.1947 15.347C20.9293 13.7421 21.0601 11.9563 21.0186 10.2245C21.046 9.90474 20.7702 9.57142 20.4228 9.57903C19.4168 9.56296 18.4082 9.59341 17.4022 9.52489C16.3114 9.41575 15.2595 8.95808 14.4727 8.22291C13.5251 7.3507 13.0177 6.0961 13.0044 4.84573Z"
        fill="#C4C4C4" />
    <path
        d="M15.0016 33.9697C15.0067 33.4258 15.4571 33.0022 16.001 33.0016C16.0082 33.0016 16.0153 33.0016 16.0224 33.0016C16.5637 33.001 17.0044 33.429 16.993 33.9701C16.9929 33.9779 16.9927 33.9856 16.9925 33.9934C16.9809 34.5417 16.5314 34.9907 15.983 34.994C15.4411 34.9972 14.9969 34.5605 15.0011 34.0186C15.0013 34.0023 15.0014 33.986 15.0016 33.9697Z"
        fill="#C4C4C4" />
    <path
        d="M15 37.0005C14.9997 36.4493 15.4477 36.0009 15.9989 36.0009C16.5509 36.0009 16.9997 36.4497 17 37.0017C17.0003 37.5521 16.5485 38.0001 15.9982 37.9998C15.4486 37.9995 15.0004 37.5501 15 37.0005Z"
        fill="#C4C4C4" />
    <path
        d="M10.439 22.7381C10.6468 22.7 10.8448 22.6264 11.0472 22.5672C11.2426 22.5604 11.46 22.5892 11.5917 22.7432C11.8207 22.9877 11.7553 23.3447 11.7783 23.6467C11.7897 24.3954 11.7146 25.1542 11.8755 25.8945C12.0222 26.6939 12.3997 27.4409 12.8894 28.0983C13.6921 29.0855 14.79 29.9121 16.0859 30.1862C18.0262 29.7446 19.6094 28.1998 20.1813 26.3877C20.466 25.4943 20.4068 24.5527 20.3997 23.6315C20.4129 23.3328 20.3546 22.9775 20.5889 22.7406C20.7206 22.5909 20.9345 22.5604 21.1281 22.5664C21.3314 22.623 21.5285 22.6975 21.7363 22.7389C22.1261 22.9631 22.5566 23.1044 22.9685 23.2846C23.2726 23.4191 23.5962 23.5105 23.8967 23.6526C24.3962 23.8844 24.9389 24.002 25.4631 24.167C27.2558 24.8082 29.0362 25.6694 30.3188 27.0662C30.7847 27.5864 31.1931 28.1769 31.3778 28.8461C31.5802 29.5077 31.4936 30.2022 31.5157 30.8807C31.5113 33.4178 31.5148 35.9549 31.5122 38.4921C31.1011 38.4912 30.6901 38.4929 30.2781 38.4904C30.2799 35.5861 30.2728 32.6818 30.279 29.7775C30.287 28.9248 29.7398 28.1879 29.1334 27.6127C28.0213 26.5154 26.5637 25.8107 25.0786 25.2955C23.8817 25.0138 22.7953 24.4343 21.6381 24.0494C21.6859 25.2701 21.5701 26.5298 21.022 27.6482C20.1265 29.55 18.2366 31.022 16.085 31.3942C13.5736 30.9459 11.4317 29.0187 10.7873 26.6533C10.5398 25.8048 10.5089 24.919 10.5389 24.0443C9.66378 24.3404 8.83195 24.7473 7.95505 25.04C6.09162 25.5569 4.25471 26.3767 2.90223 27.7404C2.39129 28.2852 1.91394 28.9349 1.90068 29.6972C1.8998 32.6285 1.90068 35.5599 1.89803 38.4912C1.48698 38.4912 1.07593 38.4912 0.664879 38.4912C0.661343 35.5607 0.66046 32.6302 0.666647 29.6997C0.686095 28.4375 1.47814 27.3318 2.42134 26.5087C3.92853 25.1931 5.84587 24.3971 7.78179 23.848C8.26179 23.6771 8.72057 23.4572 9.19969 23.2821C9.61869 23.1154 10.0483 22.964 10.439 22.7381Z"
        fill="#C4C4C4" />
    <path
        d="M5.05664 33.4673C5.40316 33.2516 5.78327 33.0908 6.15366 32.9166C6.35786 33.2939 6.54438 33.6788 6.74681 34.0578C6.8635 34.2473 6.84051 34.4715 6.84228 34.6821C6.83432 35.952 6.83609 37.221 6.83344 38.4908C6.41974 38.4908 6.00604 38.4993 5.59322 38.4815C5.60648 37.188 5.59587 35.8945 5.59764 34.6018C5.5004 34.1965 5.23432 33.8446 5.05664 33.4673Z"
        fill="#C4C4C4" />
    <path
        d="M26.0255 32.9166C26.3941 33.0917 26.7733 33.2533 27.1207 33.4673C26.9431 33.8446 26.6761 34.1974 26.5798 34.6018C26.5815 35.8961 26.5727 37.1905 26.5824 38.4849C26.1696 38.4959 25.7568 38.4925 25.3431 38.4899C25.3369 37.0788 25.336 35.6669 25.351 34.2566C25.5429 33.7972 25.7974 33.3616 26.0255 32.9166Z"
        fill="#C4C4C4" />
</svg>
