<?xml version="1.0" encoding="utf-8"?>
<!-- Generator: Adobe Illustrator 23.1.0, SVG Export Plug-In . SVG Version: 6.00 Build 0)  -->
<svg version="1.1" id="Layer_1" xmlns="http://www.w3.org/2000/svg" xmlns:xlink="http://www.w3.org/1999/xlink" x="0px" y="0px"
	 viewBox="0 0 103 100.3" style="enable-background:new 0 0 103 100.3;" xml:space="preserve">
<g>
	<path style="fill:#FF9292;" d="M36.2,40.7c1.3-10.1,15-15.3,23-9.2c4.3,3.1,5.4,8.6,5.7,13.6c-2.5,0-5,0-7.4,0
		c-0.4-2.3-0.3-4.9-2-6.7c-3.4-4-11.9-1.4-11.3,4.2c0.5,6.2,8.4,7.2,10.5,12.5c1.8,3.9,1.3,8.3,1.3,12.5c-2.5,0-5,0-7.5,0
		c-0.1-3.3,0.7-7.1-1.4-9.9c-2.3-2.8-5.5-4.6-7.9-7.1c-1.9-2-2.7-4.7-3-7.4V40.7z"/>
	<path style="fill:#FF9292;" d="M55.3,73.6L55.3,73.6c1.6,1.7,1.5,4.2,0,5.7c-0.1,0.1-0.1,0.1-0.2,0.2c-1.6,1.6-4.1,1.6-5.7,0
		c0,0,0,0-0.1-0.1c-1.6-1.6-1.6-4.1,0-5.7c0.1-0.1,0.1-0.1,0.2-0.2C51.2,72,53.8,72,55.3,73.6z"/>
</g>
<circle style="fill:none;stroke:#FF9292;stroke-miterlimit:10;" cx="52.4" cy="50.1" r="46"/>
</svg>
