<svg width="26" height="34" viewBox="0 0 26 34" fill="none" xmlns="http://www.w3.org/2000/svg">
<rect opacity="0.1" y="1" width="26" height="26" rx="10" fill="#927DFC"/>
<path d="M14.9888 10.804C14.9888 10.1147 14.8641 9.56467 14.6148 9.154C14.3654 8.74333 13.9328 8.538 13.3168 8.538C12.8621 8.538 12.4881 8.68467 12.1948 8.978C11.9161 9.27133 11.7768 9.63067 11.7768 10.056C11.7768 10.4227 11.8721 10.738 12.0628 11.002C12.2534 11.266 12.5321 11.5813 12.8988 11.948C13.1921 12.256 13.4268 12.5273 13.6028 12.762C13.7934 12.9967 13.9328 13.2533 14.0208 13.532C14.1234 13.8107 14.1894 14.148 14.2188 14.544C14.2628 14.9253 14.2848 15.4093 14.2848 15.996H12.5468C12.5468 15.5267 12.5394 15.1527 12.5248 14.874C12.5101 14.5953 12.4588 14.3607 12.3708 14.17C12.2974 13.9647 12.1801 13.774 12.0188 13.598C11.8721 13.4073 11.6668 13.1653 11.4028 12.872C11.0068 12.432 10.6768 11.992 10.4128 11.552C10.1634 11.0973 10.0388 10.562 10.0388 9.946C10.0388 9.462 10.1268 9.022 10.3028 8.626C10.4788 8.23 10.7134 7.89267 11.0068 7.614C11.3148 7.32067 11.6668 7.09333 12.0628 6.932C12.4588 6.77067 12.8841 6.69 13.3388 6.69C14.5121 6.69 15.3554 7.064 15.8688 7.812C16.3968 8.56 16.6608 9.55733 16.6608 10.804H14.9888ZM13.3168 20C12.5541 20 12.1728 19.6113 12.1728 18.834C12.1728 18.4087 12.2681 18.108 12.4588 17.932C12.6641 17.7413 12.9501 17.646 13.3168 17.646C13.6834 17.646 13.9621 17.7413 14.1528 17.932C14.3581 18.108 14.4608 18.4087 14.4608 18.834C14.4608 19.6113 14.0794 20 13.3168 20Z" fill="#927DFC"/>
</svg>
