<svg width="18" height="18" viewBox="0 0 18 18" fill="none" xmlns="http://www.w3.org/2000/svg">
<circle cx="9" cy="9" r="9" fill="#1ABC9C"/>
<rect width="18" height="18" rx="5" fill="#1ABC9C"/>
<path d="M12.8485 4.17638C12.9329 4.15052 13.0323 4.17235 13.0961 4.2345C13.5701 4.70898 14.0444 5.18297 14.5186 5.65721C14.6142 5.74831 14.6173 5.91959 14.5217 6.01164C11.9349 8.59752 9.34946 11.1846 6.76239 13.7702C6.65848 13.868 6.47747 13.8469 6.39206 13.7346C5.3366 12.6782 4.28042 11.6223 3.22424 10.5664C3.12887 10.4741 3.13219 10.3037 3.22709 10.2124C3.70227 9.73768 4.17698 9.26273 4.65169 8.78779C4.74374 8.69906 4.90411 8.69859 4.99711 8.7866C5.47348 9.26202 5.94914 9.73863 6.42528 10.2145C6.51543 10.304 6.67461 10.3042 6.76524 10.2152C8.7305 8.24997 10.6958 6.28446 12.661 4.31943C12.7175 4.26511 12.7683 4.19583 12.8485 4.17638Z" fill="white"/>
</svg>
