<svg width="34" height="39" viewBox="0 0 34 39" fill="none" xmlns="http://www.w3.org/2000/svg">
    <path
        d="M18.31 0.49628C19.116 0.457577 19.975 0.558799 20.636 1.05895C21.257 1.49063 21.681 2.15552 21.848 2.8859C22.663 2.86804 23.45 3.29971 23.894 3.97353C24.311 4.54116 24.323 5.27849 24.314 5.95231C24.263 7.76933 24.316 9.58735 24.284 11.4044C24.181 11.7229 23.721 11.846 23.686 12.2032C23.623 14.437 22.876 16.7145 21.331 18.3757C21.24 18.8263 21.313 19.3016 21.296 19.7631C20.908 20.1382 20.501 20.4935 20.107 20.8626C20.103 20.3595 20.125 19.8554 20.087 19.3532C18.883 20.0578 17.441 20.2493 16.069 20.0737L16.008 20.0241C15.336 19.9566 14.706 19.6708 14.122 19.3493C14.069 19.8702 14.099 20.3942 14.092 20.9172C13.699 20.6264 13.297 20.3466 12.906 20.0528C12.9 19.517 12.925 18.9801 12.898 18.4452C12.763 18.1743 12.496 17.9927 12.328 17.7406C11.171 16.1757 10.597 14.2356 10.518 12.3094C10.538 11.9224 10.142 11.7358 9.91699 11.4848C9.89399 10.2354 9.91899 8.98697 9.90399 7.73758C9.86499 6.94368 9.90499 6.12101 10.215 5.37674C10.528 4.51735 11.157 3.81971 11.854 3.24216C12.637 2.63781 13.617 2.30239 14.608 2.27956C15.439 2.26964 16.271 2.31628 17.102 2.27956C17.437 2.27063 17.782 2.15452 18.001 1.89155C18.357 1.5204 18.3 0.968646 18.31 0.49628ZM19.39 1.7933C19.139 2.6775 18.316 3.36323 17.392 3.4446C16.295 3.51605 15.189 3.39101 14.096 3.53491C13.055 3.70162 12.17 4.40819 11.614 5.27353C11.235 5.85804 11.108 6.55666 11.096 7.24139C11.084 8.33498 11.098 9.42758 11.09 10.5212C11.095 10.6809 11.082 10.8477 11.136 11.0025C11.321 11.2039 11.535 11.3776 11.715 11.584C11.703 12.7788 11.875 13.9806 12.28 15.1079C12.721 16.3206 13.455 17.4767 14.546 18.21C15.75 19.0148 17.333 19.128 18.693 18.6834C20.17 18.1763 21.221 16.8654 21.775 15.4582C22.305 14.2177 22.467 12.8661 22.523 11.5314C22.711 11.3309 22.977 11.1781 23.088 10.9221C23.16 9.17055 23.045 7.41506 23.111 5.66353C23.122 5.22887 23.088 4.73964 22.738 4.42903C22.212 3.88323 21.385 4.10651 20.71 4.06185C20.71 3.52399 20.713 2.94048 20.387 2.48101C20.148 2.15155 19.814 1.84292 19.39 1.7933Z"
        fill="#C4C4C4" />
    <path
        d="M14.9417 5.90835C15.4457 5.80316 15.9877 5.88552 16.5057 5.86568C16.5197 6.31224 16.4517 6.81736 16.7547 7.19148C16.9867 7.52094 17.4017 7.644 17.7907 7.644C18.7947 7.66285 19.7987 7.63209 20.8027 7.65789C21.4127 7.67972 21.9737 8.05285 22.2687 8.57484C22.6137 9.19804 22.4557 9.93338 22.4927 10.6112C22.0967 10.6102 21.7017 10.6102 21.3067 10.6112C21.2957 10.1507 21.3507 9.68232 21.2477 9.2298C21.1557 9.01644 20.9397 8.84377 20.6977 8.84972C19.6377 8.7872 18.5747 8.85171 17.5137 8.814C16.6497 8.76835 15.8217 8.20865 15.5007 7.40384C15.4737 7.39888 15.4197 7.38797 15.3927 7.383C15.1117 7.85736 14.7517 8.28209 14.5007 8.7743C14.1137 8.91819 13.6937 8.78224 13.2987 8.87751C13.0887 8.9698 12.9107 9.1772 12.9117 9.41537C12.8967 9.81331 12.9197 10.2112 12.9137 10.6092C12.5137 10.6419 12.1127 10.632 11.7117 10.6241C11.7127 10.1567 11.6867 9.68827 11.7257 9.22186C11.7807 8.63339 12.1827 8.11735 12.6977 7.84148C13.0347 7.66285 13.4237 7.65491 13.7957 7.62216C14.1757 7.04957 14.5587 6.47896 14.9417 5.90835Z"
        fill="#C4C4C4" />
    <path
        d="M21.4299 20.7325C22.5939 20.8119 23.6439 21.588 24.0879 22.6538C24.2569 23.0924 24.2959 23.5648 24.2949 24.0312C24.3179 25.3133 24.3029 26.5944 24.2929 27.8766C22.9299 27.9113 21.5669 27.8905 20.2049 27.8756C20.0099 27.8915 19.7639 27.8349 19.6209 28.0026C19.0229 28.603 18.4219 29.1984 17.8179 29.7918C17.6709 29.904 17.7009 30.1044 17.6909 30.2662C17.6899 31.459 17.7419 32.6518 17.6859 33.8447C17.2949 33.8109 16.9009 33.8804 16.5119 33.8308C16.4489 33.4041 16.5069 32.9724 16.5069 32.5437C16.5099 31.7855 16.5059 31.0273 16.5099 30.2702C16.4979 30.1074 16.5289 29.907 16.3829 29.7938C15.8849 29.2957 15.3769 28.8074 14.8739 28.3142C14.6759 28.1296 14.5179 27.825 14.1969 27.8786C12.7699 27.8835 11.3419 27.8607 9.91387 27.8925C9.84187 26.6054 9.93987 25.3163 9.90487 24.0282C9.90287 23.5568 9.94287 23.0795 10.1219 22.6389C10.5409 21.6356 11.5139 20.8784 12.6079 20.7623C12.9129 21.0104 13.2229 21.2516 13.5229 21.5066C13.4559 22.1447 13.5369 22.7857 13.5129 23.4258C13.4799 24.5115 13.4959 25.5981 13.4909 26.6848C13.9849 26.7195 14.4809 26.6887 14.9749 26.7135C15.6569 27.3893 16.3299 28.0751 17.0159 28.7459C17.0579 28.7459 17.1429 28.7459 17.1849 28.7459C17.8689 28.0731 18.5569 27.4022 19.2229 26.7125C19.7179 26.6838 20.2139 26.7225 20.7089 26.6838C20.7329 24.9719 20.6589 23.2601 20.7089 21.5483C20.9379 21.2664 21.1749 20.9916 21.4299 20.7325ZM11.3039 22.9286C11.0629 23.3832 11.0899 23.9151 11.0929 24.4142C11.1269 25.1744 11.1099 25.9345 11.1009 26.6957C11.4979 26.7056 11.8949 26.7036 12.2909 26.7006C12.3439 25.7738 12.2639 24.8459 12.2899 23.919C12.3129 23.2968 12.3119 22.6746 12.3039 22.0524C11.8749 22.2062 11.5199 22.5327 11.3039 22.9286ZM21.8899 22.622C21.8949 23.9766 21.8909 25.3302 21.8909 26.6848C22.2889 26.7165 22.6889 26.6957 23.0869 26.6808C23.1129 25.6596 23.1269 24.6355 23.0879 23.6154C23.0599 22.9128 22.5429 22.3481 21.9439 22.0335C21.9129 22.228 21.8869 22.4245 21.8899 22.622Z"
        fill="#C4C4C4" />
    <path
        d="M14.1064 32.6555C14.5014 32.6565 14.8964 32.6565 15.2924 32.6555C15.2914 33.0515 15.2934 33.4474 15.2874 33.8434C14.8944 33.8275 14.5004 33.8295 14.1064 33.8325C14.1074 33.4405 14.1074 33.0475 14.1064 32.6555Z"
        fill="#C4C4C4" />
    <path
        d="M19.5118 32.6431C21.5048 32.6957 23.4968 32.6143 25.4898 32.65C25.4928 33.044 25.4918 33.438 25.4928 33.8329C23.4968 33.8548 21.5028 33.8369 19.5068 33.8329C19.5078 33.436 19.5058 33.039 19.5118 32.6431Z"
        fill="#C4C4C4" />
    <path
        d="M8.14528 23.4726C8.80428 23.1957 9.45928 22.9079 10.1223 22.639C9.94329 23.0796 9.90329 23.5569 9.90529 24.0283C9.17729 24.2903 8.49028 24.6624 7.74028 24.8658C6.61628 25.1923 5.51928 25.628 4.50228 26.2065C3.66128 26.7236 2.80028 27.317 2.32828 28.2081C2.13028 28.5624 2.09228 28.9732 2.09228 29.3712C2.09228 30.561 2.09328 31.7519 2.09128 32.9427C2.14228 34.8292 2.06728 36.7147 2.09228 38.6022C1.69728 38.6032 1.30228 38.6022 0.907279 38.6012C0.877279 35.758 0.924279 32.9149 0.904279 30.0708C0.872279 29.3275 0.838279 28.5436 1.16628 27.8529C1.65828 26.7573 2.61628 25.9555 3.62028 25.3332C4.31028 24.9323 5.01628 24.5552 5.76728 24.2803C6.53328 23.935 7.36828 23.7891 8.14528 23.4726Z"
        fill="#C4C4C4" />
    <path
        d="M24.0879 22.6535C25.0009 22.9909 25.8689 23.4444 26.8049 23.7233C28.0939 24.1133 29.3529 24.6154 30.5169 25.2942C31.5759 25.9194 32.5669 26.7758 33.0609 27.92C33.3989 28.7585 33.2859 29.6824 33.3149 30.5637C33.2549 33.2411 33.3209 35.9195 33.3059 38.5959C32.9029 38.6038 32.4999 38.6048 32.0979 38.5989C32.0999 36.5834 32.1199 34.5669 32.1029 32.5514C32.0439 31.3913 32.1459 30.2312 32.0969 29.0721C32.0849 28.3527 31.6469 27.7255 31.1409 27.2462C29.7679 26.0345 28.0339 25.317 26.2869 24.8149C25.5899 24.6412 24.9699 24.2651 24.2949 24.0309C24.2959 23.5645 24.2569 23.0921 24.0879 22.6535Z"
        fill="#C4C4C4" />
    <path
        d="M5.20508 34.0734C5.55208 33.9206 5.88908 33.7479 6.22908 33.5782C6.44208 34.004 6.68508 34.4168 6.86508 34.8574C6.97608 36.1018 6.86908 37.3542 6.89308 38.6016C6.49508 38.6036 6.09708 38.6036 5.69908 38.5976C5.66008 37.5408 5.72508 36.4849 5.70808 35.428C5.71608 34.9229 5.28908 34.5567 5.20508 34.0734Z"
        fill="#C4C4C4" />
    <path
        d="M27.337 34.8524C27.517 34.4138 27.758 34.002 27.972 33.5782C28.31 33.7489 28.649 33.9216 28.998 34.0695C28.938 34.5597 28.488 34.9179 28.512 35.426C28.481 36.4829 28.484 37.5398 28.507 38.5966C28.107 38.6046 27.707 38.6046 27.308 38.6016C27.336 37.3522 27.219 36.0979 27.337 34.8524Z"
        fill="#C4C4C4" />
</svg>
