<svg width="285" height="246" viewBox="0 0 285 246" fill="none" xmlns="http://www.w3.org/2000/svg">
<path opacity="0.1" d="M25.4608 217.507C25.7115 216.714 26.2083 216.021 26.8792 215.53C27.55 215.038 28.3601 214.773 29.1918 214.773C30.0234 214.773 30.8335 215.038 31.5044 215.53C32.1752 216.021 32.6721 216.714 32.9228 217.507C33.4968 219.399 35.7928 219.294 35.7928 219.294C35.7928 219.294 38.0928 219.394 38.6628 217.507C38.9135 216.714 39.4103 216.021 40.0812 215.53C40.752 215.038 41.5621 214.773 42.3938 214.773C43.2254 214.773 44.0355 215.038 44.7064 215.53C45.3772 216.021 45.8741 216.714 46.1248 217.507C46.6998 219.399 48.9958 219.294 48.9958 219.294C48.9958 219.294 51.2958 219.394 51.8658 217.507C52.1165 216.714 52.6133 216.021 53.2842 215.53C53.955 215.038 54.7651 214.773 55.5968 214.773C56.4284 214.773 57.2385 215.038 57.9094 215.53C58.5802 216.021 59.0771 216.714 59.3278 217.507C59.9018 219.399 62.1978 219.294 62.1978 219.294C62.1978 219.294 64.4978 219.394 65.0688 217.507C65.3194 216.714 65.8163 216.021 66.4872 215.53C67.1581 215.038 67.9681 214.773 68.7998 214.773C69.6314 214.773 70.4415 215.038 71.1124 215.53C71.7832 216.021 72.2801 216.714 72.5308 217.507C73.1048 219.399 75.4008 219.294 75.4008 219.294C75.4008 219.294 77.7008 219.394 78.2708 217.507C78.5215 216.714 79.0183 216.021 79.6892 215.53C80.36 215.038 81.1701 214.773 82.0018 214.773C82.8334 214.773 83.6435 215.038 84.3144 215.53C84.9852 216.021 85.4821 216.714 85.7328 217.507C86.3068 219.399 88.6028 219.294 88.6028 219.294C88.6028 219.294 90.9028 219.394 91.4728 217.507C91.7235 216.714 92.2203 216.021 92.8912 215.53C93.562 215.038 94.3721 214.773 95.2038 214.773C96.0354 214.773 96.8455 215.038 97.5164 215.53C98.1872 216.021 98.6841 216.714 98.9348 217.507C99.5098 219.399 101.806 219.294 101.806 219.294C101.806 219.294 104.106 219.394 104.676 217.507C104.926 216.714 105.423 216.021 106.094 215.53C106.765 215.038 107.575 214.773 108.407 214.773C109.238 214.773 110.048 215.038 110.719 215.53C111.39 216.021 111.887 216.714 112.138 217.507C112.712 219.399 115.008 219.294 115.008 219.294C115.008 219.294 117.308 219.394 117.879 217.507C118.129 216.714 118.626 216.021 119.297 215.53C119.968 215.038 120.778 214.773 121.61 214.773C122.441 214.773 123.251 215.038 123.922 215.53C124.593 216.021 125.09 216.714 125.341 217.507C125.915 219.399 128.211 219.294 128.211 219.294C128.211 219.294 130.511 219.394 131.081 217.507C131.331 216.714 131.828 216.021 132.499 215.53C133.17 215.038 133.98 214.773 134.812 214.773C135.643 214.773 136.453 215.038 137.124 215.53C137.795 216.021 138.292 216.714 138.543 217.507C139.117 219.399 141.413 219.294 141.413 219.294C141.413 219.294 143.713 219.394 144.283 217.507C144.533 216.714 145.03 216.021 145.701 215.53C146.372 215.038 147.182 214.773 148.014 214.773C148.845 214.773 149.655 215.038 150.326 215.53C150.997 216.021 151.494 216.714 151.745 217.507C152.32 219.399 154.616 219.294 154.616 219.294C154.616 219.294 156.916 219.394 157.486 217.507C157.736 216.714 158.233 216.021 158.904 215.53C159.575 215.038 160.385 214.773 161.217 214.773C162.048 214.773 162.858 215.038 163.529 215.53C164.2 216.021 164.697 216.714 164.948 217.507C165.522 219.399 167.818 219.294 167.818 219.294C167.818 219.294 170.118 219.394 170.689 217.507C170.939 216.714 171.436 216.021 172.107 215.53C172.778 215.038 173.588 214.773 174.42 214.773C175.251 214.773 176.061 215.038 176.732 215.53C177.403 216.021 177.9 216.714 178.151 217.507C178.725 219.399 181.021 219.294 181.021 219.294C181.021 219.294 183.321 219.394 183.891 217.507C184.141 216.714 184.638 216.021 185.309 215.53C185.98 215.038 186.79 214.773 187.622 214.773C188.453 214.773 189.263 215.038 189.934 215.53C190.605 216.021 191.102 216.714 191.353 217.507C191.927 219.399 194.223 219.294 194.223 219.294C194.223 219.294 196.523 219.394 197.093 217.507C197.343 216.714 197.84 216.021 198.511 215.53C199.182 215.038 199.992 214.773 200.824 214.773C201.655 214.773 202.465 215.038 203.136 215.53C203.807 216.021 204.304 216.714 204.555 217.507C205.13 219.399 207.426 219.294 207.426 219.294C207.426 219.294 209.726 219.394 210.296 217.507C210.546 216.713 211.043 216.02 211.713 215.528C212.384 215.036 213.195 214.771 214.027 214.771C214.859 214.771 215.669 215.036 216.34 215.528C217.011 216.02 217.508 216.713 217.758 217.507C218.332 219.399 220.628 219.294 220.628 219.294C220.628 219.294 222.928 219.394 223.498 217.507C223.748 216.714 224.245 216.021 224.916 215.53C225.587 215.038 226.397 214.773 227.229 214.773C228.06 214.773 228.87 215.038 229.541 215.53C230.212 216.021 230.709 216.714 230.96 217.507C231.534 219.399 233.83 219.294 233.83 219.294C233.83 219.294 236.13 219.394 236.7 217.507C236.95 216.714 237.447 216.021 238.118 215.53C238.789 215.038 239.599 214.773 240.431 214.773C241.262 214.773 242.072 215.038 242.743 215.53C243.414 216.021 243.911 216.714 244.162 217.507C244.736 219.399 247.032 219.294 247.032 219.294C247.032 219.294 249.332 219.394 249.902 217.507C250.152 216.714 250.649 216.021 251.32 215.53C251.991 215.038 252.801 214.773 253.633 214.773C254.464 214.773 255.274 215.038 255.945 215.53C256.616 216.021 257.113 216.714 257.364 217.507C257.939 219.399 260.234 219.294 260.234 219.294H260.773C243.083 152.219 242.788 122.508 242.788 122.508L158.558 151.191L141.945 144.952L125.328 151.191L41.1118 122.509C41.1118 122.509 40.8168 152.167 23.1348 219.261C23.6522 219.23 24.1491 219.048 24.5629 218.735C24.9768 218.423 25.2891 217.996 25.4608 217.507Z" fill="#FF5757"/>
<path d="M274.244 13.087H10C4.47715 13.087 0 17.5642 0 23.087V28.527C0 34.0499 4.47715 38.527 10 38.527H274.244C279.767 38.527 284.244 34.0499 284.244 28.527V23.087C284.244 17.5642 279.767 13.087 274.244 13.087Z" fill="#1A0F91"/>
<path d="M272.026 29.263H12.2175C11.3587 29.2423 10.543 28.8827 9.94836 28.2628C9.35372 27.6428 9.02843 26.8129 9.04347 25.954C9.02843 25.0951 9.35372 24.2651 9.94836 23.6452C10.543 23.0253 11.3587 22.6657 12.2175 22.645H272.026C272.885 22.6657 273.701 23.0253 274.296 23.6452C274.89 24.2651 275.216 25.0951 275.2 25.954C275.216 26.8129 274.89 27.6428 274.296 28.2628C273.701 28.8827 272.885 29.2423 272.026 29.263Z" fill="#FFEDED"/>
<path d="M25.176 0C17.235 0 14.588 9.7 14.588 15.881C14.588 22.062 11.353 26.175 9 26.175H68.409V0H25.176Z" fill="#E6E7E8"/>
<path d="M258.109 0C266.05 0 268.697 9.7 268.697 15.881C268.697 22.062 271.932 26.175 274.285 26.175H214.875V0H258.109Z" fill="#E6E7E8"/>
<path d="M15.1055 10.895C20.5635 9.206 33.5855 6.367 43.1155 13.854C50.7595 19.86 49.5065 9.087 47.4395 0H25.1755C19.1815 0 16.2055 5.528 15.1055 10.895Z" fill="#CFD0D2"/>
<path d="M268.487 10.895C263.03 9.206 250.007 6.367 240.477 13.854C232.833 19.86 234.087 9.087 236.153 0H258.417C264.411 0 267.388 5.528 268.487 10.895Z" fill="#CFD0D2"/>
<path fill-rule="evenodd" clip-rule="evenodd" d="M141.641 0H24.3711C25.4191 0.01 37.8211 0.777 37.8211 31.764V85.0255C44.6183 85.4492 50 91.0961 50 98C50 104.904 44.6183 110.551 37.8211 110.974V245.345C37.8211 245.345 39.8271 245.434 40.3291 243.828C40.5643 243.151 41.0046 242.564 41.5888 242.148C42.173 241.732 42.8722 241.509 43.5891 241.509C44.306 241.509 45.0052 241.732 45.5894 242.148C46.1736 242.564 46.6139 243.151 46.8491 243.828C47.3491 245.434 49.3571 245.345 49.3571 245.345C49.3571 245.345 51.3631 245.434 51.8651 243.828C52.1005 243.151 52.5408 242.564 53.1249 242.149C53.709 241.734 54.4079 241.511 55.1246 241.511C55.8413 241.511 56.5402 241.734 57.1243 242.149C57.7084 242.564 58.1487 243.151 58.3841 243.828C58.8841 245.434 60.8921 245.345 60.8921 245.345C60.8921 245.345 62.8981 245.434 63.4001 243.828C63.6355 243.151 64.0758 242.564 64.6599 242.149C65.244 241.734 65.9429 241.511 66.6596 241.511C67.3763 241.511 68.0752 241.734 68.6593 242.149C69.2434 242.564 69.6837 243.151 69.9191 243.828C70.4191 245.434 72.4271 245.345 72.4271 245.345C72.4271 245.345 74.4331 245.434 74.9351 243.828C75.1705 243.151 75.6108 242.564 76.1949 242.149C76.779 241.734 77.4779 241.511 78.1946 241.511C78.9113 241.511 79.6102 241.734 80.1943 242.149C80.7784 242.564 81.2187 243.151 81.4541 243.828C81.9541 245.434 83.9621 245.345 83.9621 245.345C83.9621 245.345 85.9681 245.434 86.4701 243.828C86.7055 243.151 87.1458 242.564 87.7299 242.149C88.314 241.734 89.0129 241.511 89.7296 241.511C90.4463 241.511 91.1452 241.734 91.7293 242.149C92.3134 242.564 92.7537 243.151 92.9891 243.828C93.4891 245.434 95.4971 245.345 95.4971 245.345C95.4971 245.345 97.5031 245.434 98.0051 243.828C98.2403 243.151 98.6806 242.564 99.2648 242.148C99.849 241.732 100.548 241.509 101.265 241.509C101.982 241.509 102.681 241.732 103.265 242.148C103.85 242.564 104.29 243.151 104.525 243.828C105.025 245.434 107.033 245.345 107.033 245.345C107.033 245.345 109.039 245.434 109.541 243.828C109.776 243.151 110.217 242.564 110.801 242.148C111.385 241.732 112.084 241.509 112.801 241.509C113.518 241.509 114.217 241.732 114.801 242.148C115.386 242.564 115.826 243.151 116.061 243.828C116.561 245.434 118.569 245.345 118.569 245.345C118.569 245.345 120.575 245.434 121.077 243.828C121.312 243.151 121.753 242.564 122.337 242.148C122.921 241.732 123.62 241.509 124.337 241.509C125.054 241.509 125.753 241.732 126.337 242.148C126.922 242.564 127.362 243.151 127.597 243.828C128.097 245.434 130.105 245.345 130.105 245.345C130.105 245.345 132.111 245.434 132.613 243.828C132.848 243.151 133.289 242.564 133.873 242.148C134.457 241.732 135.156 241.509 135.873 241.509C136.59 241.509 137.289 241.732 137.873 242.148C138.458 242.564 138.898 243.151 139.133 243.828C139.633 245.434 141.641 245.345 141.641 245.345C141.641 245.345 143.647 245.434 144.149 243.828C144.384 243.151 144.825 242.564 145.409 242.148C145.993 241.732 146.692 241.509 147.409 241.509C148.126 241.509 148.825 241.732 149.409 242.148C149.994 242.564 150.434 243.151 150.669 243.828C151.169 245.434 153.177 245.345 153.177 245.345C153.177 245.345 155.183 245.434 155.685 243.828C155.92 243.151 156.361 242.564 156.945 242.148C157.529 241.732 158.228 241.509 158.945 241.509C159.662 241.509 160.361 241.732 160.945 242.148C161.53 242.564 161.97 243.151 162.205 243.828C162.705 245.434 164.713 245.345 164.713 245.345C164.713 245.345 166.719 245.434 167.221 243.828C167.456 243.151 167.897 242.564 168.481 242.148C169.065 241.732 169.764 241.509 170.481 241.509C171.198 241.509 171.897 241.732 172.481 242.148C173.066 242.564 173.506 243.151 173.741 243.828C174.241 245.434 176.249 245.345 176.249 245.345C176.249 245.345 178.255 245.434 178.757 243.828C178.992 243.151 179.433 242.564 180.017 242.148C180.601 241.732 181.3 241.509 182.017 241.509C182.734 241.509 183.433 241.732 184.017 242.148C184.602 242.564 185.042 243.151 185.277 243.828C185.777 245.434 187.785 245.345 187.785 245.345C187.785 245.345 189.791 245.434 190.293 243.828C190.528 243.151 190.969 242.564 191.553 242.148C192.137 241.732 192.836 241.509 193.553 241.509C194.27 241.509 194.969 241.732 195.553 242.148C196.138 242.564 196.578 243.151 196.813 243.828C197.313 245.434 199.321 245.345 199.321 245.345C199.321 245.345 201.327 245.434 201.829 243.828C202.065 243.151 202.505 242.564 203.089 242.149C203.673 241.734 204.372 241.511 205.089 241.511C205.805 241.511 206.504 241.734 207.088 242.149C207.672 242.564 208.113 243.151 208.348 243.828C208.848 245.434 210.856 245.345 210.856 245.345C210.856 245.345 212.862 245.434 213.364 243.828C213.6 243.151 214.04 242.564 214.624 242.149C215.208 241.734 215.907 241.511 216.624 241.511C217.34 241.511 218.039 241.734 218.623 242.149C219.207 242.564 219.648 243.151 219.883 243.828C220.383 245.434 222.391 245.345 222.391 245.345C222.391 245.345 224.397 245.434 224.899 243.828C225.135 243.151 225.575 242.564 226.159 242.149C226.743 241.734 227.442 241.511 228.159 241.511C228.875 241.511 229.574 241.734 230.158 242.149C230.742 242.564 231.183 243.151 231.418 243.828C231.918 245.434 233.926 245.345 233.926 245.345C233.926 245.345 235.931 245.434 236.434 243.828C236.67 243.151 237.11 242.564 237.694 242.149C238.278 241.734 238.977 241.511 239.694 241.511C240.41 241.511 241.109 241.734 241.693 242.149C242.277 242.564 242.718 243.151 242.953 243.828C243.453 245.434 245.461 245.345 245.461 245.345V110.752C239.497 109.571 235 104.311 235 98C235 91.6891 239.497 86.4286 245.461 85.2478V31.764C245.461 0.778 257.861 0.01 258.911 0H141.641ZM224 98.5C224 100.433 222.433 102 220.5 102C218.567 102 217 100.433 217 98.5C217 96.567 218.567 95 220.5 95C222.433 95 224 96.567 224 98.5ZM203.5 102C205.433 102 207 100.433 207 98.5C207 96.567 205.433 95 203.5 95C201.567 95 200 96.567 200 98.5C200 100.433 201.567 102 203.5 102ZM190 98.5C190 100.433 188.433 102 186.5 102C184.567 102 183 100.433 183 98.5C183 96.567 184.567 95 186.5 95C188.433 95 190 96.567 190 98.5ZM169.5 102C171.433 102 173 100.433 173 98.5C173 96.567 171.433 95 169.5 95C167.567 95 166 96.567 166 98.5C166 100.433 167.567 102 169.5 102ZM156 98.5C156 100.433 154.433 102 152.5 102C150.567 102 149 100.433 149 98.5C149 96.567 150.567 95 152.5 95C154.433 95 156 96.567 156 98.5ZM135.5 102C137.433 102 139 100.433 139 98.5C139 96.567 137.433 95 135.5 95C133.567 95 132 96.567 132 98.5C132 100.433 133.567 102 135.5 102ZM122 98.5C122 100.433 120.433 102 118.5 102C116.567 102 115 100.433 115 98.5C115 96.567 116.567 95 118.5 95C120.433 95 122 96.567 122 98.5ZM101.5 102C103.433 102 105 100.433 105 98.5C105 96.567 103.433 95 101.5 95C99.567 95 98 96.567 98 98.5C98 100.433 99.567 102 101.5 102ZM88 98.5C88 100.433 86.433 102 84.5 102C82.567 102 81 100.433 81 98.5C81 96.567 82.567 95 84.5 95C86.433 95 88 96.567 88 98.5ZM67.5 102C69.433 102 71 100.433 71 98.5C71 96.567 69.433 95 67.5 95C65.567 95 64 96.567 64 98.5C64 100.433 65.567 102 67.5 102Z" fill="white"/>
</svg>
