<svg width="285" height="326" viewBox="0 0 285 326" fill="none" xmlns="http://www.w3.org/2000/svg">
<path opacity="0.1" d="M25.4608 277.507C25.7115 276.714 26.2083 276.022 26.8792 275.53C27.55 275.039 28.3601 274.774 29.1918 274.774C30.0234 274.774 30.8335 275.039 31.5044 275.53C32.1752 276.022 32.6721 276.714 32.9228 277.507C33.4968 279.399 35.7928 279.294 35.7928 279.294C35.7928 279.294 38.0928 279.394 38.6628 277.507C38.9135 276.714 39.4103 276.022 40.0812 275.53C40.752 275.039 41.5621 274.774 42.3938 274.774C43.2254 274.774 44.0355 275.039 44.7064 275.53C45.3772 276.022 45.8741 276.714 46.1248 277.507C46.6998 279.399 48.9958 279.294 48.9958 279.294C48.9958 279.294 51.2958 279.394 51.8658 277.507C52.1165 276.714 52.6133 276.022 53.2842 275.53C53.955 275.039 54.7651 274.774 55.5968 274.774C56.4284 274.774 57.2385 275.039 57.9094 275.53C58.5802 276.022 59.0771 276.714 59.3278 277.507C59.9018 279.399 62.1978 279.294 62.1978 279.294C62.1978 279.294 64.4978 279.394 65.0688 277.507C65.3194 276.714 65.8163 276.022 66.4872 275.53C67.1581 275.039 67.9681 274.774 68.7998 274.774C69.6314 274.774 70.4415 275.039 71.1124 275.53C71.7832 276.022 72.2801 276.714 72.5308 277.507C73.1048 279.399 75.4008 279.294 75.4008 279.294C75.4008 279.294 77.7008 279.394 78.2708 277.507C78.5215 276.714 79.0183 276.022 79.6892 275.53C80.36 275.039 81.1701 274.774 82.0018 274.774C82.8334 274.774 83.6435 275.039 84.3144 275.53C84.9852 276.022 85.4821 276.714 85.7328 277.507C86.3068 279.399 88.6028 279.294 88.6028 279.294C88.6028 279.294 90.9028 279.394 91.4728 277.507C91.7235 276.714 92.2203 276.022 92.8912 275.53C93.562 275.039 94.3721 274.774 95.2038 274.774C96.0354 274.774 96.8455 275.039 97.5164 275.53C98.1872 276.022 98.6841 276.714 98.9348 277.507C99.5098 279.399 101.806 279.294 101.806 279.294C101.806 279.294 104.106 279.394 104.676 277.507C104.926 276.714 105.423 276.022 106.094 275.53C106.765 275.039 107.575 274.774 108.407 274.774C109.238 274.774 110.048 275.039 110.719 275.53C111.39 276.022 111.887 276.714 112.138 277.507C112.712 279.399 115.008 279.294 115.008 279.294C115.008 279.294 117.308 279.394 117.879 277.507C118.129 276.714 118.626 276.022 119.297 275.53C119.968 275.039 120.778 274.774 121.61 274.774C122.441 274.774 123.251 275.039 123.922 275.53C124.593 276.022 125.09 276.714 125.341 277.507C125.915 279.399 128.211 279.294 128.211 279.294C128.211 279.294 130.511 279.394 131.081 277.507C131.331 276.714 131.828 276.022 132.499 275.53C133.17 275.039 133.98 274.774 134.812 274.774C135.643 274.774 136.453 275.039 137.124 275.53C137.795 276.022 138.292 276.714 138.543 277.507C139.117 279.399 141.413 279.294 141.413 279.294C141.413 279.294 143.713 279.394 144.283 277.507C144.533 276.714 145.03 276.022 145.701 275.53C146.372 275.039 147.182 274.774 148.014 274.774C148.845 274.774 149.655 275.039 150.326 275.53C150.997 276.022 151.494 276.714 151.745 277.507C152.32 279.399 154.616 279.294 154.616 279.294C154.616 279.294 156.916 279.394 157.486 277.507C157.736 276.714 158.233 276.022 158.904 275.53C159.575 275.039 160.385 274.774 161.217 274.774C162.048 274.774 162.858 275.039 163.529 275.53C164.2 276.022 164.697 276.714 164.948 277.507C165.522 279.399 167.818 279.294 167.818 279.294C167.818 279.294 170.118 279.394 170.689 277.507C170.939 276.714 171.436 276.022 172.107 275.53C172.778 275.039 173.588 274.774 174.42 274.774C175.251 274.774 176.061 275.039 176.732 275.53C177.403 276.022 177.9 276.714 178.151 277.507C178.725 279.399 181.021 279.294 181.021 279.294C181.021 279.294 183.321 279.394 183.891 277.507C184.141 276.714 184.638 276.022 185.309 275.53C185.98 275.039 186.79 274.774 187.622 274.774C188.453 274.774 189.263 275.039 189.934 275.53C190.605 276.022 191.102 276.714 191.353 277.507C191.927 279.399 194.223 279.294 194.223 279.294C194.223 279.294 196.523 279.394 197.093 277.507C197.343 276.714 197.84 276.022 198.511 275.53C199.182 275.039 199.992 274.774 200.824 274.774C201.655 274.774 202.465 275.039 203.136 275.53C203.807 276.022 204.304 276.714 204.555 277.507C205.13 279.399 207.426 279.294 207.426 279.294C207.426 279.294 209.726 279.394 210.296 277.507C210.546 276.714 211.043 276.02 211.713 275.528C212.384 275.036 213.195 274.771 214.027 274.771C214.859 274.771 215.669 275.036 216.34 275.528C217.011 276.02 217.508 276.714 217.758 277.507C218.332 279.399 220.628 279.294 220.628 279.294C220.628 279.294 222.928 279.394 223.498 277.507C223.748 276.714 224.245 276.022 224.916 275.53C225.587 275.039 226.397 274.774 227.229 274.774C228.06 274.774 228.87 275.039 229.541 275.53C230.212 276.022 230.709 276.714 230.96 277.507C231.534 279.399 233.83 279.294 233.83 279.294C233.83 279.294 236.13 279.394 236.7 277.507C236.95 276.714 237.447 276.022 238.118 275.53C238.789 275.039 239.599 274.774 240.431 274.774C241.262 274.774 242.072 275.039 242.743 275.53C243.414 276.022 243.911 276.714 244.162 277.507C244.736 279.399 247.032 279.294 247.032 279.294C247.032 279.294 249.332 279.394 249.902 277.507C250.152 276.714 250.649 276.022 251.32 275.53C251.991 275.039 252.801 274.774 253.633 274.774C254.464 274.774 255.274 275.039 255.945 275.53C256.616 276.022 257.113 276.714 257.364 277.507C257.939 279.399 260.234 279.294 260.234 279.294H260.773C243.083 212.219 242.788 122.508 242.788 122.508L158.558 151.191L141.945 144.952L125.328 151.191L41.1118 122.509C41.1118 122.509 40.8168 212.167 23.1348 279.261C23.6522 279.231 24.1491 279.048 24.5629 278.736C24.9768 278.424 25.2891 277.996 25.4608 277.507Z" fill="#FF5757"/>
<path d="M274.244 13.087H10C4.47715 13.087 0 17.5642 0 23.087V28.527C0 34.0499 4.47715 38.527 10 38.527H274.244C279.767 38.527 284.244 34.0499 284.244 28.527V23.087C284.244 17.5642 279.767 13.087 274.244 13.087Z" fill="#1A0F91"/>
<path d="M272.026 29.263H12.2175C11.3587 29.2423 10.543 28.8827 9.94836 28.2628C9.35372 27.6429 9.02843 26.8129 9.04347 25.954C9.02843 25.0951 9.35372 24.2652 9.94836 23.6452C10.543 23.0253 11.3587 22.6657 12.2175 22.645H272.026C272.885 22.6657 273.701 23.0253 274.296 23.6452C274.89 24.2652 275.216 25.0951 275.2 25.954C275.216 26.8129 274.89 27.6429 274.296 28.2628C273.701 28.8827 272.885 29.2423 272.026 29.263Z" fill="#FFEDED"/>
<path d="M25.176 0C17.235 0 14.588 9.7 14.588 15.881C14.588 22.062 11.353 26.175 9 26.175H68.409V0H25.176Z" fill="#E6E7E8"/>
<path d="M258.109 0C266.05 0 268.697 9.7 268.697 15.881C268.697 22.062 271.932 26.175 274.285 26.175H214.875V0H258.109Z" fill="#E6E7E8"/>
<path d="M15.1055 10.895C20.5635 9.206 33.5855 6.367 43.1155 13.854C50.7595 19.86 49.5065 9.087 47.4395 0H25.1755C19.1815 0 16.2055 5.528 15.1055 10.895Z" fill="#CFD0D2"/>
<path d="M268.487 10.895C263.03 9.206 250.007 6.367 240.477 13.854C232.833 19.86 234.087 9.087 236.153 0H258.417C264.411 0 267.388 5.528 268.487 10.895Z" fill="#CFD0D2"/>
<path fill-rule="evenodd" clip-rule="evenodd" d="M141.641 0H24.3711C25.4191 0.01 37.8211 0.777 37.8211 31.764V95.0256C44.6178 95.4497 49.999 101.096 49.999 108C49.999 114.904 44.6178 120.55 37.8211 120.974V325.345C37.8211 325.345 39.8271 325.434 40.3291 323.828C40.5643 323.151 41.0046 322.564 41.5888 322.148C42.173 321.732 42.8722 321.509 43.5891 321.509C44.306 321.509 45.0052 321.732 45.5894 322.148C46.1736 322.564 46.6139 323.151 46.8491 323.828C47.3491 325.434 49.3571 325.345 49.3571 325.345C49.3571 325.345 51.3631 325.434 51.8651 323.828C52.1005 323.151 52.5408 322.564 53.1249 322.149C53.709 321.734 54.4079 321.511 55.1246 321.511C55.8413 321.511 56.5402 321.734 57.1243 322.149C57.7084 322.564 58.1487 323.151 58.3841 323.828C58.8841 325.434 60.8921 325.345 60.8921 325.345C60.8921 325.345 62.8981 325.434 63.4001 323.828C63.6355 323.151 64.0758 322.564 64.6599 322.149C65.244 321.734 65.9429 321.511 66.6596 321.511C67.3763 321.511 68.0752 321.734 68.6593 322.149C69.2434 322.564 69.6837 323.151 69.9191 323.828C70.4191 325.434 72.4271 325.345 72.4271 325.345C72.4271 325.345 74.4331 325.434 74.9351 323.828C75.1705 323.151 75.6108 322.564 76.1949 322.149C76.779 321.734 77.4779 321.511 78.1946 321.511C78.9113 321.511 79.6102 321.734 80.1943 322.149C80.7784 322.564 81.2187 323.151 81.4541 323.828C81.9541 325.434 83.9621 325.345 83.9621 325.345C83.9621 325.345 85.9681 325.434 86.4701 323.828C86.7055 323.151 87.1458 322.564 87.7299 322.149C88.314 321.734 89.0129 321.511 89.7296 321.511C90.4463 321.511 91.1452 321.734 91.7293 322.149C92.3134 322.564 92.7537 323.151 92.9891 323.828C93.4891 325.434 95.4971 325.345 95.4971 325.345C95.4971 325.345 97.5031 325.434 98.0051 323.828C98.2403 323.151 98.6806 322.564 99.2648 322.148C99.849 321.732 100.548 321.509 101.265 321.509C101.982 321.509 102.681 321.732 103.265 322.148C103.85 322.564 104.29 323.151 104.525 323.828C105.025 325.434 107.033 325.345 107.033 325.345C107.033 325.345 109.039 325.434 109.541 323.828C109.776 323.151 110.217 322.564 110.801 322.148C111.385 321.732 112.084 321.509 112.801 321.509C113.518 321.509 114.217 321.732 114.801 322.148C115.386 322.564 115.826 323.151 116.061 323.828C116.561 325.434 118.569 325.345 118.569 325.345C118.569 325.345 120.575 325.434 121.077 323.828C121.312 323.151 121.753 322.564 122.337 322.148C122.921 321.732 123.62 321.509 124.337 321.509C125.054 321.509 125.753 321.732 126.337 322.148C126.922 322.564 127.362 323.151 127.597 323.828C128.097 325.434 130.105 325.345 130.105 325.345C130.105 325.345 132.111 325.434 132.613 323.828C132.848 323.151 133.289 322.564 133.873 322.148C134.457 321.732 135.156 321.509 135.873 321.509C136.59 321.509 137.289 321.732 137.873 322.148C138.458 322.564 138.898 323.151 139.133 323.828C139.633 325.434 141.641 325.345 141.641 325.345C141.641 325.345 143.647 325.434 144.149 323.828C144.384 323.151 144.825 322.564 145.409 322.148C145.993 321.732 146.692 321.509 147.409 321.509C148.126 321.509 148.825 321.732 149.409 322.148C149.994 322.564 150.434 323.151 150.669 323.828C151.169 325.434 153.177 325.345 153.177 325.345C153.177 325.345 155.183 325.434 155.685 323.828C155.92 323.151 156.361 322.564 156.945 322.148C157.529 321.732 158.228 321.509 158.945 321.509C159.662 321.509 160.361 321.732 160.945 322.148C161.53 322.564 161.97 323.151 162.205 323.828C162.705 325.434 164.713 325.345 164.713 325.345C164.713 325.345 166.719 325.434 167.221 323.828C167.456 323.151 167.897 322.564 168.481 322.148C169.065 321.732 169.764 321.509 170.481 321.509C171.198 321.509 171.897 321.732 172.481 322.148C173.066 322.564 173.506 323.151 173.741 323.828C174.241 325.434 176.249 325.345 176.249 325.345C176.249 325.345 178.255 325.434 178.757 323.828C178.992 323.151 179.433 322.564 180.017 322.148C180.601 321.732 181.3 321.509 182.017 321.509C182.734 321.509 183.433 321.732 184.017 322.148C184.602 322.564 185.042 323.151 185.277 323.828C185.777 325.434 187.785 325.345 187.785 325.345C187.785 325.345 189.791 325.434 190.293 323.828C190.528 323.151 190.969 322.564 191.553 322.148C192.137 321.732 192.836 321.509 193.553 321.509C194.27 321.509 194.969 321.732 195.553 322.148C196.138 322.564 196.578 323.151 196.813 323.828C197.313 325.434 199.321 325.345 199.321 325.345C199.321 325.345 201.327 325.434 201.829 323.828C202.065 323.151 202.505 322.564 203.089 322.149C203.673 321.734 204.372 321.511 205.089 321.511C205.805 321.511 206.504 321.734 207.088 322.149C207.672 322.564 208.113 323.151 208.348 323.828C208.848 325.434 210.856 325.345 210.856 325.345C210.856 325.345 212.862 325.434 213.364 323.828C213.6 323.151 214.04 322.564 214.624 322.149C215.208 321.734 215.907 321.511 216.624 321.511C217.34 321.511 218.039 321.734 218.623 322.149C219.207 322.564 219.648 323.151 219.883 323.828C220.383 325.434 222.391 325.345 222.391 325.345C222.391 325.345 224.397 325.434 224.899 323.828C225.135 323.151 225.575 322.564 226.159 322.149C226.743 321.734 227.442 321.511 228.159 321.511C228.875 321.511 229.574 321.734 230.158 322.149C230.742 322.564 231.183 323.151 231.418 323.828C231.918 325.434 233.926 325.345 233.926 325.345C233.926 325.345 235.931 325.434 236.434 323.828C236.67 323.151 237.11 322.564 237.694 322.149C238.278 321.734 238.977 321.511 239.694 321.511C240.41 321.511 241.109 321.734 241.693 322.149C242.277 322.564 242.718 323.151 242.953 323.828C243.453 325.434 245.461 325.345 245.461 325.345V120.752C239.496 119.572 234.999 114.311 234.999 108C234.999 101.689 239.496 96.428 245.461 95.2476V31.764C245.461 0.778 257.861 0.01 258.911 0H141.641ZM223.999 108.5C223.999 110.433 222.432 112 220.499 112C218.566 112 216.999 110.433 216.999 108.5C216.999 106.567 218.566 105 220.499 105C222.432 105 223.999 106.567 223.999 108.5ZM203.499 112C205.432 112 206.999 110.433 206.999 108.5C206.999 106.567 205.432 105 203.499 105C201.566 105 199.999 106.567 199.999 108.5C199.999 110.433 201.566 112 203.499 112ZM189.999 108.5C189.999 110.433 188.432 112 186.499 112C184.566 112 182.999 110.433 182.999 108.5C182.999 106.567 184.566 105 186.499 105C188.432 105 189.999 106.567 189.999 108.5ZM169.499 112C171.432 112 172.999 110.433 172.999 108.5C172.999 106.567 171.432 105 169.499 105C167.566 105 165.999 106.567 165.999 108.5C165.999 110.433 167.566 112 169.499 112ZM155.999 108.5C155.999 110.433 154.432 112 152.499 112C150.566 112 148.999 110.433 148.999 108.5C148.999 106.567 150.566 105 152.499 105C154.432 105 155.999 106.567 155.999 108.5ZM135.499 112C137.432 112 138.999 110.433 138.999 108.5C138.999 106.567 137.432 105 135.499 105C133.566 105 131.999 106.567 131.999 108.5C131.999 110.433 133.566 112 135.499 112ZM121.999 108.5C121.999 110.433 120.432 112 118.499 112C116.566 112 114.999 110.433 114.999 108.5C114.999 106.567 116.566 105 118.499 105C120.432 105 121.999 106.567 121.999 108.5ZM101.499 112C103.432 112 104.999 110.433 104.999 108.5C104.999 106.567 103.432 105 101.499 105C99.566 105 97.999 106.567 97.999 108.5C97.999 110.433 99.566 112 101.499 112ZM87.999 108.5C87.999 110.433 86.432 112 84.499 112C82.566 112 80.999 110.433 80.999 108.5C80.999 106.567 82.566 105 84.499 105C86.432 105 87.999 106.567 87.999 108.5ZM67.499 112C69.432 112 70.999 110.433 70.999 108.5C70.999 106.567 69.432 105 67.499 105C65.566 105 63.999 106.567 63.999 108.5C63.999 110.433 65.566 112 67.499 112Z" fill="white"/>
</svg>
