<svg width="375" height="220" viewBox="0 0 375 220" fill="none" xmlns="http://www.w3.org/2000/svg">
<g filter="url(#filter0_d_6701_272)">
<rect x="30" y="28" width="315" height="160" rx="15" fill="white"/>
<rect x="30.5" y="28.5" width="314" height="159" rx="14.5" stroke="#E6F6FD"/>
</g>
<path d="M54.3768 49.2535C54.8856 48.9146 55.4986 48.7935 56.0954 48.7914C64.5586 48.7998 73.0218 48.7862 81.485 48.7956C82.143 48.8046 82.8036 48.7551 83.4591 48.8383C84.2 48.9498 84.8849 49.3746 85.3578 49.9746C85.8216 50.5541 86.0805 51.3004 86.0937 52.0541C86.0962 52.5693 86.0906 53.0851 86.0977 53.6009C80.8518 53.603 75.6058 53.5998 70.3599 53.6025C68.7642 53.5535 67.1649 53.5072 65.5757 53.3304C64.4625 53.1383 63.3493 52.8572 62.2128 52.9098C61.7227 52.9351 61.2286 52.953 60.7481 53.063C60.5108 53.1319 60.2681 53.2335 60.0941 53.4209C59.9398 53.5741 59.9211 53.8593 60.0739 54.0198C60.307 54.2856 60.6666 54.3998 61.0055 54.3962C61.7809 54.4188 62.5588 54.4862 63.3326 54.4077C64.0953 54.3635 64.8474 54.2151 65.6035 54.1098C67.0334 53.9567 68.4713 53.923 69.9062 53.8604C73.5635 53.8577 77.2213 53.8598 80.8786 53.8593C82.6129 53.8646 84.3477 53.8488 86.081 53.8672C86.1149 54.3256 86.076 54.7867 86.1013 55.2462C83.5688 55.2693 81.0359 55.2493 78.504 55.2556C75.3671 55.2541 72.2303 55.2593 69.0934 55.2535C67.7769 55.1314 66.4745 54.8662 65.1534 54.7956C64.6815 54.7509 64.2071 54.7819 63.7347 54.7477C62.3686 54.7446 61.002 54.7472 59.6359 54.7462C58.946 54.7772 58.2551 54.7662 57.5667 54.8225C57.2278 54.8683 56.8394 55.0541 56.7367 55.4219C56.6705 55.6356 56.8176 55.8546 56.9856 55.9646C57.3533 56.1993 57.8014 56.2077 58.2197 56.2193C58.7265 56.2035 59.2322 56.2504 59.739 56.2383C60.6327 56.2456 61.527 56.2204 62.4197 56.2567C63.1616 56.2498 63.9041 56.2704 64.6456 56.2383C65.9667 56.1909 67.2777 55.9988 68.5897 55.843C69.2092 55.753 69.8359 55.8335 70.4575 55.7756C73.2231 55.7688 75.9892 55.7772 78.7548 55.7714C79.3284 55.7356 79.9035 55.7562 80.478 55.7509C82.3524 55.7546 84.2263 55.743 86.1008 55.7567C86.0896 56.2141 86.0922 56.6714 86.0993 57.1288C81.1745 57.1225 76.2502 57.1319 71.3254 57.1241C68.749 56.9204 66.1725 56.6377 63.5855 56.6609C63.3139 56.6656 63.0433 56.6351 62.7717 56.6372C61.3059 56.6393 59.8397 56.6346 58.3739 56.6393C57.9364 56.6741 57.4974 56.6477 57.0594 56.6762C56.6351 56.6856 56.1738 56.6567 55.7985 56.9014C55.6043 57.0141 55.4531 57.2341 55.4718 57.4725C55.5527 57.8267 55.93 57.9604 56.2355 58.0204C56.9765 58.1425 57.7306 58.0404 58.4756 58.1077C59.7056 58.1135 60.9357 58.1093 62.1653 58.1093C63.6664 58.1704 65.1671 58.0598 66.6642 57.9688C68.3181 57.8677 69.9689 57.7088 71.6248 57.643C74.305 57.6425 76.9856 57.6425 79.6657 57.643C79.8508 57.6398 80.0344 57.6141 80.2201 57.6156C82.1795 57.6141 84.1394 57.6198 86.0993 57.6125C86.0871 58.0572 86.0972 58.5025 86.0947 58.9472C81.4916 58.9488 76.888 58.9462 72.2849 58.9462C71.9293 58.943 71.5722 58.9614 71.2192 58.9083C69.6543 58.7335 68.0905 58.5204 66.5155 58.4814C66.1119 58.4462 65.7062 58.4672 65.3026 58.4377C64.8651 58.4288 64.4266 58.4498 63.9901 58.4098C62.1673 58.4051 60.3444 58.4114 58.5216 58.4077C57.6972 58.4509 56.8702 58.4288 56.0458 58.4777C55.7388 58.4788 55.4136 58.5051 55.1506 58.6867C54.9837 58.8062 54.8107 58.983 54.835 59.2135C54.8254 59.4362 55.0211 59.5867 55.189 59.6814C55.6169 59.8793 56.0954 59.8519 56.5526 59.863C57.108 59.9046 57.6658 59.8519 58.2207 59.9009C58.7431 59.9141 59.2661 59.8983 59.7891 59.9077C60.8512 59.9646 61.9164 59.8877 62.9785 59.9546C65.8999 59.9725 68.8147 59.7235 71.7235 59.4635C74.3373 59.4556 76.9512 59.4635 79.5646 59.4598C79.7674 59.4583 79.9692 59.4346 80.172 59.4362C82.1461 59.4388 84.1196 59.4341 86.0937 59.4388C86.0977 59.8598 86.0886 60.2809 86.0998 60.7019C81.7288 60.6956 77.3579 60.7014 72.9864 60.6993C72.7178 60.6962 72.4478 60.7162 72.1812 60.6746C70.5222 60.4409 68.8506 60.283 67.176 60.2783C66.4345 60.2183 65.69 60.2841 64.9486 60.2335C62.4697 60.2298 59.9909 60.233 57.5121 60.2319C57.0397 60.263 56.5663 60.2398 56.0949 60.2788C55.6958 60.2714 55.2654 60.2725 54.922 60.5151C54.707 60.6414 54.5669 60.9251 54.6625 61.1751C54.8021 61.4477 55.1091 61.5583 55.3843 61.6119C56.021 61.7172 56.6695 61.6388 57.3103 61.6988C57.7665 61.7135 58.2237 61.6862 58.6794 61.7151C59.301 61.7451 59.9247 61.6946 60.5457 61.7472C61.3039 61.7651 62.0626 61.7319 62.8202 61.7651C65.6415 61.8072 68.4637 61.6919 71.2733 61.4225C71.7948 61.3825 72.3107 61.2641 72.8357 61.2819C74.4542 61.2835 76.0722 61.2825 77.6902 61.283C78.5667 61.2714 79.4447 61.3093 80.3202 61.2546C82.2321 61.2583 84.1444 61.2488 86.0563 61.2593C86.0654 61.2683 86.0841 61.2867 86.0937 61.2962C86.0927 61.7298 86.1043 62.1646 86.0841 62.5977C81.2984 62.5772 76.5122 62.5993 71.7265 62.5867C70.3604 62.4546 69.0004 62.2488 67.6292 62.1767C66.954 62.1314 66.2777 62.1035 65.6015 62.0914C65.0806 62.0535 64.5571 62.1009 64.0366 62.0488C62.1314 62.0467 60.2261 62.0467 58.3208 62.0504C57.7999 62.0988 57.2759 62.0541 56.7544 62.0935C56.4156 62.0925 56.0782 62.1209 55.7398 62.1288C55.4394 62.1572 55.1304 62.2825 54.9341 62.5293C54.8031 62.6877 54.789 62.9567 54.9291 63.1141C55.1197 63.3398 55.4121 63.4267 55.6887 63.4667C56.0119 63.5167 56.3392 63.4872 56.6639 63.5093C57.1843 63.5409 57.7068 63.4941 58.2267 63.5388C58.8979 63.5646 59.5711 63.5188 60.2418 63.5656C61.1856 63.5835 62.1309 63.5425 63.0736 63.5941C66.0142 63.6056 68.9493 63.3641 71.8777 63.1019C74.3222 63.0967 76.7671 63.0993 79.2115 63.1009C80.2216 63.0583 81.2331 63.0877 82.2442 63.0793C83.5294 63.0804 84.8146 63.0762 86.1003 63.0809C86.0891 63.5009 86.0952 63.9214 86.0962 64.3414C81.2058 64.3425 76.3154 64.3435 71.4256 64.3409C69.1182 64.1583 66.8103 63.9709 64.4969 63.8925C64.0235 63.8562 63.5481 63.8904 63.0746 63.8525C61.1031 63.8662 59.1311 63.8241 57.1611 63.8841C56.7913 63.9214 56.4075 63.8562 56.0509 63.9909C55.8036 64.0756 55.5456 64.2488 55.4839 64.5304C55.4227 64.7419 55.5765 64.9456 55.7413 65.0504C56.0478 65.2341 56.4115 65.273 56.7585 65.2819C57.2956 65.3167 57.8338 65.283 58.3709 65.3019C58.7745 65.3372 59.1796 65.3172 59.5838 65.323C60.7486 65.3319 61.9139 65.3014 63.0777 65.3451C65.7482 65.383 68.4056 65.053 71.0675 64.8819C71.7063 64.8325 72.3476 64.8609 72.9879 64.8535C74.9959 64.8525 77.0038 64.8562 79.0118 64.8519C79.4311 64.8177 79.8519 64.8325 80.2717 64.8298C82.2133 64.8304 84.1545 64.8288 86.0957 64.8304C86.0881 65.2609 86.1028 65.6914 86.0886 66.1214C86.081 66.132 86.0649 66.1535 86.0568 66.1641C80.5387 66.1635 75.0207 66.1641 69.5026 66.1641C69.2477 66.1598 68.9923 66.1783 68.7384 66.1541C67.3733 66.0125 66.0213 65.723 64.6461 65.6962C64.4266 65.6993 64.2086 65.6704 63.9896 65.6698C62.6063 65.6714 61.223 65.6688 59.8397 65.6698C59.4002 65.6577 58.9627 65.7093 58.5236 65.6977C58.0846 65.7393 57.6269 65.6598 57.2081 65.8404C56.9916 65.9409 56.7701 66.1146 56.7271 66.373C56.6841 66.6198 56.8869 66.8272 57.0862 66.9209C57.4544 67.1114 57.8742 67.0835 58.2733 67.1172C58.8129 67.1283 59.3536 67.1019 59.8933 67.1404C61.2402 67.1435 62.5876 67.1409 63.935 67.1414C65.3082 67.1625 66.6718 66.9583 68.0323 66.7883C68.7186 66.6698 69.4146 66.6993 70.1075 66.6993C71.0159 66.6456 71.9273 66.6809 72.8372 66.6709C74.5402 66.6709 76.2426 66.6709 77.9456 66.6709C78.5024 66.6683 79.0598 66.6814 79.6162 66.6525C81.7774 66.6551 83.9391 66.6467 86.1003 66.6562C86.0891 67.1298 86.0932 67.6035 86.0977 68.0772C80.7339 68.0767 75.3696 68.0783 70.0058 68.0762C68.4865 67.9972 66.9616 67.973 65.4503 67.7751C64.3502 67.5867 63.241 67.3725 62.1213 67.4398C61.7318 67.4467 61.3424 67.4562 60.9534 67.4741C60.659 67.4909 60.3687 67.6009 60.1401 67.7962C59.9813 67.9472 59.8963 68.2051 59.995 68.4156C60.1275 68.7246 60.4613 68.8556 60.7491 68.9541C61.2786 69.0867 61.8279 69.0914 62.3686 69.1262C62.9153 69.1135 63.4651 69.0835 64.0012 68.9667C64.5181 68.8672 65.0335 68.7604 65.5494 68.6562C67.1457 68.4588 68.7545 68.4119 70.3594 68.3514C75.6063 68.3525 80.8528 68.3556 86.0998 68.3498C86.079 68.9546 86.1175 69.5609 86.0745 70.1646C85.9708 71.5125 84.983 72.7383 83.714 73.0488C83.4141 73.1246 83.1055 73.1504 82.798 73.1409C73.8306 73.1393 64.8631 73.1409 55.8956 73.1398C55.097 73.1298 54.3105 72.7735 53.7572 72.1741C53.1548 71.5509 52.8336 70.6688 52.8361 69.7893C52.8351 64.0177 52.8367 58.2462 52.8356 52.4746C52.8281 51.9809 52.8539 51.4762 53.0167 51.0077C53.257 50.283 53.7445 49.6488 54.3768 49.2535Z" fill="#3497FC"/>
<defs>
<filter id="filter0_d_6701_272" x="0" y="0" width="375" height="220" filterUnits="userSpaceOnUse" color-interpolation-filters="sRGB">
<feFlood flood-opacity="0" result="BackgroundImageFix"/>
<feColorMatrix in="SourceAlpha" type="matrix" values="0 0 0 0 0 0 0 0 0 0 0 0 0 0 0 0 0 0 127 0" result="hardAlpha"/>
<feOffset dy="2"/>
<feGaussianBlur stdDeviation="15"/>
<feComposite in2="hardAlpha" operator="out"/>
<feColorMatrix type="matrix" values="0 0 0 0 0 0 0 0 0 0.458824 0 0 0 0 0.737255 0 0 0 0.1 0"/>
<feBlend mode="normal" in2="BackgroundImageFix" result="effect1_dropShadow_6701_272"/>
<feBlend mode="normal" in="SourceGraphic" in2="effect1_dropShadow_6701_272" result="shape"/>
</filter>
</defs>
</svg>
