<svg width="18" height="18" viewBox="0 0 18 18" fill="none" xmlns="http://www.w3.org/2000/svg">
<circle cx="8.99976" cy="9" r="9" fill="#1ABC9C"/>
<path d="M12.848 4.17668C12.9324 4.15083 13.0318 4.17265 13.0956 4.23481C13.5696 4.70928 14.0439 5.18328 14.5181 5.65752C14.6137 5.74861 14.6168 5.9199 14.5212 6.01195C11.9344 8.59783 9.34897 11.1849 6.7619 13.7705C6.65799 13.8683 6.47698 13.8472 6.39157 13.735C5.33611 12.6785 4.27993 11.6226 3.22375 10.5667C3.12838 10.4744 3.13171 10.304 3.2266 10.2127C3.70178 9.73799 4.1765 9.26304 4.65121 8.78809C4.74325 8.69937 4.90363 8.69889 4.99662 8.78691C5.47299 9.26233 5.94865 9.73894 6.42479 10.2148C6.51494 10.3043 6.67412 10.3045 6.76475 10.2155C8.73002 8.25028 10.6953 6.28477 12.6606 4.31974C12.717 4.26541 12.7678 4.19614 12.848 4.17668Z" fill="white"/>
</svg>
