<?xml version="1.0" encoding="utf-8"?>
<!-- Generator: Adobe Illustrator 23.1.0, SVG Export Plug-In . SVG Version: 6.00 Build 0)  -->
<svg version="1.1" id="Layer_1" xmlns="http://www.w3.org/2000/svg" x="0px" y="0px" viewBox="0 0 508 512" style="enable-background:new 0 0 508 512;" xml:space="preserve">
<g>
	<path style="fill:#8657FF;" d="M311.9,2c14.3-3.8,30-1.9,43,5.1c11.7,6.2,21.1,16.5,26.3,28.7c2,4.6,3.2,9.4,4.3,14.2
		c12,48.9,24,97.9,35.9,146.8c-80.8,0-161.6,0-242.5,0c-9.7-0.1-19.6,0.4-29,2.8c-24.6,5.8-46.6,21.7-60,43.2
		C80.3,258.1,75.1,276,74.8,294c-0.2,12.8,0,25.6-0.1,38.4c-13.7-5.6-25.4-16.2-31.6-29.7c-2.6-5.5-4.1-11.4-5.5-17.2
		c-12-49-24-98-36-147c-5-19.9,1.5-42.2,16.5-56.3c7.6-7.5,17.4-12.6,27.8-15.1C134.6,45.4,223.3,23.7,311.9,2 M281.8,101.5
		c5.4,22.2,10.8,44.4,16.3,66.6c22.2-5.4,44.4-10.9,66.7-16.3c-5.4-22.2-10.9-44.4-16.3-66.7C326.2,90.7,304,96.1,281.8,101.5z"/>
	<path style="fill:#8657FF;" d="M134.7,250.7c10.8-9.4,25-14.5,39.3-14.4c91.4,0,182.7,0,274.1,0c14.8-0.2,29.5,5.3,40.4,15.3
		c12,10.7,19.1,26.4,19.5,42.4V454c-0.3,14.9-6.4,29.6-16.9,40.2c-10.6,11-25.7,17.5-40.9,17.9H172.1c-10.8-0.3-21.6-3.5-30.8-9.4
		c-13.5-8.6-23.2-22.8-26.1-38.5c-1.6-8.3-1-16.7-1.1-25.1c0.1-48.3-0.4-96.7,0.1-145C114.5,277.5,122.2,261.4,134.7,250.7
		 M147.4,286.1c-3,9.3-1.2,19.3-1.7,28.9c110.3,0,220.6,0,330.8,0c0-6.7,0.1-13.3,0-20c-0.1-6.7-2.7-13.3-7.3-18.3
		c-5.3-5.9-13.3-9.1-21.2-9c-89.7,0-179.3,0-269,0c-3.4,0-6.8,0-10.1,0.4C159.1,269.8,150.6,276.9,147.4,286.1 M145.7,374.2
		c0,25.9,0,51.9,0,77.8c-0.1,6.8,2.2,13.6,6.6,18.8c5.3,6.3,13.4,9.9,21.6,9.8c91,0,182.1,0,273.1,0c6.9,0.2,13.9-1.8,19.2-6.3
		c6.6-5.3,10.4-13.8,10.2-22.2c0-26,0-51.9,0-77.9C366.2,374.2,255.9,374.1,145.7,374.2z"/>
</g>
</svg>
