<svg width="29" height="29" viewBox="0 0 29 29" fill="none" xmlns="http://www.w3.org/2000/svg">
<path d="M14.4413 0H14.5223C15.1975 0.0141602 15.8471 0.304727 16.3229 0.780508C16.8825 1.31746 17.4376 1.85951 17.9966 2.39703C18.1909 2.59301 18.4696 2.69779 18.7449 2.65758C19.3311 2.58168 19.9151 2.49162 20.5007 2.41119C20.9822 2.34549 21.4732 2.24467 21.9592 2.33133C22.7244 2.45424 23.4154 2.95664 23.7672 3.64709C23.9144 3.9184 23.9886 4.22143 24.0481 4.52219C24.1824 5.27834 24.3104 6.03563 24.4469 6.79121C24.4922 7.04723 24.6502 7.27889 24.8796 7.40463C25.612 7.80791 26.3608 8.1823 27.0914 8.58842C27.715 8.93109 28.1891 9.53998 28.342 10.2372C28.4802 10.8048 28.3868 11.4091 28.1393 11.9336C27.8476 12.547 27.5434 13.1554 27.2466 13.7665C27.1441 13.984 27.0099 14.1964 26.9889 14.4417C26.9702 14.6405 27.0484 14.8302 27.1339 15.0052C27.4454 15.6368 27.7518 16.2706 28.0634 16.9021C28.2775 17.3337 28.4293 17.8089 28.4038 18.2961C28.3811 19.1536 27.877 19.9704 27.1299 20.3884C26.3885 20.8064 25.6244 21.1836 24.8796 21.5954C24.6451 21.7228 24.4876 21.9613 24.4446 22.2224C24.3342 22.8335 24.2305 23.4464 24.1218 24.0575C24.0453 24.4988 23.9813 24.9547 23.7666 25.3546C23.4205 26.0303 22.7505 26.5282 22.0023 26.6607C21.5038 26.7604 20.998 26.6568 20.503 26.5894C19.9179 26.5101 19.3351 26.42 18.75 26.3453C18.4866 26.3056 18.2141 26.3934 18.0238 26.5792C17.569 27.0113 17.1215 27.4514 16.6684 27.8864C16.341 28.2042 16.0148 28.5435 15.5951 28.7395C15.2643 28.9071 14.8939 28.9796 14.5257 29H14.4549C14.0913 28.9768 13.7265 28.9037 13.3997 28.7378C13.0055 28.5531 12.6934 28.241 12.3858 27.9408C11.9236 27.4951 11.4637 27.0476 11.0009 26.603C10.8067 26.4064 10.5263 26.2999 10.2505 26.3447C9.41841 26.4529 8.58976 26.5837 7.75771 26.6896C6.74497 26.8222 5.68919 26.2682 5.22927 25.3552C4.99591 24.9168 4.9421 24.4155 4.85488 23.9341C4.74952 23.3507 4.65493 22.7661 4.54505 22.1844C4.49634 21.9216 4.31962 21.6962 4.084 21.5744C3.34937 21.174 2.60058 20.7996 1.87105 20.3901C1.08771 19.9539 0.57341 19.0783 0.594367 18.1794C0.589836 17.6866 0.771086 17.2182 0.991985 16.786C1.30124 16.1533 1.61277 15.5218 1.91863 14.888C2.04097 14.6461 2.04097 14.3533 1.91863 14.1114C1.58105 13.4108 1.23497 12.7147 0.895696 12.0146C0.717844 11.6413 0.592668 11.2364 0.594367 10.8201C0.584172 10.1562 0.854348 9.49467 1.32503 9.02738C1.63259 8.71133 2.03417 8.51365 2.41933 8.31031C2.97327 8.01465 3.53005 7.72408 4.0823 7.42615C4.31566 7.30664 4.49124 7.08518 4.54279 6.82689C4.69911 6.0073 4.82429 5.18148 4.98288 4.36246C5.0922 3.79662 5.3873 3.26533 5.83079 2.8949C6.35529 2.44064 7.07349 2.23051 7.76054 2.31377C8.43173 2.3925 9.09839 2.50125 9.76788 2.59131C10.0228 2.62189 10.2805 2.69043 10.5382 2.64965C10.7455 2.61623 10.9166 2.48312 11.0621 2.34039C11.5787 1.83742 12.0986 1.33785 12.6158 0.836016C13.095 0.342676 13.7486 0.0220898 14.4413 0ZM14.2838 1.70545C14.1196 1.74566 13.9768 1.84479 13.8579 1.96203C13.3498 2.45424 12.8406 2.94588 12.3331 3.43809C12.1502 3.61764 11.9621 3.79549 11.7463 3.93539C11.2445 4.26391 10.6237 4.39701 10.0307 4.31488C9.23716 4.2067 8.44476 4.09059 7.65179 3.97957C7.20036 3.87648 6.70759 4.18801 6.62886 4.64793C6.47423 5.47941 6.33943 6.31543 6.18423 7.14748C6.04999 7.86229 5.58554 8.50346 4.95003 8.85689C4.20351 9.26584 3.44509 9.65213 2.698 10.0599C2.32077 10.2593 2.15482 10.7589 2.33607 11.1452C2.698 11.9104 3.08202 12.6648 3.44566 13.4295C3.76454 14.0967 3.76454 14.9038 3.44566 15.5711C3.13527 16.2196 2.81468 16.8636 2.50032 17.5099C2.3995 17.7229 2.2664 17.9347 2.26357 18.1788C2.24771 18.5028 2.44538 18.8149 2.73198 18.9604C3.45642 19.3501 4.18652 19.7285 4.90982 20.1199C5.56232 20.4694 6.04489 21.1185 6.1831 21.8474C6.33886 22.6812 6.4731 23.5189 6.62943 24.3526C6.70193 24.7661 7.11653 25.0793 7.53454 25.0318C8.38529 24.9264 9.2315 24.7876 10.0822 24.68C10.8803 24.5798 11.6886 24.9049 12.2448 25.4758C12.7914 26.006 13.3379 26.5356 13.8862 27.0646C14.1077 27.2883 14.4543 27.3846 14.7562 27.2821C15.0117 27.2062 15.1827 26.9898 15.3708 26.8148C15.8811 26.3237 16.3863 25.8264 16.9001 25.3387C17.4331 24.8375 18.1898 24.5877 18.9159 24.6795C19.6341 24.774 20.3506 24.8811 21.0683 24.9808C21.3152 25.0136 21.5758 25.0782 21.8187 24.9881C22.1121 24.8885 22.3319 24.6171 22.3778 24.3119C22.5234 23.5047 22.6599 22.6959 22.8066 21.8888C22.9017 21.3614 23.1674 20.8675 23.5593 20.5016C23.847 20.223 24.2141 20.0519 24.5635 19.865C25.1294 19.5637 25.6975 19.2652 26.2633 18.9621C26.5505 18.8171 26.7499 18.5056 26.7346 18.1805C26.7329 17.9534 26.6156 17.7529 26.5199 17.5541C26.2027 16.9055 25.8838 16.2581 25.5695 15.6085C25.3118 15.0811 25.2427 14.4643 25.3865 13.8945C25.4692 13.5547 25.6409 13.2477 25.7915 12.935C26.0747 12.3511 26.3636 11.7699 26.6451 11.1848C26.7827 10.9056 26.7623 10.5521 26.5732 10.3012C26.4282 10.0956 26.1874 9.9999 25.9745 9.88322C25.3452 9.54791 24.7136 9.21826 24.0866 8.87898C23.5701 8.59861 23.1538 8.13586 22.9419 7.58701C22.8122 7.26189 22.7737 6.91186 22.7097 6.57031C22.5947 5.92914 22.4882 5.28627 22.3687 4.64623C22.2951 4.23332 21.8816 3.92066 21.4642 3.96824C20.5755 4.07643 19.6925 4.22879 18.8032 4.33074C18.2323 4.37605 17.6483 4.21633 17.1804 3.88668C16.9386 3.71789 16.7347 3.50322 16.5228 3.29988C16.0516 2.84506 15.5826 2.38797 15.1102 1.93371C14.899 1.72074 14.5755 1.62559 14.2838 1.70545Z" fill="#454545"/>
<path d="M10.837 6.99226C11.5999 6.91522 12.4025 7.12196 13.0024 7.60851C13.5444 8.02198 13.9573 8.61444 14.1216 9.2794C14.3232 10.052 14.2037 10.9016 13.7965 11.5886C13.3988 12.2309 12.7826 12.7503 12.0536 12.969C11.1343 13.255 10.0712 13.0834 9.31505 12.4796C8.80528 12.0927 8.40483 11.5507 8.22245 10.9339C7.98739 10.1704 8.06725 9.31565 8.44278 8.61048C8.92253 7.73255 9.82934 7.08118 10.837 6.99226ZM10.7826 8.7011C10.0973 8.87386 9.6345 9.62548 9.79196 10.3154C9.916 11.0103 10.6314 11.5258 11.3303 11.4187C12.0706 11.3417 12.6512 10.5918 12.53 9.85431C12.4473 9.04661 11.5597 8.45868 10.7826 8.7011Z" fill="#454545"/>
<path d="M19.8352 8.16642C20.222 8.07069 20.6508 8.30009 20.7919 8.67108C20.925 8.98657 20.8298 9.3689 20.5811 9.59942C16.9199 13.2612 13.2581 16.9236 9.5957 20.5843C9.31816 20.8907 8.81236 20.9451 8.48384 20.6897C8.19838 20.4841 8.07093 20.0893 8.18761 19.7568C8.25841 19.5257 8.45043 19.3682 8.61298 19.2028C12.1995 15.6164 15.786 12.0304 19.3713 8.44396C19.4987 8.31368 19.6539 8.2038 19.8352 8.16642Z" fill="#454545"/>
<path d="M17.3975 15.9285C18.438 15.7648 19.5425 16.1913 20.1972 17.016C21.1193 18.0537 21.1454 19.758 20.2618 20.8268C19.7979 21.4311 19.1069 21.8656 18.349 21.9823C17.2989 22.1692 16.1706 21.7506 15.5034 20.918C14.903 20.2456 14.668 19.2833 14.8322 18.4031C15.052 17.1491 16.1355 16.1018 17.3975 15.9285ZM17.5855 17.5954C16.9982 17.6968 16.5179 18.2173 16.4635 18.8104C16.3859 19.4176 16.7671 20.0417 17.3403 20.2541C17.8999 20.4824 18.5949 20.2876 18.9528 19.7999C19.3295 19.315 19.3244 18.5815 18.9387 18.1035C18.6294 17.698 18.0851 17.4974 17.5855 17.5954Z" fill="#454545"/>
</svg>
