<svg width="94" height="95" viewBox="0 0 94 95" fill="none" xmlns="http://www.w3.org/2000/svg">
<path d="M39.6786 0.165184C42.3113 -0.75921 45.0241 2.38882 43.6604 4.8199C42.7404 7.02171 39.4241 7.42931 38.0386 5.47135C36.4714 3.75358 37.5004 0.765675 39.6786 0.165184Z" fill="#C51D39"/>
<path d="M49.4526 7.64417C50.4308 7.65872 51.4817 7.6842 52.1217 8.554C52.118 8.8961 52.118 9.57666 52.118 9.91875C51.409 10.865 49.758 11.2216 49.0053 10.1553C48.4744 9.32918 48.9544 8.35748 49.4526 7.64417Z" fill="#F7879D"/>
<path d="M45.3014 17.7434C49.5887 17.0519 54.1414 17.0264 58.2651 18.4967C54.2723 17.838 50.196 17.616 46.1632 18.0054C44.0941 18.2638 42.0796 18.8133 40.0469 19.2573C41.6505 18.3366 43.5087 18.0636 45.3014 17.7434Z" fill="#ED4C67"/>
<path d="M40.046 19.2572C42.0788 18.8132 44.0933 18.2637 46.1624 18.0053C50.1951 17.6159 54.2715 17.8379 58.2642 18.4966C65.2533 20.2108 71.577 24.4688 75.8933 30.2226C76.5042 31.0414 77.1297 31.8676 77.5515 32.8065C78.4279 35.4159 79.8788 37.7961 80.577 40.471C82.3879 46.5632 82.2752 53.1978 80.2606 59.2282C78.0642 66.1356 73.3479 72.1806 67.2388 76.0674C61.9224 79.3865 55.6242 81.1552 49.3479 80.9405C41.9188 80.6566 34.5842 77.6942 29.137 72.6137C27.4606 71.0633 26.0533 69.2546 24.417 67.6642C22.137 64.971 20.7915 61.5865 19.766 58.2419C17.4715 50.1698 18.4279 41.1843 22.577 33.8692C26.3479 27.0818 32.6715 21.7211 40.046 19.2572Z" fill="#ED4C67"/>
<path d="M7.72266 35.3069C8.09357 33.6692 9.30084 31.8859 11.1954 32.0715C13.6354 31.8167 15.5954 35.0084 14.1227 37.0283C13.1954 38.7642 10.6936 39.3429 9.18448 38.0218C8.26811 37.4068 8.02447 36.2931 7.72266 35.3069Z" fill="#ED4C67"/>
<path d="M77.5525 32.8065C78.0471 33.1996 78.5416 33.6254 78.8289 34.204C82.5816 41.1552 83.5307 49.522 81.6252 57.1719C80.1707 63.246 76.8434 68.8397 72.2907 73.0977C66.5234 78.4803 58.7016 81.621 50.818 81.6902C40.578 81.9049 30.5052 76.7734 24.4471 68.5412C24.4398 68.3229 24.4252 67.8825 24.418 67.6642C26.0543 69.2545 27.4616 71.0633 29.138 72.6137C34.5852 77.6942 41.9198 80.6566 49.3489 80.9405C55.6252 81.1552 61.9234 79.3865 67.2398 76.0674C73.3489 72.1806 78.0652 66.1356 80.2616 59.2282C82.2761 53.1978 82.3889 46.5632 80.578 40.471C79.8798 37.7961 78.4289 35.4159 77.5525 32.8065Z" fill="#C51D39"/>
<path d="M57.4542 37.3714C57.9524 36.7418 58.9633 36.3706 59.6142 36.9893C60.2178 37.5181 61.0649 38.3639 61.7692 39.0862C62.5067 39.8424 62.5057 41.0405 61.7786 41.8067C55.8146 48.0909 46.0701 58.1256 43.0471 61.2348C42.4859 61.812 41.6249 62.0006 40.9688 61.5341C39.596 60.5578 38.2431 58.9648 37.526 58.0567C37.2166 57.6648 37.2698 57.1092 37.6322 56.7657L41.5633 53.0388C41.5633 53.0388 44.0687 50.746 45.2833 49.556C49.3415 45.4981 53.3924 41.4257 57.4542 37.3714Z" fill="white"/>
<path d="M42.6142 37.3714C42.116 36.7418 41.1051 36.3706 40.4542 36.9893C39.8505 37.5181 39.0034 38.3639 38.2991 39.0862C37.5617 39.8424 37.5626 41.0405 38.2897 41.8067C44.2537 48.0909 53.9983 58.1256 57.0213 61.2348C57.5824 61.812 58.4435 62.0006 59.0995 61.5341C60.4724 60.5578 61.8253 58.9648 62.5423 58.0567C62.8518 57.6648 62.7985 57.1092 62.4362 56.7657L58.5051 53.0388C58.5051 53.0388 55.9996 50.746 54.7851 49.556C50.7269 45.4981 46.676 41.4257 42.6142 37.3714Z" fill="white"/>
<path d="M88.6999 42.9749C90.7799 41.9304 93.6599 43.8192 93.2708 46.1957C93.5363 49.1253 89.3181 50.5119 87.5399 48.3538C85.8999 46.7707 86.6454 43.8083 88.6999 42.9749Z" fill="#ED4C67"/>
<path d="M0.613281 60.1381C1.18419 60.0399 1.85692 59.574 2.39874 60.018C3.58419 60.826 3.88237 62.4855 3.39874 63.7811C1.93328 63.0496 1.06783 61.6666 0.613281 60.1381Z" fill="#FBFEFF"/>
<path d="M17.6061 81.4646C19.7915 80.6895 22.2533 82.8694 21.8824 85.1258C21.6679 87.455 18.697 88.8853 16.7661 87.5314C14.3915 86.2104 14.9079 82.0688 17.6061 81.4646Z" fill="#F7879D"/>
<path d="M49.5371 90.7849C49.9189 90.4173 50.3007 90.0534 50.6898 89.6895C50.988 89.6931 51.5844 89.704 51.8826 89.7077C52.7262 90.3263 52.9807 91.2617 52.9044 92.2661C52.2062 92.903 51.3153 93.0886 50.3989 93.0085C50.1371 92.6846 49.8753 92.3607 49.6171 92.0405C49.5953 91.7275 49.5553 91.1015 49.5371 90.7849Z" fill="#F7879D"/>
<path d="M72.1998 87.8563C73.8507 87.2958 75.8107 88.0419 76.4689 89.6978C77.538 91.7431 75.7234 94.5272 73.4325 94.4144C71.6653 94.5563 70.1162 92.9841 70.0071 91.27C69.9089 89.8215 70.8398 88.3658 72.1998 87.8563Z" fill="#C51D39"/>
</svg>
