<?xml version="1.0" encoding="utf-8"?>
<!-- Generator: Adobe Illustrator 23.1.0, SVG Export Plug-In . SVG Version: 6.00 Build 0)  -->
<svg version="1.1" id="Objects" xmlns="http://www.w3.org/2000/svg" xmlns:xlink="http://www.w3.org/1999/xlink" x="0px" y="0px"
	 viewBox="0 0 743 720.8" style="enable-background:new 0 0 743 720.8;" xml:space="preserve">
<g>
	<g>
		<g>
			<path style="fill:#FFF200;" d="M569.2,343.2c0-109.3-88.6-197.9-197.9-197.9c-109.3,0-198.3,89.3-197.9,198.6
				c0.2,54.3,22.2,103.4,57.8,139c27.7,27.7,47.9,62,58.1,99.8l16,59H435l15.1-55.9c10.4-38.6,31.4-73.5,59.9-101.6
				C546.6,448.4,569.2,398.4,569.2,343.2z"/>
			<path style="fill:#59595B;" d="M401.3,710.9H338c-17.9,0-33.3-13.2-34.3-30l-5.3-64.8l143.2-0.9l-6.1,65.7
				C434.5,697.6,419.2,710.9,401.3,710.9z"/>
		</g>
		<path style="fill:#808183;" d="M428.8,643.4c-40,1.7-80.2-0.3-120.2,1.4c-3.6,0.2-3.3,5.3,0.2,5.5c40,1.3,80.2-1.2,120.2,0.1
			C433.5,650.5,433.3,643.2,428.8,643.4z"/>
		<path style="fill:#808183;" d="M428.8,660.8c-40,1.7-80.2-0.3-120.2,1.4c-3.6,0.2-3.3,5.3,0.2,5.5c40,1.3,80.2-1.2,120.2,0.1
			C433.5,667.9,433.3,660.6,428.8,660.8z"/>
	</g>
	<g>
		<path style="fill:#5E5E5E;" d="M456.7,443.9c-6.4-4.7-11.3-10.7-14.9-17.6c7.2-8.9,10.3-20.8,11.7-31.9c0.8-6.8,1-13.6,1.1-20.4
			c0.1-6.6-0.8-12.1-6.3-16.2c-5-3.6-11.6-0.4-15.4,3.2c-4.4,4.1-6.5,10.8-8.2,16.3c-3.4,11.2-3.4,23.3-1.2,34.7
			c0.7,4,1.9,7.9,3.3,11.7c-2.8,2.2-6,3.9-9.5,5.1c-10.8,3.5-19-2.8-24-12c-0.8-1.5-1.6-3.1-2.3-4.8c0.9-2.3,1.7-4.6,2.4-6.8
			c3.7-11,5.7-22.4,6.6-33.9c0.8-9.5,1-20.9-8.1-26.6c-2.9-1.8-6.3-0.4-8.1,2.1c-13.4,18.6-12.6,43.2-5.4,64.3
			c-2.3,5.6-5.1,11-8.1,16.3c-3.4,5.8-9.8,14.7-17.6,13.6c-7.2-1.1-13-10.1-16.6-15.8c-2.6-4.1-4.7-8.5-6.3-13.1
			c0.9-2.4,1.8-4.9,2.6-7.3c3.1-9.7,4.8-19.9,5.6-30.1c0.7-8.5,0.9-20.4-8.3-24.5c-2.7-1.2-6.7-1.1-8.1,2.1
			c-8.1,18.1-9.7,38-4.6,57.3c0.2,0.7,0.4,1.3,0.6,1.9c-5.6,14.3-14.2,27.6-24.6,38.9c-4.7,5.1,2.7,12.5,7.6,7.6
			c9.3-9.5,17-20.2,23-31.9c1.8,3.4,3.8,6.6,6,9.7c6.1,8.4,13.7,16.3,24.6,16.8c10.2,0.6,18.5-8,24-15.5c2.6-3.6,5-7.5,7-11.5
			c5,8,12.2,14.3,22,15.6c9,1.3,17.8-1.5,25.2-6.5c4.3,7.4,9.9,14,16.5,19.5C456,460.7,464.5,449.6,456.7,443.9z M388.6,361.4
			c0.4,4.7-0.7,10.6-0.9,13.5c-0.5,5.2-1.4,10.5-2.6,15.6C383.8,380.3,384.6,370,388.6,361.4z M434.8,391.2
			c0.4-4.9,1.7-9.8,3.3-14.4c0.7-2.1,1.7-4.1,2.9-6c0.1-0.1,0.5-0.7,0.9-1.2c0.1,0.3,0.2,0.8,0.2,1.4c0.6,12-0.4,25-4.1,36.4
			c-0.5,1.4-1,2.8-1.6,4.1C434.8,404.9,434.3,398,434.8,391.2z"/>
		<path style="fill:#5E5E5E;" d="M468,414.8c-21,64.2-43.2,128.1-67,191.4c-2.8,7.6,8.8,12.2,11.7,4.6
			c23.7-63.4,45.7-127.3,65.5-192C480.2,412.2,470.2,408.1,468,414.8z"/>
		<path style="fill:#5E5E5E;" d="M276.6,410.8c16.8,65.5,32.5,131.3,46.4,197.4c1.7,7.9,14,5.6,12.3-2.3
			c-14.1-66.2-29.9-131.9-48-197.1C285.4,402,274.8,403.9,276.6,410.8z"/>
	</g>
</g>
<g id="XMLID_270_">
	<g>
		<path id="XMLID_65_" style="fill:#FFF200;" d="M169.7,440.2L68.9,513.6c0,0-6.8,4-12.4,0.1c-5.6-3.9-9.1-12.1-1.6-20.3
			c7.7-6.5,108.6-59.9,108.6-59.9s6.1-3,8.1-0.2C173.6,436.2,169.7,440.2,169.7,440.2z"/>
		<path id="XMLID_64_" style="fill:#FFF200;" d="M144.9,340.6l-124.3,10c0,0-7.9-0.1-10.7-6.4c-2.7-6.3-1.5-15,9.2-18.1
			c9.9-1.6,123.9,5.7,123.9,5.7s6.8,0.7,7,4.1C150.3,339.2,144.9,340.6,144.9,340.6z"/>
		<path id="XMLID_63_" style="fill:#FFF200;" d="M186.5,225.9L82.4,157.2c0,0-6.2-5-4.5-11.6c1.7-6.6,8.1-12.8,18.4-8.6
			c8.8,4.9,94.1,80.8,94.1,80.8s4.9,4.7,3,7.5C191.6,228.1,186.5,225.9,186.5,225.9z"/>
		<path id="XMLID_62_" style="fill:#FFF200;" d="M288.5,141.4L227.7,32.5c0,0-3.2-7.3,1.4-12.4c4.6-5.1,13.1-7.6,20.3,0.8
			c5.5,8.4,46.4,115,46.4,115s2.2,6.5-0.8,8.1C292,145.7,288.5,141.4,288.5,141.4z"/>
		<path id="XMLID_61_" style="fill:#FFF200;" d="M414.9,124.6L456.6,7.1c0,0,3.4-7.2,10.2-7.1c6.8,0.1,14.3,4.8,12.8,15.8
			c-2.7,9.7-55.9,110.7-55.9,110.7s-3.4,5.9-6.6,4.7C413.9,130.1,414.9,124.6,414.9,124.6z"/>
		<path id="XMLID_60_" style="fill:#FFF200;" d="M543.2,194.7l95.5-80.1c0,0,6.5-4.5,12.4-1c5.9,3.5,9.9,11.4,3,20.1
			c-7.2,7-104.3,67.1-104.3,67.1s-5.9,3.4-8.1,0.7C539.6,198.9,543.2,194.7,543.2,194.7z"/>
		<path id="XMLID_59_" style="fill:#FFF200;" d="M594.3,307.4l124.5-7.2c0,0,7.9,0.3,10.5,6.6c2.6,6.3,1.1,15.1-9.6,17.9
			c-10,1.3-123.7-8.6-123.7-8.6s-6.8-0.8-6.9-4.2C588.8,308.6,594.3,307.4,594.3,307.4z"/>
		<path id="XMLID_58_" style="fill:#FFF200;" d="M570.3,430.2l109.3,60c0,0,6.6,4.5,5.4,11.2c-1.2,6.7-7,13.4-17.7,10.1
			c-9.2-4.2-100.4-72.9-100.4-72.9s-5.3-4.3-3.6-7.3C565.1,428.4,570.3,430.2,570.3,430.2z"/>
	</g>
</g>
</svg>
