<svg width="14" height="14" viewBox="0 0 14 14" fill="none" xmlns="http://www.w3.org/2000/svg">
<path d="M8.99806 2.50151C8.99806 1.11996 10.1178 0 11.499 0C12.8803 0 14 1.11996 14 2.50151C14 3.88305 12.8803 5.00302 11.499 5.00302C10.6992 5.00302 9.98709 4.62749 9.52928 4.0431L4.91395 6.35127C4.96937 6.55816 4.99892 6.77563 4.99892 7C4.99892 7.22428 4.9694 7.44165 4.91402 7.64846L9.5306 9.95725C9.98819 9.37441 10.6991 9 11.4975 9C12.8779 9 13.997 10.1193 13.997 11.5C13.997 12.8807 12.8779 14 11.4975 14C10.1171 14 8.99806 12.8807 8.99806 11.5C8.99806 11.2757 9.0276 11.0583 9.08299 10.8514L4.46646 8.54266C4.00887 9.12556 3.29788 9.5 2.49946 9.5C1.11905 9.5 0 8.38071 0 7C0 5.61929 1.11905 4.5 2.49946 4.5C3.29778 4.5 4.00869 4.87435 4.46628 5.45712L9.08252 3.1485C9.02743 2.94213 8.99806 2.72525 8.99806 2.50151ZM11.499 1C10.6699 1 9.99785 1.67225 9.99785 2.50151C9.99785 3.33077 10.6699 4.00302 11.499 4.00302C12.3281 4.00302 13.0002 3.33077 13.0002 2.50151C13.0002 1.67225 12.3281 1 11.499 1ZM11.4975 10C10.6693 10 9.99785 10.6716 9.99785 11.5C9.99785 12.3284 10.6693 13 11.4975 13C12.3258 13 12.9972 12.3284 12.9972 11.5C12.9972 10.6716 12.3258 10 11.4975 10ZM0.999785 7C0.999785 7.82843 1.67121 8.5 2.49946 8.5C3.32771 8.5 3.99914 7.82843 3.99914 7C3.99914 6.17157 3.32771 5.5 2.49946 5.5C1.67121 5.5 0.999785 6.17157 0.999785 7Z" fill="#FF5757"/>
</svg>
