<svg width="35" height="26" viewBox="0 0 35 26" fill="none" xmlns="http://www.w3.org/2000/svg">
<path d="M2.37675 1.25353C2.88557 0.91458 3.49857 0.793527 4.09539 0.791422C12.5586 0.799843 21.0218 0.786159 29.485 0.795633C30.143 0.80458 30.8036 0.755106 31.4591 0.838264C32.2 0.949843 32.8849 1.37458 33.3578 1.97458C33.8216 2.55405 34.0805 3.30037 34.0937 4.05405C34.0962 4.56932 34.0906 5.08511 34.0977 5.6009C28.8518 5.603 23.6058 5.59984 18.3599 5.60247C16.7642 5.55353 15.1649 5.50721 13.5757 5.33037C12.4625 5.13826 11.3493 4.85721 10.2128 4.90984C9.7227 4.93511 9.22855 4.953 8.74806 5.063C8.51085 5.13195 8.26807 5.23353 8.09409 5.4209C7.93982 5.57405 7.92111 5.85932 8.07386 6.01984C8.30702 6.28563 8.66663 6.39984 9.0055 6.39616C9.78086 6.41879 10.5588 6.48616 11.3326 6.40774C12.0953 6.36353 12.8474 6.21511 13.6035 6.10984C15.0334 5.95669 16.4713 5.923 17.9062 5.86037C21.5635 5.85774 25.2213 5.85984 28.8786 5.85932C30.6129 5.86458 32.3477 5.84879 34.081 5.86721C34.1149 6.32563 34.076 6.78669 34.1013 7.24616C31.5688 7.26932 29.0359 7.24932 26.504 7.25563C23.3671 7.25405 20.2303 7.25932 17.0934 7.25353C15.7769 7.13142 14.4745 6.86616 13.1534 6.79563C12.6815 6.7509 12.2071 6.78195 11.7347 6.74774C10.3686 6.74458 9.00196 6.74721 7.63585 6.74616C6.94597 6.77721 6.25507 6.76616 5.56671 6.82247C5.22783 6.86826 4.8394 7.05405 4.73672 7.42195C4.67046 7.63563 4.81765 7.85458 4.98557 7.96458C5.35327 8.19932 5.80139 8.20774 6.21967 8.21932C6.72646 8.20353 7.23224 8.25037 7.73903 8.23826C8.63274 8.24563 9.52696 8.22037 10.4197 8.25668C11.1616 8.24984 11.9041 8.27037 12.6456 8.23826C13.9667 8.1909 15.2777 7.99879 16.5897 7.843C17.2092 7.753 17.8359 7.83353 18.4575 7.77563C21.2231 7.76879 23.9892 7.77721 26.7548 7.77142C27.3284 7.73563 27.9035 7.75616 28.478 7.7509C30.3524 7.75458 32.2263 7.743 34.1008 7.75668C34.0896 8.21405 34.0922 8.67142 34.0993 9.12879C29.1745 9.12247 24.2502 9.13195 19.3254 9.12405C16.749 8.92037 14.1725 8.63774 11.5855 8.6609C11.3139 8.66563 11.0433 8.63511 10.7717 8.63721C9.30593 8.63932 7.83968 8.63458 6.37393 8.63932C5.93643 8.67405 5.49741 8.64774 5.05941 8.67616C4.63506 8.68563 4.17379 8.65668 3.7985 8.90142C3.60428 9.01405 3.45305 9.23405 3.47177 9.47248C3.55269 9.82668 3.93 9.96037 4.23549 10.0204C4.97646 10.1425 5.73058 10.0404 6.47559 10.1077C7.70565 10.1135 8.9357 10.1093 10.1653 10.1093C11.6664 10.1704 13.1671 10.0598 14.6642 9.96879C16.3181 9.86774 17.9689 9.70879 19.6248 9.643C22.305 9.64247 24.9856 9.64247 27.6657 9.643C27.8508 9.63984 28.0344 9.61405 28.2201 9.61563C30.1795 9.61405 32.1394 9.61984 34.0993 9.61247C34.0871 10.0572 34.0972 10.5025 34.0947 10.9472C29.4916 10.9488 24.888 10.9462 20.2849 10.9462C19.9293 10.943 19.5722 10.9614 19.2192 10.9083C17.6543 10.7335 16.0905 10.5204 14.5155 10.4814C14.1119 10.4462 13.7062 10.4672 13.3026 10.4377C12.8651 10.4288 12.4266 10.4498 11.9901 10.4098C10.1673 10.4051 8.34445 10.4114 6.52162 10.4077C5.6972 10.4509 4.87025 10.4288 4.04583 10.4777C3.73882 10.4788 3.4136 10.5051 3.1506 10.6867C2.98369 10.8062 2.81071 10.983 2.83499 11.2135C2.82538 11.4362 3.02112 11.5867 3.18904 11.6814C3.61693 11.8793 4.09539 11.8519 4.55262 11.863C5.10796 11.9046 5.66584 11.8519 6.22068 11.9009C6.74315 11.9141 7.26613 11.8983 7.7891 11.9077C8.85124 11.9646 9.91641 11.8877 10.9785 11.9546C13.8999 11.9725 16.8147 11.7235 19.7235 11.4635C22.3373 11.4556 24.9512 11.4635 27.5646 11.4598C27.7674 11.4583 27.9692 11.4346 28.172 11.4362C30.1461 11.4388 32.1196 11.4341 34.0937 11.4388C34.0977 11.8598 34.0886 12.2809 34.0998 12.7019C29.7288 12.6956 25.3579 12.7014 20.9864 12.6993C20.7178 12.6962 20.4478 12.7162 20.1812 12.6746C18.5222 12.4409 16.8506 12.283 15.176 12.2783C14.4345 12.2183 13.69 12.2841 12.9486 12.2335C10.4697 12.2298 7.99091 12.233 5.51208 12.2319C5.03968 12.263 4.56627 12.2398 4.09489 12.2788C3.69583 12.2714 3.26541 12.2725 2.92198 12.5151C2.70703 12.6414 2.56693 12.9251 2.66252 13.1751C2.80211 13.4477 3.10912 13.5583 3.38427 13.6119C4.02104 13.7172 4.66945 13.6388 5.31028 13.6988C5.76649 13.7135 6.22371 13.6862 6.67942 13.7151C7.30102 13.7451 7.92465 13.6946 8.54575 13.7472C9.30391 13.7651 10.0626 13.7319 10.8202 13.7651C13.6415 13.8072 16.4637 13.6919 19.2733 13.4225C19.7948 13.3825 20.3107 13.2641 20.8357 13.2819C22.4542 13.2835 24.0722 13.2825 25.6902 13.283C26.5667 13.2714 27.4447 13.3093 28.3202 13.2546C30.2321 13.2583 32.1444 13.2488 34.0563 13.2593C34.0654 13.2683 34.0841 13.2867 34.0937 13.2962C34.0927 13.7298 34.1043 14.1646 34.0841 14.5977C29.2984 14.5772 24.5122 14.5993 19.7265 14.5867C18.3604 14.4546 17.0004 14.2488 15.6292 14.1767C14.954 14.1314 14.2777 14.1035 13.6015 14.0914C13.0806 14.0535 12.5571 14.1009 12.0366 14.0488C10.1314 14.0467 8.2261 14.0467 6.32082 14.0504C5.79987 14.0988 5.27588 14.0541 4.75442 14.0935C4.41555 14.0925 4.0782 14.1209 3.73983 14.1288C3.4394 14.1572 3.13037 14.2825 2.93412 14.5293C2.80313 14.6877 2.78896 14.9567 2.92907 15.1141C3.11974 15.3398 3.41209 15.4267 3.68875 15.4667C4.01194 15.5167 4.33918 15.4872 4.66389 15.5093C5.18434 15.5409 5.70681 15.4941 6.22675 15.5388C6.89792 15.5646 7.57111 15.5188 8.24177 15.5656C9.18556 15.5835 10.1309 15.5425 11.0736 15.5941C14.0142 15.6056 16.9493 15.3641 19.8777 15.1019C22.3222 15.0967 24.7671 15.0993 27.2115 15.1009C28.2216 15.0583 29.2331 15.0877 30.2442 15.0793C31.5294 15.0804 32.8146 15.0762 34.1003 15.0809C34.0891 15.5009 34.0952 15.9214 34.0962 16.3414C29.2058 16.3425 24.3154 16.3435 19.4256 16.3409C17.1182 16.1583 14.8103 15.9709 12.4969 15.8925C12.0235 15.8562 11.5481 15.8904 11.0746 15.8525C9.10312 15.8662 7.13108 15.8241 5.16107 15.8841C4.79135 15.9214 4.40746 15.8562 4.05088 15.9909C3.80356 16.0756 3.54561 16.2488 3.48391 16.5304C3.42271 16.7419 3.57646 16.9456 3.74135 17.0504C4.04785 17.2341 4.41151 17.273 4.75847 17.2819C5.29561 17.3167 5.83376 17.283 6.3709 17.3019C6.77451 17.3372 7.17964 17.3172 7.58376 17.323C8.74857 17.3319 9.91388 17.3014 11.0777 17.3451C13.7482 17.383 16.4056 17.053 19.0675 16.8819C19.7063 16.8325 20.3476 16.8609 20.9879 16.8535C22.9959 16.8525 25.0038 16.8562 27.0118 16.8519C27.4311 16.8177 27.8519 16.8325 28.2717 16.8298C30.2133 16.8304 32.1545 16.8288 34.0957 16.8304C34.0881 17.2609 34.1028 17.6914 34.0886 18.1214C34.081 18.132 34.0649 18.1535 34.0568 18.1641C28.5387 18.1635 23.0207 18.1641 17.5026 18.1641C17.2477 18.1598 16.9923 18.1783 16.7384 18.1541C15.3733 18.0125 14.0213 17.723 12.6461 17.6962C12.4266 17.6993 12.2086 17.6704 11.9896 17.6698C10.6063 17.6714 9.22299 17.6688 7.83968 17.6698C7.40016 17.6577 6.96266 17.7093 6.52364 17.6977C6.08462 17.7393 5.62689 17.6598 5.20811 17.8404C4.99163 17.9409 4.7701 18.1146 4.72711 18.373C4.68412 18.6198 4.88694 18.8272 5.08622 18.9209C5.45442 19.1114 5.87422 19.0835 6.27328 19.1172C6.81295 19.1283 7.35363 19.1019 7.89329 19.1404C9.24018 19.1435 10.5876 19.1409 11.935 19.1414C13.3082 19.1625 14.6718 18.9583 16.0323 18.7883C16.7186 18.6698 17.4146 18.6993 18.1075 18.6993C19.0159 18.6456 19.9273 18.6809 20.8372 18.6709C22.5402 18.6709 24.2426 18.6709 25.9456 18.6709C26.5024 18.6683 27.0598 18.6814 27.6162 18.6525C29.7774 18.6551 31.9391 18.6467 34.1003 18.6562C34.0891 19.1298 34.0932 19.6035 34.0977 20.0772C28.7339 20.0767 23.3696 20.0783 18.0058 20.0762C16.4865 19.9972 14.9616 19.973 13.4503 19.7751C12.3502 19.5867 11.241 19.3725 10.1213 19.4398C9.7318 19.4467 9.34235 19.4562 8.95341 19.4741C8.65904 19.4909 8.36872 19.6009 8.14011 19.7962C7.9813 19.9472 7.89633 20.2051 7.99495 20.4156C8.12747 20.7246 8.46128 20.8556 8.74907 20.9541C9.27862 21.0867 9.8279 21.0914 10.3686 21.1262C10.9153 21.1135 11.4651 21.0835 12.0012 20.9667C12.5181 20.8672 13.0335 20.7604 13.5494 20.6562C15.1457 20.4588 16.7545 20.4119 18.3594 20.3514C23.6063 20.3525 28.8528 20.3556 34.0998 20.3498C34.079 20.9546 34.1175 21.5609 34.0745 22.1646C33.9708 23.5125 32.983 24.7383 31.714 25.0488C31.4141 25.1246 31.1055 25.1504 30.798 25.1409C21.8306 25.1393 12.8631 25.1409 3.89561 25.1398C3.09698 25.1298 2.3105 24.7735 1.75717 24.1741C1.15479 23.5509 0.833621 22.6688 0.83615 21.7893C0.835138 16.0177 0.836655 10.2462 0.835644 4.47458C0.828057 3.9809 0.853852 3.47616 1.01671 3.00774C1.25696 2.283 1.74453 1.64879 2.37675 1.25353Z" fill="#3497FC"/>
</svg>
