<svg width="128" height="111" viewBox="0 0 128 111" fill="none" xmlns="http://www.w3.org/2000/svg">
<path d="M62.6806 7.49331C65.3133 6.56892 68.026 9.71695 66.6624 12.148C65.7424 14.3498 62.426 14.7574 61.0406 12.7995C59.4733 11.0817 60.5024 8.0938 62.6806 7.49331Z" fill="#BC57F9"/>
<path d="M115.542 13.0216C116.48 11.4567 118.251 10.525 120.051 10.4413C120.586 10.7215 121.008 11.1655 121.455 11.5658C121.16 12.4174 120.637 13.1344 119.695 13.28C117.873 13.6548 117.208 15.58 116.749 17.1522C115.895 20.2457 115.146 23.583 112.822 25.9522C110.669 28.2996 107.371 29.0893 104.302 29.1985C103.819 28.9292 103.386 28.5798 102.953 28.245C103.099 27.5826 103.371 26.9603 103.775 26.4107C106.455 26.3743 109.477 25.8394 111.237 23.6121C113.6 20.5041 113.509 16.297 115.542 13.0216Z" fill="#F34F82"/>
<path d="M72.4545 14.9723C73.4327 14.9868 74.4836 15.0123 75.1236 15.8821C75.12 16.2242 75.12 16.9048 75.12 17.2469C74.4109 18.1931 72.76 18.5498 72.0073 17.4834C71.4764 16.6573 71.9564 15.6856 72.4545 14.9723Z" fill="#F3C167"/>
<path d="M68.3014 25.0715C72.5887 24.38 77.1414 24.3546 81.2651 25.8248C77.2723 25.1661 73.196 24.9441 69.1632 25.3335C67.0941 25.5919 65.0796 26.1415 63.0469 26.5855C64.6505 25.6647 66.5087 25.3918 68.3014 25.0715Z" fill="#B5D99B"/>
<path d="M63.048 26.5854C65.0807 26.1414 67.0953 25.5918 69.1644 25.3334C73.1971 24.944 77.2735 25.166 81.2662 25.8247C88.2553 27.5389 94.5789 31.7969 98.8953 37.5507C99.5062 38.3696 100.132 39.1957 100.553 40.1346C101.43 42.7441 102.881 45.1242 103.579 47.7991C105.39 53.8914 105.277 60.5259 103.263 66.5563C101.066 73.4638 96.3498 79.5087 90.2407 83.3955C84.9244 86.7146 78.6262 88.4833 72.3498 88.2686C64.9207 87.9847 57.5862 85.0223 52.1389 79.9418C50.4625 78.3914 49.0553 76.5827 47.4189 74.9923C45.1389 72.2992 43.7935 68.9146 42.768 65.57C40.4735 57.498 41.4298 48.5124 45.5789 41.1973C49.3498 34.41 55.6735 29.0492 63.048 26.5854ZM85.4553 45.5063C81.3935 49.5606 77.3425 53.633 73.2844 57.6908C72.0698 58.8809 70.9571 60.1838 69.5644 61.1737C67.4044 58.9209 65.168 56.7446 62.9825 54.5137C62.5535 54.157 62.0116 53.3782 61.3935 53.8441C59.8625 55.1579 58.4444 56.6172 57.1825 58.1931C60.7462 61.9998 64.5353 65.5919 68.1825 69.3258C68.7425 69.7771 69.2771 70.7233 70.1244 70.3194C71.3607 69.3368 72.3716 68.1103 73.5171 67.0258C79.3644 61.1227 85.2989 55.3071 91.0916 49.3567C91.088 49.1602 91.0771 48.7708 91.0698 48.5779C89.9244 47.4206 88.8407 46.1978 87.6153 45.1242C86.9644 44.5055 85.9535 44.8767 85.4553 45.5063Z" fill="#1ABC9C"/>
<path d="M30.7246 42.635C31.0955 40.9973 32.3028 39.214 34.1973 39.3996C36.6373 39.1449 38.5973 42.3366 37.1246 44.3564C36.1973 46.0924 33.6955 46.671 32.1864 45.3499C31.2701 44.7349 31.0264 43.6213 30.7246 42.635Z" fill="#F4C163"/>
<path d="M100.553 40.1346C101.047 40.5277 101.542 40.9535 101.829 41.5322C105.582 48.4833 106.531 56.8501 104.625 64.5C103.171 70.5741 99.8434 76.1678 95.2907 80.4258C89.5234 85.8084 81.7016 88.9492 73.818 89.0183C63.578 89.233 53.5052 84.1016 47.4471 75.8694C47.4398 75.651 47.4252 75.2106 47.418 74.9923C49.0543 76.5827 50.4616 78.3914 52.138 79.9418C57.5852 85.0223 64.9198 87.9847 72.3489 88.2686C78.6252 88.4833 84.9234 86.7146 90.2398 83.3955C96.3489 79.5087 101.065 73.4638 103.262 66.5563C105.276 60.5259 105.389 53.8914 103.578 47.7991C102.88 45.1242 101.429 42.7441 100.553 40.1346Z" fill="#4C8D7D"/>
<path d="M85.4544 45.5065C85.9526 44.8768 86.9635 44.5056 87.6144 45.1243C88.8398 46.1979 89.9235 47.4208 91.0689 48.5781C91.0762 48.7709 91.0871 49.1604 91.0907 49.3569C85.298 55.3072 79.3635 61.1229 73.5162 67.0259C72.3707 68.1104 71.3598 69.3369 70.1235 70.3195C69.2762 70.7235 68.7416 69.7773 68.1816 69.326C64.5344 65.592 60.7453 62 57.1816 58.1932C58.4435 56.6174 59.8616 55.158 61.3926 53.8442C62.0107 53.3784 62.5525 54.1572 62.9816 54.5138C65.1671 56.7448 67.4035 58.9211 69.5635 61.1738C70.9562 60.1839 72.0689 58.8811 73.2835 57.691C77.3416 53.6331 81.3925 49.5607 85.4544 45.5065Z" fill="white"/>
<path d="M111.702 50.303C113.782 49.2585 116.662 51.1473 116.273 53.5238C116.538 56.4535 112.32 57.8401 110.542 55.6819C108.902 54.0988 109.647 51.1364 111.702 50.303Z" fill="#81D3FE"/>
<path d="M22.5997 64.8276C24.5742 63.5138 27.2942 64.6529 28.4397 66.5454C29.4033 67.9138 29.3669 69.6498 29.3778 71.2511C30.7669 71.2001 32.1706 70.9381 33.3597 70.1811C34.9306 69.4023 35.6033 67.2514 37.6033 67.3497C37.836 68.0666 38.3706 68.8709 37.9342 69.6243C36.756 71.5095 34.7815 72.7978 32.7051 73.5038C31.4506 73.9442 30.1015 73.9624 28.8251 74.3045C28.0142 75.4472 27.4724 76.7974 26.4215 77.7655C23.6578 80.5642 19.4287 81.3175 15.6542 80.848C14.1487 80.6078 12.5815 80.4477 11.2069 79.7526C10.5197 79.4287 10.5306 78.406 10.8651 77.8419C11.3706 77.0304 12.4033 77.3543 13.1633 77.4962C16.4542 78.3842 20.2287 78.5698 23.2506 76.7647C24.4324 76.1023 25.2397 74.9923 25.8469 73.8132C24.1851 73.0234 22.4578 72.019 21.7197 70.2321C20.9233 68.5179 20.7269 65.9122 22.5997 64.8276ZM23.6142 67.4662C24.0687 68.9947 24.9342 70.3776 26.3997 71.1091C26.8833 69.8135 26.5851 68.154 25.3997 67.3461C24.8578 66.9021 24.1851 67.3679 23.6142 67.4662Z" fill="#82D3FD"/>
<path d="M23.6152 67.4662C24.1861 67.368 24.8589 66.9022 25.4007 67.3462C26.5861 68.1541 26.8843 69.8136 26.4007 71.1092C24.9352 70.3777 24.0698 68.9948 23.6152 67.4662Z" fill="#FBFEFF"/>
<path d="M98.3495 87.6609C98.6804 87.1623 99.1204 86.751 99.5386 86.3289C101.884 87.1368 104.24 88.2795 105.764 90.3176C107.375 92.5266 108.444 95.2489 108.233 98.0184C107.622 98.204 107.008 98.386 106.397 98.5716C105.735 97.5599 105.419 96.3953 105.124 95.238C104.506 92.8979 102.935 90.7143 100.644 89.7899C99.7167 89.3422 98.2404 88.9819 98.3495 87.6609Z" fill="#F3C264"/>
<path d="M40.608 88.7928C42.7935 88.0176 45.2553 90.1976 44.8844 92.454C44.6698 94.7831 41.6989 96.2134 39.768 94.8596C37.3935 93.5385 37.9098 89.3969 40.608 88.7928Z" fill="#79BF4B"/>
<path d="M72.5391 98.113C72.9209 97.7455 73.3027 97.3815 73.6918 97.0176C73.99 97.0212 74.5863 97.0321 74.8845 97.0358C75.7282 97.6545 75.9827 98.5898 75.9063 99.5942C75.2082 100.231 74.3172 100.417 73.4009 100.337C73.1391 100.013 72.8772 99.6889 72.6191 99.3686C72.5972 99.0556 72.5572 98.4296 72.5391 98.113Z" fill="#7BBF4E"/>
<path d="M82.7682 98.881C84.4191 98.3205 86.3791 99.0666 87.0373 100.722C88.1064 102.768 86.2918 105.552 84.0009 105.439C82.2336 105.581 80.6845 104.009 80.5755 102.295C80.4773 100.846 81.4082 99.3905 82.7682 98.881Z" fill="#3AA3BE"/>
</svg>
