<?xml version="1.0" encoding="utf-8"?><!-- Generator: Adobe Illustrator 23.1.0, SVG Export Plug-In . SVG Version: 6.00 Build 0)  -->
<svg version="1.1" id="Layer_1" xmlns="http://www.w3.org/2000/svg" x="0px" y="0px" viewBox="0 0 103 100.3"
    style="enable-background:new 0 0 103 100.3;" xml:space="preserve">
<circle style="fill:none;stroke:#FFFFFF;stroke-miterlimit:10;" cx="52.4" cy="50.1" r="46" />
    <g>
	<path style="fill:#FFFFFF;" d="M69.4,28.5c1.2-0.3,2.6-0.3,3.8,0.2c1.1,0.4,1.9,1.3,2.8,2c1.2,1,2,2.6,2,4.2v0.1
		c0,0.9-0.3,1.7-0.7,2.5c-0.3,0.6-0.8,1.2-1.3,1.7c-8.8,10.2-17.5,20.4-26.3,30.5c-0.4,0.4-0.7,0.9-1.2,1.2
		c-1.3,1.1-3.2,1.4-4.8,0.9c-0.9-0.2-1.7-0.7-2.4-1.3c-4.2-3.8-8.4-7.7-12.6-11.5c-1.1-1-1.7-2.3-1.8-3.7v-0.6
		c0.1-0.8,0.3-1.5,0.6-2.2c0.5-0.9,1.3-1.7,2-2.4c1.1-1.2,2.7-1.9,4.3-1.8c1.3,0,2.5,0.5,3.5,1.3c2.3,2,4.6,3.9,6.9,5.9
		c7.6-8.4,15.2-16.8,22.8-25.2C67.5,29.4,68.4,28.7,69.4,28.5z" />
</g>
</svg>
