<?xml version="1.0" encoding="utf-8"?>
<svg width="26" height="26" viewBox="0 0 26 26" fill="none" xmlns="http://www.w3.org/2000/svg">
<path d="M12.5152 0H13.4713C15.1965 0.433333 15.7435 2.32104 17.0706 3.28521C18.7579 3.49375 20.8081 2.38604 22.1948 3.79438C23.6194 5.17563 22.5063 7.23667 22.7148 8.92667C23.6735 10.251 25.5531 10.8008 26 12.5125V13.4713C25.5667 15.1992 23.66 15.7435 22.7121 17.0842C22.6092 18.3408 23.0208 19.5785 22.9098 20.8325C22.7419 21.951 21.7208 22.8963 20.5833 22.926C19.4079 22.964 18.2515 22.6146 17.076 22.7094C15.749 23.6735 15.1938 25.5585 13.474 26H12.5667C10.8144 25.5992 10.2619 23.6763 8.92667 22.7094C7.23667 22.509 5.15938 23.6167 3.78354 22.1813C2.72458 21.209 3.12542 19.6869 3.24458 18.4356C3.23646 17.8858 3.52896 17.1763 3.04146 16.7565C2.02042 15.6704 0.419792 15.0448 0 13.4848V12.526C0.436042 10.8008 2.32646 10.251 3.29063 8.92667C3.49375 7.23667 2.37792 5.16208 3.81604 3.78625C5.2 2.38875 7.24479 3.49646 8.92667 3.28521C10.2537 2.32917 10.8008 0.444167 12.5152 0ZM9.18125 4.91292C7.74042 5.09438 6.29688 4.51479 4.85875 4.87229C4.56354 6.22646 4.99958 7.57792 4.96167 8.9375C4.86688 10.2429 3.62646 10.9254 2.72458 11.6702C2.25604 12.0846 1.45708 12.499 1.65208 13.2519C2.48625 14.5546 4.29 15.0285 4.85333 16.5398C5.20813 18.0565 4.485 19.6056 4.86146 21.1304C6.38896 21.5204 7.94083 20.7865 9.4575 21.1467C10.9688 21.71 11.4454 23.5083 12.7427 24.3479C12.8754 24.3479 13.1354 24.3479 13.2681 24.3452C14.4923 23.5246 14.9852 21.9023 16.334 21.2198C17.8967 20.6917 19.5379 21.5448 21.1304 21.1385C21.4419 19.7871 21.0085 18.4356 21.041 17.0815C21.1088 15.7625 22.3762 15.08 23.2781 14.3298C23.7467 13.91 24.5456 13.4983 24.3479 12.7427C23.4731 11.3777 21.4744 10.901 21.079 9.1975C20.911 7.75396 21.4717 6.30771 21.1358 4.86688C19.7898 4.55542 18.441 4.99417 17.0869 4.95625C15.7002 4.85875 15.0015 3.51542 14.2079 2.56479C13.8342 2.13417 13.409 1.43813 12.7346 1.66292C11.3696 2.53229 10.8983 4.54729 9.18125 4.91292Z" fill="#62D0C5"/>
<path d="M16.3556 10.1563C16.6237 9.70396 17.271 9.55771 17.6394 9.98021C18.0971 10.335 17.829 10.9444 17.5365 11.31C16.3502 12.9133 15.126 14.4896 13.9506 16.1037C13.4983 16.6915 13.0217 17.4498 12.1875 17.4633C11.2829 17.5175 10.6925 16.7375 10.1021 16.1823C9.45208 15.4781 8.67479 14.8742 8.14396 14.0671C7.87312 13.3737 8.79125 12.6479 9.37896 13.1381C10.3648 13.9371 11.1827 14.9202 12.1062 15.7923C13.5362 13.9235 14.9012 12.0033 16.3556 10.1563Z" fill="#62D0C5"/>
</svg>
