<?xml version="1.0" encoding="utf-8"?>
<!-- Generator: Adobe Illustrator 22.0.0, SVG Export Plug-In . SVG Version: 6.00 Build 0)  -->
<svg version="1.1" id="Capa_1" xmlns="http://www.w3.org/2000/svg" xmlns:xlink="http://www.w3.org/1999/xlink" x="0px" y="0px"
	 viewBox="0 0 464 464" style="enable-background:new 0 0 464 464;" xml:space="preserve">
<style type="text/css">
	.st0{fill:#754C24;}
	.st1{fill:#0071BC;}
	.st2{fill:#29ABE2;}
	.st3{fill:#FBB03B;}
</style>
<path class="st0" d="M352,444h-64v-16h64c39.7,0,72-32.3,72-72v-48h16v48C439.9,404.6,400.6,444,352,444z"/>
<path class="st1" d="M400,332L400,332L400,332V172l0,0l0,0c35.3,0,64,28.7,64,64v32C464,303.4,435.3,332,400,332z"/>
<path class="st2" d="M376,148L376,148c13.3,0,24,10.7,24,24v160c0,13.3-10.7,24-24,24l0,0c-13.3,0-24-10.7-24-24V172
	C352,158.8,362.7,148,376,148z"/>
<path class="st0" d="M27.2,191.7c-0.5,0-0.9,0-1.4-0.1c-4.4-0.8-7.3-4.9-6.5-9.3v0C40.2,64.8,152.3-13.5,269.8,7.4
	c36.9,6.5,71.4,22.6,100.2,46.5c3.4,2.8,3.9,7.9,1,11.3c-2.8,3.4-7.9,3.9-11.3,1l0,0c-85-70.6-211.1-59-281.6,26
	c-22.2,26.7-37,58.7-43.1,92.9C34.4,188.9,31.1,191.7,27.2,191.7z"/>
<rect x="248" y="420" class="st2" width="56" height="32"/>
<path class="st1" d="M64,172L64,172L64,172v160l0,0l0,0c-35.3,0-64-28.7-64-64v-32C0,200.7,28.7,172,64,172z"/>
<path class="st2" d="M88,148L88,148c13.3,0,24,10.7,24,24v160c0,13.3-10.7,24-24,24l0,0c-13.3,0-24-10.7-24-24V172
	C64,158.8,74.7,148,88,148z"/>
<path class="st3" d="M216,412h32c13.3,0,24,10.7,24,24l0,0c0,13.3-10.7,24-24,24h-32c-13.3,0-24-10.7-24-24l0,0
	C192,422.8,202.7,412,216,412z"/>
<path class="st0" d="M428.1,185.1c-6.1-34.2-20.9-66.2-43.1-92.9c-70.6-85-196.7-96.6-281.6-26l0,0c-3.4,2.8-8.4,2.4-11.3-1
	c-2.8-3.4-2.4-8.4,1-11.3c28.8-23.9,63.4-39.9,100.2-46.5c117.5-20.9,229.6,57.5,250.5,174.9v0c0.8,4.4-2.1,8.5-6.5,9.3
	c-0.5,0.1-0.9,0.1-1.4,0.1C432,191.7,428.7,188.9,428.1,185.1z"/>
</svg>
