<?xml version="1.0" encoding="utf-8"?>
<!-- Generator: Adobe Illustrator 23.1.0, SVG Export Plug-In . SVG Version: 6.00 Build 0)  -->
<svg version="1.1" id="Isolation_Mode" xmlns="http://www.w3.org/2000/svg" xmlns:xlink="http://www.w3.org/1999/xlink" x="0px"
	 y="0px" viewBox="0 0 2491 1808" style="enable-background:new 0 0 2491 1808;" xml:space="preserve">
<path style="fill:#E7F5F7;" d="M0.2,1014c0-136.9,101.5-252.9,242.3-294.6c-2.5-17.5-4.2-35.2-4.2-53.4
	c0-207.4,168.1-375.4,375.5-375.4c52.1,0,101.8,10.6,146.9,29.9c62.5-145.8,223.2-249.7,411.7-249.7c153.7,0,288.9,69.1,367.4,173.7
	c45.1-17.5,94.1-27.1,145.3-27.1c201.9,0,369.1,148.5,398.4,342.3c16.5-2.1,33.2-3.5,50.3-3.5c197.2,0,357.1,139.4,357.1,311.3
	c0,126.8-87,235.6-211.7,284.2c0.5,7.5,1.1,14.9,1.1,22.5c0,184.6-149.6,334.2-334.2,334.2c-68,0-131.3-20.5-184-55.4
	c-70.5,130.2-221.9,220.2-397.4,220.2c-140.6,0-265.7-57.9-346.2-147.8c-73.8,84.9-182.6,138.6-304,138.6
	c-201.5,0-368.4-147.9-398.2-341C138.5,1305.3,0.2,1173.8,0.2,1014z"/>
</svg>
