<?xml version="1.0" encoding="utf-8"?><!-- Generator: Adobe Illustrator 23.1.0, SVG Export Plug-In . SVG Version: 6.00 Build 0)  -->
<svg version="1.1" id="Isolation_Mode" xmlns="http://www.w3.org/2000/svg" x="0px" y="0px" viewBox="0 0 865.3 603.7"
    style="enable-background:new 0 0 865.3 603.7;" xml:space="preserve">
<g>
	<path style="fill:#FCCEBF;" d="M327.7,493.9c0,0,21.3,45.4,85.9,71.3c64.6,26.2,125.6-6.8,147.5-54.3c0,0,35.1,13.8,62.4,0.8
		c27.5-13,55.6-128.3,55.6-128.3l-64.5-78.8l-15.7,35.1c0,0-34.3,49.4-96.2,22.7C440.9,335.4,327.7,493.9,327.7,493.9z" />
    <path style="fill:#FCD0C1;" d="M544.1,319.2c-6.8-15.7-18.9-25.7-35.1-28.9c-1.1-1.4-2.2-2.4-3.2-4.1c-7.3-10-13-21.1-18.6-31.9
		c-11.6-23-22.7-46.7-42.4-64c-24.6-21.6-56.4,10-87.8,5.4c-20-3-42.4-39.7-61-32.4c-1.9,0.3-3.8,0.5-5.7,1.1
		c-13.8,2.4-26.7,6.5-39.4,12.4c-26.2,12.7-48.3,32.1-64.8,55.9c-15.7,22.7-27,49.4-31.3,77c-0.8,5.4-1.4,10.5-1.6,15.9
		c-1.1,1.6-1.9,3.8-2.2,5.9c-3.2,26.2,5.4,49.2,16.2,72.9c9.5,20.3,62.4,56.4,79.1,72.1c36.7,34,45.9,14,91.3,24.6
		c0.5,0.3,1.4,0.3,1.9,0.3c21.3,21.6,55.9,26.2,84.5,20.3c29.7-6.2,56.7-24,77.5-45.6c19.7-20.8,34-46.7,41.9-74.3
		C550.3,376.7,554.3,343.5,544.1,319.2z" />
    <path style="fill:#F4B89D;" d="M546,324.9c6.2,32.7,0,51.3-4.9,68.6c-7.8,27.5-20.3,51.3-40,72.1c-20.5,21.9-47.8,41.9-77.2,48.1
		c-28.6,5.9-61.6,4.9-82.9-16.7c-0.5,0-7.3-3.2-7.8-3.2c-45.4-10.5-53.7-2.2-90.5-35.9c-16.7-15.4-69.7-51.6-79.1-72.1
		c-4.9-10.8-9.5-21.3-12.7-32.4c1.9,17.6,8.6,34.3,16.2,51c9.5,20.3,62.4,56.4,79.1,72.1c36.7,34,45.9,14,91.3,24.6
		c0.5,0.3,1.4,0.3,1.9,0.3c21.3,21.6,55.9,26.2,84.5,20.3c29.7-6.2,56.7-24,77.5-45.6c19.7-20.8,34-46.7,41.9-74.3
		C549.8,378.6,553.8,348.4,546,324.9z" />
    <path style="fill:#FCD0C1;" d="M477.9,247.1c0,0-1.1-13.8,19.4-19.4c20.5-5.7,27.3,26.7,24.3,42.1s-4.1,27.8-19.4,20
		C486.6,282.2,477.9,247.1,477.9,247.1z" />
    <path style="fill:#F48896;" d="M405.3,186.9c-21.1-48.9-82.9-58.6-97.2-58.3c-14,0.5-42.4-2.7-42.4-2.7s-41.6-11.3-40.2,4.6
		c1.4,16.2-8.9,26.2-14.9,33c-5.9,6.8-25.9,16.7-49.4,53.7S134.5,285,127.4,299c-6.8,13.8-8.4,9.2-8.4,9.2s-15.4,1.6-19.4,12.4
		s0.3,27.8,17.6,36.7s11.1,12.2,17.6,27.8c6.5,15.4,21.9,29.4,36.7,44.8c14.9,15.4,48.3,26.2,48.3,26.2l31.6-71.8l66.4-126.1
		C318,258.4,426.3,235.7,405.3,186.9z" />
    <path style="fill:#F48896;" d="M86.8,353.8c0,0-5.1-3.5-12.7,18.9c-7.6,22.7-30.5,37.8-66.4,44c0,0-11.6-41.3,6.2-69.7
		c18.1-28.6,40.5-47.3,76.7-34.6C126.8,325.1,110.6,351.1,86.8,353.8z" />
    <path style="fill:#F48896;" d="M217.3,114.7c0,0-23.8,2.7-29.4-26.5c-5.7-29.2,5.9-44.6-20-67.3c0,0,70.8-9.7,79.7,33
		c8.6,42.7,0,53.2,0,53.2S248.9,124.7,217.3,114.7z" />
    <path style="fill:#F48896;" d="M75.5,339.7c0,0,7,29.7,28.6,24.6s11.3-13,15.9-34.3s8.1-33-11.6-34.6
		C88.4,293.8,79.8,308.4,75.5,339.7z" />
    <path style="fill:#F48896;" d="M220.2,96.1c0,0-24.6,18.1-11.3,35.9c13.2,17.8,16.5,5.4,37.8,1.4c21.3-4.1,33.5-5.4,27.3-24.3
		C267.5,89.9,250.5,87.7,220.2,96.1z" />
    <g>
		<path style="fill:#544842;" d="M404.2,433.7c0-1.1,0.3-2.2,0.3-3.2c0.3-2.2-3.2-3.2-3.5-0.8c-0.3,3.2-0.8,6.5-1.6,9.5
			c-2.7,9.5-4.1,12.4-7.6,18.1c-4.3,7.3-10,11.9-16.7,17c-0.3,0.3-0.3,0.5-0.5,0.8c-0.5,0.3-0.8,0.5-1.4,0.5
			c-1.6,0.8-0.8,3.2,0.8,2.7c0.8-0.3,1.6-0.5,2.2-0.8v0.3c-0.3,0.5-0.5,1.1-1.1,1.6c-0.3,0.3-0.3,0.5-0.3,0.5l-0.3,0.3
			c-0.3,0.3-0.3,0.5-0.3,0.5h-0.3c-0.5,0-0.8,1.1,0,1.1c1.6,0.3,3-1.9,4.1-3c0.8-1.1,1.6-2.2,2.2-3.5c1.4-0.5,2.4-1.4,3.5-2.2
			c0,1.6-0.3,3-0.5,4.3c-0.3,0.5-0.8,1.4-1.1,1.9c-0.5,0.5,0.3,1.4,0.8,0.8c1.9-2.2,4.1-5.9,3.8-9.2c1.4-1.1,2.7-2.4,3.8-3.8
			c0.3,1.6,0.5,3.2,0.3,4.9c-0.3,0.8,1.1,1.1,1.4,0.3c0.5-1.9,1.1-3.8,1.4-5.7c0.3-1.1,0.3-1.9,0-2.7
			C400.9,456.1,405,444.8,404.2,433.7z" />
        <path style="fill:#544842;" d="M491.4,336.5c-1.4,1.6-3,3-4.9,3.8c0.5-1.4,1.1-2.7,1.4-4.1c2.4-2.7,4.1-5.9,4.3-9.5
			c0-0.8-1.1-1.4-1.4-0.5c-0.5,1.6-1.6,2.7-2.7,3.8c-0.3-1.1-0.8-2.2-1.6-3c-0.3-0.5-0.8-0.5-1.4-0.3c-0.8-0.5-2.2-0.5-2.4,0.8
			c-2.7,15.9-9.2,30-22.1,38.6c-1.6,1.1-3.5,2.2-5.1,3l0,0c-0.3,0.3-0.8,0.5-1.1,0.5c-1.4,0.5-0.8,2.7,0.8,2.2
			c1.9-0.8,3.8-1.6,5.4-2.7c8.1-4.1,14.9-10.3,19.7-17.8c1.9-0.3,3.8-0.5,5.4-1.9c0.5-0.3,1.1-0.8,1.4-1.1l0,0l0,0c0,0,0,0,0.3,0
			c0.8-0.5-0.3-1.6-1.1-1.1c-0.3,0.3-0.5,0.3-0.8,0.5c0,0-0.3,0-0.3,0.3c-0.8,0.3-1.9,0.5-2.7,0.5c0.5-1.1,1.4-2.4,1.9-3.5
			c3-1.1,6.5-3.5,7.6-6.2v-0.2c0,0,0,0,0-0.3C493,336.8,492,335.9,491.4,336.5z" />
        <path style="fill:#544842;" d="M340.2,397.8c-0.3-0.5-0.5-1.1-1.1-1.1c-5.7-0.5-8.1,4.3-9.5,8.9c0,0.3,0,0.8,0.3,1.1
			c-0.3,0.5-0.5,1.1-0.5,1.4c-0.3,0.5-0.3,0.8-0.5,1.4c-0.3,0.3-0.3,0.8-0.5,1.1c0,0.3-0.3,0.5-0.3,0.8c-1.6,4.3-2.4,9.2-3,14
			c-1.1,6.8-1.4,13.5-0.3,20.5c0,1.4,0.3,2.4,0.3,3.8c0.3,1.9,3.2,1.9,3.2-0.3c0-1.4,0-2.7-0.3-4.1c0-0.3,0.3-0.3,0.3-0.5
			c0.3-3.2,0.3-6.5,0.3-9.7c0.8-7.3,2.4-14.6,5.9-21.6C336.1,409.4,342.1,402.9,340.2,397.8z" />
        <path style="fill:#544842;" d="M435.2,283.3c-3-0.3-6.5,0.8-9.7,2.4c-5.9,2.4-11.3,5.9-16.2,10.3c-3.8,3.5-8.9,8.4-10.5,14
			c-1.6,2.4-3,5.9,0.3,7.3c0.5,0.3,1.1,0.3,1.4,0c5.1-4.1,7-12.2,11.3-17c3-3.2,6.2-5.9,9.7-8.4c2.2-1.4,4.3-2.4,6.5-3.5
			c0.8-0.3,1.4-0.5,2.2-0.8c1.4,0,2.2-0.5,3-1.6c0.3,0.3,0.5,0.5,1.1,0.5h0.3c0.8,0,1.6-0.3,1.9-1.4v-0.3
			C436.9,284.4,436.3,283.3,435.2,283.3z" />
        <path style="fill:#544842;" d="M451.2,418.6L451.2,418.6L451.2,418.6C451.2,418.3,451.2,418.3,451.2,418.6
			c-0.3-0.3-0.3-0.3-0.3-0.5l0,0l0,0v-0.3c-0.3-0.8-1.6-0.3-1.6,0.5c0,0.3-0.3,0.5,0,0.8c0.3,0.8,0.5,1.6,0.8,2.7
			c0,4.1-2.2,7.8-5.7,9.5c-2.4,0.3-4.9,0-7-0.5c-0.5-0.3-1.1,0.5-1.1,1.1c-0.5,0-0.8,0.8-0.3,1.4c0.8,0.5,1.9,1.1,3,1.4
			c3.5,1.6,8.4,0.8,11.1-1.4C454.1,429.1,453.6,422.9,451.2,418.6z" />
        <path style="fill:#544842;" d="M485.5,419.9c-1.6,18.1-14,31.1-28.6,40.2c-0.5,0.3,0,1.6,0.5,1.1c15.4-7,28.9-24,29.7-41.1
			C487.4,419.1,485.7,418.9,485.5,419.9z" />
        <path style="fill:#544842;" d="M489.5,418.9c-0.8-1.9-3.5-2.7-5.1-1.4c-0.8,0.5,0,1.6,0.8,1.1c1.1-0.5,2.4,0,3,1.1
			C488.4,420.5,489.8,419.9,489.5,418.9z" />
        <path style="fill:#544842;" d="M456.8,461.5c-0.5,0-0.8,0-1.1-0.5s0-1.4,0-1.9s-0.8-0.5-1.1-0.3c-1.1,0.8-0.8,3,0,3.8
			s2.7,1.4,3-0.3C457.4,462.1,457.1,461.5,456.8,461.5z" />
        <path style="fill:#F0B097;" d="M492.8,435.6c-0.3-1.1-1.6-0.5-1.6,0.3c-0.5,9.5-6.2,17.8-14.6,22.1c-0.8,0.3-0.3,1.1,0.3,1.4
			c0,0.5,0.5,0.8,0.8,0.8C489.8,459.1,497.1,447.2,492.8,435.6z" />
        <path style="opacity:0.26;fill:#FFFFFF;enable-background:new    ;" d="M395,430.5c0.3-1.6-0.5-3.2-2.7-3.8
			c-14-4.1-35.9-2.2-39.2,15.4c-2.2,11.6,5.9,31.3,20.5,27.8c13-3.2,22.7-23,22.4-35.1C396.3,432.9,395.8,431.6,395,430.5z" />
        <path style="opacity:0.39;fill:#FFFFFF;enable-background:new    ;" d="M446,419.9c-0.8-0.8-2.2-1.1-3.2-0.8
			c-0.8,0.3-1.6,0.8-1.9,1.6l0,0c-1.6,0.3-3,1.9-3.8,3.2c-1.4,2.4,0.3,5.4,3,5.7c1.9,0.3,4.1-1.1,5.1-2.2c0.8-0.8,1.4-1.6,1.4-2.7
			v-0.3c0.3-0.5,0.3-1.1,0.5-1.6C447.4,422.1,447.1,420.8,446,419.9z" />
        <path style="opacity:0.26;fill:#FFFFFF;enable-background:new    ;" d="M474.7,322.7c-1.4-1.6-3.2-2.4-5.1-3
			c-10.5-6.8-28.4,0.8-33.8,11.3c-5.9,11.9-0.5,36.5,17,29.2c8.4-3.5,15.4-8.6,20.3-16.2C476.8,338.1,480.6,328.9,474.7,322.7z" />
        <path style="opacity:0.56;fill:#F8AEA8;enable-background:new    ;" d="M534.4,326.5c-1.4-7.3-10.8-7-15.9-4.1
			c-3,1.9-5.7,4.6-7.8,7.6c-2.4,3.2-4.3,6.8-5.7,10.3c-2.2,5.7-4.3,17.3,1.1,22.1c5.9,5.1,14.6-4.1,17.8-8.4
			C529,347.6,536,335.1,534.4,326.5z" />
	</g>
    <path style="fill:#F4B89D;" d="M623.2,473.4c-25.1,24.3-55.9,20.5-55.9,20.5c-0.5,6.5-3,13.5-4.9,17.6c6.8,2.4,36.7,11.6,61,0.3
		c4.1-1.9,8.1-5.9,11.9-11.6C636.7,479.1,634.8,462.3,623.2,473.4z" />
    <path style="opacity:0.26;fill:#FFFFFF;enable-background:new    ;" d="M528.1,497.7c0,0,23.2-15.9,18.6-28.9
		c-4.6-13-19.4-9.5-38.1,9.5c-18.6,18.6-36.7,33.2-52.7,39.7c-15.9,6.5-27,7.6-23,10.8c4.3,3.2,21.1,5.1,52.7-6.5
		C517.3,510.7,528.1,497.7,528.1,497.7z" />
    <path style="fill:#F4B89D;"
        d="M494.7,260c0,0-1.9-14.9,4.6-14.9s11.1,8.4,7.6,24.3C503.3,285.4,503,268.4,494.7,260z" />
    <path style="fill:#E07082;" d="M251.6,384.6L318,258.5c0,0,15.9-3.2,34.3-10.3c23.8-24.8,48.6-53.7,50.2-67.3
		c-1.4-2.4-2.7-4.9-4.3-7.3c-0.8-0.3-1.4-0.3-2.2-0.5c-17.8-4.6-97,25.1-145.3,94.3c-48.3,68.9-45.6,159.4-45.6,159.4
		c-45.6-15.9-56.7-42.9-65.4-56.7c-8.4-14-22.4-17.8-22.4-17.8l-1.1,4.6c0.3,0.3,0.8,0.5,1.1,0.8c17.3,8.9,11.1,12.2,17.6,27.8
		c6.5,15.4,21.9,29.4,36.7,44.8c14.9,15.4,48.3,26.2,48.3,26.2L251.6,384.6z" />
    <path style="fill:#F48896;" d="M306.1,497.5c0,0-24,16.5-52.4,4.3s-38.1-42.9-38.1-42.9s-13-58.1,14.3-131.5
		c27.3-73.5,77.2-113.2,131.3-141.3c54-28.4,82.1-4.9,96.7,4.1c14.9,8.6,20.8,38.9,18.6,44.6c0,0-19.2-23.5-81.3,7.6
		s-99.1,110.5-110.7,163.7C272.9,458.8,288.3,495,306.1,497.5z" />
    <path style="fill:#E07082;" d="M116.3,349.7c0,0-28.1,11.1-36.5-14c0,0-4.6-4.6-11.1,14.9c-6.5,19.4-27,45.9-61,66.4
		c35.9-6.2,58.9-21.6,66.4-44c3.5-10.5,6.5-15.4,8.6-17.6c4.6,6.2,11.3,11.3,21.3,8.9c8.4-1.9,11.9-4.3,13.5-7.8
		C117.3,353.8,117.1,351.3,116.3,349.7z" />
    <path style="fill:#E07082;" d="M282.4,462.3c-47.3,0-64.3-26.7-69.7-39.7c0,22.4,3,36.2,3,36.2s10,30.8,38.1,42.9
		c28.4,12.2,52.4-4.3,52.4-4.3C295.9,496.1,286.4,483.1,282.4,462.3z" />
    <path style="fill:#E07082;" d="M187.8,88.3c3,15.9,11.6,22.4,18.6,24.8c-2.2,5.7-2.4,12.4,2.4,18.9c13.2,17.8,16.5,5.4,37.8,1.4
		c21.3-4.1,33.5-5.4,27.3-24.3c-16.7,20.3-26.2,18.9-44,18.1s-11.1-19.4-11.1-19.4c-16.7-16.7-6.5-22.4-15.9-55.9
		s-35.1-30.5-35.1-30.5C193.8,43.7,182.4,59.1,187.8,88.3z" />
    <path style="fill:#FBBFA8;"
        d="M566.2,479.1c0,0,2.7,10.3-1.9,26.2c-4.6,15.9,10.3-2.7,10.3-2.7S575.7,475.3,566.2,479.1z" />
    <path style="opacity:0.56;fill:#F8AEA8;enable-background:new    ;" d="M413.9,479.4c0,0-9.5-7.3-20.8,8.6s-6.8,24,6.8,21.1
		c13.5-3,17.3-13,17.8-19.7C418.8,482.9,417.7,479.4,413.9,479.4z" />
    <path style="opacity:0.26;fill:#FFFFFF;enable-background:new    ;" d="M336.1,168.8l-0.5-1.1c-1.4-3-5.7-4.6-8.6-4.3
		c-1.9,0.3-3.8,0.5-5.7,1.1c-1.9-4.1-5.9-6.8-11.1-4.3c-3.2,1.4-6.2,3-9.2,4.3c-1.9-4.1-6.5-7-11.3-4.6c-3.8,1.9-7.6,3.5-11.3,5.4
		c-1.1-3.5-4.1-6.5-9.2-6.5c-2.4,0-4.9,0-7,0.5c0.8-5.4-4.6-10.8-10.8-7.3c-23.2,13.5-43.2,31.9-60.2,52.7
		c-6.8,8.4,2.7,18.9,11.9,13.8c2.7-1.6,5.4-3.2,8.1-5.1c0.3,1.4,0.3,3,0.8,4.3c1.6,5.4,9.7,8.9,14.3,4.9c1.9-1.6,4.1-3.2,6.2-4.9
		c1.9,3,5.1,5.4,8.9,5.1c7.8-0.8,15.9-5.1,23.2-10.3c1.9,2.4,4.6,4.1,8.1,4.1c10,0,15.7-5.7,22.7-12.2c6.8-6.2,18.6-17.6,29.2-20.8
		c3.5,1.6,7.6,1.4,10.8-2.4c0.3-0.3,0.3-0.5,0.5-0.8C338.3,177.1,338.3,172.8,336.1,168.8z" />
    <path style="opacity:0.26;fill:#FFFFFF;enable-background:new    ;" d="M416.6,203.6c-1.6-2.4-4.3-4.1-7.8-3.5
		c-1.1-3-3.8-5.4-7.3-5.9c-1.1-4.6-5.4-8.4-10.8-6.8c-1.9-1.4-4.6-1.9-7.6-1.1c-28.9,5.9-53.2,22.4-70.5,46.2
		c-3.8,5.1-1.1,10,3.2,12.4c-1.4,5.1,3.5,9.5,8.6,10c2.2,3.8,7,6.5,11.1,4.9c2.4,4.3,7.6,6.8,12.7,3.5
		c21.6-14.6,42.9-32.1,67.8-40.5C425.2,219.5,425.2,205.2,416.6,203.6z" />
    <path style="opacity:0.26;fill:#FFFFFF;enable-background:new    ;" d="M54.7,320.5c-11.3,1.1-20,14.6-25.9,22.7
		c-2.4,3.2-4.6,6.8-6.5,10c-1.4,0-2.7,1.1-3,2.7c-0.3,1.1-0.3,2.2-0.3,3c-1.1,0.3-1.9,1.1-2.2,2.7c-0.3,2.2-0.5,4.1-0.3,6.2
		c-0.8,3.8-1.4,7.6-1.1,11.6c0,0,0,0,0,0.3c0,0.5-0.3,1.1-0.3,1.6c-1.1,3.8,4.1,5.1,5.9,2.2c0.3,0,0.8-0.3,1.1-0.5
		c2.2-1.4,4.1-3,5.9-4.6c1.6,0.3,3.2-0.5,4.1-2.2c0.8-1.4,1.6-2.7,2.2-4.1c2.2,2.4,6.2,0.5,7.3-2.2c0.3-1.1,0.5-2.2,0.8-3
		c0.8-0.3,1.6-1.1,2.2-1.9c0.5-1.4,1.1-2.7,1.6-4.3c1.4-0.3,2.4-0.8,3-2.2c1.1-2.7,1.9-5.1,2.2-7.8c1.1-0.3,2.2-1.1,2.4-2.2
		c2.4-5.1,3-10.3,5.1-15.1c1.1-0.3,2.4-0.8,3.2-1.9C67.9,325.4,60.4,320,54.7,320.5z" />
    <path style="opacity:0.26;fill:#FFFFFF;enable-background:new    ;" d="M111.1,308.1c-0.8-0.8-2.4-1.4-3.5-1.1
		c-0.8-1.4-2.7-2.2-4.3-1.4c-0.5,0-1.4,0.3-1.9,0.5l0,0c-1.4-0.3-2.4,0-3.8,1.4c-1.6,1.6-2.7,3.5-3.2,5.7c-0.8,1.6-1.6,3.2-2.4,4.9
		c-0.5,1.4,0.3,3,1.4,3.8c-1.1,2.7-1.4,5.9-0.5,8.9c0.8,3.5,6.2,3.8,7.8,0.8c0,0.3,0.3,0.3,0.3,0.5c1.4,2.7,6.5,2.4,7.6-0.3
		c0.3-0.8,0.5-1.4,0.8-2.2h0.3c3,0.8,5.1-1.9,5.1-4.3c0-4.6,0-8.9,0.3-13.5C114.9,309.5,113,308.1,111.1,308.1z" />
    <path style="opacity:0.26;fill:#FFFFFF;enable-background:new    ;" d="M242.1,77.2c-0.3-2.2-0.5-4.1-1.1-5.9c0-1.4,0-2.7-0.3-4.1
		c-0.3-1.6-0.8-3-1.6-4.3c-1.6-6.2-3.5-12.4-5.9-18.6c-0.8-1.9-2.4-2.7-4.1-2.7c1.1-1.6,1.4-3.5-0.5-4.9c-0.5-0.5-1.1-0.8-1.6-1.1
		c-0.5-0.5-1.1-1.1-1.9-1.4c-3-1.9-5.9-3.2-9.2-4.3c-0.8-0.5-1.6-0.8-2.7-0.8c-1.1-0.3-2.2-0.5-3.2-0.8c-4.6-1.1-5.9,5.7-1.6,7
		c0.5,0.3,1.4,0.3,1.9,0.5c0.5,0.8,1.1,1.6,1.9,2.4c0.8,1.1,1.6,2.2,2.4,3.2l0.3,0.3c1.4,2.2,3,4.1,4.3,6.2
		c-0.5,1.9-1.1,3.8-2.2,5.9c-1.4,2.7,0.3,4.9,2.2,5.7c0,0,0,0,0,0.3c-1.1,1.6-0.5,3.5,0.5,4.6c-0.3,0.3-0.5,0.5-0.5,0.8
		c-2.4,3-0.5,6.2,2.2,6.8v0.3c-1.1,2.2-0.3,4.1,1.4,5.4c-1.6,3,1.4,7,4.3,6.5l0,0c0.3,1.6,2.4,3,4.1,2.7c3.5-0.3,5.9-1.6,7.3-4.9
		c0-0.3,0-0.3,0.3-0.5C240.8,80.7,242.4,79.4,242.1,77.2z" />
    <path style="opacity:0.26;fill:#FFFFFF;enable-background:new    ;" d="M257,103.1c-0.8-0.8-1.6-1.1-2.7-1.1c-0.5-1.6-2.2-3-4.3-3
		c-1.1,0-2.4,0.3-3.5,0.3c-0.3,0-0.3,0-0.5,0c-5.1-0.8-10,1.6-12.2,6.5c-0.8,1.9,0,4.1,1.1,5.4c-0.3,3,2.2,5.7,5.7,4.6
		c1.1-0.3,2.2-0.8,3.2-1.1c0.8,2.4,3.5,4.3,6.5,2.4s5.9-3.8,8.9-5.7C263.2,108.8,260.8,103.4,257,103.1z" />
    <path style="opacity:0.26;fill:#FFFFFF;enable-background:new    ;" d="M626.5,349.2c-3.2-8.1-12.4-5.7-17.8-1.9
		c-7,5.1-12.7,11.6-20,16.5c-5.9,4.1-12.2,7.3-18.4,10.3c-4.3,1.1-8.9,1.9-13.2,2.7c-5.9,1.1-5.7,8.9,0.5,9.2c1.4,0,2.7,0,4.1,0
		c0.8,0.5,1.6,0.8,3,0.8c12.4-0.3,24-3.5,34.3-9.5c3-1.4,5.9-3,8.6-4.6C613.8,369.2,630.8,359.7,626.5,349.2z" />
    <path style="opacity:0.26;fill:#FFFFFF;enable-background:new    ;" d="M437.7,251.1c-1.6-0.5-3-1.1-4.6-1.4
		c-2.2-1.6-4.6-2.4-7-2.4l0,0c-15.9-7.3-69.1,21.9-63.2,42.7c-0.8,2.7,0.3,5.4,3.5,7.6c1.6,1.1,3.5,1.6,5.4,1.6
		c6.8,4.9,15.9-3,21.6-6.8c15.7-10.5,30.5-21.6,45.1-33.5C440.6,257.1,441.2,252.8,437.7,251.1z" />
    <g>
		<path style="fill:#F4B89D;" d="M809.3,463.2c0,0,10.3,13.5,22.7,13.5s14.9-6.8,14.9-10.3s-1.9-8.9-8.1-11.3c0,0,4.9-4.6,2.7-10.5
			c-2.2-5.7-7-5.7-7-5.7s0.3-5.1-3.2-7.8c-3.8-2.7-8.1-0.8-8.1-0.8s-3.5,0.8-8.6-7.6s-5.4-14.3-16.5-18.4s-30.5,15.9-16.2,40
			C795.5,468.3,809.3,463.2,809.3,463.2z" />
        <path style="opacity:0.26;fill:#FFFFFF;enable-background:new    ;" d="M838.7,459.9c-1.9,0-3.2,1.9-3.2,3.8c0,1.4,0,2.4,0.8,3.8
			c1.4,2.2,4.6,1.6,5.7-0.3c0.8-1.1,0.5-2.4,0.5-3.8C842.5,461.5,840.6,459.9,838.7,459.9z" />
        <path style="opacity:0.26;fill:#FFFFFF;enable-background:new    ;" d="M838.7,446.4c-0.8-3.5-5.9-2.7-6.5,0.3
			c-0.3,0.8-0.3,1.6-0.3,2.4c0,1.9,1.9,3.5,3.8,3.5c2.2,0,3.2-1.9,3.5-3.8C839,447.8,838.7,447.2,838.7,446.4z" />
        <path style="opacity:0.26;fill:#FFFFFF;enable-background:new    ;" d="M824.7,429.4c-2.7,0-4.3,4.1-2.2,5.7c-0.3-0.3-0.3-0.3,0,0
			c0.3,1.1,0.8,2.2,1.9,2.4c1.1,0.5,1.9,0.5,2.7,0.3c1.4-0.3,2.7-2.2,2.4-3.5C829.6,431.6,827.7,429.4,824.7,429.4z" />
	</g>
    <path style="opacity:0.26;fill:#FFFFFF;enable-background:new    ;" d="M486,436.7c-4.1,7.3-5.4,15.1-13.2,19.7
		c-0.8,0.5-0.3,1.6,0.5,1.4c7.8-2.7,11.6-13.2,14-20.3C487.9,436.4,486.6,435.9,486,436.7z" />
    <path style="opacity:0.26;fill:#FFFFFF;enable-background:new    ;" d="M504.6,230.3c-2.2,0-4.1,0.3-6.2,0.8
		c-4.3,0.8-8.4,3-11.3,6.5c-1.1,1.4-2.7,3.5-2.7,5.4c-0.3,0.3-0.3,0.5-0.5,0.8c-0.5,1.1,1.1,2.2,1.6,1.1c0.5,1.4,1.4,2.4,2.7,3.5
		c0.5,0.3,1.4,0,1.6-0.5c2.4-6.5,7-11.9,13.5-14.9c0.3,0,0.5-0.3,0.5-0.5c0.3,0,0.5,0,0.8-0.3C506.3,232.5,506,230.1,504.6,230.3z" />
    <g style="opacity:0.49;">
		<path style="fill:#F3F3F3;" d="M174.6,370.2L174.6,370.2C174.3,370,174.3,370,174.6,370.2c-0.3-0.3-0.3-0.3-0.3-0.3l0,0
			c-1.1-0.5-2.4-0.5-3.5,0l0,0c-0.5,0-1.1,0.3-1.1,0.8c0,0.3,0,0.3,0,0.5c-0.5,0.8-0.8,1.9-0.5,2.7c0,1.6,1.1,3.5,3,3.5
			c0.8,0,1.4-0.5,1.6-1.1C175.7,375.6,177,372.1,174.6,370.2z" />
        <path style="fill:#F3F3F3;" d="M153.5,323.8c-0.3,0-0.3,0-0.5,0c-0.3-0.3-0.5-0.5-0.8-0.3c-4.1,1.1-4.3,7.6-0.5,9.2
			c0.5,0.3,0.8,0,1.1-0.3c1.4-1.4,2.7-2.7,2.7-4.9C155.7,326.2,154.9,324.6,153.5,323.8z M151.9,330.5c-0.5-0.5-1.1-1.4-1.1-2.2
			c1.1,0.5,1.9,0.3,2.7-0.5C153.3,329.2,152.7,330,151.9,330.5z" />
        <path style="fill:#F3F3F3;" d="M148.7,371.6c-0.8-3-5.1-3.5-6.5-0.5c-0.3,0.8-0.3,1.4,0,2.2c-0.5,0.5-0.3,1.4,0.8,2.2
			C146,377.3,149.5,374.8,148.7,371.6z" />
        <path style="fill:#F3F3F3;" d="M187,412.6c-0.3-0.3-0.5-0.5-1.1-0.3c-1.6,0.3-3,2.2-2.7,3.8c-0.3,0.3-0.5,0.3-0.8,0.8
			c-0.8,1.6,0.3,3.5,1.6,4.1c1.6,0.8,3.5-0.5,4.3-1.9C189.7,416.7,188.6,414.3,187,412.6z" />
        <path style="fill:#F3F3F3;" d="M204.9,370c-0.3-0.3-0.3-0.3-0.5-0.3c-0.3-0.3-0.3-0.5-0.5-0.8c-0.5-0.5-1.4-0.5-1.6,0
			c0,0.3,0,0.5-0.3,0.5c-0.8,0.3-1.4,0.8-1.6,1.4c-1.1,1.9,0,3,1.6,3.5c0,0.3,0.3,0.5,0.3,0.8c0.3,0.3,0.5,0.5,1.1,0.3
			c0.3,0.3,0.8,0.3,1.1,0C205.7,374.3,206.5,371.6,204.9,370z" />
        <path style="fill:#F3F3F3;" d="M193.8,329.2c-0.3-1.4-1.6-2.2-2.7-2.2c-0.5,0-0.8,0.3-0.8,0.8c-0.5,1.6-0.3,3.5,0.3,5.1
			c0.3,0.5,0.5,0.8,1.1,0.8c1.6,0,2.4-1.6,2.4-3.2C193.8,330.3,193.8,329.7,193.8,329.2z" />
        <path style="fill:#F3F3F3;" d="M164.6,400c-0.3-1.4-1.6-2.2-2.7-2.2c-0.5,0-0.8,0.3-0.8,0.8c-0.5,1.6-0.3,3.5,0.3,5.1
			c0.3,0.5,0.5,0.8,1.1,0.8c1.6,0,2.4-1.6,2.4-3.2C164.6,401,164.9,400.5,164.6,400z" />
        <path style="fill:#F3F3F3;" d="M172.2,347c-0.3-1.4-1.6-2.2-2.7-2.2c-0.5,0-0.8,0.3-0.8,0.8c-0.5,1.6-0.3,3.5,0.3,5.1
			c0.3,0.5,0.5,0.8,1.1,0.8c1.6,0,2.4-1.6,2.4-3.2C172.2,348.1,172.4,347.6,172.2,347z" />
        <path style="fill:#F3F3F3;" d="M196.5,398.3c-0.3-1.4-1.6-2.2-2.7-2.2c-0.5,0-0.8,0.3-0.8,0.8c-0.5,1.6-0.3,3.5,0.3,5.1
			c0.3,0.5,0.5,0.8,1.1,0.8c1.6,0,2.4-1.6,2.4-3.2C196.5,399.4,196.5,398.9,196.5,398.3z" />
        <path style="fill:#F3F3F3;" d="M134.1,350c-0.3-1.4-1.6-2.2-2.7-2.2c-0.5,0-0.8,0.3-0.8,0.8c-0.5,1.6-0.3,3.5,0.3,5.1
			c0.3,0.5,0.5,0.8,1.1,0.8c1.6,0,2.4-1.6,2.4-3.2C134.1,351.1,134.1,350.5,134.1,350z" />
        <path style="fill:#F3F3F3;" d="M172.4,280c-2.4-2.4-6.5-0.3-5.4,3c0,0.3,0.3,0.5,0.5,0.8c-0.3,1.1,0,2.2,1.1,2.7
			c1.4,0.5,3.2-0.8,4.1-1.9C173.8,283.3,173.5,281.4,172.4,280z" />
        <path style="fill:#F3F3F3;" d="M146,287.6c-0.5-1.9-2.2-3.5-4.3-4.1c-0.5-0.3-1.1,0.3-1.4,0.8c-0.3,1.9,0,3.8,1.1,5.4
			c0.3,0.3,0.8,0.5,1.1,0.5s0.5-0.3,0.8-0.5c0.3,1.1,0.8,1.9,2.2,1.6C147.6,290.8,147.9,287.9,146,287.6z" />
        <path style="fill:#F3F3F3;" d="M129,314.6c-0.3-0.3-0.8-0.5-1.4-0.5c-0.5,0.3-1.1,0.5-1.6,1.1c-0.3,0-0.3,0-0.5,0
			c-0.5,0-0.8,0.3-0.8,0.8s0,1.1,0,1.9c-0.3,1.4,0,2.7,0.8,3.8c0.3,0.3,0.5,0.5,1.1,0.3c1.4-0.3,2.2-1.1,2.4-2.2
			c0.3-0.5,0.5-1.4,0.8-1.9C129.8,316.8,129.5,315.4,129,314.6z" />
        <path style="fill:#F3F3F3;" d="M108.7,344c0-0.5-0.3-1.1-0.8-1.1c0-0.8-0.5-1.6-1.6-1.9c-2.2-0.3-4.1,2.2-2.7,4.1
			c0.3,0.3,0.5,0.5,0.8,0.8s0.5,0.5,1.1,0.5h0.3c0.5,0,1.1,0,1.6-0.5C107.9,345.7,108.4,345.1,108.7,344z" />
        <path style="fill:#F3F3F3;" d="M88.7,328.9C88.4,328.9,88.4,328.7,88.7,328.9C88.4,328.7,88.4,328.7,88.7,328.9
			c-0.3-0.5-0.5-0.8-0.8-1.1s-0.3-0.8-0.8-1.1c-2.7-2.2-6.2,1.9-4.3,4.3c0.5,0.8,1.4,1.1,2.2,1.1c1.1,0.5,2.2,0.3,3.2-0.3
			C89.5,331.4,89.3,329.7,88.7,328.9z" />
        <path style="fill:#F3F3F3;" d="M100.3,304.6c0-0.5-0.5-0.8-0.8-0.8c-3,0.5-4.9,4.6-2.4,7c2.4,2.2,6.8,1.1,7-2.4
			C103.8,306.2,101.9,304.3,100.3,304.6z" />
        <path style="fill:#F3F3F3;" d="M119.8,303c0-0.3-0.3-0.5-0.5-0.5c-0.3-0.3-0.5-0.5-0.8-0.8c-0.5-0.5-1.6,0-1.6,0.8
			c0,0.5,0,0.8,0,1.4c-0.3,0.8-0.5,1.6,0.3,2.4c0.3,0.5,0.8,0.8,1.6,0.5C120,306,120.6,304.3,119.8,303z" />
        <path style="fill:#F3F3F3;" d="M63.1,317.6c0-0.8,0-1.4-0.3-1.9s-0.5-0.8-1.1-1.1c-0.3-0.3-0.8-0.5-1.1-0.8
			c-0.5-0.3-1.1,0-1.4,0.3c-0.3,0.3-0.5,0.5-0.5,0.8c-0.5,0.3-0.8,0.8-1.1,1.4c-0.8,1.9,0.5,3.2,2.2,3.8c0,0.8,0.5,1.6,1.4,1.9
			c0.3,0,0.8,0,1.1-0.3C63.1,320,63.3,318.7,63.1,317.6z" />
        <path style="fill:#F3F3F3;" d="M30.9,334.9c-1.4-0.8-3-0.5-3.5,0.8l0,0c-2.4,1.6-1.6,5.9,1.6,5.7c0.5,0,1.1-0.3,1.6-0.5
			C32.5,339.5,33.3,336.2,30.9,334.9z" />
        <path style="fill:#F3F3F3;" d="M59,341.6c-0.3-1.9-1.9-3.2-3.8-2.4c-0.3,0-0.5,0.3-1.1,0.5l0,0c-1.4,0.5-1.9,2.2-1.4,3.5
			c-0.5,0.8-0.5,1.6-0.3,2.4c0.5,1.9,3.5,1.1,4.6,0.3s1.9-2.2,1.6-3.5C59,342.2,59,341.9,59,341.6z" />
        <path style="fill:#F3F3F3;" d="M27.4,360c-0.3,0-0.5,0.5-0.8,0.8c-0.3,1.1-0.3,1.9,0,3c-0.3,0.3-0.5,0.5-0.5,1.1
			c0,0.3,0,0.8,0.3,0.8c0.5,0.3,1.1,0.5,1.6,0.8c0.3,0.3,0.8,0.5,1.4,0.3c0.3,0,0.3-0.3,0.5-0.3c0.8-0.3,1.6-0.8,1.9-1.9
			C32.5,361.6,29.8,359.4,27.4,360z" />
        <path style="fill:#F3F3F3;" d="M12,379.4c0,0-0.3-0.3-0.5-0.3c0-0.3-0.3-0.3-0.5-0.3c-0.3-0.3-0.8-0.3-1.1-0.3
			c-0.8,0-1.6,0.3-2.2,1.1c-0.3,0.5-0.5,1.4-0.3,2.2c-0.3,0.3-0.5,0.5-0.5,0.8c-1.1,2.4,2.4,3.5,4.1,3.5c0.3,0,0.8-0.3,0.8-0.5
			C13.1,383.5,13.9,381,12,379.4z" />
        <path style="fill:#F3F3F3;" d="M29.3,398.1c0.3-1.1-1.4-1.6-1.6-0.5l0,0c-0.3-0.3-0.3-0.8-0.8-1.1c-0.3-0.3-0.5-0.3-0.8-0.3
			c0,0-0.3,0-0.3-0.3c-0.5-0.3-1.4,0-1.6,0.5c-0.3,0.5-0.5,1.4-0.5,2.2c-0.3,0-0.3,0.3-0.5,0.3c-0.3,0.3-0.5,0.5-0.5,1.1
			c0.3,1.1,0.8,2.2,1.9,2.7s2.4,0.5,3-0.5c0.3-0.8,0.5-1.6,0.5-2.2C28.5,399.4,29,399.1,29.3,398.1z" />
        <path style="fill:#F3F3F3;" d="M55.5,372.7c-0.3-0.5-0.8-0.8-1.4-0.8c-1.9,0.5-5.1,2.4-4.1,4.9c-0.5,1.4,0,3,1.6,3.5
			c1.4,0.5,3-0.3,3.8-1.6C56.6,376.7,56,374.6,55.5,372.7z" />
        <path style="fill:#F3F3F3;" d="M72.2,351.1c-0.3-0.5-0.5-0.5-0.8-0.8c-0.5-0.5-1.1-0.8-1.6-0.8c-1.4-0.3-2.2,0.8-2.4,2.2
			c-0.3,0.8,0,1.9,0.5,2.4c0.3,1.4,1.1,2.4,2.7,2.7c0.3,0,0.8,0,1.1-0.3C72.8,354.9,73,353,72.2,351.1z" />
        <path style="fill:#F3F3F3;" d="M183.5,306.5c-0.3-1.6-1.6-1.9-3.2-2.7c-0.5-0.3-1.4,0-1.6,0.8c0,0.3,0,0.8,0,1.1
			c-1.1,1.9,0.8,3.8,2.2,4.9c0.5,0.3,1.1,0.3,1.4,0c0.5-0.5,1.1-1.4,1.4-2.2l0.3-0.3C184.3,307.6,184.1,306.8,183.5,306.5z" />
        <path style="fill:#F3F3F3;" d="M213.2,299.8c0-0.5,0-1.4,0-1.9c0-0.3-0.3-0.5-0.8-0.5c-1.9-0.3-4.1,0.8-4.1,2.7
			c0,0.8,0.5,1.6,1.1,2.2c0.3,0.5,0.8,0.8,1.1,0.5c0,0,0,0,0.3,0s0.5,0,1.1,0C213,302.5,213.8,301.1,213.2,299.8z" />
        <path style="fill:#F3F3F3;" d="M207.3,268.7c-0.3-0.3-0.8-0.3-1.4,0c-1.1,0.8-1.6,2.2-1.1,3.5c-1.1,1.4-1.1,3.5,0.8,4.1
			c1.6,0.3,2.7-1.9,3-3C208.9,271.7,208.4,269.8,207.3,268.7z" />
        <path style="fill:#F3F3F3;" d="M174.1,249c0-1.1-1.4-1.4-1.9-0.5c-0.3,0.3-0.5,0.5-0.8,0.8c-0.3,0-0.3,0-0.5,0
			c-3.2,1.4-0.5,6.5,2.4,5.4c0.5,0,0.8-0.5,0.8-1.1C174.1,251.9,174.1,250.3,174.1,249z" />
        <path style="fill:#F3F3F3;" d="M153.3,256.3c-0.3-0.5-0.5-0.8-0.8-1.1s-0.5-0.8-0.8-1.1c0,0,0,0,0-0.3c0-0.8-0.8-1.1-1.4-0.8
			c-0.3,0-0.3-0.3-0.5-0.3c-1.1-0.5-2.2,0-2.7,1.4s0,3.5,1.4,4.1c0.3,0.3,0.3,0.5,0.5,0.8c1.6,1.1,3.2,0,3.8-1.6
			C153,257.1,153.3,256.8,153.3,256.3z" />
        <path style="fill:#F3F3F3;" d="M205.9,243c-0.3-0.8-0.8-1.6-1.6-1.9c0,0,0,0,0-0.3c-0.3-0.5-0.8-0.5-1.4-0.3
			c-0.8-0.3-1.9,0-2.4,1.1v0.3c0,0,0,0-0.3,0.3c-1.1,1.6-0.3,3.8,0.8,5.1c0.3,0.3,0.8,0.3,1.1,0.3s0.3-0.3,0.5-0.3
			c0.8,0,1.6-0.3,2.2-0.8C205.7,245.7,206.2,244.4,205.9,243z" />
        <path style="fill:#F3F3F3;" d="M170.3,215.2L170.3,215.2c-0.3-0.8-0.8-1.1-1.4-0.8c-0.3,0-0.3,0-0.5,0.3c-2.7,0-4.1,4.9-1.4,5.9
			c0.3,0,0.5,0,0.8,0C170.6,220.9,172.2,217.1,170.3,215.2z" />
        <path style="fill:#F3F3F3;" d="M203,214.9c0-0.3-0.3-0.5-0.5-0.8c-0.5-1.4-2.2-1.9-3.5-1.9c-1.9,0-3.8,1.6-3.5,3.8
			c0,1.9,1.6,4.1,3.8,3.8c0.3,0,0.5-0.3,0.8-0.5c0.3,0,0.5,0,0.8-0.3c1.1-0.5,1.6-1.4,2.2-2.4C203,216.6,203.2,215.8,203,214.9z" />
        <path style="fill:#F3F3F3;" d="M201.9,179.3c-0.3,0-0.8,0-1.1,0c-0.5-0.5-1.1-0.5-1.6,0l0,0c-0.5,0-1.1,0-1.6,0s-0.8,0.3-0.8,0.8
			c-0.3,1.1-0.5,1.9-0.8,3c0,0.3,0,0.8,0.3,1.1c1.1,1.1,2.4,1.1,3.5,0.5c0.3,0,0.5,0,0.8,0c0.5-0.3,0.5-0.5,0.5-1.1
			c0.3-0.3,0.5-0.8,0.5-1.4c0-0.3,0-0.5,0-0.5c0-0.3,0-0.5,0-0.8h0.3C203,180.6,202.7,179.3,201.9,179.3z" />
        <path style="fill:#F3F3F3;" d="M232.9,247.9c-0.3-0.3-1.1-0.3-1.6,0c-0.5,0.8-0.8,1.6-0.8,2.4c-2.4,0.5-2.2,4.6,0.5,4.9
			c1.6,0,3-0.8,3.5-2.2C235.4,251.1,234.3,249.2,232.9,247.9z" />
        <path style="fill:#F3F3F3;" d="M219.4,327.3c0-0.3-0.3-0.8-0.8-0.8c0-0.3-0.3-0.8-0.3-1.1c-0.3-0.5-0.8-0.5-1.4-0.5
			c-1.4,0.3-2.4,1.9-2.2,3.2l0,0c-0.8,0.8,0,1.9,0.8,1.9c0,0,0,0,0.3,0c0.5,0.3,1.4,0.3,1.9,0l0,0c0,0,0.3,0,0.3-0.3l0,0
			C219.2,329.2,219.7,328.1,219.4,327.3z" />
        <path style="fill:#F3F3F3;" d="M235.9,278.1c-0.5-0.8-1.6-0.5-1.9,0.3c-0.3,0.5-0.3,1.1-0.5,1.6c-1.6-0.5-2.4,1.4-1.6,2.4
			c1.1,1.9,2.7,1.6,4.1,0C236.7,281.7,236.7,279.8,235.9,278.1z" />
        <path style="fill:#F3F3F3;" d="M267.5,241.7c-1.1-0.5-2.2-0.3-2.7,0.5c-0.5,0.5-0.5,1.4-0.5,1.9c-1.9,0.8-2.7,2.7-1.6,4.3
			c0.3,0.3,0.8,0.5,1.1,0.5c2.7-1.1,4.3-3.5,4.1-6.5C268.1,242.2,268.1,241.7,267.5,241.7z" />
        <path style="fill:#F3F3F3;" d="M238.6,219.8c-1.4-1.6-4.3-2.2-5.7-0.3c-1.1,1.6-0.8,4.3,1.4,4.9c0.5,0.3,0.8,0.3,1.4,0
			c0,0.5,0,0.8,0,1.4c0.3,0.5,1.1,1.1,1.6,0.5C239.2,224.9,240.2,222,238.6,219.8z" />
        <path style="fill:#F3F3F3;" d="M231.1,190.6c-0.3,0.3-0.5,0.3-0.8,0.5c-0.3-0.8-1.4-1.4-2.2-1.1c-0.8,0.3-1.4,0.8-1.4,1.6
			c0,1.4,0.8,2.2,1.6,3c0.5,0.5,1.1,0.3,1.6,0c0.8-0.8,1.9-1.6,2.4-2.7C232.4,191.4,231.9,190.4,231.1,190.6z" />
        <path style="fill:#F3F3F3;" d="M226.5,156.1c-1.4-1.1-3.5,0.3-4.1,1.6c0,0,0,0,0,0.3c-1.1,1.1-1.4,2.4-0.5,3.8
			c0.3,0.3,0.5,0.5,0.8,0.5c0.5,0,1.1-0.3,1.4-0.5c1.1,0,2.2-0.5,2.7-1.6C227.5,159,227.8,157.1,226.5,156.1z" />
        <path style="fill:#F3F3F3;" d="M272.4,192.3c-0.3-0.3-0.8-0.5-1.1-0.5c-0.3-0.3-0.5-0.5-0.8-0.8c-0.8-0.3-1.9,0.5-1.9,1.4
			c-0.3,0.3-0.5,0.8-0.5,1.4c0,0.3,0,0.5,0.3,0.5c-0.3,0.8-0.3,1.6-0.3,2.7c0,0.8,0.8,1.1,1.4,1.1
			C271.6,197.1,274.5,194.4,272.4,192.3z" />
        <path style="fill:#F3F3F3;" d="M296.4,216.6c-0.5-0.3-1.1-0.3-1.6-0.3c0-0.8,0-1.9-0.5-2.4c-1.1-1.4-2.4-1.4-3.5-0.3
			c-1.4,1.4-1.6,3.2-1.4,5.1c0,0.5,0.5,0.8,0.8,0.8c0.8,0.3,1.6,0,2.2-0.3c0.8,0,1.4,0,2.2-0.3c0.5-0.3,0.8-0.5,0.5-1.1
			c0.3,0,0.5,0,0.8,0C296.7,218.5,297.2,217.1,296.4,216.6z" />
        <path style="fill:#F3F3F3;" d="M314.5,189.6c0-1.1-0.3-1.9-0.8-2.7v-0.3c-0.3-0.8-0.8-0.8-1.4-0.5c-0.8-0.3-1.6-0.3-2.4,0
			c-0.3,0.3-0.5,0.5-0.5,0.8c-0.8,0.3-1.1,1.1-1.1,1.9s0.5,1.6,1.1,2.2l0,0c-0.3,0.8-0.3,1.9,1.1,2.4c0.3,0,0.8,0.3,1.1,0
			c0.8-0.5,1.4-1.4,1.6-2.2c0.5,0,0.8-0.3,0.8-0.8C314.2,190.1,314.5,189.8,314.5,189.6z" />
        <path style="fill:#F3F3F3;" d="M263.5,166.3c-0.3-1.1-1.1-1.6-2.2-1.9c-0.3-0.5-0.5-1.1-0.8-1.4c-0.3-0.5-1.1-0.8-1.6-0.3
			c-1.4,1.1-2.2,3.2-1.9,4.9c-0.3,0.3-0.3,0.8,0,1.4c0.5,0.8,1.6,1.1,2.4,1.1C261.6,170.4,264,168.8,263.5,166.3z" />
        <path style="fill:#F3F3F3;" d="M296.1,162.8c-1.6,0.5-1.9,3-1.1,4.1v0.3c0.5,3,4.9,2.4,5.9,0.3
			C302.4,164.4,298.8,161.7,296.1,162.8z" />
        <path style="fill:#F3F3F3;" d="M338.5,158.8c-0.3-0.3-0.3-0.3-0.5-0.3c-1.4-0.3-2.4,0.3-3,1.4c0,0,0,0-0.3,0.3
			c-0.5,0.5-0.8,1.1-0.8,1.9c0,0,0,0,0,0.3v0.3c0,0.8,0.3,1.9,1.1,2.7c0,0,0.3,0.3,0.5,0.3c1.4,0.8,3.2,1.1,4.6-0.5
			C342.1,162.5,341,159.3,338.5,158.8z" />
        <path style="fill:#F3F3F3;" d="M290.5,142.6c-0.3-0.8-0.8-1.6-1.6-1.9c-0.8-0.5-1.6-0.5-2.4-0.5c-0.5,0-1.1,0.5-1.1,1.1v0.3
			c0,0,0,0.3-0.3,0.3c-2.4,1.6-0.8,6.5,2.7,5.7c1.6-0.5,3-2.2,2.7-3.8C290.7,143.1,290.7,142.8,290.5,142.6z" />
        <path style="fill:#F3F3F3;" d="M258.3,138.8c-0.8-1.4-3.2-2.4-4.3-1.1c-1.4,0.5-2.4,2.2-1.9,4.1c1.1,3,3.5,1.9,4.9,0
			C258.1,141.2,259.1,140.1,258.3,138.8z" />
        <path style="fill:#F3F3F3;" d="M231.3,139.1c-0.5-0.5-1.6-0.3-2.2,0l-0.3,0.3v-0.3c0.3-0.8-0.8-1.1-1.1-0.5
			c-1.1,0.8-0.8,2.4,0,3.5s2.2,1.6,3.5,1.4c0.5,0,0.8-0.5,0.8-1.1C231.9,141.5,232.1,139.9,231.3,139.1z" />
        <path style="fill:#F3F3F3;" d="M230,119.6c-0.5-0.5-1.1-0.5-1.6,0c-0.8,0.8-1.4,1.6-1.4,2.7c-0.3,0-0.3,0-0.5,0
			c-1.9,0.5-1.6,3.2-0.5,4.3c1.4,1.6,3.8,1.1,5.1-0.5C232.4,124.2,231.6,121.5,230,119.6z" />
        <path style="fill:#F3F3F3;" d="M234.6,101.2c0-0.3,0-0.3,0-0.5c0-0.5-0.5-1.1-1.1-1.1l0,0c-1.6-0.5-4.3,1.6-3.5,3.8
			c0.3,1.6,2.2,1.9,3.5,1.9c0.5,0,1.1-0.5,1.1-1.1c0-0.8,0-1.6,0-2.4C234.6,101.8,234.6,101.5,234.6,101.2z" />
        <path style="fill:#F3F3F3;" d="M213.2,114.7c-1.1-0.3-1.9,0.3-2.7,1.1c-1.6,0-2.7,1.1-3,2.7c0,0.5,0,0.8,0.5,1.1
			c2.7,1.6,6.2-0.8,6.2-3.8C214,115.3,213.8,114.7,213.2,114.7z" />
        <path style="fill:#F3F3F3;" d="M258.9,119.3c0-1.1-0.5-1.9-1.4-2.4c0-0.3,0-0.3-0.3-0.5c-0.3-0.8-1.1-0.8-1.9-0.3
			c-0.3,0.3-0.5,0.8-0.8,1.1c-0.3,0.3-0.3,0.5-0.5,1.1c-0.3,0.5-0.3,1.4-0.3,1.9l0,0c-0.5,1.4,1.4,2.4,2.4,2.7
			c0.5,0.3,1.1-0.3,1.1-0.8s0.3-1.1,0.3-1.4C258.3,120.4,258.9,119.9,258.9,119.3z" />
        <path style="fill:#F3F3F3;" d="M265.1,101.8c0-0.3-0.3-0.3-0.5-0.5c-0.3-0.3-0.8-0.3-1.1-0.3c-1.4-0.5-3.2-0.3-3.8,1.1
			c-0.5,1.4,0.8,3.2,2.2,3.8C264.5,107.4,267,103.4,265.1,101.8z" />
        <path style="fill:#F3F3F3;" d="M207.6,85c-1.9-1.4-5.4,0.3-4.6,2.7c-1.4,1.1-1.9,3.2,0,4.6c1.4,0.8,3.5,0.8,4.6-0.5
			c0.8-0.8,1.1-2.2,0.8-3.2C208.9,87.5,208.6,86.1,207.6,85z" />
        <path style="fill:#F3F3F3;" d="M201.6,58.3c-0.3-0.5-0.8-0.8-1.4-1.1c-0.3-0.5-0.8-1.1-1.6-1.4c-0.5,0-1.1,0.3-1.4,0.8v0.3
			c-0.3,0-0.3,0-0.5,0.3c-0.5,0.3-0.5,0.8-0.5,1.4c0,0.3,0.3,0.5,0.3,0.8c-0.8,2.2,1.4,5.1,4.1,3.5
			C202.2,61.8,202.7,59.9,201.6,58.3z" />
        <path style="fill:#F3F3F3;" d="M225.9,64.5L225.9,64.5c0-0.3-0.3-0.8-0.5-0.8c-0.3-0.3-0.5-0.8-1.1-1.1c-0.5-0.3-1.1-0.5-1.4,0
			c-1.9,1.1-1.9,4.1-0.3,5.4c0.3,1.1,1.1,1.9,2.2,2.2h0.3c0.5,0,1.1,0,1.1-0.8c0,0,0,0,0-0.3C226.7,67.5,226.7,65.9,225.9,64.5z" />
        <path style="fill:#F3F3F3;" d="M246.7,75.6c0-0.3-0.3-0.8-0.5-0.8c-1.9-0.8-5.7,0-5.4,2.7c0,0.8,1.1,1.1,1.6,0.5
			c0.5-0.5,1.1-1.4,1.9-1.4c0,1.1-0.3,1.9-0.5,3h-0.3c-1.4,0.5-0.8,2.4,0.3,3c0.5,0.3,1.1,0,1.4-0.5c0,0,0,0,0-0.3
			c0.3,0,0.3-0.3,0.5-0.5V81C246.4,79.4,246.7,77.5,246.7,75.6z" />
        <path style="fill:#F3F3F3;" d="M233.8,39.4c0-0.3-0.3-0.5-0.3-0.8c-0.3-0.5-0.8-0.5-1.4-0.5c-1.1,0.3-1.6,1.1-1.9,2.2
			c-1.6,1.4-1.4,3.5,0.3,4.6c0.3,0.3,0.8,0,1.1,0s0.3-0.3,0.3-0.3c0.5,0.3,1.4,0.3,1.9-0.3C235.1,43.2,235.1,40.5,233.8,39.4z" />
        <path style="fill:#F3F3F3;" d="M202.4,26.4c-1.6,1.1-1.9,3.2-0.8,4.6c0,0.3,0.3,0.5,0.3,0.5c1.6,2.2,4.6,0.5,5.1-1.6
			C207.6,27.2,204.9,25.1,202.4,26.4z" />
        <path style="fill:#F3F3F3;" d="M180.3,25.1c-0.8,0-1.4,0.5-1.6,1.1c-0.3,0.3-0.5,0.8-0.5,1.4c-0.3,1.9,1.4,2.7,3,1.6
			C182.4,28,182.4,25.3,180.3,25.1z" />
        <path style="fill:#F3F3F3;" d="M353.9,176.6L353.9,176.6c0,0-0.3-0.3-0.3-0.5c0-0.3-0.5-0.8-0.8-0.8s-0.8,0-1.1,0
			c-1.9-0.3-4.1,0.5-3.8,2.7c0,0.5,0.3,1.1,0.5,1.4c0,0.3,0,0.5,0.3,0.8c0,0.3,0.3,0.3,0.3,0.5c0.3,1.1,0.8,2.2,1.9,2.4
			c0.3,0,1.1-0.3,1.1-0.5c0-0.3,0.3-0.5,0.3-0.8c0.3,0,0.5-0.3,0.5-0.5c0.3-0.5,0.5-1.4,0.8-1.9c0.5-0.3,1.4-0.8,1.6-1.6
			C356.1,176.6,354.8,175.8,353.9,176.6z" />
        <path style="fill:#F3F3F3;" d="M374.2,156.6c-0.8,0-1.6,0.5-1.9,1.1c-0.5-0.3-1.4-0.3-1.9,0.5c-1.1,1.4-0.8,3.5,0.3,4.6
			c1.1,1.1,2.2,0.8,3,0.3c0.5,0.3,1.4,0.5,1.9,0.3c1.4-0.3,1.6-1.1,1.9-2.4C377.4,159.3,376.9,156.3,374.2,156.6z" />
        <path style="fill:#F3F3F3;" d="M328.8,137.2c0-0.5-0.5-0.8-0.8-1.1c-0.5-0.3-0.8,0-1.4,0c-0.8-0.3-1.6,0-2.2,0.5
			c-0.3,0.3-0.3,0.8-0.5,1.1c-0.5,0-0.8,0.5-1.1,0.8c-0.8,1.9,1.1,4.1,3,4.3c0.8,0,2.2,0,2.4-0.8c0.3-0.5,0.3-1.4,0.3-2.2
			C328.8,139.1,328.8,138.2,328.8,137.2z" />
        <path style="fill:#F3F3F3;" d="M408.5,178.8c-1.6,1.1-2.2,3.5-1.1,5.1s3.8,2.2,5.1,0.8c0.3-0.3,0.5-0.8,0.3-1.1c0,0,0,0,0.3-0.3
			C415.5,180.9,411.7,176.6,408.5,178.8z" />
        <path style="fill:#F3F3F3;" d="M449.3,186.6c-1.6-1.6-4.3-0.5-4.6,1.4c-0.5,0.8-0.8,1.6-0.5,2.7c0.3,1.4,1.6,1.6,3,1.6
			c0,0,0,0,0.3,0s0.3,0,0.5,0C449.8,191.2,451.2,188.5,449.3,186.6z" />
        <path style="fill:#F3F3F3;" d="M460.6,213.1c-0.3,0-0.5,0.3-0.8,0.3s-0.3,0-0.5,0.3c-3,1.9,0.3,7,3.2,5.7
			C465.5,217.6,463.9,212.5,460.6,213.1z" />
        <path style="fill:#F3F3F3;" d="M431.2,204.4c-0.3-0.3-0.8-0.3-1.4-0.3c-0.3-0.3-0.8-0.3-1.1-0.3c-1.4,0-2.2,1.1-2.7,2.2
			c-0.3,0.8,0,1.9,0.3,2.7c0,0.5,0,1.1,0,1.9c0,0.5,0.3,0.8,0.8,0.8c2.4,0.8,4.9-1.1,5.1-3.5C432.8,206.8,432.5,205.2,431.2,204.4z
			 M428.8,208.2L428.8,208.2c0-0.5,0.3-1.4,0.8-1.6l0,0c0.3,0.3,0.5,0.8,0.5,1.1C429.8,208.2,429.3,208.7,428.8,208.2z" />
        <path style="fill:#F3F3F3;" d="M392.3,195.5c-0.5-0.3-1.1,0-1.6,0.5l0,0c-0.8,0-1.4,0.5-1.6,1.4c-0.5,0.3-1.4,0.8-1.6,1.4
			c-1.1,1.9,0,4.3,1.9,4.9c2.2,0.8,4.6,0,5.4-2.2C395.8,199.3,394.5,196.6,392.3,195.5z M390.7,201.7c-1.6-0.3-1.6-1.4-1.1-2.2
			c0,0.3,0.3,0.3,0.5,0.5c0,0.3,0,0.3,0,0.5c0.3,0.5,0.8,0.8,1.4,0.8c0.5-0.3,0.8-0.5,1.1-0.8C392.6,201.4,392,202,390.7,201.7z" />
        <path style="fill:#F3F3F3;" d="M375.3,182.8c-0.8-1.4-3.5-1.1-4.6,0.3c-0.3,0.5-0.3,1.1,0,1.6c0,0,0,0,0.3,0.3
			c0,0.3-0.3,0.5-0.3,0.8c0,0.8,0.3,2.2,1.4,2.7c1.1,0.3,2.2-0.5,3-1.1c0.8-0.8,1.4-2.2,1.1-3.2
			C376.1,183.1,375.8,182.8,375.3,182.8z" />
        <path style="fill:#F3F3F3;" d="M341.5,197.4c-0.5-0.5-1.1-0.3-1.6,0c-0.3,0.3-0.5,0.5-0.8,0.8c-0.3,0-0.5,0.3-0.8,0.5
			c-0.5,0.5-0.5,1.1-0.5,1.6c0,0,0,0-0.3,0c-0.5,0.3-0.8,0.8-0.5,1.1c0.5,1.1,1.1,2.2,2.2,2.4c1.1,0.3,1.9-0.5,2.4-1.1
			C343.1,201.4,343.1,199,341.5,197.4z" />
        <path style="fill:#F3F3F3;" d="M361.5,210.6c-1.4,0-2.2,0.5-2.7,1.6c-0.5-0.3-1.1-0.3-1.6,0c-1.9,1.1-0.8,4.3,0.8,4.9
			c0.3,0.3,0.8,0,1.1-0.3l0.3,0.3c1.9,0.8,4.1-1.1,4.3-2.7C364.2,212.8,363.4,210.9,361.5,210.6z" />
        <path style="fill:#F3F3F3;" d="M395,218.2c-1.1-0.5-2.4-0.3-3.2,0.5c-0.8,0.3-1.6,0.8-1.9,1.9c0,0.3,0,0.5,0.3,0.8
			c-0.3,0.8-0.3,1.4,0,2.2c0.3,0.5,0.5,1.1,1.1,1.1c0,0,0,0,0,0.3c0,0.5,0.8,1.1,1.4,0.8c1.6-0.5,2.7-1.6,3.2-3.2
			C396.1,221.4,396.3,219,395,218.2z" />
        <path style="fill:#F3F3F3;" d="M417.4,221.4c-0.8-0.3-1.4,0.5-1.4,1.1c0,0.8,0,1.6,0,2.4l0,0l0,0c-0.5,0.5-0.8,1.4-0.5,2.2
			c0,0.3,0,0.8,0,1.1s0.3,0.8,0.5,0.8s0.3,0,0.5,0.3c0.3,0.3,0.5,0.5,0.8,0.5c0.5,0.3,1.1,0.5,1.6,0.5c0.8,0,1.4-0.8,0.8-1.6
			c0.8-0.5,1.6-1.4,1.9-2.4C422,223.9,419.6,222,417.4,221.4z" />
        <path style="fill:#F3F3F3;" d="M369.3,242.5H369c-0.3,0-0.8-0.3-1.1-0.3c-2.2,0-3.8,1.9-4.1,3.8c0,1.4,0.3,2.4,1.1,3.5
			c0,0.5,0.3,0.8,0.3,1.4c0.3,0.8,1.1,1.1,1.9,0.5c0.3-0.3,0.5-0.3,0.8-0.5c0,0.3,0,0.8,0,1.1c0,0.8,0.8,1.1,1.4,0.8
			C374.5,251.4,374.5,244.1,369.3,242.5z" />
        <path style="fill:#F3F3F3;" d="M332.3,240.6c-0.3,0-0.5,0.3-0.8,0.5c-0.3,0-0.5,0-0.5,0.3c-1.6,1.4-2.2,4.1-0.5,5.4
			c0.8,0.5,1.9,0.8,2.7,0.8c1.4-0.3,1.9-0.8,2.2-2.2C335.6,243.3,334.8,239.5,332.3,240.6z" />
        <path style="fill:#F3F3F3;" d="M310.7,222.5c-0.3,0-0.5-0.3-0.8-0.3c0,0,0,0,0-0.3c0.3-0.8-1.1-1.4-1.4-0.5v0.3
			c-1.1-0.3-2.4,0-3.5,0.8c-1.4,1.1-1.9,2.7-1.4,4.3c0.5,1.4,1.6,1.6,2.7,1.6v0.3c0.5,1.1,1.9,0.3,1.6-0.5c0.8,0,1.6,0,2.2-0.5
			c1.1-0.8,0.8-2.7,0.8-3.8C311.3,223.3,311.3,222.8,310.7,222.5z" />
        <path style="fill:#F3F3F3;" d="M301.8,254.1c0-0.3,0-0.3,0-0.5c0-1.6-1.4-2.4-2.7-2.7c-0.3,0-0.3,0-0.5-0.3c0-0.3-0.3-0.3-0.3-0.5
			c-0.3-0.3-0.8-0.3-1.4,0l0,0c-0.5-0.3-1.1,0-1.6,0.3c-0.3,0.3-0.5,0.5-0.5,0.8c-0.3,0-0.3,0.3-0.3,0.3c-0.3,0.5-0.5,1.1-0.3,1.9
			c0,1.1,0,2.2,0.8,3c0.3,0.3,0.3,0.3,0.5,0.3c0.3,0.3,0.5,0.5,0.8,0.8c0.3,0,0.3,0.3,0.5,0.3c1.6,1.4,4.3,1.4,5.1-1.1
			C302.1,255.7,302.1,254.9,301.8,254.1z" />
        <path style="fill:#F3F3F3;" d="M268.6,266.5c0-0.3,0-0.8-0.3-0.8c-4.6-1.6-7.6,5.4-2.7,7c1.9,0.5,4.3-0.3,4.9-2.2
			C270.5,269,269.9,267.3,268.6,266.5z" />
        <path style="fill:#F3F3F3;" d="M305.6,277.6c-1.6-1.4-4.1-1.6-5.4,0.3c-0.5,0.8-0.8,1.9-0.8,3c0,0.5,0,1.1,0.3,1.6
			c0.5,1.1,1.4,1.9,2.4,2.2c1.4,0.8,3,0.5,4.1-0.8C307.8,281.9,307.2,279.2,305.6,277.6z" />
        <path style="fill:#F3F3F3;" d="M331,285.2c-0.8-1.1-2.2-1.6-3.2-0.8c-1.1,0.3-1.9,0.8-2.2,1.9c-0.3,1.4,0.5,3.2,1.6,3.8
			c0.3,0.3,0.5,0.3,0.8,0.3c0.3,0.3,0.8,0.3,1.4,0.3C331.3,290.3,332.6,287.3,331,285.2z" />
        <path style="fill:#F3F3F3;" d="M265.9,293.8c-2.2,0.8-3.2,3.2-2.7,5.4c0,0.3-0.3,0.5-0.3,0.8c-0.3,2.4,2.7,3.2,4.3,2.4
			c0,0,0.3,0,0.3-0.3c0.5,0,1.4-0.3,1.9-0.5c0.5-0.3,0.5-0.8,0.3-1.1C272.6,298.1,269.9,292.5,265.9,293.8z M267.8,298.9
			c-0.8,0.3-1.9-0.5-1.9-1.4c0-0.8,1.1-0.8,1.6-0.5C268.6,297.3,268.3,298.1,267.8,298.9z" />
        <path style="fill:#F3F3F3;" d="M302.9,320.3c0-0.3-0.3-0.3-0.5-0.5c0.3-1.1,0.3-2.4-0.3-3.2c-0.8-1.6-2.7-2.2-4.3-1.4
			c-1.4,0.5-2.2,1.9-2.2,3.2c-1.4,1.9-0.8,5.4,1.6,5.9l0,0l0,0l0,0c0.3,0,0.5,0.3,0.8,0.3c0.8,0,1.4-0.3,1.9-0.8
			c0.3,0,0.5-0.3,0.5-0.3c0.3-0.5,0.5-0.8,0.8-1.4c0,0,0-0.3,0.3-0.3C302.6,321.6,303.4,321.1,302.9,320.3z" />
        <path style="fill:#F3F3F3;" d="M267.2,336.2c-0.5-1.4-2.4-1.9-3.8-1.6h-0.3c-0.5-0.3-1.4-0.3-1.4,0.5v0.3
			c-0.3,0.3-0.5,0.5-0.8,1.1c-1.6,0.8-1.9,3.2-0.5,4.6c0.5,0.8,1.6,1.4,2.4,1.4c0.3,0,0.5,0,0.8-0.3h0.3c0.5,0,1.1-0.3,1.4-0.5
			c0.5-1.1,1.1-1.9,1.6-3C267,337.8,267.5,336.8,267.2,336.2z" />
        <path style="fill:#F3F3F3;" d="M241.3,322.7c0-0.3-0.3-0.5-0.3-0.5c0-0.3-0.3-0.8-0.5-1.1c-0.3-0.3-0.3-0.3-0.5-0.3
			c-0.3-0.3-0.5-0.3-0.5-0.5c-0.3-0.8-0.5-1.4-1.1-1.9c-0.3-0.3-1.1-0.5-1.4,0c-0.5,0.5-1.1,1.1-1.4,1.9c-1.4,1.1-2.2,3-1.4,4.9
			c0.3,0.5,0.8,0.8,1.4,0.5c0.5-0.3,0.8-0.5,1.4-0.8c0.3,0,0.3,0,0.5,0h0.3c0,0.3,0.3,0.3,0.5,0.5c1.1,0.5,2.2,0,3-0.8
			C241,323.8,241.3,323.3,241.3,322.7z" />
        <path style="fill:#F3F3F3;" d="M234.8,360.8c0-0.3,0-0.5,0-0.8l0,0c0-0.8-0.3-1.4-0.8-2.2c-0.8-1.4-1.9-1.4-3-0.5
			c-0.8-0.3-1.6-0.3-2.4,0.3c-1.4,1.1-1.6,3.2-0.5,4.6c0.5,0.8,1.6,1.6,2.7,1.9l0,0c0.3,0.3,0.8,0.3,1.1,0.3l0,0l0,0
			c0.3,0,0.5,0,0.5,0c0.3,0,0.8,0,1.1,0c0.5,0,0.5-0.5,0.5-1.1C234.8,362.4,235.1,361.6,234.8,360.8z" />
        <path style="fill:#F3F3F3;" d="M285.1,356.5c-0.3-0.3-0.3-0.5-0.5-0.8c0,0,0,0-0.3-0.3l0,0c-0.3-0.5-0.8-0.8-1.4-1.1
			c-0.3,0-0.5,0-0.8,0s-0.5,0-0.5,0c-1.4,0-2.7,0.8-3,2.7c0,0.5,0,1.1,0.3,1.6c0,0.5,0,1.1,0.3,1.4c0,0.3,0,0.3,0,0.5
			c0,0.5,0.5,0.8,0.8,1.1C283.2,362.7,286.7,359.7,285.1,356.5z" />
        <path style="fill:#F3F3F3;" d="M261,376.5c0.3-3.2-3-6.5-6.2-5.4c-0.5,0.3-0.8,0.8-0.8,1.1s0,0.8,0,1.1c-1.6,0.3-2.7,1.1-2.4,2.7
			c0.3,1.4,1.1,2.4,2.2,3c0.5,0.8,1.4,1.6,2.4,2.2c0.3,0,0.3,0.3,0.5,0.3c0,0,0,0,0.3,0l0,0c0.3,0,0.3,0,0.5,0s0.3,0.3,0.5,0.3
			c0.5,0,1.1,0,1.4-0.5s0.5-1.4,0.5-1.9C260.5,378.3,261,377.5,261,376.5z" />
        <path style="fill:#F3F3F3;" d="M278,407c0-0.3-0.3-0.3-0.3-0.5c0-0.5,0-0.8,0-1.4c0,0,0,0,0-0.3v-0.3c-0.5-1.4-1.9-2.2-3.2-2.4
			c-1.4-0.3-2.4,0.5-3,1.6c-0.3,0.8-0.3,1.4,0,2.2c0,0.3,0,0.5,0,0.8l0,0l0,0c0,0.5,0.3,1.4,0.5,1.9s0.8,0.5,1.4,0.5
			c0,0,0.3,0,0.3-0.3c0.3,0.8,0.5,1.4,1.1,1.6c0.5,0.3,1.4,0.3,1.6-0.3c0.3-0.8,0.8-1.6,1.1-2.4C278,408.1,278.3,407.5,278,407z" />
        <path style="fill:#F3F3F3;" d="M230,398.9c-1.4-3.8-6.8-0.3-6.2,3.2c0,0-0.3,0-0.3,0.3c-1.6,1.4-1.4,3.8,0.3,5.1s4.1,0.5,5.4-1.1
			C230.5,404.3,230.5,401,230,398.9z" />
        <path style="fill:#F3F3F3;" d="M251,418.9c-2.2-0.5-3.5,0-3.8,2.2c-1.4,1.1-1.4,2.7-0.8,4.1c0,0.3,0,0.8,0.3,1.1
			c1.1,3.8,5.7,3.8,7.8,1.1C257,424.3,254.8,419.9,251,418.9z M251,427.2c-0.5,0-1.1,0-1.4-0.3c0.3,0,0.5-0.3,0.5-0.5
			c0.3,0,0.5-0.3,0.8-0.5c0.3-0.5,0.5-1.4,0.3-2.2c0.3,0,0.3,0.3,0.5,0.3c0.8,0.3,1.4-0.8,0.8-1.4c-0.5-0.3-1.1-0.8-1.9-1.1
			c0,0,0,0,0-0.3c1.1,0.3,2.2,1.1,2.4,2.2C254,424.8,252.7,426.7,251,427.2z" />
        <path style="fill:#F3F3F3;" d="M272.1,447.2c-0.3,0-0.5,0-0.8,0.3c-0.5-0.3-1.4-0.5-1.9-0.5c-1.4,0.3-2.2,1.6-2.2,2.7
			c-0.3,2.7,2.2,5.7,4.9,4.1c1.4-0.8,2.2-2.2,2.2-3.5C274.3,448.8,273.5,447.2,272.1,447.2z" />
        <path style="fill:#F3F3F3;" d="M242.1,451.8c0.3-1.4-0.3-2.4-1.4-3.2c-0.5-0.5-1.1-0.5-1.6-0.5c-0.3-0.3-0.8,0-1.4,0.3
			c-2.2,0.8-3.5,3.2-2.4,5.7l0.3,0.3c0.3,1.1,0.8,1.9,1.6,2.7c1.1,0.8,3.5,1.9,4.3,0.5C242.9,455.6,242.9,453.7,242.1,451.8z" />
        <path style="fill:#F3F3F3;" d="M215.7,436.4c-0.3,0-0.3,0.3-0.3,0.3c-0.3,0-0.8,0.3-1.1,0.5c-1.9,1.6-0.5,5.7,1.9,5.7l0,0
			c0.8,0.8,1.9,1.1,3,0.8c1.6-0.3,1.6-2.4,1.6-3.8C221.1,437.5,218.4,434.5,215.7,436.4z" />
        <path style="fill:#F3F3F3;" d="M263.7,473.7c-1.1-1.4-3-1.9-4.6-2.2c-0.5,0-1.1,0-1.1,0.5c-0.3,0.3-0.3,0.8-0.3,1.1
			c-0.5,0-0.8,0.3-1.4,0.5c-0.5,0.5-0.5,1.1-0.5,1.9c0,1.1,0,2.4,0,3.5c0,0.5,0.5,1.1,1.4,1.1s1.9,0,2.7,0c0.5,0,1.1-0.5,1.1-1.1
			c0.3,0.3,0.5,0.3,0.8,0.3c0.5,0,1.1-0.3,1.4-0.5c0-0.3,0-0.3,0-0.5c0.5-0.3,0.8-0.5,1.1-1.1C264.8,476.4,264.5,474.8,263.7,473.7z
			" />
        <path style="fill:#F3F3F3;" d="M284,492.1c-0.5,0-1.1,0.3-1.1,0.8c0,1.1,0,1.9,0.5,2.7c-0.3,1.1,0,2.2,0.8,2.7c0,0,0.3,0,0.3,0.3
			c1.1,1.4,2.7,1.9,3.8-0.3C289.7,495.3,287,491.8,284,492.1z" />
        <path style="fill:#F3F3F3;" d="M234.8,476.1c-1.4-0.8-3.2-0.5-4.1,1.1l0,0c-1.1,0-1.9,0.8-1.9,1.9c-0.3,1.9,1.6,3.2,3,3.2
			c0.5,0,1.4,0,1.9-0.3l0,0c0.3,0,0.3,0,0.5-0.3C236.5,481,237.5,478,234.8,476.1z" />
	</g>
    <path style="fill:#F48896;" d="M598.6,339.7c0,0-1.4-41.9,44-67.8c45.4-26.2,108.3-6.8,138,38.4c29.4,45.4,39.2,118-14.3,148.3
		c-53.5,30.2-101.6-60.5-101.6-60.5s-1.9-21.1-25.4-50C611.1,313,598.6,339.7,598.6,339.7z" />
    <path style="opacity:0.26;fill:#FFFFFF;enable-background:new    ;" d="M743.7,303.3c0.3-1.1,0-2.2-0.8-3
		c-4.9-5.9-10.5-10.3-16.7-13.2c-0.3-2.4-1.9-4.9-4.9-5.1c-2.4-0.3-5.1-0.3-7.8-0.5c-7-2.2-14.9-3.2-22.4-2.7
		c-1.6-0.8-3.8-0.8-5.1,0.3c-3.2,0.3-6.5,0.8-9.7,1.6c-0.3,0-0.8,0-1.1,0.3l0,0c-0.8,0.3-1.4,0.3-2.2,0.5c-0.3,0-0.8,0-1.1,0.3
		c-1.4-1.4-3.2-2.2-5.4-0.5c-0.3,0-0.3,0.3-0.5,0.3c-0.8-0.3-1.9-0.3-3,0.5c-1.4,0.8-2.4,1.6-3.8,2.7c-8.9,3-16.5,7.8-20.8,15.7
		c-1.4,1.1-2.7,2.4-3.8,3.8c-1.6,1.4-3,3-3.8,4.9c-0.8,1.1-1.4,2.2-2.2,3.5c-1.6,2.7-0.3,5.1,1.9,6.2c1.4,3,3.8,5.4,7.6,7.3
		c1.1,0.5,2.4,0.5,3.2,0.3c1.9,2.4,5.7,3,7.3-0.5c0.3-0.5,0.3-0.8,0.5-1.4c1.9-0.5,3.5-1.4,5.1-2.2c1.1-0.5,2.2-0.8,3-1.4
		c0.3,0,0.8,0,1.1,0c1.6,0,3-0.3,4.3-0.3c1.6,1.9,4.9,2.2,6.8,0c0.5-0.5,1.1-1.1,1.6-1.6c7-1.6,13.8-4.3,21.1-5.9
		c14.9-3.5,30.2-4.1,45.4-2.7C742.6,310.6,745.3,306.5,743.7,303.3z" />
    <path style="fill:#F4B89D;"
        d="M601.9,486.7c0,0,3.2-48.3,63.5-90.5l-3.2-10.8C661.8,385.4,602.2,420.8,601.9,486.7z" />
    <path style="fill:#E07082;" d="M794.7,337.8c3.2,17,3,35.7-4.6,54.6c-11.1,28.1-32.7,27-32.7,27l-8.1,44.6
		c5.4-0.8,11.1-2.7,16.7-5.7C809.6,433.7,811.5,381,794.7,337.8z" />
    <g>
		<path style="fill:#FCCEBF;" d="M852.3,488.3c-3.2-3.2-6.2-1.4-8.6-6.2c-1.4-2.4-1.4-4.3-3.8-6.2c-2.7-1.9-6.2-1.9-9.5-2.4
			c-6.5-0.8-11.6-2.7-15.7-7c-2.7-11.9-6.8-24.6-21.1-25.7c-7.3-0.5-19.4,5.7-20.8,13.5c-2.4-0.5-4.9-1.1-7.3-1.1
			c-1.9-0.3-4.1-0.3-6.2,0c0,0,0,0,0-0.3c7-17.8,3.2-38.6-11.1-51.6c-16.5-15.1-45.4-18.1-66.4-10.8c0,0-2.2,0.5-3.2,1.1
			c-27.8,10-50.5,32.1-64,58.1c-10,19.2-21.6,52.9-6.5,72.7c2.2,4.1,5.1,7.6,8.9,10c13,14,38.9,16.7,56.2,17c14.6,0.3,30-0.5,44.3-3
			c6.8-1.1,14-3,20.5-6.2c8.1-3,15.9-7.3,23-10.8c11.9-6.2,23-15.4,35.9-18.6c12.7,2.4,30.5,0,39.7-8.9c4.3,1.4,9.5,1.4,13-0.5
			C853.9,498,856,492.1,852.3,488.3z" />
        <path style="opacity:0.26;fill:#FFFFFF;enable-background:new    ;" d="M608.9,483.1c0,0-3.5,16.7,6.2,25.1
			c9.7,8.4,15.4-16.2,25.1-31.3c9.7-15.4,36.5-42.7,63.7-53.7c27.3-11.1,19.4-24.6-4.3-25.9c-23.8-1.4-47.5,16.2-65.6,36.5
			C615.9,453.7,613.2,465.3,608.9,483.1z" />
        <path style="opacity:0.41;fill:#FFFFFF;enable-background:new    ;" d="M797.2,445.1c-3.5-1.1-8.9,0.5-9.2,4.9
			c0-0.5,0.3-1.1,0.3-1.6c0,0,0,0.3-0.3,0.3c-1.1,1.9,1.1,5.1,3.5,4.1c0,0,0,0,0.3,0s0.5,0,0.8-0.3c0.8-0.3-0.3,0,0.5,0
			c0.3,0,1.1,0.3,1.4,0.3l0.5,0.3c0.3,0.3,0.5,0.5,0.3,0c0.5,0.8,1.1,1.6,1.9,2.4c1.6,1.6,4.6,1.1,5.7-1.1
			C805.3,450.5,801.2,446.1,797.2,445.1z" />
        <path style="opacity:0.41;fill:#FFFFFF;enable-background:new    ;" d="M826.6,476.1L826.6,476.1c-1.4,0-1.4,2.4,0,2.2
			c0.8,0,1.6,0,2.2,0c0.3,0.3,0.5,0.3,0.8,0.5c0.3,0.3,0.5,0,0.8,0c2.2,0.8,3.5,2.4,5.1,4.3c0.5,0.8,1.9,0.3,1.6-0.8
			C836.3,477.7,830.6,475.6,826.6,476.1z" />
	</g>
    <g style="opacity:0.49;">
		<path style="fill:#F3F3F3;" d="M614,315.1c-0.5-0.5-1.1-0.5-1.6-0.3c-0.5,0.3-1.1,0.8-1.1,1.4c-2.2,0-4.3,2.4-2.2,4.6
			c1.4,1.4,3.5,1.6,4.9,0.3C615.4,319.5,615.4,316.8,614,315.1z" />
        <path style="fill:#F3F3F3;" d="M634,290.6c-0.5-0.8-1.6-0.8-2.4-0.8c-0.8,0.3-1.4,0.5-1.9,1.4c-1.6,1.4-2.4,3.5-1.9,5.9
			c0,0.5,0.5,0.8,1.1,0.8c2.4-0.3,4.3-1.6,5.1-3.8C634.3,293,634.8,291.4,634,290.6z" />
        <path style="fill:#F3F3F3;" d="M658.3,270.9c-0.8-0.8-2.2-1.1-3.2-0.8c-2.2,0.5-3.8,2.7-3.2,4.9c0,0.3-0.3,0.8-0.3,1.1
			c0,0.5,0.5,0.8,0.8,1.1c0.5,0.3,1.4,0.3,1.9,0.5c1.1,0.3,1.6-1.1,1.1-1.6l0.3-0.3c0.8,0,1.6-0.5,2.4-1.4
			C658.9,273.6,659.1,271.9,658.3,270.9z" />
        <path style="fill:#F3F3F3;" d="M697.8,263.8c-0.3-0.3-0.8-0.3-1.4,0c-1.9,0.8-3.2,2.7-3.5,4.6c0,0.5,0,1.1,0.5,1.1
			c1.1,0.5,2.2,0.3,3-0.5l0,0C698.6,268.4,699.1,265.5,697.8,263.8z" />
        <path style="fill:#F3F3F3;" d="M734.2,273.8c0-2.2-2.2-3.8-4.3-2.7c-1.6,0.8-2.4,3.5-1.4,5.1c0,0,0.3,0,0.3,0.3s0,0.8,0.3,1.1
			l0.3,0.3c-0.3,1.4,0.5,2.4,1.9,2.2c0.5-0.3,0.8-0.8,0.5-1.4c0.3,0,0.5-0.3,0.8-0.5c0.3-0.3,0.3-1.1,0-1.4
			C733.7,276.3,734.2,275.2,734.2,273.8z" />
        <path style="fill:#F3F3F3;" d="M657,296c-0.3-1.9-2.4-3.5-4.3-2.2c-1.9,1.1-2.2,4.1-0.5,5.4c0,0,0,0,0.3,0
			c0.3,1.1,1.4,1.6,2.7,1.9c0.5,0,0.8-0.5,1.1-0.8c0-0.5,0.3-0.8,0.3-1.4C656.7,298.4,657,297.3,657,296z" />
        <path style="fill:#F3F3F3;" d="M638.3,318.1L638.3,318.1c0-0.8,0-1.1-0.5-1.4c-1.4-0.8-3.5-0.5-4.3,1.1c-0.3,0.5-0.3,1.1-0.3,1.6
			c0,0-0.3,0-0.3,0.3c-0.5,0.5-0.5,1.1,0,1.6c0.3,0.3,0.3,0.3,0.5,0.3c0,0.3,0,0.3,0.3,0.5c0,0.3,0.3,0.3,0.3,0.5c0,0,0,0.3,0.3,0.3
			c1.4,1.9,3.8,0.3,4.3-1.4C638.6,320.3,638.6,319.2,638.3,318.1z" />
        <path style="fill:#F3F3F3;" d="M663.7,320c0-0.3,0-0.5-0.3-0.8c-0.5-1.6-2.2-3-3.8-2.2s-1.9,2.7-1.1,4.1c0.3,0.5,0.5,0.8,0.8,1.1
			c0,0.5,0.3,1.4,0.5,1.9c0,0.3,0.3,0.3,0.5,0.5c0.8,0.5,1.6,0.8,2.4,0C664.3,323.5,664.5,321.6,663.7,320z" />
        <path style="fill:#F3F3F3;" d="M682.4,283.5c-0.3-0.8-1.4-2.2-2.4-2.2c-0.5,0-0.8,0.3-1.1,0.8c-1.4,0.3-3,0.5-3.2,2.2
			c-0.3,1.4,0.3,2.7,1.1,3.5c1.9,1.9,4.9,1.6,5.9-0.8C682.9,286,682.9,284.6,682.4,283.5z M677.5,284.4c0.3,0,0.3-0.3,0.5-0.3
			c0,1.1,0.8,2.2,1.9,2.4C678.6,287.6,677.2,285.7,677.5,284.4z" />
        <path style="fill:#F3F3F3;" d="M714,285.4c-0.8-3.2-5.1-4.6-7-1.4c0,0,0,0,0,0.3c-0.8,1.4-0.8,3.2,0.8,4.6c-0.3,0.5,0,1.4,0.5,1.6
			C711.3,291.1,714.8,288.7,714,285.4z M709.1,286.8c-1.1-1.4,0.5-3.2,1.9-1.6C711.8,286.5,709.9,287.6,709.1,286.8z" />
        <path style="fill:#F3F3F3;" d="M692.6,306.8c-1.1-1.9-3.8-1.9-5.1-0.5c-1.1,1.1-1.1,3,0,3.8c-0.3,1.1,0.3,2.4,1.1,3
			c0.3,0.3,0.8,0.3,1.4,0C692.1,311.9,694,309.2,692.6,306.8z" />
        <path style="fill:#F3F3F3;" d="M656.7,350.3c0.3-1.9-0.8-4.1-1.9-5.1c-0.5-0.5-1.1-0.3-1.6,0c-0.8,0.8-1.6,2.2-1.9,3.2H651
			c-0.5,0-0.8,0.3-1.1,0.8c-0.8,2.7,2.7,4.6,4.9,3.5c0.8-0.5,1.4-1.1,1.6-1.9C656.7,350.8,656.7,350.5,656.7,350.3z" />
        <path style="fill:#F3F3F3;" d="M687.2,334.1c-0.5-0.3-1.1-0.3-1.6,0c0,0-0.3,0.3-0.3,0.5c-0.5,0-1.1,0-1.6,0.3
			c-1.6,1.1-1.4,3.2-0.3,4.3c0,0.5,0,1.4,0.5,1.9c0.3,0.3,0.5,0.5,0.8,0.5C688.6,340.8,689.9,336.2,687.2,334.1z" />
        <path style="fill:#F3F3F3;" d="M721.3,319.7L721.3,319.7c0-0.8,0-1.6-0.3-2.2c-0.5-1.1-1.9-2.2-3.2-1.6c-0.8,0-1.4,0.3-1.9,1.1
			c-1.9,0.8-2.2,3.8-1.1,5.4c1.4,1.9,3.5,1.6,4.9,0.3c0.3-0.3,0.8-0.5,0.8-0.8h0.3C722.3,321.6,722.3,320,721.3,319.7z" />
        <path style="fill:#F3F3F3;" d="M752.9,292.5c-0.3-2.2-2.7-3-4.3-1.6l0,0c-1.9,0.8-3.2,3.2-1.6,5.1c1.4,1.6,3.5,0.8,4.6-0.5
			C752.3,294.9,752.9,293.5,752.9,292.5z" />
        <path style="fill:#F3F3F3;" d="M745.6,314.1c-2.2-0.5-3,0.8-3,2.4c-0.8,0.8-1.4,2.2-1.4,3.2c0,0.5,0.5,0.8,0.8,1.1
			c2.2,0.5,4.6,0,5.4-2.2C748.5,316.8,747.5,314.3,745.6,314.1z" />
        <path style="fill:#F3F3F3;" d="M776.1,315.1c0-1.1-0.3-2.2-1.1-2.7c-0.3-0.3-0.5-0.3-0.8-0.3l-0.3-0.3c-0.5-0.3-1.1-0.3-1.6,0
			c-1.1,0.8-1.4,2.2-0.8,3.5c0,0.5,0,0.8,0,1.4c0,0.5,0.5,1.1,1.1,1.1c0.3,0.3,0.5,0.5,0.8,0.5c0.8,0,1.4-0.5,1.9-1.1
			c0,0.3,0,0.5,0,0.8c0,0.8,1.4,1.1,1.6,0C776.9,317,776.6,316,776.1,315.1z" />
        <path style="fill:#F3F3F3;" d="M764.2,339.2c0-0.3,0-0.5,0-0.8c0-0.8-0.8-1.4-1.6-1.1c-1.4,0.3-3,1.4-3.2,2.7c0,0.3,0,0.3,0,0.5
			c-0.3,1.1,0,2.2,0.8,3.2c0.3,0.3,1.1,0.3,1.4,0s0.5-0.5,0.8-0.8c0,0,0.3,0,0.3-0.3C763.9,341.9,764.2,340.5,764.2,339.2z" />
        <path style="fill:#F3F3F3;" d="M734.8,344c-0.8-1.1-2.2-0.8-3.2-0.3c-0.5,0-0.8,0.3-1.1,0.5c0,0.3-0.3,0.5-0.3,0.8
			c-0.3,0.5-0.3,1.1-0.3,1.6c-0.5,0.8-0.8,1.9-0.5,3c0,0.3,0.3,0.5,0.8,0.8c1.6,0.3,3.2-0.5,4.3-1.9
			C735.3,347.6,735.8,345.4,734.8,344z" />
        <path style="fill:#F3F3F3;" d="M706.9,348.9c-1.4-0.8-3.2,0-3.2,1.6c0,0.3,0,0.5,0.3,0.8c-0.8,1.9,1.4,4.9,3.5,3.8
			c0.5-0.3,0.8-0.5,0.8-1.1C708,352.4,708.8,350,706.9,348.9z" />
        <path style="fill:#F3F3F3;" d="M682.4,356.5c-0.3-0.5-1.1-0.8-1.6-0.3c-0.8,0.8-1.4,1.6-1.6,2.7c-0.5,0-0.8,0.3-1.4,0.5
			c-0.8,0.8-0.8,1.6-0.5,2.4c-0.3,0.3-0.3,0.8-0.3,1.4c0,1.6,1.4,3,3,3s3.2-0.8,3.8-2.4C684.8,361.1,683.4,358.4,682.4,356.5z" />
        <path style="fill:#F3F3F3;" d="M702.1,372.1c-1.1-0.5-2.4,0-3.2,0.8c-0.3,0.3-0.5,0.3-0.5,0.8c-0.8,1.6,0.5,4.6,2.4,3.8
			c0,0.5,0.8,0.8,1.4,0.3c0,0,0-0.3,0.3-0.3c0.5-0.3,0.8-0.3,1.4-0.8C705.1,375.1,704,372.7,702.1,372.1z" />
        <path style="fill:#F3F3F3;" d="M674.3,382.7c-0.3-0.5-1.1-0.8-1.6-0.8c-1.4-2.7-5.4-4.1-7.6-0.8c-3,4.1,2.2,8.9,6.2,6.5
			c1.1,0,2.2-0.8,2.4-1.9C674.5,384.8,675.1,383.7,674.3,382.7z" />
        <path style="fill:#F3F3F3;" d="M731.8,369.7l-0.3-0.3c0-0.5,0-1.1-0.3-1.6s-0.5-0.8-1.1-0.8c-1.1,0-1.9,0.5-2.7,1.4
			c-0.5,0.3-0.8,0.8-1.1,1.4c0,0.5,0,1.1,0.3,1.6c0,1.1,0.5,1.9,1.4,2.4c0.3,0.3,0.8,0.3,1.4,0c0.3-0.3,0.5-0.5,1.1-0.8
			c0.3,0,0.5-0.3,0.8-0.3c0.5-0.3,0.5-0.8,0.3-1.4c0-0.3,0-0.3,0.3-0.5C731.8,370.8,732.1,370.2,731.8,369.7z" />
        <path style="fill:#F3F3F3;" d="M759.6,367.3c-0.3,0-0.5-0.3-0.8-0.3c0-0.3,0.3-0.5,0.3-1.1c0-0.3,0-0.5,0-0.5
			c0.3-1.4-0.3-3-1.9-3.2c-2.2-0.5-3.5,1.4-3.5,3.2l0,0c-0.5,0.5-0.5,1.4-0.5,1.9c0,1.6,0.8,3.2,2.4,3.8c0.5,0.3,1.4,0.3,1.6-0.5
			c0.3-0.5,0.5-1.1,0.5-1.6c0.3,0,0.5,0,0.8,0C760.2,369.2,760.7,367.8,759.6,367.3z" />
        <path style="fill:#F3F3F3;" d="M782,355.4c-1.6,0-3.2,1.1-3.5,3c0,0.3,0,0.5,0,0.8c0,0.8,0,1.4,0.3,1.9s0.5,0.8,1.1,0.8
			s1.1-0.3,1.6-0.3c0.3,0,0.3,0,0.5,0c0.3,0,0.5-0.5,0.5-0.8c0.5-0.5,0.8-1.1,1.1-1.6C784.2,357.6,783.7,355.4,782,355.4z" />
        <path style="fill:#F3F3F3;" d="M789.1,339.2L789.1,339.2c0.3-0.8,0.3-1.6-0.5-2.2c-0.3,0-0.3-0.3-0.5-0.3v-0.3
			c-0.3-0.8-1.4-1.1-1.9-0.3c0,0,0,0.3-0.3,0.3s-0.3,0-0.5,0c-0.8,0.3-1.4,1.4-1.4,2.2c0,1.4,0.8,2.2,1.1,3.5c0,0.8,1.4,1.4,1.9,0.5
			c0.5-0.5,0.8-1.1,1.1-1.6c0.5,0.3,1.1,0,1.6-0.3C790.4,340.5,789.9,339.2,789.1,339.2z" />
        <path style="fill:#F3F3F3;" d="M798.8,374c-0.5-0.3-1.1,0-1.4,0.3c-1.4,1.1-1.6,3-0.8,4.6c0.3,0.8,1.1,1.1,1.6,0.5l0,0
			c0.3,0,0.3,0,0.5-0.3c0.5,0.3,1.1,0,1.1-0.5v-0.3l0.3-0.3C801.7,376.5,800.7,374.6,798.8,374z" />
        <path style="fill:#F3F3F3;" d="M776.9,385.6c-0.3-0.5-0.8-0.8-1.4-0.8c-0.5,0.3-0.8,0.5-1.4,0.8c0,0,0,0-0.3,0
			c-0.8,0.3-1.4,0.8-1.6,1.6c-0.3,0.3-0.5,0.5-0.5,1.1c-0.5,1.9,0.8,3.8,2.7,4.3c0.3,0,0.8,0,1.1-0.3
			C777.2,390.2,777.4,388.1,776.9,385.6z" />
        <path style="fill:#F3F3F3;" d="M749.3,388.9c-0.3-0.8-1.4-0.5-1.9-0.3c-0.8,0.5-1.4,1.6-1.6,2.4c-0.5-0.3-1.1,0-1.4,0.5
			c-1.1,2.2,1.4,4.1,3.5,3.5C750.7,394.6,750.4,391,749.3,388.9z" />
        <path style="fill:#F3F3F3;" d="M772.3,415.1c0.3-1.4,0.3-3-0.5-4.3c-0.3-0.5-1.1-0.5-1.6-0.3c-0.8,0.5-1.6,1.4-1.9,2.2
			c-1.6,0.5-1.6,3.2-0.8,4.3c0.5,0.5,1.4,1.4,1.9,1.4c0.8,0,1.6-0.8,2.2-1.6c0.3,0.8,1.6,0.3,1.4-0.5
			C772.8,415.9,772.6,415.6,772.3,415.1z" />
        <path style="fill:#F3F3F3;" d="M793.9,402.1c-1.4-0.8-2.4,0.3-3,1.6c-0.3,0.5-0.3,1.1,0,1.6c-0.3,0.5-0.3,1.1-0.3,1.4
			c0.3,1.1,1.1,2.4,2.4,2.2c1.1-0.3,1.9-1.1,2.2-2.2C796.1,405.4,795.5,402.9,793.9,402.1z" />
        <path style="fill:#F3F3F3;" d="M788,426.4c-0.3-0.5-0.8-0.8-1.4-0.8c-1.9,0.5-2.2,2.7-1.6,4.3c-0.5,0.3-0.8,1.1-0.3,1.9
			c0.3,0.5,1.1,1.1,1.6,0.5c0.3,0,0.3-0.3,0.5-0.5c0.3,0,0.8,0,1.1-0.5c0-0.3,0-0.5,0-0.8c0.3-0.3,0.3-0.5,0.3-0.8
			C788.5,428.9,788.5,427.8,788,426.4z" />
        <path style="fill:#F3F3F3;" d="M771.5,438.8c0-0.5-0.8-0.8-1.4-0.8c-0.5,0.3-1.1,0.5-1.6,1.1l0,0c-0.8,0.5-1.1,1.4-0.8,2.2v0.3
			c-0.3,0.3-0.3,0.3-0.5,0.5c-0.5,1.1-0.5,2.2,0,3c0.3,0.5,1.1,0.5,1.6,0.3C771,444.2,772,441.5,771.5,438.8z" />
	</g>
</g>
</svg>
