<?xml version="1.0" encoding="utf-8"?>
<!-- Generator: Adobe Illustrator 23.1.0, SVG Export Plug-In . SVG Version: 6.00 Build 0)  -->
<svg version="1.1" id="Isolation_Mode" xmlns="http://www.w3.org/2000/svg" xmlns:xlink="http://www.w3.org/1999/xlink" x="0px"
	 y="0px" viewBox="0 0 170 773" style="enable-background:new 0 0 170 773;" xml:space="preserve">
<line style="fill:none;stroke:#FFFFFF;stroke-width:14.9671;stroke-linecap:round;stroke-linejoin:round;stroke-miterlimit:10;stroke-dasharray:0,32.8457;" x1="70" y1="703.4" x2="70" y2="-33.4"/>
<g>
	<path style="fill:#F7CE6D;" d="M96.5,670.4c-6.7,14.5-0.4,31.9,14.2,38.6c14.5,6.7,31.9,0.4,38.6-14.2s0.4-31.9-14.2-38.6
		C120.4,649.5,103.2,655.9,96.5,670.4z"/>
	<path style="opacity:0.4;fill:#C6C5B7;enable-background:new    ;" d="M145,676.8c-1.3-2.8-3.5-5.4-6-7.3c-1.5-1.1-3.2-2.2-4.8-3.2
		c-5.6-3-11.9-5.8-18.5-5.6c-1.7,0-3.4,0.4-4.8,0.9c-0.7,0.4-3.5,2.2-4.5,1.5c-0.6-0.6-0.2-1.9,0.7-2.6c2.4-2.1,8-4.1,10.4-4.7
		c1.3-0.4,2.8-0.6,4.1-0.6c1.7,0,3.5,0,5.2,0.4c2.4,0.4,4.8,1.1,7.1,2.2c6.9,3.2,12.5,9.5,14.4,16.8c0.4,1.7,1.7,7.1,1.3,9.1
		c-0.2,0.9-0.7,3.2-1.9,1.5c-1.1-1.9-1.5-3.9-2.1-6C145.7,678.6,145.5,677.7,145,676.8z"/>
	<path style="fill:#F7CE6D;" d="M12.4,704.7c-1.7,18.5,8.8,37.5,27.8,48.8c11.4,6.9,34.7,16.4,51.5,3.9c10.1-7.6,11.6-22.4,19-34.1
		c2.6-4.1,6-7.8,10.6-10.8c0.2-0.2,0.6-0.4,0.7-0.4c0.2-0.2,0.4-0.2,0.6-0.4s0.4-0.2,0.7-0.4c0.2-0.2,0.4-0.2,0.7-0.4
		c0.2-0.2,0.6-0.2,0.7-0.4s0.6-0.2,0.7-0.4l0,0c0.7-0.4,1.5-0.6,2.2-0.9l-33.6-33c-1.7,17.7-4.7,25.5-19.9,25.2
		c-17.7-0.2-27-15.3-24.8-31.3c0.7-5.6,2.6-10.1-4.1-12.9c-6.5-3-14.4,3.9-19,11C20.6,677.3,13.5,693.5,12.4,704.7z"/>
	<path style="fill:#ECE8E5;" d="M115,699.9c0.6,3.2,0.2,6.5-0.7,9.9c-1.1,4.3-3.2,8.9-3.4,13.4c2.6-4.1,6-7.8,10.6-10.8
		c0.2-0.2,0.6-0.4,0.7-0.4c0.2-0.2,0.4-0.2,0.6-0.4s0.4-0.2,0.7-0.4c0.2-0.2,0.4-0.2,0.7-0.4c0.2-0.2,0.6-0.2,0.7-0.4
		s0.6-0.2,0.7-0.4l0,0c0.2,0,0.4-0.2,0.6-0.2C122,707.2,118.3,703.6,115,699.9z"/>
	<path style="fill:#ECE8E5;" d="M20.1,725.6c5.6,8.2,11.6,13.4,20.1,18.3c9.1,5.2,21.4,8.4,31.9,9.5c5.2,0.6,10.6,0.6,15.8-0.2
		c4.1-0.7,7.6-3,11.4-4.5c-1.9,3.4-4.1,6.5-7.3,8.9c-16.6,12.5-39.9,3-51.5-3.9c-18.6-11.2-29.1-29.5-28-47.5
		C13.7,714.4,16.3,720.2,20.1,725.6z"/>
	<path style="fill:#F4805D;" d="M153.9,711.6c-8.8,8.9-27.2,11.6-37.7-7.1c-2.1-3.5-3.2-9.1-3.4-12.3c5.8,6.2,16,8.8,25.9,6.7
		C145.2,713.1,153.9,711.6,153.9,711.6z"/>
	<path style="opacity:0.3;fill:#B9A17E;enable-background:new    ;" d="M141.8,708.5c-2.1-1.9-3.9-4.3-6.5-5.4
		c-2.8-1.1-5.8-1.5-8.6-2.8c-1.7-0.7-3.5-1.7-5-2.6c5.2,1.9,11.2,2.2,17.2,1.1c6.3,14.2,15.1,12.9,15.1,12.9
		c-0.6,0.6-1.3,1.3-2.1,1.9C148.1,713.5,144.8,710.9,141.8,708.5z"/>
	<path style="fill:#ECE8E5;" d="M116.4,695.2c0.2,2.8,0.7,5.8,2.4,8.2c2.4,3.5,6.3,6.9,10.1,9.1c5.6,3.5,12.5,5,18.8,3.7
		c-9.5,4.7-23.1,3.2-31.3-11.7c-2.1-3.5-3.2-9.1-3.4-12.3C114,693.4,115.1,694.3,116.4,695.2z"/>
	<g>
		<path style="fill:#544847;" d="M116.4,677.1c-1.3,3-0.7,6.2,1.3,7.1c2.1,0.9,4.8-0.6,6.2-3.5c1.3-3,0.7-6.2-1.3-7.1
			S117.8,674.2,116.4,677.1z"/>
		<path style="fill:#DAD7D4;" d="M118.9,681c1.5,1.1,3.4,1.3,4.8,0.2c-1.5,2.4-3.9,3.7-5.8,2.8c-2.1-0.9-2.6-3.9-1.5-6.7
			C116.6,679,117.6,680.3,118.9,681z"/>
		<path style="fill:#E7E3DE;" d="M119.1,674.3c-0.4,0.7,0,1.7,0.7,1.9c0.7,0.4,1.7,0,1.9-0.7c0.4-0.7,0-1.7-0.7-1.9
			C120.2,673.2,119.4,673.6,119.1,674.3z"/>
		<path style="fill:#E7E3DE;" d="M120.2,682.5c-0.2,0.4,0,0.7,0.4,0.9s0.7,0,0.9-0.4s0-0.7-0.4-0.9S120.4,682.2,120.2,682.5z"/>
	</g>
	<path style="opacity:0.4;fill:#C6C5B7;enable-background:new    ;" d="M40.9,658.9c-3.4,0.6-3.9,3.7-2.6,5.2
		c2.2,2.4,5.8,1.7,5.6,6.9c0,1.5-0.7,5,0.7,6c2.2,1.5,2.4-2.4,2.6-3.7c0.2-3.9,1.7-8.8-0.6-12.3C45.6,658.7,43.4,658.3,40.9,658.9z"
		/>
</g>
</svg>
