<?xml version="1.0" encoding="utf-8"?>
<!-- Generator: Adobe Illustrator 23.1.0, SVG Export Plug-In . SVG Version: 6.00 Build 0)  -->
<svg version="1.1" id="Isolation_Mode" xmlns="http://www.w3.org/2000/svg" xmlns:xlink="http://www.w3.org/1999/xlink" x="0px"
	 y="0px" viewBox="0 0 207.8 760.7" style="enable-background:new 0 0 207.8 760.7;" xml:space="preserve">
<line style="fill:none;stroke:#FFFFFF;stroke-width:14.9671;stroke-linecap:round;stroke-linejoin:round;stroke-miterlimit:10;stroke-dasharray:0,32.8457;" x1="105.3" y1="520.4" x2="105.3" y2="-9.2"/>
<g>
	<path style="fill:#AEDBE9;" d="M83.2,748c9.6,9.6,24.4,6.8,36,2.9c16.7-5.4,33-12.5,48.9-20.1c12.7-6.1,29.1-10.7,34-25.7
		c5.6-17.8-7.6-36.2-16.2-50.4c-8.8-14.7-18.6-28.9-28.4-43.1c-6.3-9.1-12-18.4-16.2-28.8c-4.2-10.3-6.1-21.1-9.5-31.8
		c-3-9.1-14.4-23.7-23.5-28.3c-4.1-2-9.8-2.2-14-0.5c-16.9,7.3-27.6,11.8-44.5,19.1c-9.6,4.2-16.7,6.3-23.2,15.1
		c-6.3,8.6-11,30.4,1,46.9c5.8,8,10.5,17.3,13.9,26.6c6.8,18.6,7.4,32.1,14,50.7c2.4,6.9,7.1,20,9.3,27.1
		C69.1,721.2,72.5,737.3,83.2,748z"/>
	<path style="fill:#E7E3DE;" d="M63.7,679.4c-2.7-7.6-4.2-14.2-5.8-20.6c1-1.4,2-2.5,3.4-3.6c6.6-5.4,12.5-3.9,20-1.2
		c14.7,5.4,30.4,9,46,4.9c11.2-2.9,28.8-11.5,36.7-23.3c4.7,6.9,9.3,14,13.5,21.1c7.4,12.3,19.1,28.6,14.2,44.2
		c-4.2,13.2-18.6,17.1-29.6,22.5c-13.9,6.8-28.1,12.9-42.8,17.6c-10.1,3.4-23,5.9-31.5-2.5c-9.3-9.3-12.2-23.3-16.1-35.4
		C70,696.9,65.9,685.4,63.7,679.4z"/>
	<path style="opacity:0.3;fill:#A2B9C0;enable-background:new    ;" d="M103,579c5.4-2.2,11-4.7,15.9-7.3
		c4.9,15.9,10.7,30.1,18.3,44.8c8,15.2,21.3,29.4,31,43.6c4.7,7.1,23.7,44.5,23.9,44.7c-3.2,4.4-11.2,9.3-19.5,12.9
		c-5.4-13.4-19.6-36.2-23.7-44c-9.3-17.6-22.3-31.8-29.6-50.2C113.4,608.2,108.4,594.2,103,579z"/>
	<path style="opacity:0.3;fill:#A2B9C0;enable-background:new    ;" d="M96.4,558.8c5.9-2,10.8-5.8,16.7-8.8c1.4,3.9,2.5,8,3.7,12
		c-4.9,3-10.7,6.3-16.6,8.3c-0.3-1.2-0.8-2.4-1.2-3.4C98.2,564.4,97.4,561.7,96.4,558.8z"/>
	<path style="fill:#D8E3E5;" d="M99.1,553.1c-10.7,5.4-21.1,9-31.6,13.7c-10.7,4.7-22.7,9.3-34,12.7c-4.6,1.4-8.3,2.7-13.4,2.2
		c-0.5-10.5,2.7-20.1,6.4-25.4c6.4-8.8,13.5-10.8,23.2-15.1l44.5-19.1c4.2-1.9,10-1.5,14,0.5c4.9,2.4,10.3,7.6,14.9,13.4
		C117.3,544.5,107.9,548.7,99.1,553.1z"/>
	<path style="fill:#D8E3E5;" d="M82.8,585.4c9.6-4.7,25.2-13.2,33.2-17.6c6.9-3.9,10.5-6.1,17.4-11.5c0.7,2.4,1.2,4.7,1.9,6.9
		C123.8,569.3,95,584.2,82.8,585.4z"/>
	<path style="fill:#DCE7ED;" d="M64.7,707.5c-2.2-6.9-6.8-20.1-9.3-27.1c-6.6-18.6-7.3-32.1-14-50.7c-3.4-9.3-8.1-18.6-13.9-26.6
		c-12-16.4-7.3-38.4-1-46.9c0.2-0.2,0.2-0.2,0.3-0.3c-1,9.8-3,21.7-1,31.1c2.5,12.5,10.8,19.3,16.6,30.6
		c10.8,21.3,14.7,43.5,23.7,68c6.4,17.4,9,38.9,22,52.8c6.3,6.8,20.8,12.9,32.3,12.2c-0.3,0.2-0.7,0.2-1,0.3
		c-11.7,3.7-26.4,6.8-36-2.9C72.5,737.3,69.1,721.2,64.7,707.5z"/>
	<g>
		<g>
			<path style="fill:#F5CB98;" d="M28.2,539c5.2-3.2,10.5-6.1,15.7-9c0,0,0,0,0-0.2c-3-11.8-15.9-17.1-20.5-27.9
				c-8.1-18.6,18.1-28.9,28.1-20.6c9.8,8.1,7.6,19.6,8.3,28.8c0.3,4.2,2.2,7.6,4.2,10.8c1.9-0.7,3.6-1.4,5.4-1.9
				c8.1-2.5,12.2-4.2,22.7-6.4c3-0.7,12.7-3.6,12.9,0.8c0.2,4.6-10.5,7.8-13.7,9.1c-4.7,1.9-9.6,4.2-14.7,5.4
				c-2.9,0.7-5.2,1.5-7.8,2.5c0.2,0.8,0.3,1.9,0.3,2.9c-0.3,5.4-12.9,12.3-20,8.5c-0.5-0.2-0.8-0.5-1.2-0.8
				c-5.2,2.5-10.5,5.1-16.1,6.9c-5.4,1.9-13.5,4.6-18.9,6.4C11.6,548.5,24.1,541.6,28.2,539z"/>
			<path style="fill:#F5ECD6;" d="M17,548.2c-1,0.7-1.9,1.2-2.7,1.9c2.9-4.6,10.8-9.1,14-11c5.2-3.2,10.5-6.1,15.7-9c0,0,0,0,0-0.2
				c-3-11.8-15.9-17.1-20.5-27.9c-3-7.1-1.2-12.9,2.9-17.1c-5.8,13,2.7,22.5,12.3,30.1c11.3,9,11.7,15.1,5.1,18.8
				c-7.3,4.1-12.9,6.1-20,10C21.3,545.1,19.2,546.8,17,548.2z"/>
			<path style="opacity:0.3;fill:#C0C3BB;enable-background:new    ;" d="M55.9,507.4c0.3-0.3,0.5-1.2,0.2-2.5
				c-0.7-3.4-1.5-6.8-2.4-10.1c-1-3.9-2.5-9-6.3-11.3c-2.2-1.4-5.4-1.7-8-1.4c-4.9,0.5-10.8,5.8-7.1,10.8c2.9,3.9,6.4,1.4,11,3.6
				c3.4,1.7,4.9,6.3,6.6,8.3C51.5,506.4,54.1,509.4,55.9,507.4z"/>
		</g>
		<g>
			<path style="fill:#E1706C;" d="M9.6,567.6l0.7,1.5c3.2,7.4,7.6,12.9,15.9,9.5c0.2,0,0.3-0.2,0.3-0.2l89-38.4
				c0.2-0.2,0.5-0.2,0.7-0.3c8-3.7,6.1-10.1,2.9-17.6l-0.7-1.5c-3.2-7.4-6.8-13.2-15.2-9.8c-0.2,0-0.2,0-0.3,0.2l-89.1,38.4
				C5.5,553.1,6.4,560,9.6,567.6z"/>
			<g>
				<path style="fill:#E28179;" d="M109.6,542.8l6.1-2.5c0.2-0.2,0.5-0.2,0.7-0.3c-3.7-10.8-7.6-19.8-12.9-28.9
					c-0.2,0-0.2,0-0.3,0.2l-6.4,2.7C101.9,523,106,531.8,109.6,542.8z"/>
			</g>
			<g>
				<path style="fill:#E28179;" d="M93.5,549.7l6.8-2.9c-3.7-10.8-7.6-19.8-12.9-29.1l-6.8,2.9C85.9,529.9,89.9,538.7,93.5,549.7z"
					/>
			</g>
			<g>
				<path style="fill:#E28179;" d="M77.4,556.6l6.6-2.9c-3.6-9.3-8.6-20.5-13-28.9l-6.8,2.9C68.8,536.2,74,547.3,77.4,556.6z"/>
			</g>
			<g>
				<path style="fill:#E28179;" d="M58.1,563.4l0.5,1.4l6.6-2.9l-0.5-1.4c-3.4-8-7.8-18.4-12.2-27.7l-6.8,2.9
					C50.2,545,54.7,555.4,58.1,563.4z"/>
			</g>
			<g>
				<path style="fill:#E28179;" d="M42.6,571.7l6.6-2.9c-4.6-10-9.3-20.6-12.3-29.3l-6.6,2.9C33.3,551.2,38,561.9,42.6,571.7z"/>
			</g>
			<g>
				<path style="fill:#E28179;" d="M26.2,578.6c0.2,0,0.3-0.2,0.3-0.2l6.3-2.7c-5.4-10.1-9.1-19.1-12.2-29.3l-6.8,2.9
					C17.2,559.5,20.9,568.5,26.2,578.6z"/>
			</g>
		</g>
	</g>
	<g>
		<g>
			<path style="fill:#7CBDDC;" d="M38.3,603.8c1.5-0.8,6.8-3.6,10.5-4.9l-0.8-2.4c-4.1,1.4-9.5,4.1-11,5.1L38.3,603.8z"/>
		</g>
		<g>
			<path style="fill:#7CBDDC;" d="M42.7,614c1.5-0.8,6.8-3.6,10.5-4.9l-0.8-2.4c-4.1,1.4-9.5,4.1-11,5.1L42.7,614z"/>
		</g>
		<g>
			<path style="fill:#7CBDDC;" d="M47.1,624c1-0.7,3.7-2,6.6-3.2c1.4-0.7,2.7-1.2,3.9-1.5l-0.8-2.4c-3.9,1.4-9.5,4.1-11,5.1
				L47.1,624z"/>
		</g>
		<g>
			<path style="fill:#7CBDDC;" d="M63.2,640.9c1.2-0.5,2.4-1,3.4-1.5l-1.2-2.2c-3.6,1.9-9,3.7-10.7,4.2l0.7,2.4
				C56.6,643.4,60,642.2,63.2,640.9z"/>
		</g>
		<g>
			<path style="fill:#7CBDDC;" d="M58.8,630.7c1.2-0.5,2.4-1,3.4-1.5L61,627c-3.6,1.9-9,3.9-10.7,4.2l0.7,2.4
				C52.2,633.3,55.6,632.2,58.8,630.7z"/>
		</g>
	</g>
</g>
</svg>
