<?xml version="1.0" encoding="utf-8"?>
<!-- Generator: Adobe Illustrator 23.1.0, SVG Export Plug-In . SVG Version: 6.00 Build 0)  -->
<svg version="1.1" id="Isolation_Mode" xmlns="http://www.w3.org/2000/svg" xmlns:xlink="http://www.w3.org/1999/xlink" x="0px"
	 y="0px" viewBox="0 0 675.6 400.3" style="enable-background:new 0 0 675.6 400.3;" xml:space="preserve">
<g>
	<g>
		<path style="fill:#F0BA43;" d="M143.6,176.1c-6.1-3.1-12.2-6.1-18.6-9.2c-5.1-2.5-14.5-5.1-18.6-9.2c-7.6-7.6-1.8-32.3-1.5-42.5
			c0.3-4.1-5.1-6.4-8.4-4.3c-9.4,6.4-20.1,16.3-30.5,20.6c-1.8,0.8-3.8,1-5.9,0.8c-9.4-8.1-19.6-15-30.8-20.6c-4.1-2-8.9,1-8.6,5.6
			c0.3,7.6,2,14.5,4.6,21.1c1.3,7.4,3.6,14.5,6.9,20.9c-1.5,2-3.1,4.3-4.8,6.1c-8.4,10.2-16.8,20.4-25.2,30.5
			c-3.3,3.8-0.8,10.9,4.8,10.4c11.2-1.3,24.9-3.3,35.1,2.8c10.4,6.4,13,21.1,20.1,30.5c2.5,3.3,8.9,4.1,10.7-0.5
			c5.6-14.2,10.4-40.5,27.7-42.7c14.5-1.8,28-5.3,41.7-10.4C146.9,184.7,147.9,178.4,143.6,176.1z"/>
		<path style="fill:#F0BA43;" d="M502.1,137.4c10.9-8.4,27-23.2,20.6-33.6c-3.8-6.4-15.8-6.9-21.9-7.4c-10.2-0.8-20.1,0.5-29.8,3.6
			c-5.3-10.9-15.8-31.8-28.2-29.5c-3.6-1.5-6.9,0.5-8.1,4.1c-4.1,12.2-5.1,24.7-3.1,36.9c-12.2,2.5-23.7,6.9-34.9,12.7
			c-4.1,2-3.8,7.9-0.8,10.7c10.7,10.4,22.9,17.8,36.6,22.9c-3.8,12.2-4.8,24.4-2.5,37.7c0.8,4.3,6.1,9.2,10.4,5.3
			c5.1-4.3,9.9-8.6,14.2-13.5c4.3-5.1,8.9-14.5,15-16.5s15,3.1,21.4,3.8c0.8,0,1.5,0.3,2.5,0.3c2.8,1.8,6.4,2.3,9.7,1.5
			c2,0.3,4.1,0.3,6.1,0c0.8,0,1.3,0,2,0c1.3,0,2.3-0.3,3.1-0.8c1-0.3,1.8-0.5,2.8-0.8c4.1-1.3,5.3-7.4,2.5-10.2
			C515.8,154.5,509.9,145.3,502.1,137.4z M493.1,107.9c0,0.3-0.3,0.3-0.3,0.5c-1.3,0.5-2.5,1.3-3.3,2.5c-0.3-1-0.8-1.8-1.5-2.5
			C489.8,108.2,491.4,108.2,493.1,107.9z"/>
		<path style="fill:#F0BA43;" d="M669.2,236.1c-14.2-4.6-28.7-6.9-43.8-7.1c-4.6-12.5-10.7-23.9-18.8-34.9c-2.5-3.3-7.9-3.6-9.9,0.5
			c-5.3,10.9-10.4,23.9-9.4,36.4c-6.4,0.5-13,3.6-18.8,6.1c-7.9,3.6-14.8,8.6-20.9,14.8c-2.5,2.5-1.8,6.4,0.5,8.6
			c7.4,7.9,18.3,16.3,29.5,18.8c-0.3,1-0.5,1.8-0.8,2.8c-1.3,7.1-0.3,14.5-3.1,21.4c-2.3,5.6,2,10.7,7.9,9.2
			c5.3-1.3,9.9-3.3,14.8-6.4c3.1-1.8,11.2-10.9,14.8-11.2c0.3,0,2,2.8,2.8,3.1c3.1,1.5,5.6,3.6,8.4,5.1c4.8,2.3,9.7,3.8,14.8,4.8
			c2.3,2.5,5.9,3.8,8.9,1.5c0.5-0.3,0.8-0.5,1.3-1c2.8-2,3.6-5.9,1.8-8.6c-0.3-0.3-0.5-0.8-0.5-1c0-0.3-0.3-0.3-0.3-0.5
			c-0.8-9.2-1-19.1-3.3-28c11.7-5.6,21.4-14.2,29-25.4C676.1,241.5,672.8,237.1,669.2,236.1z M587.8,243.2c-0.3,0.3-0.3,0.5-0.3,0.8
			c-0.8,0-1.8,0.3-2.5,0.5c-2.8,0.8-5.1,2-6.6,3.8c-1,0.5-2,1-3.3,1.8c0,0,0,0-0.3,0.3c-1.3,0.3-2.3,0.5-3.6,1
			c-0.5,0.3-0.8,0.5-1,0.5c-0.5-0.3-1.3-0.5-1.8-0.8c1.3-0.8,2.5-1.3,3.8-2C576.1,247.1,582.7,243.5,587.8,243.2z"/>
		<path style="fill:#F0BA43;" d="M322.7,343.2c-2-14.8-22.6-24.4-37.1-28.2c4.1-16.3,6.6-32.6-0.3-48.6c-1.8-4.1-6.4-5.1-9.7-2
			c-5.9,5.6-12,11.4-17.8,17c-3.1,2.8-9.4,10.2-14.2,10.2c-2.5,0-7.4-4.1-9.4-5.1c-6.9-3.8-18.1-13.2-26.2-8.4
			c-5.9,3.3-5.9,10.4-4.6,16c2.3,12.2,7.6,24.7,13.2,36.1c-8.4,11.4-14.5,24.2-18.3,38.2c-1,4.1,2.8,8.4,6.9,8.1
			c12.7-1.3,24.7-4.6,36.1-9.9c6.4,14.5,17.3,25.9,31.8,33.1c3.6,1.8,8.6-0.3,9.4-4.3c2.3-11.7,3.3-23.4,3.1-35.4
			C299,360,324.7,358.5,322.7,343.2z"/>
		<path style="fill:#F0C942;" d="M65.7-51.9c0.3-3.6-5.1-3.1-5.3,0.3c-3.8,58.3-9.4,118.8-2,177.1c0.5,3.3,5.6,3.3,5.3-0.3
			C61.2,65.9,62.4,7.7,65.7-51.9z"/>
		<path style="fill:#F0C942;" d="M253.5,3.1c-0.3-4.1-6.6-3.8-6.6,0.3c1.8,45.3,5.6,90.3,6.6,135.3c0.8,46.8-1,93.4-6.4,139.9
			c-0.3,2.8,3.8,3.8,4.3,1C265.5,189.1,261.6,93.9,253.5,3.1z"/>
		<path style="fill:#F0C942;" d="M467.5,6.4c-3.8-29.5-2.5-59.3-4.6-88.8c-0.3-3.8-5.6-3.3-5.9,0.3c-1,28.5,0.8,58,4.3,86
			c3.6,27.5,10.2,53.9,8.6,81.9c-0.3,2.8,4.3,3.1,4.8,0.5C478.6,59.3,470.8,32.8,467.5,6.4z"/>
		<path style="fill:#F0C942;" d="M625.2,52.9c-2-55.7-0.5-111.4-3.3-167.1c-0.3-3.8-5.9-3.3-5.9,0.3c-2.8,53.4,0.5,108.1,2.8,161.5
			c1,25.7,2.8,51.4,4.1,77.1c1.3,28.5-1.5,56-4.3,84.2c-0.3,3.1,4.3,4.3,4.8,1C633.6,158.3,627.2,105.4,625.2,52.9z"/>
	</g>
	<path style="opacity:0.54;fill:#FFFFFF;enable-background:new    ;" d="M58.1,141.5c-0.8-1.5-2.8-2.5-4.1-1.5
		c-0.3-1-0.8-1.5-1.5-1.8l0.3-0.8c0.8-2.5-1.8-3.8-3.8-3.3c-0.3-2.8-4.3-3.6-5.6-0.3c0,0.3-0.3,0.3-0.3,0.5c0-0.5,0-1.3-0.3-1.8
		c-0.3-1.5-1.8-2.8-3.3-2.5c0-0.3,0-0.3,0-0.5c0-1.3-1-2-1.8-2c-0.8-1.5-3.3-1.5-3.8,0.5c-0.8,2.3-0.8,4.1-0.8,6.4
		c0,1,0.8,1.8,1.8,2c0,0.3,0,0.5,0,0.8c0,1.8,2,2.8,3.6,2.3c0,1.3,0,2.5,0,3.8c0,2,1.8,2.8,3.6,2.3c0,1.5,1,2.5,2,2.8
		c0.3,1,1,1.5,2,1.8c-0.3,0.8-0.3,1.5-0.5,2.3c-0.5,2.3,2,4.3,4.1,3.6c1,1.3,3.1,1.5,4.3,0.3c0.3,0.3,0.5,0.8,1,1
		c1,0.8,2.3,1,3.6,0.3c0.3,0,0.5-0.3,0.5-0.3c2-1,1.5-3.6,0-4.6c0-2,1.8-6.4,2-7.6C61.4,142.8,59.9,141.5,58.1,141.5z"/>
	<path style="opacity:0.54;fill:#FFFFFF;enable-background:new    ;" d="M90.9,121.4c-0.5,0.8-1,1.5-1.5,2.3c-1,1-2.8,2-3.6,3.1
		c-0.8,1-1,2-1.5,3.1c-1,0-2,0.3-2.5,1.3c-1.5-1-4.1-0.5-4.6,1.5c-0.3,1.3-0.5,2.3-0.8,3.6c-1.5-0.3-3.1,0.8-3.1,2.5
		c0,0.5,0,1,0,1.5l-0.3,0.3c-0.3,0.3-0.5,0.3-0.5,0.5c-2,2-3.3,4.3-3.3,7.6c0.3,2.3,2.3,3.1,3.8,2.5c1.3,0.8,2.8,0.5,3.6-1
		c0-0.3,0.3-0.5,0.3-0.8c0.8-0.3,1.3-0.5,1.8-1.3c0.5-1.3,0.8-2.5,1.3-3.8c1.3,0.3,2.8-0.3,3.3-1.3c1-1.5,1.8-3.3,2.5-5.1
		c0,0,0.3,0,0.3-0.3c0.8-1,1.5-2,2-2.8c2-2.3,3.8-4.6,5.3-6.9c1-1,1.8-2.3,2.3-3.8l0,0l0,0c0-0.3,0.3-0.5,0.3-0.8
		C97,120.1,92.5,118.6,90.9,121.4z"/>
	<path style="opacity:0.54;fill:#FFFFFF;enable-background:new    ;" d="M38,174.3c-0.5-1.8-3.1-2.5-4.6-1c-0.8,0.5-1.3,1.3-1.8,1.8
		c-1-0.8-2.8-0.8-3.8,0.8c-2.8,4.6-5.9,9.2-8.9,13.5c-0.3,0-0.3,0.3-0.5,0.3c-1.5,1.8-2.8,3.6-3.8,5.6l0,0c-0.8,1-1.5,2.3-1.5,3.8
		c0,1.8,1.5,2.5,3.1,2.5c1,0,2-0.5,2.5-1.3c0.5-0.5,0.8-1.3,0.5-2c0.3-0.3,0.5-0.8,1-1c0.5,0,0.8-0.3,1.3-0.5
		c3.1-2.5,6.1-5.1,8.9-7.9c1.3-1,2.3-2.3,3.3-3.3c0.8-0.8,1.3-1.3,2-2c0,0,0-0.3,0.3-0.3c1.5-1.5,3.3-3.3,4.8-4.8
		C42.8,176.6,40.6,173.8,38,174.3z"/>
	<path style="opacity:0.54;fill:#FFFFFF;enable-background:new    ;" d="M447.4,89.6c0-0.5-0.3-0.8-0.8-1c0-1.5,0-3.3,0-4.8
		c0-1-0.5-1.5-1-2c0-1,0.3-2.3,0.3-3.3c0-2.5-3.6-2.5-4.3-0.3c-0.3,1.5-0.5,3.1-1,4.6c-0.5,0.3-0.8,0.8-0.8,1.5
		c-0.3,2.8-0.5,5.6-0.8,8.4c-0.8,5.6-1,10.9-1.5,16.3c0,0.3,0,0.5,0.3,1c0,0,0,0,0,0.3c-0.8,3.1,3.3,4.3,5.1,2.5
		c0.8,0.3,1.8,0,2.5-0.3c1-0.3,2-1,2.3-2C448.9,103.1,448.6,96.4,447.4,89.6z"/>
	<path style="opacity:0.54;fill:#FFFFFF;enable-background:new    ;" d="M435.9,122.9l-2.5-4.3c0.3-2-2-3.8-4.3-2.8
		c-6.6,3.8-13.5,6.4-20.4,9.2c-1.3,0.5-1.5,1.5-1.5,2.5c-1.8,0.3-3.3,0.8-5.1,1c-3.1,0.8-2,6.1,1,5.6c0.3,0,0.5,0,0.8-0.3l0,0
		c0.3,0,0.5-0.3,0.8-0.3c1.3-0.3,2.3-0.5,3.6-0.8c8.6-1.8,17.3-3.8,25.9-5.6C436.2,127,436.7,124.4,435.9,122.9z"/>
	<path style="opacity:0.54;fill:#FFFFFF;enable-background:new    ;" d="M509.7,103.1c-9.9-0.5-19.6,1-28.7,4.3c-1-0.5-2-0.8-3.1,0
		c-1.3,1-1.8,1.5-2.8,3.1c-1.3,2,1,4.8,3.3,4.3c6.1,6.4,23.4-3.1,29.3-5.3c0.3,0,0.5-0.3,0.8-0.3c0.5,0,1,0,1.5,0
		C513.8,108.9,513.5,103.3,509.7,103.1z"/>
	<path style="opacity:0.54;fill:#FFFFFF;enable-background:new    ;" d="M242.6,302.5c0.3-1,0-2.5-1.5-3.3
		c-7.4-4.3-15-8.6-22.4-12.7c-0.3-0.5-0.8-0.8-1.5-1c-1-0.3-2,0.3-2.5,1.3c-0.3,0.5-0.5,1-0.5,1.5c-1,1.3-1.3,3.1,0,4.3
		c4.1,4.3,23.7,24.4,29.5,12.7C244.1,304.3,243.6,303.3,242.6,302.5z"/>
	<path style="opacity:0.54;fill:#FFFFFF;enable-background:new    ;" d="M278.2,274.3c-0.5-2-2.8-3.3-4.6-1.3
		c-7.4,8.1-15,16.3-22.6,24.4c-1.8,1.8-0.3,4.8,2.3,4.8c1.5,0,3.1-0.3,4.3-0.8c-0.3,2.3,2.8,4.6,4.6,2.3c6.4-8.1,12-16.8,17-25.9
		C280.2,276.3,279.4,274.8,278.2,274.3z"/>
	<path style="opacity:0.54;fill:#FFFFFF;enable-background:new    ;" d="M227.8,342.2c0.5-0.8,0.8-1.8,0.5-2.5
		c0.3-2-1.5-4.1-3.8-3.1c-0.5,0.3-0.8,0.5-1.3,0.8c-0.3-1.5-2-2.8-3.6-1.5c-1.5,1.3-2,2.8-2.8,4.6c-1,1.8-2,3.8-3.1,5.6
		c-0.3,0.5-0.8,0.8-1,1.3c-0.3,0.5-0.5,0.8-0.5,1.3c-0.3,0.3-0.3,0.5-0.5,0.8c-3.1,5.3-6.1,10.4-7.9,16.3c-0.8,2.8,3.1,4.6,4.8,2.5
		c0.8-0.8,1.3-1.8,2-2.5c1,0.3,2-0.3,2.8-1.3c0.5-0.8,1-1.8,1.5-2.5c3.6-4.3,7.1-9.2,9.2-14.2C225.5,345.3,226.5,343.7,227.8,342.2z
		"/>
	<path style="opacity:0.54;fill:#FFFFFF;enable-background:new    ;" d="M593.1,242.7c-0.5,0-0.8,0.3-1.3,0.3
		c-0.3-1.5-1.8-2.8-3.3-2c-2.5,1-5.1,2-7.6,3.3c-5.6,2-10.4,5.3-15,9.4l0,0l0,0c-0.3,0.3-0.3,0.3-0.5,0.5l0,0c-1,0.8-2,1.5-3.1,2.5
		c-1.8,1.8,0.8,4.6,2.8,3.3c0.5-0.5,1.3-0.8,1.8-1.3c0.5,0,1.3,0,1.8-0.3c0.3-0.3,0.5-0.3,0.8-0.5c0.8,1,2.3,1.5,3.6,0.5
		c6.9-4.3,14.2-7.4,21.9-10.7C598,246.3,596.4,242,593.1,242.7z"/>
	<path style="opacity:0.54;fill:#FFFFFF;enable-background:new    ;" d="M616.5,234.8c-0.3-1-0.8-2-1-3.3c0-0.3,0-0.5,0-1
		c-1.8-6.1-3.8-12.5-6.4-18.3c-0.3-1.3-0.8-2.5-1-3.8c-0.3-0.8-0.8-1.3-1.3-1.5c-0.3-0.5-0.5-1-0.8-1.5c-1.3-2.3-4.8-0.5-4.1,2
		c0,0.3,0.3,0.3,0.3,0.5c-1.3,0.3-2.3,1.5-2,3.3c1.8,7.6,4.1,15,7.1,22.1c0.8,1.8,2.3,2,3.6,1.5c0.3,0.5,0.3,1,0.5,1.5
		C612.5,239.9,617.6,238.4,616.5,234.8z"/>
	<path style="opacity:0.54;fill:#FFFFFF;enable-background:new    ;" d="M663.6,238.9c-0.5,0-1.3-0.3-1.8-0.3c0-1.5-1-2.8-2.8-2.5
		c-5.9,0.5-11.7,0.8-17.6,1.3c-4.3,0-8.4,0.3-12.7,1c-3.8,0.5-3.6,5.6,0.3,5.9c7.1,0.3,14.5,1,21.9,0.8c2,0,4.1-0.3,5.9-1
		c1.8,0.3,3.8,0.5,5.6,0.8C666.1,245.3,667.4,239.4,663.6,238.9z"/>
</g>
</svg>
