<?xml version="1.0" encoding="utf-8"?>
<!-- Generator: Adobe Illustrator 23.1.0, SVG Export Plug-In . SVG Version: 6.00 Build 0)  -->
<svg version="1.1" id="Isolation_Mode" xmlns="http://www.w3.org/2000/svg" xmlns:xlink="http://www.w3.org/1999/xlink" x="0px"
	 y="0px" viewBox="0 0 239 866.4" style="enable-background:new 0 0 239 866.4;" xml:space="preserve">
<line style="fill:none;stroke:#FFFFFF;stroke-width:14.9671;stroke-linecap:round;stroke-linejoin:round;stroke-miterlimit:10;stroke-dasharray:0,32.8457;" x1="163.6" y1="665.1" x2="163.6" y2="-20.8"/>
<g>
	<g>
		<path style="fill:#F48AA4;" d="M125.4,749.9c-27.1,24.3-31.1,63.9-9,88.4c22,24.5,61.8,24.6,88.9,0.3s31.1-63.9,9-88.4
			C192.2,725.9,152.5,725.6,125.4,749.9z M192,824c-13.4,12-31.1,19.8-48.1,12.8c-17.7-7.3-28.6-26.2-24.5-45.1
			c2.1-9.5,8.3-24.5,15.6-31.1c20.5-18.4,56.9-16.3,70,5C218.1,786.7,209,808.5,192,824z"/>
		<path style="fill:#ECE8E5;" d="M200.4,834c-14.8,12.7-37.1,23.1-57.6,20.5c20.3,5.7,44.3,0.3,62.3-15.8
			c14.8-13.2,22.6-30.9,23.3-48.3C224.3,807.3,213.6,822.9,200.4,834z"/>
		<path style="fill:#E0DDDA;" d="M132.2,829.4c-10.4-9.4-15.8-23.6-12.7-37.7c2.1-9.5,8.3-24.5,15.6-31.1
			c19.6-17.5,53.5-16.5,68,2.3c4.2-4.2,9-6.9,14.4-8.3c-1-1.4-2.1-2.8-3.3-4.2c-22-24.5-61.8-24.6-88.9-0.3s-31.1,63.9-9,88.4
			c1.2,1.4,2.4,2.6,3.8,3.8C123.5,837.2,127.5,832.8,132.2,829.4z"/>
	</g>
	<path style="fill:#F599B5;" d="M198.1,668.4c-19.1-18.9-46.5-19.8-64.1-0.2c-7.3,8.2-10.4,17-14.1,27.1c-4.7,13-13,24.6-23.6,33.3
		c-9.9,8.2-21.9,13.9-34.9,15.8c-11.6,1.7-25.5,10.2-32.3,21.9c-8.2,14.1,0.7,37.7,9.9,49.6c17.5,22.9,51.9,18.1,74.6,7.6
		C155.2,804.5,250.9,720.7,198.1,668.4z M69.8,797.2c-4.7,4.2-11.8,3.8-16-0.9s-3.8-11.8,0.9-16s11.8-3.8,16,0.9
		C74.9,786,74.5,793.3,69.8,797.2z M175.4,702.5c-4.7,4.2-11.8,3.8-16-0.9s-3.8-11.8,0.9-16s11.8-3.8,16,0.9
		S180.1,698.3,175.4,702.5z"/>
	<path style="opacity:0.3;fill:#C0C3BB;enable-background:new    ;" d="M61.5,744.6c-11.6,1.7-25.5,10.2-32.3,21.9
		c-8.2,14.1,0.7,37.7,9.9,49.6c3.8,5,8.7,8.9,13.9,11.5c-6.1-6.4-11.3-13.7-14.9-21.9c-4.5-8.5-6.9-19.3-5.6-28.1
		c2.1-12.3,7.6-20.1,17.7-26c5.2-3.1,11.1-6.8,18.4-8.3C66.4,743.6,63.9,744.1,61.5,744.6z"/>
	<path style="fill:#ECE8E5;" d="M198.1,668.4c-5.7-5.7-12.3-9.9-19.1-12.2c9.5,7.3,17.2,19.8,21.2,28.5c8.2,18.4,2.1,38.5-7.6,55
		c-11.1,18.9-26.2,35.2-42.2,50c-20.1,18.6-43.4,33.3-68.9,42.4c11.5-0.9,22.9-4.2,32.5-8.5C155.2,804.5,250.9,720.7,198.1,668.4z"
		/>
	<path style="fill:#F5CB98;" d="M150,739.6c-0.9-11.3-13.4-18.4-21.2-24.8c-23.8-19.3-22.4-54-42-75.9c-34-37.8-84.9,10.6-76.5,42.2
		c8.2,30.7,36.6,38.2,56.8,49c21.4,11.5,24,38.2,42.7,45.8C122.6,781.1,151.6,759.9,150,739.6z"/>
	<path style="fill:#ECE8E5;" d="M87,638.9c-18.4-20.5-41.5-15.8-57.8-2.1c6.9-1.9,17.9-4.3,24.6-3.3c17.5,3,31.2,16.3,37.7,32.6
		c4.3,10.8,4.2,21,9.5,31.6c3,5.9,7.3,13.4,12.7,17.4c4.5,3.3,13.9,9.9,18.4,13c14.8,10.2,12.3,27.3,1.6,40.6
		c9.4-7.3,17.2-18.2,16.3-29c-0.9-11.3-13.4-18.4-21.2-24.8C105.2,695.5,106.6,660.8,87,638.9z"/>
	<path style="opacity:0.3;fill:#C0C3BB;enable-background:new    ;" d="M65,718.8c-1.2,0.3-3.1-0.3-5.9-2.3
		c-6.9-5.2-13.7-10.4-20.5-16c-8-6.4-17.9-15.3-19.1-26c-0.7-6.2,1.9-14.2,5-19.4c6.4-10.4,24.6-18.6,32.1-4.9
		c5.7,10.6-3.6,16.1-3.5,29c0.2,9.4,9.2,17.5,11.8,24C67.1,707.7,71.6,716.7,65,718.8z"/>
</g>
</svg>
