<?xml version="1.0" encoding="UTF-8" ?>
<!DOCTYPE svg PUBLIC "-//W3C//DTD SVG 1.1//EN" "http://www.w3.org/Graphics/SVG/1.1/DTD/svg11.dtd">
<svg width="560pt" height="2042pt" viewBox="0 0 560 2042" version="1.1" xmlns="http://www.w3.org/2000/svg">
<g id="#b07e54ff">
<path fill="#b07e54" opacity="1.00" d=" M 136.15 0.00 L 136.98 0.00 C 137.29 91.98 136.88 183.98 137.19 275.96 C 139.14 276.24 140.04 274.85 139.74 273.03 C 139.67 182.02 139.82 91.01 139.67 0.00 L 139.89 0.00 C 139.89 91.84 139.82 183.68 139.92 275.52 C 145.78 276.52 150.49 281.98 150.09 288.01 C 150.11 292.04 147.60 295.39 144.68 297.91 C 146.53 300.50 148.43 303.07 150.58 305.43 C 147.67 305.88 144.77 306.38 141.91 307.02 C 140.53 305.29 139.26 303.48 138.03 301.65 C 136.08 304.53 133.96 307.30 131.68 309.93 C 128.62 308.23 125.08 308.63 121.73 308.74 C 125.61 305.80 128.52 301.84 131.32 297.91 C 128.38 295.40 125.88 292.02 125.91 287.99 C 125.51 281.95 130.25 276.49 136.12 275.51 C 136.17 183.68 136.12 91.84 136.15 0.00 M 136.37 283.37 C 133.01 284.50 132.52 289.70 135.71 291.35 C 138.31 293.11 142.28 291.11 142.44 287.98 C 142.91 284.81 139.30 282.04 136.37 283.37 Z" />
<path fill="#b07e54" opacity="1.00" d=" M 134.65 635.11 C 135.82 636.65 136.91 638.25 138.01 639.86 C 138.67 638.86 139.34 637.87 140.03 636.89 C 143.10 636.78 146.18 637.01 149.22 637.50 C 147.63 639.44 146.16 641.48 144.70 643.53 C 147.46 645.96 149.94 649.12 150.06 652.96 C 150.75 659.37 145.45 665.62 139.02 665.98 C 132.62 666.71 126.35 661.44 125.95 655.01 C 125.36 650.47 127.93 646.33 131.30 643.53 C 129.54 641.06 127.76 638.60 125.73 636.36 C 128.74 636.29 131.73 635.87 134.65 635.11 M 135.36 650.30 C 132.64 652.08 133.09 656.60 136.03 657.91 C 138.76 659.46 142.50 657.13 142.47 654.04 C 142.77 650.47 138.13 648.05 135.36 650.30 Z" />
</g>
<g id="#e6d3b1ff">
<path fill="#e6d3b1" opacity="1.00" d=" M 136.98 0.00 L 139.67 0.00 C 139.82 91.01 139.67 182.02 139.74 273.03 C 140.04 274.85 139.14 276.24 137.19 275.96 C 136.88 183.98 137.29 91.98 136.98 0.00 Z" />
</g>
<g id="#b57e10ff">
<path fill="#b57e10" opacity="1.00" d=" M 484.00 4.00 C 484.79 4.00 486.36 4.01 487.15 4.01 C 487.23 129.05 487.16 254.09 487.19 379.13 C 486.12 378.39 485.06 377.66 484.00 376.92 C 484.00 252.61 484.00 128.31 484.00 4.00 Z" />
</g>
<g id="#be8b5eff">
<path fill="#be8b5e" opacity="1.00" d=" M 141.91 307.02 C 144.77 306.38 147.67 305.88 150.58 305.43 C 153.64 308.79 157.67 310.99 161.53 313.31 C 157.33 313.58 152.78 311.78 149.02 314.38 C 146.32 312.27 144.01 309.71 141.91 307.02 Z" />
</g>
<g id="#c28f61ff">
<path fill="#c28f61" opacity="1.00" d=" M 108.53 316.62 C 112.97 314.06 117.55 311.71 121.73 308.74 C 125.08 308.63 128.62 308.23 131.68 309.93 C 129.35 312.55 126.65 314.83 123.67 316.67 C 122.71 315.94 121.71 314.97 120.38 315.42 C 116.45 316.00 112.54 316.95 108.53 316.62 Z" />
</g>
<g id="#ca9766ff">
<path fill="#ca9766" opacity="1.00" d=" M 149.02 314.38 C 152.78 311.78 157.33 313.58 161.53 313.31 C 167.56 316.69 173.69 319.89 179.58 323.51 C 174.74 323.81 170.19 321.90 165.46 321.26 C 164.95 321.72 163.92 322.64 163.40 323.10 C 158.50 320.38 153.54 317.71 149.02 314.38 Z" />
</g>
<g id="#cf9c6aff">
<path fill="#cf9c6a" opacity="1.00" d=" M 120.38 315.42 C 121.71 314.97 122.71 315.94 123.67 316.67 C 116.83 320.95 109.64 324.62 102.67 328.67 C 102.20 328.32 101.27 327.61 100.81 327.26 C 95.96 327.02 91.54 329.90 86.67 329.70 C 93.65 324.85 101.08 320.69 108.53 316.62 C 112.54 316.95 116.45 316.00 120.38 315.42 Z" />
<path fill="#cf9c6a" opacity="1.00" d=" M 169.25 615.14 C 176.31 616.55 182.61 611.36 189.62 611.55 C 181.01 617.57 171.70 622.49 162.52 627.57 C 157.84 627.47 153.15 628.59 148.51 627.46 C 154.97 622.63 162.23 619.06 169.25 615.14 Z" />
</g>
<g id="#d7a470ff">
<path fill="#d7a470" opacity="1.00" d=" M 165.46 321.26 C 170.19 321.90 174.74 323.81 179.58 323.51 C 186.58 327.65 193.40 332.14 199.61 337.40 C 197.04 337.60 194.68 336.36 192.16 336.14 C 190.87 336.78 189.70 337.64 188.51 338.45 C 180.54 332.70 172.01 327.80 163.40 323.10 C 163.92 322.64 164.95 321.72 165.46 321.26 Z" />
</g>
<g id="#ddaa74ff">
<path fill="#ddaa74" opacity="1.00" d=" M 86.67 329.70 C 91.54 329.90 95.96 327.02 100.81 327.26 C 101.27 327.61 102.20 328.32 102.67 328.67 C 93.56 333.94 84.81 339.90 76.97 346.94 C 71.57 343.81 67.82 350.80 62.55 350.76 C 69.53 342.63 77.82 335.69 86.67 329.70 Z" />
</g>
<g id="#e0b079ff">
<path fill="#e0b079" opacity="1.00" d=" M 188.51 338.45 C 189.70 337.64 190.87 336.78 192.16 336.14 C 194.68 336.36 197.04 337.60 199.61 337.40 C 207.02 343.43 213.80 350.33 219.34 358.12 C 215.59 356.57 212.45 353.93 208.89 352.02 C 208.01 352.73 207.13 353.43 206.26 354.13 C 200.90 348.31 194.90 343.10 188.51 338.45 Z" />
<path fill="#e0b079" opacity="1.00" d=" M 209.43 583.74 C 215.05 582.90 218.39 577.57 223.70 575.92 C 216.06 590.74 203.12 602.12 189.62 611.55 C 182.61 611.36 176.31 616.55 169.25 615.14 C 184.15 606.85 198.40 596.90 209.43 583.74 Z" />
</g>
<g id="#e5b880ff">
<path fill="#e5b880" opacity="1.00" d=" M 62.55 350.76 C 67.82 350.80 71.57 343.81 76.97 346.94 C 70.27 353.16 63.89 359.96 59.48 368.03 C 55.72 368.70 53.17 371.60 50.31 373.84 C 50.17 373.37 49.90 372.43 49.77 371.97 C 52.12 363.94 56.98 356.90 62.55 350.76 Z" />
</g>
<g id="#e7bc83ff">
<path fill="#e7bc83" opacity="1.00" d=" M 206.26 354.13 C 207.13 353.43 208.01 352.73 208.89 352.02 C 212.45 353.93 215.59 356.57 219.34 358.12 C 223.42 363.85 226.41 370.44 227.50 377.42 C 225.09 375.57 223.02 373.31 220.61 371.46 C 220.00 371.53 218.77 371.68 218.16 371.76 C 215.53 365.08 211.06 359.37 206.26 354.13 Z" />
</g>
<g id="#f1ca90ff">
<path fill="#f1ca90" opacity="1.00" d=" M 50.31 373.84 C 53.17 371.60 55.72 368.70 59.48 368.03 C 55.00 376.47 54.51 386.63 57.81 395.57 C 39.25 406.31 22.65 421.67 13.82 441.52 C 12.08 433.07 18.65 425.80 19.66 417.66 C 27.79 407.44 37.97 399.05 48.89 391.97 C 47.52 385.35 47.75 378.42 49.77 371.97 C 49.90 372.43 50.17 373.37 50.31 373.84 Z" />
</g>
<g id="#f2cc92ff">
<path fill="#f2cc92" opacity="1.00" d=" M 218.16 371.76 C 218.77 371.68 220.00 371.53 220.61 371.46 C 223.02 373.31 225.09 375.57 227.50 377.42 C 228.31 382.26 228.01 387.21 227.13 392.02 C 237.61 398.73 247.35 406.75 255.29 416.37 C 255.38 418.17 255.47 420.03 256.29 421.68 C 258.30 426.20 259.90 430.90 261.36 435.63 C 261.88 436.90 261.52 438.24 261.28 439.53 C 252.21 420.63 236.14 405.96 218.20 395.58 C 220.89 387.92 221.24 379.36 218.16 371.76 Z" />
</g>
<g id="#ba8518ff">
<path fill="#ba8518" opacity="1.00" d=" M 484.00 376.92 C 485.06 377.66 486.12 378.39 487.19 379.13 C 487.18 416.14 487.19 453.16 487.19 490.17 C 486.12 489.80 485.06 489.44 484.00 489.08 C 483.99 451.70 484.01 414.31 484.00 376.92 Z" />
</g>
<g id="#e9be85ff">
<path fill="#e9be85" opacity="1.00" d=" M 255.29 416.37 C 267.92 431.23 275.93 450.33 276.00 469.96 C 276.31 489.45 268.77 508.59 256.51 523.58 C 256.44 519.54 258.48 515.96 259.73 512.24 C 258.78 511.46 257.82 510.68 256.86 509.91 C 263.89 498.55 268.19 485.38 268.37 471.97 C 268.64 460.78 265.94 449.66 261.28 439.53 C 261.52 438.24 261.88 436.90 261.36 435.63 C 259.90 430.90 258.30 426.20 256.29 421.68 C 255.47 420.03 255.38 418.17 255.29 416.37 Z" />
</g>
<g id="#e8bd84ff">
<path fill="#e8bd84" opacity="1.00" d=" M 19.66 417.66 C 18.65 425.80 12.08 433.07 13.82 441.52 C 9.58 451.41 7.24 462.18 7.65 472.97 C 8.07 488.37 13.93 503.30 23.02 515.63 C 22.08 516.47 21.14 517.33 20.21 518.19 C 21.33 521.61 23.26 524.79 23.64 528.43 C 10.05 513.83 1.11 494.69 0.00 474.67 L 0.00 467.25 C 0.88 449.13 8.16 431.60 19.66 417.66 Z" />
</g>
<g id="#bf8c20ff">
<path fill="#bf8c20" opacity="1.00" d=" M 484.00 489.08 C 485.06 489.44 486.12 489.80 487.19 490.17 C 487.18 524.17 487.19 558.17 487.19 592.17 C 486.12 591.80 485.06 591.45 484.00 591.10 C 483.99 557.09 484.01 523.09 484.00 489.08 Z" />
</g>
<g id="#f1cb91ff">
<path fill="#f1cb91" opacity="1.00" d=" M 218.20 545.84 C 233.52 536.95 247.47 525.09 256.86 509.91 C 257.82 510.68 258.78 511.46 259.73 512.24 C 258.48 515.96 256.44 519.54 256.51 523.58 C 248.36 533.86 238.16 542.37 227.13 549.41 C 228.99 558.32 227.75 567.77 223.70 575.92 C 218.39 577.57 215.05 582.90 209.43 583.74 C 214.70 577.53 219.09 570.18 220.12 561.96 C 220.93 556.51 219.83 551.03 218.20 545.84 Z" />
<path fill="#f1cb91" opacity="1.00" d=" M 20.21 518.19 C 21.14 517.33 22.08 516.47 23.02 515.63 C 32.16 528.16 44.46 538.08 57.80 545.84 C 56.50 550.09 55.42 554.49 55.63 558.98 C 55.87 567.18 59.58 574.90 64.58 581.26 C 64.06 581.32 63.01 581.43 62.48 581.49 C 58.59 579.29 55.45 575.94 51.39 573.97 C 48.04 566.28 47.18 557.61 48.86 549.40 C 39.63 543.50 30.96 536.61 23.64 528.43 C 23.26 524.79 21.33 521.61 20.21 518.19 Z" />
</g>
<g id="#e1b17aff">
<path fill="#e1b17a" opacity="1.00" d=" M 51.39 573.97 C 55.45 575.94 58.59 579.29 62.48 581.49 C 63.01 581.43 64.06 581.32 64.58 581.26 C 75.37 595.04 89.71 605.51 104.84 614.06 C 97.36 615.20 90.90 609.09 83.52 609.54 C 74.84 603.37 66.90 596.15 60.14 587.92 C 56.62 583.68 53.51 579.06 51.39 573.97 Z" />
</g>
<g id="#c39327ff">
<path fill="#c39327" opacity="1.00" d=" M 484.00 591.10 C 485.06 591.45 486.12 591.80 487.19 592.17 C 487.18 622.84 487.19 653.51 487.19 684.18 C 486.12 683.42 485.06 682.67 484.00 681.93 C 483.99 651.66 484.01 621.38 484.00 591.10 Z" />
</g>
<g id="#d09e6bff">
<path fill="#d09e6b" opacity="1.00" d=" M 83.52 609.54 C 90.90 609.09 97.36 615.20 104.84 614.06 C 111.86 618.00 119.07 621.65 125.74 626.16 C 121.07 628.05 116.22 625.61 111.42 626.41 C 101.89 621.20 92.30 615.98 83.52 609.54 Z" />
</g>
<g id="#c08e5fff">
<path fill="#c08e5f" opacity="1.00" d=" M 111.42 626.41 C 116.22 625.61 121.07 628.05 125.74 626.16 C 129.24 628.56 132.05 631.79 134.65 635.11 C 131.73 635.87 128.74 636.29 125.73 636.36 C 121.82 631.94 116.39 629.40 111.42 626.41 Z" />
</g>
<g id="#bf8c5eff">
<path fill="#bf8c5e" opacity="1.00" d=" M 148.51 627.46 C 153.15 628.59 157.84 627.47 162.52 627.57 C 157.74 630.36 152.75 633.10 149.22 637.50 C 146.18 637.01 143.10 636.78 140.03 636.89 C 142.54 633.49 145.22 630.15 148.51 627.46 Z" />
</g>
<g id="#c8982dff">
<path fill="#c8982d" opacity="1.00" d=" M 484.00 681.93 C 485.06 682.67 486.12 683.42 487.19 684.18 C 487.18 714.83 487.19 745.48 487.19 776.13 C 486.12 775.38 485.06 774.64 484.00 773.90 C 483.99 743.25 484.01 712.59 484.00 681.93 Z" />
</g>
<g id="#cc9e34ff">
<path fill="#cc9e34" opacity="1.00" d=" M 484.00 773.90 C 485.06 774.64 486.12 775.38 487.19 776.13 C 487.18 804.79 487.19 833.46 487.19 862.12 C 486.12 861.37 485.06 860.63 484.00 859.90 C 483.99 831.23 484.01 802.57 484.00 773.90 Z" />
</g>
<g id="#cfa339ff">
<path fill="#cfa339" opacity="1.00" d=" M 484.00 859.90 C 485.06 860.63 486.12 861.37 487.19 862.12 C 487.18 886.12 487.19 910.12 487.19 934.13 C 486.12 933.37 485.06 932.63 484.00 931.90 C 483.99 907.90 484.01 883.90 484.00 859.90 Z" />
</g>
<g id="#d2a83eff">
<path fill="#d2a83e" opacity="1.00" d=" M 484.00 931.90 C 485.06 932.63 486.12 933.37 487.19 934.13 C 487.18 960.46 487.19 986.79 487.19 1013.12 C 486.12 1012.37 485.06 1011.63 484.00 1010.91 C 483.99 984.57 484.01 958.23 484.00 931.90 Z" />
</g>
<g id="#d6ad44ff">
<path fill="#d6ad44" opacity="1.00" d=" M 484.00 1010.91 C 485.06 1011.63 486.12 1012.37 487.19 1013.12 C 487.19 1039.78 487.19 1066.44 487.19 1093.10 C 486.12 1092.35 485.06 1091.61 484.00 1090.88 C 483.99 1064.22 484.01 1037.56 484.00 1010.91 Z" />
</g>
<g id="#dab24aff">
<path fill="#dab24a" opacity="1.00" d=" M 484.00 1090.88 C 485.06 1091.61 486.12 1092.35 487.19 1093.10 C 487.18 1121.77 487.19 1150.43 487.19 1179.10 C 486.12 1178.36 485.06 1177.65 484.00 1176.95 C 483.99 1148.26 484.01 1119.57 484.00 1090.88 Z" />
</g>
<g id="#ddb74fff">
<path fill="#ddb74f" opacity="1.00" d=" M 484.00 1176.95 C 485.06 1177.65 486.12 1178.36 487.19 1179.10 C 487.18 1204.11 487.19 1229.11 487.19 1254.12 C 486.12 1253.36 485.06 1252.63 484.00 1251.90 C 483.99 1226.92 484.01 1201.93 484.00 1176.95 Z" />
</g>
<g id="#e0bc54ff">
<path fill="#e0bc54" opacity="1.00" d=" M 484.00 1251.90 C 485.06 1252.63 486.12 1253.36 487.19 1254.12 C 487.18 1281.80 487.19 1309.48 487.19 1337.17 C 486.12 1336.40 485.06 1335.67 484.00 1334.94 C 483.99 1307.26 484.01 1279.58 484.00 1251.90 Z" />
</g>
<g id="#e4c15aff">
<path fill="#e4c15a" opacity="1.00" d=" M 484.00 1334.94 C 485.06 1335.67 486.12 1336.40 487.19 1337.17 C 487.18 1364.81 487.19 1392.46 487.19 1420.11 C 486.12 1419.37 485.06 1418.65 484.00 1417.94 C 483.99 1390.27 484.01 1362.60 484.00 1334.94 Z" />
</g>
<g id="#e8c660ff">
<path fill="#e8c660" opacity="1.00" d=" M 484.00 1417.94 C 485.06 1418.65 486.12 1419.37 487.19 1420.11 C 487.18 1450.11 487.19 1480.10 487.19 1510.10 C 486.12 1509.35 485.06 1508.62 484.00 1507.91 C 483.99 1477.92 484.01 1447.93 484.00 1417.94 Z" />
</g>
<g id="#ebcb65ff">
<path fill="#ebcb65" opacity="1.00" d=" M 484.00 1507.91 C 485.06 1508.62 486.12 1509.35 487.19 1510.10 C 487.19 1537.45 487.19 1564.80 487.19 1592.16 C 486.12 1591.39 485.06 1590.66 484.00 1589.94 C 483.99 1562.59 484.01 1535.25 484.00 1507.91 Z" />
</g>
<g id="#efd06bff">
<path fill="#efd06b" opacity="1.00" d=" M 484.00 1589.94 C 485.06 1590.66 486.12 1591.39 487.19 1592.16 C 487.18 1623.17 487.19 1654.19 487.19 1685.20 C 486.12 1684.41 485.06 1683.66 484.00 1682.91 C 483.99 1651.92 484.01 1620.93 484.00 1589.94 Z" />
</g>
<g id="#f2d671ff">
<path fill="#f2d671" opacity="1.00" d=" M 484.00 1682.91 C 485.06 1683.66 486.12 1684.41 487.19 1685.20 C 487.18 1720.17 487.19 1755.14 487.19 1790.11 C 486.12 1789.37 485.06 1788.66 484.00 1787.96 C 483.99 1752.94 484.01 1717.92 484.00 1682.91 Z" />
</g>
<g id="#f7dc77ff">
<path fill="#f7dc77" opacity="1.00" d=" M 484.00 1787.96 C 485.06 1788.66 486.12 1789.37 487.19 1790.11 C 487.19 1818.74 487.19 1847.38 487.19 1876.01 C 487.36 1886.54 486.82 1897.10 487.49 1907.62 C 487.13 1908.21 486.41 1909.39 486.05 1909.98 C 485.54 1910.01 484.51 1910.06 484.00 1910.09 C 483.99 1869.38 484.01 1828.67 484.00 1787.96 Z" />
</g>
<g id="#fae485ff">
<path fill="#fae485" opacity="1.00" d=" M 487.49 1907.62 L 488.31 1906.27 C 495.41 1921.19 503.00 1935.88 510.26 1950.73 C 526.84 1953.13 543.42 1955.50 560.00 1957.89 L 560.00 1957.96 C 551.23 1966.60 542.30 1975.09 533.48 1983.68 C 514.45 1965.27 495.91 1946.36 477.21 1927.61 C 480.19 1921.75 482.95 1915.78 486.05 1909.98 C 486.41 1909.39 487.13 1908.21 487.49 1907.62 Z" />
</g>
<g id="#f7dd79ff">
<path fill="#f7dd79" opacity="1.00" d=" M 466.11 1950.26 C 469.59 1942.61 473.52 1935.17 477.21 1927.61 C 495.91 1946.36 514.45 1965.27 533.48 1983.68 C 530.33 1986.73 527.17 1989.77 524.03 1992.84 C 525.00 1998.31 525.92 2003.79 526.88 2009.28 C 525.45 2009.37 524.15 2008.92 523.23 2007.81 C 509.46 1993.93 495.60 1980.13 481.77 1966.29 C 476.57 1960.92 471.03 1955.89 466.11 1950.26 Z" />
</g>
<g id="#f1d46fff">
<path fill="#f1d46f" opacity="1.00" d=" M 466.11 1950.26 C 471.03 1955.89 476.57 1960.92 481.77 1966.29 C 495.60 1980.13 509.46 1993.93 523.23 2007.81 C 524.15 2008.92 525.45 2009.37 526.88 2009.28 C 528.88 2020.17 530.45 2031.15 532.70 2042.00 L 531.57 2042.00 C 526.03 2038.12 519.64 2035.59 513.76 2032.26 C 505.80 2028.08 497.80 2023.98 489.87 2019.74 C 488.08 2015.57 484.29 2012.90 481.24 2009.74 C 468.27 1996.70 455.21 1983.76 442.25 1970.71 C 437.61 1965.81 432.44 1961.40 428.16 1956.16 C 440.78 1954.06 453.65 1953.02 466.11 1950.26 Z" />
</g>
<g id="#eccc67ff">
<path fill="#eccc67" opacity="1.00" d=" M 415.96 1957.92 C 420.02 1957.31 424.09 1956.72 428.16 1956.16 C 432.44 1961.40 437.61 1965.81 442.25 1970.71 C 455.21 1983.76 468.27 1996.70 481.24 2009.74 C 484.29 2012.90 488.08 2015.57 489.87 2019.74 C 489.41 2019.53 488.47 2019.11 488.01 2018.91 C 484.25 2020.63 480.65 2022.69 476.97 2024.59 C 467.37 2017.28 460.06 2007.41 450.78 1999.71 C 451.17 1997.41 451.56 1995.13 451.98 1992.86 C 440.01 1981.18 427.92 1969.61 415.96 1957.92 Z" />
</g>
<g id="#e7c65fff">
<path fill="#e7c65f" opacity="1.00" d=" M 450.78 1999.71 C 460.06 2007.41 467.37 2017.28 476.97 2024.59 C 469.00 2028.74 461.02 2032.88 453.06 2037.06 C 450.18 2038.57 447.09 2039.80 444.63 2042.00 L 443.32 2042.00 C 446.12 2027.96 448.22 2013.79 450.78 1999.71 Z" />
</g>
</svg>
