<?xml version="1.0" encoding="utf-8"?>
<!-- Generator: Adobe Illustrator 23.1.0, SVG Export Plug-In . SVG Version: 6.00 Build 0)  -->
<svg version="1.1" id="Isolation_Mode" xmlns="http://www.w3.org/2000/svg" xmlns:xlink="http://www.w3.org/1999/xlink" x="0px"
	 y="0px" viewBox="0 0 542.3 889.3" style="enable-background:new 0 0 542.3 889.3;" xml:space="preserve">
<g>
	<ellipse style="opacity:0.15;fill:#858585;enable-background:new    ;" cx="280.2" cy="822.9" rx="250" ry="47.3"/>
	<g>
		<path style="fill:#FBBA90;" d="M222.7,656.6c-2.4,50.7-5.5,91.9-7.9,142.6c-3.2,4.8-21.1,5.5-22.4,0
			c-10.6-48.1-19.8-102.4-30.4-150.5C180.2,638.9,206.8,643.6,222.7,656.6z"/>
		<path style="fill:#FBBA90;" d="M334.1,647.3c2.4,50.7,5,101.4,7.4,151.8c3.2,4.8,12.7,18.5,16.9,14.3c4.2-4,4.2-8.7,5.5-14.3
			c10.6-48.1,20.3-111.7,30.9-159.7C376.6,629.6,350,634.4,334.1,647.3z"/>
		<path style="fill:#FFFFFF;" d="M501,474.6c-0.3-16.9-14-31.4-30.4-35.1c19-6.3,32.2-27.2,29.3-47s-23-37.8-43-38.6
			c-5.3-21.9-29.3-37.8-51.5-32.2c0.3-14.8-9-29.3-22.7-35.1c-13.7-5.8-30.6-2.4-40.9,8.2c-15.6-15.6-39.9-19.8-59.7-11.1
			c-19.5-8.7-44.1-4.5-59.7,11.1c-10.3-10.6-27.5-14-40.9-8.2c-13.7,5.8-23,20.3-22.7,35.1c-21.9-5.5-46.2,10-51.5,32.2
			c-20.1,0.5-40.1,18.5-43,38.6c-2.9,19.8,10.3,40.7,29.3,47c-16.4,3.7-30.1,18.2-30.4,35.1c-0.3,16.9,11.9,33,28.3,37.5
			c-7.4,5.8-13.2,13.5-16.6,21.9c9,16.4,29.8,24.8,51,20.6c0,34.3,4.2,77.1,38.6,85.6c17.2,4.2,38.6-8.4,51.5-4.2
			c42.8,17.2,106.9,38.6,150-4.2c8.4-4.2,38.6,4.2,59.9-8.4c34.3-25.6,51.5-68.4,38.6-111.4c4.5,2.1,8.7,3.4,13.2,4
			c-1.3-1.3-2.6-2.6-4.2-3.7C489.1,507.6,501.3,491.5,501,474.6z"/>
		<path style="fill:#E5ECF0;" d="M425.2,623c-21.4,12.9-51.5,4.2-59.9,8.4c-42.8,42.8-106.9,21.4-150,4.2
			c-12.9-4.2-34.3,8.4-51.5,4.2c-34.3-8.4-38.6-51.5-38.6-85.6c-21.1,4.2-42-4-51-20.6c-2.9,7.4-3.7,15.6-1.6,23.8
			c4.2,17.4,19.3,31.7,37,35.1c-7.4,16.4-8.7,35.6,2.6,49.6c11.6,13.7,31.2,20.3,48.6,16.1c6.9,14.3,16.6,27.5,32.2,31.2
			s32.5,0.3,45.4-9.2c9.8,14.3,24.6,23.5,41.5,24.8v0.3c0.8,0,1.3,0,1.8,0c0.8,0,1.3,0,1.8,0V705c16.9-1.3,31.4-10.6,41.5-24.8
			c12.7,9.5,29.8,12.9,45.4,9.2s25.3-16.9,32.2-31.2c17.4,4.2,37.2-2.1,48.6-16.1c11.6-13.7,10-33.3,2.6-49.6
			c17.7-3.4,32.7-17.7,37-35.1c4-15.6-2.6-31.2-14-42.2c-4.2-0.5-8.7-1.8-13.2-4C476.7,554.6,459.5,597.4,425.2,623z"/>
		<path style="fill:#FBBA90;" d="M156.7,345.5C108.4,323.8,68.8,265,70.1,204c-8.2-0.3-14.3,0.5-22.4,0.3
			c-7.7,41.2-1.6,82.4,16.6,118.6s48.6,63.6,82.9,75.5C149.3,381.9,154.6,361.6,156.7,345.5z"/>
		<path style="fill:#FBBA90;" d="M405.9,345.5c48.3-21.7,85.3-80.5,84-141.5c8.2-0.3,14.3,0.5,22.4,0.3c7.7,41.2,4.2,82.4-14,118.6
			s-48.6,63.6-82.9,75.5C413.6,381.9,408,361.6,405.9,345.5z"/>
		<path style="fill:#FAB180;" d="M258.3,361.9c-29-9.8-58.1-29-68.9-56.5c2.4,16.1,8.7,31.7,18.7,42.8c18,20.1,47.3,29.3,73.4,23.5
			h12.1c26.4,5.8,55.4-3.4,73.4-23.5c9.8-10.8,16.1-26.4,18.5-42.5C363.7,348.9,306.7,372.2,258.3,361.9z"/>
		<path style="fill:#FBBA90;" d="M460.3,230.9c-4.8-13.7-23.2-14.3-36.7-19.3c-28.5-10.3-39.1-44.4-59.1-67.3
			c-18.7-21.7-48.1-33.3-76.6-31.2c-28.5-1.8-57.8,9.8-76.6,31.2c-20.1,23-30.6,57-59.1,67.3c-13.5,5-32.2,5.5-36.7,19.3
			c-3.2,9.2,2.6,19,9.8,25.6c17.7,16.4,45.2,20.6,67.1,10.6c-3.7,11.6-4.5,24.8-2.6,38c10.6,27.5,39.9,46.7,68.9,56.5
			c48.6,10.3,105.4-12.9,127.5-56.2c1.8-13.2,1.3-26.9-2.6-38.6c21.9,10,49.4,5.5,67.1-10.6C457.7,249.9,463.5,240.2,460.3,230.9z"
			/>
		<circle style="fill:#545454;" cx="247" cy="220.1" r="7.4"/>
		<circle style="fill:#545454;" cx="323.8" cy="220.1" r="7.4"/>
		<path style="fill:#FFFFFF;" d="M219.8,117.6c42.8,8.4,17.2,12.9,38.6,47c8.4,8.4,21.4-4.2,21.4-17.2c8.4,12.9,27.5,23.8,34.3,12.9
			c5-8.2,4.2-21.4,0-30.1c19.5,11.1,40.9,2.4,51-13.5c-5-4-10.8-6.6-16.1-5.8c10.3-4.5,12.9-20.1,5-28c-7.9-7.7-27.7-9.5-32.2,0.8
			c1.6-12.1-9.2-24.3-21.4-24.3c-12.1,0-29.6,12.7-28,24.8c-5.3-9.5-17.4-14.8-28-11.6c-10.6,2.9-17.2,18.5-16.6,29.3
			c-2.6,0.5-5,1.6-7.1,2.9C220.8,109.5,221.9,113.7,219.8,117.6z"/>
		<path style="fill:#DBE9F0;" d="M365,117.1c-10,15.8-31.4,24.8-51,13.5c4.2,8.4,5,21.9,0,30.1c-6.9,10.8-25.6,0-34.3-12.9
			c0,12.9-12.9,25.6-21.4,17.2c-21.4-34.3,4.2-38.6-38.6-47c2.1-4.2,1.1-8.2,0.5-12.4c-7.4,5-11.6,14.5-9.5,23.2
			c2.9,11.1,16.4,18.2,27.5,14.5c-8.7,6.3-16.6,17.2-11.4,26.4s18,13.5,27.7,9.5c1.6,10.3,8.4,18.2,18.7,18.2
			c10.6,0,20.3-8.4,21.9-18.7c2.6,11.4,21.4,13.7,32.7,11.9c23-3.7,8.4-27.2,6.9-38.8c12.9,2.4,31.2,10,39.3-11.6
			C377.4,132.4,372.4,122.9,365,117.1z"/>
		<path style="fill:none;stroke:#DD8951;stroke-width:1.0062;stroke-miterlimit:10;" d="M234,308.8c11.6,13.5,29.3,21.9,47,22.4
			c18,0.5,35.9-6.6,48.3-19.5"/>
		<path style="fill:none;stroke:#DD8951;stroke-width:1.0062;stroke-miterlimit:10;" d="M282.9,328.9c-0.5-11.9-1.1-23.8-1.6-35.6"
			/>
		<path style="fill:none;stroke:#DD8951;stroke-width:1.0062;stroke-miterlimit:10;" d="M249.4,268.4c3.7,1.3,31.7,25.1,31.7,25.1
			s25.9-18.7,29.8-25.1"/>
		<path style="fill:none;stroke:#DD8951;stroke-width:1.0062;stroke-miterlimit:10;" d="M198.1,259.7c6.1-12.4,12.1-24.8,18.2-37.2"
			/>
		<path style="fill:none;stroke:#DD8951;stroke-width:1.0062;stroke-miterlimit:10;" d="M379.5,259.2c-5.8-10.6-11.4-20.9-17.2-31.4
			"/>
		<path style="fill:#FFFFFF;" d="M384,346c7.1-5.3,18-5,24.8,0.5c6.9,5.5,9.5,15.8,6.1,24c11.4-0.3,22.7,6.9,27.2,17.4
			c4.5,10.6,2.1,23.8-5.8,31.9l-22.2,12.4"/>
		<path style="fill:#FFFFFF;" d="M175.7,345.2c-7.1-5.3-18-5-24.8,0.5c-6.9,5.5-9.5,15.8-6.1,24c-11.4-0.3-22.7,6.9-27.2,17.4
			c-4.5,10.6-2.1,23.8,5.8,31.9l22.2,12.4"/>
	</g>
	<polygon style="fill:#545454;" points="192.3,799.1 192.3,832.7 204.2,825.3 214.8,832.7 214.8,799.1 	"/>
	<polygon style="fill:#545454;" points="341.5,799.1 341.5,832.7 353.1,825.3 363.7,832.7 363.7,799.1 	"/>
	<polygon style="fill:#545454;" points="70.1,204 74,170.4 62.4,178.1 51.6,170.7 47.6,204.2 	"/>
	<polygon style="fill:#545454;" points="489.9,204 486.2,170.4 497.8,178.1 508.4,170.7 512.3,204.2 	"/>
</g>
<g>
	<path style="fill:#F1626C;" d="M85.9,101c0,0,1.8-32.5-31.9-36.7c-33.5-4.2-45.4,56.2,7.9,104.3c0,0,92.7-13.7,80-64.4
		C134,72.8,97.5,74.1,85.9,101z"/>
	<path style="fill:#FFFFFF;" d="M85.9,101.3l-0.3-0.3l0,0v-0.3v-0.3v-0.8v-1.3c0-1.1-0.3-1.8-0.5-2.9c-0.3-1.8-0.8-3.7-1.3-5.5
		c-1.1-3.7-2.9-7.1-5-10.3C74.6,73.3,68,69.3,60.6,67.5c-1.8-0.5-3.7-0.8-5.5-1.1s-3.7-0.5-5.5-0.3c-3.7,0.3-7.1,1.3-10,3.2
		c-6.1,4-9.8,10.8-11.4,18c-1.6,7.4-1.8,15.1-0.5,22.4c1.1,7.7,3.4,15.1,6.6,21.9c6.6,14,16.6,26.1,28,36.4l-0.8-0.3
		c7.7-1.3,15.6-3.4,23-5.8c7.7-2.4,15.1-5.3,22.2-8.4c7.1-3.4,14-7.4,19.8-12.4s10.8-11.1,12.9-18.2c2.4-7.1,1.6-15.1-0.8-22.2
		c-2.4-7.1-7.4-13.5-14.5-16.4c-3.4-1.6-7.1-2.1-11.1-2.1c-3.7,0.3-7.7,1.1-11.1,2.6c-3.4,1.6-6.6,4-9.5,6.9
		c-1.3,1.3-2.6,2.9-3.7,4.5c-0.5,0.8-1.1,1.6-1.6,2.4C87,99.4,86.4,100.5,85.9,101.3z M85.9,100.7c0.3-1.1,0.5-1.8,1.1-2.6
		s0.8-1.8,1.3-2.6c1.1-1.8,2.1-3.4,3.4-5c2.6-3.2,5.8-5.8,9.5-7.7c7.1-4,16.4-5,24.3-1.6c4,1.6,7.4,4.2,10.3,7.1
		c2.9,3.2,5,6.9,6.6,10.8c2.9,7.7,4,16.6,1.3,24.8c-2.6,8.2-8.2,15.1-14.5,20.1c-6.3,5.3-13.5,9.2-20.9,12.7
		c-14.8,6.6-30.4,10.6-46.5,12.9h-0.5l-0.3-0.3c-11.4-10.8-21.1-23-28.3-37c-3.4-6.9-6.3-14.3-7.9-22.2c-1.6-7.7-2.1-15.8-0.3-23.8
		C26.1,78.4,30,70.5,37.4,66c3.4-2.4,7.7-3.4,11.9-3.7c2.1,0,4.2,0,6.1,0.5c1.8,0.3,4,0.8,5.8,1.3c7.7,2.1,14.8,7.1,19,14
		c2.1,3.4,3.7,7.1,4.5,11.1c0.5,1.8,0.8,4,1.1,5.8c0,1.1,0,1.8,0.3,2.9v1.6v0.8L85.9,100.7L85.9,100.7L85.9,100.7
		C86.2,101,85.9,100.7,85.9,100.7z"/>
</g>
<g>
	<path style="fill:#F1626C;" d="M474.1,48.5c0,0,1.3-21.7-21.1-24.3c-22.2-2.6-30.1,37.2,5.3,69.2c0,0,61.5-9.2,53.1-42.8
		C506,29.7,481.7,30.5,474.1,48.5z"/>
	<path style="fill:#FFFFFF;" d="M474.1,48.7C474.1,48.7,473.8,48.5,474.1,48.7l-0.3-0.3l0,0v-0.3v-0.5v-1c0-0.5-0.3-1.3-0.3-1.8
		c-0.3-1.3-0.5-2.4-1.1-3.7c-0.8-2.4-1.8-4.5-3.4-6.6c-2.9-4-7.1-6.6-11.9-7.9s-9.8-1.3-13.5,1.3c-3.7,2.4-6.1,6.9-7.4,11.6
		c-2.4,9.5-0.5,20.1,3.7,29.3s10.8,17.4,18.5,24l-0.8-0.3c5-1.1,10.3-2.4,15.1-4c5-1.6,9.8-3.4,14.5-5.8c4.8-2.1,9-5,12.9-8.2
		c3.7-3.2,6.9-7.1,8.4-11.9c1.6-4.5,1.1-9.5-0.5-14.3c-1.6-4.5-4.8-8.7-9.2-10.6c-4.5-2.1-9.8-1.8-14.3,0.3
		c-2.4,1.1-4.5,2.4-6.3,4.2c-1.1,0.8-1.8,1.8-2.4,2.9c-0.3,0.5-0.8,1.1-1.1,1.6C474.8,47.4,474.3,48.2,474.1,48.7z M474.1,48.2
		c0.3-0.8,0.3-1.3,0.5-1.8c0.3-0.5,0.5-1.3,0.8-1.8c0.8-1.1,1.3-2.4,2.4-3.4c1.6-2.1,4-4,6.3-5.3c4.8-2.6,11.1-3.4,16.4-1.3
		c5.5,2.1,9.5,6.9,11.6,12.1c2.1,5.3,2.6,11.4,1.1,16.9c-1.8,5.5-5.5,10.3-9.8,13.7c-4.2,3.4-9,6.1-14,8.4
		c-10,4.5-20.3,6.9-30.9,8.2H458l-0.3-0.3c-7.4-7.1-14-15.3-18.7-24.8c-4.8-9.2-7.9-19.8-5.8-30.6c1.1-5.3,3.7-10.6,8.7-13.7
		c2.4-1.6,5.3-2.4,8.2-2.4s5.5,0.5,8.2,1.3c5.3,1.6,10,5,12.7,9.8c1.3,2.4,2.4,4.8,2.9,7.4c0.3,1.3,0.5,2.6,0.5,4c0,0.5,0,1.3,0,1.8
		v1.1V48L474.1,48.2L474.1,48.2L474.1,48.2C474.3,48.5,474.1,48.2,474.1,48.2z"/>
</g>
</svg>
