<?xml version="1.0" encoding="utf-8"?>
<!-- Generator: Adobe Illustrator 23.1.0, SVG Export Plug-In . SVG Version: 6.00 Build 0)  -->
<svg version="1.1" id="Isolation_Mode" xmlns="http://www.w3.org/2000/svg" xmlns:xlink="http://www.w3.org/1999/xlink" x="0px"
	 y="0px" viewBox="0 0 582.1 857.2" style="enable-background:new 0 0 582.1 857.2;" xml:space="preserve">
<g>
	<path style="fill:#993964;" d="M174,431.6c-88,0-159.3,71.4-159.3,159.3S86.1,750.2,174,750.2S333.3,679,333.3,591.1
		S262,431.6,174,431.6z M174,720.8c-71.7,0-129.9-58.2-129.9-129.9S102.3,461,174,461s129.9,58.2,129.9,129.9
		C303.9,662.8,245.7,720.8,174,720.8z"/>
	<path style="fill:#975D77;" d="M174,437.5c-84.8,0-153.4,68.8-153.4,153.4c0,84.8,68.6,153.4,153.4,153.4s153.4-68.8,153.4-153.4
		S258.8,437.5,174,437.5z M174,720.8c-71.7,0-129.9-58.2-129.9-129.9S102.3,461,174,461s129.9,58.2,129.9,129.9
		C303.9,662.8,245.7,720.8,174,720.8z"/>
	<path style="fill:#C3E3C6;" d="M174,450.3c-77.7,0-140.8,63-140.8,140.8s63,140.8,140.8,140.8s140.8-63.1,140.8-140.8
		C314.6,513.4,251.7,450.3,174,450.3z M174,720.8c-71.7,0-129.9-58.2-129.9-129.9S102.3,461,174,461s129.9,58.2,129.9,129.9
		C303.9,662.8,245.7,720.8,174,720.8z"/>
</g>
<line style="fill:none;stroke:#FFFFFF;stroke-width:14.9671;stroke-linecap:round;stroke-linejoin:round;stroke-miterlimit:10;stroke-dasharray:0,32.8457;" x1="378.1" y1="571.5" x2="378.1" y2="-9.2"/>
<line style="fill:none;stroke:#FFFFFF;stroke-width:14.9671;stroke-linecap:round;stroke-linejoin:round;stroke-miterlimit:10;stroke-dasharray:0,32.8457;" x1="137.1" y1="431.6" x2="137.1" y2="-28.5"/>
<g>
	<path style="fill:#8A9E3D;" d="M217.5,618.6c-4.3,12.3,0.7,25.6,11.2,32.2c-8.1,2.4-15,8.5-18.1,17c-5,14.3,2.5,29.8,16.8,34.8
		c8.7,3.1,17.8,1.5,24.8-3.5c3.2,4.8,7.9,8.7,13.8,10.7c6.3,2.2,12.9,1.9,18.8-0.3c-1.9,12.6,5.4,25.3,17.9,29.7
		c9.7,3.4,20,1,27.2-5.3c1.3,9.8,7.9,18.7,18.1,22.2c10,3.5,20.7,0.9,27.9-6.2c1.3,9.8,7.9,18.7,18.1,22.2c11,3.8,22.9,0.1,30-8.2
		c2.1,9,8.4,16.6,17.6,19.8c14.3,5,29.8-2.5,34.8-16.8c0.1-0.4,0.1-0.7,0.3-1.2c3.2,5.1,8.1,9.1,14.1,11.3
		c14.3,5,29.8-2.5,34.8-16.8c2.1-6,1.9-12.2,0.1-17.8c13.4,3.2,27.3-4.3,32-17.5c3.5-10.1,0.7-21-6.3-28.2c5.7-3.1,10.4-8.2,12.8-15
		c3.4-9.7,1-20.1-5.4-27.3c3.7-3.1,6.6-7.1,8.4-11.9c5-14.3-2.5-29.8-16.8-34.8c-6.5-2.2-13.1-1.9-19.1,0.4c1.2-1.9,2.2-3.8,2.9-6
		c5-14.3-2.5-29.8-16.8-34.8c-8.7-3.1-17.9-1.5-25,3.5c1-12-6.2-23.8-18.2-28.1c-10-3.5-20.7-0.9-27.9,6
		c-1.3-9.8-7.9-18.7-18.1-22.2c-9.8-3.5-20.3-0.9-27.5,5.7c-1.5-9.7-8.1-18.2-17.9-21.6c-13.7-4.8-28.7,1.9-34.2,15.1
		c-3.1-5.1-8.1-9.3-14.3-11.5c-14.3-5-29.8,2.5-34.8,16.8c-0.3,0.9-0.6,1.6-0.7,2.5c-2.8-2.8-6.2-5-10.1-6.3
		c-14.3-5-29.8,2.5-34.8,16.8c-2.1,5.7-1.9,11.6-0.3,17c-10,1.2-19,7.9-22.5,18.1c-2.8,7.8-1.8,16,2.1,22.6
		C226.2,605,220.1,610.8,217.5,618.6z"/>
	<path style="fill:#B2C84E;" d="M229.1,620.3c-4,11.5,0.6,23.8,10.6,30.1c-7.6,2.2-14,7.9-16.9,16c-4.7,13.4,2.4,27.9,15.6,32.6
		c8.1,2.8,16.8,1.3,23.2-3.2c2.9,4.6,7.3,8.1,12.9,10.1c5.9,2.1,12,1.8,17.5-0.3c-1.8,11.9,5.1,23.7,16.8,27.8
		c9,3.2,18.7,0.9,25.4-5c1.2,9.3,7.5,17.5,16.9,20.9c9.4,3.2,19.4,0.7,26.2-5.7c1.2,9.3,7.5,17.5,16.9,20.9
		c10.3,3.7,21.5,0.1,28.1-7.8c1.9,8.4,7.8,15.6,16.5,18.5c13.4,4.7,27.9-2.4,32.6-15.7c0.1-0.3,0.1-0.7,0.3-1
		c2.9,4.7,7.5,8.5,13.2,10.6c13.4,4.7,27.9-2.4,32.6-15.7c1.9-5.6,1.8-11.5,0.1-16.6c12.6,2.9,25.6-4,30-16.5
		c3.4-9.6,0.7-19.7-6-26.5c5.3-2.9,9.7-7.8,11.9-14c3.2-9.1,0.9-18.8-5.1-25.6c3.4-2.8,6.2-6.6,7.8-11.2
		c4.7-13.4-2.4-27.9-15.6-32.6c-6-2.1-12.3-1.8-17.8,0.3c1.2-1.8,2.1-3.5,2.8-5.6c4.7-13.4-2.4-27.9-15.6-32.6
		c-8.1-2.8-16.8-1.3-23.2,3.4c0.9-11.3-5.7-22.3-17-26.3c-9.4-3.2-19.4-0.7-26.2,5.7c-1.2-9.3-7.5-17.5-16.9-20.9
		c-9.3-3.2-19.1-0.9-25.7,5.3c-1.5-9-7.6-17-16.8-20.3c-12.8-4.6-26.7,1.8-32,14.1c-2.9-4.8-7.5-8.7-13.2-10.7
		c-13.4-4.7-27.9,2.4-32.6,15.6c-0.3,0.7-0.4,1.6-0.7,2.4c-2.6-2.5-5.7-4.6-9.4-5.9c-13.4-4.7-27.9,2.4-32.6,15.6
		c-1.9,5.3-1.9,10.9-0.3,15.9c-9.4,1.2-17.6,7.3-21,16.9c-2.5,7.3-1.6,15,1.9,21.2C237.2,607.5,231.7,613,229.1,620.3z"/>
	<path style="fill:#93A841;" d="M264.4,640.2c-3.1,8.7,0.4,18.2,7.9,22.9c-5.7,1.8-10.7,6-12.8,12.2c-3.5,10.1,1.8,21.2,11.9,24.8
		c6.2,2.2,12.6,1,17.6-2.5c2.2,3.4,5.6,6.2,9.8,7.6c4.6,1.6,9.3,1.3,13.4-0.1c-1.3,9,3.8,17.9,12.8,21.2c6.9,2.4,14.1,0.7,19.3-3.8
		c0.9,7.1,5.7,13.4,12.8,15.9c7.2,2.5,14.8,0.6,19.8-4.3c0.9,7.1,5.7,13.4,12.8,15.9c7.9,2.8,16.3,0.1,21.3-5.9
		c1.5,6.3,5.9,11.8,12.5,14.1c10.1,3.5,21.2-1.8,24.8-11.9c0.1-0.3,0.1-0.6,0.3-0.7c2.2,3.7,5.7,6.5,10,8.1
		c10.1,3.5,21.2-1.8,24.8-11.9c1.5-4.3,1.5-8.7,0-12.6c9.6,2.2,19.5-2.9,22.8-12.5c2.5-7.2,0.6-15-4.6-20.1
		c4.1-2.2,7.3-5.9,9.1-10.6c2.5-6.9,0.7-14.4-4-19.4c2.6-2.2,4.7-5,5.9-8.5c3.5-10.1-1.8-21.2-11.9-24.8c-4.6-1.6-9.4-1.3-13.5,0.3
		c0.9-1.3,1.6-2.8,2.2-4.3c3.5-10.1-1.8-21.2-11.9-24.8c-6.2-2.2-12.8-1-17.8,2.5c0.7-8.7-4.4-16.9-12.9-20
		c-7.2-2.5-14.8-0.6-19.8,4.4c-0.9-7.1-5.7-13.4-12.8-15.9s-14.4-0.7-19.5,4c-1-6.9-5.7-12.9-12.8-15.4c-9.7-3.4-20.4,1.3-24.4,10.7
		c-2.2-3.7-5.7-6.6-10.1-8.1c-10.1-3.5-21.2,1.8-24.8,11.9c-0.1,0.6-0.4,1.2-0.6,1.8c-1.9-1.9-4.4-3.5-7.2-4.6
		c-10.1-3.5-21.2,1.8-24.8,11.9c-1.5,4.1-1.5,8.2-0.3,12c-7.1,0.9-13.5,5.6-16,12.8c-1.9,5.6-1.2,11.3,1.5,16.2
		C270.5,630.5,266.4,634.6,264.4,640.2z"/>
	<path style="fill:#748732;" d="M352.7,625.3c-2.5,4.4-1.3,9.8,2.4,13.2c-3.2,0.4-6.3,2.4-8.1,5.4c-2.8,5.1-0.9,11.8,4.3,14.5
		c3.2,1.8,6.8,1.8,9.8,0.3c0.9,2.1,2.5,3.8,4.7,5c2.4,1.3,4.8,1.6,7.2,1c-1.5,4.8,0.4,10.1,5.1,12.6c3.5,1.9,7.6,1.6,10.9-0.3
		c-0.1,4,1.9,7.8,5.6,9.7c3.7,2.1,7.9,1.6,11.2-0.6c-0.1,4,1.9,7.8,5.6,9.7c4,2.2,8.8,1.5,12-1.3c0.1,3.5,2.2,6.9,5.6,8.8
		c5.1,2.8,11.8,0.9,14.5-4.3c0.1-0.1,0.1-0.3,0.1-0.4c0.9,2.2,2.5,4.1,4.7,5.3c5.1,2.8,11.8,0.9,14.5-4.3c1.2-2.2,1.5-4.6,1.2-6.9
		c5,2.1,10.9,0.1,13.5-4.7c2.1-3.7,1.6-8.1-0.7-11.3c2.5-0.9,4.6-2.5,5.9-5c1.9-3.5,1.6-7.8-0.3-10.9c1.6-0.9,2.9-2.4,4-4.1
		c2.8-5.1,0.9-11.8-4.3-14.5c-2.4-1.3-5-1.6-7.3-1c0.6-0.6,1.2-1.3,1.6-2.1c2.8-5.1,0.9-11.8-4.3-14.5c-3.2-1.8-6.9-1.8-9.8-0.1
		c1.2-4.6-0.9-9.6-5.3-12c-3.7-2.1-7.9-1.6-11.2,0.6c0.1-4-1.9-7.8-5.6-9.7c-3.5-1.9-7.8-1.6-11,0.4c0-3.8-1.9-7.5-5.6-9.6
		c-5-2.8-11.2-1-14.3,3.7c-0.9-2.2-2.5-4.1-4.7-5.3c-5.1-2.8-11.8-0.9-14.5,4.3c-0.1,0.3-0.3,0.6-0.4,0.9c-0.9-1.2-2.1-2.4-3.5-3.1
		c-5.1-2.8-11.8-0.9-14.5,4.3c-1.2,2.1-1.5,4.4-1.2,6.6c-4-0.1-7.8,1.9-9.8,5.6c-1.6,2.8-1.6,6-0.6,9
		C356.9,620.6,354.3,622.5,352.7,625.3z"/>
	<path style="fill:#67792B;" d="M439.7,645.3c-3.7,2.5-5,7.1-3.5,11c-2.6-1-5.9-0.7-8.4,1c-4.3,2.8-5.4,8.7-2.5,12.9
		c1.8,2.6,4.6,4,7.5,4.1c-0.1,1.9,0.3,4,1.6,5.7c1.3,1.9,3.1,3.1,5.1,3.7c-3.1,3.1-3.7,7.9-1.2,11.8c1.9,2.9,5.1,4.3,8.4,4.1
		c-1.6,2.9-1.6,6.8,0.4,9.7c2.1,2.9,5.4,4.4,8.8,4c-1.6,2.9-1.6,6.8,0.4,9.7c2.2,3.2,6.2,4.7,9.8,3.8c-1.3,2.8-1,6.2,0.7,9
		c2.8,4.3,8.7,5.4,12.9,2.5c0.1-0.1,0.1-0.1,0.3-0.3c-0.1,2.1,0.3,4.1,1.6,5.9c2.8,4.3,8.7,5.4,12.9,2.5c1.8-1.2,2.9-2.9,3.7-4.8
		c2.9,3.5,8.4,4.4,12.3,1.8c3.1-2.1,4.4-5.6,4-9c2.2,0.3,4.6-0.1,6.5-1.5c2.9-1.9,4.4-5.3,4.1-8.5c1.6-0.1,3.2-0.6,4.7-1.6
		c4.3-2.8,5.4-8.7,2.5-12.9c-1.3-1.9-3.2-3.2-5.3-3.8c0.7-0.3,1.3-0.6,2.1-1c4.3-2.8,5.3-8.7,2.5-12.9c-1.8-2.6-4.6-4-7.5-4.1
		c2.8-3.1,3.2-7.8,0.7-11.3c-2.1-2.9-5.4-4.4-8.8-4c1.6-2.9,1.6-6.8-0.4-9.7c-1.9-2.9-5.3-4.4-8.7-4c1.6-2.9,1.5-6.6-0.4-9.6
		c-2.8-4.1-8.2-5.3-12.3-2.8c0.1-2.1-0.3-4.1-1.6-6c-2.8-4.3-8.7-5.4-12.9-2.5c-0.3,0.1-0.4,0.3-0.7,0.6c-0.1-1.3-0.7-2.6-1.5-3.8
		c-2.9-4.3-8.7-5.4-12.9-2.5c-1.8,1.2-2.9,2.8-3.5,4.6c-2.9-1.8-6.8-1.8-9.8,0.3c-2.4,1.6-3.7,4-4,6.6
		C444.8,643.4,442,643.7,439.7,645.3z"/>
	<path style="fill:#6D7F2F;" d="M251.9,652.4c-0.1,5.1,3.2,9.4,7.9,10.7c-2.8,1.9-4.6,5-4.7,8.5c-0.1,5.9,4.4,10.9,10.3,11
		c3.7,0.1,6.9-1.6,8.8-4.3c1.8,1.5,4,2.4,6.5,2.4c2.6,0.1,5-0.7,7.1-2.4c0.7,5,5,8.8,10.1,9c4,0.1,7.6-1.9,9.6-5.1
		c1.6,3.5,5.1,6,9.4,6.2c4.1,0.1,7.9-2.1,9.7-5.6c1.6,3.5,5.1,6,9.4,6.2c4.6,0.1,8.5-2.6,10.3-6.6c1.8,3.1,5.1,5.3,9,5.4
		c5.9,0.1,10.9-4.4,11-10.3c0-0.1,0-0.3,0-0.4c1.8,1.5,4.1,2.5,6.6,2.6c5.9,0.1,10.9-4.4,11-10.3c0.1-2.5-0.7-4.8-2.1-6.6
		c5.4-0.4,9.7-4.8,10-10.3c0.1-4.3-2.2-7.9-5.7-9.8c1.8-1.9,2.9-4.3,2.9-7.1c0.1-4.1-2.1-7.6-5.3-9.6c1-1.6,1.6-3.4,1.8-5.4
		c0.1-5.9-4.4-10.9-10.3-11c-2.6-0.1-5.1,0.7-7.1,2.4c0.3-0.9,0.4-1.8,0.4-2.6c0.1-5.9-4.4-10.9-10.3-11c-3.7-0.1-6.9,1.6-9,4.3
		c-1-4.7-5.1-8.2-10.1-8.4c-4.1-0.1-7.9,2.1-9.7,5.6c-1.6-3.5-5.1-6-9.4-6.2c-4.1-0.1-7.8,2.1-9.7,5.3c-1.8-3.4-5.1-5.9-9.3-6
		c-5.7-0.1-10.4,4.1-11,9.7c-1.8-1.6-4.1-2.5-6.6-2.6c-5.9-0.1-10.9,4.4-11,10.3c0,0.3,0,0.7,0,1c-1.3-0.7-2.9-1.2-4.6-1.2
		c-5.9-0.1-10.9,4.4-11,10.3c-0.1,2.4,0.6,4.6,1.9,6.5c-3.5,1.6-6.2,5.1-6.3,9.4c-0.1,3.2,1.2,6.2,3.4,8.2
		C253.5,646.3,251.9,649.1,251.9,652.4z"/>
	<g>
		<g>
			<path style="fill:#E1E78D;" d="M463.8,662.2l-38.2,27l-4.8-42.2l-9.3-3.2l-2.6,48.6l-42,41.4l24.8-71l-9.3-3.2l-62,176.8
				c44.5,18.2,51.3-16,51.3-16c31-84.5,78.2-92.7,78.2-92.7l45.8-7.3l-0.4-17.2l-64.7,11.3l41.7-42.8L463.8,662.2z"/>
			<path style="fill:#D1D3D4;" d="M378.3,789.5c4-9.1,6.2-19.3,7.2-29.1c0.7-8.5,0.4-17.8,3.1-25.9c5.1-16,16-22.9,30.6-30.4
				c13.7-7.1,28.7-13.5,39.5-24.7c3.8-4,6.9-8.2,9.1-12.8l4.6,5.1l-41.9,42.8l64.7-11.3l0.6,17.2l-45.7,7.5c0,0-47.3,8.2-78.2,92.7
				c0,0-5,25.3-34.8,20.7C355.3,826.1,370.5,807.3,378.3,789.5z"/>
		</g>
		<g>
			<path style="fill:#E1E78D;" d="M325.8,613.7l12.9,45l30.1-30l9.3,3.2l-28.4,39.7l6.9,58.6l24.8-71l9.3,3.2l-61.9,176.9
				c-46.1-13.5-30.1-44.5-30.1-44.5c28.7-85.2-3.1-121.2-3.1-121.2l-31-34.4l11.2-13.1l43.5,49.2l-5.9-59.5L325.8,613.7z"/>
			<path style="fill:#D1D3D4;" d="M313.2,766.5c2.6-9.7,7.2-18.8,12.6-27.2c4.7-7.1,10.7-14.1,13.8-22c6-15.7,1.8-27.9-4.8-42.8
				c-6.3-14-13.8-28.4-15.4-43.9c-0.6-5.4-0.3-10.7,0.9-15.7l-6.8,1.2l5.9,59.5l-43.6-49.2l-11.2,13.1l31,34.4
				c0,0,31.7,36,3.1,121.2c0,0-11.9,22.9,14.3,37.9C308,809.5,308,785.4,313.2,766.5z"/>
		</g>
	</g>
	<path style="fill:#BFC579;" d="M327.7,839.3c0,0,52.9-37.6,47-89.2c0,0-11.8-26.2-39.1-13.7c0,0-24.8,14.7-16.6,99.9"/>
	<path style="fill:#E1E78D;" d="M326.2,838.7c0,0,38.5-36.3,38.4-80.4c0,0-6-21.6-25.3-9c0,0-17.9,14.5-18.7,87.3"/>
</g>
</svg>
