<?xml version="1.0" encoding="utf-8"?>
<!-- Generator: Adobe Illustrator 23.1.0, SVG Export Plug-In . SVG Version: 6.00 Build 0)  -->
<svg version="1.1" id="Isolation_Mode" xmlns="http://www.w3.org/2000/svg" xmlns:xlink="http://www.w3.org/1999/xlink" x="0px"
	 y="0px" viewBox="0 0 204.5 858" style="enable-background:new 0 0 204.5 858;" xml:space="preserve">
<line style="fill:none;stroke:#414042;stroke-width:2;stroke-miterlimit:10;" x1="116.8" y1="0" x2="116.8" y2="396.9"/>
<g>
	<path style="fill:none;stroke:#414042;stroke-width:2;stroke-miterlimit:10;" d="M119.6,306.5c0,0,69.8-16.9,51-44.2
		c-14.5-21-36.9-10.3-42.3,4.7C122.9,282,119.6,306.5,119.6,306.5z"/>
	<path style="fill:none;stroke:#414042;stroke-width:2;stroke-miterlimit:10;" d="M119.4,306.2c0,0,20.3,10,12.6,23.6
		c-7.6,13.7-17.5,20.6,1.8,21.7s36.7-14.4,41.7,0"/>
	<path style="fill:none;stroke:#414042;stroke-width:2;stroke-miterlimit:10;" d="M119.4,306.5c0,0-69.8-16.9-51-44.2
		c14.5-21,36.9-10.3,42.3,4.7C116,282,119.4,306.5,119.4,306.5z"/>
	<path style="fill:none;stroke:#414042;stroke-width:2;stroke-miterlimit:10;" d="M115.7,308.6"/>
	<path style="fill:none;stroke:#414042;stroke-width:2;stroke-miterlimit:10;" d="M119.4,306.2c0,0-8.8,7.8-10.6,20.6
		s-26,19.7-39.7,15.4"/>
	<path style="fill:none;stroke:#414042;stroke-width:2;stroke-miterlimit:10;" d="M119.4,306.2c0,0,11,6.8,4.8,25.4
		c-2.9,9.1,12.2,14.1,31.4,7.9c19.1-6,14.2-8.4,27.8,1.5"/>
	<path style="fill:none;stroke:#414042;stroke-width:2;stroke-miterlimit:10;" d="M119.4,306.2c0,0,0.3,5.1-2.3,13.5
		s-17.5,8.7-26.1,11.2c-9.8,2.8-16.6,14.4-16.6,20.9"/>
</g>
<g>
	
		<linearGradient id="SVGID_1_" gradientUnits="userSpaceOnUse" x1="8582.0127" y1="-1796.588" x2="8580.4033" y2="-1884.0148" gradientTransform="matrix(-1 0 0 1 8696.6445 2493.6641)">
		<stop  offset="0" style="stop-color:#939598"/>
		<stop  offset="6.932499e-02" style="stop-color:#A1A3A6"/>
		<stop  offset="0.262" style="stop-color:#C6C8CA"/>
		<stop  offset="0.4109" style="stop-color:#DEDFE0"/>
		<stop  offset="0.497" style="stop-color:#E6E7E8"/>
		<stop  offset="0.5965" style="stop-color:#D6D7D9"/>
		<stop  offset="0.7988" style="stop-color:#ACAEB0"/>
		<stop  offset="1" style="stop-color:#808285"/>
	</linearGradient>
	<path style="fill:url(#SVGID_1_);" d="M92.4,732.2c0,1.6,0.7,3.2,2.2,3.2s1.8-1.9,1.8-3.2l2.5-85.6h5.4l2.1,85.6
		c0,1.6,0.7,3.2,2.2,3.2s1.8-1.9,1.8-3.2l2.5-85.6h5.4l2.1,85.6c0,1.6,0.6,3.2,2.2,3.2c1.5,0,1.8-1.9,1.8-3.2l2.5-85.6h5.7l2.1,85.6
		c0,1.6,0.7,3.2,2.2,3.2s1.8-1.9,1.8-3.2l2.5-85.6v-25.3c0-2.2,0-3.4-1.3-5c-3.1-4-14.2-14.1-14.2-14.1l0,0c-3.5-3.8-6.2-9-5.6-16.2
		c2.8-35.7,10.4-118.5,13.7-177.7c0.3-5.1,2.5-21.6-17.9-21.6c-22.5,0-18.2,16.2-17.9,21.6c3.2,59.2,10.9,142,13.5,177.7
		c0.6,7.2-2.1,12.2-5.6,16.2c0,0-11.2,10.1-14.2,14.1c-1.3,1.6-1.3,2.9-1.3,5v25.3L92.4,732.2z"/>
	<g style="opacity:0.6;">
		<path style="fill:#6D6E71;" d="M108.1,732.2l-2.1-85.6h-1.8l2.1,85.6c0,1.6,0.7,3.2,2.2,3.2c0.3,0,0.6-0.1,0.7-0.3
			C108.5,734.5,108.1,733.3,108.1,732.2z"/>
		<path style="fill:#6D6E71;" d="M92.4,732.2c0,1.6,0.7,3.2,2.2,3.2c0.3,0,0.6-0.1,0.7-0.3c-0.9-0.6-1.2-1.8-1.2-2.9L92,646.6v-25.3
			c0-2.2,0-3.4,1.3-5c3.1-4,14.2-14.1,14.2-14.1c3.5-3.8,6.2-9,5.6-16.2c-2.8-35.7-10.3-118.5-13.5-177.7
			c-0.3-5.4-4.4-21.1,16.9-21.6c-0.3,0-0.6,0-0.9,0c-22.5,0-18.2,16.2-17.9,21.6c3.2,59.2,10.9,142,13.5,177.7
			c0.6,7.2-2.1,12.2-5.6,16.2c0,0-11.2,10.1-14.2,14.1c-1.3,1.6-1.3,2.9-1.3,5v25.3L92.4,732.2z"/>
		<path style="fill:#6D6E71;" d="M122.2,732.2l-2.1-85.6h-1.7l2.1,85.6c0,1.6,0.6,3.2,2.2,3.2c0.3,0,0.6-0.1,0.7-0.3
			C122.5,734.5,122.2,733.3,122.2,732.2z"/>
		<path style="fill:#6D6E71;" d="M136.4,732.2l-2.1-85.6h-1.8l2.1,85.6c0,1.6,0.7,3.2,2.2,3.2c0.3,0,0.6-0.1,0.7-0.3
			C136.9,734.5,136.4,733.3,136.4,732.2z"/>
	</g>
	<path style="fill:#00B47E;" d="M110.5,573.7h10.6c3.2-40.2,9.8-112.4,12.6-165.4c0.3-5.1,2.5-21.7-17.9-21.7
		c-22.6,0-18.2,16.2-17.9,21.7C100.8,461.3,107.1,533.3,110.5,573.7z"/>
	<path style="opacity:0.5;enable-background:new    ;" d="M97.8,408.3c2.9,53,9.3,125,12.6,165.4h3.2
		c-3.4-40.7-9.5-110.9-12.3-162.9c-0.3-5.6-4.7-21.7,17.9-21.7c4.4,0,7.6,0.7,10.1,2.1c-2.6-2.6-6.9-4.4-13.7-4.4
		C93.1,386.6,97.5,402.7,97.8,408.3z"/>
</g>
<g>
	
		<rect x="88.2" y="728.7" transform="matrix(0.4091 -0.9125 0.9125 0.4091 -634.4143 534.4991)" style="fill:#449240;" width="14.5" height="56.8"/>
	<path style="fill:#579C43;" d="M97.1,798.1c0,0-27.8-42.2-55.2-56.4l9.4-18.2c0,0,37,18.2,77.4,7.5c0,0,2.1,9.3-0.7,11.2
		c-17.6,11.9-56.1,3.8-56.1,3.8s30.8,25,32.3,42.9C104.4,792.5,97.1,798.1,97.1,798.1z"/>
	<path style="fill:#C6D291;" d="M113.2,740.7c-4.4,0-8.8-0.1-13.2-0.4c-4.7-0.3-9.4-0.6-14.1-1.2c-8.4-1.2-16.9-3.4-25.4-3.5
		c-3.5,0-7.3,0.3-10.3,2.5c-1.5,1-2.8,2.5-3.5,4.1c-0.3,0.7-0.4,1.5-0.7,2.1c-1.5-0.9-2.8-1.8-4.3-2.5l9.4-18.2
		c0,0,37,18.2,77.4,7.5c0,0,0.9,4.3,0.6,7.6C124.1,739.7,118.7,740.5,113.2,740.7z"/>
	<path style="fill:#8DC63F;" d="M177.7,726.3c11.2,5.7,15.9,19.2,11,30.5c3.2,6.9,3.4,15.3-0.4,22.6c0,0,0,0.1-0.1,0.1
		c6.9,7.2,8.8,18.2,4,27.5c-4.4,8.5-13.2,13.2-22.2,12.9c-4.4,7.2-12,11.5-20.1,11.6c-6.6,10.3-20,14-31,8.2
		c-7.2-3.7-11.6-10.4-12.6-17.9c-3.4-0.1-6.9-1-10.1-2.6c-11.9-6.2-16.6-20.9-10.4-32.8c3.7-7,10.1-11.5,17.3-12.8
		c-0.3-4.4,0.4-9,2.6-13.1c2.2-4.3,5.4-7.5,9.3-9.7c-3.1-6.6-3.2-14.5,0.4-21.4c6.2-11.9,20.9-16.6,32.8-10.4c3.4,1.8,6.2,4.1,8.2,7
		C162.7,722.9,170.7,722.8,177.7,726.3z"/>
	<path style="fill:#FFFFFF;" d="M118.4,821c0.7-3.2,2.1-6.6,4-9.3c3.8-5.6,10.3-7.9,16.7-8.7c3.4-0.3,6.8-0.1,10.1-0.3
		c3.4-0.1,6.5-0.9,9.4-2.5c3.4-1.8,6.6-3.7,10.4-3.4c3.7,0.3,7.3,1.5,10.4,3.4c1.5,0.9,2.8,2.1,3.7,3.2c-4.1,5.1-10.4,7.9-16.7,7.6
		c-3.8,6.2-10.4,9.8-17.2,10c-5.7,8.8-17.2,12-26.6,7c-1.8-0.9-3.4-2.1-4.7-3.4C117.8,823.7,118.1,822.3,118.4,821z"/>
	<path style="fill:#C6D291;" d="M177.7,726.3c11.2,5.7,15.9,19.2,11,30.5c1.2,2.5,1.9,5.1,2.3,7.9c-0.9-1-1.6-1.9-2.5-2.9
		c-2.8-3.4-5.3-7-7.8-10.7c-2.1-2.8-4.6-5.4-8.1-6.3c-4-1-8.1-0.9-12.2-0.9c-2.6,0-5-0.1-7.5-1.5c-1.9-0.9-3.7-2.1-5.4-2.8
		c-1.9-0.9-4.4-1.8-6.6-0.9c-1.8,0.7-3.1,2.3-4.1,4c-1.8,2.8-2.9,6-5.3,8.4c-2.5,2.5-5.7,4.3-8.4,6.6c-2.8,2.4-4.7,5.4-5.1,9
		c-0.4,3.7-0.3,7.5-1.9,11c-3.1,6.3-9.4,10-14.2,14.7c-4.7,4.7-7.8,10.7-5.7,17.5c0.6,1.8,1.5,3.5,2.5,5.1c1,1.5,2.3,2.6,3.4,4.1
		c0.6,0.9,1,1.8,1.5,2.8c-2.5-0.4-5.1-1.2-7.5-2.5c-11.9-6.2-16.6-20.9-10.4-32.8c3.7-7,10.1-11.5,17.3-12.8
		c-0.3-4.4,0.4-9,2.6-13.1c2.2-4.3,5.4-7.5,9.3-9.7c-3.1-6.6-3.2-14.5,0.4-21.4c6.2-11.9,20.9-16.6,32.8-10.4c3.4,1.8,6.2,4.1,8.2,7
		C162.7,722.9,170.7,722.8,177.7,726.3z"/>
</g>
<g>
	<path style="fill:#64AF53;" d="M81.8,832.6c-37,0-67-30-67-67s30-67,67-67s67,30,67,67C148.8,802.5,118.8,832.6,81.8,832.6z"/>
	<path style="fill:#95CA57;" d="M81.8,824.7c-32.6,0-59.2-26.4-59.2-59.2c0-32.6,26.4-59.2,59.2-59.2c32.6,0,59.2,26.4,59.2,59.2
		C140.9,798.1,114.4,824.7,81.8,824.7z"/>
	<path style="fill:#C6E1A6;" d="M81.8,819.3c-29.7,0-53.8-24.1-53.8-53.8s24.1-53.8,53.8-53.8s53.8,24.1,53.8,53.8
		S111.5,819.3,81.8,819.3z"/>
	<path style="fill:#E6E7E8;" d="M87,818.7C63.1,807.1,56,772,68.8,750c6.8-11.6,18.7-21.9,31.9-25c5.3-1.2,10.6-1.3,15.7-0.6
		c-9.4-7.9-21.4-12.8-34.7-12.8c-29.7,0-53.8,24.1-53.8,53.8s24.1,53.8,53.8,53.8c2.1,0,4-0.1,6-0.3C87.4,818.8,87.2,818.7,87,818.7
		z"/>
	<path style="opacity:0.5;fill:#FFFFFF;enable-background:new    ;" d="M84.6,761c-6.6,14-2.1,37.5,14.2,41.9
		c6.8,1.9,14.1,1.6,21.3,0.3c9.4-9.5,15.1-22.6,15.3-37c-1-6.3-3.5-12.2-8.4-16.4c-6-5.3-15-8.2-22.8-5.7
		C96.1,746.6,88.4,753,84.6,761z"/>
	<g>
		<path style="fill:#95CA57;" d="M81.8,794.4c-16,0-28.9-12.9-28.9-28.9s12.9-28.9,28.9-28.9s28.9,12.9,28.9,28.9
			C110.7,781.5,97.7,794.4,81.8,794.4z"/>
		<path style="fill:#E6E7E8;" d="M75.5,774.5c-6.3-7.5-9-18.5-6.2-27.9c1-3.4,2.5-6.3,4.6-8.8c-12.2,3.4-21.1,14.5-21.1,27.9
			c0,16,12.9,28.9,28.9,28.9c10.1,0,19.1-5.3,24.2-13.2C95.6,785.2,83.6,784,75.5,774.5z"/>
		<g>
			<g>
				<path style="fill:#FFF9B2;" d="M81.8,770.4c-2.6,0-4.8-2.2-4.8-4.8s2.2-4.8,4.8-4.8s4.8,2.2,4.8,4.8
					C86.5,768.1,84.5,770.4,81.8,770.4z"/>
				<g>
					<path style="fill:#FFF9B2;" d="M83.4,763.9l12.8-5.7c0,0,4.1-2.9,5.7,2.9c0,0,2.6,7.2-1.9,14.4c0,0-1.5,2.9-5,0l-11.5-8.4
						L83.4,763.9L83.4,763.9z"/>
					<path style="fill:#FFF9B2;" d="M83.3,767.1l5.7,12.8c0,0,2.9,4.1-2.9,5.7c0,0-7.2,2.6-14.4-1.9c0,0-2.9-1.5,0-5l8.4-11.5
						L83.3,767.1L83.3,767.1z"/>
					<path style="fill:#FFF9B2;" d="M83.3,764l5.7-12.8c0,0,2.9-4.1-2.9-5.7c0,0-7.2-2.6-14.4,1.9c0,0-2.9,1.5,0,5l8.4,11.5
						L83.3,764L83.3,764z"/>
					<path style="fill:#FFF9B2;" d="M80,763.9l-12.8-5.7c0,0-4.1-2.9-5.7,2.9c0,0-2.6,7.2,1.9,14.4c0,0,1.5,2.9,5,0l11.5-8.4
						L80,763.9L80,763.9z"/>
				</g>
			</g>
			<path style="fill:#D1D3D4;" d="M86.1,785.5c5.7-1.6,2.9-5.7,2.9-5.7l-3.7-8.2c-2.3-2.9-0.6-6.9,2.8-8.2c4.1-1.5,9.3-1.2,12.8,1.8
				c0.7,0.6,1.3,1.5,1.9,2.2c0.3-3.7-0.7-6.5-0.7-6.5c-1.6-5.7-5.7-2.9-5.7-2.9L86,762.7l-0.1-0.1c-0.3,0-0.6,0.1-1,0.1
				c-1.6,0-3.1-0.7-4.1-2.1c-2.9-2.5-3.8-7.8-2.6-11.3c0.6-2.1,1.8-3.7,3.2-4.7c-2.6,0-6,0.6-9.4,2.6c0,0-2.9,1.5,0,5l6.9,9.4
				c-0.3,0.3-0.6,0.6-0.9,0.9l-10.4-4.7c0,0-4.1-2.9-5.7,2.9c0,0-2.1,5.7,0.7,12.2c2.6-6.5,7.9-12.8,15.1-10.3
				c1.5,0.1,2.8,0.9,3.8,2.3c2.2,3.5,2.6,9,2.2,13.2c0,1.3-0.1,2.6-0.6,3.8c-0.3,0.6-0.4,1.3-0.9,1.9c-0.3,0.7-0.6,1.3-1,1.9
				C84,786.4,86.1,785.5,86.1,785.5z"/>
			<path style="fill:#FFFFFF;" d="M83.3,756.7c-1.8,0-3.2-2.2-3.2-4.8s1.5-4.8,3.2-4.8c1.8,0,3.2,2.2,3.2,4.8S85,756.7,83.3,756.7z"
				/>
			<path style="fill:#FFFFFF;" d="M99.6,770.5c-0.4,1.8-2.9,2.5-5.6,1.8s-4.3-2.8-3.8-4.4c0.4-1.8,2.9-2.5,5.6-1.8
				C98.4,766.7,100,768.7,99.6,770.5z"/>
			<path style="fill:#FFFFFF;" d="M76.5,784.2c-1.8-0.4-2.5-2.9-1.8-5.6c0.7-2.6,2.8-4.3,4.4-3.8c1.8,0.4,2.5,2.9,1.8,5.6
				C80.2,783,78.3,784.7,76.5,784.2z"/>
			<path style="fill:#FFFFFF;" d="M67.6,773c-1.5-1-1.3-3.7,0.3-5.9s4-3.1,5.4-2.1c1.5,1,1.3,3.7-0.3,5.9
				C71.5,773.1,69,774,67.6,773z"/>
		</g>
	</g>
</g>
</svg>
