<?xml version="1.0" encoding="utf-8"?>
<!-- Generator: Adobe Illustrator 23.1.0, SVG Export Plug-In . SVG Version: 6.00 Build 0)  -->
<svg version="1.1" id="Isolation_Mode" xmlns="http://www.w3.org/2000/svg" xmlns:xlink="http://www.w3.org/1999/xlink" x="0px"
	 y="0px" viewBox="0 0 680.2 811.1" style="enable-background:new 0 0 680.2 811.1;" xml:space="preserve">
<g>
	<path style="fill:none;stroke:#010101;stroke-width:1.7008;stroke-linecap:round;stroke-linejoin:round;stroke-miterlimit:10;" d="
		M235.3,546.8c0,0-67.9-19.2-92.7,44"/>
	<path style="fill:none;stroke:#010101;stroke-width:1.7008;stroke-linecap:round;stroke-linejoin:round;stroke-miterlimit:10;" d="
		M319.4,687.6c0,0-21.9,75.8,71.5,99.7"/>
	<g>
		<path style="fill:#68AC44;" d="M126.7,99.5c-2,3.6-3.3,7.6-6.3,10.9c-10.9,11.9-32.5-0.7-45.7,8.3c-12.3,8.3-7.6,27.2-1.3,40.7
			c-14.6,3.3-28.8,10.9-36.1,23.8c-7.3,12.9-5.3,31.5,7,40.1c-9.6,7.3-19.5,14.9-26.2,24.8c-6.6,10.3-8.9,23.8-3.3,34.4
			c4,7,11.3,12.9,10.3,20.9c-0.3,4.6-3.6,8.3-4.6,12.6c-3.6,12.6,13.6,25.2,24.5,18.2c3.3,22.2,12.9,49.3,35.4,51
			c4.3,0.3,9.3-0.3,13.2,1.7c8.3,4.3,7.6,16.9,13.9,23.8c11.9,13.2,36.4-3.6,51.7,6.3c5.3,3.3,8.3,9.3,12.9,13.2
			c18.2,15.2,44-6,67.9-7.3c9.3-0.3,18.5,2.3,27.8,3c33.1,1.7,62.6-34.1,54.6-66.6c15.6-0.3,30.8-10.6,37.1-24.8
			c6.3-14.2,3.6-32.5-6.6-44c22.2-0.3,35.4-33.1,19.5-49c-6.3-6.3-15.9-9.6-20.5-17.2c-10.9-17.9,9.3-47.7-7.6-59.6
			c-4.6-3.3-10.3-3.6-15.2-6.3c-19.2-9.6-16.6-43-36.8-50.3c-9.9-3.6-21.2,1.3-31.1-2.3c-6.6-2.3-11.3-8.3-16.6-12.9
			C224.4,75.6,141.6,73.6,126.7,99.5z"/>
		<path style="opacity:0.4;fill:#68AC44;enable-background:new    ;" d="M80.7,385.6c4.3,0.3,9.3-0.3,13.2,1.7
			c8.3,4.3,7.6,16.9,13.9,23.8c11.9,13.2,36.4-3.6,51.7,6.3c5.3,3.3,8.3,9.3,12.9,13.2c18.2,15.2,44-6,67.9-7.3
			c9.3-0.3,18.5,2.3,27.8,3c33.1,1.7,62.6-34.1,54.6-66.6c15.6-0.3,30.8-10.6,37.1-24.8c6.3-14.2,3.6-32.5-6.6-44
			c19.9-0.3,32.5-26.8,23.5-43.4c-7.6-6.3-16.9-10.9-26.5-13.6c-10.9-3.3-22.8-4.3-33.8-1.7c-5,1.3-9.9,3.3-13.9,6.3
			c-4,2.6-7,8.6-11.3,10.3c-8.3,3.6-23.2-5.6-32.1-6c-7-0.3-15.9,2.6-15.6,9.6c-8.6-2.3-17.9-5-25.8-1c-7.9,3.6-11.3,16.9-3.6,21.2
			c-6.6,1.7-11.9,7-13.2,13.6c-1.7,6.6,1,13.6,6,17.9c0.7,6.3-5.3,12.3-11.6,13.2c-6.3,1-12.9-1.3-18.5-4.3c1,6.3,2.3,12.3,3.3,18.5
			c-5.3,1.3-10.9,1.7-16.6,1c2,5.3,3.6,10.9,2.3,16.2c-1.7,6-7.3,10.6-13.2,12.3c-6,1.7-12.6,1.7-18.9,1.3c7,4.6,5.3,16.6-1.3,20.9
			c-7,4.6-16.6,3-23.2-1.7c-7-4.6-11.6-11.9-15.9-18.9c-12.6,10.6-33.8,7-42.4-7C55.5,370.7,65.1,384.2,80.7,385.6z"/>
		<path style="fill:#68AC44;" d="M416.5,161.1c-2,3.6-3.3,7.6-6.3,10.9c-10.9,11.9-32.5-0.7-45.7,8.3c-12.3,8.3-7.6,27.2-1.3,40.7
			c-14.6,3.3-28.8,10.9-36.1,23.8s-5.3,31.5,7,40.1c-9.6,7.3-19.5,14.9-26.2,24.8c-6.6,10.3-8.9,23.8-3.3,34.4
			c4,7,11.3,12.9,10.3,20.9c-0.3,4.6-3.6,8.3-4.6,12.6c-3.6,12.6,13.6,25.2,24.5,18.2c3.3,22.2,12.9,49.3,35.4,51
			c4.3,0.3,9.3-0.3,13.2,1.7c8.3,4.3,7.6,16.9,13.9,23.8c11.9,13.2,36.4-3.6,51.7,6.3c5.3,3.3,8.3,9.3,12.9,13.2
			c18.2,15.2,44-6,67.9-7.3c9.3-0.3,18.5,2.3,27.8,3c33.1,1.7,62.6-34.1,54.6-66.6c15.6-0.3,30.8-10.6,37.1-24.8s3.6-32.5-6.6-44
			c22.2-0.3,35.4-33.1,19.5-49c-6.3-6.3-15.9-9.6-20.5-17.2c-10.9-17.9,9.3-47.7-7.6-59.6c-4.6-3.3-10.3-3.6-15.2-6.3
			c-19.2-9.6-16.6-43-36.8-50.3c-9.9-3.6-21.2,1.3-31.1-2.3c-6.6-2.3-11.3-8.3-16.6-12.9C514.2,137.2,431,135.2,416.5,161.1z"/>
		<path style="opacity:0.6;fill:#589642;enable-background:new    ;" d="M557.5,455.1c-4.3-2.3-9.3-2.6-13.6-4.6s-7.6-7.9-4.6-11.9
			c-6.6,2-13.2,4.3-19.5,6.3c-4.3,1.3-8.6,2.6-12.9,2c-4.3-0.7-8.3-4.6-7.9-8.9c-7,3-15.2,5-22.2,2.3c-7.3-2.6-12.6-11.3-8.9-18.2
			c1.7-3.3,5-5.3,7-8.3s3-7.6,0-9.9c-8.9,6.3-23.5-1-23.8-11.6c-4.6,5.6-15.2,4.3-18.2-2.3c-5-10.6,8.3-21.5,7.3-33.1
			c-0.7-8.3-10.3-14.2-17.9-11.6c5-1,5-8.9,1.3-12.3c-3.6-3.6-8.9-4.3-13.6-7c-4.6-2.3-8.3-8.3-5.6-12.3c1.7-2.6,5.3-3.3,8.6-4
			c3.3-0.3,6.6-1,8.6-3.3s1-7.3-2.3-7.3c7.6,0,15.6-0.3,21.9-4.6c6.3-4.3,9.3-13.9,4-19.2c7.6,1.7,15.6-6.6,13.6-14.2
			c-0.7-2.6-2.3-5-1.7-7.6c1.7-6.3,13.2-3.6,16.2-9.6c2.3-4.6-3.3-10.3-1-15.2c2-4.6,8.6-4.3,13.2-6c7.3-2.3,11.3-11.6,7.9-18.5
			c-2-4-5.6-7.9-4.3-12.3c2.3-6,14.2-7.9,11.6-13.6c-1.3-2.6-5-3-6.6-5.3c-3.3-3.6,0.7-9.3,4.6-11.9c4.3-2.3,9.6-4,11.6-8.3
			c1.3-3,0.7-5.6-1-8.3c-32.5-6.6-81.8-3-92.7,16.2c-2,3.6-3.3,7.6-6.3,10.9c-10.9,11.9-32.5-0.7-45.7,8.3
			c-12.3,8.3-7.6,27.2-1.3,40.7c-14.6,3.3-28.8,10.9-36.1,23.8s-5.3,31.5,7,40.1c-9.6,7.3-19.5,14.9-26.2,24.8
			c-6.6,10.3-8.9,23.8-3.3,34.4c4,7,11.3,12.9,10.3,21.2c-0.3,4.6-3.6,8.3-4.6,12.6c-3.6,12.6,13.6,25.2,24.5,18.2
			c3.3,22.2,12.9,49.3,35.4,51c4.3,0.3,9.3-0.3,13.2,1.7c8.3,4.3,7.6,16.9,13.9,23.8c11.9,13.2,36.4-3.6,51.7,6.3
			c5.3,3.3,8.3,9.3,12.9,13.2c18.2,15.2,44-6,67.9-7.3c9.3-0.3,18.5,2.3,27.8,3c1.7,0,3.3,0,4.6,0c1.7-3.3,3.3-6.6,4-10.3
			C567.5,469,564.8,459.4,557.5,455.1z"/>
		<path style="fill:#BCBEC0;" d="M383.4,402.8c2.3-9.6,31.1-33.1,31.1-33.1l-41.1-8.9L342.9,335l11.9-60.3L331,286.6
			c-4.6,3.6-9.3,7.3-13.6,11.3l-6.3,55.3c2.3,3.6,4.3,7.3,4,11.6c-0.3,4.6-3.6,8.3-4.6,12.6c-3.6,12.6,13.6,25.2,24.5,18.2
			c3.3,22.2,12.9,49.3,35.4,51c4.3,0.3,8.9-0.3,12.9,1.3C382.4,429,382.4,407.8,383.4,402.8z"/>
		<g>
			<path style="fill:#248A43;" d="M420.1,364.4c-7.6-3-7-6-7.6-13.6c-0.7-7.6,1-10.3-10.9-9.9c-12.3,0-4.6-9.9-4.6-9.9
				c-7.9,5-24.5,18.2-36.4,27.5c-12.6-14.2-29.8-15.2-29.8-15.2s13.2-75.2,39.7-96l-61.6-16.2c0,0-27.2,62.9-24.8,110.3
				c0,0-6.6,0-14.9,3c-8.3-17.2-18.9-30.1-18.9-30.1c-2.3,11.3-10.6-2.3-12.9,7.6c-2.3,9.9-8.6,0.3-14.6,8.9c-4.3,6.3-8.3,5-9.9,4
				c9.3,7,22.8,25.5,29.1,34.8c-1.3,3-2.3,6-3.3,9.6c-9.3,37.7-22.8,235.4-24.5,302.7c0,0,97.7,51,167.2,4.3c0,0-20.9-205-9.9-272.2
				c1-7,1.7-13.2,1.3-18.9C390.3,378.3,426.7,367,420.1,364.4z"/>
			<path style="fill:#248A43;" d="M212.2,334.6c-0.3-0.3-0.7-0.7-1-0.7C211.2,333.6,211.5,333.9,212.2,334.6z"/>
		</g>
		<path style="fill:#1D763B;" d="M380.7,685.9c0,0-16.9-165.2-12.3-247.7c-7,30.8-17.2,81.1-19.5,136.1
			c-2.6,67.9-39.7,107.3-135.4,95.4c0,4.3-0.3,8.3-0.3,11.9C213.5,681.6,311.2,732.6,380.7,685.9z"/>
		<path style="fill:#1D763B;" d="M420.1,364.4c-7.6-3-7-6-7.6-13.6c-0.7-7.6,1-10.3-10.9-9.9c-12.3,0-4.6-9.9-4.6-9.9
			c-7.9,5-24.5,18.2-36.4,27.5c-12.6-14.2-29.8-15.2-29.8-15.2s12.3-70.2,37.1-93.7c-1.7-1.3-3.3-3-5-4.3l-54.4-14.4
			c0,0-11.3,26.2-18.5,57.3c6.3,4,13.2,6,20.9,3c2-0.7,4-1.7,6-1.3c4.6,1,4.3,8.6,8.6,11.3c2,1,4.6,1.3,5.3,3.3c0.3,1.3,0,2.6-0.7,4
			c-5.6,11.9-9.6,24.8-11.9,37.7c0,1-0.3,2,0,2.6c0.7,1,2,1.7,3.3,2c8.9,2.3,17.2,8.3,22.5,15.9c1,1.3,2,3,3.6,3.6
			c2,1,4.6-0.3,6.6-1.3c11.3-6,21.9-12.9,31.5-21.5c-3,2.3,0.7,7.6,4.6,8.3c4,0.7,8.6-0.3,11.6,2.3c3.3,3,2.6,8.3,2,12.6
			c0,1.3,0,3,0,4.3C415.1,369.7,423.4,365.7,420.1,364.4z"/>
		<path style="fill:#5F9E43;" d="M290,27.3c-1.7,3-2.6,6.3-5,8.6c-8.6,9.3-25.8-0.7-36.4,6.6c-9.6,6.6-6,21.5-1,32.5
			c-11.6,2.6-22.8,8.6-28.5,18.9c-5.6,10.3-4.3,24.8,5.3,31.8c-7.6,5.6-15.6,11.6-20.5,19.9c-5.3,7.9-7.3,18.9-2.6,27.2
			c3,5.6,8.9,10.3,8.3,16.6c-0.3,3.6-2.6,6.6-3.6,9.9c-3,9.9,10.6,20.2,19.5,14.2c2.6,17.6,10.3,39.1,28.1,40.4
			c3.6,0.3,7.3-0.3,10.6,1.3c6.6,3.3,6,13.2,10.9,18.9c9.6,10.6,28.8-3,40.7,5c4,2.6,6.3,7.3,10.3,10.6c14.2,12.3,35.1-5,53.6-5.6
			c7.3-0.3,14.6,2,21.9,2.3c26.5,1.3,49.7-27.2,43.4-52.7c12.6-0.3,24.5-8.3,29.5-19.9c5-11.3,3-25.5-5.3-35.1
			c17.6-0.3,28.1-26.2,15.6-38.7c-5-5-12.6-7.6-16.2-13.9c-8.6-14.2,7.6-37.7-6.3-47.4c-3.6-2.6-8.3-3-12.3-5
			c-15.2-7.6-13.2-34.1-29.1-39.7c-7.9-2.6-16.9,1-24.5-2c-5.3-2-8.9-6.6-12.9-10.3C367.1,8.4,301.6,6.8,290,27.3z"/>
		<path style="fill:#4C803B;" d="M203.9,145.2c-5.3,7.9-7.3,18.9-2.6,27.2c3,5.6,8.9,10.3,8.3,16.6c-0.3,3.6-2.6,6.6-3.6,9.9
			c-3,9.9,10.6,20.2,19.5,14.2c2.6,17.6,10.3,39.1,28.1,40.4c3.6,0.3,7.3-0.3,10.6,1.3c6.6,3.3,6,13.2,10.9,18.9
			c9.6,10.6,28.8-3,40.7,5c4,2.6,6.3,7.3,10.3,10.6c14.2,12.3,35.1-5,53.6-5.6c7.3-0.3,14.6,2,21.9,2.3
			c26.5,1.3,49.7-27.2,43.4-52.7c12.6-0.3,24.5-8.3,29.5-19.9c5-11.3,3-25.5-5.3-35.1c12.6-0.3,21.5-13.6,20.9-25.8
			c-9.6,6.3-23.2,7.3-31.1-1c0.7,7.3,1.3,14.9-2,21.2s-12.3,10.6-17.9,6.3c6.6,5.6,8.3,16.2,4,23.8s-14.2,11.3-22.5,8.6
			c7.9,7.6,4,23.5-6.3,26.8c-10.6,3.3-22.5-7.6-20.2-18.5c-0.3,7.3-8.9,12.3-16.2,11.3s-13.6-5.6-19.5-10.3
			c1.7,7.9-6,15.6-13.9,17.6c-7.9,1.7-16.2-0.7-24.2-3.3c-4.3,6.6-12.6,10.6-20.5,9.3s-14.6-7.9-16.2-15.6c-2,5-10.3,3.6-13.2-1
			c-2.6-4.6-1.7-10.6-0.3-15.9c-5,0-9.9,0-14.9-0.3c2.6-5.6,3-12.3,1.7-18.5c-5.3,2.6-12.3,1.7-16.6-2.6s-5.3-11.3-3-16.6
			c-8.3,1-14.6-8.6-13.6-16.9s6.6-15.2,12.3-21.5c-7.3-0.3-11.9-3-14.9-7.3C214.1,133.2,208.2,138.5,203.9,145.2z"/>
		<path style="fill:#7BBC46;" d="M307.2,28.3c-6.6,2.3-10.3,12.3-4.3,16.2c-5.6-1.3-12.6-1-16.6,3.3s-2,13.2,4,13.6
			c-6,0.7-12.3,1.7-17.6,5c-5.3,3.3-9.3,9.3-7.9,15.2c1.7,7.6,11.3,11.6,18.5,9.3c7.6-2.3,12.6-8.9,16.2-16.2c2,5,8.6,7.3,13.9,6.3
			s9.9-4.6,14.2-7.9c-1.7,2-0.7,5.3,1.3,7s4.6,2,7.3,2.3c13.9,0.7,27.8-6.3,35.8-17.9c3.6,2,1.7,7.6,2,11.6c0.7,5,6,8.3,10.9,8.6
			s9.6-1.7,14.2-3.6c-4.6,3.6-5.6,11.3-2.6,16.6c2.6,5.3,8.6,8.6,14.6,9.6c5.6,0.7,11.6-0.3,15.6-4.3c4-3.6,5.6-10.3,2.6-15.2
			c-3-4.6-10.3-6.3-14.2-2.3c7.3-5,7.6-16.9,0.7-22.2c-6.6-5.3-18.2-2.3-21.5,5.6c0.3-10.3-6.6-20.2-16.2-23.5s-21.2,0.3-27.2,8.6
			c-7.3-4-16.9-2.6-22.8,2.6c3.3-3.3,7-6.3,9.6-9.6c3-3.6,5.3-7.9,5-12.6c0-4.6-3.3-9.3-7.9-9.9c-4.6-0.7-7.9,3-8.6,7.3
			C319.8,30.3,314.1,26.3,307.2,28.3z"/>
		<path style="fill:#7BBC46;" d="M144.9,103.8c-4.3,2-8.9,5-10.6,9.6s0.3,10.9,5.3,11.6c-8.6,1.7-16.9,6.3-22.5,12.9
			c-1.7,2-3.6,4.6-3.6,7.3c-0.3,2.6,1.3,6,4,6.3c-5.6,2-11.6,4.3-15.9,8.3s-7.3,10.6-5,16.2c1,2.6,3,4.6,4.3,7.3
			c-8.9,0-17.9-0.3-26.8-0.3c-3.3,0-6.3,0-9.6,0.7c-9.6,2.3-15.9,13.6-12.9,23.2c3,9.3,14.6,14.9,23.8,11.6
			c-4.3,7-8.9,13.9-13.2,20.9c-2,3.3-4.3,7-3,10.6c1.7,4.3,7,5.3,11.3,6c0.7,6.3,7.6,9.6,13.9,10.3c8.9,1,18.2-1.7,24.8-7.6
			s10.6-15.2,9.3-23.8c-1.3-8.9-7.6-16.9-16.2-19.5c8.3,1.7,17.2,3,24.5-1c10.3-5.3,14.2-20.2,7.6-29.8c8.3,1,16.2-5.6,19.2-13.6
			c2.6-7.9,1.3-16.9-1.3-24.8c4.6-1.3,9.9-0.7,14.2,1.3c2.3,1,4.3,2.6,6.6,3c5.6,1,10.6-4.3,11.3-9.9c0.7-5.6-1.7-11.3-4.6-16.2
			c6.6,4.3,16.2,1.7,20.2-5c2.6-5,2-11.3-1.3-15.6s-7.9-4-12.9-5C172.1,96.2,157.8,97.8,144.9,103.8z"/>
		<path style="fill:#7BBC46;" d="M543.3,188.5c-3.6,2.3-5,7.6-2,10.9c-4.3,0.7-7.9,4.3-8.6,8.6c-0.7,4.3,2,8.9,6,10.6
			c-9.9-1-18.2,8.3-21.9,17.6c-2,5-3,10.9,0,15.2c2.3,3.3,6.6,4.6,10.9,5.6c9.6,2,19.5,2.6,29.1,1.7c-2.3,4-4.6,8.3-5.3,12.9
			c-0.3,4.6,1.3,9.9,5.6,11.9c4,2,9.3,0.3,12.9,3c-3.3,2.3-6.6,5-8.3,8.3c-1.7,3.6-1.3,8.6,2,10.9c3,2,7.3,1.3,10.9,2.6
			c1,6-6.6,8.9-9.9,14.2c-2.6,4-2,9.9,0.7,13.9c2.6,4,7.3,7,11.6,8.6c6,2,12.6,2.6,18.2-0.3c5.6-3,8.6-10.3,6-15.9
			c7.3,3.6,16.9,2.3,22.8-3.3c6-5.6,7.9-15.2,4-22.5c-4-7.3-13.2-11.3-20.9-8.6c3.6-5.6,2.3-13.6-1.7-19.2s-10.3-8.9-16.9-11.3
			c4.3-8.9,1.3-20.5-7-26.2c5,0.3,9.6,1,14.6,1.3c1.3,0,3,0.3,4.3-0.3c2.6-0.7,4-3.3,4.6-5.6c1.7-7.3-4-15.2-11.3-17.9
			c-7.3-2.6-15.2-1-22.5,1.3c6.3-2.3-3-19.2-6-21.5C560.2,190.9,550.2,183.9,543.3,188.5z"/>
		<g>
			<path style="fill:#248A43;" d="M212.2,334.6c-0.3-0.3-0.7-0.7-1-0.7C211.2,333.6,211.5,333.9,212.2,334.6z"/>
		</g>
		<path style="fill:#349946;" d="M237.7,475c-0.7,6.3-1.3,12.9-0.7,19.2c0.3,2,0.7,4.3,2,6s3.6,2.6,5.6,2c2.3-1,3-4,3.3-6.3
			c4.3-29.1,8.9-58.6,13.2-87.8c0.3-2,0.7-4,0-6c-2.6-7-11.3-4.3-14.9,0s-3,10.6-3.3,15.9C241.3,436.9,239.3,456.1,237.7,475z"/>
	</g>
	<g>
		<path style="fill:#010101;" d="M276.1,440.2c0.3,3.3,0.3,6.6,0,9.9s-1,6.6-2.6,9.9c-1.3,3.3-4,6.3-7.3,8.3s-7.3,3-10.6,3
			c-2,0-3.6-0.3-5.6-1s-3.6-1.7-5.3-3c-3-2.6-4.6-6.3-5.3-9.9c-1.3-7-0.7-13.6,1-19.9c0.3-1.3,2-2.3,3.3-2s2.3,1.7,2,3v0.3
			c-0.3,2.6-0.7,6-0.7,8.9s0,6,1,8.6c0.7,2.6,1.7,5,3.3,6.3c1,0.7,1.7,1.3,3,1.7c1,0.3,2.3,0.7,3.6,0.3c2.6,0,5.3-0.7,7.3-1.7
			c2-1.3,3.6-3.3,5-5.6s2-5.3,2.3-7.9c0.3-3,0.7-6,0.7-8.6l0,0c0-1.7,1-2.6,2.6-2.6C274.7,437.6,275.7,438.6,276.1,440.2z"/>
		<path style="fill:#010101;" d="M327.1,445.2c-0.7,2.6-1,5.6-1.3,8.6c0,3,0,5.6,0.7,8.3c0.7,2.6,1.7,5,3.6,6.6
			c1.7,1.7,4,2.6,6.6,3.3c1.3,0.3,2.3,0.3,3.6,0.3c1,0,2.3-0.3,3-1c2-1,3.6-3,4.6-5.6c1.3-2.3,2-5.3,2.6-8.3c0.7-3,1-6,1-8.6v-0.3
			c0-1.7,1.3-2.6,3-2.6c1.3,0,2.6,1.3,2.6,2.6c0,6.6-0.7,13.2-3.3,19.9c-1.3,3.3-3.6,6.6-7.3,8.6c-1.7,1-3.6,1.7-5.6,2s-4,0-5.6-0.3
			c-3.6-0.7-7.3-2.3-9.9-5s-4.6-6.3-5.3-9.6c-0.7-3.6-0.7-7-0.7-10.3c0.3-3.3,1-6.6,2-9.9c0.3-1.3,2-2.3,3.3-1.7
			C326.7,442.2,327.4,443.5,327.1,445.2L327.1,445.2z"/>
		<path style="fill:none;stroke:#010101;stroke-linecap:round;stroke-linejoin:round;stroke-miterlimit:10;" d="M271.8,473
			c0,0,20.2,13.6,44,2.6"/>
	</g>
	<path style="fill:none;stroke:#010101;stroke-width:1.7008;stroke-linecap:round;stroke-linejoin:round;stroke-miterlimit:10;" d="
		M302.6,695.2c0,0-102.3-22.8-98.7,95.4"/>
	<path style="fill:none;stroke:#010101;stroke-width:1.7008;stroke-linecap:round;stroke-linejoin:round;stroke-miterlimit:10;" d="
		M357.9,550.1c0,0,91.7-4.6,109.3,49"/>
	<path style="fill:#010101;" d="M195.6,784.3c-2.6-1-5.3-2-8.3-1.7c-2.6,0.3-5.6,2-6,5c-0.7,2.6,1.3,5.3,3.6,7.3
		c5.6,4.3,13.9,5.3,20.2,2.3C215.1,791.9,199.9,785.9,195.6,784.3z"/>
	<path style="fill:#010101;" d="M385.7,797.8c-0.3,2.6-0.7,5.6,0.3,8.3c1,2.6,3.3,5,6.3,5c3-0.3,5-2.6,6-5.3c3-6.6,2-14.6-2.6-20.2
		C388.7,777,386.3,793.5,385.7,797.8z"/>
	<path style="fill:#010101;" d="M131,603.8c-0.3,2,0,4,1.3,5.6c1.3,1.3,3.3,2,5,2c1,0,2,0,2.6-0.7c0.7-0.3,1-1,1.3-1.7
		c2-3,4.3-6,4.3-9.6c0.7,1,1.7,1.7,3,2c0.7,0.3,1.3,0.3,2,0.3c1.7-0.3,2.3-2.3,2.3-4c-0.7-4.3-8.3-9.3-12.6-7.6
		C135,592.2,131.4,598.8,131,603.8z"/>
	<path style="fill:#010101;" d="M473.8,618c-1.3,2.3-3.3,4.3-6,4.6c-2.6,0.3-5.6-0.7-6.3-3.3c-0.3-1-0.3-2-0.3-3
		c0-2,0.7-3.6,1.3-5.3c-1.3,0.7-3,1-4.3,0.7c-1-0.7-1.7-2-1.7-3c0-6,8.3-12.3,14.2-10.6C477.4,599.5,476.4,613.7,473.8,618z"/>
</g>
</svg>
