<?xml version="1.0" encoding="utf-8"?>
<!-- Generator: Adobe Illustrator 23.1.0, SVG Export Plug-In . SVG Version: 6.00 Build 0)  -->
<svg version="1.1" id="Isolation_Mode" xmlns="http://www.w3.org/2000/svg" xmlns:xlink="http://www.w3.org/1999/xlink" x="0px"
	 y="0px" viewBox="0 0 374.6 881" style="enable-background:new 0 0 374.6 881;" xml:space="preserve">
<g>
	<g>
		<g>
			<g>
				<path style="fill:#579C43;" d="M110.2,574c0,0,23.7,12.2,15.3,45.3C125.5,619.2,97.8,597.5,110.2,574z"/>
				<path style="fill:#95C947;" d="M125.5,619c8.4-33.1-15.3-45.3-15.3-45.3v0.2L125.5,619z"/>
			</g>
			<g>
				<path style="fill:#579C43;" d="M139.5,573.3c0,0,12.2,23.7-14,45.7C125.5,619,115.5,585.3,139.5,573.3z"/>
				<path style="fill:#95C947;" d="M125.5,619c26.2-22,14-45.7,14-45.7h-0.2L125.5,619z"/>
			</g>
			<g>
				<path style="fill:#579C43;" d="M86.2,591.7c0,0,5.1,26.2,39.1,27.5C125.3,619.2,112.4,586.4,86.2,591.7z"/>
				<path style="fill:#95C947;" d="M125.3,619.2c-34.2-1.3-39.1-27.5-39.1-27.5h0.2L125.3,619.2z"/>
			</g>
		</g>
		<path style="fill:#F68746;" d="M155.7,638.1c7.8,22.6,12.6,78.1,4.4,81c-8,2.7-38.8-44.2-46.6-66.8s-2.7-40.2,8-43.7
			C135.5,603.7,147.9,615.5,155.7,638.1z"/>
		<path style="fill:#FDC894;" d="M121.5,608.6c-1.1,0.4-2.4,1.1-3.3,1.8c6.9-0.4,12.9,2.7,17.8,7.5c3.1,3.1,20,24.6,23.7,76.1
			c0.4,5.3-4,11.3-10.4,10.4c-3.1-0.4-5.8-2.2-8.2-4.4c-0.7-0.7-1.3-1.3-2.2-1.8c8.9,12.6,17.5,22.2,21.3,20.9
			c8-2.7,3.3-58.4-4.4-81C147.9,615.5,135.5,603.7,121.5,608.6z"/>
		<g>
			<g>
				<path style="fill:#F26322;" d="M109.8,634.1c0.9-0.9,2-1.6,3.1-2c1.1-0.7,2.2-1.1,3.3-1.3c1.1-0.4,2.2-0.7,3.3-0.9
					s2.4-0.4,3.6-0.2v0.2l-6.7,2.4L109.8,634.1L109.8,634.1z"/>
			</g>
		</g>
		<g>
			<g>
				<path style="fill:#F26322;" d="M121.3,641.4c0.9-0.9,2-1.6,3.1-2c1.1-0.7,2.2-1.1,3.3-1.3c1.1-0.4,2.2-0.7,3.6-0.9
					c1.1-0.2,2.4-0.4,3.8-0.2v0.2l-6.9,2.4L121.3,641.4L121.3,641.4z"/>
			</g>
		</g>
		<g>
			<g>
				<path style="fill:#F26322;" d="M136.6,626.8c0.9-0.9,1.8-1.6,2.7-2s2-0.9,2.9-1.3c1.1-0.2,2-0.7,3.1-0.9s2.2-0.2,3.3-0.2v0.2
					l-6,2.2L136.6,626.8L136.6,626.8z"/>
			</g>
		</g>
		<g>
			<g>
				<path style="fill:#F26322;" d="M139.3,641c1.1-0.9,2.4-1.6,3.6-2.2c1.3-0.7,2.4-1.1,3.8-1.6c1.3-0.4,2.7-0.9,4-1.1
					c1.3-0.2,2.7-0.4,4.2-0.4v0.2l-7.8,2.7L139.3,641L139.3,641z"/>
			</g>
		</g>
		<g>
			<g>
				<path style="fill:#F26322;" d="M113.3,651.9c0.9-0.9,2-1.6,2.9-2c1.1-0.7,2.2-0.9,3.1-1.3c1.1-0.4,2.2-0.7,3.3-0.9
					s2.4-0.2,3.6-0.2v0.2l-6.7,2.4L113.3,651.9L113.3,651.9z"/>
			</g>
		</g>
		<g>
			<g>
				<path style="fill:#F26322;" d="M136.2,655.4c1.1-0.9,2.4-1.6,3.6-2.2c1.3-0.7,2.7-1.1,3.8-1.6c1.3-0.4,2.7-0.9,4-1.1
					c1.3-0.2,2.9-0.4,4.2-0.4v0.2l-8,2.9L136.2,655.4L136.2,655.4z"/>
			</g>
		</g>
		<g>
			<g>
				<path style="fill:#F26322;" d="M121.3,669.6c1.1-0.9,2.2-1.6,3.3-2.2c1.1-0.7,2.4-1.1,3.6-1.6c1.3-0.4,2.4-0.7,3.8-1.1
					c1.3-0.2,2.7-0.4,4-0.4v0.2l-7.3,2.7L121.3,669.6L121.3,669.6z"/>
			</g>
		</g>
		<g>
			<g>
				<path style="fill:#F26322;" d="M139.3,670.1c0.9-0.9,2-1.6,3.1-2c1.1-0.7,2.2-1.1,3.3-1.3c1.1-0.4,2.2-0.7,3.3-0.9
					s2.4-0.4,3.6-0.2v0.2l-6.7,2.4L139.3,670.1L139.3,670.1z"/>
			</g>
		</g>
		<g>
			<g>
				<path style="fill:#F26322;" d="M146.2,676.5c1.1-0.9,2.4-1.8,3.8-2.2c1.3-0.7,2.7-1.1,4-1.6c1.3-0.4,2.7-0.9,4.2-1.1
					c1.3-0.2,2.9-0.4,4.4-0.4v0.2l-8,2.9L146.2,676.5L146.2,676.5z"/>
			</g>
		</g>
		<g>
			<g>
				<path style="fill:#F26322;" d="M147.3,683.8c-1.1,0.9-2.2,1.6-3.3,2.2c-1.1,0.7-2.2,1.1-3.6,1.6c-1.1,0.4-2.4,0.7-3.8,0.9
					c-1.3,0.2-2.7,0.4-4,0.2v-0.2l7.3-2.7L147.3,683.8L147.3,683.8z"/>
			</g>
		</g>
		<g>
			<g>
				<path style="fill:#F26322;" d="M145.3,693.1c0.9-0.9,1.8-1.6,2.9-2c0.9-0.4,2-0.9,3.1-1.3c1.1-0.4,2.2-0.7,3.3-0.9
					s2.2-0.2,3.6-0.2v0.2l-6.2,2.2L145.3,693.1L145.3,693.1z"/>
			</g>
		</g>
		<g>
			<g>
				<path style="fill:#F26322;" d="M154.6,698.7c-0.9,0.9-1.8,1.3-2.7,2c-0.9,0.4-2,0.9-2.9,1.3c-1.1,0.2-2,0.7-3.1,0.7
					c-1.1,0.2-2.2,0.2-3.3,0.2v-0.2l6-2.2L154.6,698.7L154.6,698.7z"/>
			</g>
		</g>
		<g>
			<g>
				<path style="fill:#F26322;" d="M155.3,709.3c0.7-0.7,1.1-1.3,1.8-1.8c0.7-0.4,1.3-0.7,2-1.1c0.7-0.2,1.6-0.4,2.2-0.4
					c0.9,0,1.6,0,2.4,0.2v0.2l-4.4,1.6L155.3,709.3L155.3,709.3z"/>
			</g>
		</g>
		<path style="fill:#FFFFFF;" d="M128.8,663.4c1.6-6.4-2.2-12.4-4.2-18.2c-2-5.3-5.3-11.5-4.2-17.3c0.7-3.6,2.2-7.8,5.5-9.5
			c-1.8-0.2-3.6,0-5.3,0.7c-7.3,2.4-10.7,14.4-5.3,29.7c1.8,5.3,5.5,12.4,9.8,19.5C126.6,667,128.2,665.4,128.8,663.4z"/>
	</g>
	<g>
		<path style="fill:#579C43;" d="M224.7,652.8c-4.9-9.8-9.1-13.3-11.3-27.5c-2.4-15.1-6.9-24.6-23.7-24.6c-16,0-21.3,7.5-25.1,24
			c-2.9,12.2-3.6,16.6-8.2,24.9c-5.3,9.5-9.8,19.1-9.8,38.8c0,24,17.8,35.1,42.4,35.1c24.4,0,43.7-10,43.7-33.9
			C232.7,673.6,231.8,667.2,224.7,652.8z"/>
		<path style="fill:#95C947;" d="M218.9,653.6c-4-8.7-7.8-12-9.5-24.4c-2-13.3-5.8-21.7-20-21.7c-13.3,0-17.8,6.7-21.1,21.3
			c-2.4,10.9-2.9,14.6-6.9,22c-4.7,8.4-8.2,16.9-8.2,34.4c0,21.3,14.9,31.1,35.5,31.1c20.4,0,36.6-8.9,36.6-30.2
			C225.6,672.3,225.1,666.5,218.9,653.6z"/>
		<path style="fill:#5F3814;" d="M213.2,678c0,16.2-10.4,29.3-23.5,29.3c-12.9,0-23.5-13.1-23.5-29.3s10.4-29.3,23.5-29.3
			C202.5,648.8,213.2,661.9,213.2,678z"/>
		<path style="fill:#FFFFFF;" d="M175,677.8c3.3-0.4,6.9-1.1,8.4-4.4c0.9-2,1.6-4,2-6c0.7-3.6,0.4-9.1,3.6-11.8
			c0.7-0.7,1.6-1.1,2.2-1.3c-0.7,0-1.3-0.2-1.8-0.2c-10.4,0-19.1,10.2-19.7,23.1C171.4,677.8,173.4,678,175,677.8z"/>
		<path style="fill:#EFD0A6;" d="M197.2,650.3c4.2,3.8,7.8,8.7,9.3,14.2c2.9,10,1.8,20.9-4.7,29.3c-5.5,7.5-15.1,10-23.5,5.8
			c-5.8-2.9-8.4-8.2-11.5-13.1c2.9,12.2,12,20.9,22.6,20.9c12.9,0,23.5-13.1,23.5-29.3C213.2,665.2,206.3,654.3,197.2,650.3z"/>
		<path style="fill:#CFD8A6;" d="M224.7,652.8c-4.9-9.8-9.1-13.3-11.3-27.5c-2.4-15.1-6.9-24.6-23.7-24.6c-3.6,0-6.4,0.4-8.9,1.1
			c0.2,0,0.7,0.2,0.9,0.2c3.8,1.3,7.8,3.6,10.7,6.4c7.1,7.8,6.2,17.8,8.4,27.3c2.9,11.5,19.3,26.2,19.7,52.1
			c0.2,6.4-2.4,11.5-6.7,16.4c-8.7,9.5-20.2,11.1-33.1,8.4c-8.7-1.8-14.6-5.3-20.6-11.1c-6.9-6.4-13.3-13.3-13.3-13.3
			c0,24,17.8,35.1,42.4,35.1c24.4,0,43.7-10,43.7-33.9C232.7,673.6,231.8,667.2,224.7,652.8z"/>
		<path style="fill:#FFFFFF;" d="M158.4,655c2,1.1,4,0.7,6,0c3.3-1.3,6-3.6,7.8-6.7c3.8-6.4,4.7-13.8,5.1-21.1
			c0.4-5.5,1.8-13.5,5.5-18.6c-8.4,1.1-12.9,6-15.1,16c-2,8.4-1.3,11.8-4.4,17.5c-2.2,3.8-4,7.5-5.3,12.6
			C157.9,654.7,158.1,655,158.4,655z"/>
	</g>
	<g>
		<path style="fill:#EA3E48;" d="M309.5,677.4c0,30.6-19.7,48.6-49.3,48.6c-29.5,0-49.5-17.8-49.5-48.4c0-20.6,6.4-34.8,22.6-43.5
			c19.3-10.2,37.5-8.7,51.9-0.9C299.5,640.8,309.5,653.6,309.5,677.4z"/>
		<path style="fill:#FFFFFF;" d="M227.8,680c6-1.6,8.7-5.8,8.7-12c0-6.7-1.3-12.9,1.6-18.9c1.6-3.1,4-6.2,5.1-9.5v-0.2
			c-3.1,0.9-6.2,2.2-9.5,3.8c-12,6.4-16.9,16.9-16.9,32.4c0,1.8,0,3.6,0.2,5.3C220.7,680.9,224.5,680.9,227.8,680z"/>
		<path style="fill:#DCB9CA;" d="M285.3,633.2c-6.7-3.6-14.2-5.8-22.2-6.2c0.4,0.2,0.9,0.4,1.3,0.7c7.8,3.8,16.2,8.4,21.7,15.1
			c4.9,5.5,7.8,12.2,8.9,19.5c1.3,7.8,1.8,16.2-0.4,24c-2.2,7.5-6.4,14.4-12.4,19.3c-6.4,5.3-19.1,7.5-27.3,7.8
			c-25.7,0.7-33.7-11.3-41.5-17.8c6.4,19.5,23.7,30.4,46.6,30.4c29.5,0,49.3-17.8,49.3-48.6C309.5,653.6,299.5,640.8,285.3,633.2z"
			/>
		<g>
			<path style="fill:#95C947;" d="M264,628.1c0,0-0.9-14.2,4.9-23.1c0,0-6-3.1-13.8,2.2c0,0,4.9,16,4,20.6L264,628.1z"/>
			<path style="fill:#CFD8A6;" d="M268.6,605c0,0-1.8-0.9-4.7-0.9c0,0-0.9,9.5-1.6,13.1c-0.2,2-2.2,9.3-3.6,10.7c0,0,0,0,0,0.2
				l4.9,0.2C264,628.1,263.1,613.9,268.6,605z"/>
			<path style="fill:#95C947;" d="M276.4,629.5c8.7,2.9,11.3,14.6,11.3,14.6c-2-2.7-11.8-8.2-11.8-8.2c1.1,5.8-2.4,11.8-2.4,11.8
				c-5.8-8.9-11.5-12.4-11.5-12.4c-7.1,2.7-15.1,11.8-15.1,11.8c0.2-6.2,1.6-11.3,1.6-11.3c-10.9,1.1-15.5,6-15.5,6
				c2.4-7.5,8.7-11.1,8.7-11.1S257.3,623,276.4,629.5z"/>
			<path style="fill:#CFD8A6;" d="M287.7,644.1c0,0-2.7-11.8-11.3-14.6c-0.2,0-0.4-0.2-0.7-0.2c1.3,1.8,3.1,3.8,3.3,6
				c0,0.2-4.4-2-5.8-2c-0.9,0-0.2,8.4-0.9,8.2c-1.8-0.4-3.8-2.7-4.9-3.8c-1.8-2-5.3-5.3-7.1-4.9c-2.4,0.9-8.9,6-9.1,5.5
				c-0.2-1.1-0.9-5.1-0.9-5.1s-9.8,2-9.8,1.8c0.4-1.3,0.9-3.1,0.9-4.4c-0.2,0-0.2,0.2-0.2,0.2s-6.2,3.6-8.7,11.1c0,0,4.7-4.9,15.5-6
				c0,0-1.3,5.1-1.6,11.3c0,0,8-9.1,15.1-11.8c0,0,5.8,3.6,11.5,12.4c0,0,3.6-6.2,2.4-11.8C276,635.9,285.7,641.4,287.7,644.1z"/>
		</g>
	</g>
	<g>
		<path style="fill:#579C43;" d="M294.4,702.2c0,0,1.8-6.7-0.4-13.1c-3.1-8.9,7.3-17.1,14.4-16c6,0.7,8.2-5.3,12.6-7.8
			c4.4-2.4,10.4-5.8,16-1.1s6.7,1.8,12.4,1.8c8,0.2,12.6,11.1,10,16.9c-2.7,5.8-8,5.5-5.8,12c2.2,6.4-4.2,8.7-8,10.4
			c-3.8,1.8-7.1,6.2-9.5,10.4c-2.9,5.3-10.4,7.8-19.7,4.4c-8.4-3.1-12.2-8.2-16-8L294.4,702.2z"/>
		<path style="fill:#FFFFFF;" d="M325,670.5c-0.9,2.4,2,4,4,4.9c0.9,0.4,2,0.7,2.9,0.7c1.1,0,2.2,0,3.3,0c2.2,0.2,4.4,0.7,6.9,1.3
			c1.8,0.4,3.3,0.7,5.1,0c1.6-0.7,2.9-1.6,4-2.7c0.9-0.9,1.8-2.2,2.2-3.3c-1.3-0.9-2.7-1.6-4.4-1.6c-4.7-0.2-5.5,2.2-10-1.6
			s-9.3-1.1-12.9,0.9c-0.2,0.2-0.4,0.2-0.7,0.4C325.2,669.6,325,670.1,325,670.5z"/>
		<path style="fill:#C6D291;" d="M353.6,694.9c-2.2-6.4,3.1-6.2,5.8-12c1.1-2.4,0.9-6-0.4-9.1c-0.4,1.1-1.1,2.2-2,3.3
			c-1.8,2.2-3.8,3.8-5.8,5.8c-1.3,1.3-2.9,2.9-3.6,4.7c-1.6,3.8-0.4,8.2-2.4,12c-1.3,2.4-3.8,3.3-6,4.4c-2.9,1.6-4.4,4.7-6.9,6.7
			c-3.8,3.3-8.9,4.7-13.8,3.1c-2.7-0.9-5.1-2.4-7.5-4c-2.9-2-5.8-4-8.4-6.4c-2.2-2-4-4-5.1-6.7c-0.9-2.4-1.6-4.9-2.7-7.1
			c0,0-0.2,0.2-0.2,0c-0.2-0.2-0.4-0.4-0.7-0.7c2.2,6.4,0.4,13.1,0.4,13.1l6,9.8c3.8-0.2,7.8,4.9,16,8c9.3,3.6,16.6,1.1,19.7-4.4
			c2.2-4.2,5.8-8.7,9.5-10.4C349.4,703.6,355.6,701.3,353.6,694.9z"/>
		<path style="fill:#579C43;" d="M301.2,707.3c0,0,5.8-3.6,12.6-3.6c9.5,0.2,14-12,10.9-18.6c-2.4-5.5,2.7-9.5,3.6-14.4
			c1.1-4.9,2.2-11.5-3.8-15.5s-3.6-5.8-5.5-11.3c-2.7-7.5-14.2-8.7-19.1-4.4c-4.7,4.2-2.9,9.3-9.8,9.1s-7.1,6.7-7.5,10.7
			s-3.8,8.7-7.1,12.2c-4.2,4.4-4.4,12.2,1.8,20c5.5,7.1,11.8,9.3,12.6,13.1L301.2,707.3z"/>
		<path style="fill:#FFFFFF;" d="M323.2,670.9c-2,1.6-4.4-0.7-5.8-2.2c-0.7-0.7-1.3-1.6-1.6-2.4c-0.4-1.1-0.7-2-1.1-3.1
			c-0.9-2.2-2-4.2-3.3-6c-1.1-1.6-1.8-2.9-1.6-4.9c0.2-1.6,0.7-3.1,1.3-4.7c0.7-1.1,1.6-2.2,2.4-3.1c1.3,0.9,2.2,2.2,2.9,3.8
			c1.6,4.4-0.4,6,4.4,9.1c4.9,3.1,3.8,8.4,3.1,12.4c0,0.2,0,0.4-0.2,0.7C323.9,670.3,323.7,670.7,323.2,670.9z"/>
		<path style="fill:#C6D291;" d="M295,695.8c-2.9-2.9-6.4-4.9-10-7.1c-1.6-1.1-3.3-2.2-4.7-3.3c-1.3-1.1-2.4-2.4-2.9-4
			c-0.9-3.6,1.3-7.3,3.6-10c1.8-2.2,3.8-4.2,5.3-6.4c1.1-1.6,1.6-3.1,1.8-4.9c0.2-1.1,0.2-2.4,0.7-3.6c2-4.4,7.8-3.6,11.5-5.3
			c2.4-1.1,3.8-3.6,5.8-5.3c2-1.6,4.4-2.9,6.9-3.6c1.6-0.4,3.3-0.9,4.9-0.9c-4.2-4.9-13.3-5.3-17.3-1.6c-4.7,4.2-2.9,9.3-9.8,9.1
			s-7.1,6.7-7.5,10.7s-3.8,8.7-7.1,12.2c-4.2,4.4-4.4,12.2,1.8,20c5.5,7.1,11.8,9.3,12.6,13.1l7.8,1.8
			C299,702.5,297.9,698.7,295,695.8z"/>
		<path style="fill:#95C947;" d="M333.4,701.6c0.7-4.7,2.2-10.2,5.1-13.1c2.9-2.9,8-7.3,3.8-12.4c-4.4-5.1,0.7-7.1,1.1-13.3
			c0.4-6.4-7.8-14.9-15.3-12.2c-5.5,2-5.3,5.1-12.2,2.7c-6.9-2.2-11.3,2.9-14.4,6.7c-3.3,3.8-3.1,10.4-9.1,12
			c-7.1,1.8-13.8,12.9-7.8,20.2c3.8,4.7,6,10.7,6,12.2c-0.9,8.9-11.3,16.9-11.3,16.9l9.1,6.7c0,0,5.1-11.8,13.5-16
			c2.4-1.3,7.1,1.1,14.9,0.9C326.5,712.7,332.5,707.8,333.4,701.6z"/>
		<path style="fill:#C6D291;" d="M333.4,701.6c0.7-4.7,2.2-10.2,5.1-13.1c2.9-2.9,8-7.3,3.8-12.4c-4.4-5.1,0.7-7.1,1.1-13.3
			c0.2-5.1-5.1-11.8-11.1-12.4c0.4,0.2,0.7,0.4,0.9,0.7c0.9,0.7,1.6,1.6,2,2.7c0.2,1.1,0.2,2.2,0.2,3.3c0,1.3,0,2.9-0.2,4.2
			c-0.2,1.6-0.4,3.1-0.4,4.7c0,2.7,1.1,5.3,1.8,8c0.4,2.2,1.1,4.9,0.2,7.1c-0.7,1.3-1.6,1.8-2.4,2.7c-1.6,1.6-1.1,3.1-1.3,5.1
			c-0.2,2.9-1.3,5.5-2.7,8c-1.6,2.7-3.3,5.1-5.5,7.3c-1.8,2-3.8,3.8-6.2,4.7c-2.7,0.9-5.1,1.1-8,0.9c-1.8,0-3.6-0.2-5.3,0.2
			c-1.3,0.4-2.7,0.9-4,1.6c-2.2,0.9-10,4.9-10.2,0c0-1.8,0.7-3.3,1.1-5.1c0.4-2.9-0.2-6-1.3-8.7c-2-5.1-3.8-10.9-8-14.4
			c-0.9,3.3-0.4,6.7,2,9.5c3.8,4.7,6,10.7,6,12.2c-0.9,8.9-11.3,16.9-11.3,16.9l9.1,6.7c0,0,5.1-11.8,13.5-16
			c2.4-1.3,7.1,1.1,14.9,0.9C326.5,712.7,332.5,707.8,333.4,701.6z"/>
		<g>
			<path style="fill:#579C43;" d="M298.4,703.1c-0.7-2-1.1-4-1.6-6c-0.4-2-0.9-4-1.3-6s-0.9-4-1.3-5.8c-0.4-2-0.9-4-1.3-6.2
				c1.8,1.3,3.1,3.1,4,5.1c1.1,2,1.8,4,2.2,6s0.7,4.2,0.7,6.4c0,1.1-0.2,2.2-0.2,3.1C299,701.1,298.8,702.2,298.4,703.1z"/>
			<path style="fill:#579C43;" d="M298.4,703.1c0.9-0.7,1.8-1.3,2.7-1.8c0.9-0.4,2-0.9,2.9-1.3c2-0.7,4.2-1.1,6.2-1.3
				c2.2-0.2,4.4-0.2,6.4,0.2c2.2,0.4,4.2,1.1,6,2.2c-2.2,0.2-4.2,0.4-6.2,0.4c-2,0.2-4,0.4-6,0.4c-2,0.2-4,0.4-6,0.4
				C302.6,703.1,300.6,703.1,298.4,703.1z"/>
			<path style="fill:#579C43;" d="M306.8,692.9c-0.7-2-1.1-3.8-1.6-5.5s-0.9-3.6-1.1-5.5l-1.1-5.3c-0.4-1.8-0.9-3.6-1.1-5.8
				c1.6,1.3,2.9,2.9,3.8,4.7s1.6,3.8,2,5.8s0.7,4,0.4,6c0,0.9-0.2,2-0.4,2.9C307.5,690.9,307.2,692,306.8,692.9z"/>
			<path style="fill:#579C43;" d="M306.8,692.9c0.7-0.7,1.6-1.3,2.4-1.8c0.9-0.4,1.8-0.9,2.7-1.3c1.8-0.7,3.8-1.1,5.8-1.3
				s4-0.2,6,0.2s4,1.1,5.5,2.2c-2,0.2-4,0.4-5.8,0.7l-5.5,0.4c-1.8,0.2-3.8,0.4-5.5,0.4C310.8,692.9,308.8,692.9,306.8,692.9z"/>
			<path style="fill:#579C43;" d="M314.3,682.5c-0.7-1.8-0.9-3.6-1.3-5.3c-0.2-1.8-0.7-3.6-0.9-5.1c-0.2-1.8-0.7-3.3-0.9-5.1
				s-0.7-3.3-0.9-5.3c1.6,1.1,2.7,2.7,3.6,4.4c0.9,1.8,1.3,3.6,1.8,5.3c0.2,1.8,0.4,3.8,0.2,5.5c0,0.9-0.2,1.8-0.4,2.9
				C315.2,680.7,315,681.6,314.3,682.5z"/>
			<path style="fill:#579C43;" d="M314.3,682.5c0.7-0.7,1.6-1.1,2.4-1.8c0.9-0.4,1.8-0.9,2.7-1.1c1.8-0.7,3.8-1.1,5.5-1.3
				c2-0.2,4-0.2,5.8,0.2c2,0.4,3.8,0.9,5.5,2.2c-2,0.2-3.8,0.4-5.5,0.7l-5.3,0.7c-1.8,0.2-3.6,0.4-5.3,0.4
				C318.3,682.5,316.6,682.5,314.3,682.5z"/>
		</g>
		<path style="fill:#FFFFFF;" d="M294.6,675.4c0,0.2,0.2,0.2,0.2,0.4c0.9,1.3,2.4,2.2,4,2.7c2.2,0.9,4.4,0.9,6.2-0.7
			c2-1.6,3.3-4,4.7-6c1.1-1.6,2.4-3.6,4.4-4.2c2-0.9,4.4-0.7,6.4-1.6c2.4-1.1,4.4-2.9,6.2-5.1c1.1-1.3,2-2.9,2.4-4.7
			c-0.9,0-1.8,0-2.9,0.4c-4.4,1.6-4.4,4.2-10.2,2.2s-9.3,2.4-12,5.5s-2.7,8.7-7.5,9.8C296.1,674.7,295.5,674.9,294.6,675.4z"/>
	</g>
	<g>
		<path style="fill:#5A3E69;" d="M67.4,629.2c4.2-6.9,9.8-10,14.9-11.3c7.1-1.8,13.8,0.2,17.5,5.1c5.3,6.9,11.3,26,20.9,39.9
			c8,11.8,20.4,16.6,22.2,29.7c2,15.3-6.2,22.9-20.6,26c-18,4-29.1-6.7-36.8-20C76,683.6,56.5,647,67.4,629.2z"/>
		<path style="fill:#FFFFFF;" d="M113.8,665.2c-2,0.9-4.7,0.7-6.4-0.9c-3.3-2.9-4-7.8-5.3-11.5c-0.9-2.4-2-4.9-3.3-7.1
			c-1.3-2-2.9-3.8-4.7-5.3c-1.8-1.8-3.6-3.3-4.7-5.8c-0.2-0.7-0.4-1.1-0.9-1.8c0.4,0,0.7-0.2,1.1-0.2c4.7-1.1,8.9,0.2,11.5,3.3
			c3.6,4.7,7.3,16.9,13.8,26.2c0.4,0.4,0.7,1.1,1.1,1.6C115.3,664.3,114.4,664.7,113.8,665.2z"/>
		<path style="fill:#CCA6B9;" d="M67.4,629.2l0.2-0.2c0.9,3.8,2,7.5,3.3,11.1c3.8,12.4,8.4,25.1,16.4,35.5
			c4.4,5.8,8.4,11.8,13.5,17.1c4.7,4.9,10.9,10,17.5,11.5c6.4,1.3,13.5-0.4,18.6-4.4c2.2-1.8,4.7-3.8,5.8-6.4
			c2,15.1-6.2,22.4-20.6,25.5c-18,4-29.1-6.7-36.8-20C76,683.6,56.5,647,67.4,629.2z"/>
		<path style="fill:#95C947;" d="M80.9,618.8c0,0,0.2-8.9-4.2-13.3c0,0,3.1-2.7,8.2-0.4c0,0-0.2,9.8,0.9,12.4L80.9,618.8z"/>
		<path style="fill:#CFD8A6;" d="M76.7,605.7c0,0,0.9-0.7,2.4-1.1c0,0,2,5.3,2.4,7.3c0.7,2.4,3.1,5.1,4,5.5l0,0l-4.9,1.3
			C80.9,618.8,81.1,610.2,76.7,605.7z"/>
		<path style="fill:#95C947;" d="M95.3,619.2c0,0,5.8,8,4.7,12.9c0,0-5.1-6-9.8-7.1c0,0,2,5.5,0,9.1c0,0-4.4-6.4-8.9-6.9
			c0,0-3.3,3.1-2.7,7.5c0,0-5.8-2.9-2.7-9.1c0,0-6.7,5.3-4.9,12.9c0,0-4.7-5.1-2.7-11.1C68.5,627.5,78.7,611.3,95.3,619.2z"/>
		<path style="fill:#CFD8A6;" d="M68.5,627.5c0,0,2.4-3.8,6.9-6.9c-0.9,1.6-1.3,3.1-1.3,4.7c0,0.2,2-0.7,3.1-0.7
			c0,1.3,0,2.7,1.1,3.8c0.2,0.2,1.1-1.8,1.3-2.4c0.2-0.7,0.7-2,1.6-1.8c0.4,0.2,1.1,0.4,1.6,0.7c1.6,0.9,4.4,3.3,4.4,3.1
			c0.4-1.1,0.4-2.2,0.2-3.3c0-0.7-0.2-1.1-0.2-1.8c0-0.4-0.4-1.1,0.4-0.9c0.2,0,0.4,0.2,0.9,0.2c1.8,0.4,3.6,0.9,5.1,2
			c0.7,0.4,3.1,1.6,3.1,1.6c-0.2-2.7-1.8-4.7-3.1-6.9c0.7,0.2,1.1,0.4,1.8,0.9c0,0,5.8,8,4.7,12.9c0,0-5.1-6-9.8-7.1
			c0,0,2,5.5,0,9.1c0,0-4.4-6.4-8.9-6.9c0,0-3.3,3.1-2.7,7.5c0,0-5.8-2.9-2.7-9.1c0,0-6.7,5.3-4.9,12.9
			C71.2,638.6,66.5,633.4,68.5,627.5z"/>
	</g>
	<g>
		<g>
			<path style="fill:#AD2032;" d="M160.8,652.8c0,0,12.2-3.6,20.2,11.1c4.9,9.3,7.5,71.7-20,54.8c0,0,3.3-6.2,3.3-33.1
				C164.3,656.5,160.8,652.8,160.8,652.8z"/>
			<path style="fill:#AD2032;" d="M147.5,654.1c0,0-16.6-4.7-21.7,9.3c-3.6,9.8-6.2,72.1,21.5,55.2c0,0-3.3-6.2-3.3-32.8
				C143.7,657,147.5,654.1,147.5,654.1z"/>
			<path style="fill:#AD2032;" d="M138.8,660.1c1.1,31.7-2.2,61,15.5,61c12.2,0,13.1-20.9,12.6-60.4
				C167,645.7,138.6,647.2,138.8,660.1z"/>
		</g>
		<path style="fill:#95C947;" d="M135.7,658.7c0,0,2-4.2,16.9-2c4.2,0.7,9.5-4.2,18,2c0,0-12.6,4-17.8,3.8
			C148.4,662.5,140.8,662.3,135.7,658.7z"/>
		<path style="fill:#EA3E48;" d="M158.8,661c0,0,15.3-8.4,22.9,2.2c8.7,11.8,9.5,79.9-20.6,62.8c0,0,3.6-6.4,3.6-33.5
			C164.8,662.5,158.8,661,158.8,661z"/>
		<path style="fill:#EA3E48;" d="M148.4,661.4c0,0-16.9-8-23.5,2.4c-8.4,13.1-9.1,79,21.1,62.1c0,0-3.6-6.2-3.6-33.3
			C142.4,663.2,148.4,661.4,148.4,661.4z"/>
		<path style="fill:#D72C41;" d="M152.6,660.3c-5.8-0.2-13.8-3.8-13.8,10.4c0,32.2-4.4,57.7,15.1,57.7c13.5,0,13.5-16.6,13.1-56.8
			C166.8,655,158.4,660.3,152.6,660.3z"/>
		<path style="fill:#FFFFFF;" d="M132.4,695.1c4.7-1.3,6.9-5.8,7.5-10.2c0.4-2.4,0.2-4.9,0.4-7.3c0-2.7,0.4-5.1,0.9-7.5
			c0.4-1.6,0.9-3.1,1.8-4.4c0.2-0.4,0.4-0.7,0.9-0.9c-4.2-1.3-11.3-2.4-14.6,3.1c-2.7,4.2-4.4,15.8-3.6,26.6
			C127.5,695.6,130,695.8,132.4,695.1z"/>
		<path style="fill:#DCB9CA;" d="M181.9,663.2c-2.7-3.8-6.4-5.1-10-5.3c2,5.3,3.1,11.1,4.2,16.6c0.7,3.3,1.1,6.4,1.3,9.8
			c0.2,3.3,0,6.9-0.4,10.2c-0.2,1.8-0.4,3.3-0.7,5.1c-0.2,1.3-0.2,2.9-0.7,4.2c-0.9,2.4-2,4.7-3.6,6.7c-2.7,3.8-6.9,7.3-11.8,7.3
			c-3.1,0-6-0.7-9.1-1.6c-3.6-1.1-6.9-0.2-10.2,1.3c-4.4,2-10,4.2-14,0.7c-1.6-1.3-3.1-3.8-4.9-5.5c3.3,12.6,10.7,20.6,23.5,13.5
			c2,1.6,4.9,2.2,8.2,2.2c3.1,0,5.5-0.9,7.3-2.7c0,0.2,0,0.2,0,0.2C191.4,743.1,190.3,674.9,181.9,663.2z"/>
		<g>
			<path style="fill:#95C947;" d="M154.4,658.5c0,0-0.9-13.8,4.7-22.4c0,0-6-3.1-13.3,2.2c0,0,4.9,15.8,4,20.2H154.4z"/>
			<path style="fill:#CFD8A6;" d="M159,636.1c0,0-1.8-0.9-4.4-0.9c0,0-0.9,9.3-1.3,12.6c-0.2,2-2.2,9.1-3.3,10.4c0,0,0,0,0,0.2
				l4.7,0.2C154.4,658.5,153.5,644.8,159,636.1z"/>
		</g>
	</g>
	<g>
		<path style="fill:#579C43;" d="M85.6,705.3c0,0-6.2-3.1-12.9-2.4c-9.3,1.1-15.1-10.9-12.6-17.5c2-5.8-3.6-9.3-4.9-14.2
			s-3.3-11.3,2.4-15.8c5.8-4.4,3.1-6.2,4.4-11.8c2-7.8,13.5-9.8,18.6-6s3.8,9.1,10.4,8.2c6.7-0.7,7.5,6,8.4,10s4.4,8.4,8,11.5
			c4.7,4,5.3,11.8,0,20.2c-4.9,7.5-10.7,10-11.3,14L85.6,705.3z"/>
		<path style="fill:#FFFFFF;" d="M61.2,668.7c2.2,1.3,4.4-1.1,5.5-2.9c0.4-0.9,1.1-1.8,1.3-2.7c0.2-1.1,0.4-2.2,0.7-3.1
			c0.7-2.2,1.8-4.2,2.7-6.4c0.9-1.8,1.6-3.1,1.1-5.1c-0.2-1.6-0.9-3.1-1.8-4.4c-0.7-1.1-1.8-2.2-2.9-2.9c-1.1,1.1-2.2,2.2-2.4,4
			c-1.1,4.4,0.9,6-3.6,9.5c-4.7,3.6-3.1,8.9-2,12.6c0,0.2,0.2,0.4,0.2,0.7C60.5,668.3,60.7,668.5,61.2,668.7z"/>
		<path style="fill:#C6D291;" d="M91.3,646.1c-6.7,0.7-5.5-4.4-10.4-8.2c-2.2-1.8-5.5-2.2-8.9-1.6c1.1,0.7,2,1.6,2.9,2.7
			c1.8,2.2,2.9,4.7,4.4,6.9c1.1,1.6,2.2,3.3,3.8,4.7c3.3,2.2,8,2.2,11.1,4.9c2,1.8,2.4,4.4,3.1,6.9c0.9,3.1,3.6,5.3,5.1,8.2
			c2.2,4.4,2.7,9.8,0,14.2c-1.3,2.4-3.6,4.4-5.5,6.4c-2.4,2.4-5.1,4.9-8,6.9c-2.4,1.8-4.7,3.1-7.8,3.6c-2.4,0.4-5.1,0.4-7.5,1.1
			c0,0,0.2,0.2,0,0.2c-0.2,0.2-0.4,0.4-0.7,0.7c6.7-0.7,12.9,2.4,12.9,2.4l10.9-3.8c0.7-3.8,6.4-6.4,11.3-14c5.3-8.4,4.7-16,0-20.2
			c-3.6-3.1-7.3-7.5-8-11.5C98.9,652.1,98,645.4,91.3,646.1z"/>
		<path style="fill:#579C43;" d="M92,699.8c0,0-2.2-6.4-0.7-13.1c2.2-9.1-8.7-16.2-15.8-14.9c-6,1.3-8.7-4.7-13.3-6.7
			c-4.7-2-10.9-4.9-16,0.2c-5.1,5.1-6.4,2.2-12.2,2.9c-8,0.9-11.5,12-8.4,17.5s8.4,4.9,6.9,11.5c-1.6,6.7,4.9,8.2,8.9,9.5
			s7.8,5.5,10.4,9.5c3.3,5.1,11.1,6.9,20,2.7c8-3.8,11.5-9.5,15.5-9.5L92,699.8z"/>
		<path style="fill:#FFFFFF;" d="M61.4,670.5c1.1,2.4-1.8,4.2-3.6,5.1c-0.9,0.4-1.8,0.9-2.9,1.1c-1.1,0.2-2.2,0.2-3.3,0.4
			c-2.2,0.4-4.4,1.1-6.7,1.8c-1.8,0.7-3.3,1.1-5.1,0.4c-1.6-0.4-2.9-1.3-4.2-2.4c-0.9-0.9-2-2-2.7-3.1c1.1-1.1,2.7-1.8,4.2-2
			c4.7-0.4,5.8,1.8,9.8-2.4c4.2-4,9.1-2,12.9-0.2c0.2,0,0.4,0.2,0.7,0.2C61,669.6,61.2,670.1,61.4,670.5z"/>
		<path style="fill:#C6D291;" d="M79.4,703.6c-3.6,2.2-6.2,5.3-9.1,8c-1.3,1.3-2.9,2.7-4.4,3.8c-1.3,0.9-2.9,2-4.7,2
			c-3.8,0-6.7-2.9-9.1-5.5c-1.8-2.2-3.1-4.7-5.1-6.7c-1.3-1.3-2.7-2.2-4.4-2.9c-1.1-0.4-2.4-0.7-3.3-1.6c-3.8-2.9-1.8-8.2-2.7-12.4
			c-0.7-2.7-2.7-4.4-4-6.9c-1.1-2.2-1.8-4.9-2-7.3c0-1.6,0-3.3,0-4.9c-5.8,3.1-8,12-5.3,16.6c3.1,5.5,8.4,4.9,6.9,11.5
			c-1.6,6.7,4.9,8.2,8.9,9.5s7.8,5.5,10.4,9.5c3.3,5.1,11.1,6.9,20,2.7c8-3.8,11.5-9.5,15.5-9.5l3.6-7.1
			C86.9,700.9,82.9,701.3,79.4,703.6z"/>
		<path style="fill:#95C947;" d="M93.6,667.2c-4.4-1.6-9.5-4.4-11.8-7.8c-2.2-3.6-5.3-9.5-11.3-6.4s-6.7-2.2-12.9-4
			s-16.2,4.4-15.1,12.2c0.7,5.8,3.8,6.4,0,12.6c-3.8,6.2,0.4,11.5,3.3,15.5c3.1,4,9.5,5.3,9.5,11.3c0.2,7.1,9.5,16.2,18,12
			c5.3-2.7,11.8-3.6,13.3-3.1c8.4,2.7,14,14.6,14,14.6l8.7-7.5c0,0-10.4-7.5-12.6-16.6c-0.7-2.7,2.7-6.7,4.2-14.4
			C102.9,676.3,99.3,669.4,93.6,667.2z"/>
		<path style="fill:#C6D291;" d="M93.6,667.2c-4.4-1.6-9.5-4.4-11.8-7.8c-2.2-3.6-5.3-9.5-11.3-6.4s-6.7-2.2-12.9-4
			c-4.9-1.3-12.6,2.4-14.6,8.2c0.2-0.2,0.7-0.7,0.9-0.9c0.9-0.7,1.8-1.3,2.9-1.3s2.2,0.2,3.3,0.4c1.3,0.4,2.7,0.7,4.2,1.1
			c1.3,0.4,2.9,1.1,4.4,1.6c2.7,0.7,5.3,0.2,8,0c2.2,0,5.1,0,6.9,1.3c1.1,0.9,1.3,2,2,3.1c1.1,1.8,2.9,1.8,4.7,2.4
			c2.7,0.9,5.1,2.4,7.1,4.2c2.2,2,4.2,4.4,6,6.9c1.6,2.2,2.9,4.4,3.1,7.1c0.2,2.7-0.2,5.3-0.9,8c-0.4,1.8-0.9,3.3-0.9,5.1
			c0,1.3,0.2,2.9,0.7,4.2c0.4,2.2,2.7,10.9-2.2,10c-1.8-0.2-3.1-1.3-4.7-2c-2.7-1.1-6-1.1-8.9-0.7c-5.3,0.7-11.3,1.3-15.8,4.9
			c2.9,1.6,6.4,1.8,9.8,0c5.3-2.7,11.8-3.6,13.3-3.1c8.4,2.7,14,14.6,14,14.6l8.7-7.5c0,0-10.4-7.5-12.6-16.6
			c-0.7-2.7,2.7-6.7,4.2-14.4C102.9,676.3,99.3,669.4,93.6,667.2z"/>
		<g>
			<path style="fill:#579C43;" d="M87.4,701.8c-2.3,0.2-4.3,0.2-6.3,0.2s-4,0-6,0s-4,0-6,0s-4,0-6.2,0c1.8-1.3,3.8-2.2,5.8-2.9
				s4.2-0.9,6.4-0.9c2.2,0,4.2,0.2,6.4,0.9c1.1,0.2,2,0.7,3.1,1.1C85.6,700.7,86.5,701.1,87.4,701.8z"/>
			<path style="fill:#579C43;" d="M87.4,701.8c-0.4-0.9-0.9-2-1.1-3.1s-0.4-2.2-0.7-3.1c-0.2-2.2-0.2-4.2,0-6.4s0.9-4.2,1.6-6.2
				c0.9-2,2-4,3.6-5.5c-0.2,2.2-0.7,4.2-0.9,6.2s-0.4,4-0.9,6c-0.2,2-0.4,4-0.9,6C88.2,697.6,87.8,699.8,87.4,701.8z"/>
			<path style="fill:#579C43;" d="M79.1,691.4c-2,0.2-4,0.2-5.8,0.2c-2,0-3.8,0-5.5,0h-5.5c-1.8,0-3.8,0-5.8,0
				c1.6-1.3,3.6-2.2,5.3-2.7c2-0.4,4-0.7,6-0.7s4,0.2,6,0.9c0.9,0.2,2,0.7,2.9,0.9C77.6,690.3,78.5,690.7,79.1,691.4z"/>
			<path style="fill:#579C43;" d="M79.1,691.4c-0.4-0.9-0.9-1.8-1.1-2.9c-0.2-0.9-0.4-2-0.7-2.9c-0.2-2-0.2-4,0-6s0.7-4,1.6-5.8
				s1.8-3.6,3.3-5.1c-0.2,2-0.4,4-0.7,5.8l-0.7,5.5c-0.2,1.8-0.4,3.8-0.7,5.5C80,687.4,79.8,689.4,79.1,691.4z"/>
			<path style="fill:#579C43;" d="M70.7,681.6c-2,0.2-3.8,0-5.5,0c-1.7,0-3.6-0.2-5.1-0.2c-1.8,0-3.3-0.2-5.1-0.2s-3.6-0.2-5.5-0.2
				c1.6-1.3,3.3-2,5.1-2.7c1.8-0.4,3.8-0.7,5.8-0.4c2,0,3.8,0.4,5.5,1.1c0.9,0.2,1.8,0.7,2.7,1.1C69.2,680.5,70,680.9,70.7,681.6z"
				/>
			<path style="fill:#579C43;" d="M70.7,681.6c-0.4-0.9-0.9-1.8-1.1-2.7s-0.4-2-0.7-2.9c-0.2-2-0.2-3.8,0-5.8s0.7-3.8,1.3-5.8
				c0.7-1.8,1.8-3.6,3.3-4.9c-0.2,2-0.4,3.8-0.7,5.5l-0.7,5.3c-0.2,1.8-0.4,3.6-0.7,5.3C71.6,677.8,71.2,679.6,70.7,681.6z"/>
		</g>
		<path style="fill:#FFFFFF;" d="M59.6,699.3c0.2,0,0.2-0.2,0.4-0.2c1.6-0.7,2.7-2,3.6-3.3c1.3-2,1.8-4.2,0.7-6.2
			c-1.1-2.2-3.1-4-4.9-5.8c-1.3-1.6-2.9-3.1-3.1-5.1c-0.2-2.2,0.2-4.4,0-6.7c-0.4-2.7-1.8-5.1-3.6-7.1c-1.1-1.3-2.4-2.7-4-3.3
			c-0.2,0.9-0.2,1.8-0.2,2.9c0.7,4.7,3.1,5.3,0,10.4c-3.1,5.1,0.2,9.5,2.9,12.9c2.4,3.3,7.8,4.4,8,9.5
			C59.2,697.8,59.2,698.5,59.6,699.3z"/>
	</g>
	<g>
		<path style="fill:#579C43;" d="M146.2,700.9c0,13.8-11.1,24.9-24.9,24.9s-24.9-11.1-24.9-24.9s11.1-24.9,24.9-24.9
			C135.1,676.1,146.2,687.1,146.2,700.9z"/>
		<path style="fill:#95C947;" d="M141.1,700.9c0,10.9-8.9,19.7-19.7,19.7c-10.9,0-19.7-8.9-19.7-19.7s8.9-19.7,19.7-19.7
			S141.1,689.8,141.1,700.9z"/>
		<g>
			<g>
				<path style="fill:#FFE0AA;" d="M121.3,690.7c1.1,0,3.1,6.4,0,6.4C118.2,697.1,120,690.7,121.3,690.7z"/>
				<path style="fill:#FFE0AA;" d="M121.1,711.3c1.1,0,3.1-6.4,0-6.4C118.2,704.9,119.8,711.3,121.1,711.3z"/>
				<path style="fill:#FFE0AA;" d="M114,693.6c0.7-0.7,6.7,2.4,4.4,4.7C116.4,700.2,113.1,694.5,114,693.6z"/>
				<path style="fill:#FFE0AA;" d="M128.4,708.2c0.7-0.7-2.2-6.9-4.4-4.7C121.7,705.8,127.5,709.3,128.4,708.2z"/>
				<path style="fill:#FFE0AA;" d="M110.9,700.9c0-1.1,6.4-3.1,6.4,0S110.9,702.2,110.9,700.9z"/>
				<path style="fill:#FFE0AA;" d="M131.5,701.1c0-1.1-6.4-3.1-6.4,0C125.1,704,131.5,702.5,131.5,701.1z"/>
				<path style="fill:#FFE0AA;" d="M113.8,708.2c-0.7-0.7,2.4-6.7,4.7-4.4C120.4,705.8,114.6,709.1,113.8,708.2z"/>
				<path style="fill:#FFE0AA;" d="M128.6,693.8c-0.7-0.7-6.9,2.2-4.7,4.4C126.2,700.5,129.5,694.7,128.6,693.8z"/>
			</g>
			<path style="fill:#FFE0AA;" d="M126.6,687.4c0.9,0.4,0.7,7.1-2.2,6C121.7,692.5,125.3,686.9,126.6,687.4z"/>
			<path style="fill:#FFE0AA;" d="M115.8,714.2c0.9,0.4,5.1-4.9,2.2-6C115.1,707.1,114.4,713.8,115.8,714.2z"/>
			<path style="fill:#FFE0AA;" d="M115.8,688.3c0.9-0.4,5.5,4.4,2.7,5.8C115.8,695.4,114.6,688.7,115.8,688.3z"/>
			<path style="fill:#FFE0AA;" d="M126.9,713.8c0.9-0.4,0.2-7.1-2.7-5.8C121.3,709.3,125.5,714.4,126.9,713.8z"/>
			<path style="fill:#FFE0AA;" d="M107.8,694.5c0.4-0.9,7.1,0.2,5.5,3.1C112,700.2,107.1,695.8,107.8,694.5z"/>
			<path style="fill:#FFE0AA;" d="M134.8,706.2c0.4-0.9-4.9-5.1-6-2.2C127.7,706.9,134.4,707.6,134.8,706.2z"/>
			<path style="fill:#FFE0AA;" d="M107.8,706.4c-0.4-0.9,4.4-5.5,5.8-2.7C114.9,706.4,108.4,707.6,107.8,706.4z"/>
			<path style="fill:#FFE0AA;" d="M134.6,695.6c-0.4-0.9-7.1-0.2-5.8,2.7C130,700.9,135.1,696.7,134.6,695.6z"/>
		</g>
		<path style="fill:#CFD8A6;" d="M130.8,678c3.3,4.9,5.8,10.4,5.8,16.4s-0.9,12.6-4.9,17.3c-3.6,4.2-8.7,6.7-14.2,7.3
			c-5.3,0.4-11.3-0.4-15.1-4.2c-1.8-1.8-2.9-3.8-4-6c-0.2-0.7-0.7-1.3-1.1-2c2.7,10.9,12.4,18.9,24,18.9c13.8,0,24.9-11.1,24.9-24.9
			C146.2,690.5,139.7,681.6,130.8,678z"/>
		<path style="fill:#FFFFFF;" d="M103.3,701.8c1.6,0.2,3.3,0.4,4.9,0.2c1.8-0.2,3.8-0.7,4.7-2.4c0.9-2,0.4-4,0.7-6
			c0.2-2,1.3-3.3,2.4-4.9c1.6-2,3.8-5.8,2.2-8.2c-0.2,0-0.4,0-0.4,0c-9.5,0-17.3,7.8-17.3,17.3c0,1.1,0.2,2.2,0.4,3.3
			C101.6,701.3,102.4,701.6,103.3,701.8z"/>
	</g>
	<g>
		<path style="fill:#579C43;" d="M245.8,705.8c0,13.8-11.1,24.9-24.9,24.9s-24.8-11.2-24.8-24.9s11.1-24.9,24.9-24.9
			C234.7,681.2,245.8,692.2,245.8,705.8z"/>
		<path style="fill:#95C947;" d="M240.7,705.8c0,10.9-8.9,19.7-19.7,19.7c-10.9,0-19.7-8.9-19.7-19.7c0-10.9,8.9-19.7,19.7-19.7
			C232,686,240.7,694.9,240.7,705.8z"/>
		<g>
			<g>
				<path style="fill:#FFE0AA;" d="M221.2,695.8c1.1,0,3.1,6.4,0,6.4C218,702,219.6,695.6,221.2,695.8z"/>
				<path style="fill:#FFE0AA;" d="M220.9,716.4c1.1,0,3.1-6.4,0-6.4S219.6,716.4,220.9,716.4z"/>
				<path style="fill:#FFE0AA;" d="M213.6,698.7c0.7-0.7,6.7,2.4,4.4,4.7C216,705.3,212.7,699.6,213.6,698.7z"/>
				<path style="fill:#FFE0AA;" d="M228.3,713.3c0.7-0.7-2.2-6.9-4.4-4.7C221.6,710.9,227.1,714.2,228.3,713.3z"/>
				<path style="fill:#FFE0AA;" d="M210.5,705.8c0-1.1,6.4-3.1,6.4,0S210.5,707.3,210.5,705.8z"/>
				<path style="fill:#FFE0AA;" d="M231.1,706c0-1.1-6.4-3.1-6.4,0S231.1,707.6,231.1,706z"/>
				<path style="fill:#FFE0AA;" d="M213.4,713.3c-0.7-0.7,2.4-6.7,4.7-4.4C220.3,710.9,214.5,714.2,213.4,713.3z"/>
				<path style="fill:#FFE0AA;" d="M228.3,698.7c-0.7-0.7-6.9,2.2-4.7,4.4S229.1,699.8,228.3,698.7z"/>
			</g>
			<path style="fill:#FFE0AA;" d="M226.5,692.5c0.9,0.4,0.7,7.1-2.2,6S225.1,692,226.5,692.5z"/>
			<path style="fill:#FFE0AA;" d="M215.6,719.3c0.9,0.4,5.1-4.9,2.2-6C214.7,712.2,214.3,718.9,215.6,719.3z"/>
			<path style="fill:#FFE0AA;" d="M215.6,693.4c0.9-0.4,5.5,4.4,2.7,5.8C215.4,700.5,214.3,693.8,215.6,693.4z"/>
			<path style="fill:#FFE0AA;" d="M226.5,718.9c0.9-0.4,0.2-7.1-2.7-5.8C220.9,714.2,225.1,719.3,226.5,718.9z"/>
			<path style="fill:#FFE0AA;" d="M207.6,699.6c0.4-0.9,7.1,0.2,5.5,3.1C211.8,705.3,206.9,700.9,207.6,699.6z"/>
			<path style="fill:#FFE0AA;" d="M234.5,711.3c0.4-0.9-4.9-5.1-6-2.2C227.4,712,234,712.7,234.5,711.3z"/>
			<path style="fill:#FFE0AA;" d="M207.6,711.3c-0.4-0.9,4.4-5.5,5.8-2.7C214.7,711.6,208.1,712.7,207.6,711.3z"/>
			<path style="fill:#FFE0AA;" d="M234.2,700.5c-0.4-0.9-7.1-0.2-5.8,2.7C229.8,706,234.9,701.8,234.2,700.5z"/>
		</g>
		<path style="fill:#CFD8A6;" d="M230.5,682.9c3.3,4.9,5.8,10.4,5.8,16.4s-0.9,12.6-4.9,17.3c-3.6,4.2-8.7,6.7-14.2,7.3
			c-5.3,0.4-11.3-0.4-15.1-4.2c-1.8-1.8-2.9-3.8-4-6c-0.2-0.7-0.7-1.3-1.1-2c2.7,10.9,12.4,18.9,24,18.9c13.8,0,24.9-11.1,24.9-24.9
			C245.8,695.6,239.6,686.7,230.5,682.9z"/>
		<path style="fill:#FFFFFF;" d="M203,706.7c1.6,0.2,3.3,0.4,4.9,0.2c1.8-0.2,3.8-0.7,4.7-2.4c0.9-2,0.4-4,0.7-6
			c0.2-2,1.3-3.3,2.4-4.9c1.6-2,3.8-5.8,2.2-8.2c-0.2,0-0.2,0-0.4,0c-9.5,0-17.3,7.8-17.3,17.3c0,1.1,0.2,2.2,0.4,3.3
			C201.4,706.4,202.3,706.7,203,706.7z"/>
	</g>
</g>
<g>
	<g>
		<path style="fill:#FBE086;" d="M26.8,703.6c0,0-38.6,67,17.3,129.8c23.3,26.2,103.8,31.3,144,31.3c41.5,0,103-8,125.8-22.4
			c79.9-50.4,34.8-138.2,34.8-138.2L26.8,703.6z"/>
		<path style="fill:#F8DAB0;" d="M348.5,704.2h-45.3c-14.6,71.9-102.5,140.5-248.1,138.2c31.5,18.6,97.6,22.4,132.9,22.4
			c41.5,0,103-8,125.8-22.4C393.6,792.1,348.5,704.2,348.5,704.2z"/>
	</g>
	
		<polyline style="fill:none;stroke:#FBB479;stroke-width:12.1805;stroke-linecap:round;stroke-linejoin:round;stroke-miterlimit:10;" points="
		57,704.9 190.1,4.2 323,713.5 	"/>
</g>
</svg>
