<?xml version="1.0" encoding="utf-8"?>
<!-- Generator: Adobe Illustrator 23.1.0, SVG Export Plug-In . SVG Version: 6.00 Build 0)  -->
<svg version="1.1" id="Isolation_Mode" xmlns="http://www.w3.org/2000/svg" xmlns:xlink="http://www.w3.org/1999/xlink" x="0px"
	 y="0px" viewBox="0 0 411.3 821.2" style="enable-background:new 0 0 411.3 821.2;" xml:space="preserve">
<line style="fill:none;stroke:#FFFFFF;stroke-width:14.9671;stroke-linecap:round;stroke-linejoin:round;stroke-miterlimit:10;stroke-dasharray:0,32.8457;" x1="236.5" y1="619.7" x2="236.5" y2="0"/>
<g>
	<g>
		<g>
			<path style="fill:#579C43;" d="M52.6,537.5c0,0,75.4-7.1,105.7,84.9C158.3,622.5,58.7,613,52.6,537.5z"/>
			<path style="fill:#95C947;" d="M158.1,622.3c-30.3-91.8-105.7-84.7-105.7-84.7c0,0.2,0,0.4,0,0.6L158.1,622.3z"/>
		</g>
		<g>
			<path style="fill:#579C43;" d="M122.1,491.6c0,0,65.3,38.2,36.2,130.6C158.3,622.3,83.1,556.5,122.1,491.6z"/>
			<path style="fill:#95C947;" d="M158.3,622.1c29.1-92.2-36.2-130.4-36.2-130.4c-0.2,0.2-0.2,0.4-0.4,0.6L158.3,622.1z"/>
		</g>
		<g>
			<path style="fill:#579C43;" d="M22.5,616.7c0,0,52.1,55,135.4,5.9C157.9,622.7,76.9,564.1,22.5,616.7z"/>
			<path style="fill:#95C947;" d="M157.7,622.9c-83.3,48.9-135.2-6.1-135.2-6.1c0.2-0.2,0.4-0.4,0.4-0.4L157.7,622.9z"/>
		</g>
	</g>
	<path style="fill:#F68746;" d="M259.2,621.9c53,42.2,149,167.6,134,186.6s-159.9-46.1-213-88.5c-53-42.2-67.7-91.8-47.7-116.8
		C158.5,570.2,206.2,579.7,259.2,621.9z"/>
	<path style="fill:#FDC894;" d="M132.3,603.3c-2.2,2.8-4.2,6.1-5.3,9.5c15.4-11.5,34.8-13.5,53.8-9.1
		c12.1,2.8,85.1,28.7,172.8,146.1c9.3,12.3,7.9,33.3-9.1,40.6c-8.3,3.6-17.2,3.2-25.9,2c-2.6-0.4-5.3-0.8-7.9-1
		c40.8,16.8,76,26.1,82.9,17.4c15-19-80.9-144.3-134-186.6C206.2,579.7,158.5,570.2,132.3,603.3z"/>
	<g>
		<g>
			<path style="fill:#F26322;" d="M143.4,682c1-3.6,2.4-6.5,4-9.5s3.6-5.7,5.5-8.3c2.2-2.6,4.4-5.1,6.9-7.3c2.6-2.4,5.1-4.4,8.3-6.1
				l0.4,0.2l-12.3,15.8l-12.6,15.4L143.4,682z"/>
		</g>
	</g>
	<g>
		<g>
			<path style="fill:#F26322;" d="M182,682c1-3.6,2.6-6.7,4.2-9.7c1.8-3,3.8-5.7,5.7-8.5c2.2-2.6,4.4-5.1,6.9-7.5
				c2.6-2.4,5.3-4.6,8.5-6.3l0.4,0.2L195,666.4l-12.9,15.8L182,682z"/>
		</g>
	</g>
	<g>
		<g>
			<path style="fill:#F26322;" d="M196.3,623.8c0.8-3.4,2-6.1,3.6-8.9c1.4-2.8,3.2-5.1,5.1-7.7c2-2.4,4-4.6,6.3-6.7
				c2.4-2,4.8-4,7.9-5.3l0.4,0.2l-11.3,14.4L196.9,624L196.3,623.8z"/>
		</g>
	</g>
	<g>
		<g>
			<path style="fill:#F26322;" d="M224.6,653.7c1.2-4,3.2-7.5,5.1-10.9c2-3.4,4.4-6.5,6.7-9.5c2.4-3,4.9-5.9,7.9-8.7
				c2.8-2.8,5.9-5.3,9.5-7.3l0.4,0.2l-14.3,18.4l-14.6,18L224.6,653.7z"/>
		</g>
	</g>
	<g>
		<g>
			<path style="fill:#F26322;" d="M178.9,718.8c1-3.6,2.4-6.5,4-9.5s3.6-5.5,5.5-8.1c2.2-2.6,4.4-4.9,6.7-7.3
				c2.4-2.2,5.1-4.4,8.3-5.9l0.4,0.2l-12.1,15.6L179.3,719L178.9,718.8z"/>
		</g>
	</g>
	<g>
		<g>
			<path style="fill:#F26322;" d="M238.8,692.7c1.4-4,3.2-7.5,5.3-11.1c2-3.4,4.4-6.7,6.7-9.7c2.6-3,5.1-6.1,8.1-8.9
				c3-2.8,5.9-5.3,9.5-7.5l0.4,0.2l-14.6,18.8l-15,18.4L238.8,692.7z"/>
		</g>
	</g>
	<g>
		<g>
			<path style="fill:#F26322;" d="M224.8,749.3c1.2-3.8,2.8-7.1,4.8-10.3c1.8-3.2,4-6.1,6.3-9.1c2.4-2.8,4.8-5.7,7.5-8.1
				c2.8-2.6,5.5-4.9,9.1-6.9l0.4,0.2l-13.7,17.4l-13.9,17.2L224.8,749.3z"/>
		</g>
	</g>
	<g>
		<g>
			<path style="fill:#F26322;" d="M268.9,722.8c1-3.6,2.4-6.5,4.2-9.5c1.6-3,3.6-5.7,5.5-8.3c2.2-2.6,4.4-5.1,6.9-7.3
				c2.6-2.4,5.1-4.4,8.3-6.1l0.4,0.2l-12.3,15.8L269.3,723L268.9,722.8z"/>
		</g>
	</g>
	<g>
		<g>
			<path style="fill:#F26322;" d="M294.6,727.9c1.4-4.2,3.2-7.7,5.3-11.3c2-3.6,4.6-6.7,6.9-9.9c2.6-3.2,5.1-6.1,8.1-8.9
				s5.9-5.5,9.7-7.7l0.4,0.2l-14.8,19L295,728.1L294.6,727.9z"/>
		</g>
	</g>
	<g>
		<g>
			<path style="fill:#F26322;" d="M308.7,744c-1.2,3.8-2.8,7.1-4.6,10.3c-1.8,3.2-4,6.1-6.1,8.9c-2.4,2.8-4.8,5.5-7.3,7.9
				c-2.6,2.6-5.5,4.9-8.9,6.7l-0.4-0.2l13.3-17l13.7-16.8L308.7,744z"/>
		</g>
	</g>
	<g>
		<g>
			<path style="fill:#F26322;" d="M318,768.9c0.8-3.4,2.2-6.3,3.8-9.1c1.6-2.8,3.4-5.3,5.3-7.9c2-2.4,4.2-4.8,6.5-6.9
				c2.4-2.2,4.9-4.2,8.1-5.7l0.4,0.2l-11.7,15l-11.8,14.6L318,768.9z"/>
		</g>
	</g>
	<g>
		<g>
			<path style="fill:#F26322;" d="M349.1,768.3c-0.8,3.4-2,6.1-3.6,8.9c-1.4,2.8-3.2,5.1-4.9,7.5c-2,2.4-4,4.6-6.3,6.5
				s-4.8,4-7.7,5.3l-0.4-0.2l11.1-14.3l11.5-14.1L349.1,768.3z"/>
		</g>
	</g>
	<g>
		<g>
			<path style="fill:#F26322;" d="M366.5,792.9c0.2-2.6,1-4.8,2-6.7s2.2-3.8,3.4-5.5c1.4-1.6,3-3.2,4.8-4.6c1.8-1.4,3.8-2.6,6.1-3.4
				l0.4,0.2l-7.9,10.3l-8.3,10.1L366.5,792.9z"/>
		</g>
	</g>
	<path style="fill:#FFFFFF;" d="M233.5,723.4c-6.1-17.8-23.9-26.1-38-37.2c-12.7-9.9-29.9-19.6-36.6-35c-4.2-9.5-6.3-22-1.2-31.3
		c-4.4,2.2-8.3,5.5-11.9,9.7c-13.5,17-3.6,50.5,32.3,79.2c12.3,9.9,32.1,21.6,53,32.1C233.9,735.1,235.5,728.9,233.5,723.4z"/>
</g>
</svg>
