<?xml version="1.0" encoding="utf-8"?>
<!-- Generator: Adobe Illustrator 23.1.0, SVG Export Plug-In . SVG Version: 6.00 Build 0)  -->
<svg version="1.1" id="Isolation_Mode" xmlns="http://www.w3.org/2000/svg" xmlns:xlink="http://www.w3.org/1999/xlink" x="0px"
	 y="0px" viewBox="0 0 677.9 989.1" style="enable-background:new 0 0 677.9 989.1;" xml:space="preserve">
<g>
	<g>
		<g>
			<path style="fill:#713C18;" d="M265.7,979.8c-5.1-0.5-9.6-4.5-10.2-10.2c0-0.5-1.7-17,1.7-32.8c1.1-4.5,4.5-7.9,9.1-8.6
				c15.8-2.8,27.7-10.7,36.3-23.3c24.4-36.3,11.9-99.1,11.9-100.3c-1.1-6.3,2.8-11.9,9.1-13.5c6.3-1.1,11.9,2.8,13.5,9.1
				c0.5,2.8,14.2,73.1-15.3,117.3c-10.2,15.3-24.9,26.1-42.5,31.2c-1.1,10.2-0.5,19.3-0.5,19.3c0.5,6.3-4,11.9-10.2,12.5
				C267.3,980.5,266.2,980.5,265.7,979.8z"/>
		</g>
		<g>
			<path style="fill:#713C18;" d="M231.5,905.1c-0.5,0-0.5,0-1.1,0c-9.6-1.1-19.8-9.1-31.7-23.8c0,0.5,0,1.1,0,1.7
				c-0.5,6.3-6.3,10.7-12.5,10.2c-6.3-0.5-10.7-6.3-10.2-12.5c0-1.7,2.3-18.7,13.5-28.9c2.3-2.3,5.6-2.8,9.1-2.8
				c3.4,0.5,6.3,2.3,7.9,5.1c15.3,22.6,23.8,27.7,26.7,28.9c3.4-7.9,5.6-36.3,5.1-63.5c0-6.3,4.5-11.4,10.7-11.4s11.4,4.5,11.4,10.7
				c1.1,57.9-6.8,77-13.5,82.8C242.4,904,237.3,905.6,231.5,905.1z M232.2,883.5L232.2,883.5L232.2,883.5z"/>
		</g>
	</g>
	<g>
		<g>
			<g>
				<path style="fill:#8AA03B;" d="M263.9,499.7c0,0-119.1-24.4-142.3-60.7c-23.3-36.3,14.2-75.4,69.1-39.1
					c-51.6-76-30-275.5,78.8-346.4s81.6,19.8,81.6,19.8s135-91.1,256.3-41.8c121.2,48.8,49.8,184.7-119.6,242.6
					c85.6,23.3,69.1,91.2-75.4,137.7c23.8,7.9-11.9,47.7-60.7,47.7C303,459.5,263.9,499.7,263.9,499.7z"/>
				<g>
					<path style="fill:#B9C433;" d="M250.8,381.3v-11.9c0.5-4,0.5-7.9,1.7-11.9c1.7-7.9,4-15.8,9.1-23.3c4.5-6.8,13-13,23.3-12.5
						c5.1,0.5,9.6,2.8,13,6.8s5.1,8.6,5.1,13.5l-7.9-2.8c13-18.1,28.4-34.6,47-47c9.1-6.3,19.3-11.9,30-15.3
						c10.7-4,22.6-6.3,34.6-5.1c2.8,0.5,6.3,0.5,9.1,1.7l4.5,1.1c1.7,0.5,3.4,1.1,4.5,1.7c3.4,1.7,6.3,4,7.9,7.4
						c2.3,3.4,2.8,7.4,2.8,10.7c0,6.8-2.3,13-5.1,18.1s-6.3,10.2-9.6,14.2c-7.4,9.1-15.3,16.5-24.4,23.3s-18.7,12.5-29.5,16.5
						l-1.1-6.3c5.6,0.5,11.9,2.8,16.5,6.3c5.1,3.4,8.6,9.1,9.6,14.7c1.1,6.3-1.1,11.9-4,16.5c-3.4,4.5-7.4,7.9-11.9,11.4
						c4-3.4,7.9-7.4,10.2-12.5c2.3-4.5,3.4-10.2,2.3-14.7s-4.5-8.6-8.6-11.4c-4-2.3-9.1-4-14.2-4l-12.5-0.5l11.4-5.6
						c18.7-9.6,35.8-23.3,48.2-39.7c2.8-4,5.6-8.6,7.9-13s3.4-9.1,3.4-13c0-4-1.7-6.3-5.1-7.9c-0.5-0.5-1.7-0.5-2.8-1.1l-3.4-1.1
						c-2.3-0.5-4.5-0.5-7.4-1.1c-19.8-1.1-40.2,6.8-57.2,18.1c-17.6,11.4-32.8,26.7-46.5,43.1l-7.4,8.6l-0.5-11.4
						c0-2.8-1.1-6.3-2.8-8.6c-1.7-2.3-4.5-4-7.9-4.5c-6.3-1.1-13,2.8-18.1,8.6c-4.5,5.6-7.9,13-10.2,20.4c-1.1,4-1.7,7.9-2.8,11.4
						L250.8,381.3z"/>
				</g>
			</g>
			<g>
				<g>
					
						<ellipse transform="matrix(0.9997 -2.538253e-02 2.538253e-02 0.9997 -16.4558 7.2132)" style="fill:#F04A3C;" cx="275.9" cy="651.8" rx="224" ry="181.4"/>
				</g>
				<g>
					<path style="fill:#F7A8A8;" d="M304.8,712.3c7.9,0,13.5,6.8,13,14.7l-1.7,11.9l-1.7,13l-1.1,6.8l-0.5,4c0,1.7-0.5,3.4-1.1,5.1
						c-2.3,5.6-5.6,9.6-9.1,13c-1.7,1.7-4,3.4-5.6,4.5c-1.1,0.5-2.3,1.1-3.4,1.7c-1.1,0.5-2.3,1.1-2.8,1.7c-2.8,1.1-5.6,4.5-7.9,8.6
						c-1.7,4-3.4,7.9-4,12.5c-0.5-4.5-0.5-9.1,0.5-13.5c1.1-4.5,2.8-9.6,6.8-13c1.1-1.1,1.7-1.7,2.3-2.3c0.5-0.5,1.1-1.1,1.7-2.3
						c1.1-1.7,2.3-3.4,3.4-4.5c1.7-3.4,3.4-7.4,3.4-10.2l-5.1-36.3C290.6,719.1,296.8,712.3,304.8,712.3L304.8,712.3z"/>
					<g>
						<g>
							<path style="fill:#1B2323;" d="M301.9,688.5c-5.6,0-10.7-2.3-15.3-5.6c-4.5-4-7.4-9.6-7.4-15.8c0-2.3,1.7-4,4-4s4,1.7,4,4
								c0,4,1.7,7.4,4.5,10.2s6.8,4,10.7,4c4,0,7.4-1.7,10.2-4.5c2.8-2.8,4-6.8,4-10.7c0-2.3,1.7-4,4-4s4,1.7,4,4
								c0.5,6.3-1.7,11.9-5.6,16.5c-4,4.5-9.6,7.4-15.8,7.4C302.5,688.5,302.5,688.5,301.9,688.5z"/>
						</g>
						<path style="fill:#1B2323;" d="M245.7,611.4c-1.7,6.3-5.1,11.9-9.6,17s-10.7,9.1-18.7,10.2c-7.9,1.1-15.3-2.3-21-6.3
							c-5.6-4-10.2-9.6-13.5-15.3l3.4,1.1c-4,0.5-7.4,0.5-10.7-0.5c-3.4-1.1-6.3-2.8-8.6-5.1c3.4,1.1,6.3,1.1,9.6,1.1
							c1.7,0,2.8,0,4.5-0.5c1.1,0,2.8-0.5,4-1.1l1.7-0.5l1.7,1.7c4.5,4.5,8.6,8.6,13.5,11.4c4.5,2.8,9.6,5.1,14.7,4.5
							c5.1,0,10.2-2.3,15.3-5.6C236.7,620.4,241.3,616,245.7,611.4z"/>
						<g>
							<path style="fill:#1B2323;" d="M355.2,597.3c-5.1,13,1.1,27.7,14.7,32.8c13.5,5.1,27.7-1.1,32.8-14.7
								c5.1-13.5-1.1-27.7-14.7-32.8C374.5,577.5,360.3,584.3,355.2,597.3z"/>
							<path style="fill:#1B2323;" d="M379,606.4c4.5,7.4,14.7,8.6,22.1,5.1c7.4-3.4,13.5-11.9,10.7-19.8c-3.4,2.3-6.3,4-9.1,5.1
								c-2.3,1.1-5.1,2.3-7.4,3.4s-4.5,2.3-7.4,2.8C385.8,604.6,382.9,605.2,379,606.4z"/>
						</g>
					</g>
				</g>
			</g>
		</g>
		<g>
			<g>
				<g>
					<path style="fill:#713C18;" d="M460.6,672.7c-4.5-1.1-7.9-5.1-8.6-10.2c-0.5-6.3,4-11.9,10.2-12.5c22.6-1.7,58.4-9.1,66.9-19.3
						c9.1-10.7,13-48.2,13.5-71.4c0-6.3,5.1-11.4,11.4-11.4c6.3,0,11.4,5.1,11.4,11.4c0,10.7-1.1,65.2-18.7,86.1
						c-18.1,21-71.9,26.1-82.8,27.2C463.4,673.2,461.8,673.2,460.6,672.7z"/>
				</g>
				<g>
					<path style="fill:#713C18;" d="M559.3,571.1L559.3,571.1c1.1,1.7,3.4,2.3,5.6,1.7l17.6-10.2c1.7-1.1,2.3-3.4,1.7-5.6l0,0
						c-1.1-1.7-3.4-2.3-5.6-1.7L561,565.5C559.3,566.7,558.1,569.5,559.3,571.1z"/>
					<path style="fill:#713C18;" d="M558.6,563.8L558.6,563.8c1.7,1.7,4,1.7,5.6,0l14.2-14.7c1.7-1.7,1.7-4,0-5.6l0,0
						c-1.7-1.7-4-1.7-5.6,0l-14.2,14.7C557,559.3,557,562.1,558.6,563.8z"/>
					<path style="fill:#713C18;" d="M554.1,561.6L554.1,561.6c2.3,0.5,4.5,0,5.1-2.3l7.4-18.7c0.5-2.3,0-4.5-2.3-5.1l0,0
						c-2.3-0.5-4.5,0-5.1,2.3l-7.4,18.7C551.3,558.7,552.5,561,554.1,561.6z"/>
					<path style="fill:#713C18;" d="M549.5,561L549.5,561c2.3,0,4-2.3,4-4l-1.1-20.4c0-2.3-2.3-4-4-4l0,0c-2.3,0-4,2.3-4,4l1.1,20.4
						C545.6,559.3,547.9,561,549.5,561z"/>
					<path style="fill:#713C18;" d="M555.3,564.4L555.3,564.4c1.1-1.7,0.5-4.5-1.7-5.6L536,548.5c-1.7-1.1-4.5-0.5-5.6,1.7l0,0
						c-1.1,1.7-0.5,4.5,1.7,5.6l17.6,10.2C551.8,566.7,554.1,566.1,555.3,564.4z"/>
					<path style="fill:#713C18;" d="M540,558.7c-2.3,8.6,3.4,17.6,12.5,19.8c9.1,2.3,18.1-2.3,20.4-10.7c2.3-8.6-3.4-17.6-12.5-19.8
						C551.3,545.1,542.3,550.2,540,558.7z"/>
				</g>
			</g>
			<g>
				<g>
					<path style="fill:#713C18;" d="M89.3,639.7c-1.1,0-1.7-0.5-2.8-1.1c-61.2-34-70.3-61.8-71.4-66.9
						c-6.3-29.5,10.7-68.6,11.4-70.3c2.3-5.6,9.1-8.6,14.7-5.6c5.6,2.3,8.6,9.1,5.6,14.7c-4,9.6-13.5,37.9-9.6,56.7
						c2.8,14.7,36.8,39.1,60,51.6c5.6,2.8,7.4,9.6,4.5,15.3C99.6,638.6,93.8,640.9,89.3,639.7z"/>
				</g>
				<g>
					<path style="fill:#713C18;" d="M27,506.6L27,506.6c-1.7,1.1-4.5,0.5-5.6-1.7l-10.2-17.6c-1.1-1.7-0.5-4.5,1.7-5.6l0,0
						c1.7-1.1,4.5-0.5,5.6,1.7L28.7,501C29.2,503.2,28.7,505.5,27,506.6z"/>
					<path style="fill:#713C18;" d="M31.5,500.9L31.5,500.9c-2.3,0.5-4.5-0.5-5.1-2.8l-5.1-19.8c-0.5-2.3,0.5-4.5,2.8-5.1l0,0
						c2.3-0.5,4.5,0.5,5.1,2.8l5.1,19.8C34.9,498.1,33.8,500.4,31.5,500.9z"/>
					<path style="fill:#713C18;" d="M36.1,500.9L36.1,500.9c-2.3-0.5-4-2.3-3.4-4.5l2.8-20.4c0.5-2.3,2.3-4,4.5-3.4l0,0
						c2.3,0.5,4,2.3,3.4,4.5l-2.8,20.4C40,499.7,38.2,501.5,36.1,500.9z"/>
					<path style="fill:#713C18;" d="M40.5,502.7L40.5,502.7c-1.7-1.1-2.3-3.4-1.1-5.6l10.7-17c1.1-1.7,3.4-2.3,5.6-1.1l0,0
						c1.7,1.1,2.3,3.4,1.1,5.6l-10.7,17C44.5,503.2,42.3,503.7,40.5,502.7z"/>
					<path style="fill:#713C18;" d="M33.8,502.7L33.8,502.7c0-2.3,1.7-4,4-4h20.4c2.3,0,4,1.7,4,4l0,0c0,2.3-1.7,4-4,4H37.7
						C36.1,506.6,33.8,504.8,33.8,502.7z"/>
					<path style="fill:#713C18;" d="M50.3,505.5C48,514,38.9,519,29.8,516.2c-9.1-2.3-14.7-11.4-12.5-19.8
						c2.3-8.6,11.4-13.5,20.4-10.7S52.4,496.9,50.3,505.5z"/>
				</g>
			</g>
		</g>
	</g>
</g>
</svg>
