<svg width="312" height="216" viewBox="0 0 312 216" fill="none" xmlns="http://www.w3.org/2000/svg">
    <g clip-path="url(#clip0_3482_488)">
        <path d="M312 204.094H0V204.281H312V204.094Z" fill="#EBEBEB"/>
        <path d="M280.738 214.13H260.084V214.317H280.738V214.13Z" fill="#EBEBEB"/>
        <path d="M206.669 215.875H201.24V216.062H206.669V215.875Z" fill="#EBEBEB"/>
        <path d="M259.459 208.395H247.479V208.582H259.459V208.395Z" fill="#EBEBEB"/>
        <path d="M59.7166 209.392H32.7598V209.579H59.7166V209.392Z" fill="#EBEBEB"/>
        <path d="M69.2007 209.392H65.2695V209.579H69.2007V209.392Z" fill="#EBEBEB"/>
        <path d="M140.525 212.073H82.0566V212.26H140.525V212.073Z" fill="#EBEBEB"/>
        <path d="M147.887 176.291H27.3927C25.4583 176.291 23.8359 174.67 23.8359 172.738V3.55325C23.8359 1.62078 25.4583 0 27.3927 0H147.887C149.822 0 151.444 1.62078 151.444 3.55325V172.738C151.444 174.732 149.884 176.291 147.887 176.291ZM27.3927 0.187013C25.5207 0.187013 23.9607 1.68312 23.9607 3.61558V172.8C23.9607 174.67 25.4583 176.229 27.3927 176.229H147.887C149.759 176.229 151.319 174.732 151.319 172.8V3.55325C151.319 1.68312 149.822 0.124675 147.887 0.124675H27.3927V0.187013Z" fill="#EBEBEB"/>
        <path d="M282.86 176.291H162.365C160.431 176.291 158.809 174.67 158.809 172.738V3.55325C158.809 1.62078 160.431 0 162.365 0H282.86C284.794 0 286.417 1.62078 286.417 3.55325V172.738C286.417 174.732 284.857 176.291 282.86 176.291ZM162.365 0.187013C160.493 0.187013 158.933 1.68312 158.933 3.61558V172.8C158.933 174.67 160.431 176.229 162.365 176.229H282.86C284.732 176.229 286.292 174.732 286.292 172.8V3.55325C286.292 1.68312 284.794 0.124675 282.86 0.124675H162.365V0.187013Z" fill="#EBEBEB"/>
        <path d="M245.294 13.2156H63.2109V98.3065H245.294V13.2156Z" fill="#E6E6E6"/>
        <path d="M247.977 13.2156H64.459V98.3065H247.977V13.2156Z" fill="#F0F0F0"/>
        <path d="M245.294 98.3065H63.2109V102.67H245.294V98.3065Z" fill="#E6E6E6"/>
        <path d="M252.595 98.3065H69.0762V102.67H252.595V98.3065Z" fill="#F0F0F0"/>
        <path d="M244.154 94.4826L244.154 17.0593L68.3111 17.0593L68.3111 94.4826L244.154 94.4826Z" fill="#FAFAFA"/>
        <path d="M87.1719 94.5039L97.9047 17.0805H114.565L103.895 94.5039H87.1719Z" fill="white"/>
        <path d="M70.0758 90.6389C69.951 90.6389 69.8262 90.5143 69.8262 90.3896V19.574C69.8262 19.4493 69.951 19.3246 70.0758 19.3246C70.2006 19.3246 70.3254 19.4493 70.3254 19.574V90.3896C70.3878 90.5766 70.263 90.6389 70.0758 90.6389Z" fill="#F0F0F0"/>
        <path d="M107.453 94.5039L118.124 17.0805H124.676L113.943 94.5039H107.453Z" fill="white"/>
        <path d="M244.166 94.4706L244.166 17.0472H243.667V94.4706H244.166Z" fill="#E6E6E6"/>
        <path opacity="0.6" d="M248.913 22.8156H66.8296L66.5176 18.5766H248.601L248.913 22.8156Z" fill="#EBEBEB"/>
        <path opacity="0.6" d="M248.913 29.8598H66.8296L66.5176 25.6208H248.601L248.913 29.8598Z" fill="#EBEBEB"/>
        <path opacity="0.6" d="M248.913 36.9039H66.8296L66.5176 32.6026H248.601L248.913 36.9039Z" fill="#EBEBEB"/>
        <path opacity="0.6" d="M248.913 43.948H66.8296L66.5176 39.6467H248.601L248.913 43.948Z" fill="#EBEBEB"/>
        <path opacity="0.6" d="M248.913 50.9922H66.8296L66.5176 46.6909H248.601L248.913 50.9922Z" fill="#EBEBEB"/>
        <path opacity="0.6" d="M248.913 58.0363H66.8296L66.5176 53.735H248.601L248.913 58.0363Z" fill="#EBEBEB"/>
        <path d="M273.936 119.688H246.168V204.094H273.936V119.688Z" fill="#E6E6E6"/>
        <path d="M266.511 204.094H273.937V192.499H258.711L266.511 204.094Z" fill="#FAFAFA"/>
        <path d="M198.182 119.688H170.414V204.094H198.182V119.688Z" fill="#E6E6E6"/>
        <path d="M273.937 119.688H191.693V200.104H273.937V119.688Z" fill="#FAFAFA"/>
        <path d="M199.119 204.094H191.693V192.499H206.919L199.119 204.094Z" fill="#FAFAFA"/>
        <path d="M268.133 149.673H197.434V169.808H268.133V149.673Z" fill="#F0F0F0"/>
        <path d="M268.133 174.109H197.434V194.244H268.133V174.109Z" fill="#F0F0F0"/>
        <path d="M254.155 151.855H211.474C209.851 151.855 208.541 150.546 208.541 148.925V147.927H257.088V148.925C257.088 150.546 255.778 151.855 254.155 151.855Z" fill="#FAFAFA"/>
        <path d="M268.133 125.236H197.434V145.372H268.133V125.236Z" fill="#F0F0F0"/>
        <path d="M254.155 127.418H211.474C209.851 127.418 208.541 126.109 208.541 124.488V123.491H257.088V124.488C257.088 126.109 255.778 127.418 254.155 127.418Z" fill="#FAFAFA"/>
        <path d="M254.155 176.229H211.474C209.851 176.229 208.541 174.92 208.541 173.299V172.301H257.088V173.299C257.088 174.92 255.778 176.229 254.155 176.229Z" fill="#FAFAFA"/>
        <path d="M33.3211 137.704C34.8811 133.278 47.0491 139.325 52.0411 146.681C55.3483 151.605 57.3451 156.842 58.2811 163.823C58.1563 155.782 58.0315 147.179 57.9067 139.075C56.9083 137.018 54.5995 132.405 52.9771 128.665C47.4859 116.322 34.4443 111.709 29.9515 103.917C24.0235 93.6935 24.0859 78.3584 29.0779 72.8104C33.4459 68.0104 47.9227 100.488 49.5451 104.166C55.1611 116.634 56.7835 125.922 57.8443 134.899C57.7195 127.294 57.5947 120.249 57.5323 114.826C57.2203 97.1844 56.8459 91.5117 56.6587 89.7662C56.0347 88.8935 55.3483 87.8961 54.9115 87.3974C51.4171 82.9091 43.6171 77.5481 39.7483 71.0026C34.0699 61.4649 35.0059 49.9948 38.9995 45.7558C43.1803 41.3299 50.5435 51.8026 54.4123 62.2753C58.3435 72.6857 56.6587 82.7221 57.7195 91.387C57.9691 93.0701 58.1563 99.5533 58.4059 108.53C59.5915 98.8675 61.9627 92.4468 66.3307 86.4C71.6971 78.9818 76.3771 70.0052 80.8075 71.1273C85.2379 72.3117 82.8667 84.2182 79.3723 92.5714C76.2523 100.052 60.8395 107.47 58.5931 113.455C58.8427 125.61 59.0923 140.945 59.2795 155.283C60.4651 147.865 59.6539 147.242 64.6459 135.958C67.5787 129.226 79.7467 120.935 81.1819 125.548C82.6171 130.099 80.4331 138.888 75.8779 145.06C72.1963 149.984 64.0219 149.984 62.0875 153.039C61.6507 153.725 60.1531 156.468 59.3419 158.088C59.5291 175.543 59.6539 191.003 59.5291 196.239L58.7179 196.301C58.7803 194.93 58.6555 186.078 58.5307 174.296C56.5339 168.062 43.1179 164.384 38.9995 157.839C34.5691 150.982 31.4491 143.065 33.3211 137.704Z" fill="#E6E6E6"/>
        <path d="M45.926 204.094H71.6348C73.07 204.094 74.2556 203.096 74.5052 201.725L76.3148 192.748H41.1836L42.9932 201.725C43.3052 203.158 44.4908 204.094 45.926 204.094Z" fill="#F0F0F0"/>
        <path d="M40.4971 196.239H77.1259C77.9995 196.239 78.7483 195.553 78.8107 194.68L79.5595 188.01C79.6843 187.013 78.8731 186.078 77.8747 186.078H39.7483C38.7499 186.078 37.9387 186.951 38.0635 188.01L38.8123 194.68C38.8747 195.616 39.6235 196.239 40.4971 196.239Z" fill="#F0F0F0"/>
        <path d="M110.945 163.761H88.9805V204.156H110.945V163.761Z" fill="#E0E0E0"/>
        <path d="M166.981 204.094H93.4114L85.6738 149.299H159.243L166.981 204.094Z" fill="#E6E6E6"/>
        <path d="M177.715 204.094H96.345L88.6074 149.299H169.977L177.715 204.094Z" fill="#F0F0F0"/>
        <path d="M104.269 195.553L97.7793 157.901H161.989L168.541 195.553H104.269Z" fill="white"/>
        <path d="M131.912 195.553L110.072 157.901H116.936L138.714 195.553H131.912Z" fill="#FAFAFA"/>
        <path d="M141.647 195.553L119.807 157.901H131.475L153.315 195.553H141.647Z" fill="#FAFAFA"/>
        <path d="M220.647 161.081H91.7905C88.4833 161.081 85.6129 158.4 85.3009 155.096L78.0625 67.948C77.8129 64.6441 80.2465 61.9636 83.5537 61.9636H212.41C215.717 61.9636 218.587 64.6441 218.899 67.948L226.138 155.096C226.387 158.4 223.891 161.081 220.647 161.081Z" fill="white"/>
        <path d="M220.647 161.33H91.7912C88.3592 161.33 85.364 158.525 85.052 155.158L77.8136 68.0104C77.6888 66.3273 78.188 64.7688 79.3112 63.5844C80.372 62.4 81.932 61.7766 83.5544 61.7766H212.41C215.842 61.7766 218.838 64.5818 219.15 67.948L226.388 155.096C226.513 156.779 226.014 158.338 224.89 159.522C223.767 160.706 222.27 161.33 220.647 161.33ZM83.5544 62.2753C82.0568 62.2753 80.684 62.8364 79.6856 63.9584C78.6872 65.0182 78.188 66.4519 78.3128 68.0104L85.5512 155.158C85.8008 158.338 88.6088 160.894 91.7912 160.894H220.647C222.145 160.894 223.518 160.332 224.516 159.21C225.514 158.151 226.014 156.717 225.889 155.158L218.65 68.0104C218.401 64.8312 215.593 62.2753 212.41 62.2753H83.5544Z" fill="#FF5757"/>
        <path d="M212.347 62.0259H83.5537C80.2465 62.0259 77.8129 64.7065 78.0625 68.0104H218.837C218.587 64.7065 215.655 62.0259 212.347 62.0259Z" fill="#FF5757"/>
        <path d="M86.5495 65.0182C86.6119 65.7039 86.0503 66.3273 85.3639 66.3273C84.6775 66.3273 84.0535 65.7663 83.9911 65.0182C83.9287 64.2701 84.4903 63.7091 85.1767 63.7091C85.8631 63.7091 86.4871 64.2701 86.5495 65.0182Z" fill="white"/>
        <path d="M91.7916 65.0182C91.854 65.7039 91.2924 66.3273 90.6061 66.3273C89.9197 66.3273 89.2957 65.7663 89.2333 65.0182C89.1709 64.3325 89.7325 63.7091 90.4188 63.7091C91.1052 63.7091 91.7293 64.2701 91.7916 65.0182Z" fill="white"/>
        <path d="M97.0319 65.0182C97.0943 65.7039 96.5327 66.3273 95.8463 66.3273C95.1599 66.3273 94.5359 65.7663 94.4735 65.0182C94.4111 64.3325 94.9727 63.7091 95.6591 63.7091C96.3455 63.7091 96.9695 64.2701 97.0319 65.0182Z" fill="white"/>
        <path d="M209.414 149.673H101.088C98.4672 149.673 96.1584 147.553 95.9712 144.935L90.9168 84.1558C90.7296 81.5376 92.664 79.4182 95.2848 79.4182H203.674C206.294 79.4182 208.603 81.5376 208.79 84.1558L213.845 144.935C214.032 147.553 212.035 149.673 209.414 149.673Z" fill="#F0F0F0"/>
        <path opacity="0.1" d="M175.907 90.0779L142.335 130.473C137.718 136.021 140.651 144.436 147.702 145.995L202.177 157.714C209.727 159.335 215.967 151.917 213.097 144.748L192.193 92.5714C189.51 85.8389 180.587 84.4675 175.907 90.0779Z" fill="#263238"/>
        <path opacity="0.1" d="M101.214 95.6883L89.4826 127.169C87.9226 131.345 91.2922 135.771 95.785 135.335L129.918 131.969C134.723 131.47 137.094 125.922 134.099 122.182L111.635 94.0675C108.702 90.3272 102.836 91.2623 101.214 95.6883Z" fill="#263238"/>
        <path d="M187.513 79.8545L156.126 125.361C151.82 131.532 155.627 140.073 163.115 141.07L220.834 148.738C228.822 149.797 234.812 141.506 231.193 134.275L204.86 81.1013C201.428 74.2441 191.881 73.5584 187.513 79.8545Z" fill="#FFB902"/>
        <path d="M164.488 137.08C162.366 136.831 160.556 135.46 159.62 133.527C158.684 131.595 158.747 129.475 159.932 127.792L191.382 82.161C192.505 80.4779 194.44 79.6675 196.561 79.9792C198.683 80.2285 200.492 81.6 201.428 83.5324L227.824 136.893C228.76 138.826 228.697 140.945 227.512 142.629C226.388 144.312 224.454 145.122 222.332 144.81L164.488 137.08Z" fill="white"/>
        <path d="M193.815 96.0623L197.496 96.561C199.867 96.8727 201.677 98.9921 201.552 101.361L201.303 106.161C201.303 106.348 201.303 106.535 201.24 106.66L198.619 121.122C198.245 123.179 196.311 124.551 194.189 124.239C192.005 123.927 190.258 122.119 190.133 119.938L189.072 105.039C189.072 104.852 189.072 104.665 189.072 104.54L189.322 99.7402C189.447 97.3714 191.506 95.7506 193.815 96.0623ZM193.565 128.229L194.563 128.353C196.685 128.665 198.307 130.535 198.183 132.654C198.058 134.774 196.248 136.208 194.189 135.896L193.191 135.771C191.069 135.46 189.447 133.59 189.571 131.47C189.634 129.413 191.443 127.917 193.565 128.229Z" fill="#FFB902"/>
        <path d="M113.256 86.8363L104.645 119.501C103.522 123.803 107.266 127.854 111.696 126.982L145.142 120.436C149.822 119.501 151.694 113.766 148.387 110.338L123.552 84.2181C120.245 80.7896 114.442 82.2233 113.256 86.8363Z" fill="#FBC343"/>
        <path d="M111.633 124.364C110.447 124.613 109.137 124.177 108.263 123.241C107.39 122.306 107.015 120.997 107.327 119.813L115.939 87.0857C116.251 85.9012 117.187 85.0285 118.372 84.8415C119.558 84.5922 120.868 85.0285 121.742 85.9636L146.639 112.145C147.513 113.08 147.887 114.39 147.575 115.574C147.263 116.758 146.327 117.631 145.142 117.818L111.633 124.364Z" fill="white"/>
        <path d="M119.995 94.7533L122.116 94.3169C123.489 94.0675 124.924 94.9403 125.299 96.374L126.11 99.2416C126.11 99.3662 126.172 99.4286 126.172 99.5533L127.483 108.53C127.67 109.839 126.859 110.961 125.611 111.21C124.363 111.46 123.052 110.712 122.553 109.465L119.121 100.925C119.059 100.8 119.059 100.738 118.996 100.613L118.185 97.7455C117.811 96.374 118.622 95.0026 119.995 94.7533ZM125.985 113.642L126.547 113.517C127.795 113.268 129.043 114.078 129.355 115.325C129.667 116.571 128.98 117.756 127.732 118.005L127.171 118.13C125.923 118.379 124.675 117.569 124.363 116.322C124.051 115.075 124.799 113.829 125.985 113.642Z" fill="#FBC343"/>
    </g>
    <defs>
        <clipPath id="clip0_3482_488">
            <rect width="312" height="216" fill="white"/>
        </clipPath>
    </defs>
</svg>
