<svg xmlns="http://www.w3.org/2000/svg" width="467" height="467" viewBox="144 355.95 467 467">
    <g data-name="CompositeLayer">
        <path
            d="M498.37 819.689c-1.284-.173-2.74-.6-4.366-1.285-3.082-1.456-4.366-4.708-4.366-10.188v-25.94h-5.137c-.941 0-1.455-.428-1.455-1.37v-8.303c0-.856.514-1.285 1.455-1.285h5.137v-9.074c0-.685.428-1.114 1.198-1.37l12.414-3.254c.77-.256 1.284.342 1.284 1.37v12.328h7.363c.94 0 1.454.429 1.454 1.285v8.303c0 .942-.514 1.37-1.454 1.37h-7.363v20.547c0 3.51 1.199 4.28 4.88 4.28h3.252c.943 0 1.457.429 1.457 1.285v8.902c0 .943-.514 1.541-1.457 1.713-3.339.6-6.164.941-8.474.941-2.483 0-4.452-.084-5.822-.255Zm-58.388-4.624c-2.996-3.338-4.537-9.931-4.537-19.777 0-9.93 1.541-16.521 4.537-19.776 2.997-3.338 8.99-4.965 17.98-4.965 8.818 0 14.64 1.627 17.55 4.88 2.996 3.253 4.452 9.76 4.452 19.605v2.655c0 1.797-.6 2.31-2.57 2.31h-26.71c.086 2.997.686 4.965 1.798 5.823 1.198.856 3.596 1.283 7.106 1.283h15.753c.856 0 1.284.429 1.284 1.285v8.731c0 .772-.428 1.285-1.2 1.457-4.28.94-10.101 1.368-17.463 1.368-8.99 0-14.983-1.626-17.98-4.879Zm10.617-24.143h14.383c0-5.736-1.884-7.533-7.02-7.533-5.223 0-7.363 1.797-7.363 7.533Zm-99.48 27.995c-.857-.086-1.284-.428-1.284-1.026v-63.695c0-.77.427-1.113 1.284-1.199a312.398 312.398 0 0 1 25.427-1.027c10.187 0 17.463 2.653 21.83 8.047 4.365 5.308 6.506 14.04 6.506 26.112 0 11.985-2.14 20.631-6.507 25.94-4.366 5.221-11.642 7.875-21.83 7.875-8.56 0-17.036-.342-25.426-1.027Zm14.554-12.755h10.873c8.99 0 12.328-5.737 12.328-20.033 0-14.382-3.425-20.375-12.586-20.375h-10.615v40.408Zm-127.39 12.755c-.856-.086-1.283-.428-1.283-1.026v-63.695c0-.77.427-1.113 1.283-1.199a312.392 312.392 0 0 1 25.426-1.027c10.188 0 17.466 2.653 21.832 8.047 4.365 5.308 6.506 14.04 6.506 26.112 0 11.985-2.14 20.631-6.506 25.94-4.366 5.221-11.644 7.875-21.832 7.875-8.56 0-17.035-.342-25.426-1.027Zm14.554-12.755h10.872c8.99 0 12.328-5.737 12.328-20.033 0-14.382-3.423-20.375-12.584-20.375h-10.616v40.408Zm161.292 13.354c-.856 0-1.284-.427-1.284-1.369v-45.802c0-.941.428-1.37 1.284-1.37h12.327c.857 0 1.285.429 1.285 1.37v45.802c0 .942-.428 1.369-1.285 1.369H414.13Zm-113.008 0c-.856 0-1.283-.427-1.283-1.369v-34.501c0-5.222 1.37-8.647 4.195-10.445 2.825-1.797 6.934-2.654 12.242-2.654 4.966 0 9.074.342 12.242 1.028.943.172 1.456.77 1.456 1.797v8.733c0 .857-.513 1.284-1.456 1.284h-8.475c-3.852 0-5.223.77-5.223 4.28v30.478c0 .942-.427 1.369-1.283 1.369h-12.415Zm110.525-61.725c0-4.88 3.168-7.791 8.733-7.791 5.392 0 8.56 2.911 8.56 7.791 0 4.88-3.168 7.876-8.56 7.876-5.565 0-8.733-2.825-8.733-7.876Z"
            fill="#fff" fill-rule="evenodd" data-name="Union 1" />
        <path
            d="M332.17 635.263c-.795-2.01-1.603-4.017-2.385-6.033-4.658-12.02-8.61-24.248-11.491-36.835-3.222-14.069-5.3-28.254-4.753-42.701.36-9.549 1.568-19.071 6.405-27.528 1.836-3.21 4.64-6.07 7.542-8.42 5.633-4.562 12.19-7.588 19.216-9.397 5.386-1.387 10.824-2.633 16.301-3.584 2.87-.499 5.876-.324 8.817-.275 2.22.037 3.053 1.493 1.933 3.554-1.636 3.01-3.38 5.983-5.328 8.798-4.22 6.098-7.392 12.704-9.992 19.613-6.583 17.495-9.698 35.66-10.934 54.262-.875 13.17-.587 26.303.659 39.386.883 9.268 2.525 18.481 4.22 27.646.99 5.354 2.862 10.546 2.8 16.085-.005.49.092 1.055-.115 1.452-.343.662-.793 1.541-1.385 1.724-.585.181-1.703-.167-2.066-.664-1.982-2.714-4.06-5.41-5.632-8.364-5.079-9.548-10.932-18.494-19.198-25.612-9.254-7.969-19.771-12.567-32.25-11.035-6.87.842-13.246 3.124-18.397 8.02-3.58 3.402-5.756 7.638-6.725 12.422-1.823 8.995.483 17.3 4.738 25.154 4.311 7.96 10.459 14.14 18.908 17.569a82.553 82.553 0 0 0 14.197 4.33c8.156 1.69 16.503 1.8 24.765 1.1 2.226-.188 4.454-.415 6.678-.687 4.664-.57 9.31-1.338 13.877-2.363 10.648-2.39 20.812-5.988 30.471-10.8a136.213 136.213 0 0 0 13.985-8.046c12.84-8.435 23.93-18.772 33.586-30.632 8.15-10.01 15.251-20.76 21.223-32.232 5.209-10.005 8.987-20.525 11.688-31.473 2.994-12.132 4.533-24.393 3.496-36.873-1.714-20.638-9.755-38.018-26.857-50.446-4.718-3.429-9.975-6.012-15.561-7.82-16.671-5.395-33.78-5.991-51.017-4.265-7.248.725-14.537 1.737-21.6 3.465-12.007 2.939-23.677 7-33.944 14.183-7.744 5.417-13.31 12.525-16.449 21.555-1.903 5.475-2.475 11.112-2.992 16.8-.068.743-.594 1.444-.908 2.164-.632-.52-1.588-.918-1.84-1.582-1.207-3.192-2.79-6.384-3.212-9.706-1.882-14.827 3.416-27.159 13.747-37.633 10.24-10.383 22.778-16.878 36.277-21.823 8.853-3.243 17.982-5.414 27.268-6.88 14.608-2.305 29.314-3.21 44.076-2.01 9.434.768 18.755 2.414 27.87 5.003 12.454 3.538 24.28 8.551 35.14 15.67 12.032 7.888 21.85 17.94 29.463 30.179 6.81 10.948 10.731 22.882 11.965 35.628.985 10.177.726 20.404-1.422 30.446-1.627 7.608-3.38 15.219-5.663 22.649-2.981 9.71-7.822 18.616-13.189 27.224-7.576 12.15-16.73 23.034-26.929 33.02-9.4 9.203-19.634 17.425-30.622 24.685-7.987 5.277-16.251 10.048-24.875 14.233-10.077 4.89-20.46 8.991-31.23 11.958-9.56 2.635-19.27 4.77-28.974 6.84a159.803 159.803 0 0 1-15.102 2.46c-7.85.902-15.758 1.254-23.7 1.166-9.111-.101-18.17-.896-27.045-2.95-11.813-2.735-22.925-7.204-32.698-14.563-8.577-6.46-15.24-14.526-19.931-24.2-5.355-11.041-7.413-22.655-5.18-34.748 2.88-15.607 11.646-26.602 26.658-32.334 11.411-4.356 23.008-4.87 34.929-2.287 10.67 2.31 19.984 7.09 27.818 14.542 3.656 3.477 6.62 7.682 9.898 11.557.146.173.298.341.447.512l.53-.253Z"
            fill="#fff" fill-rule="evenodd" data-name="Path 5336" />
    </g>
</svg>