<svg width="187" height="186" viewBox="0 0 187 186" fill="none" xmlns="http://www.w3.org/2000/svg">
    <g clip-path="url(#clip0)">
        <path
            d="M181.631 28.4418C182.875 30.0219 184.231 31.4891 185.87 32.7306C184.231 33.8592 182.875 35.2701 181.688 36.8501C180.614 35.2136 179.145 33.8028 177.619 32.6177C179.145 31.4327 180.501 30.0783 181.631 28.4418ZM179.427 32.5613C180.162 33.3514 180.953 34.1414 181.744 34.875C182.479 34.085 183.214 33.2949 183.948 32.5049C183.157 31.7713 182.422 31.0376 181.631 30.304C180.897 31.0941 180.162 31.8277 179.427 32.5613Z"
            fill="#62D0C5" />
        <path
            d="M90.6461 48.0802C91.9459 44.4685 97.9928 44.4121 99.1795 48.0802C96.3539 48.1366 93.4717 48.193 90.6461 48.0802Z"
            fill="#62D0C5" />
        <path
            d="M83.4691 52.4254C84.3168 50.9017 85.6165 49.1523 87.538 49.3216C92.4546 49.2652 97.3712 49.2652 102.288 49.3216C104.266 49.1523 105.509 50.9581 106.357 52.4818C108.278 56.037 109.295 59.9873 110.2 63.9375C99.9707 63.9375 89.7985 63.994 79.5697 63.9375C80.5304 59.9873 81.5476 55.9806 83.4691 52.4254Z"
            fill="#62D0C5" />
        <path
            d="M87.764 100.054C88.103 98.3611 91.0982 98.7561 90.8721 100.562C91.0417 104.174 90.8721 107.729 90.9286 111.34C89.7984 111.34 88.6682 111.34 87.5944 111.34C87.7074 107.616 87.3684 103.835 87.764 100.054Z"
            fill="#62D0C5" />
        <path
            d="M100.084 100.562C99.8577 98.7561 102.909 98.4175 103.248 100.111C103.588 103.835 103.305 107.616 103.361 111.397C102.231 111.397 101.101 111.397 100.027 111.397C100.084 107.729 99.9142 104.174 100.084 100.562Z"
            fill="#62D0C5" />
        <path
            d="M79.2871 115.968C90.081 115.855 100.931 115.855 111.725 115.968C110.708 121.272 109.691 126.69 107.204 131.543C106.3 133.18 105.057 135.268 102.853 135.042C97.9362 135.042 93.0196 135.098 88.1031 135.042C85.9556 135.211 84.6558 133.123 83.8081 131.487C81.3216 126.633 80.3043 121.272 79.2871 115.968Z"
            fill="#62D0C5" />
        <path
            d="M91.0417 136.566C93.9239 135.832 96.9191 136.34 99.8012 136.227C98.3884 139.952 92.9067 139.726 91.0417 136.566Z"
            fill="#62D0C5" />
        <path
            d="M59.1121 7.78755C85.3339 -3.78102 117.037 -2.03163 141.733 12.6407C141.168 14.3337 140.829 16.0831 140.603 17.8324C130.714 12.0764 119.863 7.90041 108.504 6.26388C91.2678 3.66801 73.2403 6.43318 57.6428 14.2208C40.5195 22.5727 26.4479 36.7936 18.1405 53.8925C10.2853 69.9756 7.68572 88.5982 10.8504 106.261C14.7498 128.778 28.0867 149.545 47.1315 162.298C47.188 164.33 47.1315 166.362 46.9054 168.393C35.942 161.396 26.4479 152.084 19.3273 141.193C9.15505 125.787 3.95589 107.221 4.52102 88.8239C4.9166 72.1201 10.0592 55.4726 19.3273 41.5339C28.8779 26.6923 43.0061 14.898 59.1121 7.78755Z"
            fill="white" />
        <path
            d="M143.316 19.7512C143.429 17.776 143.711 15.7445 144.22 13.8258C145.52 14.9544 146.876 15.9702 148.345 16.8731C164.452 28.1031 176.602 44.7506 182.649 63.3731C189.882 85.7767 188.13 111.058 177.336 132.051C169.764 147.457 157.557 160.493 142.864 169.353C123.028 181.429 98.3884 185.379 75.7268 180.244C66.5153 178.099 57.5863 174.77 49.505 169.917C49.7876 168.055 49.9571 166.192 49.9571 164.33C56.8516 168.337 64.0852 171.836 71.7709 173.98C92.3415 180.018 115.173 177.874 134.33 168.224C151.115 159.872 164.96 145.877 173.098 129.06C182.422 110.268 184.344 88.0339 178.58 67.8877C173.098 48.3622 160.439 30.7554 143.316 19.7512Z"
            fill="white" />
        <path
            d="M119.976 154.003C120.711 154.624 120.88 155.527 120.993 156.43C121.841 156.655 122.632 156.881 123.48 157.107C122.745 157.671 121.898 158.01 121.05 158.292C120.767 159.025 121.05 160.323 119.92 160.38C119.581 159.703 119.355 158.969 119.072 158.235C118.281 157.953 117.49 157.671 116.698 157.389C117.433 156.881 118.281 156.542 119.129 156.26C119.411 155.583 119.694 154.793 119.976 154.003Z"
            fill="white" />
        <path
            d="M179.145 1.86221C179.032 0.902864 179.71 -0.33864 180.84 0.056384C181.744 0.056384 182.027 1.12859 181.97 1.86221C182.083 6.37677 180.388 11.2864 176.545 13.8822C172.646 15.6316 168.181 14.8416 164.169 13.9387C159.422 12.8665 154.788 11.0042 149.815 11.1735C147.78 11.3428 145.294 11.8507 144.22 13.8258C143.711 15.7445 143.429 17.776 143.316 19.7512C143.259 25.7894 144.277 32.3355 141.225 37.9223C139.473 41.3082 135.348 42.7754 131.731 42.1547C122.915 40.8567 115.455 35.5521 106.978 33.2949C104.266 32.6741 100.875 32.3355 98.784 34.5364C96.4669 37.1887 96.4669 40.9132 96.0714 44.1862C95.1106 44.1862 94.1499 44.1862 93.1892 44.2991C93.4718 40.3489 93.8674 36.0036 96.5235 32.8434C98.7274 30.1911 102.457 29.5703 105.735 30.1911C114.268 31.7148 121.615 36.8501 129.922 38.9945C132.974 39.841 137.099 39.7281 138.738 36.5115C141.733 30.699 139.982 23.9836 140.603 17.776C140.773 16.0267 141.168 14.2773 141.733 12.5843C142.807 9.81913 146.028 8.80335 148.685 8.40833C156.427 7.67471 163.547 11.9635 171.233 12.0764C173.041 12.02 175.132 11.9071 176.319 10.327C178.467 8.12617 179.088 4.90954 179.145 1.86221Z"
            fill="#62D0C5" />
        <path
            d="M75.8398 65.2918C76.9136 65.066 77.9873 65.1225 79.1176 65.066C90.4201 65.1225 101.779 65.0096 113.082 65.1225C115.229 65.066 117.037 67.4362 116.246 69.5242C115.738 71.1043 114.099 72.0072 112.516 71.8379C100.818 71.8379 89.1203 71.8379 77.4787 71.8379C76.0094 71.9508 74.427 71.2171 73.8619 69.8063C72.8447 68.1134 74.0314 65.8561 75.8398 65.2918ZM87.1989 65.8561C86.0121 66.6461 86.5207 68.452 86.4642 69.637C86.3512 71.725 88.9508 71.4993 90.3071 71.1043C91.3808 70.2014 90.9287 68.5084 90.9852 67.2669C91.0982 65.2918 88.4987 65.4046 87.1989 65.8561ZM99.5186 65.8561C98.5014 66.759 98.897 68.3955 98.897 69.637C98.6709 72.0636 103.588 72.0636 103.418 69.6935C103.418 68.5084 103.701 67.0976 102.966 66.0254C102.005 65.3482 100.649 65.5739 99.5186 65.8561Z"
            fill="#9FFBF2" />
        <path
            d="M74.3706 117.266C73.1838 114.952 75.5008 112.13 77.9874 112.525C89.855 112.525 101.779 112.469 113.647 112.582C116.133 112.469 117.885 115.573 116.472 117.661C115.681 119.184 113.816 119.354 112.29 119.41C112.517 117.887 112.799 116.363 113.025 114.839C101.327 114.839 89.6289 114.839 77.9308 114.839C78.2134 116.363 78.4395 117.887 78.722 119.41C77.0266 119.297 75.0487 119.015 74.3706 117.266Z"
            fill="#9FFBF2" />
        <path
            d="M94.3759 140.177C95.3367 140.177 96.2974 140.121 97.2581 140.064C96.9755 144.297 96.6364 149.037 93.6413 152.366C91.2678 154.962 87.4814 155.357 84.2037 154.624C75.7833 152.874 68.5497 147.683 60.2424 145.538C57.3602 144.804 53.4609 144.917 51.822 147.908C49.1659 152.931 49.9006 158.856 49.9571 164.386C49.9571 166.249 49.7876 168.111 49.505 169.973C49.1094 171.666 48.8268 173.472 47.5836 174.77C44.5884 177.479 40.2369 177.817 36.3941 177.084C30.0082 176.181 23.9613 172.964 17.4624 173.585C14.9193 173.641 13.3935 176.011 12.3762 178.043C11.3025 180.3 11.5286 182.84 11.133 185.21C10.6244 186.451 8.47688 186.056 8.5334 184.702C8.30735 180.47 9.49411 176.011 12.4893 172.908C14.1281 170.989 16.8973 170.707 19.2708 170.594C25.6567 170.65 31.5905 173.528 37.8634 174.375C40.5195 174.713 43.6277 174.544 45.7186 172.625C46.5663 171.328 46.7359 169.804 46.9619 168.337C47.188 166.305 47.2445 164.274 47.188 162.242C46.9054 157.727 46.8489 153.1 48.3747 148.811C49.1659 146.497 50.6352 144.297 52.8957 143.224C55.7214 141.757 59.1121 142.265 62.0508 143.055C68.7193 144.974 74.7096 148.585 81.265 150.899C84.4297 151.971 88.5552 153.1 91.3808 150.673C93.9804 147.908 93.9804 143.789 94.3759 140.177Z"
            fill="#62D0C5" />
        <path
            d="M89.2898 48.0801C90.0245 46.3307 91.3243 44.8071 93.1892 44.2427C94.1499 44.1863 95.1106 44.1299 96.0713 44.1299C98.2188 44.4685 99.8012 46.0486 100.592 48.0237C101.779 48.1366 103.079 47.9673 104.266 48.4187C105.735 49.0959 106.696 50.5067 107.487 51.8611C109.521 55.5856 110.482 59.7051 111.443 63.7682C112.969 63.8811 114.72 63.8247 115.907 64.8969C117.942 66.477 118.055 69.8065 116.19 71.5559C115.06 72.7409 113.364 72.9102 111.838 72.8538C100.14 72.7974 88.4421 72.8538 76.8006 72.7974C73.4663 72.9667 71.0928 68.8471 72.9012 66.082C73.9184 64.0504 76.3485 63.7118 78.3829 63.7118C79.2306 60.0437 80.1348 56.3192 81.7737 52.9333C82.5648 51.3532 83.469 49.7731 84.9384 48.7009C86.2382 47.9108 87.877 48.2494 89.2898 48.0801ZM90.6461 48.0801C93.5283 48.1366 96.3539 48.1366 99.1795 48.0801C97.9928 44.412 91.8894 44.4685 90.6461 48.0801ZM83.469 52.4254C81.5476 55.9806 80.5304 59.9873 79.6262 63.8811C89.855 63.9375 100.027 63.8811 110.256 63.8811C109.352 59.9309 108.335 55.9806 106.413 52.4254C105.565 50.9017 104.266 49.1523 102.344 49.2652C97.4276 49.2088 92.511 49.2088 87.5945 49.2652C85.6165 49.1523 84.3167 50.9582 83.469 52.4254ZM75.8399 65.2919C74.0315 65.8562 72.9012 68.1135 73.8054 69.8629C74.427 71.2737 75.9529 72.0073 77.4222 71.8945C89.1203 71.8945 100.818 71.8945 112.46 71.8945C114.042 72.0073 115.738 71.1044 116.19 69.5807C116.981 67.5492 115.173 65.1226 113.025 65.179C101.723 65.0662 90.3636 65.179 79.0611 65.1226C77.9873 65.0662 76.9136 65.0662 75.8399 65.2919Z"
            fill="#46B6A6" />
        <path
            d="M127.097 51.466C127.549 50.7324 127.775 49.8295 128.058 49.0394C128.284 49.8859 128.453 50.7324 128.792 51.5224C129.583 51.861 130.488 52.0303 131.335 52.2561C130.488 52.5382 129.696 52.8204 128.849 53.2154C128.397 53.949 128.284 54.8519 128.058 55.6984C127.549 54.7391 127.549 53.1025 126.249 52.8768C125.854 52.7639 125.062 52.5382 124.61 52.4254C125.458 52.1996 126.306 51.9175 127.097 51.466Z"
            fill="#3D4055" fill-opacity="0.2" />
        <path
            d="M42.554 63.6553C44.5884 62.6396 47.188 64.5583 46.9054 66.8155C46.7924 69.1293 43.7407 70.4836 41.9323 69.0164C40.0109 67.7185 40.4065 64.4454 42.554 63.6553Z"
            fill="#3D4055" fill-opacity="0.2" />
        <path
            d="M136.308 90.122C137.891 88.9369 139.304 87.5825 140.49 86.0024C141.564 87.639 142.977 88.9933 144.503 90.1784C143.033 91.4199 141.621 92.7743 140.49 94.4108C139.247 92.8307 137.891 91.3635 136.308 90.122ZM138.23 90.0091C138.908 90.7992 139.586 91.6457 140.264 92.4357C141.168 91.7585 141.96 90.9685 142.638 90.0656C141.96 89.3884 141.225 88.7112 140.603 88.034C139.756 88.6548 139.021 89.3319 138.23 90.0091Z"
            fill="#3D4055" fill-opacity="0.2" />
        <path
            d="M31.2515 107.954C34.2466 105.81 36.7897 103.101 38.9937 100.167C41.1412 103.158 43.6842 105.866 46.6794 108.011C43.7407 110.212 41.0846 112.751 38.9372 115.742C36.8462 112.751 34.2466 110.155 31.2515 107.954ZM33.2294 108.011C35.3204 109.76 37.1853 111.735 38.9937 113.823C40.7456 111.679 42.7235 109.817 44.758 108.011C42.554 106.431 40.9716 104.174 38.9937 102.368C37.0157 104.117 35.3204 106.262 33.2294 108.011Z"
            fill="#3D4055" fill-opacity="0.2" />
        <path
            d="M87.1988 65.8563C88.4986 65.4613 91.0982 65.292 90.9852 67.3235C90.9286 68.565 91.3807 70.258 90.307 71.1609C88.9507 71.5559 86.3511 71.7252 86.4642 69.6937C86.5207 68.3957 86.0121 66.6463 87.1988 65.8563ZM87.5944 66.8156C87.5944 67.9443 87.5944 69.0729 87.5944 70.2016C88.3291 70.2016 89.0637 70.2016 89.8549 70.2016C89.8549 69.0729 89.8549 67.9443 89.8549 66.8156C89.1202 66.8156 88.3291 66.8156 87.5944 66.8156Z"
            fill="#46B6A6" />
        <path
            d="M99.5185 65.8562C100.649 65.5741 102.005 65.3483 102.966 66.0255C103.7 67.0413 103.418 68.4521 103.418 69.6936C103.587 72.0637 98.6708 72.0637 98.8969 69.6372C98.8969 68.3957 98.5013 66.7591 99.5185 65.8562ZM100.027 66.8156C100.027 67.9442 100.027 69.0729 100.027 70.2015C100.762 70.2015 101.496 70.2015 102.288 70.2015C102.288 69.0729 102.288 67.9442 102.288 66.8156C101.553 66.8156 100.762 66.8156 100.027 66.8156Z"
            fill="#46B6A6" />
        <path
            d="M149.25 66.872C150.606 66.1948 151.623 68.3957 150.21 69.0164C148.854 69.6372 147.893 67.4363 149.25 66.872Z"
            fill="#3D4055" fill-opacity="0.2" />
        <path
            d="M63.4071 72.4588C64.7634 71.838 65.7241 74.0953 64.3678 74.5468C63.0115 75.3933 61.9943 73.0231 63.4071 72.4588Z"
            fill="#3D4055" fill-opacity="0.2" />
        <path
            d="M58.321 106.374C59.6207 105.584 60.6945 108.011 59.2252 108.406C57.9254 109.196 56.9081 106.826 58.321 106.374Z"
            fill="#3D4055" fill-opacity="0.2" />
        <path
            d="M148.628 113.654C153.149 113.598 157.67 113.654 162.191 113.654C159.93 116.645 157.726 119.692 155.409 122.627C153.092 119.692 150.888 116.645 148.628 113.654ZM150.888 114.783C152.414 116.701 153.827 118.733 155.409 120.652C156.935 118.733 158.405 116.701 159.874 114.783C156.935 114.726 153.94 114.726 150.888 114.783Z"
            fill="#3D4055" fill-opacity="0.2" />
        <path
            d="M38.5415 126.69C39.8978 126.013 40.802 128.27 39.4457 128.834C38.0894 129.455 37.0722 127.141 38.5415 126.69Z"
            fill="#3D4055" fill-opacity="0.2" />
        <path
            d="M92.7936 74.5468C94.5455 76.8605 95.6758 79.5692 97.4277 81.9393C97.8233 81.375 98.2188 80.8107 98.6144 80.2464C98.7275 81.0929 98.8405 81.8829 98.897 82.7294C100.366 81.1493 101.553 79.3999 103.192 77.9891C102.118 80.4157 101.157 82.8987 100.14 85.3253C101.836 85.0995 103.531 84.9867 105.226 84.9867C103.87 85.551 102.514 86.1153 101.157 86.6796C102.457 87.5826 103.701 88.429 105 89.2755C103.531 89.0498 102.005 88.8805 100.536 88.7112C102.57 91.4764 104.774 94.0722 106.752 96.8374C104.096 95.1445 101.553 93.3386 98.897 91.6457C98.8405 92.605 98.8405 93.5079 98.784 94.4673C98.2188 93.7901 97.5972 93.1129 97.0321 92.4357C95.9583 93.8465 94.8281 95.2573 93.7543 96.7245C93.6978 95.1444 93.6413 93.5644 93.5848 91.9843C90.7592 92.7743 87.9901 93.6208 85.1644 94.4108C87.3684 92.3229 89.7985 90.4606 92.1155 88.4855C91.0983 88.5419 90.1375 88.5419 89.1203 88.5419C89.9115 88.034 90.7592 87.5261 91.6069 87.0182C89.1768 85.6074 86.5773 84.3659 84.1472 82.9551C87.2554 83.6323 90.3071 84.3095 93.3588 84.9867C92.6806 84.1966 91.946 83.4066 91.2678 82.6165C92.285 82.8423 93.3022 83.068 94.3195 83.2937C93.8674 80.2464 93.2457 77.4248 92.7936 74.5468ZM95.5628 86.0025C94.6586 86.5668 94.1499 87.8083 95.2237 88.4855C96.1279 89.8398 97.4842 88.7112 98.1058 87.7519C98.2188 86.6232 96.58 84.9302 95.5628 86.0025Z"
            fill="#3D4055" />
        <path
            d="M95.5628 86.0024C96.58 84.9866 98.2189 86.6232 98.1058 87.7518C97.5407 88.7676 96.1279 89.8398 95.2237 88.4854C94.1499 87.8082 94.6586 86.5103 95.5628 86.0024Z"
            fill="white" />
        <path
            d="M86.5207 100.618C86.4642 99.0947 87.8205 97.7968 89.2898 97.7968C90.7591 97.7968 92.1719 99.0947 92.1154 100.618C92.2284 104.23 92.1154 107.785 92.1719 111.397C94.4324 111.397 96.6929 111.397 98.9534 111.397C98.9534 108.18 98.9534 105.02 98.9534 101.803C98.9534 100.618 99.0099 99.1511 100.084 98.4175C101.61 97.0631 104.322 98.1353 104.548 100.11C104.831 103.835 104.548 107.616 104.661 111.397C108.052 111.51 111.443 111.171 114.777 111.566C117.772 112.13 119.241 116.081 117.433 118.507C116.303 120.37 114.042 120.482 112.121 120.539C111.16 124.602 110.199 128.722 108.165 132.446C107.374 133.857 106.413 135.268 104.887 135.945C103.7 136.34 102.457 136.227 101.27 136.283C100.536 138.033 99.236 139.556 97.3711 140.064C96.4104 140.121 95.4497 140.177 94.4889 140.177C92.3415 139.839 90.7591 138.259 89.9679 136.283C88.7812 136.171 87.4814 136.283 86.2946 135.888C84.6558 135.098 83.6385 133.518 82.8474 131.995C80.9824 128.383 79.9652 124.376 79.061 120.482C78.0438 120.37 76.97 120.37 76.0093 120.144C73.7488 119.41 72.336 116.645 73.2402 114.388C73.8053 112.638 75.6137 111.34 77.4787 111.397C80.5303 111.284 83.5255 111.397 86.5772 111.397C86.5207 107.785 86.3511 104.174 86.5207 100.618ZM87.7639 100.054C87.4249 103.779 87.7074 107.559 87.6509 111.34C88.7812 111.34 89.9114 111.34 90.9852 111.34C90.9286 107.729 91.0982 104.174 90.9286 100.562C91.0982 98.7561 88.103 98.3611 87.7639 100.054ZM100.084 100.562C99.9141 104.174 100.084 107.729 100.027 111.34C101.157 111.34 102.288 111.34 103.361 111.34C103.305 107.616 103.587 103.835 103.248 100.054C102.909 98.4175 99.9141 98.7561 100.084 100.562ZM74.3705 117.266C75.0486 119.015 77.0831 119.354 78.7219 119.354C78.4959 117.83 78.2133 116.306 77.9308 114.783C89.6289 114.783 101.327 114.783 113.025 114.783C112.742 116.306 112.516 117.83 112.29 119.354C113.816 119.297 115.681 119.128 116.472 117.604C117.885 115.516 116.133 112.469 113.647 112.526C101.779 112.413 89.8549 112.526 77.9873 112.469C75.4442 112.13 73.1272 114.896 74.3705 117.266ZM79.2871 115.968C80.3043 121.272 81.3215 126.634 83.8081 131.487C84.7123 133.123 85.9555 135.155 88.103 135.042C93.0196 135.098 97.9362 135.042 102.853 135.042C105.057 135.268 106.244 133.18 107.204 131.543C109.691 126.69 110.708 121.272 111.725 115.968C100.931 115.855 90.081 115.855 79.2871 115.968ZM91.0417 136.566C92.9066 139.726 98.4448 139.951 99.8011 136.227C96.8625 136.34 93.8673 135.832 91.0417 136.566Z"
            fill="#46B6A6" />
        <path
            d="M134.669 122.853C136.082 122.175 137.891 123.304 137.891 124.884C138.06 126.634 135.687 127.819 134.33 126.746C132.861 125.9 133.087 123.473 134.669 122.853Z"
            fill="#EEEEEE" />
        <path
            d="M0.734676 125.166C1.97795 124.207 3.89938 125.731 3.27774 127.141C2.93867 128.157 1.58236 128.665 0.734676 127.988C-0.282549 127.367 -0.226037 125.787 0.734676 125.166Z"
            fill="#3D4055" />
        <path
            d="M77.0266 158.969C80.9825 157.558 85.56 161.396 84.7123 165.572C84.2602 170.086 78.1003 172.343 74.8226 169.127C71.3753 166.362 72.7316 160.154 77.0266 158.969ZM77.5352 160.098C75.4442 160.718 73.8619 162.806 74.0879 165.007C74.201 167.321 76.1789 169.296 78.4959 169.465C81.4346 169.748 84.0906 166.757 83.469 163.879C83.0734 161.226 80.1348 159.308 77.5352 160.098Z"
            fill="#3D4055" fill-opacity="0.2" />
        <path
            d="M147.102 171.384C149.193 170.368 151.793 172.287 151.454 174.601C151.341 176.914 148.232 178.325 146.424 176.802C144.503 175.447 144.955 172.231 147.102 171.384ZM147.611 172.456C146.537 172.964 145.859 174.375 146.763 175.391C147.441 176.576 149.25 176.519 149.984 175.391C151.171 173.924 149.25 171.666 147.611 172.456Z"
            fill="#62D0C5" />
    </g>
    <defs>
        <clipPath id="clip0">
            <rect width="187" height="186" fill="white" />
        </clipPath>
    </defs>
</svg>
