<svg width="40" height="40" viewBox="0 0 40 40" fill="none" xmlns="http://www.w3.org/2000/svg">
<path d="M3.50735 0.781641C3.74715 0.761387 3.98695 0.740122 4.22171 0.691514C14.7043 0.670248 25.187 0.690501 35.6706 0.680375C36.0454 0.671261 36.4142 0.755311 36.787 0.783666C38.0796 1.13202 39.1376 2.20949 39.4257 3.52696C39.4802 3.87025 39.5023 4.21658 39.4973 4.56291C39.4922 13.3862 39.5033 22.2095 39.4922 31.0328C36.2348 31.0277 32.9784 31.0338 29.722 31.0297C29.3703 31.0571 29.0016 30.7786 29.0328 30.4039C28.9864 30.009 29.3411 29.7011 29.7189 29.7315C32.5502 29.7254 35.3804 29.7376 38.2116 29.7254C38.2116 22.2368 38.2137 14.7492 38.2106 7.26063C26.1703 7.25658 14.131 7.25658 2.09174 7.26063C2.08871 14.7492 2.09073 22.2368 2.09073 29.7254C6.12297 29.7406 10.1552 29.7204 14.1864 29.7356C14.5431 29.7214 14.8091 30.0292 14.8434 30.3685C14.8494 30.3989 14.8625 30.4616 14.8696 30.493C14.7255 30.7918 14.4686 31.0763 14.1028 31.0297C9.67259 31.0338 5.24136 31.0287 0.810123 31.0328C0.800048 22.1386 0.808108 13.2444 0.806093 4.35025C0.79501 3.93202 0.879645 3.52189 0.983423 3.11987C1.19098 2.59126 1.48821 2.10012 1.89325 1.70113C2.34362 1.2586 2.9139 0.976071 3.50735 0.781641ZM3.21113 2.29658C2.58443 2.70367 2.1401 3.38113 2.09476 4.1386C2.0867 4.73101 2.09174 5.3224 2.09073 5.91481C14.131 5.92291 26.1713 5.92189 38.2116 5.91481C38.2096 5.32341 38.2157 4.73202 38.2076 4.13962C38.1562 3.34265 37.6696 2.61658 36.9734 2.23886C36.6509 2.11126 36.3215 1.96949 35.9678 1.98468C25.4227 1.98367 14.8776 1.98367 4.33254 1.98468C3.93456 1.96949 3.5668 2.14063 3.21113 2.29658Z" fill="black"/>
<path d="M3.77833 3.86692C3.8539 3.35148 4.50075 3.21477 4.87556 3.50641C5.10024 3.81021 5.12946 4.26996 4.79395 4.50692C4.3617 4.87046 3.63828 4.42084 3.77833 3.86692Z" fill="black"/>
<path d="M6.31344 3.38635C6.64089 3.30028 7.04392 3.36205 7.19404 3.70635C7.48019 4.15901 6.9492 4.77167 6.45651 4.61369C6.06054 4.52863 5.91444 4.0861 5.99605 3.72458C6.09983 3.61015 6.20462 3.49673 6.31344 3.38635Z" fill="black"/>
<path d="M8.34968 3.52619C8.54212 3.31353 8.84137 3.34796 9.09527 3.38543C9.2061 3.49581 9.31492 3.60821 9.42071 3.72366C9.42273 3.90593 9.42071 4.08821 9.41668 4.27049C9.24439 4.45277 9.03986 4.66847 8.76278 4.631C8.52096 4.64821 8.36076 4.45176 8.20056 4.30391C8.20056 4.04467 8.10787 3.70948 8.34968 3.52619Z" fill="black"/>
<path d="M10.0464 13.1538C10.8243 13.0859 11.6102 13.1446 12.391 13.1234C12.6943 13.1031 13.0641 13.1467 13.2192 13.4515C13.5255 13.8727 13.0822 14.4996 12.5905 14.4267C11.7452 14.4165 10.8978 14.4469 10.0535 14.4115C9.44089 14.2758 9.42275 13.2824 10.0464 13.1538Z" fill="black"/>
<path d="M16.7849 13.1438C17.6061 13.0993 18.4313 13.1357 19.2535 13.1256C19.588 13.0973 19.9467 13.3241 19.993 13.6704C20.0706 14.0451 19.73 14.438 19.3542 14.4238C18.5441 14.4299 17.7341 14.4269 16.925 14.4259C16.5431 14.4562 16.2036 14.0684 16.265 13.6917C16.2892 13.4203 16.52 13.1874 16.7849 13.1438Z" fill="black"/>
<path d="M20.9391 13.2264C21.3935 13.0846 21.8963 13.0796 22.3568 13.1798C22.9714 13.3753 22.8192 14.4041 22.1774 14.4203C21.719 14.391 21.1134 14.5874 20.8031 14.1388C20.5764 13.8522 20.7165 13.4664 20.9391 13.2264Z" fill="black"/>
<path d="M24.3396 13.141C25.1628 13.1025 25.988 13.1329 26.8121 13.1258C27.0822 13.1106 27.3643 13.2443 27.4751 13.5025C27.7089 13.8914 27.3391 14.4342 26.9048 14.422C26.0978 14.4312 25.2907 14.4241 24.4837 14.4251C24.128 14.4625 23.7875 14.1314 23.8026 13.7739C23.7854 13.4651 24.0394 13.1815 24.3396 13.141Z" fill="black"/>
<path d="M28.3577 13.7735C28.3416 13.4525 28.6137 13.1649 28.927 13.1366C29.3028 13.1032 29.6907 13.1011 30.0514 13.2277C30.2953 13.4789 30.4111 13.9244 30.1371 14.1958C29.866 14.5371 29.3935 14.4075 29.0177 14.4257C28.6701 14.45 28.3436 14.1229 28.3577 13.7735Z" fill="black"/>
<path d="M10.0222 15.1545C11.7835 15.0877 13.5527 15.1454 15.317 15.1252C15.6978 15.0705 16.118 15.3945 16.0726 15.7966C16.0887 16.1956 15.6767 16.4558 15.3129 16.4254C13.6988 16.4305 12.0847 16.4224 10.4716 16.4295C10.2217 16.4295 9.9356 16.4194 9.75726 16.2178C9.42678 15.907 9.57388 15.2639 10.0222 15.1545Z" fill="black"/>
<path d="M17.3663 15.1385C18.667 15.1092 19.9698 15.1335 21.2705 15.1274C21.6826 15.0758 22.0605 15.492 21.9597 15.898C21.8982 16.2201 21.5799 16.4378 21.2615 16.4236C20.0836 16.4337 18.9048 16.4216 17.727 16.4297C17.4549 16.4368 17.1385 16.4044 16.9673 16.1613C16.6731 15.811 16.8998 15.1811 17.3663 15.1385Z" fill="black"/>
<path d="M22.4101 15.4497C22.5753 15.31 22.7416 15.1237 22.9773 15.1318C23.9859 15.1206 24.9935 15.1257 26.002 15.1297C26.4645 15.1034 26.8292 15.6685 26.5773 16.0756C26.4373 16.3702 26.0867 16.4411 25.7924 16.429C24.8856 16.4229 23.9788 16.434 23.072 16.4239C22.8111 16.43 22.5602 16.2882 22.4302 16.0604C22.3748 15.8619 22.4091 15.6523 22.4101 15.4497Z" fill="black"/>
<path d="M16.5774 18.008C18.5048 17.9543 20.4353 18.0009 22.3648 17.9857C22.9401 18.006 23.5355 17.9138 24.0927 18.1012C24.803 18.3553 25.3048 19.0875 25.2766 19.847C25.2685 20.4394 25.3602 21.0875 25.0348 21.6171C24.7104 22.2075 24.0353 22.5548 23.3723 22.5336C21.324 22.5346 19.2766 22.5305 17.2282 22.5356C16.8151 22.5437 16.3819 22.5326 16.0091 22.331C15.4177 22.0495 15.0358 21.4197 15.0086 20.7685C14.9935 20.2662 14.9572 19.7508 15.0952 19.2617C15.2907 18.5994 15.8973 18.091 16.5774 18.008ZM16.5965 19.2961C16.4716 19.4207 16.3658 19.5624 16.2862 19.7194C16.2973 20.0718 16.2922 20.4242 16.2932 20.7766C16.3345 20.8728 16.3758 20.969 16.4172 21.0662C16.4665 21.1007 16.5673 21.1716 16.6166 21.207C18.7688 21.2718 20.924 21.2141 23.0771 21.2364C23.3643 21.2313 23.7401 21.2809 23.9114 20.9893C24.0786 20.5164 24.0141 19.9898 23.9265 19.5057C23.7683 19.3741 23.593 19.2495 23.3753 19.286C21.1154 19.2921 18.8554 19.2728 16.5965 19.2961Z" fill="black"/>
<path d="M17.7542 24.1418C18.3345 23.9737 18.9915 24.0982 19.466 24.4749C19.9416 24.8344 20.2166 25.4289 20.2136 26.0243C20.2197 26.9478 20.2116 27.8724 20.2146 28.798C20.5602 28.7767 20.9098 28.7413 21.2544 28.798C21.5476 28.8516 21.7884 29.044 22.0625 29.1494C22.4847 28.9671 22.8927 28.6795 23.3763 28.721C23.8267 28.7078 24.2056 28.9752 24.6015 29.1473C24.8998 29.0319 25.1658 28.8385 25.4811 28.7635C26.5834 28.5002 27.8056 29.437 27.7834 30.5904C27.7824 33.3863 27.7915 36.1823 27.7784 38.9782C27.7028 39.0997 27.6111 39.2121 27.5234 39.3266C27.1093 39.5342 26.5149 39.2932 26.526 38.7838C26.5098 36.084 26.531 33.3823 26.5159 30.6825C26.5381 30.1965 25.9426 29.8471 25.5396 30.1235C25.1386 30.3433 25.3088 30.8567 25.2393 31.2253C25.1103 31.3661 24.9935 31.5463 24.793 31.5878C24.4413 31.7084 24.0282 31.4724 23.9466 31.1099C23.9214 30.8608 23.9325 30.6096 23.9315 30.3595C23.7622 30.1853 23.5557 29.9949 23.2927 30.0304C23.0539 30.0273 22.8947 30.2299 22.7295 30.3706C22.7255 30.6491 22.7224 30.9276 22.7154 31.2061C22.6126 31.3276 22.5058 31.4461 22.396 31.5605C22.0947 31.6597 21.7814 31.603 21.5335 31.4035C21.2826 31.0157 21.5849 30.4435 21.1728 30.1509C20.9169 29.9585 20.536 30.001 20.3214 30.2339C20.0988 30.5316 20.3224 30.9529 20.1098 31.2567C19.9103 31.602 19.3935 31.7357 19.0892 31.4491C18.8806 31.2942 18.8534 31.0197 18.8645 30.7797C18.9774 29.2334 18.8988 27.68 18.9219 26.1296C18.9824 25.7337 18.6469 25.3063 18.2318 25.3661C17.8741 25.3549 17.6806 25.7073 17.6041 26.0091C17.6494 26.8233 17.5406 27.6527 17.6605 28.4567C17.6484 28.5023 17.6252 28.5944 17.6141 28.641C17.596 31.1433 17.6323 33.6466 17.596 36.1478C16.7154 35.2213 15.7935 34.3352 14.8967 33.4248C14.6993 33.2051 14.3698 33.0775 14.0927 33.2213C13.7199 33.3721 13.6363 33.917 13.9124 34.1985C15.3159 35.6405 16.7849 37.0208 18.1794 38.4719C18.2318 38.7797 18.2066 39.1048 17.9436 39.3114C17.8056 39.3499 17.6675 39.3884 17.5315 39.4319C17.4277 39.3894 17.324 39.3489 17.2202 39.3104C16.0252 38.1418 14.8454 36.957 13.6575 35.7813C13.327 35.443 12.9612 35.1332 12.7013 34.7332C12.6197 34.5347 12.5431 34.3342 12.4635 34.1367C12.4534 33.8937 12.4534 33.6506 12.4625 33.4076C12.5552 33.1686 12.6509 32.9306 12.7638 32.6997C12.9854 32.403 13.2726 32.162 13.6091 32.0071C14.0595 31.839 14.5643 31.8015 15.0166 31.9828C15.5758 32.161 15.9184 32.6663 16.3496 33.0309C16.3698 32.1529 16.3527 31.2749 16.3587 30.398C16.3597 28.9094 16.3557 27.4208 16.3597 25.9321C16.3517 25.1109 16.9733 24.3504 17.7542 24.1418Z" fill="black"/>
<path d="M2.09163 7.2589C14.1309 7.25485 26.1702 7.25485 38.2105 7.2589C38.2135 14.7475 38.2115 22.2351 38.2115 29.7237C35.3803 29.7359 32.5501 29.7237 29.7188 29.7298C29.341 29.6994 28.9863 30.0072 29.0327 30.4022C28.6327 30.3789 28.2337 30.3799 27.8337 30.387C27.8599 33.0493 27.8327 35.7116 27.8478 38.3738C27.8518 38.5764 27.8367 38.7809 27.7783 38.9764C27.7914 36.1804 27.7823 33.3845 27.7833 30.5885C27.8055 29.4351 26.5833 28.4984 25.4811 28.7617C25.1657 28.8366 24.8997 29.03 24.6015 29.1455C24.2055 28.9733 23.8266 28.706 23.3763 28.7191C22.8926 28.6776 22.4846 28.9652 22.0624 29.1475C21.7884 29.0422 21.5476 28.8498 21.2544 28.7961C20.9098 28.7394 20.5601 28.7748 20.2146 28.7961C20.2115 27.8705 20.2196 26.946 20.2135 26.0224C20.2166 25.427 19.9415 24.8326 19.4659 24.4731C18.9914 24.0964 18.3345 23.9718 17.7541 24.1399C16.9732 24.3485 16.3516 25.109 16.3596 25.9303C16.3556 27.4189 16.3596 28.9075 16.3586 30.3961C15.8538 30.389 15.3481 30.3759 14.8433 30.3667C14.809 30.0275 14.543 29.7197 14.1863 29.7338C10.1551 29.7186 6.12287 29.7389 2.09062 29.7237C2.09062 22.2351 2.08861 14.7475 2.09163 7.2589ZM10.0463 13.1516C9.42261 13.2802 9.44075 14.2736 10.0533 14.4093C10.8977 14.4447 11.745 14.4143 12.5904 14.4245C13.0821 14.4974 13.5254 13.8705 13.2191 13.4493C13.0639 13.1445 12.6942 13.1009 12.3909 13.1212C11.61 13.1424 10.8241 13.0837 10.0463 13.1516ZM16.7848 13.1414C16.5198 13.185 16.2891 13.4179 16.2649 13.6893C16.2035 14.066 16.543 14.4538 16.9249 14.4235C17.7339 14.4245 18.544 14.4275 19.3541 14.4214C19.7299 14.4356 20.0705 14.0427 19.9929 13.668C19.9465 13.3217 19.5879 13.0948 19.2533 13.1232C18.4312 13.1333 17.606 13.0969 16.7848 13.1414ZM20.939 13.2245C20.7163 13.4645 20.5763 13.8503 20.803 14.1369C21.1133 14.5855 21.7188 14.389 22.1773 14.4184C22.8191 14.4022 22.9712 13.3733 22.3566 13.1779C21.8962 13.0776 21.3934 13.0827 20.939 13.2245ZM24.3395 13.1394C24.0392 13.1799 23.7853 13.4635 23.8025 13.7723C23.7873 14.1298 24.1279 14.4609 24.4836 14.4235C25.2906 14.4224 26.0977 14.4295 26.9047 14.4204C27.339 14.4326 27.7088 13.8898 27.475 13.5009C27.3642 13.2427 27.0821 13.109 26.812 13.1242C25.9879 13.1313 25.1627 13.1009 24.3395 13.1394ZM28.3576 13.7713C28.3435 14.1207 28.67 14.4478 29.0176 14.4235C29.3934 14.4052 29.8659 14.5348 30.137 14.1936C30.411 13.9222 30.2952 13.4766 30.0513 13.2255C29.6906 13.0989 29.3027 13.1009 28.9269 13.1343C28.6135 13.1627 28.3415 13.4503 28.3576 13.7713ZM10.0221 15.1526C9.57375 15.2619 9.42664 15.905 9.75712 16.2159C9.93546 16.4174 10.2216 16.4275 10.4715 16.4275C12.0846 16.4204 13.6987 16.4285 15.3128 16.4235C15.6765 16.4538 16.0886 16.1936 16.0725 15.7946C16.1178 15.3926 15.6977 15.0685 15.3168 15.1232C13.5526 15.1435 11.7833 15.0857 10.0221 15.1526ZM17.3662 15.1364C16.8997 15.1789 16.673 15.8088 16.9672 16.1591C17.1385 16.4022 17.4549 16.4346 17.7269 16.4275C18.9047 16.4194 20.0836 16.4316 21.2614 16.4214C21.5798 16.4356 21.8982 16.2179 21.9596 15.8959C22.0604 15.4898 21.6826 15.0736 21.2705 15.1252C19.9697 15.1313 18.6669 15.107 17.3662 15.1364ZM22.41 15.4473C22.409 15.6498 22.3748 15.8594 22.4302 16.0579C22.5601 16.2857 22.811 16.4275 23.072 16.4214C23.9788 16.4316 24.8856 16.4204 25.7924 16.4265C26.0866 16.4386 26.4372 16.3678 26.5773 16.0731C26.8292 15.666 26.4644 15.1009 26.002 15.1273C24.9934 15.1232 23.9858 15.1181 22.9773 15.1293C22.7415 15.1212 22.5753 15.3075 22.41 15.4473ZM16.5773 18.0062C15.8972 18.0893 15.2906 18.5976 15.0952 19.2599C14.9571 19.749 14.9934 20.2645 15.0085 20.7667C15.0357 21.4179 15.4176 22.0478 16.009 22.3293C16.3818 22.5308 16.8151 22.5419 17.2282 22.5338C19.2765 22.5288 21.3239 22.5328 23.3722 22.5318C24.0352 22.5531 24.7103 22.2057 25.0347 21.6154C25.3601 21.0857 25.2685 20.4376 25.2765 19.8452C25.3047 19.0857 24.803 18.3536 24.0926 18.0994C23.5355 17.9121 22.94 18.0042 22.3647 17.984C20.4352 17.9991 18.5047 17.9526 16.5773 18.0062Z" fill="#01D1B2"/>
</svg>
