<?xml version="1.0" encoding="UTF-8" ?>
<!DOCTYPE svg PUBLIC "-//W3C//DTD SVG 1.1//EN" "http://www.w3.org/Graphics/SVG/1.1/DTD/svg11.dtd">
<svg width="512pt" height="512pt" viewBox="0 0 512 512" version="1.1" xmlns="http://www.w3.org/2000/svg">
<g id="#ff5757ff">
<path fill="#ff5757" opacity="1.00" d=" M 238.37 104.26 C 244.31 99.72 252.66 98.53 259.58 101.42 C 267.80 104.60 273.63 113.19 273.23 122.04 C 273.23 208.71 273.23 295.38 273.22 382.05 C 273.06 387.58 273.98 393.43 271.64 398.64 C 268.51 406.47 260.45 412.03 252.02 412.10 C 247.17 412.32 242.33 410.64 238.46 407.76 C 204.55 381.06 170.81 354.12 136.84 327.48 C 113.38 327.50 89.91 327.56 66.44 327.45 C 55.07 327.54 45.17 317.27 45.29 305.97 C 45.22 272.96 45.25 239.95 45.27 206.94 C 45.12 199.02 49.33 191.08 56.36 187.28 C 60.14 184.97 64.64 184.39 68.99 184.45 C 91.62 184.44 114.25 184.46 136.88 184.44 C 170.83 157.87 204.50 130.94 238.37 104.26 Z" />
<path fill="#ff5757" opacity="1.00" d=" M 392.20 115.20 C 398.40 114.19 405.01 116.12 409.75 120.23 C 440.92 150.49 460.90 191.90 465.48 235.08 C 468.63 264.06 465.20 293.76 455.18 321.17 C 445.75 347.27 430.42 371.20 410.77 390.80 C 405.42 396.05 397.13 398.41 389.89 396.18 C 382.90 394.41 377.08 388.83 374.88 381.98 C 372.25 374.21 374.50 365.13 380.42 359.45 C 399.54 340.30 413.19 315.77 419.23 289.38 C 427.93 252.52 421.68 212.36 401.94 180.01 C 396.52 171.07 390.18 162.66 382.92 155.13 C 380.46 152.51 377.80 149.98 376.18 146.73 C 372.56 139.82 373.12 130.96 377.55 124.53 C 380.83 119.52 386.36 116.24 392.20 115.20 Z" />
<path fill="#ff5757" opacity="1.00" d=" M 333.34 172.59 C 340.27 170.72 348.11 172.76 353.32 177.68 C 374.52 198.13 386.75 227.56 386.15 257.01 C 386.20 285.79 374.00 314.32 353.31 334.30 C 350.02 337.45 345.64 339.25 341.19 339.94 C 333.03 340.91 324.42 336.86 320.17 329.79 C 316.22 323.66 315.74 315.51 318.90 308.95 C 320.27 305.83 322.68 303.36 324.99 300.92 C 337.41 287.69 343.84 269.08 342.38 251.02 C 341.29 235.50 334.47 220.51 323.52 209.47 C 319.19 205.22 316.51 199.19 316.88 193.07 C 316.93 183.56 324.09 174.74 333.34 172.59 Z" />
</g>
</svg>
