<?xml version="1.0" encoding="UTF-8" ?>
<!DOCTYPE svg PUBLIC "-//W3C//DTD SVG 1.1//EN" "http://www.w3.org/Graphics/SVG/1.1/DTD/svg11.dtd">
<svg width="512pt" height="512pt" viewBox="0 0 512 512" version="1.1" xmlns="http://www.w3.org/2000/svg">
<g id="#ff5757ff">
<path fill="#ff5757" opacity="1.00" d=" M 254.35 111.28 C 260.30 106.72 268.67 105.52 275.60 108.42 C 283.79 111.61 289.61 120.15 289.22 128.98 C 289.23 215.66 289.23 302.34 289.22 389.02 C 289.06 394.58 289.99 400.45 287.62 405.69 C 284.48 413.50 276.41 419.04 267.98 419.10 C 263.13 419.32 258.29 417.61 254.42 414.73 C 220.52 388.03 186.80 361.11 152.84 334.48 C 130.57 334.55 108.29 334.46 86.01 334.52 C 82.11 334.51 78.05 334.45 74.45 332.74 C 66.66 329.52 61.34 321.42 61.29 313.02 C 61.20 282.35 61.29 251.67 61.25 221.00 C 61.30 216.70 60.98 212.34 61.94 208.12 C 63.77 199.99 70.72 193.30 78.93 191.87 C 81.61 191.42 84.32 191.45 87.03 191.44 C 108.98 191.45 130.93 191.45 152.88 191.44 C 186.82 164.87 220.49 137.95 254.35 111.28 Z" />
<path fill="#ff5757" opacity="1.00" d=" M 349.40 179.58 C 356.33 177.72 364.15 179.79 369.36 184.71 C 390.52 205.15 402.73 234.55 402.15 263.97 C 402.22 292.75 390.01 321.29 369.32 341.29 C 366.04 344.45 361.65 346.24 357.19 346.94 C 348.31 348.02 339.00 343.07 335.14 334.95 C 330.94 326.91 332.62 316.38 339.05 310.00 C 349.97 299.11 357.04 284.35 358.26 268.95 C 360.17 250.09 353.27 230.57 340.03 217.01 C 336.43 213.55 333.79 209.04 333.04 204.06 C 331.24 193.27 338.67 181.95 349.40 179.58 Z" />
</g>
</svg>
