<?xml version="1.0" encoding="UTF-8" ?>
<!DOCTYPE svg PUBLIC "-//W3C//DTD SVG 1.1//EN" "http://www.w3.org/Graphics/SVG/1.1/DTD/svg11.dtd">
<svg width="512pt" height="512pt" viewBox="0 0 512 512" version="1.1" xmlns="http://www.w3.org/2000/svg">
<g id="#ff5757ff">
<path fill="#ff5757" opacity="1.00" d=" M 261.43 107.57 C 268.89 105.54 277.51 107.37 282.87 113.13 C 287.52 117.38 289.64 123.78 289.41 129.98 C 289.39 218.98 289.42 307.98 289.39 396.98 C 289.51 402.88 287.20 408.82 282.86 412.87 C 275.60 420.55 262.49 421.33 254.26 414.77 C 231.15 396.58 208.14 378.28 185.05 360.05 C 174.28 351.69 163.80 342.89 152.83 334.81 C 129.28 334.62 105.72 334.91 82.17 334.67 C 70.88 334.40 61.16 324.36 61.09 313.11 C 61.04 280.08 61.08 247.06 61.06 214.04 C 61.06 208.03 63.28 201.91 67.66 197.70 C 71.86 193.35 77.95 191.21 83.92 191.21 C 106.64 191.17 129.35 191.25 152.06 191.18 C 153.48 191.32 154.40 190.00 155.48 189.31 C 186.15 165.07 216.82 140.81 247.46 116.52 C 251.86 113.18 255.94 109.04 261.43 107.57 Z" />
<path fill="#ff5757" opacity="1.00" d=" M 317.15 204.92 C 319.37 197.71 325.74 192.05 333.11 190.52 C 342.61 188.40 352.66 192.86 358.49 200.44 C 367.01 210.14 375.46 219.89 384.02 229.57 C 393.00 219.36 401.92 209.09 410.90 198.88 C 416.32 192.67 424.82 189.08 433.07 190.21 C 440.86 191.12 447.95 196.66 450.56 204.09 C 453.70 212.41 451.52 222.20 445.73 228.83 C 435.38 240.74 424.98 252.61 414.56 264.46 C 422.75 273.93 431.04 283.32 439.28 292.75 C 443.77 298.06 449.28 303.02 451.05 310.02 C 453.83 319.13 450.58 330.02 442.42 335.28 C 433.01 341.73 419.52 339.30 411.89 331.17 C 402.49 320.69 393.36 309.97 384.00 299.45 C 375.02 309.65 366.10 319.90 357.15 330.11 C 351.91 336.07 343.89 339.65 335.92 338.90 C 328.17 338.33 320.98 333.24 317.92 326.09 C 314.15 317.56 316.24 307.16 322.26 300.19 C 332.62 288.25 343.13 276.44 353.44 264.46 C 343.15 252.77 332.91 241.04 322.67 229.31 C 316.82 222.85 314.35 213.28 317.15 204.92 Z" />
</g>
</svg>
