<?xml version="1.0" encoding="utf-8"?>
<!-- Generator: Adobe Illustrator 23.1.0, SVG Export Plug-In . SVG Version: 6.00 Build 0)  -->
<svg version="1.1" id="Layer_1" xmlns="http://www.w3.org/2000/svg" xmlns:xlink="http://www.w3.org/1999/xlink" x="0px" y="0px"
	 viewBox="0 0 512 512" style="enable-background:new 0 0 512 512;" xml:space="preserve">
<style type="text/css">
	.st0{fill:#FF5757;}
</style>
<g>
	<path class="st0" d="M404.1,135c3.1-0.8,6.5-0.8,9.6,0c5.7,1.2,9.7,5.5,13.5,9.6c14.7,15.6,26.2,33.9,34.4,53.6
		c0.9,2.5,1.8,5,2.8,7.4c1.3,3.9,2.6,7.9,3.8,11.9c0.1,0.8,0.3,1.5,0.4,2.3c2.2,8,3.9,16.3,4.5,24.6c1,3.1,0.6,6.4,0.8,9.6
		c0.9,7.6,0.5,15.3-0.1,22.9c-0.1,2.5,0.1,5-0.8,7.4c0.1,3.6-0.9,7.1-1.2,10.6c-1.2,4.7-1.8,9.4-3.2,14c-1.8,7.4-4.4,14.5-7,21.6
		c-8.7,20.8-21.1,40.2-36.9,56.3c-2.9,3.4-6.7,5.9-11,7c-3.1,0.8-6.4,0.8-9.6,0c-1.3-0.4-2.6-0.9-3.9-1.3
		c-5.7-2.8-9.7-8.2-11.2-14.3c-0.5-4.8,0-9.8,2.4-14.2c2.6-4,6.3-7,9.4-10.7c7.2-8.1,13.2-17.1,18.3-26.7c1.4-3,2.9-5.9,4.2-8.9
		c1.2-2.6,2.1-5.4,3.1-8.1c1.5-4.1,2.6-8.3,3.9-12.5c0.1-0.6,0.3-1.8,0.4-2.4c3.4-13.4,3.9-27.3,3.3-41.1c-1-6.6-1.5-13.4-3.3-19.9
		c-1.1-5.1-2.6-10-4.3-14.9c-0.3-0.8-0.6-1.5-0.9-2.3c-1.1-3-2.3-6-3.7-8.9c-6.4-13.8-15.1-26.6-25.7-37.6c-1.8-1.7-3.3-3.6-4.7-5.7
		c-2.5-4.3-2.9-9.3-2.4-14.1C390.8,143.1,396.6,136.8,404.1,135z"/>
	<path class="st0" d="M230.2,113.2c6-4.9,14.7-6.3,21.9-3.3c8.2,3.2,14,11.7,13.6,20.6c0,87,0,174,0,261c-0.1,5.4,0.6,11.2-1.9,16.3
		c-3.3,7.5-11.2,12.7-19.4,12.8c-5.1,0.2-10.2-1.7-14.2-4.8c-33.6-26.6-67.2-53.3-100.9-79.8c-23,0-46,0-69,0
		c-5,0.1-10.1-1.3-14-4.4c-5.5-4-8.3-10.7-8.9-17.3v-99c0.6-3.9,1.1-8,3.3-11.5c3.7-6.7,11.2-10.9,18.8-10.8
		c23.3-0.1,46.6,0,69.9-0.1C163.1,166.4,196.6,139.8,230.2,113.2z"/>
	<path class="st0" d="M354.4,161.2c4.8-0.8,9.9,0.8,13.5,4.1c25.3,24.8,40.6,59.4,41.8,94.8c1.8,37.7-12.4,75.8-38.5,103.1
		c-2.6,2.9-5.6,5.9-9.5,6.9c-7.3,2.5-15.9-1.3-19.2-8.2c-3.2-6.2-1.8-14.2,3.2-19c15-15,25.4-34.5,29.6-55.3
		c6.6-31.9-2-66.6-23.1-91.6c-4.2-5.4-10.9-9.7-11.3-17.1C339.8,170.6,346.1,162.4,354.4,161.2z"/>
	<path class="st0" d="M310.7,203.9c5.3-1.4,11.3,0.3,15.2,4.2c12.9,12.7,21.3,29.8,23.4,47.8c3.3,25.2-6,51.7-24.7,69
		c-6.5,5.6-17.3,4.4-22.6-2.3c-3.7-4.4-4.8-10.9-2.6-16.3c0.9-2.5,2.7-4.6,4.5-6.5c7.8-8.1,12.6-19,13.3-30.2
		c1.1-13.8-4-28-13.7-37.9c-3.2-3.1-5.4-7.3-5.3-11.9C298.1,212.5,303.5,205.5,310.7,203.9z"/>
</g>
</svg>
