<svg width="25" height="32" viewBox="0 0 25 32" fill="none" xmlns="http://www.w3.org/2000/svg">
<path d="M13.0808 31.2057H11.6456C11.1969 31.0743 10.7277 31.0611 10.2723 30.9678C7.4358 30.469 4.90314 28.8901 3.20667 26.5628C1.48727 24.1862 0.672421 21.274 0.908696 18.3501C1.07628 15.4794 2.1407 12.7337 3.95187 10.5002C4.03096 10.3672 4.14664 10.2598 4.28511 10.1908C4.42358 10.1218 4.57898 10.0941 4.73276 10.1111C4.88654 10.128 5.0322 10.1888 5.15233 10.2863C5.27246 10.3838 5.362 10.5138 5.41025 10.6608C5.52803 10.9253 5.67405 11.1762 5.84578 11.4093C5.94318 11.5505 6.0833 11.6567 6.24556 11.7124C6.40782 11.768 6.58365 11.7701 6.7472 11.7184C6.90584 11.6696 7.0443 11.5705 7.14169 11.4361C7.23907 11.3016 7.29009 11.1392 7.28706 10.9732C7.33342 10.2556 7.36047 9.53803 7.47639 8.82871C7.88588 6.34655 8.8976 4.00262 10.423 2.00212C10.7736 1.433 11.2292 0.935663 11.7654 0.53656H12.2446C12.4418 0.622089 12.609 0.764441 12.7249 0.945447C12.8408 1.12645 12.9002 1.3379 12.8954 1.55279C12.9098 2.29503 13.0938 3.02414 13.4333 3.68431C13.7729 4.34448 14.259 4.91821 14.8544 5.36159C15.9941 6.21973 16.8685 7.38208 17.3771 8.715C17.6748 9.52036 17.8785 10.3574 17.9843 11.2095C17.9927 11.3707 18.052 11.525 18.1537 11.6504C18.2553 11.7757 18.3941 11.8656 18.5501 11.9072C18.709 11.956 18.8791 11.9546 19.0371 11.9031C19.1952 11.8516 19.3335 11.7526 19.4333 11.6196C19.6648 11.3445 19.8603 11.0411 20.0151 10.7165C20.0581 10.5564 20.1486 10.413 20.2747 10.3054C20.4009 10.1978 20.5567 10.131 20.7216 10.1138C20.8866 10.0965 21.0528 10.1297 21.1985 10.209C21.3441 10.2882 21.4623 10.4098 21.5375 10.5576C22.7002 11.9995 23.5583 13.6624 24.0596 15.4456C24.561 17.2288 24.6952 19.0952 24.4543 20.9319C24.4023 21.5576 24.2662 22.1735 24.0496 22.7628C23.9442 22.7115 23.9392 22.6105 23.9188 22.5122C23.8422 22.1696 23.6644 21.8579 23.4085 21.6176C23.1526 21.3772 22.8304 21.2193 22.4836 21.1642C22.1547 21.0985 21.8136 21.1328 21.5043 21.2627C21.195 21.3927 20.9319 21.6124 20.7487 21.8934C20.5279 22.2125 20.3016 22.5255 20.0774 22.8412C19.9798 22.7411 19.9041 22.6217 19.8555 22.4906C19.8068 22.3595 19.7861 22.2196 19.7948 22.08C19.7948 21.542 19.7948 21.0038 19.7948 20.4654C19.7948 19.2797 19.7948 18.0918 19.7948 16.9078C19.8028 16.8379 19.7962 16.7672 19.7752 16.7C19.7543 16.6329 19.7195 16.5709 19.6732 16.518C19.6269 16.4651 19.5701 16.4224 19.5063 16.3928C19.4425 16.3631 19.3733 16.3472 19.303 16.3458C19.2305 16.3402 19.1577 16.3496 19.0891 16.3737C19.0205 16.3977 18.9577 16.4357 18.9046 16.4854C18.8516 16.535 18.8094 16.5952 18.7809 16.662C18.7523 16.7288 18.738 16.8009 18.7388 16.8736C18.732 16.9729 18.7302 17.0726 18.7333 17.1722C18.7333 18.6769 18.7488 20.1822 18.7262 21.6864C18.6694 22.3877 18.8815 23.0844 19.3196 23.635C19.2014 23.9783 18.8901 24.1423 18.6422 24.3647C17.1611 25.6675 15.3638 26.5587 13.4303 26.9492C13.0548 27.0053 12.6958 27.1414 12.3776 27.3483C12.0585 27.5682 11.8096 27.8756 11.6608 28.2334C11.5121 28.5913 11.4698 28.9845 11.5391 29.3659C11.5774 29.7461 11.7234 30.1076 11.9597 30.4079C12.1961 30.7083 12.5132 30.935 12.8738 31.0616C12.9555 31.0942 13.0577 31.0914 13.0808 31.2057ZM4.71529 20.2926C4.71529 21.4005 4.71197 22.5084 4.71529 23.6162C4.71529 24.028 4.92836 24.2643 5.26398 24.2577C5.59959 24.251 5.77236 24.0286 5.77457 23.6201C5.77457 23.2011 5.77457 22.7816 5.77457 22.3626C5.77457 22.2771 5.7558 22.1843 5.85848 22.1264C5.97864 22.0587 6.11846 22.0345 6.25438 22.0578C6.39031 22.0812 6.51405 22.1506 6.60478 22.2545C6.98591 22.6937 7.24884 23.2227 7.36875 23.7918C7.37663 23.8667 7.40055 23.9391 7.43889 24.004C7.47723 24.0688 7.52909 24.1247 7.59094 24.1677C7.65278 24.2108 7.72317 24.24 7.79732 24.2534C7.87148 24.2669 7.94765 24.2642 8.02066 24.2455C8.32702 24.1715 8.46723 23.8939 8.38609 23.5036C8.25119 22.8453 7.95556 22.2305 7.52552 21.714C7.3969 21.5589 7.41788 21.4817 7.56416 21.3619C7.92053 21.0678 8.19617 20.6879 8.36511 20.2579C8.39494 20.197 8.41245 20.1308 8.41663 20.0631C8.42081 19.9954 8.41159 19.9276 8.38948 19.8634C8.36738 19.7993 8.33283 19.7402 8.28782 19.6895C8.24281 19.6388 8.18822 19.5974 8.1272 19.5679C8.06436 19.5364 7.99592 19.5178 7.92582 19.513C7.85573 19.5083 7.78539 19.5175 7.71889 19.5401C7.65238 19.5628 7.59104 19.5984 7.53842 19.645C7.4858 19.6915 7.44295 19.7481 7.41236 19.8113C7.36157 19.8974 7.32294 19.9901 7.2727 20.0757C7.00649 20.5286 6.57455 20.8602 6.06824 21.0003C5.84744 21.0682 5.74532 21.0058 5.77237 20.7657C5.77629 20.6958 5.77629 20.6258 5.77237 20.5559C5.77237 19.3482 5.77237 18.1404 5.77237 16.9326C5.77237 16.5346 5.53942 16.3105 5.18614 16.3453C4.88475 16.3745 4.71418 16.5998 4.71308 16.9978C4.71253 18.0968 4.71473 19.1947 4.71529 20.2926ZM17.6845 21.9619C17.6845 21.5793 17.6923 21.2796 17.6845 20.981C17.6816 20.5923 17.5255 20.2204 17.2501 19.9461C16.9747 19.6718 16.6022 19.5173 16.2134 19.516C15.8348 19.5075 15.4559 19.5075 15.0769 19.516C15.0045 19.5081 14.9313 19.516 14.8623 19.539C14.7932 19.5621 14.73 19.5997 14.6768 19.6495C14.6237 19.6992 14.5819 19.7598 14.5544 19.8272C14.5268 19.8946 14.5141 19.9671 14.5172 20.0398C14.5161 20.1125 14.5306 20.1846 14.5597 20.2512C14.5888 20.3179 14.6318 20.3775 14.6859 20.4261C14.74 20.4746 14.8038 20.5111 14.8732 20.5329C14.9425 20.5547 15.0158 20.5615 15.0879 20.5526C15.397 20.5587 15.7062 20.5526 16.0153 20.5526C16.1351 20.5445 16.2553 20.5634 16.3669 20.6078C16.4631 20.6528 16.5405 20.73 16.5857 20.8261C16.6309 20.9222 16.641 21.0311 16.6142 21.1339C16.5822 21.3773 16.3813 21.2653 16.2554 21.2746C15.9181 21.3 15.5781 21.2559 15.2408 21.31C14.8718 21.3648 14.5371 21.5572 14.3039 21.8484C14.0707 22.1397 13.9562 22.5083 13.9834 22.8804C14.0095 23.2469 14.1707 23.5907 14.4359 23.8451C14.7011 24.0994 15.0513 24.2463 15.4186 24.2571C15.6874 24.2643 15.9568 24.2637 16.2261 24.2571C16.5632 24.253 16.8885 24.1325 17.147 23.9162C17.4055 23.6998 17.5813 23.4008 17.6448 23.0698C17.6872 22.7021 17.7008 22.3316 17.6845 21.9619ZM9.48346 21.8625C9.45039 22.2671 9.4904 22.6744 9.60159 23.0648C9.71112 23.373 9.90311 23.6453 10.1566 23.8521C10.4102 24.0588 10.7156 24.192 11.0395 24.2372C11.3616 24.2963 11.6938 24.2654 11.9994 24.1479C12.305 24.0303 12.5723 23.8307 12.7717 23.571C12.8233 23.5196 12.8635 23.458 12.89 23.3902C12.9164 23.3224 12.9284 23.2499 12.9253 23.1771C12.9221 23.1044 12.9038 23.0332 12.8716 22.9679C12.8393 22.9027 12.7939 22.8449 12.7381 22.7982C12.6851 22.752 12.6233 22.7171 12.5565 22.6955C12.4896 22.6739 12.4191 22.666 12.3492 22.6724C12.2792 22.6788 12.2113 22.6993 12.1495 22.7327C12.0877 22.7661 12.0333 22.8116 11.9895 22.8666C11.9752 22.8804 11.963 22.8964 11.9487 22.9108C11.84 23.0425 11.6917 23.1358 11.5259 23.1767C11.3601 23.2177 11.1855 23.2042 11.028 23.1382C10.8731 23.0771 10.7425 22.967 10.656 22.8248C10.5696 22.6826 10.5319 22.5161 10.5488 22.3505C10.5554 22.0613 10.5571 21.7715 10.5488 21.4822C10.5227 21.3073 10.5561 21.1288 10.6436 20.9751C10.7311 20.8215 10.8676 20.7017 11.0313 20.6349C11.1932 20.5645 11.3741 20.5507 11.5448 20.5956C11.7156 20.6406 11.8662 20.7417 11.9724 20.8827C12.0168 20.9403 12.0725 20.9882 12.136 21.0235C12.1996 21.0588 12.2696 21.0808 12.342 21.0882C12.4143 21.0955 12.4874 21.088 12.5567 21.0662C12.626 21.0443 12.6902 21.0086 12.7452 20.9611C12.7992 20.9092 12.842 20.8469 12.8711 20.7779C12.9003 20.7089 12.915 20.6347 12.9146 20.5598C12.9141 20.485 12.8984 20.411 12.8684 20.3424C12.8385 20.2737 12.7949 20.2119 12.7403 20.1607C12.5245 19.8944 12.2363 19.6964 11.9103 19.5906C11.5844 19.4848 11.2347 19.4758 10.9038 19.5646C10.5686 19.6357 10.2613 19.8023 10.0188 20.0444C9.77637 20.2864 9.60921 20.5935 9.53756 20.9285C9.48791 21.2374 9.46979 21.55 9.48346 21.8625Z" fill="#FE8C95"/>
<path d="M24.0475 22.7584C23.7602 23.9808 23.244 25.1378 22.5262 26.1681C21.6593 27.4657 20.5313 28.5682 19.2144 29.4053C17.8975 30.2425 16.4205 30.7959 14.8777 31.0301C14.5139 31.061 14.153 31.1191 13.798 31.204H13.0804C13.0572 31.0903 12.955 31.0936 12.8739 31.0622C12.5196 30.9208 12.2093 30.6879 11.9746 30.3873C11.7399 30.0866 11.5893 29.729 11.5382 29.351C11.4871 28.9731 11.5373 28.5883 11.6838 28.2361C11.8302 27.8839 12.0676 27.577 12.3716 27.3467C12.6898 27.1397 13.0488 27.0036 13.4242 26.9476C15.3578 26.5571 17.155 25.6659 18.6362 24.3631C18.8846 24.1423 19.1954 23.9767 19.3135 23.6333C19.4002 23.6996 19.4869 23.7664 19.5746 23.831C19.9471 24.1214 20.4097 24.2718 20.8818 24.256C20.9774 24.2548 21.0705 24.2255 21.1495 24.1717C21.2286 24.1179 21.29 24.042 21.3261 23.9535C21.368 23.8677 21.3847 23.7718 21.3742 23.677C21.3638 23.5821 21.3266 23.4921 21.2671 23.4175C21.2054 23.3455 21.1284 23.2882 21.0416 23.25C20.9549 23.2118 20.8606 23.1936 20.7658 23.1967C20.6312 23.1925 20.4992 23.1583 20.3794 23.0966C20.2597 23.035 20.1552 22.9473 20.0736 22.8401C20.2977 22.5244 20.5257 22.2114 20.7449 21.8923C20.928 21.6113 21.1912 21.3916 21.5005 21.2616C21.8097 21.1317 22.1509 21.0974 22.4798 21.1631C22.8266 21.2182 23.1488 21.3761 23.4047 21.6165C23.6606 21.8568 23.8384 22.1685 23.915 22.5111C23.9398 22.6088 23.9421 22.7093 24.0475 22.7584Z" fill="#FE6D7A"/>
<path d="M4.71534 20.2926C4.71534 19.1947 4.71534 18.0968 4.71534 16.9989C4.71534 16.6009 4.88757 16.3757 5.18841 16.3464C5.54113 16.3116 5.77297 16.5357 5.77463 16.9337C5.77849 18.1415 5.77463 19.3493 5.77463 20.557C5.77855 20.6269 5.77855 20.6969 5.77463 20.7668C5.74703 21.0069 5.8486 21.0693 6.0705 21.0014C6.57681 20.8613 7.00875 20.5297 7.27496 20.0768C7.3252 19.9907 7.36439 19.898 7.41462 19.8124C7.44521 19.7492 7.48806 19.6926 7.54068 19.6461C7.5933 19.5995 7.65465 19.5639 7.72115 19.5412C7.78766 19.5186 7.85799 19.5094 7.92808 19.5141C7.99818 19.5189 8.06663 19.5375 8.12946 19.569C8.1904 19.5984 8.24495 19.6395 8.29 19.6899C8.33505 19.7404 8.36971 19.7992 8.39201 19.8631C8.41431 19.927 8.42381 19.9946 8.41996 20.0622C8.41611 20.1297 8.39899 20.1958 8.36958 20.2568C8.20064 20.6868 7.925 21.0667 7.56863 21.3608C7.42235 21.4805 7.40303 21.5578 7.52999 21.7129C7.96003 22.2294 8.25566 22.8442 8.39056 23.5025C8.4717 23.8933 8.33149 24.1704 8.02513 24.2444C7.95222 24.2626 7.87626 24.2649 7.80237 24.2512C7.72848 24.2375 7.6584 24.2081 7.59686 24.165C7.53532 24.1219 7.48375 24.066 7.44565 24.0013C7.40754 23.9365 7.38378 23.8643 7.37598 23.7896C7.25607 23.2205 6.99314 22.6915 6.61201 22.2522C6.52128 22.1484 6.39754 22.0789 6.26161 22.0556C6.12569 22.0323 5.98588 22.0565 5.86571 22.1242C5.76304 22.1794 5.78236 22.2743 5.7818 22.3604C5.7818 22.7794 5.7818 23.1989 5.7818 23.6179C5.7818 24.0264 5.59854 24.2494 5.27121 24.2554C4.94387 24.2615 4.72417 24.0258 4.72252 23.614C4.71203 22.5084 4.71534 21.4005 4.71534 20.2926Z" fill="#FEFEFE"/>
<path d="M17.684 21.9619C17.7002 22.3316 17.6869 22.7021 17.6443 23.0698C17.5808 23.4008 17.405 23.6998 17.1465 23.9162C16.888 24.1325 16.5627 24.253 16.2256 24.2571C15.9568 24.2632 15.6869 24.2637 15.4181 24.2571C15.0479 24.2467 14.6951 24.098 14.429 23.8404C14.1629 23.5828 14.0029 23.235 13.9805 22.8654C13.9581 22.4957 14.0748 22.1311 14.3078 21.8432C14.5408 21.5553 14.873 21.3651 15.2392 21.31C15.5765 21.2548 15.9165 21.3 16.2538 21.2746C16.3797 21.2653 16.5806 21.3773 16.6126 21.1339C16.6394 21.0311 16.6293 20.9222 16.5841 20.8261C16.5389 20.73 16.4615 20.6528 16.3653 20.6078C16.2537 20.5634 16.1335 20.5445 16.0137 20.5526C15.7046 20.5526 15.3954 20.557 15.0863 20.5526C15.0143 20.56 14.9416 20.5523 14.8727 20.53C14.8039 20.5077 14.7405 20.4713 14.6865 20.4231C14.6325 20.3748 14.5892 20.3159 14.5593 20.25C14.5293 20.1841 14.5135 20.1127 14.5127 20.0404C14.512 19.968 14.5263 19.8963 14.5548 19.8297C14.5833 19.7632 14.6254 19.7034 14.6783 19.654C14.7312 19.6047 14.7939 19.5669 14.8622 19.5432C14.9306 19.5194 15.0031 19.5101 15.0753 19.516C15.454 19.5086 15.8328 19.5086 16.2118 19.516C16.6006 19.5173 16.9731 19.6718 17.2485 19.9461C17.5239 20.2204 17.68 20.5923 17.6829 20.981C17.6923 21.2802 17.684 21.5793 17.684 21.9619ZM15.9728 22.3439V22.3494C15.7939 22.3387 15.6144 22.3404 15.4357 22.3544C15.3801 22.3555 15.3253 22.3683 15.2749 22.3919C15.2245 22.4156 15.1796 22.4496 15.1432 22.4917C15.1067 22.5338 15.0796 22.5831 15.0634 22.6363C15.0472 22.6896 15.0424 22.7457 15.0493 22.8009C15.0474 22.8538 15.0567 22.9065 15.0764 22.9556C15.0962 23.0048 15.126 23.0492 15.1639 23.0861C15.2019 23.1229 15.2472 23.1514 15.2969 23.1697C15.3465 23.188 15.3995 23.1957 15.4523 23.1923C15.7012 23.2006 15.9491 23.2055 16.1992 23.1923C16.5171 23.173 16.6264 22.9792 16.6187 22.5641C16.6126 22.2202 16.3631 22.3798 16.2091 22.3472C16.1308 22.3383 16.0513 22.3372 15.9728 22.3439Z" fill="#FEFEFE"/>
<path d="M20.0747 22.8396C20.1563 22.9468 20.2608 23.0344 20.3805 23.0961C20.5003 23.1578 20.6323 23.192 20.7669 23.1962C20.8617 23.193 20.9559 23.2112 21.0427 23.2495C21.1294 23.2877 21.2065 23.3449 21.2681 23.417C21.3277 23.4916 21.3648 23.5815 21.3753 23.6764C21.3857 23.7713 21.369 23.8672 21.3272 23.953C21.2911 24.0415 21.2296 24.1174 21.1506 24.1712C21.0716 24.225 20.9784 24.2543 20.8828 24.2554C20.4108 24.2713 19.9482 24.1208 19.5757 23.8304C19.4879 23.7653 19.4018 23.6985 19.3146 23.6328C18.8766 23.0822 18.6644 22.3855 18.7212 21.6842C18.7438 20.18 18.7278 18.6747 18.7284 17.17C18.7252 17.0704 18.7271 16.9707 18.7339 16.8713C18.7331 16.7987 18.7474 16.7266 18.7759 16.6598C18.8044 16.593 18.8466 16.5328 18.8997 16.4832C18.9527 16.4335 19.0156 16.3955 19.0842 16.3715C19.1527 16.3474 19.2256 16.338 19.298 16.3436C19.3683 16.3449 19.4376 16.3609 19.5013 16.3906C19.5651 16.4202 19.622 16.4629 19.6683 16.5158C19.7146 16.5687 19.7493 16.6307 19.7703 16.6978C19.7912 16.765 19.7979 16.8357 19.7899 16.9056C19.7943 18.0913 19.7899 19.2792 19.7899 20.4632C19.7899 21.0012 19.7899 21.5394 19.7899 22.0778C19.7814 22.2176 19.8023 22.3577 19.8514 22.4889C19.9005 22.6201 19.9765 22.7396 20.0747 22.8396Z" fill="#FEFEFE"/>
<path d="M9.48351 21.8631C9.4691 21.5506 9.48649 21.2375 9.5354 20.9285C9.60705 20.5935 9.77421 20.2864 10.0167 20.0444C10.2591 19.8023 10.5665 19.6357 10.9016 19.5646C11.2326 19.4758 11.5822 19.4848 11.9082 19.5906C12.2341 19.6964 12.5224 19.8944 12.7381 20.1607C12.7927 20.2119 12.8363 20.2737 12.8663 20.3424C12.8962 20.411 12.9119 20.485 12.9124 20.5598C12.9129 20.6347 12.8981 20.7089 12.869 20.7779C12.8399 20.8469 12.797 20.9092 12.7431 20.9611C12.688 21.0086 12.6239 21.0443 12.5545 21.0662C12.4852 21.088 12.4121 21.0955 12.3398 21.0882C12.2675 21.0808 12.1974 21.0588 12.1339 21.0235C12.0703 20.9882 12.0147 20.9403 11.9703 20.8827C11.864 20.7417 11.7134 20.6406 11.5427 20.5956C11.3719 20.5507 11.191 20.5645 11.0291 20.6349C10.8654 20.7017 10.7289 20.8215 10.6414 20.9751C10.5539 21.1288 10.5206 21.3073 10.5467 21.4822C10.556 21.7715 10.5538 22.0613 10.5467 22.3505C10.5297 22.5161 10.5674 22.6826 10.6539 22.8249C10.7404 22.9671 10.871 23.0771 11.0258 23.1382C11.1833 23.2042 11.3579 23.2177 11.5238 23.1767C11.6896 23.1358 11.8378 23.0425 11.9465 22.9108C11.9603 22.8964 11.973 22.881 11.9874 22.8666C12.0311 22.8116 12.0855 22.7661 12.1473 22.7327C12.2091 22.6993 12.2771 22.6788 12.347 22.6724C12.417 22.6661 12.4875 22.6739 12.5543 22.6955C12.6212 22.7171 12.6829 22.752 12.7359 22.7982C12.7917 22.8449 12.8372 22.9027 12.8694 22.9679C12.9017 23.0332 12.9199 23.1044 12.9231 23.1771C12.9263 23.2499 12.9143 23.3224 12.8878 23.3902C12.8614 23.458 12.8211 23.5196 12.7696 23.571C12.5701 23.8307 12.3029 24.0303 11.9972 24.1479C11.6916 24.2654 11.3595 24.2963 11.0374 24.2372C10.7134 24.192 10.408 24.0588 10.1545 23.8521C9.90095 23.6453 9.70897 23.373 9.59943 23.0648C9.48905 22.6744 9.44979 22.2674 9.48351 21.8631Z" fill="#FEFEFE"/>
<path d="M15.9733 22.3439C16.0527 22.3368 16.1326 22.3378 16.2118 22.3466C16.3658 22.3786 16.6153 22.2197 16.6213 22.5636C16.6291 22.9787 16.5198 23.1708 16.2018 23.1917C15.9534 23.2066 15.705 23.2011 15.455 23.1917C15.4021 23.1952 15.3492 23.1875 15.2995 23.1692C15.2499 23.1509 15.2046 23.1224 15.1666 23.0855C15.1286 23.0486 15.0988 23.0042 15.0791 22.9551C15.0593 22.906 15.0501 22.8533 15.052 22.8004C15.0451 22.7451 15.0499 22.6891 15.0661 22.6358C15.0822 22.5825 15.1094 22.5332 15.1458 22.4911C15.1823 22.449 15.2271 22.415 15.2775 22.3914C15.3279 22.3677 15.3827 22.3549 15.4384 22.3538C15.6171 22.3398 15.7966 22.3381 15.9755 22.3488L15.9733 22.3439Z" fill="#FE8C95"/>
</svg>
