<svg width="37" height="33" viewBox="0 0 37 33" fill="none" xmlns="http://www.w3.org/2000/svg">
<path d="M0.312012 21.4952C0.412712 21.289 0.471973 21.0651 0.486441 20.8361C0.838732 19.3684 1.69223 18.0698 2.89971 17.1641C4.10718 16.2584 5.59288 15.8026 7.1005 15.8753C8.573 15.951 9.97581 16.5259 11.0779 17.5054C12.18 18.4849 12.9156 19.8105 13.1637 21.2639C13.3751 22.8354 13.0625 24.4327 12.2744 25.8085C10.9882 28.1457 9.32877 30.257 7.3616 32.0588C7.17447 32.2393 7.00335 32.5634 6.75937 32.5297C6.54961 32.5004 6.37297 32.2178 6.1875 32.0395C4.36053 30.3447 2.78951 28.3934 1.52365 26.2468C0.985615 25.329 0.603594 24.3282 0.393149 23.2854C0.381005 23.2208 0.398676 23.1402 0.312012 23.1093V21.4952ZM8.86359 22.3315C8.86384 21.7842 8.64932 21.2586 8.26616 20.8678C7.88299 20.477 7.36178 20.2522 6.81457 20.2416C6.53685 20.2387 6.26129 20.2906 6.00365 20.3943C5.74602 20.4981 5.51136 20.6516 5.31314 20.8461C5.11491 21.0406 4.95701 21.2724 4.84846 21.528C4.73991 21.7836 4.68284 22.0582 4.68053 22.3359C4.68824 22.8967 4.9175 23.4317 5.31825 23.8241C5.719 24.2164 6.25869 24.4343 6.81953 24.4302C7.36671 24.4162 7.88676 24.1889 8.26866 23.7968C8.65056 23.4047 8.86406 22.8789 8.86359 22.3315Z" fill="#E53950"/>
<path d="M36.2318 7.67425C36.1253 8.06065 36.0331 8.45311 35.9094 8.83344C35.291 10.5491 34.3703 12.14 33.1908 13.531C32.213 14.7708 31.1352 15.9283 29.9683 16.992C29.8628 17.0886 29.7949 17.188 29.6321 17.0362C27.5976 15.2182 25.8594 13.0937 24.4803 10.7395C23.7061 9.47796 23.3018 8.02438 23.3133 6.5443C23.4125 5.06521 24.0091 3.66316 25.0061 2.56608C26.003 1.469 27.3418 0.7414 28.8046 0.501558C30.4556 0.256964 32.1374 0.656628 33.5017 1.6178C34.8661 2.57898 35.8086 4.02804 36.1341 5.66496C36.1645 5.81952 36.1131 5.99617 36.2313 6.12975L36.2318 7.67425ZM31.871 6.89316C31.8637 6.34588 31.6446 5.82275 31.2595 5.43373C30.8745 5.04471 30.3537 4.82011 29.8065 4.80716C29.529 4.80447 29.2537 4.85667 28.9964 4.96078C28.7391 5.0649 28.5049 5.21885 28.3074 5.4138C28.1098 5.60875 27.9527 5.84084 27.8452 6.09671C27.7377 6.35259 27.6818 6.6272 27.6808 6.90475C27.6838 7.1825 27.7416 7.45694 27.8508 7.71234C27.96 7.96773 28.1185 8.19908 28.3172 8.39315C28.516 8.58721 28.751 8.74018 29.0089 8.8433C29.2669 8.94641 29.5426 8.99765 29.8203 8.99407C30.3665 8.97465 30.8842 8.74549 31.2658 8.35422C31.6474 7.96296 31.8636 7.43968 31.8694 6.89316H31.871Z" fill="#E53950"/>
<path d="M18.6881 32.2068C16.2333 32.2068 13.778 32.2024 11.3233 32.2129C11.0473 32.2129 10.9595 32.1428 10.9733 31.8634C10.9965 31.3854 10.9954 30.9046 10.9733 30.4282C10.9612 30.1627 11.0434 30.097 11.3045 30.097C13.2216 30.1081 15.1387 30.1031 17.0563 30.1031C19.9437 30.1031 22.8312 30.1031 25.7189 30.1031C26.3249 30.1383 26.9262 29.9777 27.434 29.645C27.9418 29.3123 28.3292 28.8252 28.539 28.2556C28.6942 27.8408 28.7479 27.395 28.6957 26.9552C28.6434 26.5155 28.4868 26.0946 28.2389 25.7277C27.9909 25.3608 27.6588 25.0585 27.2703 24.8461C26.8818 24.6336 26.4481 24.5171 26.0054 24.5064C24.0535 24.4771 22.1005 24.5185 20.1486 24.492C19.1572 24.5312 18.178 24.2619 17.3461 23.7211C16.5142 23.1802 15.8706 22.3946 15.5041 21.4726C15.1938 20.744 15.0654 19.9509 15.1301 19.1617C15.1947 18.3724 15.4504 17.6108 15.8752 16.9425C16.2999 16.2741 16.8809 15.7192 17.568 15.3255C18.2551 14.9319 19.0277 14.7114 19.8191 14.683C21.6407 14.6405 23.4662 14.6764 25.29 14.6681C25.503 14.6681 25.5737 14.7277 25.566 14.9441C25.5516 15.4464 25.5461 15.9498 25.566 16.4516C25.5776 16.7166 25.497 16.7828 25.2348 16.7828C23.4347 16.7734 21.6335 16.7535 19.834 16.7911C19.445 16.8125 19.0649 16.9159 18.7186 17.0943C18.3723 17.2728 18.0676 17.5224 17.8244 17.8267C17.5813 18.1311 17.4051 18.4834 17.3074 18.8605C17.2098 19.2377 17.1929 19.6312 17.2578 20.0153C17.3679 20.711 17.7342 21.3403 18.2848 21.7795C18.8354 22.2188 19.5304 22.4362 20.2331 22.3889C22.127 22.3944 24.0209 22.3834 25.9143 22.3917C26.5704 22.3906 27.22 22.5214 27.8246 22.7763C28.4293 23.0311 28.9765 23.4048 29.434 23.8751C29.8914 24.3455 30.2497 24.9029 30.4876 25.5144C30.7255 26.1259 30.8381 26.7789 30.8188 27.4347C30.778 28.7167 30.2391 29.9322 29.3166 30.8233C28.394 31.7143 27.1604 32.2106 25.8779 32.2068C23.4816 32.2156 21.0848 32.2068 18.6881 32.2068Z" fill="#FDBF04"/>
</svg>
