<svg width="50" height="49" viewBox="0 0 50 49" fill="none" xmlns="http://www.w3.org/2000/svg">
    <path
        d="M36.2995 14.7037H32.0452C31.8149 14.7037 31.5847 14.6968 31.3544 14.7123C31.1962 14.7137 31.0398 14.747 30.8948 14.8104C30.7497 14.8737 30.619 14.9658 30.5104 15.0809C30.4018 15.1961 30.3177 15.3321 30.263 15.4806C30.2083 15.6291 30.1843 15.7872 30.1923 15.9453C30.1916 16.104 30.2228 16.2612 30.2841 16.4076C30.3454 16.554 30.4354 16.6866 30.5489 16.7975C30.6624 16.9085 30.7971 16.9954 30.9448 17.0533C31.0926 17.1112 31.2505 17.1388 31.4091 17.1345C32.748 17.1552 34.0874 17.1414 35.4263 17.1426H36.2592V19.5814H35.5409C34.1824 19.5814 32.824 19.5659 31.4661 19.5906C31.3027 19.5805 31.139 19.6039 30.985 19.6595C30.831 19.715 30.69 19.8015 30.5707 19.9136C30.4514 20.0258 30.3564 20.1611 30.2914 20.3114C30.2264 20.4616 30.1929 20.6236 30.1929 20.7873C30.1881 20.9553 30.2179 21.1224 30.2805 21.2784C30.3431 21.4343 30.4371 21.5757 30.5567 21.6938C30.6763 21.8118 30.8189 21.9039 30.9757 21.9645C31.1324 22.025 31.3 22.0526 31.4678 22.0456C31.6014 22.0542 31.7355 22.0491 31.8708 22.0491H36.2609V24.4666C36.0825 24.4753 35.8989 24.4919 35.7153 24.4925C34.3378 24.4925 32.9604 24.4896 31.583 24.4954C31.4119 24.4737 31.2382 24.4881 31.0732 24.5378C30.9081 24.5875 30.7553 24.6714 30.6247 24.784C30.4941 24.8965 30.3887 25.0353 30.3152 25.1912C30.2416 25.3472 30.2018 25.5168 30.198 25.6892C30.1837 26.4548 30.6948 26.9268 31.5876 26.9343C33.003 26.9458 34.419 26.9515 35.8344 26.9297C36.2402 26.9233 36.3686 27.0396 36.444 27.4558C36.6454 28.7367 37.1415 29.9535 37.8931 31.0102C38.6448 32.0668 39.6314 32.9346 40.7755 33.5451C42.6594 34.5996 44.5635 35.6173 46.4602 36.6482C47.7278 37.3088 48.7253 38.391 49.2807 39.7082C49.3676 39.9131 49.4309 40.1278 49.5322 40.4145H48.899C43.8872 40.4145 38.8748 40.4047 33.863 40.4191C32.9149 40.4404 31.9732 40.2595 31.1005 39.8885C30.2278 39.5175 29.4441 38.9649 28.8016 38.2674C20.7431 29.8835 12.6746 21.5084 4.59608 13.1421C4.49247 13.0344 4.39461 12.9205 4.26855 12.78C4.54082 12.4853 4.79581 12.2044 5.05426 11.9298C8.3433 8.40596 11.631 4.88111 14.9173 1.35531C15.3894 0.795861 16.0123 0.383967 16.7119 0.168726C17.4115 -0.0465154 18.1583 -0.0560186 18.8631 0.141349C19.6409 0.332597 20.3329 0.777204 20.8301 1.40511C21.3273 2.03301 21.6015 2.80851 21.6094 3.60939C21.592 4.20164 21.606 4.79438 21.6514 5.38515C21.7556 6.25929 22.177 7.06481 22.8356 7.64889C23.4943 8.23297 24.3444 8.55499 25.2248 8.55388C27.4627 8.58496 29.7047 8.64426 31.9381 8.54467C34.7586 8.41862 36.5257 10.3078 36.3127 12.9009C36.2609 13.469 36.2995 14.0452 36.2995 14.7037Z"
        fill="#6190FF" />
    <path
        d="M2.72251 14.5206C2.83941 14.7356 2.97419 14.9402 3.12544 15.1325C11.0846 23.3991 19.0445 31.6646 27.0052 39.9292C27.8883 40.8869 28.9664 41.6441 30.1668 42.1499C31.3673 42.6557 32.6622 42.8983 33.9643 42.8614C38.9756 42.8257 43.9874 42.851 48.9992 42.851H49.7314C49.7877 43.8752 49.5378 44.8929 49.0136 45.7745C48.5339 46.7211 47.8022 47.5169 46.899 48.0742C45.9959 48.6315 44.9565 48.9286 43.8953 48.9329C39.8603 48.9905 35.8195 49.059 31.7897 48.9012C29.7853 48.8183 27.8172 48.3388 25.9993 47.4905C24.1813 46.6422 22.5496 45.4419 21.1984 43.9591C15.3318 37.8461 9.47518 31.7237 3.62852 25.5919C2.30933 24.279 1.4556 22.5707 1.19747 20.7275C0.93933 18.8842 1.29094 17.0072 2.19871 15.3823C2.31958 15.1527 2.46694 14.9357 2.72251 14.5206Z"
        fill="#A1C0FF" />
    <path
        d="M9.95738 45.2899H17.4184C17.5911 45.2899 17.7638 45.2818 17.9365 45.2974C18.2565 45.3034 18.562 45.4323 18.7897 45.6573C19.0173 45.8823 19.1498 46.1862 19.1597 46.5062C19.1586 46.8356 19.0277 47.1513 18.7954 47.385C18.5631 47.6186 18.2481 47.7512 17.9186 47.7541C17.8035 47.7638 17.6884 47.7598 17.5733 47.7598H2.36451C2.24939 47.7598 2.13427 47.7638 2.01914 47.7529C1.69898 47.7515 1.39231 47.6238 1.16592 47.3974C0.939523 47.171 0.811724 46.8643 0.810361 46.5441C0.803138 46.3805 0.829803 46.2172 0.888671 46.0644C0.94754 45.9116 1.03735 45.7726 1.15246 45.6561C1.26758 45.5397 1.40552 45.4482 1.55763 45.3876C1.70974 45.3269 1.87274 45.2984 2.03641 45.3037C3.01092 45.2703 3.98773 45.2922 4.96339 45.2916L9.95738 45.2899Z"
        fill="#FF9F2C" />
    <path
        d="M6.85536 41.61C5.23041 41.61 3.60546 41.6255 1.98109 41.6025C1.82239 41.6056 1.66477 41.5758 1.51813 41.515C1.3715 41.4542 1.23902 41.3637 1.12902 41.2493C1.01901 41.1349 0.933854 40.9989 0.878908 40.85C0.823962 40.7011 0.800408 40.5424 0.809723 40.3839C0.811389 40.075 0.931255 39.7785 1.1447 39.5552C1.35815 39.3319 1.64898 39.1988 1.95749 39.1832C2.01505 39.178 2.07261 39.1786 2.13018 39.1786C5.32251 39.1786 8.51465 39.1786 11.7066 39.1786C12.0055 39.1518 12.3037 39.2371 12.5432 39.4179C12.7827 39.5988 12.9463 39.8623 13.0023 40.1571C13.0647 40.4306 13.0269 40.7173 12.8956 40.9651C12.7644 41.213 12.5486 41.4055 12.2874 41.5075C12.0327 41.5848 11.767 41.619 11.5011 41.6088C9.95271 41.6175 8.40432 41.6134 6.85651 41.6134L6.85536 41.61Z"
        fill="#FF9F2C" />
    <path
        d="M3.82139 35.5051C3.24924 35.5051 2.67651 35.5149 2.10435 35.5051C1.93726 35.5167 1.76957 35.4936 1.61186 35.4372C1.45416 35.3807 1.30986 35.2922 1.18806 35.1772C1.06626 35.0623 0.969617 34.9233 0.904217 34.7691C0.838816 34.6149 0.806082 34.4488 0.808077 34.2813C0.802789 34.1131 0.8336 33.9457 0.898429 33.7904C0.963257 33.6351 1.0606 33.4955 1.18391 33.381C1.30723 33.2665 1.45364 33.1797 1.6133 33.1265C1.77297 33.0733 1.94217 33.0549 2.10953 33.0726C3.27341 33.0584 4.4373 33.0584 5.60118 33.0726C5.76814 33.0599 5.93591 33.0818 6.094 33.137C6.25209 33.1921 6.39709 33.2794 6.51991 33.3932C6.64273 33.507 6.74073 33.6449 6.80778 33.7983C6.87482 33.9517 6.90947 34.1174 6.90954 34.2848C6.90705 34.4522 6.87064 34.6174 6.80252 34.7703C6.7344 34.9233 6.63598 35.0608 6.51321 35.1746C6.39044 35.2885 6.24586 35.3763 6.08821 35.4327C5.93057 35.4891 5.76312 35.5129 5.596 35.5028C5.00658 35.516 4.41542 35.5051 3.82139 35.5051Z"
        fill="#FF9F2C" />
</svg>
