<svg width="30" height="35" viewBox="0 0 30 35" fill="none" xmlns="http://www.w3.org/2000/svg">
<path d="M16.3088 34.4725H14.0125C13.9501 34.3875 13.8551 34.4135 13.7718 34.4046C12.2791 34.2664 10.82 33.8798 9.45459 33.2609C4.70352 31.0253 1.85962 27.3252 1.07634 22.1188C0.654067 19.286 1.12747 16.3921 2.43039 13.8415C3.00178 12.7215 3.70605 11.6743 4.52799 10.7227C5.34232 9.85544 6.2379 9.06819 7.20243 8.37176C7.26203 8.34568 7.32009 8.3162 7.37631 8.28344C9.19797 7.09107 11.2663 6.32727 13.4257 6.0495C14.602 5.91518 15.7899 5.91518 16.9662 6.0495C18.3724 6.2347 19.7448 6.62042 21.0416 7.1949C21.7803 7.54386 22.4972 7.93723 23.1884 8.37286C24.1556 9.06713 25.0523 9.85476 25.8655 10.7244C25.9114 10.7857 25.9539 10.8491 26.0024 10.9077C27.3919 12.5011 28.4036 14.3876 28.9623 16.4266C29.5209 18.4656 29.6121 20.6044 29.2289 22.6835C28.7316 25.5365 27.3753 28.1697 25.3414 30.2313C23.3074 32.2929 20.6927 33.6845 17.8466 34.2203C17.3366 34.313 16.8221 34.3886 16.3088 34.4725ZM14.3442 8.69413C12.8606 8.76796 11.4095 9.15612 10.0872 9.83291C9.2044 10.2383 8.39341 10.7845 7.68598 11.4503C7.21886 11.7973 6.8033 12.2087 6.45171 12.6724C5.58588 13.6257 4.90424 14.7313 4.44132 15.9331C3.99291 17.0326 3.72811 18.1983 3.65749 19.3836C3.62855 19.9304 3.62855 20.4784 3.65749 21.0253C3.67306 21.5148 3.73666 22.0016 3.84737 22.4787C4.2315 24.4469 5.13507 26.2765 6.46441 27.7779C6.82077 28.2055 7.21604 28.5991 7.64513 28.9536C9.50623 30.6012 11.8649 31.579 14.3459 31.7313C14.9088 31.8094 15.4798 31.8094 16.0427 31.7313C17.1098 31.6649 18.1612 31.44 19.1621 31.0639C20.4805 30.5968 21.6935 29.8736 22.7313 28.936C23.1895 28.5989 23.5949 28.1954 23.9341 27.7387C24.029 27.6338 24.1301 27.5339 24.2178 27.4235C25.6828 25.5986 26.5566 23.3705 26.7228 21.0363C26.7623 20.4832 26.7623 19.9279 26.7228 19.3748C26.6652 18.5482 26.5171 17.7304 26.2812 16.936C25.8235 15.3592 25.0202 13.9042 23.9297 12.6768C23.5945 12.2276 23.1986 11.8271 22.7534 11.4867C22.0952 10.8939 21.3631 10.3888 20.5752 9.98415C19.1768 9.23093 17.631 8.79183 16.0455 8.69744C15.4833 8.59472 14.9073 8.59378 14.3448 8.69468L14.3442 8.69413Z" fill="#809CE3"/>
<path d="M13.4113 3.37948C13.3009 3.3712 13.1932 3.36843 13.0856 3.35408C12.8179 3.32298 12.5672 3.20701 12.3701 3.02316C12.173 2.83932 12.04 2.59723 11.9904 2.33233C11.945 2.06084 11.9904 1.78195 12.1195 1.53886C12.2486 1.29576 12.4543 1.10203 12.7047 0.987657C12.7704 0.955089 12.8587 0.958954 12.8973 0.877258H17.49C17.5209 0.948466 17.596 0.946261 17.6523 0.972757C17.9103 1.08325 18.1238 1.2771 18.2586 1.52329C18.3934 1.76948 18.4417 2.05377 18.3958 2.33067C18.3428 2.61186 18.196 2.86677 17.9795 3.05383C17.7629 3.24089 17.4894 3.34907 17.2035 3.3607L16.9755 3.37782L13.4113 3.37948Z" fill="#6483D3"/>
<path d="M23.9297 12.6768C25.0187 13.9044 25.8207 15.3592 26.2773 16.9355C26.5131 17.7298 26.6612 18.5476 26.7189 19.3742C26.0206 19.3742 25.3223 19.3742 24.6213 19.3775C24.507 19.3655 24.3913 19.3776 24.282 19.4131C24.1726 19.4487 24.072 19.5068 23.9866 19.5838C23.9012 19.6609 23.833 19.755 23.7864 19.8601C23.7397 19.9652 23.7158 20.079 23.716 20.194C23.7105 20.7211 24.0378 21.0275 24.6235 21.0319C25.3218 21.0369 26.0201 21.0319 26.7211 21.0358C26.555 23.37 25.6811 25.5981 24.2161 27.4229C24.1284 27.5333 24.0274 27.6333 23.9324 27.7381C23.4522 27.2645 22.9717 26.7909 22.4911 26.3173C22.4174 26.2222 22.3243 26.1439 22.2179 26.0875C22.1116 26.0312 21.9945 25.9982 21.8744 25.9906C21.7543 25.983 21.634 26.0011 21.5214 26.0436C21.4089 26.0862 21.3066 26.1522 21.2215 26.2372C21.1338 26.3203 21.0654 26.4216 21.0211 26.5339C20.9769 26.6463 20.9579 26.7671 20.9655 26.8876C20.973 27.0082 21.007 27.1256 21.065 27.2315C21.123 27.3375 21.2036 27.4294 21.301 27.5008C21.7752 27.981 22.2527 28.4574 22.7291 28.936C21.6912 29.8737 20.4782 30.5968 19.1598 31.0639C18.1589 31.4398 17.1076 31.6646 16.0405 31.7308C16.0405 31.0639 16.0438 30.3977 16.0405 29.7309C16.0539 29.6086 16.0426 29.4849 16.0072 29.3671C15.9718 29.2493 15.9131 29.1399 15.8345 29.0453C15.7558 28.9507 15.659 28.8729 15.5497 28.8166C15.4403 28.7602 15.3208 28.7265 15.1981 28.7174C15.0754 28.7243 14.9553 28.7558 14.8451 28.8103C14.7349 28.8647 14.6368 28.9408 14.5568 29.0341C14.4767 29.1273 14.4163 29.2358 14.3792 29.353C14.3421 29.4701 14.3291 29.5936 14.3409 29.716C14.3398 30.2729 14.3398 30.8304 14.3348 31.3852C14.2806 31.3804 14.2267 31.3721 14.1736 31.3604C12.6095 30.9307 11.1544 30.174 9.90443 29.1402C9.43701 28.8008 9.0286 28.3868 8.69556 27.9148C8.86116 27.7403 9.03062 27.5709 9.18849 27.3909C9.26352 27.3148 9.32269 27.2244 9.36254 27.1252C9.4024 27.026 9.42216 26.9199 9.42067 26.8129C9.41918 26.706 9.39647 26.6005 9.35387 26.5024C9.31126 26.4043 9.24961 26.3157 9.17248 26.2417C9.01883 26.0831 8.80868 25.9917 8.58789 25.9874C8.3671 25.9832 8.15359 26.0664 7.99396 26.219C7.85651 26.3427 7.72127 26.4691 7.58493 26.5944C6.49218 24.9375 5.83769 23.0305 5.68274 21.0518C6.34514 20.9844 6.62114 20.7758 6.6642 20.3082C6.71443 19.7463 6.37329 19.4178 5.68384 19.3626C5.80106 17.7997 6.23907 16.2776 6.97056 14.8914C7.11468 14.5029 7.3447 14.1519 7.64344 13.8647C7.74722 13.9597 7.8521 14.0535 7.95422 14.1501C8.02922 14.237 8.12147 14.3073 8.22509 14.3566C8.32872 14.4059 8.44146 14.4331 8.55617 14.4366C8.67088 14.44 8.78504 14.4195 8.89142 14.3765C8.99781 14.3334 9.09408 14.2688 9.17414 14.1865C9.25439 14.1049 9.31733 14.008 9.35919 13.9015C9.40104 13.795 9.42094 13.6811 9.41769 13.5667C9.41444 13.4523 9.38812 13.3397 9.34029 13.2358C9.29246 13.1318 9.22412 13.0385 9.13936 12.9616C8.99143 12.8032 8.84183 12.647 8.69279 12.4897C8.73092 12.3639 8.80829 12.2537 8.91359 12.175C10.3946 10.6429 12.2698 9.54912 14.3326 9.0143C14.3398 9.5812 14.3398 10.1503 14.3436 10.7161C14.3289 10.8386 14.3401 10.9628 14.3766 11.0807C14.413 11.1985 14.4739 11.3074 14.5553 11.4001C14.6366 11.4929 14.7366 11.5674 14.8487 11.619C14.9608 11.6705 15.0825 11.6979 15.2058 11.6992C15.3264 11.6945 15.4447 11.665 15.5534 11.6125C15.662 11.5599 15.7586 11.4855 15.8371 11.3939C15.9156 11.3022 15.9744 11.1954 16.0096 11.08C16.0449 10.9646 16.056 10.8432 16.0421 10.7233C16.0465 10.0482 16.0421 9.37254 16.0421 8.69745C17.6295 8.791 19.1773 9.23014 20.5774 9.98416C21.3653 10.3888 22.0974 10.8939 22.7555 11.4867C22.2725 11.9603 21.7857 12.4312 21.3071 12.9092C21.2111 12.9827 21.1317 13.0757 21.0742 13.182C21.0167 13.2884 20.9823 13.4057 20.9733 13.5263C20.9644 13.6469 20.981 13.768 21.0222 13.8817C21.0633 13.9954 21.1281 14.0991 21.2122 14.186C21.2967 14.2731 21.3991 14.3408 21.5124 14.3844C21.6257 14.428 21.747 14.4464 21.8681 14.4385C21.9892 14.4306 22.1072 14.3964 22.2138 14.3384C22.3204 14.2805 22.4132 14.2 22.4856 14.1026C22.967 13.6275 23.4483 13.1523 23.9297 12.6768ZM13.6222 20.0394C13.2253 20.3816 12.8229 20.7167 12.4337 21.0672C12.3521 21.1247 12.2849 21.2003 12.2374 21.2882C12.19 21.376 12.1635 21.4736 12.1602 21.5734C12.1569 21.6732 12.1768 21.7724 12.2183 21.8632C12.2598 21.954 12.3218 22.0339 12.3995 22.0967C12.6939 22.4047 12.9949 22.7057 13.3025 22.9998C13.3646 23.0779 13.444 23.1405 13.5344 23.1827C13.6248 23.2249 13.7238 23.2455 13.8235 23.2429C13.9232 23.2403 14.021 23.2145 14.109 23.1676C14.1971 23.1207 14.2731 23.054 14.3309 22.9727C14.6892 22.5764 15.0292 22.1629 15.377 21.7583C16.2508 21.5673 16.6173 21.1478 16.7663 20.1675C17.7804 19.0083 18.7977 17.8546 19.8057 16.6899C19.8787 16.6188 19.9366 16.5336 19.9759 16.4396C20.0153 16.3455 20.0352 16.2445 20.0344 16.1426C20.0337 16.0406 20.0124 15.9399 19.9717 15.8464C19.9311 15.7529 19.872 15.6686 19.7979 15.5986C19.6521 15.4548 19.4554 15.3745 19.2507 15.3752C19.0459 15.376 18.8497 15.4576 18.705 15.6024C18.3705 15.8832 18.0409 16.1699 17.7163 16.4624C16.8961 17.1982 16.0327 17.8849 15.2412 18.6528C14.3734 18.7019 13.9346 19.0756 13.6222 20.0394Z" fill="#ECECEC"/>
<path d="M5.6827 21.0517C5.83703 23.0314 6.49134 24.9394 7.58434 26.5971L6.46378 27.7784C5.13444 26.277 4.23088 24.4474 3.84675 22.4792C3.73601 22.002 3.6724 21.515 3.65686 21.0253L5.6827 21.0517Z" fill="#D6D5DB"/>
<path d="M7.64285 13.8669C7.34416 14.1542 7.11416 14.5051 6.96997 14.8936C6.23849 16.2798 5.80048 17.8019 5.68326 19.3648L3.65686 19.3858C3.7275 18.2005 3.9923 17.0348 4.4407 15.9353C4.9036 14.7335 5.58524 13.6279 6.45109 12.6746C6.8694 13.0504 7.26723 13.4484 7.64285 13.8669Z" fill="#D6D5DB"/>
<path d="M13.4119 3.38113H16.9761C16.9724 4.27095 16.9686 5.16078 16.9645 6.05061C15.7882 5.91629 14.6004 5.91629 13.424 6.05061C13.42 5.16078 13.4159 4.27095 13.4119 3.38113Z" fill="#FE9BC9"/>
<path d="M5.46415 6.59818L7.19964 8.37396C6.23512 9.07041 5.33955 9.85766 4.5252 10.7249L2.92053 9.14125L5.46415 6.59818Z" fill="#FE9BC9"/>
<path d="M27.4686 9.1407L25.8634 10.7249C25.0501 9.85534 24.1534 9.06771 23.1862 8.37342L24.9194 6.5877L27.4686 9.1407Z" fill="#FE9BC9"/>
<path d="M8.69499 27.9175C9.02803 28.3895 9.43644 28.8035 9.90387 29.143C11.1538 30.1767 12.6089 30.9334 14.173 31.3631C14.2264 31.3749 14.2804 31.3832 14.3348 31.388L14.3453 31.733C11.8641 31.58 9.50531 30.6015 7.64453 28.9531L8.69499 27.9175Z" fill="#D6D5DB"/>
<path d="M14.3348 9.01705C12.272 9.55187 10.3969 10.6456 8.91582 12.1778C8.81042 12.2566 8.73303 12.367 8.69502 12.493C8.32553 12.18 7.98841 11.8306 7.68872 11.4503C8.39615 10.7845 9.20713 10.2383 10.0899 9.83291C11.4123 9.15613 12.8633 8.76796 14.3469 8.69413C14.3422 8.80159 14.3381 8.90923 14.3348 9.01705Z" fill="#D6D5DB"/>
<path d="M14.3348 9.01705C14.3382 8.90959 14.3415 8.80195 14.3448 8.69413C14.9075 8.59316 15.4837 8.5941 16.046 8.69689C16.046 9.37254 16.046 10.0476 16.0433 10.7227C16.0571 10.8426 16.0461 10.964 16.0108 11.0794C15.9755 11.1948 15.9168 11.3017 15.8383 11.3933C15.7597 11.4849 15.6631 11.5594 15.5545 11.6119C15.4459 11.6645 15.3276 11.694 15.207 11.6987C15.0838 11.6971 14.9623 11.6697 14.8504 11.6181C14.7384 11.5666 14.6386 11.492 14.5574 11.3993C14.4762 11.3067 14.4154 11.1979 14.3789 11.0802C14.3425 10.9625 14.3312 10.8385 14.3459 10.7161C14.3387 10.1498 14.3376 9.5834 14.3348 9.01705Z" fill="#FE9BC9"/>
<path d="M14.3442 31.7324L14.3348 31.3885C14.3376 30.831 14.3393 30.274 14.3437 29.7165C14.3319 29.5942 14.3449 29.4707 14.382 29.3535C14.4191 29.2363 14.4795 29.1279 14.5596 29.0346C14.6397 28.9413 14.7377 28.8652 14.8479 28.8108C14.9581 28.7564 15.0782 28.7248 15.2009 28.7179C15.3237 28.727 15.4433 28.7608 15.5528 28.8172C15.6622 28.8736 15.7591 28.9515 15.8377 29.0462C15.9163 29.1409 15.9751 29.2505 16.0104 29.3684C16.0457 29.4863 16.0569 29.6102 16.0433 29.7325C16.0433 30.3993 16.0433 31.0656 16.0433 31.7324C15.4796 31.8108 14.9079 31.8108 14.3442 31.7324Z" fill="#FE9BC9"/>
<path d="M7.68649 11.4503C7.98618 11.8306 8.3233 12.18 8.69279 12.493C8.84183 12.6503 8.99142 12.8065 9.13935 12.965C9.22411 13.0419 9.29245 13.1351 9.34028 13.2391C9.38811 13.343 9.41444 13.4556 9.41769 13.57C9.42094 13.6844 9.40104 13.7983 9.35918 13.9048C9.31733 14.0113 9.25438 14.1083 9.17413 14.1898C9.09407 14.2721 8.9978 14.3368 8.89142 14.3798C8.78504 14.4228 8.67087 14.4433 8.55616 14.4399C8.44145 14.4364 8.32871 14.4092 8.22508 14.3599C8.12146 14.3106 8.02922 14.2403 7.95421 14.1534C7.85209 14.0568 7.74721 13.963 7.64344 13.868C7.26754 13.4484 6.86934 13.0493 6.45056 12.6724C6.80263 12.2086 7.21876 11.7971 7.68649 11.4503Z" fill="#FE9BC9"/>
<path d="M23.9296 12.6768C23.4476 13.1523 22.9655 13.6275 22.4834 14.1026C22.4109 14.2 22.3182 14.2804 22.2116 14.3384C22.105 14.3964 21.987 14.4306 21.8659 14.4385C21.7448 14.4464 21.6234 14.4279 21.5102 14.3843C21.3969 14.3407 21.2945 14.2731 21.2099 14.186C21.1259 14.0991 21.0611 13.9954 21.0199 13.8817C20.9788 13.768 20.9621 13.6469 20.9711 13.5263C20.9801 13.4057 21.0145 13.2884 21.072 13.182C21.1295 13.0757 21.2089 12.9827 21.3049 12.9092C21.7835 12.4312 22.2703 11.9609 22.7533 11.4867C23.1986 11.8271 23.5945 12.2276 23.9296 12.6768Z" fill="#FE9BC9"/>
<path d="M8.69498 27.9175L7.64618 28.9547C7.21708 28.6002 6.82181 28.2066 6.46545 27.779L7.58601 26.5977C7.72236 26.4724 7.8576 26.346 7.99504 26.2223C8.15467 26.0697 8.36818 25.9865 8.58897 25.9907C8.80976 25.995 9.01991 26.0864 9.17357 26.245C9.25069 26.319 9.31235 26.4077 9.35495 26.5057C9.39755 26.6038 9.42026 26.7093 9.42175 26.8163C9.42324 26.9232 9.40348 27.0293 9.36362 27.1285C9.32377 27.2277 9.26461 27.3181 9.18957 27.3942C9.03004 27.5736 8.86003 27.7431 8.69498 27.9175Z" fill="#FE9BC9"/>
<path d="M22.7302 28.9354C22.2538 28.4574 21.7763 27.981 21.3022 27.5002C21.2047 27.4288 21.1241 27.3369 21.0662 27.231C21.0082 27.125 20.9742 27.0076 20.9666 26.8871C20.959 26.7665 20.978 26.6458 21.0223 26.5334C21.0665 26.421 21.1349 26.3197 21.2227 26.2367C21.3078 26.1516 21.41 26.0856 21.5226 26.0431C21.6351 26.0005 21.7555 25.9825 21.8755 25.99C21.9956 25.9976 22.1127 26.0307 22.2191 26.087C22.3254 26.1433 22.4185 26.2216 22.4923 26.3167C22.9732 26.79 23.4537 27.2636 23.9335 27.7376C23.5942 28.1945 23.1887 28.5982 22.7302 28.9354Z" fill="#FE9BC9"/>
<path d="M3.65807 19.3842L5.68447 19.3632C6.37447 19.4184 6.71505 19.7496 6.66481 20.3088C6.62341 20.7741 6.34521 20.985 5.68336 21.0523L3.65752 21.0253C3.62879 20.4786 3.62897 19.9308 3.65807 19.3842Z" fill="#FE9BC9"/>
<path d="M26.7222 21.0357C26.0239 21.0357 25.3256 21.0357 24.6246 21.0319C24.0389 21.0275 23.7116 20.7211 23.7171 20.1939C23.7169 20.079 23.7408 19.9652 23.7874 19.8601C23.8341 19.755 23.9023 19.6609 23.9877 19.5838C24.0731 19.5068 24.1737 19.4487 24.2831 19.4131C24.3924 19.3776 24.508 19.3655 24.6224 19.3775C25.3207 19.3726 26.019 19.3775 26.72 19.3742C26.7602 19.9273 26.7609 20.4826 26.7222 21.0357Z" fill="#FE9BC9"/>
<path d="M27.4685 9.1407L24.9194 6.5877C24.7498 6.43977 24.6192 6.25235 24.5392 6.042C24.4592 5.83164 24.4323 5.60483 24.4607 5.38158C24.493 5.16374 24.5834 4.95863 24.7225 4.78783C24.8615 4.61704 25.044 4.48686 25.2507 4.411C25.4575 4.33513 25.6808 4.31639 25.8973 4.35673C26.1138 4.39707 26.3155 4.49501 26.481 4.64024C27.495 5.58747 28.4655 6.58218 29.4259 7.5835C29.6303 7.81032 29.74 8.10676 29.7326 8.41196C29.7252 8.71716 29.6013 9.00794 29.3862 9.2246C29.1743 9.45009 28.8855 9.58786 28.5769 9.61066C28.2683 9.63345 27.9624 9.53961 27.7197 9.3477C27.6336 9.28201 27.5519 9.20749 27.4685 9.1407Z" fill="#6483D3"/>
<path d="M5.46416 6.59542L2.92054 9.13849C2.66628 9.41272 2.31801 9.58104 1.94516 9.60989C1.70302 9.62474 1.46215 9.5651 1.25491 9.43898C1.04768 9.31287 0.884032 9.12632 0.785963 8.90444C0.669258 8.6963 0.622613 8.45615 0.652932 8.21946C0.683251 7.98278 0.788921 7.76212 0.954319 7.59013C1.92363 6.58512 2.91134 5.59814 3.91745 4.6292C4.14595 4.42816 4.44233 4.3215 4.74654 4.33083C5.05075 4.34015 5.34003 4.46477 5.55579 4.67943C5.77976 4.89236 5.9158 5.1815 5.93705 5.4898C5.95831 5.7981 5.86324 6.10317 5.67061 6.34482C5.60492 6.42983 5.53371 6.51373 5.46416 6.59542Z" fill="#6483D3"/>
<path d="M15.2423 18.6528C16.0339 17.8849 16.8983 17.1982 17.7175 16.4624C18.0424 16.171 18.372 15.8843 18.7061 15.6024C18.8509 15.4576 19.047 15.376 19.2518 15.3752C19.4565 15.3745 19.6533 15.4548 19.7991 15.5986C19.8732 15.6686 19.9324 15.753 19.9731 15.8465C20.0138 15.94 20.0351 16.0408 20.0359 16.1428C20.0366 16.2448 20.0167 16.3459 19.9773 16.44C19.9379 16.5341 19.8799 16.6193 19.8068 16.6904C18.7988 17.8535 17.7815 19.0088 16.7675 20.168C16.5362 19.1612 16.1316 18.7599 15.2423 18.6528Z" fill="#6483D3"/>
<path d="M15.2423 18.6528C16.1315 18.7598 16.5361 19.1611 16.7674 20.1663C16.6184 21.1467 16.2519 21.5662 15.378 21.7572C14.9749 21.7924 14.5728 21.6785 14.2481 21.437C14.0417 21.2689 13.8777 21.0548 13.7692 20.8117C13.6607 20.5687 13.6107 20.3036 13.6232 20.0377C13.9351 19.0783 14.374 18.7024 15.2423 18.6528Z" fill="#FE9BC9"/>
<path d="M13.6227 20.0377C13.6101 20.3036 13.6601 20.5687 13.7686 20.8117C13.8772 21.0548 14.0412 21.2689 14.2476 21.437C14.5724 21.6778 14.9742 21.7911 15.377 21.7556C15.0292 22.1613 14.6897 22.5747 14.3315 22.97C14.2736 23.0512 14.1976 23.1179 14.1096 23.1648C14.0215 23.2117 13.9238 23.2375 13.824 23.2401C13.7243 23.2427 13.6253 23.2221 13.5349 23.18C13.4445 23.1378 13.3651 23.0751 13.3031 22.997C12.9947 22.7026 12.6937 22.4016 12.4 22.0939C12.3224 22.0312 12.2604 21.9512 12.2188 21.8604C12.1773 21.7696 12.1574 21.6704 12.1608 21.5707C12.1641 21.4709 12.1905 21.3732 12.238 21.2854C12.2854 21.1975 12.3526 21.1219 12.4342 21.0644C12.8234 20.7167 13.2264 20.3816 13.6227 20.0377Z" fill="#6483D3"/>
</svg>
