<svg version="1.0" xmlns="http://www.w3.org/2000/svg" width="1080" height="1080" viewBox="0 0 1080 1081">
  <path d="M510 6.9c0 1-3.1 1.6-16.5 3.2-10.7 1.3-18.8 2.4-27 3.9-3.3.6-8 1.3-10.5 1.6-2.5.3-4.9 1-5.4 1.5-.6.5-2.1.9-3.4.9-1.3 0-4.7.7-7.6 1.6-9.1 2.9-11.2 3.4-13.4 3.4-1.1 0-2.4.4-2.7 1-.3.5-1.9 1-3.5 1s-3.2.4-3.5 1c-.3.5-1.9 1-3.5 1s-3.1.4-3.4.9c-.4.5-3.2 1.7-6.4 2.6-3.1.9-6.5 2.1-7.4 2.6-1 .5-2.5.9-3.3.9-.8 0-2.3.4-3.3.9-.9.5-3 1.4-4.7 2.1-2.8 1.1-4.9 2-12 5-1.6.7-3.8 1.6-4.7 2.1-1 .5-2.5.9-3.3.9-.8 0-1.5.4-1.5 1 0 .5-.9 1-1.9 1-1.1 0-2.3.4-2.6 1-.3.5-2.3 1.7-4.3 2.6-8.1 3.6-25.1 12.3-26.2 13.4-.3.3-1.8 1.2-3.5 2-1.6.8-4.4 2.5-6.1 3.7-1.7 1.3-3.6 2.3-4.2 2.3-.7 0-1.2.4-1.2 1 0 .5-.5 1-1.1 1-.6 0-4.6 2.5-8.9 5.5-4.3 3-8.3 5.5-8.8 5.5-.6 0-1.2.4-1.4.8-.1.5-2.8 2.6-5.8 4.8-3 2.1-5.7 4.1-6 4.4-.3.3-2.1 1.7-4 3.2-1.9 1.4-4.4 3.4-5.5 4.5-1.1 1-3.1 2.6-4.5 3.6-8.8 6.1-43.1 40.2-50.7 50.5-1.5 2-3.5 4.4-4.4 5.2-.8.8-3 3.5-4.7 6-1.7 2.5-5.2 7-7.6 10-2.5 3-5.3 7-6.2 8.7-.9 1.8-2 3.3-2.5 3.3s-.9.6-.9 1.2c0 .7-1.1 2.6-2.5 4.2s-2.5 3.3-2.5 3.8-.9 1.8-2 3-2 2.8-2 3.5c0 .7-.4 1.3-1 1.3-.5 0-1 .5-1 1.2 0 .6-1.1 2.6-2.5 4.4-1.4 1.8-2.5 4-2.5 4.8 0 .9-.4 1.6-1 1.6-.5 0-1 .9-1 1.9 0 1.1-.4 2.1-.8 2.3-.5.1-3.5 5.7-6.6 12.3-3.2 6.6-6.2 12.7-6.7 13.5-1 1.8-3.8 7.7-5 10.7-.5 1.3-1.3 3.3-1.8 4.5-2.4 6.1-4.3 10.5-5.1 12-.6 1-1 2.7-1 3.7 0 1.1-.4 2.3-1 2.6-.5.3-1 1.7-1 3s-.5 2.7-1 3c-.6.3-1 1.5-1 2.6 0 1-.4 2.7-.9 3.7-1.3 2.6-3.2 8.4-3.8 11.2-.2 1.4-.8 3.4-1.3 4.5s-1.1 3.3-1.5 5c-.3 1.6-1 4.8-1.6 7-.6 2.2-1.3 5.8-1.8 8-.4 2.3-1.1 4.6-1.5 5.3-.7 1.2-1.6 5.4-3.7 17.2-1 6-2.4 25.4-3.8 56-.5 10.7-1.3 24.3-1.7 30.1l-.7 10.5-3.1 1.3c-1.7.7-4 1.6-5.1 2.1-7.8 3-18.5 10-25.3 16.4-4.6 4.4-13.2 15.8-13.2 17.5 0 .6-.4 1.1-1 1.1-.5 0-1 .6-1 1.3 0 1.3-1.9 5.9-4.1 9.9-.5 1-.9 2.8-.9 4.2 0 1.3-.7 2.9-1.5 3.6-1.3 1.1-1.5 6.7-1.5 39.6 0 24.9.4 39.3 1.1 41.1.6 1.5 1.5 9.8 2 18.3 1.4 24.1 2.7 38.8 3.4 40 .4.6 1.1 5.7 1.6 11.3 1.2 13.9 3.4 25.2 5 26.3.5.3.9 1.6.9 2.8 0 1.3.7 2.9 1.5 3.6.8.7 1.5 1.9 1.5 2.6 0 .8.3 1.4.8 1.4.4 0 1.4 1.5 2.1 3.2 1.9 4.3 18.5 20.7 23.6 23.4 2.2 1.1 6.2 3.2 8.8 4.7 2.6 1.5 5.6 2.7 6.6 2.7s2.4.7 3.1 1.5c1 1.2 4.2 1.5 16.9 1.5 9 0 16.1-.4 16.7-1 .5-.5 3.7-1.4 6.9-2 11-1.8 12.4-2.2 20.7-6.5 21.3-10.8 25.8-13.8 34.4-22.3 4.8-4.7 9.2-9.9 9.9-11.6.9-2.4 1-8.3.4-24.6-2.1-53.6-6.3-128.2-7.4-132.5-.3-1.1-1-9.7-1.6-19-1.9-33-3.1-40.8-7-47.5-.5-.8-1.2-2.2-1.5-3-.3-.8-.9-2.4-1.4-3.5-.4-1.1-1.7-4-2.9-6.5-2.1-4.4-2.2-5.3-1.7-34.5.2-16.5.9-33.6 1.5-38 2.4-18.8 4.3-29.7 6-35 2.6-8.2 3.1-10.2 3.1-12.8 0-1.5.5-2.7 1-2.7.6 0 1-1.6 1-3.5s.5-3.5 1-3.5c.6 0 1-1.1 1-2.5s.4-3.3.9-4.3c2.3-4.6 4.1-9.5 4.1-11.2 0-1.1.5-2 1-2 .6 0 1-.9 1-2s.4-2.8.9-3.8c.5-.9 1.3-2.8 1.9-4.2 3.2-8.2 13.9-29.9 15.8-32.1.8-.8 1.4-2.3 1.4-3.2 0-.9.4-1.7.9-1.7s1.1-.8 1.5-1.8c1-3.1 13.4-22.1 16.3-25 .7-.7 1.3-1.7 1.3-2.1 0-.4.8-1.6 1.8-2.7.9-1 3-3.7 4.7-5.9 1.6-2.2 3.4-4.5 4-5.1.5-.6 2.8-3.3 5-6 5.7-7 25.9-27.2 33-33 3.3-2.7 6.2-5.1 6.5-5.4.3-.3 2.8-2.3 5.5-4.5 2.8-2.2 5.2-4.3 5.3-4.7.2-.5.8-.8 1.3-.8.6 0 2.2-1.1 3.7-2.5s3.9-3.1 5.5-3.8c1.5-.6 2.7-1.5 2.7-1.9 0-.5.7-.8 1.5-.8s1.5-.5 1.5-1c0-.6.4-1 1-1 .5 0 3.1-1.5 5.7-3.4 2.7-1.8 6.3-3.9 8.1-4.7 1.7-.8 3.2-1.7 3.2-2 0-.5 31-16.2 35.5-17.9 1.8-.7 5.3-2.2 12.5-5.2 1.4-.6 3.3-1.4 4.2-1.9 1-.5 2.7-.9 3.7-.9 1.1 0 2.3-.5 2.6-1 .3-.6 1.7-1 3-1s2.7-.5 3-1c.3-.6 1.7-1 3-1s3.6-.6 5.2-1.4c4.1-2 9.6-3.6 12.6-3.6 1.4 0 2.8-.4 3.1-.9.3-.5 2.3-1.1 4.3-1.4 4.9-.8 12.1-2.2 20.8-4.2 26.9-6.2 80.3-6.4 114.5-.5 4.1.7 7.9 1.7 8.5 2.1.5.5 2.8.9 5.1.9 2.4 0 4.6.4 4.9 1 .3.5 2.1 1 4 1s3.7.4 4 1c.3.5 2.1 1 4 1s3.6.4 3.9.9c.3.5 1.8 1.1 3.3 1.4 3 .5 8.7 2.4 11.5 3.8 1 .5 2.7.9 3.7.9 1.1 0 2.3.4 2.6 1 .3.5 1.5 1 2.6 1 1 0 2.7.4 3.7.9 3.4 1.8 9 4.1 10.1 4.1.6 0 1.1.4 1.1 1 0 .5 1.1 1 2.5 1s2.5.4 2.5 1c0 .5.7 1 1.5 1s2.3.4 3.3.9c.9.5 3.5 1.8 5.7 2.9 18 9.1 24.5 12.6 24.5 13.2 0 .3 1.6 1.2 3.5 2s3.5 1.7 3.5 2.2c0 .4.5.8 1 .8 1 0 24 15.6 25 16.9.3.4 2.1 1.8 4 3.1 1.9 1.2 4 2.8 4.5 3.4.6.6 3.5 3.1 6.5 5.6 7.1 5.8 31.3 30 36.5 36.5 2.1 2.8 4.6 5.7 5.5 6.5.8.8 2.9 3.3 4.5 5.5s3.5 4.7 4.2 5.5c5.7 7.1 8.5 11 9.9 13.7.9 1.8 2 3.3 2.5 3.3s.9.5.9 1.2c0 .6 1.1 2.6 2.5 4.4 1.4 1.8 2.5 3.7 2.5 4.3 0 .6.4 1.1.9 1.1s1.5 1.6 2.2 3.5c.7 1.9 1.7 3.5 2.1 3.5.4 0 .8.9.8 1.9 0 1.1.4 2.1 1 2.3 1.2.4 15 27.5 15 29.4 0 .8.5 1.4 1 1.4.6 0 1 1.1 1 2.5s.3 2.5.8 2.5c.4 0 1.3 1.9 2 4.2 1.1 3.8 2.7 7.7 5.3 13 .5 1 .9 2.9.9 4.3s.5 2.5 1 2.5c.6 0 1 1.6 1 3.5s.5 3.5 1 3.5c.6 0 1 1 1 2.2 0 2.1 1 5.8 3.2 12.3 1 2.9 1.8 6.5 3.8 18.5 3.6 20.1 5.4 43.3 5.3 67 0 18.6-.7 26.5-2.4 27.6-.5.3-.9 1.6-.9 3 0 1.3-.4 2.4-1 2.4-.5 0-1 .5-1 1.2 0 .6-1 2.5-2.3 4.2-4.4 5.9-5.4 11.9-6.7 39.6-2.1 43.1-2.9 56.8-3.5 62-3 26.8-6.6 129.3-4.6 131.3.6.6 1.1 2.4 1.1 3.9s.4 2.8.8 2.8c.5 0 1.8 1.9 3 4.3 3.5 7 10.9 12.9 17.7 14.1 14.5 2.5 59.1 2.4 74.5-.3 12.7-2.2 25.1-6.8 30.9-11.6 4.6-3.8 15.1-16 17-19.8.8-1.5 1.8-2.7 2.3-2.7.4 0 .8-.6.8-1.4 0-.7.7-1.9 1.5-2.6.8-.7 1.5-2.1 1.5-3.1 0-1.1.5-1.9 1-1.9.6 0 1-.9 1-2s.5-2 1-2c.6 0 1-.9 1-2 0-1 .4-2.9.9-4.2 5.2-13.7 5.4-16.3 7.9-73.8.6-13.5 1.6-26.1 2.2-28 1.6-5.6 1.3-47.9-.5-51-.8-1.4-1.4-3.8-1.5-5.4 0-2.7-.9-6.2-3-12.1-1.8-5.2-8.8-18.4-11.5-21.9-4-5.3-15.8-17.6-16.8-17.6-.5 0-2.9-1.5-5.5-3.2-5.5-3.8-13-7.8-14.7-7.8-1.7 0-4.5-3.3-4.5-5.3 0-.9-.4-1.7-.9-1.7-.6 0-1.2-9.7-1.5-22.8-.2-12.5-1-26.1-1.6-30.2-.6-4.1-1.5-11.3-1.9-16-1.1-11.3-2.9-22.9-3.7-24.2-.6-.9-1-3.4-3.1-17.1-.3-2-.9-4-1.4-4.3-.5-.3-.9-2.3-.9-4.4 0-2.1-.4-4.2-1-4.5-.5-.3-1-1.8-1-3.3-.1-1.5-.7-3.8-1.5-5.2-.8-1.4-1.4-3.7-1.5-5.2 0-1.5-.4-3-1-3.3-.5-.3-1-1.7-1-3s-.4-2.7-1-3c-.5-.3-1-1.9-1-3.6 0-1.6-.4-2.9-1-2.9-.5 0-1-.6-1-1.3 0-1.2-4.3-12.5-6.1-15.9-.5-1-.9-2.5-.9-3.3 0-.8-.4-1.5-1-1.5-.5 0-1-.8-1-1.9 0-1-1.1-3.9-2.5-6.5s-2.5-5.4-2.5-6.2c0-.7-.4-1.4-1-1.4-.5 0-1-.7-1-1.5s-.4-2.3-.9-3.3c-.5-.9-3.5-7.1-6.7-13.7-3.3-6.6-6.2-12.2-6.6-12.3-.5-.2-.8-.9-.8-1.7 0-.7-.7-1.8-1.5-2.5s-1.5-2.1-1.5-3.1c0-1.1-.4-1.9-.9-1.9s-1.1-.8-1.4-1.8c-.4-.9-1.8-3.5-3.2-5.7-1.4-2.2-2.8-4.8-3.1-5.8-.4-.9-1-1.7-1.5-1.7s-.9-.7-.9-1.5-.4-1.5-1-1.5c-.5 0-1-.5-1-1.1 0-.6-1.1-2.4-2.5-4.1-1.4-1.6-2.5-3.5-2.5-4.2 0-.6-.9-1.8-2-2.6s-2-1.9-2-2.5c0-.6-1.6-3-3.5-5.2-1.9-2.3-3.5-4.4-3.5-4.8 0-.3-1-1.6-2.1-2.8-1.2-1.2-2.9-3.4-3.8-4.8-8.1-12.9-53.1-58-68.5-68.9-1.2-.8-2.6-1.9-3.2-2.5-.6-.5-2.7-2.1-4.7-3.5s-3.7-2.8-3.7-3.3c0-.4-.6-.7-1.4-.7-.8 0-1.6-.4-1.8-.8-.4-1.1-16.3-12.2-17.3-12.2-.5 0-2.3-1.1-4.1-2.5-1.8-1.4-3.7-2.5-4.3-2.5-.6 0-1.1-.4-1.1-.9s-.8-1.1-1.7-1.4c-1-.4-3.6-1.8-5.8-3.2-2.2-1.4-4.8-2.8-5.7-3.1-1-.4-1.8-1-1.8-1.5s-.9-.9-2-.9-2-.5-2-1c0-.6-.9-1-2-1s-2-.5-2-1c0-.6-.7-1-1.5-1-.9 0-3.2-1-5.3-2.3-2-1.2-4.8-2.7-6.2-3.3-8.6-3.8-23.1-10.4-25.2-11.5-1-.5-2.6-.9-3.6-.9s-2.2-.4-2.8-.8c-.5-.4-3.4-1.6-6.4-2.6-3-1.1-5.9-2.3-6.4-2.7-.6-.5-2-.9-3.2-.9-1.3 0-2.6-.5-2.9-1-.3-.6-1.9-1-3.5-1s-3.2-.5-3.5-1c-.3-.6-1.7-1-3-1s-3.4-.4-4.7-.9c-1.3-.5-5-1.7-8.3-2.6-3.3-.9-7.4-2.1-9.1-2.6-1.7-.5-4.4-.9-6-.9-1.7 0-3.4-.4-3.9-.9-.6-.5-3-1.2-5.5-1.5-2.5-.3-7.4-1-11-1.5-3.6-.5-10.5-1.4-15.5-2C584 8.7 581 8.1 581 6.9c0-.5-14.5-.9-35.5-.9-20.7 0-35.5.4-35.5.9z"/>
  <path d="M497.2 135.5c-1.2.7-5.9 1.5-10.4 1.9-4.4.4-8.9 1.1-9.9 1.6-1 .6-2.9 1-4.3 1s-2.8.4-3.1 1c-.3.5-2.1 1-4 1s-3.7.4-4 1c-.3.5-1.9 1-3.5 1s-3.1.4-3.4.9c-.3.5-1.8 1.1-3.3 1.4-6.1 1.1-20.7 6.6-33.8 12.7-17.8 8.3-20 9.4-20.3 10.2-.2.4-.8.8-1.3.8s-3.3 1.6-6.3 3.5-6 3.5-6.6 3.5c-.5 0-1 .4-1 1 0 .5-.5 1-1.1 1-1 0-16.6 10.4-17.9 11.9-.3.3-3.2 2.6-6.5 5.1-3.3 2.4-10.5 8.5-16 13.5-12.1 10.9-10 8.8-21.5 21.5-5.2 5.8-10.1 11.1-10.7 11.8-.7.7-1.3 1.7-1.3 2 0 .4-1 1.8-2.3 3.2-2.4 2.7-2.7 3.1-10.4 14.3-6 8.7-15.5 24.2-17.4 28.7-.8 1.6-1.7 3-2.1 3-.5 0-.8.7-.8 1.4 0 .8-1.1 3.6-2.5 6.2s-2.5 5.3-2.5 6c0 .8-.4 1.4-1 1.4-.5 0-1 .9-1 2s-.4 2-1 2c-.5 0-1 1.1-1 2.5s-.4 2.5-1 2.5c-.5 0-1 .9-1 2s-.4 2.8-.9 3.8c-1.7 3.1-6.1 15.7-6.1 17.4 0 .9-.4 1.9-.9 2.2-.5.3-1.1 2-1.4 3.8-.9 5.4-1.8 9.2-2.7 11.3-.9 2.1-1.5 4.8-3.1 13-.5 2.7-1.4 7.7-2.1 11-1.6 8.4-1.6 88.8.1 97 .6 3.3 1.4 7.8 1.7 10 .4 2.2 1 4.4 1.5 5 .5.5.9 1.8.9 2.9 0 1.1.4 3.3.9 5 .5 1.7 1.5 5.1 2.2 7.6.7 2.5 1.6 4.9 2.1 5.5.4.5.8 1.8.8 2.9 0 2.6 5.2 18 6.3 18.4.4.2.7 1.5.7 2.8 0 1.3.5 2.4 1 2.4.6 0 1 .7 1 1.5s.8 2.9 1.8 4.7c1 1.8 2.7 5.5 3.7 8.3 1 2.7 2.2 5.4 2.6 6 .4.5 1.6 2.7 2.8 4.7 3.9 7 6.4 11.3 8.2 14.3 1 1.6 2.3 3.9 2.8 5 .5 1.2 1.6 2.7 2.5 3.4.9.7 1.6 2 1.6 2.7 0 .8.4 1.4.9 1.4s1.3.9 1.6 2c.3 1.1 1.2 2.6 1.9 3.2.6.7 3.2 4.1 5.6 7.4 10.9 14.9 33.9 39.2 47.5 50 3.3 2.7 6.6 5.4 7.3 6.1.8.7 3.5 2.7 6 4.5 2.6 1.7 4.9 3.5 5.2 3.8.3.4 5.8 4.1 12.3 8.3l11.7 7.6v56.6c0 31.3.4 56.5.9 56.5.4 0 1.1 1.6 1.4 3.7 1.2 7 6.8 16.4 14.7 24.3 4.1 4.2 8.9 8.3 10.5 9.2 1.7.8 4.4 2.3 6 3.2 1.7.9 3.8 1.6 4.7 1.6.9 0 2 .5 2.3 1 .3.6 1.7 1 3 1s2.7.4 3 1c.9 1.5 200.7 1.4 205.4-.1 6.5-2.1 7.5-2.5 13.6-5.5 7.4-3.6 8.4-4.3 16.6-12.6 6.9-7 12.5-16.5 13.6-23.1.3-2.1 1-3.7 1.4-3.7.5 0 .9-25.2.9-56.5v-56.6l11.4-7.4c6.3-4 12.3-8.1 13.3-8.9 1-.8 4.1-3.2 6.9-5.3 19.4-14.3 43.8-38.7 58.1-58.3 2.6-3.6 5.3-7.1 5.9-7.8.7-.6 1.6-2.1 1.9-3.2.3-1.1 1.1-2 1.6-2s.9-.6.9-1.4c0-.7.7-2 1.6-2.7.9-.7 2-2.2 2.5-3.4.5-1.1 1.8-3.4 2.8-5 1.8-3 4.3-7.3 8.2-14.3 1.2-2 2.4-4.2 2.8-4.7.4-.6 1.6-3.3 2.6-6 1-2.8 2.7-6.5 3.7-8.3 1-1.8 1.8-3.9 1.8-4.7 0-.8.5-1.5 1-1.5.6 0 1-1.1 1-2.5s.3-2.5.8-2.5c.4 0 2-4.2 3.6-9.3 1.6-5 3.2-10.1 3.6-11.2.4-1.1 1.3-4 2-6.5.6-2.5 1.6-5.9 2.1-7.6.5-1.7.9-3.9.9-5s.4-2.4.9-3c.5-.5 1.1-2.7 1.5-4.9.3-2.2 1.1-6.7 1.7-10 1.7-8.2 1.7-88.6.1-97-.7-3.3-1.6-8.3-2.1-11-1.6-8.2-2.2-10.9-3.1-13-.9-2.1-1.8-5.9-2.7-11.3-.3-1.8-.9-3.5-1.4-3.8-.5-.3-.9-1.3-.9-2.2 0-1.7-4.4-14.3-6.1-17.4-.5-1-.9-2.7-.9-3.8 0-1.1-.4-2-1-2-.5 0-1-1.1-1-2.5s-.4-2.5-1-2.5c-.5 0-1-.9-1-2s-.4-2-1-2c-.5 0-1-.6-1-1.4 0-.7-1.1-3.4-2.5-6s-2.5-5.4-2.5-6.2c0-.7-.3-1.4-.8-1.4-.4 0-1.3-1.4-2.1-3-1.9-4.5-11.4-20-17.4-28.7-7.7-11.2-8-11.6-10.4-14.3-1.3-1.4-2.3-2.8-2.3-3.2 0-.3-.6-1.3-1.2-2-.7-.7-5.6-6-10.8-11.8-11.5-12.7-9.4-10.6-21.5-21.5-5.5-5-12.7-11.1-16-13.5-3.3-2.5-6.2-4.8-6.5-5.1-1.3-1.5-16.9-11.9-17.9-11.9-.6 0-1.1-.5-1.1-1 0-.6-.5-1-1-1-.6 0-3.6-1.6-6.6-3.5-3-1.9-5.8-3.5-6.3-3.5s-1.1-.4-1.3-.8c-.3-.8-2.5-1.9-20.3-10.2-13.1-6.1-27.7-11.6-33.8-12.7-1.5-.3-3-.9-3.3-1.4-.3-.5-1.8-.9-3.4-.9-1.6 0-3.2-.5-3.5-1-.3-.6-2.1-1-4-1s-3.7-.5-4-1c-.3-.6-1.7-1-3.1-1-1.4 0-3.3-.4-4.3-.9-1-.6-5.3-1.3-9.7-1.7-4.3-.3-9.2-1.2-10.8-2-4-1.9-81.9-1.9-85.4.1zm58.8 60.6c18 1.2 24.1 1.8 26.5 2.9 1.1.5 3.7 1.1 5.8 1.4 8.3 1.3 10.7 1.9 11.3 2.7.3.5 1.6.9 2.9.9 2.4 0 15.3 3.9 20.5 6.2 1.4.6 3.4 1.4 4.5 1.8 3.8 1.5 14 6.2 20 9.2 3.3 1.7 7 3.6 8.2 4.2 1.3.6 2.3 1.4 2.3 1.8 0 .5.5.8 1.1.8 1 0 16.3 9.6 19.2 12 .7.6 3 2.4 5.2 4 12.5 9.4 31 27.7 40.1 39.5 10.1 13.3 15.4 20.9 15.4 22.5 0 .5.5 1 1 1 .6 0 1 .5 1 1.1 0 .6 1.4 3 3 5.4 1.7 2.4 3 4.6 3 4.9 0 1.2 5.5 12.1 6.2 12.4.4.2.8 1.2.8 2.3 0 1 .3 1.9.8 1.9.4 0 1.6 2.9 2.7 6.5 1 3.6 2.3 6.5 2.7 6.5.4 0 .8.9.8 2s.4 2.8.9 3.8c2.8 5.5 5.7 16.2 9 33.2 2.2 11.4 4.4 34.7 4.3 45-.1 7.4-1.9 28.2-3 35-1.8 11.2-5.5 27.5-6.3 28.4-.5.6-.9 2-.9 3.2 0 1.3-.4 2.6-1 2.9-.5.3-1 1.7-1 3s-.4 2.7-1 3c-.5.3-1 1.7-1 3.1 0 1.3-.4 2.4-.8 2.4s-1.3 2-2.1 4.4c-.7 2.4-3.3 8.4-5.8 13.3-2.5 4.8-5.7 11-7 13.8-2.3 4.5-16.1 25.3-18.7 28.1-.6.7-2.7 3.2-4.6 5.7-4.4 5.7-25.8 27-32.5 32.3-2.7 2.1-5.2 4.2-5.5 4.5-1.4 1.5-19.9 13.9-20.9 13.9-.6 0-1.1.4-1.1 1 0 .5-.5 1-1.1 1-.6 0-2.3.8-3.7 1.9-1.5 1-4.8 3-7.3 4.3-7.7 4.3-9.4 5.3-9.9 5.8-1 1-6.5 4.2-9.2 5.3l-2.8 1.1V785H452V649.4l-2.7-1.1c-2.8-1.1-8.3-4.3-9.3-5.3-.5-.5-2.2-1.5-9.9-5.8-2.5-1.3-5.8-3.3-7.3-4.3-1.4-1.1-3.1-1.9-3.7-1.9-.6 0-1.1-.5-1.1-1 0-.6-.5-1-1.1-1-1 0-19.5-12.4-20.9-13.9-.3-.3-2.7-2.4-5.5-4.6-12.6-10.1-28.8-26.7-37.8-38.9-2.1-2.8-4.3-5.8-5-6.6-2.5-3.1-11.6-17.6-13.5-21.5-1.1-2.2-4-8-6.5-12.8-2.5-4.9-5.1-10.9-5.8-13.3-.8-2.4-1.7-4.4-2.1-4.4-.4 0-.8-1.1-.8-2.4 0-1.4-.4-2.8-1-3.1-.5-.3-1-1.7-1-3s-.4-2.7-1-3c-.5-.3-1-1.6-1-2.9 0-1.2-.4-2.6-.9-3.2-.8-.9-4.5-17.2-6.3-28.4-1.1-6.8-2.9-27.6-3-35 0-5.7 1.6-28.4 2.7-35.5 1.4-10 5.4-28.3 6.6-30.7.5-1 .9-2.7.9-3.8 0-1.1.5-2.9 1-4 .6-1.1 1.5-2.9 2-4 .6-1.1 1-2.9 1-4s.4-2 .8-2 1.7-2.9 2.7-6.5c1.1-3.6 2.3-6.5 2.8-6.5.4 0 .7-.9.7-1.9 0-1.1.4-2.1.8-2.3.7-.3 6.2-11.2 6.2-12.4 0-.3 1.4-2.5 3-4.9 1.7-2.4 3-4.8 3-5.4 0-.6.3-1.1.8-1.1.4 0 1.3-1.2 2-2.8.6-1.5 5.4-8.4 10.6-15.3 12.2-16.2 29.7-34 44.1-44.9 2.2-1.6 4.5-3.4 5.2-4 2.9-2.4 18.2-12 19.2-12 .6 0 1.1-.3 1.1-.8 0-.4 1-1.2 2.3-1.8 1.2-.6 4.9-2.5 8.2-4.2 5.7-2.9 15-7.2 20.5-9.4 1.4-.6 3.4-1.4 4.5-1.9 5.4-2.2 17.8-5.9 20-5.9 1.3 0 2.6-.4 2.9-.9.6-.8 3-1.4 11.4-2.7 2-.3 4.6-.9 5.7-1.4 2.4-1.1 8.8-1.8 26.8-2.9 7.6-.5 14.1-1.1 14.4-1.5.4-.4 1.4-.4 2.2 0 .9.3 7.7 1 15.1 1.5zM442 874.4c-12.8 4.1-22 16.3-22 29.1 0 6.5 1.8 14.5 3.2 14.5.5 0 .8.6.8 1.4 0 2.4 8.3 10.1 14 12.9l5.4 2.7h193.2l5.4-2.7c5.7-2.8 14-10.5 14-12.9 0-.8.3-1.4.8-1.4 1.4 0 3.2-8 3.2-14.5 0-13-9.7-25.6-22.6-29.3-5.8-1.7-190.3-1.5-195.4.2zM442 962.9c-.8.5-2.8 1.5-4.5 2.2-3.8 1.7-13.5 10.8-13.5 12.6 0 .7-.3 1.3-.8 1.3-1.4 0-3.2 7.9-3.2 14s1.8 14 3.2 14c.5 0 .8.6.8 1.3 0 2 9 10.6 12.9 12.3 2 .9 4.4 2 5.3 2.5 1 .5 3.1.9 4.8.9 3 0 3 0 3 5.9 0 3.3.5 6.3 1 6.6.6.3 1 1.7 1 3s.5 2.7 1 3c.6.3 1 1.7 1 3.1 0 1.3.3 2.4.8 2.4.4 0 1.3 1.5 2.1 3.2 2 4.7 9.3 14 13.4 17.1 2 1.5 4.1 3.2 4.9 3.9 1.3 1.3 9.9 5.6 15.1 7.7 3.9 1.5 95.5 1.5 99.4 0 5.2-2.1 13.8-6.4 15.1-7.7.8-.7 2.9-2.4 4.9-3.9 4.1-3.1 11.4-12.4 13.4-17.1.8-1.7 1.7-3.2 2.1-3.2.5 0 .8-1.1.8-2.4 0-1.4.5-2.8 1-3.1.6-.3 1-1.7 1-3s.5-2.7 1-3c.6-.3 1-3.3 1-6.6 0-5.9 0-5.9 3-5.9 1.7 0 3.8-.4 4.8-.9.9-.5 3.3-1.6 5.3-2.5 3.9-1.7 12.9-10.3 12.9-12.3 0-.7.3-1.3.8-1.3 1.4 0 3.2-7.9 3.2-14s-1.8-14-3.2-14c-.5 0-.8-.6-.8-1.3 0-1.8-9.7-10.9-13.5-12.6-1.6-.7-3.8-1.7-4.7-2.2-2.2-1.1-193.8-1.1-195.8 0z"/>
</svg>
