<svg width="61" height="50" viewBox="0 0 61 50" fill="none" xmlns="http://www.w3.org/2000/svg">
<path d="M17.9681 3.57428C19.8681 1.30862 22.6734 0 25.6303 0H51C56.5228 0 61 4.47715 61 10V40C61 45.5229 56.5228 50 51 50H25.6303C22.6734 50 19.8681 48.6914 17.9681 46.4257L5.38874 31.4257C2.27174 27.7089 2.27174 22.2911 5.38874 18.5743L17.9681 3.57428Z" fill="#E5E5FF"/>
<path d="M25.5002 10.8531C25.9421 10.7783 26.3928 10.7927 26.8398 10.7913C33.0955 10.7913 39.3512 10.7913 45.6076 10.7913C45.9268 10.7985 46.2519 10.7934 46.5637 10.8726C48.3519 11.159 49.8364 12.645 50.1231 14.3821C50.18 14.693 50.1866 15.0089 50.1874 15.3233C50.1866 17.5577 50.1889 19.7921 50.1866 22.0264C50.1999 22.4337 49.9716 22.8468 49.5889 23.0252C49.082 23.3001 48.3719 23.0929 48.1081 22.5884C47.8864 22.1667 47.995 21.6796 47.9736 21.2269C47.9625 19.7863 47.9655 18.3457 47.9721 16.905C47.9455 16.2128 48.0201 15.5176 47.9403 14.8275C47.8509 14.0187 47.2236 13.302 46.4307 13.0595C45.949 12.9105 45.4391 12.9695 44.9433 12.9508C39.7967 12.9515 34.6509 12.9458 29.5036 12.953C28.396 12.9551 27.2876 12.9364 26.18 12.9609C25.4056 12.9702 24.666 13.4221 24.3046 14.0849C24.0763 14.4576 24.0312 14.9045 24.0342 15.3298C24.0275 19.2149 24.0298 23.0994 24.0275 26.9845C24.0408 27.3781 24.0142 27.7811 24.1369 28.1618C24.3682 28.931 25.0738 29.4952 25.8674 29.6585C26.0433 29.6715 26.2192 29.6808 26.395 29.6808C32.6019 29.6808 38.8081 29.6808 45.0142 29.6808C45.3881 29.6801 45.7628 29.6888 46.1359 29.66C46.6155 29.5376 47.0862 29.321 47.4113 28.9461C47.6522 28.6756 47.8229 28.3496 47.9152 28.0027C47.9736 27.63 47.9418 27.214 48.1798 26.8931C48.3844 26.6211 48.728 26.4333 49.079 26.4433C49.5275 26.4311 49.9443 26.7312 50.1157 27.127C50.2347 27.5004 50.1756 27.8998 50.1187 28.2791C50.061 28.605 49.9495 28.9159 49.8334 29.2261C49.4662 30.0147 48.8721 30.7005 48.1236 31.1704C47.3958 31.6087 46.5401 31.8598 45.6822 31.8389C39.2529 31.8404 32.8229 31.8397 26.3935 31.8397C26.149 31.8317 25.9007 31.8526 25.6598 31.8022C24.2714 31.6259 23.0041 30.7667 22.3465 29.565C22.2866 29.4513 22.2268 29.3383 22.1669 29.2253C21.9438 28.672 21.8049 28.084 21.8145 27.4868C21.8115 23.4815 21.8145 19.4762 21.813 15.4708C21.8123 15.1074 21.8123 14.7419 21.8773 14.3821C22.0672 13.3048 22.6923 12.3017 23.599 11.6526C24.1546 11.2425 24.8145 10.9719 25.5002 10.8531Z" fill="#8F8FFF"/>
<path d="M33.6428 16.6305C34.1926 16.419 34.8206 16.4952 35.3408 16.75C36.8541 17.6049 38.3667 18.4598 39.8793 19.3154C40.2014 19.4902 40.5273 19.6788 40.7623 19.9623C40.9618 20.1789 41.0756 20.4502 41.1908 20.715C41.2056 20.8596 41.2219 21.0043 41.2603 21.1453C41.3194 21.9232 40.9233 22.7198 40.2258 23.117C38.9201 23.8633 37.6056 24.5958 36.2985 25.3399C35.7273 25.632 35.196 26.0724 34.5243 26.1048C33.7499 26.184 32.9733 25.7976 32.5374 25.1787C32.298 24.8175 32.1687 24.3886 32.1783 23.9582C32.1775 22.183 32.1761 20.407 32.179 18.6317C32.1679 18.3295 32.2566 18.0395 32.3586 17.7574C32.6135 17.2372 33.0775 16.8133 33.6428 16.6305ZM34.3943 23.892C34.6012 23.8251 34.7785 23.6978 34.9677 23.5956C36.3192 22.8278 37.6795 22.0743 39.0243 21.295C38.9859 21.2842 38.9091 21.2619 38.8706 21.2504C37.3906 20.3876 35.8854 19.5644 34.3995 18.7095C34.3876 20.4372 34.398 22.1643 34.3943 23.892Z" fill="#8F8FFF"/>
<path d="M28.6174 34.2116C28.998 34.0921 29.4051 34.0943 29.7953 34.1662C30.4935 34.326 31.098 34.8312 31.3536 35.4853C31.4866 35.7522 31.4733 36.0552 31.5096 36.3438C31.477 37.2908 30.747 38.1536 29.7982 38.3673C28.8495 38.5911 27.8009 38.1313 27.3428 37.2929C25.8399 37.29 24.3369 37.2972 22.8339 37.2886C22.4246 37.2526 22.0536 36.9892 21.8963 36.6201C21.6007 35.9782 22.1113 35.16 22.8369 35.1406C24.3517 35.1212 25.8672 35.1442 27.3812 35.1291C27.7041 34.7304 28.0995 34.3519 28.6174 34.2116Z" fill="#8F8FFF"/>
<path d="M34.299 35.2665C34.5924 35.1053 34.9375 35.1341 35.2626 35.1334C39.8446 35.1341 44.4266 35.1327 49.0086 35.1341C49.2466 35.1284 49.4889 35.1795 49.6884 35.3119C50.1244 35.576 50.3032 36.1588 50.1022 36.6172C50.0453 36.7647 49.9411 36.8871 49.834 37.0029C49.5902 37.2238 49.254 37.3008 48.9288 37.2936C44.1983 37.2865 39.467 37.3023 34.7372 37.2857C34.6323 37.2598 34.5266 37.2397 34.421 37.2231C33.8298 36.9806 33.5431 36.2416 33.8631 35.6911C33.9687 35.5155 34.1143 35.3637 34.299 35.2665Z" fill="#8F8FFF"/>
</svg>
