<?xml version="1.0" encoding="utf-8"?>
<!-- Generator: Adobe Illustrator 23.1.0, SVG Export Plug-In . SVG Version: 6.00 Build 0)  -->
<svg version="1.2" baseProfile="tiny" id="Isolation_Mode"
	 xmlns="http://www.w3.org/2000/svg" xmlns:xlink="http://www.w3.org/1999/xlink" x="0px" y="0px" viewBox="0 0 500 374.9"
	 xml:space="preserve">
<path fill="#FFE9E9" d="M469.3,374.9c55.5-41.7-37.5-119.5,9.7-179c48.8-61.6,6.6-147.7-66.3-130.2c-72.9,17.5-105.6-2.4-180.9-46.4
	c-75.3-44-94.2,69.1-173.3,113.6c-79.1,44.5,27,90.9-36.5,154.4C-31.8,341.2,60.1,368,89,374.9H469.3z"/>
<g>
	<g>
		<path fill="#44E2B1" d="M331.3,163.7L331.3,163.7c7.6-22.4,25.2-41.1,47.6-55.5c2.8,15.6,12.5,31.4,15,46.9
			c2,12.7-0.8,24.6-4.4,36.1c-3.2,10.1-7,20.2-14,28.6c-5.4,6.5-13.1,12.8-23,15.6c-13.5,3.9-16.4-9-19.5-17.4
			C325.8,199.3,325.6,180.4,331.3,163.7z"/>
		<g>
			<path fill="#527FEF" d="M345,236.4c-0.5-0.1-1-0.3-1.4-0.5c4.6-12.4,8.9-24.9,12.7-37.2l0.1-0.2l-13-16.5c-0.8-1-1.5-2-2.3-3
				c-3.1-4.1-6.3-8.4-11-11.6c0.1-0.3,0.1-0.5,0.2-0.8c4.7,3.2,7.9,7.2,10.9,11.2l1.3,1.6l13.7,17.4l0.8-0.4l0.1-0.2
				c3.5-11.4,6.8-23.1,9.7-34.7l0.1-0.2l-21.3-23.8c0.2-0.2,0.4-0.5,0.6-0.7l21,23.4l0.2-0.8c4.1-16.3,7.6-33,10.6-49.5
				c0,0,0-0.1,0.3-0.1c0.4,0,0.8,0.2,1,0.5c0.1,0.1,0.1,0.2,0.1,0.3c-2.8,15.8-6.2,31.8-10.1,47.4L369,159l1-0.6
				c6.8-4.2,14.3-8,22.3-11.2c0.1,0.3,0.2,0.7,0.3,1c-8.5,3.5-16.5,7.6-23.8,12.4l-0.2,0.1l-0.2,0.8l0,0.1
				c-2.8,11.1-5.9,22.1-9.2,32.9l-0.3,1l0.9-0.4c10.2-4.8,21.1-9.1,32.3-12.9c-0.1,0.4-0.2,0.8-0.3,1.2
				c-11.6,3.9-22.8,8.4-33.2,13.5l-0.2,0.1l-0.1,0.2C354.3,210.3,349.9,223.5,345,236.4z"/>
		</g>
	</g>
	<g>
		<path fill="#05DB60" d="M430.2,235.3L430.2,235.3c22.4,1,44.1,12,63.1,28.7c-13.4,6.7-25.3,19.7-38.7,26.1
			c-11,5.2-22.6,5.8-34.1,5.5c-10.1-0.2-20.2-1-29.8-5.1c-7.3-3.2-15.1-8.5-20.3-16.8c-7.1-11.3,3.9-17.3,10.6-22.4
			C396.3,239.8,413.4,234.6,430.2,235.3z"/>
		<g>
			<path fill="#527FEF" d="M367.6,267.1c0-0.5,0-1,0-1.4c12.5,0.9,25,1.5,37.2,1.7l0.2,0l11.6-16.2c0.7-1,1.4-1.9,2.1-2.9
				c2.9-3.9,5.9-8,7.7-13.1c0.3,0,0.5,0,0.8,0c-1.7,5.1-4.5,9.1-7.3,12.9l-1.1,1.6l-12.2,17.1l0.6,0.6l0.2,0
				c11.3,0.2,22.8,0.1,34.2-0.3l0.2,0l16-25.7c0.3,0.1,0.5,0.2,0.8,0.3l-15.8,25.3l0.8,0c15.9-0.6,32-1.8,47.9-3.5
				c0,0,0.1,0,0.2,0.2c0.1,0.3,0,0.8-0.1,1.1c-0.1,0.1-0.1,0.2-0.2,0.2c-15.1,1.6-30.6,2.8-45.8,3.4l-1.1,0l0.8,0.7
				c5.6,5.1,11,10.9,16.1,17.3c-0.3,0.2-0.6,0.4-0.9,0.5c-5.4-6.8-11.3-13-17.6-18.4l-0.1-0.1l-0.7,0l-0.1,0
				c-10.8,0.4-21.7,0.5-32.4,0.4l-1,0l0.6,0.7c7.1,8,13.9,16.8,20.3,26c-0.4,0-0.8,0-1.2,0c-6.6-9.5-13.7-18.5-21.1-26.6l-0.1-0.1
				l-0.2,0C393.8,268.7,380.6,268.1,367.6,267.1z"/>
		</g>
	</g>
	<g>
		<path fill="#25B78D" d="M344.6,207.5L344.6,207.5c8-6.6,19.3-6.4,29.5-7.8c10.2-1.4,21.9-6.7,23.2-17c0.7-5.2-1.3-11.3,2.3-15
			c5.3-5.5,15.4,1.1,21.9-2.9c4.5-2.7,4.9-9,7.6-13.5c3.5-5.9,10.7-8.5,17.4-9.2c6.8-0.8,13.7-0.2,20.4-1.7
			c6.7-1.5,13.3-5.8,14.8-12.5c-0.1,12.6-0.3,25.5-3.8,37.6c-3.5,12.2-10.7,23.8-21.8,29.8c-7.6,4.1-17.4,6.2-20.9,14
			c-2.2,4.9-1.1,10.5-0.6,15.8c0.5,5.3,0.1,11.4-3.9,14.8c-4.4,3.7-11.2,2.6-16.5,4.9c-7,3-10,11.1-14.8,17
			c-8,9.8-21.9,13.8-34.3,11.5c-12.1-2.3-27.3-10.2-29.1-23.5C334.2,236.4,333.1,217,344.6,207.5z"/>
		<g>
			<path fill="#284BA3" d="M378.2,228.1c11.9-3.1,24.2-4.7,36.6-4.6c0.4,0,0.4-0.6,0-0.7c-11.9-0.1-23.9,1.4-35.4,4.3
				c1.7-1.2,3.4-2.4,5.1-3.5c19.6-13.2,40.3-25.1,57.5-41.5c0.3-0.3,0.6-0.6,0.9-0.9c0,0,0,0,0,0c5.3-1.9,10.6-3.9,15.9-5.8
				c0.4-0.1,0.1-0.7-0.3-0.6c-4.9,1.8-9.7,3.5-14.6,5.3c0,0,0,0,0,0c0.1,0,0.2-0.1,0.2-0.2c8.5-8.4,15.8-17.9,21.1-28.6
				c0.2-0.4-0.4-0.7-0.6-0.3c-5.1,10.5-12.2,19.6-20.3,27.8c0.7-4.8,1.5-9.7,2.2-14.5c0.1-0.4-0.6-0.4-0.7,0
				c-0.8,5.1-1.6,10.2-2.4,15.3c-8.3,8.3-17.8,15.5-27.4,22.2c-8.3,5.8-16.9,11.2-25.4,16.8c9.1-11.2,16.4-23.8,21.7-37.2
				c0.2-0.4-0.5-0.6-0.6-0.2c-5.4,13.8-13,26.6-22.4,38c-0.1,0.1-0.1,0.2,0,0.3c-11.1,7.3-21.9,14.8-31.9,23.6
				c-9.9,8.8-18.8,18.8-25.3,30.4c-0.2,0.4,0.3,0.7,0.6,0.3c10.7-19.1,27.4-33.3,45.1-45.8C378,228.1,378.1,228.1,378.2,228.1z"/>
		</g>
	</g>
</g>
<g>
	<g>
		<g>
			<path fill="#284BA3" d="M260.2,93.8c-74.7,0-135.3,60.6-135.3,135.3c0,74.7,60.6,135.3,135.3,135.3
				c74.7,0,135.3-60.6,135.3-135.3C395.5,154.4,334.9,93.8,260.2,93.8z"/>
			<path fill="#527FEF" d="M247.7,93.8c-74.7,0-135.3,60.6-135.3,135.3c0,74.7,60.6,135.3,135.3,135.3
				c74.7,0,135.3-60.6,135.3-135.3C383,154.4,322.4,93.8,247.7,93.8z M247.7,343.6c-63.2,0-114.4-51.2-114.4-114.4
				c0-63.2,51.2-114.4,114.4-114.4c63.2,0,114.4,51.2,114.4,114.4C362.1,292.3,310.9,343.6,247.7,343.6z"/>
			
				<ellipse transform="matrix(0.7071 -0.7071 0.7071 0.7071 -89.4789 242.2573)" fill="#FFFFFF" cx="247.7" cy="229.1" rx="114.4" ry="114.4"/>
		</g>
		<path fill="#527FEF" d="M319.1,219H304c-4.8-26.7-28.2-47-56.3-47c-9.4,0-18.2,2.3-26,6.2l-10.1-11.4c10.6-6.2,23-9.7,36.1-9.7
			C284.1,157,314.1,184,319.1,219z"/>
	</g>
	<g>
		<circle fill="#3E65DD" cx="247.7" cy="229.1" r="14.4"/>
		<path fill="#284BA3" d="M247.7,222.6c-3.6,0-6.5,2.9-6.5,6.5c0,3.6,2.9,6.5,6.5,6.5c3.6,0,6.5-2.9,6.5-6.5
			C254.2,225.5,251.3,222.6,247.7,222.6z"/>
		<path fill="#284BA3" d="M249.9,231L249.9,231c-1.2,1.3-3.2,1.4-4.5,0.3L183,175.9c-1.3-1.2-1.4-3.2-0.3-4.5v0
			c1.2-1.3,3.2-1.4,4.5-0.3l62.4,55.4C251,227.6,251.1,229.7,249.9,231z"/>
		<path fill="#284BA3" d="M249.8,227.9L249.8,227.9c1.2,1.2,1.2,3.3,0,4.5l-31.1,31.1c-1.2,1.2-3.3,1.2-4.5,0l0,0
			c-1.2-1.2-1.2-3.3,0-4.5l31.1-31.1C246.6,226.7,248.6,226.7,249.8,227.9z"/>
	</g>
</g>
<g>
	<path fill="#FF5352" d="M179.3,222.9c-4.1-7.3-9.7-11.3-15.8-11.3c-6.1,0-11.8,4-15.8,11.3L79.1,345.3c-4.1,7.3-4.5,14.2-1.4,19.6
		c3.2,5.4,9.6,8.4,18,8.4h135.4c8.4,0,14.8-3,18-8.4c3.2-5.4,2.7-12.4-1.4-19.6L179.3,222.9z"/>
	<g>
		<path fill="#FFFFFF" d="M163.4,335.1c-5,0-9,4-9,9c0,5,4,9,9,9c5,0,9-4,9-9C172.5,339.2,168.4,335.1,163.4,335.1z"/>
		<path fill="#FFFFFF" d="M163.4,324.6c3.3,0,6.3-4.1,6.5-9l3.5-58.7c0.3-5-3.5-9-8.5-9h-3c-5,0-8.8,4.1-8.5,9l3.5,58.7
			C157.2,320.6,160.1,324.6,163.4,324.6z"/>
	</g>
</g>
<linearGradient id="SVGID_1_" gradientUnits="userSpaceOnUse" x1="67.6359" y1="182.9301" x2="83.7161" y2="193.0676">
	<stop  offset="7.393830e-02" style="stop-color:#F16680"/>
	<stop  offset="0.991" style="stop-color:#FFBBD2"/>
</linearGradient>
<path fill="url(#SVGID_1_)" d="M86.3,187.3l-3.7-1.2c-2.3-0.8-4.2-2.6-4.9-4.9l-1.2-3.7c-0.2-0.7-1.2-0.7-1.4,0l-1.2,3.7
	c-0.8,2.3-2.6,4.2-4.9,4.9l-3.7,1.2c-0.7,0.2-0.7,1.2,0,1.4l3.7,1.2c2.3,0.8,4.2,2.6,4.9,4.9l1.2,3.7c0.2,0.7,1.2,0.7,1.4,0l1.2-3.7
	c0.8-2.3,2.6-4.2,4.9-4.9l3.7-1.2C86.9,188.5,86.9,187.5,86.3,187.3z"/>
<linearGradient id="SVGID_2_" gradientUnits="userSpaceOnUse" x1="184.5619" y1="65.0992" x2="200.0224" y2="65.0992">
	<stop  offset="1.266030e-02" style="stop-color:#FFD54C"/>
	<stop  offset="0.3774" style="stop-color:#FFCD4C"/>
	<stop  offset="0.957" style="stop-color:#FFB64C"/>
	<stop  offset="1" style="stop-color:#FFB44C"/>
</linearGradient>
<circle fill="url(#SVGID_2_)" cx="192.3" cy="65.1" r="7.7"/>
</svg>
