<?xml version="1.0" encoding="utf-8"?>
<!-- Generator: Adobe Illustrator 23.1.0, SVG Export Plug-In . SVG Version: 6.00 Build 0)  -->
<svg version="1.1" id="Слой_1" xmlns="http://www.w3.org/2000/svg" xmlns:xlink="http://www.w3.org/1999/xlink" x="0px" y="0px"
	 viewBox="0 0 6500 4770.4" style="enable-background:new 0 0 6500 4770.4;" xml:space="preserve">
<g>
	<g>
		<path style="fill:#F1C341;" d="M5070.6,3124.1c0,717.5-581.7,1299.2-1299.1,1299.2c-717.5,0-1299.2-581.7-1299.2-1299.2
			c0-717.5,581.7-1299.2,1299.2-1299.2C4489,1824.9,5070.6,2406.6,5070.6,3124.1z"/>
		<path style="fill:#EFEC7F;" d="M3771.5,4590c-808.3,0-1465.9-657.6-1465.9-1466c0-808.3,657.6-1465.9,1465.9-1465.9
			c808.3,0,1465.9,657.6,1465.9,1465.9C5237.4,3932.4,4579.8,4590,3771.5,4590z M3771.5,1991.6c-624.4,0-1132.5,508-1132.5,1132.4
			c0,624.4,508,1132.5,1132.5,1132.5c624.4,0,1132.4-508,1132.4-1132.5C4903.9,2499.6,4395.9,1991.6,3771.5,1991.6z"/>
	</g>
	<g>
		<path style="fill:#F1C341;" d="M3951.8,2729.9c0,717.6-581.7,1299.2-1299.1,1299.2c-717.5,0-1299.2-581.7-1299.2-1299.2
			c0-717.5,581.7-1299.1,1299.2-1299.1C3370.1,1430.8,3951.8,2012.5,3951.8,2729.9z"/>
		<path style="fill:#EFEC7F;" d="M2652.7,4195.9c-808.3,0-1465.9-657.6-1465.9-1466c0-808.3,657.6-1465.9,1465.9-1465.9
			c808.3,0,1465.9,657.6,1465.9,1465.9C4118.6,3538.3,3461,4195.9,2652.7,4195.9z M2652.7,1597.5c-624.4,0-1132.5,508-1132.5,1132.4
			c0,624.5,508,1132.5,1132.5,1132.5c624.4,0,1132.4-508,1132.4-1132.5C3785.1,2105.5,3277.1,1597.5,2652.7,1597.5z"/>
	</g>
	<path style="fill:#EFEC7F;" d="M3705.1,4523.6c-808.3,0-1465.9-657.6-1465.9-1466c0-808.3,657.6-1465.9,1465.9-1465.9
		c808.3,0,1465.9,657.6,1465.9,1465.9C5171,3866,4513.4,4523.6,3705.1,4523.6z M3705.1,1925.2c-624.4,0-1132.5,508-1132.5,1132.4
		c0,624.5,508,1132.5,1132.5,1132.5c624.4,0,1132.4-508,1132.4-1132.5C4837.5,2433.2,4329.5,1925.2,3705.1,1925.2z"/>
	<g>
		<path style="fill:#F1C341;" d="M3137.1,3296.5c-205.4-447.1-655.9-758.2-1180.1-758.2c-524.2,0-974.7,311.1-1180.1,758.2H3137.1z"
			/>
		<path style="fill:#EFEC7F;" d="M3397.2,3463.2H516.9l108.6-236.3c238.6-519.6,761.3-855.4,1331.6-855.4
			c570.3,0,1092.9,335.7,1331.6,855.3L3397.2,3463.2z M1074.6,3129.8h1764.9c-212.2-264.1-536-424.7-882.4-424.7
			C1610.5,2705.1,1286.7,2865.7,1074.6,3129.8z"/>
	</g>
	<path style="fill:#3B70AD;" d="M4267.7,2733.3c63.5,41.5,102-63.2,162.5-155.6l406.2-620.7c4.4,3.3,149.4,78.4,149.4,78.4
		l-405.7,619.9c-60.4,92.4-120,203.8-56.5,245.4c63.5,41.5,168.4-63.2,228.9-155.6l405.7-619.9l100.5,88.7L4853,2833.9
		c-60.5,92.4-120,203.9-56.5,245.4c63.5,41.5,168.4,3.3,228.9-89.2c0,0,556.5-850.2,586-895.3c83.2-127,36.7-309.7-47.9-410.7
		l830.8-1269.4c78.2-119.6,91.8-249.1-11.8-316.9c-103.6-67.8-216.9-3.6-295.2,116l-827.7,1264.8c-130-49.3-328.1-19.9-415.6,113.9
		c-14.9,22.8-586,895.4-586,895.4C4197.4,2580.3,4204.3,2691.8,4267.7,2733.3z"/>
	<g>
		<path style="fill:#F1C341;" d="M5339.3,3296.5c-205.3-447.1-655.9-758.2-1180-758.2c-524.2,0-974.8,311.1-1180.1,758.2H5339.3z"/>
		<path style="fill:#EFEC7F;" d="M5599.4,3463.2H2719.2l108.6-236.4c238.7-519.6,761.4-855.3,1331.7-855.3
			c570.2,0,1092.9,335.7,1331.5,855.4L5599.4,3463.2z M3276.9,3129.8h1764.9c-212.2-264.1-535.9-424.7-882.4-424.7
			C3812.9,2705.1,3489.1,2865.7,3276.9,3129.8z"/>
	</g>
	<polygon style="fill:#EE4857;" points="5524.9,4679.8 718.7,4679.8 65.8,3097.2 6177.8,3097.2 	"/>
</g>
</svg>
