<?xml version="1.0" encoding="utf-8"?>
<!-- Generator: Adobe Illustrator 23.1.0, SVG Export Plug-In . SVG Version: 6.00 Build 0)  -->
<svg version="1.2" baseProfile="tiny" id="Слой_1"
	 xmlns="http://www.w3.org/2000/svg" xmlns:xlink="http://www.w3.org/1999/xlink" x="0px" y="0px" viewBox="0 0 6500 4973.1"
	 xml:space="preserve">
<g>
	<path fill="#A9792B" d="M6212.8,179.3c-139-134.2-360.5-130.2-494.7,8.8L4257.1,1702.5c5.4-0.1,10.6-0.7,16-0.7
		c276.3,0,514.3,140.3,626.1,342.9L6221.6,674C6355.8,535,6351.8,313.5,6212.8,179.3z"/>
	<path fill="#EE4A59" d="M6463.7,1571.8H141.2c0,1252,513.7,2325.3,1729.8,2779.4c-71.6,58.6-117.8,144-117.8,240.3
		c0,176.9,152.5,320.3,340.7,320.3h2410.8c188.1,0,340.6-143.3,340.6-320.3c0-88.9-38.7-169.3-101-227.4
		C6005.7,3918.1,6463.7,2836.3,6463.7,1571.8z"/>
	<path fill="#DD3448" d="M5513.3,3554.9c-786.4,774.6-1738.5,1002.2-2837.7,827.1c-903.6-106.6-1977.4-756.5-2217-1804.7
		C919.6,3251.6,1486,3896.1,2740,4029.6C3879.3,4224.4,4669.4,3981.8,5513.3,3554.9z"/>
</g>
<path fill="#73EFFF" d="M4096.9,2688.9h-403.1v-403.1c0-68.5-56.1-124.6-124.6-124.6h-489.5c-68.6,0-124.7,56.1-124.7,124.6v403.1
	h-403c-68.6,0-124.7,56.1-124.7,124.7v489.5c0,68.6,56.1,124.6,124.7,124.6h403v403.1c0,68.6,56.1,124.7,124.7,124.7h489.5
	c68.5,0,124.6-56.1,124.6-124.7v-403.1h403.1c68.6,0,124.7-56.1,124.7-124.6v-489.5C4221.6,2745,4165.5,2688.9,4096.9,2688.9z"/>
</svg>
