<?xml version="1.0" encoding="utf-8"?>
<!-- Generator: Adobe Illustrator 23.1.0, SVG Export Plug-In . SVG Version: 6.00 Build 0)  -->
<svg version="1.1" id="object" xmlns="http://www.w3.org/2000/svg" xmlns:xlink="http://www.w3.org/1999/xlink" x="0px" y="0px"
	 viewBox="0 0 474 1122" style="enable-background:new 0 0 474 1122;" xml:space="preserve">
<g>
	<g>
		<linearGradient id="SVGID_1_" gradientUnits="userSpaceOnUse" x1="237.7865" y1="234.0083" x2="244.171" y2="234.0083">
			<stop  offset="0" style="stop-color:#9A7A5F"/>
			<stop  offset="7.696800e-02" style="stop-color:#C9A885"/>
			<stop  offset="0.1472" style="stop-color:#D4B895"/>
			<stop  offset="0.2662" style="stop-color:#E2CDAB"/>
			<stop  offset="0.3818" style="stop-color:#EBDAB8"/>
			<stop  offset="0.4892" style="stop-color:#EEDEBC"/>
			<stop  offset="0.5877" style="stop-color:#EBDAB8"/>
			<stop  offset="0.6903" style="stop-color:#E3CEAB"/>
			<stop  offset="0.7944" style="stop-color:#D5B997"/>
			<stop  offset="0.8616" style="stop-color:#C9A885"/>
			<stop  offset="1" style="stop-color:#9A7A5F"/>
		</linearGradient>
		<rect x="237.8" style="fill:url(#SVGID_1_);" width="6.4" height="468"/>
	</g>
	<g>
		<radialGradient id="SVGID_2_" cx="240.9784" cy="793.0137" r="285.058" gradientUnits="userSpaceOnUse">
			<stop  offset="0" style="stop-color:#B07E54"/>
			<stop  offset="7.696800e-02" style="stop-color:#DCA973"/>
			<stop  offset="0.1537" style="stop-color:#E7BB83"/>
			<stop  offset="0.2704" style="stop-color:#F4D196"/>
			<stop  offset="0.3839" style="stop-color:#FCDEA1"/>
			<stop  offset="0.4892" style="stop-color:#FFE2A5"/>
			<stop  offset="0.5859" style="stop-color:#FCDEA1"/>
			<stop  offset="0.6866" style="stop-color:#F5D196"/>
			<stop  offset="0.7888" style="stop-color:#E8BD84"/>
			<stop  offset="0.8616" style="stop-color:#DCA973"/>
			<stop  offset="1" style="stop-color:#B07E54"/>
		</radialGradient>
		<path style="fill:url(#SVGID_2_);" d="M241,1122c-11.2,0-20.4-9.1-20.4-20.4c0-7.1,3.6-13.5,9.3-17.1c-2.4-3.9-6.1-8.8-11.4-14.5
			c-4.9-5.1-15.2-10.8-27.3-17.4c-24.5-13.5-58.1-31.9-84.5-65.7C88.1,963,87.2,941,90.6,925.5C38,892.5,8,844.4,8,793
			c0-51.4,30.1-99.5,82.6-132.5c-3.4-15.5-2.5-37.5,16.1-61.4c26.4-33.8,59.9-52.2,84.5-65.7c12-6.6,22.4-12.3,27.3-17.4
			c5.3-5.6,9-10.5,11.4-14.5c-5.7-3.6-9.3-9.9-9.3-17.1c0-11.2,9.1-20.4,20.4-20.4c11.2,0,20.4,9.1,20.4,20.4
			c0,7.1-3.6,13.5-9.3,17.1c2.4,3.9,6.1,8.8,11.4,14.5c4.9,5.1,15.2,10.8,27.3,17.4c24.5,13.5,58.1,31.9,84.5,65.7
			c18.7,23.9,19.5,45.9,16.1,61.4c52.6,33,82.6,81.1,82.6,132.5c0,51.4-30.1,99.5-82.6,132.5c3.4,15.5,2.5,37.5-16.1,61.4
			c-26.4,33.8-59.9,52.2-84.5,65.7c-12,6.6-22.4,12.3-27.3,17.4c-5.3,5.6-8.9,10.5-11.4,14.5c5.7,3.6,9.3,9.9,9.3,17.1
			C261.4,1112.9,252.2,1122,241,1122z M241,1094l-1.1,0.2c-3.8,0.6-6.5,3.7-6.5,7.5c0,4.2,3.4,7.6,7.6,7.6c4.2,0,7.6-3.4,7.6-7.6
			c0-3.8-2.7-6.9-6.5-7.5L241,1094z M241,507.8c-2.9,4.7-7.1,10.4-13.2,16.9c-6.2,6.6-16.9,12.5-30.4,19.9
			c-23.5,12.9-55.8,30.6-80.5,62.3c-13.9,17.8-18.2,36.2-12.7,54.7l1.4,4.7l-4.2,2.5C50.1,699.7,20.8,744.9,20.8,793
			c0,48.1,29.3,93.4,80.5,124.1l4.2,2.5l-1.4,4.7c-5.5,18.5-1.2,36.9,12.7,54.7c24.7,31.7,57,49.4,80.5,62.3
			c13.5,7.4,24.1,13.3,30.4,19.9c6.1,6.5,10.3,12.2,13.2,16.9c2.9-4.7,7.1-10.4,13.2-16.9c6.2-6.6,16.9-12.5,30.4-19.9
			c23.5-12.9,55.8-30.6,80.5-62.3c13.9-17.8,18.2-36.2,12.7-54.7l-1.4-4.7l4.2-2.5c51.2-30.7,80.5-75.9,80.5-124.1
			c0-48.1-29.3-93.4-80.5-124.1l-4.2-2.5l1.4-4.7c5.5-18.5,1.2-36.9-12.7-54.7c-24.7-31.7-57-49.4-80.5-62.3
			c-13.5-7.4-24.1-13.3-30.4-19.9C248,518.3,243.8,512.5,241,507.8z M241,476.8c-4.2,0-7.6,3.4-7.6,7.6c0,3.8,2.7,6.9,6.5,7.5
			l1.1,0.2l1.1-0.2c3.8-0.6,6.5-3.7,6.5-7.5C248.6,480.2,245.2,476.8,241,476.8z"/>
	</g>
</g>
</svg>
