<svg width="36" height="38" viewBox="0 0 36 38" fill="#EBB34D" xmlns="http://www.w3.org/2000/svg">
<path d="M17.9368 37.0253C27.8209 37.0253 35.8336 29.0126 35.8336 19.1285C35.8336 9.24435 27.8209 1.23169 17.9368 1.23169C8.0527 1.23169 0.0400391 9.24435 0.0400391 19.1285C0.0400391 29.0126 8.0527 37.0253 17.9368 37.0253Z" fill="#EBB34D"/>
<path d="M21.8726 19.4998C21.8726 19.4998 22.3182 21.2449 24.5089 21.2449C26.5882 21.2449 27.1451 19.4998 27.1451 19.4998" stroke="black" stroke-width="2" stroke-miterlimit="10" stroke-linecap="round" stroke-linejoin="round"/>
<path d="M8.69141 19.4998C8.69141 19.4998 9.13697 21.2449 11.3277 21.2449C13.4069 21.2449 13.9639 19.4998 13.9639 19.4998" stroke="black" stroke-width="2" stroke-miterlimit="10" stroke-linecap="round" stroke-linejoin="round"/>
<path d="M14.0381 29.1909C14.0381 29.1909 17.3056 26.4433 21.8355 29.1909" stroke="#5B0600" stroke-width="2" stroke-miterlimit="10" stroke-linecap="round" stroke-linejoin="round"/>
<path d="M5.72096 0.414877C5.72096 0.414877 9.09981 5.61311 10.0652 8.36075C10.9935 11.0341 10.3622 13.9674 7.83738 15.267C5.31252 16.5665 2.23071 15.564 0.931149 13.0392C0.151413 11.5168 0.337064 9.84596 0.931149 8.36075C2.3421 4.79625 5.27539 0.414877 5.27539 0.414877C5.34965 0.266356 5.49818 0.229228 5.6467 0.303488C5.6467 0.340618 5.68383 0.377747 5.72096 0.414877Z" fill="#77AAF2"/>
</svg>
