<svg width="37" height="36" viewBox="0 0 37 36" fill="#EBB34D" xmlns="http://www.w3.org/2000/svg">
<path d="M18.756 35.9117C28.6402 35.9117 36.6528 27.8991 36.6528 18.0149C36.6528 8.13083 28.6402 0.118164 18.756 0.118164C8.87192 0.118164 0.859253 8.13083 0.859253 18.0149C0.859253 27.8991 8.87192 35.9117 18.756 35.9117Z" fill="#EBB34D"/>
<path d="M11.8127 14.5991C12.756 14.5991 13.5207 13.3523 13.5207 11.8143C13.5207 10.2763 12.756 9.02954 11.8127 9.02954C10.8694 9.02954 10.1047 10.2763 10.1047 11.8143C10.1047 13.3523 10.8694 14.5991 11.8127 14.5991Z" fill="black"/>
<path d="M25.2538 14.5991C26.1971 14.5991 26.9618 13.3523 26.9618 11.8143C26.9618 10.2763 26.1971 9.02954 25.2538 9.02954C24.3105 9.02954 23.5458 10.2763 23.5458 11.8143C23.5458 13.3523 24.3105 14.5991 25.2538 14.5991Z" fill="black"/>
<path d="M14.3375 23.1763C14.3375 23.1763 15.0059 23.1763 18.7189 23.1763C22.4319 23.1763 23.1745 23.1763 23.1745 23.1763" stroke="#5B0600" stroke-width="2" stroke-miterlimit="10" stroke-linecap="round" stroke-linejoin="round"/>
</svg>
