<svg width="37" height="37" viewBox="0 0 37 37" fill="#DD5F70" xmlns="http://www.w3.org/2000/svg">
<path d="M18.7709 36.4684C28.6551 36.4684 36.6677 28.4557 36.6677 18.5716C36.6677 8.68747 28.6551 0.674805 18.7709 0.674805C8.88681 0.674805 0.874146 8.68747 0.874146 18.5716C0.874146 28.4557 8.88681 36.4684 18.7709 36.4684Z" fill="#DD5F70"/>
<path d="M18.7709 36.4684C28.6551 36.4684 36.6677 28.4557 36.6677 18.5716C36.6677 8.68747 28.6551 0.674805 18.7709 0.674805C8.88681 0.674805 0.874146 8.68747 0.874146 18.5716C0.874146 28.4557 8.88681 36.4684 18.7709 36.4684Z" fill="#DD5F70"/>
<path d="M14.8722 29.748C14.8722 29.748 18.1397 27.0004 22.6695 29.748" stroke="#5B0600" stroke-width="2" stroke-miterlimit="10" stroke-linecap="round" stroke-linejoin="round"/>
<path d="M12.0503 23.8071C12.9936 23.8071 13.7583 22.5603 13.7583 21.0223C13.7583 19.4843 12.9936 18.2375 12.0503 18.2375C11.107 18.2375 10.3423 19.4843 10.3423 21.0223C10.3423 22.5603 11.107 23.8071 12.0503 23.8071Z" fill="black"/>
<path d="M9.93384 14.0496L14.2781 17.0571" stroke="black" stroke-width="2" stroke-miterlimit="10" stroke-linecap="round" stroke-linejoin="round"/>
<path d="M25.4915 23.8071C26.4348 23.8071 27.1995 22.5603 27.1995 21.0223C27.1995 19.4843 26.4348 18.2375 25.4915 18.2375C24.5482 18.2375 23.7835 19.4843 23.7835 21.0223C23.7835 22.5603 24.5482 23.8071 25.4915 23.8071Z" fill="black"/>
<path d="M27.1252 14.0496L22.7809 17.0571" stroke="black" stroke-width="2" stroke-miterlimit="10" stroke-linecap="round" stroke-linejoin="round"/>
</svg>
