<svg width="36" height="36" viewBox="0 0 36 36" fill="#EBB34D" xmlns="http://www.w3.org/2000/svg">
<path d="M17.8968 35.9117C27.7809 35.9117 35.7936 27.8991 35.7936 18.015C35.7936 8.13083 27.7809 0.118164 17.8968 0.118164C8.01266 0.118164 0 8.13083 0 18.015C0 27.8991 8.01266 35.9117 17.8968 35.9117Z" fill="#EBB34D"/>
<path d="M11.4733 20.0201C11.4733 20.0201 17.3399 18.4978 24.3575 20.0201C24.3575 20.0201 24.5803 28.3002 17.9339 28.3002C11.2505 28.3002 11.4733 20.0201 11.4733 20.0201Z" fill="#5B0600"/>
<path d="M13.3669 13.0396C13.3669 13.0396 12.9214 11.2944 10.7307 11.2944C8.65137 11.2944 8.09442 13.0396 8.09442 13.0396" stroke="black" stroke-width="2" stroke-miterlimit="10" stroke-linecap="round" stroke-linejoin="round"/>
<path d="M26.5852 13.0396C26.5852 13.0396 26.1397 11.2944 23.949 11.2944C21.8697 11.2944 21.3127 13.0396 21.3127 13.0396" stroke="black" stroke-width="2" stroke-miterlimit="10" stroke-linecap="round" stroke-linejoin="round"/>
</svg>
