<svg width="37" height="36" viewBox="0 0 37 36" fill="#EBB34D" xmlns="http://www.w3.org/2000/svg">
<path d="M18.756 35.9117C28.6402 35.9117 36.6528 27.8991 36.6528 18.015C36.6528 8.13083 28.6402 0.118164 18.756 0.118164C8.87192 0.118164 0.859253 8.13083 0.859253 18.015C0.859253 27.8991 8.87192 35.9117 18.756 35.9117Z" fill="#EBB34D"/>
<path d="M14.2633 13.0025C14.2633 13.0025 13.8177 11.2573 11.627 11.2573C9.54773 11.2573 8.99078 13.0025 8.99078 13.0025" stroke="black" stroke-width="2" stroke-miterlimit="10" stroke-linecap="round" stroke-linejoin="round"/>
<path d="M27.4445 13.0025C27.4445 13.0025 26.9989 11.2573 24.8082 11.2573C22.7289 11.2573 22.172 13.0025 22.172 13.0025" stroke="black" stroke-width="2" stroke-miterlimit="10" stroke-linecap="round" stroke-linejoin="round"/>
<path d="M13.5207 21.2454C13.5207 21.2454 18.3105 24.2158 23.3231 21.2454" stroke="#5B0600" stroke-width="2" stroke-miterlimit="10" stroke-linecap="round" stroke-linejoin="round"/>
</svg>
