<?xml version="1.0" encoding="utf-8"?>
<!-- Generator: Adobe Illustrator 23.1.0, SVG Export Plug-In . SVG Version: 6.00 Build 0)  -->
<svg version="1.1" id="Capa_1" xmlns="http://www.w3.org/2000/svg" xmlns:xlink="http://www.w3.org/1999/xlink" x="0px" y="0px"
	 viewBox="0 0 2491 1808" style="enable-background:new 0 0 2491 1808;" xml:space="preserve">
<g>
	<path style="fill:none;stroke:#B8B1C8;stroke-width:8.9396;stroke-linecap:round;stroke-linejoin:round;stroke-miterlimit:10;" d="
		M1191.7,680.4c18.4-55.1,2-115-14-169.8c-21.6-76.1-43.5-155.9-48.8-235.8c-3.3-55.9,13.7-112.1,27.1-166.8
		c8.6-35.2,18-75.5,0-108.4"/>
	<path style="fill:#B4C1DA;" d="M1196.2,703.8c15.1-8.6,41.9-42.2,26.6-50.5c-11.1-6-19.7,5.3-27.1,10.3c-9.5,6.5-10.2,4.6-21.8,1.4
		c-31.9-8.7-2.3,41.5,16.7,40.8C1192.1,705.8,1194,705,1196.2,703.8z"/>
	<path style="fill:#B4C1DA;" d="M991.7,1024.2c-13.4-162.7,99.8-316.9,194.6-331.8c102-16.1,240.6,132.1,254,294.8
		c13.4,162.7-76.1,302.9-200,313.1C1116.4,1310.5,1005.1,1186.9,991.7,1024.2z"/>
	<path style="fill:#A2AFD2;" d="M1324.2,863.4c40.2,58.2,73.7,152.1,73.3,223.6c-0.6,100.8-32,124.4-53.3,168.9
		c65.8-55.6,105.3-156.9,96.1-268.8c-13.4-162.7-151.9-310.9-254-294.8c-27.9,4.4-57.3,20.8-84.6,45.9
		C1210.5,752.9,1272.8,789,1324.2,863.4z"/>
	<path style="fill:#D9DEF0;" d="M1187,757.8c-0.8-9.2,6.1-17.2,15.3-18c9.2-0.8,17.2,6.1,18,15.3c0.8,9.2-6.1,17.2-15.3,18
		C1195.8,773.9,1187.7,767,1187,757.8z"/>
	<path style="fill:#D9DEF0;" d="M1240.2,1264.4c-0.8-9.2,6.1-17.2,15.3-18c9.2-0.8,17.2,6.1,18,15.3c0.8,9.2-6.1,17.2-15.3,18
		C1249,1280.5,1240.9,1273.6,1240.2,1264.4z"/>
	<path style="fill:#D9DEF0;" d="M1114.2,867.7c-0.8-9.2,6.1-17.2,15.3-18c9.2-0.8,17.2,6.1,18,15.3c0.8,9.2-6.1,17.2-15.3,18
		C1123,883.7,1114.9,876.9,1114.2,867.7z"/>
	<path style="fill:#D9DEF0;" d="M1268.2,861.2c-0.8-9.2,6.1-17.2,15.3-18c9.2-0.8,17.2,6.1,18,15.3c0.8,9.2-6.1,17.2-15.3,18
		C1277,877.2,1269,870.4,1268.2,861.2z"/>
	<path style="fill:#D9DEF0;" d="M1370.3,950.4c-0.8-9.2,6.1-17.2,15.3-18c9.2-0.8,17.2,6.1,18,15.3c0.8,9.2-6.1,17.2-15.3,18
		C1379.1,966.4,1371,959.6,1370.3,950.4z"/>
	<path style="fill:#D9DEF0;" d="M1034,945.6c-0.8-9.2,6.1-17.2,15.3-18c9.2-0.8,17.2,6.1,18,15.3c0.8,9.2-6.1,17.2-15.3,18
		C1042.8,961.6,1034.8,954.8,1034,945.6z"/>
	<path style="fill:#D9DEF0;" d="M1207.1,956.2c-0.8-9.2,6.1-17.2,15.3-18c9.2-0.8,17.2,6.1,18,15.3c0.8,9.2-6.1,17.2-15.3,18
		C1215.9,972.2,1207.9,965.4,1207.1,956.2z"/>
	<path style="fill:#D9DEF0;" d="M1314.3,1072.7c-0.8-9.2,6.1-17.2,15.3-18c9.2-0.8,17.2,6.1,18,15.3c0.8,9.2-6.1,17.2-15.3,18
		C1323.2,1088.7,1315.1,1081.9,1314.3,1072.7z"/>
	<path style="fill:#D9DEF0;" d="M1117.2,1072.7c-0.8-9.2,6.1-17.2,15.3-18c9.2-0.8,17.2,6.1,18,15.3c0.8,9.2-6.1,17.2-15.3,18
		C1126,1088.7,1118,1081.9,1117.2,1072.7z"/>
	<path style="fill:#D9DEF0;" d="M1225.6,1157.5c-0.8-9.2,6.1-17.2,15.3-18c9.2-0.8,17.2,6.1,18,15.3c0.8,9.2-6.1,17.2-15.3,18
		C1234.5,1173.5,1226.4,1166.7,1225.6,1157.5z"/>
	<path style="fill:#D9DEF0;" d="M1345.5,1172.5c-0.8-9.2,6.1-17.2,15.3-18c9.2-0.8,17.2,6.1,18,15.3c0.8,9.2-6.1,17.2-15.3,18
		C1354.3,1188.5,1346.3,1181.7,1345.5,1172.5z"/>
	<path style="fill:#D9DEF0;" d="M1115.3,1224c-0.8-9.2,6.1-17.2,15.3-18c9.2-0.8,17.2,6.1,18,15.3c0.8,9.2-6.1,17.2-15.3,18
		C1124.2,1240,1116.1,1233.2,1115.3,1224z"/>
	<path style="opacity:0.4;fill:#FDEFF5;" d="M1033.6,1168.5c-30.7-53.6-31.9-110.7-2.6-127.4c29.3-16.7,77.9,13.2,108.6,66.8
		c30.7,53.6,31.9,110.7,2.6,127.4C1112.9,1252.1,1064.3,1222.2,1033.6,1168.5z"/>
</g>
</svg>
