<svg width="39" height="61" viewBox="0 0 39 61" fill="none" xmlns="http://www.w3.org/2000/svg">
    <g filter="url(#filter0_d_201_2)">
        <rect x="21.0188" y="11.4321" width="18" height="41" rx="9" transform="rotate(29.2265 21.0188 11.4321)"
            fill="#FF8A37" />
    </g>
    <g filter="url(#filter1_i_201_2)">
        <circle cx="25.9877" cy="20.5958" r="2" transform="rotate(-12.0668 25.9877 20.5958)" fill="#5D9BC3" />
    </g>
    <circle cx="25.9877" cy="20.5958" r="2.5" transform="rotate(-12.0668 25.9877 20.5958)" stroke="#0C67AB" />
    <path
        d="M24.5652 1.98197C27.6832 5.4058 31.9297 10.1223 29.903 12.6007C27.6649 15.3377 24.909 13.157 25.3642 10.5032C25.8195 7.8494 31.2688 4.63928 34.5498 8.02827C37.8308 11.4173 36.2222 15.8515 31.7508 18.8526L29.5151 20.3531C29.5151 20.3531 27.7683 21.7491 26.7904 21.9582C25.8125 22.1672 24.6255 21.3984 24.9054 20.3159C25.1853 19.2335 26.1632 19.0245 26.1632 19.0245"
        stroke="#FCD9C0" stroke-linecap="round" stroke-linejoin="round" />
    <path
        d="M9.01391 42.7559L9.34146 40.1858L9.73404 40.2876L9.38814 42.9392L9.01391 42.7559ZM10.4794 43.5447L9.98453 43.2659L10.375 40.4375L10.8909 40.5812L10.5534 42.9896L12.5218 42.4456C12.8922 42.3421 13.2059 42.2525 13.4628 42.1769C13.7197 42.1012 13.9379 42.0344 14.1175 41.9764C14.2924 41.9157 14.4336 41.8606 14.5412 41.811C14.6513 41.7568 14.7399 41.7026 14.8071 41.6486C14.8742 41.5946 14.9295 41.54 14.9728 41.4849C15.0141 41.4224 15.057 41.3517 15.1015 41.2727C15.1355 41.2123 15.1787 41.1846 15.231 41.1896C15.2812 41.1873 15.3458 41.2084 15.4248 41.2529C15.5085 41.3 15.5647 41.347 15.5934 41.3937C15.6201 41.4333 15.6164 41.4832 15.5824 41.5436C15.5091 41.6738 15.4308 41.7857 15.3473 41.8795C15.2665 41.9686 15.1621 42.0506 15.0343 42.1255C14.909 42.1958 14.754 42.2645 14.5692 42.3318C14.3843 42.3991 14.1503 42.4723 13.867 42.5514C14.0282 42.6239 14.1514 42.7147 14.2368 42.824C14.3201 42.9261 14.3717 43.0409 14.3917 43.1684C14.4143 43.2913 14.4102 43.4236 14.3793 43.5654C14.3464 43.6999 14.2919 43.8345 14.216 43.9693L12.7201 46.6249C12.6128 46.8154 12.492 46.9647 12.3577 47.0727C12.2214 47.1734 12.0795 47.2404 11.9322 47.2738C11.7875 47.3024 11.6383 47.301 11.4847 47.2696C11.3336 47.2334 11.1861 47.1748 11.042 47.0937L10.108 46.5675L10.3593 46.1214L11.1888 46.5887C11.4025 46.7091 11.6022 46.7512 11.7879 46.715C11.9762 46.6741 12.1449 46.5213 12.2941 46.2564L13.7115 43.7402C13.8293 43.5311 13.8687 43.3635 13.8295 43.2373C13.7857 43.1086 13.7034 43.0102 13.5826 42.9422C13.5036 42.8977 13.4062 42.8642 13.2902 42.8418C13.177 42.8147 13.0222 42.8285 12.8261 42.8833L10.4794 43.5447ZM15.4017 40.7398C15.5116 40.5447 15.5466 40.3685 15.5066 40.2113C15.4666 40.0541 15.3606 39.9271 15.1887 39.8302L14.2268 39.2884L14.482 38.8353L15.4439 39.3772C15.5461 39.4347 15.6412 39.4669 15.7293 39.4736C15.8199 39.4757 15.9042 39.462 15.9821 39.4324C16.0553 39.4002 16.1208 39.3545 16.1787 39.2952C16.2365 39.236 16.2864 39.1692 16.3283 39.0949L16.4461 38.8858C16.5063 38.7789 16.6154 38.7699 16.7734 38.8589C16.936 38.9506 16.9872 39.0498 16.927 39.1567L16.8014 39.3797C16.7071 39.547 16.5892 39.6857 16.4477 39.7957C16.3015 39.9031 16.1139 39.9535 15.885 39.947C16.0014 40.1533 16.0528 40.3445 16.0393 40.5206C16.0238 40.6894 15.9716 40.8528 15.8826 41.0108L15.5842 41.5405C15.5502 41.6009 15.5093 41.6299 15.4617 41.6276C15.4114 41.6299 15.3468 41.6088 15.2678 41.5643C15.1842 41.5171 15.128 41.4702 15.0992 41.4234C15.0679 41.3813 15.0692 41.33 15.1033 41.2696L15.4017 40.7398ZM13.5977 38.3188L13.2679 38.9043L12.759 38.6177L13.0889 38.0322L13.5977 38.3188ZM16.7437 38.3574C16.8536 38.1623 16.8886 37.9861 16.8486 37.8289C16.8086 37.6717 16.7026 37.5447 16.5307 37.4478L15.5688 36.906L15.824 36.4529L16.7859 36.9948C16.8881 37.0523 16.9833 37.0845 17.0713 37.0912C17.1619 37.0933 17.2462 37.0796 17.3241 37.05C17.3973 37.0178 17.4629 36.9721 17.5207 36.9128C17.5786 36.8536 17.6284 36.7868 17.6703 36.7125L17.7881 36.5034C17.8483 36.3965 17.9574 36.3876 18.1154 36.4766C18.278 36.5682 18.3292 36.6674 18.269 36.7743L18.1434 36.9973C18.0492 37.1646 17.9313 37.3033 17.7897 37.4133C17.6435 37.5207 17.4559 37.5711 17.227 37.5646C17.3434 37.771 17.3948 37.9621 17.3814 38.1382C17.3659 38.307 17.3136 38.4704 17.2246 38.6284L16.9262 39.1581C16.8922 39.2185 16.8514 39.2475 16.8037 39.2452C16.7534 39.2475 16.6888 39.2264 16.6098 39.1819C16.5262 39.1348 16.47 39.0878 16.4413 39.041C16.4099 38.9989 16.4112 38.9476 16.4453 38.8872L16.7437 38.3574ZM19.2898 38.0104L18.9914 38.5401L18.4965 38.2613L18.7949 37.7316L19.2898 38.0104ZM18.7793 38.9165L18.477 39.4532L17.9821 39.1744L18.2845 38.6377L18.7793 38.9165ZM18.0857 35.9751C18.1956 35.7799 18.2306 35.6037 18.1906 35.4465C18.1506 35.2893 18.0447 35.1623 17.8727 35.0654L16.9108 34.5236L17.1661 34.0705L18.1279 34.6124C18.2302 34.67 18.3253 34.7021 18.4133 34.7089C18.504 34.7109 18.5882 34.6972 18.6661 34.6676C18.7393 34.6354 18.8049 34.5897 18.8627 34.5305C18.9206 34.4712 18.9704 34.4044 19.0123 34.3301L19.1301 34.121C19.1903 34.0141 19.2994 34.0052 19.4574 34.0942C19.62 34.1858 19.6713 34.285 19.6111 34.3919L19.4854 34.6149C19.3912 34.7822 19.2733 34.9209 19.1317 35.0309C18.9855 35.1383 18.798 35.1887 18.569 35.1822C18.6854 35.3886 18.7369 35.5798 18.7234 35.7558C18.7079 35.9246 18.6556 36.088 18.5666 36.246L18.2682 36.7757C18.2342 36.8361 18.1934 36.8651 18.1457 36.8628C18.0955 36.8651 18.0308 36.844 17.9518 36.7995C17.8682 36.7524 17.812 36.7054 17.7833 36.6586C17.7519 36.6165 17.7533 36.5652 17.7873 36.5048L18.0857 35.9751ZM16.5094 33.1497L16.1953 33.7074L15.7005 33.4286L16.0146 32.871L16.5094 33.1497ZM16.0108 34.035L15.6967 34.5926L15.2018 34.3138L15.5159 33.7562L16.0108 34.035ZM19.2707 33.8715C19.3806 33.6763 19.4169 33.4978 19.3795 33.336C19.3447 33.1695 19.2414 33.0378 19.0695 32.9409L18.1076 32.3991L18.3628 31.946L19.3247 32.4879C19.4269 32.5455 19.522 32.5776 19.6101 32.5844C19.7007 32.5865 19.785 32.5727 19.8628 32.5431C19.9387 32.5063 20.0055 32.4582 20.0634 32.399C20.1239 32.3351 20.175 32.266 20.2169 32.1917C20.34 31.9733 20.3841 31.7808 20.3493 31.6143C20.3172 31.4432 20.2151 31.3092 20.0432 31.2123L19.0813 30.6705L19.3365 30.2174L20.2984 30.7593C20.5029 30.8744 20.6783 30.8998 20.8248 30.8354C20.9692 30.7638 21.082 30.6559 21.1632 30.5118C21.2679 30.326 21.2989 30.1568 21.2563 30.0042C21.2163 29.847 21.1104 29.72 20.9384 29.6231L19.9765 29.0813L20.2318 28.6282L21.1936 29.1701C21.2959 29.2277 21.391 29.2598 21.479 29.2666C21.5697 29.2686 21.6526 29.2572 21.7279 29.2323C21.8011 29.2001 21.8667 29.1544 21.9245 29.0951C21.9824 29.0359 22.0309 28.9714 22.0702 28.9017L22.1448 28.7693C22.1788 28.7089 22.222 28.6812 22.2743 28.6861C22.3245 28.6838 22.3891 28.7049 22.4681 28.7494C22.5518 28.7966 22.608 28.8435 22.6367 28.8903C22.6634 28.9298 22.6597 28.9798 22.6257 29.0402L22.5511 29.1726C22.4569 29.3399 22.339 29.4786 22.1974 29.5886C22.0512 29.696 21.8637 29.7464 21.6347 29.7399C21.7511 29.9463 21.8013 30.1398 21.7852 30.3205C21.767 30.4939 21.72 30.648 21.6441 30.7828C21.5499 30.95 21.4333 31.0864 21.2944 31.1917C21.1508 31.2945 20.9645 31.3426 20.7356 31.3361C20.8546 31.5378 20.9021 31.736 20.8782 31.9306C20.8522 32.118 20.7921 32.2953 20.6979 32.4626C20.5958 32.6438 20.4727 32.7917 20.3285 32.9064C20.1797 33.0185 19.9908 33.0712 19.7619 33.0647C19.8809 33.2664 19.931 33.4599 19.9123 33.6453C19.8889 33.828 19.8301 34.003 19.7359 34.1703L19.6103 34.3933C19.5762 34.4537 19.5354 34.4828 19.4878 34.4804C19.4375 34.4827 19.3729 34.4616 19.2939 34.4171C19.2102 34.37 19.154 34.323 19.1253 34.2762C19.094 34.2341 19.0953 34.1828 19.1293 34.1224L19.2707 33.8715ZM22.8067 27.5943C22.8747 27.4735 22.9323 27.3712 22.9794 27.2876C23.0245 27.1967 23.0769 27.1037 23.1365 27.0088C22.899 27.2239 22.6929 27.3833 22.5182 27.4869C22.3462 27.5859 22.1915 27.6487 22.054 27.6753C21.9166 27.7019 21.7879 27.6968 21.6679 27.6598C21.5459 27.6156 21.4176 27.5555 21.2828 27.4796C21.1527 27.4063 21.0346 27.3061 20.9287 27.1791C20.8227 27.0521 20.7438 26.9097 20.6919 26.7519C20.6379 26.5868 20.6167 26.4127 20.6281 26.2293C20.6422 26.0414 20.7029 25.8521 20.8102 25.6616C20.9097 25.4851 21.0255 25.3391 21.1578 25.2239C21.2854 25.106 21.4315 25.0261 21.5959 24.984C21.763 24.9374 21.9482 24.9346 22.1516 24.9757C22.3575 25.0121 22.586 25.101 22.8369 25.2423L23.1505 25.419C23.5083 25.6206 23.728 25.8881 23.8094 26.2217C23.8934 26.5506 23.8046 26.9474 23.5428 27.4121L22.6241 29.0432C22.59 29.1036 22.5492 29.1326 22.5016 29.1302C22.4513 29.1325 22.3867 29.1114 22.3077 29.0669C22.224 29.0198 22.1678 28.9729 22.1391 28.9261C22.1078 28.8839 22.1091 28.8326 22.1431 28.7722L22.8067 27.5943ZM21.2754 25.9604C21.2126 26.072 21.176 26.186 21.1654 26.3025C21.1575 26.4143 21.1678 26.5211 21.1962 26.6228C21.2272 26.7198 21.2754 26.8082 21.3407 26.8878C21.406 26.9675 21.4828 27.0322 21.5711 27.0819C21.6594 27.1316 21.7483 27.1695 21.8377 27.1954C21.9225 27.2187 22.028 27.2107 22.1541 27.1716C22.2756 27.1298 22.4276 27.0502 22.6101 26.9326C22.7906 26.8078 23.0194 26.6245 23.2964 26.3826C23.2547 26.1633 23.1107 25.9842 22.8644 25.8455L22.6344 25.7159C22.3463 25.5536 22.0882 25.4848 21.8601 25.5093C21.6274 25.5313 21.4325 25.6816 21.2754 25.9604ZM20.2851 24.9802L19.9553 25.5657L19.4464 25.279L19.7762 24.6935L20.2851 24.9802Z"
        fill="white" />
    <defs>
        <filter id="filter0_d_201_2" x="0.24704" y="14.6791" width="37.2333" height="46.0752"
            filterUnits="userSpaceOnUse" color-interpolation-filters="sRGB">
            <feFlood flood-opacity="0" result="BackgroundImageFix" />
            <feColorMatrix in="SourceAlpha" type="matrix" values="0 0 0 0 0 0 0 0 0 0 0 0 0 0 0 0 0 0 127 0"
                result="hardAlpha" />
            <feOffset dy="4" />
            <feGaussianBlur stdDeviation="2" />
            <feComposite in2="hardAlpha" operator="out" />
            <feColorMatrix type="matrix" values="0 0 0 0 0 0 0 0 0 0 0 0 0 0 0 0 0 0 0.25 0" />
            <feBlend mode="normal" in2="BackgroundImageFix" result="effect1_dropShadow_201_2" />
            <feBlend mode="normal" in="SourceGraphic" in2="effect1_dropShadow_201_2" result="shape" />
        </filter>
        <filter id="filter1_i_201_2" x="22.9871" y="17.5952" width="7.00125" height="7.00124"
            filterUnits="userSpaceOnUse" color-interpolation-filters="sRGB">
            <feFlood flood-opacity="0" result="BackgroundImageFix" />
            <feBlend mode="normal" in="SourceGraphic" in2="BackgroundImageFix" result="shape" />
            <feColorMatrix in="SourceAlpha" type="matrix" values="0 0 0 0 0 0 0 0 0 0 0 0 0 0 0 0 0 0 127 0"
                result="hardAlpha" />
            <feOffset dx="1" dy="2" />
            <feGaussianBlur stdDeviation="0.5" />
            <feComposite in2="hardAlpha" operator="arithmetic" k2="-1" k3="1" />
            <feColorMatrix type="matrix" values="0 0 0 0 0 0 0 0 0 0 0 0 0 0 0 0 0 0 0.25 0" />
            <feBlend mode="normal" in2="shape" result="effect1_innerShadow_201_2" />
        </filter>
    </defs>
</svg>
