<svg width="500" height="500" viewBox="0 0 500 500" fill="none" xmlns="http://www.w3.org/2000/svg">
    <path
        d="M132.817 427.777C152.095 427.777 168.85 416.837 177.26 400.85C168.928 393.398 162.722 383.668 159.615 372.615C155.487 373.527 151.217 374.038 146.823 374.038C124.84 374.038 105.653 362.027 95.355 344.26C87.4517 353.133 82.605 364.782 82.605 377.573C82.6 405.253 105.127 427.777 132.817 427.777Z"
        fill="white" />
    <path
        d="M100.325 333.443C100.925 334.918 101.6 336.357 102.337 337.757C110.735 353.782 127.508 364.755 146.817 364.755C150.585 364.755 154.248 364.303 157.79 363.512C157.523 361.227 157.35 358.912 157.35 356.562C157.35 349.355 158.7 342.48 161.057 336.087C161.607 334.602 162.202 333.14 162.863 331.712C163.513 330.305 164.188 328.922 164.943 327.578C168.52 321.198 173.223 315.533 178.807 310.873C153.548 309.593 132.383 292.563 125.08 269.367C108.265 277.492 96.61 294.66 96.61 314.552C96.61 319.535 97.3667 324.34 98.7217 328.892C99.1867 330.443 99.7233 331.96 100.325 333.443Z"
        fill="white" />
    <path
        d="M205.99 320.713C204.053 316.957 202.523 312.972 201.417 308.805C201.398 308.812 201.385 308.818 201.367 308.825C199.818 309.327 198.303 309.9 196.823 310.543C186.327 315.13 177.7 323.197 172.397 333.285C171.647 334.708 170.967 336.163 170.36 337.66C169.717 339.232 169.16 340.847 168.677 342.5C167.37 346.967 166.635 351.677 166.635 356.565C166.635 357.922 166.733 359.247 166.84 360.572C166.97 362.19 167.18 363.782 167.458 365.353C167.732 366.893 168.078 368.41 168.492 369.895C170.783 378.195 175.127 385.647 180.988 391.64C182.183 392.863 183.433 394.037 184.752 395.13C185.988 396.165 187.277 397.135 188.613 398.047C196.665 403.548 206.388 406.77 216.853 406.77C244.537 406.77 267.058 384.25 267.058 356.562C267.058 355.168 266.96 353.798 266.847 352.43C264.232 352.785 261.575 353.032 258.865 353.032C235.84 353.033 215.88 339.877 205.99 320.713Z"
        fill="white" />
    <path
        d="M132.638 261.613C132.953 263.143 133.35 264.64 133.795 266.113C140.058 286.705 159.213 301.738 181.828 301.738C186.34 301.738 190.69 301.08 194.85 299.962C196.353 299.555 197.833 299.083 199.282 298.545C199.393 298.5 199.498 298.463 199.61 298.428C199.48 296.81 199.363 295.19 199.363 293.545C199.363 291.465 199.475 289.408 199.685 287.38C201.158 273.145 207.687 260.402 217.423 250.933C211.402 242.485 207.533 232.422 206.625 221.51C199.068 224.995 190.687 226.995 181.832 226.995C168.773 226.995 156.717 222.712 146.895 215.545C137.495 224.675 131.627 237.417 131.627 251.528C131.627 253.385 131.743 255.212 131.942 257.017C132.105 258.57 132.328 260.108 132.638 261.613Z"
        fill="white" />
    <path
        d="M274.273 341.305C283.593 338.283 291.732 332.62 297.783 325.182C284.718 314.257 276.382 297.857 276.382 279.537C276.382 278.003 276.498 276.493 276.612 274.983C273.113 275.628 269.532 276.008 265.855 276.008C256.028 276.008 246.767 273.57 238.593 269.335C237.17 268.6 235.797 267.788 234.44 266.947C233.042 266.075 231.687 265.138 230.367 264.153C227.878 262.298 225.52 260.288 223.355 258.073C214.27 267.163 208.643 279.708 208.643 293.547C208.643 293.667 208.662 293.785 208.662 293.902C208.667 295.175 208.748 296.425 208.853 297.675C208.897 298.173 208.922 298.668 208.977 299.157C209.093 300.208 209.273 301.24 209.453 302.275C209.558 302.865 209.638 303.45 209.762 304.033C209.96 304.973 210.227 305.892 210.48 306.813C216.315 328.073 235.768 343.763 258.853 343.763C261.013 343.763 263.125 343.578 265.215 343.312C266.768 343.113 268.305 342.86 269.807 342.52C271.322 342.172 272.813 341.773 274.273 341.305Z"
        fill="white" />
    <path
        d="M150.413 206.605C151.7 207.638 153.038 208.61 154.423 209.513C162.315 214.682 171.722 217.708 181.828 217.708C190.857 217.708 199.312 215.282 206.64 211.092C206.733 210.1 206.882 209.135 207.023 208.163C207.26 206.505 207.538 204.87 207.908 203.263C208.262 201.728 208.627 200.198 209.097 198.708C213.1 185.97 221.295 175.09 232.033 167.632C232.033 167.588 232.038 167.545 232.038 167.495C232.038 139.812 209.51 117.29 181.827 117.29C154.145 117.29 131.622 139.812 131.622 167.495C131.622 181.6 137.49 194.348 146.89 203.478C148.012 204.575 149.187 205.622 150.413 206.605Z"
        fill="white" />
    <path
        d="M217.643 202.625C217.527 203.047 217.427 203.475 217.315 203.895C216.888 205.528 216.548 207.193 216.288 208.883C216.213 209.36 216.127 209.83 216.072 210.307C215.898 211.723 215.798 213.158 215.743 214.613C215.718 215.202 215.657 215.782 215.657 216.385C215.657 216.427 215.652 216.478 215.652 216.52C215.652 227.098 218.957 236.907 224.57 245.01C225.448 246.278 226.372 247.503 227.355 248.678C228.358 249.88 229.41 251.03 230.517 252.132C230.975 252.583 231.47 252.993 231.947 253.432C233.363 254.73 234.843 255.95 236.403 257.083C237.777 258.085 239.2 259.013 240.673 259.873C248.088 264.202 256.678 266.718 265.862 266.718C270.138 266.718 274.267 266.125 278.235 265.115C279.552 259.85 281.545 254.855 284.163 250.243C284.932 248.893 285.718 247.552 286.583 246.263C287.452 244.98 288.397 243.762 289.362 242.548C296.117 234.07 305.133 227.51 315.493 223.708C315.833 221.35 316.07 218.955 316.07 216.505C316.07 203.08 310.74 190.895 302.125 181.878C302.752 180.293 303.35 178.703 304.037 177.168C304.695 175.695 305.43 174.285 306.143 172.855C324.4 136.16 360.023 114.183 397.522 98.5183C412.03 92.46 405.668 68.495 390.943 74.6467C346.657 93.15 307.003 118.16 285.005 160.24C284.293 161.602 283.643 163.025 282.968 164.418C282.295 165.823 281.568 167.178 280.933 168.62C276.173 167.117 271.11 166.298 265.857 166.298C256.832 166.298 248.378 168.725 241.05 172.915C239.262 173.937 237.553 175.08 235.907 176.307C233.827 177.86 231.853 179.537 230.045 181.38C224.292 187.258 219.983 194.525 217.643 202.625Z"
        fill="white" />
    <path
        d="M303.008 317.408C304.193 318.433 305.423 319.4 306.698 320.315C307.948 321.213 309.242 322.05 310.573 322.828C318.012 327.2 326.647 329.742 335.88 329.742C363.563 329.742 386.085 307.218 386.085 279.537C386.085 251.847 363.557 229.323 335.88 229.323C331.603 229.323 327.475 229.917 323.508 230.927C321.737 231.378 320 231.923 318.31 232.555C316.292 233.312 314.317 234.165 312.432 235.167C306.453 238.342 301.185 242.68 296.94 247.892C295.968 249.087 295.04 250.323 294.18 251.605C293.302 252.917 292.473 254.273 291.715 255.665C290.805 257.343 290.02 259.088 289.302 260.877C288.503 262.857 287.862 264.907 287.317 266.998C286.865 268.745 286.513 270.515 286.245 272.328C285.907 274.685 285.67 277.082 285.67 279.532C285.667 294.652 292.412 308.193 303.008 317.408Z"
        fill="white" />
    <path
        d="M425.173 206.247C425.173 206.247 386.783 93.365 340.997 149.29C295.205 205.213 393.197 227.908 425.173 206.247Z"
        fill="white" />
</svg>
