<svg version="1.0" xmlns="http://www.w3.org/2000/svg" width="1080" height="1080" viewBox="0 0 1080 1080">
    <path
        fill="white"
        d="M1016.6 16.9c-.3.5-1.8 1.1-3.3 1.4-1.6.2-7.3 1.7-12.8 3.2-12.5 3.4-17.1 4.5-21.3 5.2-1.8.3-3.5.9-3.8 1.4-.3.5-2 .9-3.9.9s-3.7.4-4 1c-.3.5-2.1 1-4 1s-3.7.4-4 1c-.3.5-2.1 1-4 1s-3.7.4-4 1c-.3.5-2.1 1-4 1s-3.6.4-3.9.9c-.3.5-2 1.1-3.8 1.4-1.8.3-5.8 1.3-8.8 2.2-3 .9-7.2 2.1-9.2 2.6-2.1.5-5.7 1.4-8 2-2.4.6-5.8 1.3-7.6 1.6-1.8.3-3.5.9-3.8 1.4-.3.5-2 .9-3.9.9s-3.6.4-3.9.9c-.3.5-2.3 1.1-4.3 1.5-8.8 1.3-11.3 1.9-11.9 2.7-.3.5-2 .9-3.9.9s-3.6.4-3.9.9c-.3.5-2 1.1-3.8 1.4-1.8.3-5.8 1.3-8.8 2.2-3 .9-7.3 2.1-9.5 2.6-2.2.6-5.7 1.4-7.7 1.9-10.5 2.7-12.6 3.2-15.6 3.7-1.8.3-3.5.9-3.8 1.4-.3.5-2 .9-3.9.9s-3.7.4-4 1c-.3.5-2.1 1-4 1s-3.7.4-4 1c-.3.5-2.1 1-4 1s-3.6.4-3.9.9c-.3.5-2 1.1-3.8 1.4-1.8.3-5.8 1.3-8.8 2.2-3 .9-7.1 2.1-9 2.5-1.9.5-5.5 1.4-8 2-2.5.6-6 1.4-7.8 1.7-1.8.3-3.5.9-3.8 1.4-.3.5-2 .9-3.9.9s-3.7.4-4 1c-.3.5-2.1 1-4 1s-3.7.4-4 1c-.3.5-2.1 1-4 1s-3.7.4-4 1c-.3.5-2.1 1-4 1s-3.7.4-4 1c-.3.5-1.9 1-3.6 1-1.6 0-3.7.4-4.7.9-1.6.9-8.4 2.9-17.7 5.2-2.2.6-5.4 1.5-7.1 2-1.7.5-4 .9-5.2.9-1.1 0-2.4.4-2.7 1-.3.5-2.1 1-4 1s-3.7.4-4 1c-.3.5-2.1 1-4 1s-3.7.4-4 1c-.3.5-2.1 1-4 1s-3.7.4-4 1c-.3.5-2.1 1-4 1s-3.6.4-3.9.9c-.3.5-2 1.1-3.8 1.4-1.8.3-5.8 1.2-8.8 2.2-3 .9-7.1 2.1-9 2.5-1.9.5-5.3 1.4-7.5 1.9-2.2.6-5.3 1.3-7 1.6-1.6.4-3.9 1-5 1.5s-3.6 1.1-5.5 1.5c-1.9.3-5 .8-6.8 1.2-1.8.3-3.5.9-3.8 1.4-.3.5-2 .9-3.9.9s-3.7.4-4 1c-.3.5-2.1 1-4 1s-3.7.4-4 1c-.3.5-1.7 1-3 1-6.5 0-27.5 15.4-27.5 20.2 0 1-.4 1.8-.9 1.8s-1.1.8-1.4 1.7c-.4 1-1.3 3.6-2.1 5.8-1.6 4.1-1.7 11.5-1.6 85.2V271h39.4c25.8 0 39.7-.4 40.1-1 .4-.6.6-16.3.6-34.9l-.1-33.9 2.3-.7c1.2-.5 3.8-1.2 5.7-1.6 5.3-1.2 11.1-2.7 15-3.8 6.3-1.9 22.4-6.3 26.5-7.2 2.2-.6 5.8-1.5 8-2 2.2-.6 5.7-1.3 7.8-1.6 2-.3 4-.9 4.3-1.4.3-.5 2-.9 3.9-.9s3.6-.4 3.9-.9c.3-.5 2-1.1 3.8-1.4 1.8-.3 5.2-1 7.6-1.6 2.3-.6 5.9-1.5 8-2 2-.6 6.2-1.7 9.2-2.6 3-1 7.1-2.1 9-2.5 1.9-.5 5.3-1.4 7.5-1.9 11.3-2.8 13.3-3.3 16.3-3.8 1.8-.3 3.5-.9 3.8-1.4.3-.5 2-.9 3.9-.9s3.7-.5 4-1c.3-.6 2.1-1 4-1s3.7-.5 4-1c.3-.6 2.1-1 4-1s3.7-.5 4-1c.3-.6 1.6-1 2.7-1 1.2 0 3.5-.4 5.2-.9 3.6-1.1 12.2-3.4 18.6-5.1 2.5-.7 5.5-1.6 6.8-2.1 1.3-.5 3.6-.9 5.2-.9s3.2-.5 3.5-1c.3-.6 2.1-1 4-1s3.6-.4 3.9-.9c.6-.8 3.1-1.4 11.9-2.7 2-.4 4-1 4.3-1.5.3-.5 2-.9 3.9-.9s3.7-.5 4-1c.3-.6 1.9-1 3.6-1 1.6 0 3.7-.4 4.7-.9 1.7-.8 8.4-2.8 17.2-5.1 2.5-.6 5.9-1.6 7.6-2.1 1.7-.5 4-.9 5.2-.9 1.1 0 2.4-.5 2.7-1 .3-.6 2.1-1 4-1s3.6-.4 3.9-.9c.3-.5 2.3-1.1 4.3-1.4 2.1-.3 5.8-1.1 8.3-1.7 2.5-.6 6-1.4 7.8-1.7 1.8-.3 3.5-.9 3.8-1.4.3-.5 2-.9 3.9-.9s3.6-.4 3.9-.9c.3-.5 2-1.1 3.8-1.4 1.8-.3 7.6-1.8 12.8-3.3 5.2-1.4 11.2-2.9 13.3-3.1 2-.3 4-.9 4.3-1.4.3-.5 2-.9 3.9-.9s3.7-.5 4-1c.3-.6 2.1-1 4-1s3.7-.5 4-1c.3-.6 2.1-1 4-1s3.7-.5 4-1c.3-.6 2.1-1 4-1s3.7-.5 4-1c.3-.6 1.7-1 3-1s3.4-.4 4.7-.9c1.3-.5 5.2-1.7 8.8-2.7 10.9-2.9 19-7.3 25-13.3 5.7-5.8 6.8-7.4 10.7-15.1 1.6-3.2 2.2-6.3 2.3-11 0-5.5-.6-7.6-3.7-14-3.6-7.1-4.5-8.4-9-13.6-2.5-2.8-9.8-7.7-16.2-10.8-4.1-1.9-7-2.6-11.7-2.6-3.5 0-6.5.4-6.8.9zM216.5 95.1c-2.2.4-6.9 1.3-10.5 1.9-6.3 1.1-10.4 2-18.5 4.1-2.2.6-5.5 1.3-7.3 1.6-1.8.3-3.5.9-3.8 1.4-.3.5-1.6.9-2.9.9-1.3 0-2.7.4-3 1-.3.5-1.5 1-2.6 1-1 0-2.7.4-3.7.9-.9.5-2.8 1.3-4.2 1.8-5 2-30.5 14.8-30.8 15.5-.2.5-.8.8-1.4.8-.9 0-21.9 14.1-24.4 16.5-.7.5-3.1 2.5-5.5 4.4-8.3 6.5-29.7 28.7-34.9 36.2-1.3 1.9-2.7 3.6-3 3.9-1.3 1.1-8 11.1-8 11.8 0 .5-.9 1.7-2 2.7-1.1 1-2 2.4-2 3.2 0 .7-.4 1.3-.8 1.3s-1.4 1.6-2.1 3.5c-.7 1.9-1.7 3.5-2.2 3.5-.5 0-.9.9-.9 2s-.4 2-1 2c-.5 0-1 .9-1 1.9 0 1.1-.3 2.1-.7 2.3-1.1.5-6.3 11.4-6.3 13.2 0 .9-.4 1.6-.8 1.6-.5 0-1.5 2.3-2.2 5.1-.8 2.7-1.8 5.2-2.2 5.5-.4.3-.8 1.6-.8 2.9 0 1.3-.4 2.7-1 3-.5.3-1 1.9-1 3.5s-.4 3.1-.9 3.4c-.5.3-1.1 2-1.4 3.8-.3 1.8-1 5.3-1.6 7.8-4.4 18.1-4.5 18.9-4.5 48.5.1 27.5.5 33.9 3.4 44.5.6 2.5 1.6 6.3 2.2 8.5 2.1 7.9 3.1 11 3.9 12.7.5 1 .9 2.7.9 3.8 0 1.1.5 2.9 1 4 .6 1.1 1.5 2.9 2 4s1 2.9 1 4 .5 2 1 2c.6 0 1 .6 1 1.2 0 1.6 11.2 24.2 12.2 24.6.5.2.8 1.2.8 2.3 0 1 .4 1.9.9 1.9s1.4 1.3 2.1 3c.7 1.6 1.6 3 2.1 3s.9.4.9 1c0 .9 6.6 10.8 8 12 .4.3 1.3 1.6 2.2 2.9 5 7.3 24.6 27.7 34.3 35.8 7.9 6.5 23.3 17.8 27.3 20 12.4 6.8 15.9 8.7 17.1 9.7 1.2.9 1.3 0 .5-6.4-2.1-17.8.3-64.4 4.6-90 1.6-9.9 2.8-16 3.9-21.3.6-2.6 1.5-6.6 2-9 .6-2.3 1.7-6.7 2.6-9.7 2.7-9 3.6-12.4 4.2-15.3.3-1.5.9-3 1.4-3.3.5-.3.9-1.8.9-3.5 0-1.6.5-2.9 1-2.9.6 0 1-1.3 1-2.8 0-1.5.4-3.2.8-3.8.4-.5 1.4-2.7 2.1-4.9.7-2.2 1.7-5 2.2-6.3 2.5-6.1 3.2-7.9 3.9-9.7.4-1.1 1.9-4.7 3.5-8 1.5-3.3 3.1-6.9 3.5-8 .4-1.1 1.7-4 2.9-6.3 1.1-2.4 2.1-5 2.1-5.8 0-.8.5-1.4 1-1.4.6 0 1-.9 1-2s.5-2 1-2c.6 0 1-.9 1-2s.3-2 .8-2c.4 0 1.3-1.3 2-2.9 1.2-2.8 6.6-8.8 10.8-12.1 3-2.4 9.3-5.1 16-6.9 2.9-.8 39.5-1.1 124.6-1.1h120.5l-.8-3.8c-1.7-7.9-5.2-19.4-6.9-22.4-.6-1-1-2.7-1-3.7 0-1.1-.4-2.3-1-2.6-.5-.3-1-1.5-1-2.6 0-1-.4-1.9-1-1.9-.5 0-1-.6-1-1.4 0-1.5-8.5-18.5-10.1-20.1-.5-.5-.9-1.7-.9-2.7 0-1-.4-1.8-1-1.8-.5 0-1-.5-1-1.1 0-1.3-14.8-22.9-17.2-25-1-.9-1.8-2.1-1.8-2.6 0-1.3-26.7-28.2-31.7-31.9-2.1-1.6-5.1-4.1-6.8-5.6-1.6-1.6-3.5-2.8-4.2-2.8-.6 0-1.3-.3-1.5-.8-.5-1.2-10.5-8.2-11.7-8.2-.6 0-1.1-.3-1.1-.8 0-.4-1-1.2-2.3-1.8-4.2-2.1-11.2-5.9-11.7-6.4-.3-.3-1.8-1.1-3.5-1.9-4.5-2-5.7-2.6-9-4.3-2.9-1.5-6.4-3.1-11.5-5.1-1.4-.5-3.3-1.3-4.2-1.8-1-.5-2.5-.9-3.3-.9-.8 0-2.3-.4-3.3-.9-1.7-.8-4.5-1.7-13.2-4-2.5-.7-5.8-1.6-7.5-2.1-1.6-.4-6.1-1.4-10-2-3.8-.7-10.3-1.8-14.4-2.6-8-1.5-43.6-1.8-50.6-.3z" />
    <path
        fill="white"
        d="M262.3 366.7c-.7.2-1.3 1.3-1.3 2.3 0 1-.4 2.2-1 2.5-.5.3-1 1.7-1 3.1 0 1.3-.4 2.4-1 2.4-.5 0-1 1.1-1 2.5s-.4 2.5-1 2.5c-.5 0-1 1-1 2.3 0 1.3-.4 2.7-.8 3.2-.5.6-2.1 5-3.6 10-1.6 4.9-3.2 9.9-3.6 11-.5 1.1-1.1 3.3-1.4 5-.2 1.6-1 5-1.6 7.5-5.6 22.4-7.4 39.9-7.4 72.5.1 26.2.4 31.5 3.5 50.5.5 3.6 1.2 8.9 1.5 11.7.3 2.9 1 5.3 1.5 5.3s.9 1.2.9 2.7c0 1.5.4 4 .9 5.7.5 1.7 1.5 5.1 2.2 7.6.6 2.5 2.5 8.3 4.2 13 1.6 4.7 3.2 9.7 3.4 11.2.3 1.6.9 2.8 1.4 2.8.5 0 .9.9.9 2s.4 2.8.9 3.8c.5.9 1.3 2.8 1.8 4.2 2.6 6.4 3.2 7.8 5.1 11.5 1.1 2.2 4.6 9.1 7.7 15.2 3.2 6.2 6.1 11.3 6.6 11.3s.9.9.9 2 .4 2 .9 2 1.6 1.6 2.5 3.5c.9 1.9 2.1 3.5 2.6 3.5.6 0 1 .6 1 1.3 0 .7.9 2.3 2 3.5 1.1 1.2 2 2.5 2 3 0 .4.8 1.7 1.8 2.8 1 1 2.8 3.5 4.2 5.4 1.3 1.9 4.2 5.7 6.4 8.4 5.4 6.4 32.9 34.6 33.8 34.6.7 0 3.2 1.8 6.2 4.5.6.6 2.7 2.2 4.6 3.5 1.9 1.3 4 2.9 4.5 3.6 1.6 1.8 10.2 7.4 11.4 7.4.6 0 1.1.4 1.1.9s.8 1.1 1.8 1.4c1.5.6 4.5 2.2 13.7 7.8 3.1 1.9 6.6 3.6 14.5 7.1 2.5 1.1 5.3 2.4 6.2 2.9 1 .5 2.5.9 3.3.9.8 0 2.4.4 3.5 1s2.9 1.5 4 2 2.9 1 3.9 1c1.1 0 2.2.4 2.5.9.3.5 2 1.1 3.8 1.4 1.8.2 5.8 1.2 8.8 2.1 3 .9 7.1 1.9 9 2.2 1.9.3 4.4.9 5.5 1.4 3.6 1.5 15.6 2.4 34 2.4 20.6-.1 33.1-1.6 48-5.9 3.3-.9 7.2-2 8.8-2.2 1.5-.3 3-.9 3.3-1.4.3-.5 1.6-.9 2.9-.9 1.3 0 2.7-.4 3-1 .3-.5 1.5-1 2.6-1 1 0 2.7-.4 3.7-.9.9-.5 3.1-1.4 4.7-2.1 1.7-.7 3.8-1.6 4.7-2.1 1-.5 2.5-.9 3.3-.9.8 0 1.5-.5 1.5-1 0-.6.8-1 1.8-1.1.9 0 3.1-.9 4.7-1.9 1.7-1 5-2.9 7.5-4.3 7.2-3.8 12.2-6.7 16.7-9.8 2.3-1.6 4.6-2.9 5.2-2.9.6 0 1.1-.3 1.1-.8 0-.4 1.7-1.8 3.7-3.2 2-1.4 4.1-3 4.7-3.5.6-.6 2.7-2.2 4.6-3.5 9.9-7 32.8-30.4 43.5-44.5 3.3-4.4 6.8-8.9 7.8-9.9.9-1.1 1.7-2.4 1.7-2.8 0-.5.9-1.8 2-3s2-2.8 2-3.5c0-.7.5-1.3 1-1.3.6 0 1-.5 1-1.2 0-.6 1-2.5 2.3-4.2 1.3-1.7 3-4.6 3.8-6.4.8-1.7 1.6-3.2 2-3.2.3 0 1.1-1.6 1.9-3.5.8-1.9 1.7-3.5 2.2-3.5.4 0 .8-.9.8-2s.5-2 1-2c.6 0 1-.6 1-1.3 0-.6 1.6-4.5 3.5-8.4 1.9-4 3.5-7.7 3.5-8.3 0-.5.4-1 .8-1s1.4-2.1 2.1-4.8c1.4-4.5 1.9-5.8 4.1-10.2.6-1.1 1-2.7 1-3.5 0-.8.4-2.3.9-3.3.5-.9 1.5-3.7 2.1-6.2.7-2.5 1.6-5.6 2-7 .4-1.4 1.3-4.5 1.9-7 .7-2.5 1.8-6.8 2.6-9.5.7-2.8 1.8-7.5 2.4-10.5.6-3 1.3-6.9 1.6-8.5 1.2-6 2.5-18.4 3.6-34 1.4-19.2 1.4-18 .1-38-1.1-15-1.6-19.4-4.2-35.5-.6-3.6-1.3-8.3-1.6-10.5-.4-2.2-1-4.5-1.5-5.1-.9-1.1-2.5-7.4-3.6-14.2-.3-1.8-.9-3.5-1.4-3.8-.5-.3-.9-1.6-.9-2.9 0-1.3-.4-2.7-1-3-.6-.3-1-1.9-1-3.5s-.4-3.2-1-3.5c-.6-.3-1-1.7-1-3.1 0-1.3-.4-2.4-1-2.4-.5 0-1-1.1-1-2.4 0-1.4-.4-2.8-1-3.1-.5-.3-1-1.7-1-3.1 0-1.3-.4-2.4-1-2.4-.5 0-1-.6-1-1.4 0-.8-.8-2.8-1.7-4.5l-1.8-3.1-216 .1c-118.8 0-216.6.3-217.2.6zM438 927.9V985h-81.2c-58 0-82.2.3-84.7 1.1-4.8 1.6-12.5 5.2-12.9 6.1-.2.5-.8.8-1.3.8-.9 0-3.8 2.1-7.5 5.7-6.6 6.4-12.4 19.2-12.4 27.4 0 4.2 1.8 11.1 3.3 12.5.4.4.7 1.4.7 2.2 0 1.3 5.9 10.1 8.5 12.7 2 2.1 11.5 8.5 12.5 8.5.6 0 1 .4 1 1 0 .5.9 1 2 1s2.3.7 2.6 1.5c.5 1.3 24.7 1.5 209.4 1.5 184.7 0 208.9-.2 209.4-1.5.3-.8 1.3-1.5 2.2-1.5 1 0 3.2-1.1 5-2.5 1.8-1.4 3.6-2.5 4.1-2.5 1.4 0 12.3-11.1 12.3-12.6 0-.8.5-1.4 1-1.4.6 0 1-.8 1-1.9 0-1 .7-2.4 1.5-3.1.8-.7 1.5-2.1 1.5-3.1s.5-2.1 1-2.4c1.3-.8 1.3-16 0-18.3-.5-.9-1.7-3.5-2.7-5.7-.9-2.2-2.5-4.9-3.5-5.9-1-1.1-1.8-2.5-1.8-3.2 0-.7-1.9-2.7-4.1-4.6-2.3-1.8-4.6-3.8-5.3-4.3-1.3-1.2-9.1-5-12.6-6.1-1.4-.5-39.4-1.1-84.4-1.4l-82-.5.3-56.9.3-56.9-2.9.7c-5 1.2-26.5 2.8-38.8 3-11.2.1-32.4-1.5-38.7-3l-2.8-.6v57.1z" />
</svg>
