<svg width="500" height="500" viewBox="0 0 500 500" fill="none" xmlns="http://www.w3.org/2000/svg">
    <path
        d="M220.14 127.338C216.46 106.508 212.4 86.735 208.158 70.9467C202.53 50.0917 190.88 43.0233 182.072 40.7667C149.683 32.5833 105.79 76.9283 100.903 82.0233L115.037 95.5967C128.058 82.0233 160.388 55.5133 177.22 59.74C179.247 60.2617 185.422 61.8317 189.253 76.055C193.098 90.325 196.792 108.255 200.218 127.34H182.62L203.143 461.015H213.915V466.762H325.96V461.002H336.725L356.962 127.34H220.14V127.338ZM199.963 212.19L195.482 139.457H202.317C206.547 164.443 210.24 190.44 213.128 212.19H199.963ZM212.478 279.767C210.043 274.855 212.055 268.912 216.968 266.473L245.858 252.125C250.758 249.672 256.725 251.698 259.175 256.597L273.535 285.523C275.958 290.437 273.925 296.367 269.055 298.802L240.125 313.177C235.252 315.585 229.283 313.593 226.853 308.68L212.478 279.767ZM274.55 277.693L262.655 253.732C261.183 250.752 258.55 248.675 255.565 247.483L256.803 231.937C257.258 226.19 262.263 221.942 267.957 222.372L268.087 222.387C268.113 222.387 268.138 222.372 268.165 222.372L301.888 225.037C307.61 225.493 311.87 230.497 311.427 236.225L308.768 269.957C308.312 275.677 303.31 279.923 297.602 279.482L297.485 279.467C297.458 279.467 297.433 279.482 297.407 279.482L274.55 277.693ZM283.897 347.685C283.91 353.157 279.48 357.613 274.003 357.628L261.962 357.678L241.66 357.743C236.187 357.758 231.71 353.327 231.692 347.84L231.6 318.365C232.832 318.73 234.107 318.938 235.445 318.938C237.518 318.938 239.498 318.483 241.35 317.558L265.718 305.478L273.835 305.452C279.322 305.438 283.778 309.86 283.792 315.353L283.897 347.685ZM285.863 420.97L259.203 439.29C254.693 442.38 248.518 441.245 245.418 436.738L227.083 410.09C223.975 405.568 225.122 399.392 229.63 396.278L256.285 377.983C256.363 377.905 256.493 377.905 256.587 377.838L256.6 383.428C256.613 391.897 263.532 398.778 271.977 398.778L282.608 398.742L288.408 407.158C291.532 411.678 290.383 417.87 285.863 420.97ZM304.352 393.202L278.877 393.293L272.025 393.322C272.025 393.322 272.01 393.322 271.998 393.322C271.242 393.322 270.553 393.047 269.835 392.888C269.273 392.76 268.675 392.772 268.153 392.552C267.607 392.313 267.19 391.912 266.707 391.6C266.12 391.222 265.468 390.922 264.988 390.44C264.7 390.153 264.57 389.775 264.323 389.462C263.777 388.772 263.203 388.107 262.852 387.285C262.355 386.1 262.068 384.797 262.068 383.43L262.043 376.42L262.005 363.155L274.033 363.103C278.137 363.09 281.983 361.488 284.888 358.58C287.78 355.65 289.37 351.793 289.357 347.7L289.343 341.095L304.185 341.055C309.685 341.028 314.142 345.447 314.142 350.947L314.247 383.288C314.272 388.73 309.84 393.188 304.352 393.202ZM232.925 212.19C230.123 190.722 226.467 164.77 222.22 139.457H344.11L339.707 212.19H232.925Z"
        fill="white" />
</svg>
