<svg width="500" height="500" viewBox="0 0 500 500" fill="none" xmlns="http://www.w3.org/2000/svg">
    <path
        d="M97.5833 435.81H154.947C155.745 440.807 159.883 444.717 165.115 444.717H295.518C300.778 444.717 304.898 440.823 305.695 435.81H363.057C372.76 435.81 380.622 427.952 380.622 418.268H80.0467C80.0467 427.952 87.8983 435.81 97.5833 435.81Z"
        fill="white" />
    <path
        d="M449.7 255.348C435.08 243.508 414.497 243.318 400.938 244.808C401.318 235.362 401.545 225.697 401.545 215.642H43.9983C43.9983 312.273 58.6183 381.997 151.158 408.013H294.378C331.025 397.74 355.328 380.442 371.45 357.467C406.558 356.783 463.05 342.958 465.175 294.462C466.087 273.235 457.257 261.462 449.7 255.348ZM386.165 329.743C392.887 312.465 396.875 293.022 399.078 271.642C408.572 270.082 424.92 269.097 433.18 275.818C434.7 277.072 439.428 280.907 438.877 293.345C437.777 318.463 406.597 326.895 386.165 329.743Z"
        fill="white"/>
    <path
        d="M189.657 202.077C189.657 202.077 257.712 197.082 226.522 139.7C201.477 93.6333 207.192 66.605 239.235 42.185C239.235 42.185 134.277 68.9217 195.485 151.653C217.94 187.702 189.657 202.077 189.657 202.077Z"
        fill="white" />
    <path
        d="M235.523 197.48C235.523 197.48 290.048 185.992 260.372 142.148C249.605 123.132 264.453 116.343 264.453 116.343C264.453 116.343 229.362 117.455 244.173 147.608C256.028 171.857 252.517 185.623 235.523 197.48Z"
        fill="white" />
</svg>
