<svg width="201" height="200" viewBox="0 0 201 200" fill="none" xmlns="http://www.w3.org/2000/svg">
<path d="M149.27 91.4298C149.529 91.7523 149.866 92.0307 150.261 92.2491C150.655 92.4674 151.1 92.6214 151.569 92.7023C152.038 92.7831 152.523 92.7893 152.995 92.7203C153.467 92.6513 153.917 92.5086 154.32 92.3004C155.134 91.8767 155.706 91.2127 155.91 90.4534C156.114 89.6941 155.934 88.9012 155.409 88.2475C155.299 88.1012 144.045 73.7847 153.588 64.0184C158.868 58.6268 159.792 51.8233 156.26 44.3615C154.645 41.0076 152.405 37.868 149.617 35.0488C149.31 34.754 148.934 34.5106 148.509 34.3326C148.084 34.1546 147.619 34.0454 147.141 34.0115C146.663 33.9775 146.182 34.0193 145.724 34.1345C145.267 34.2498 144.842 34.4362 144.475 34.683C143.733 35.1834 143.269 35.8978 143.183 36.6706C143.098 37.4435 143.398 38.212 144.017 38.8089C144.182 38.9772 156.708 51.3259 147.842 60.3972C135.069 73.4701 148.684 90.6983 149.27 91.4298V91.4298ZM173.801 91.4298C174.061 91.7523 174.397 92.0307 174.792 92.2491C175.187 92.4674 175.631 92.6214 176.1 92.7023C176.569 92.7831 177.054 92.7893 177.526 92.7203C177.998 92.6513 178.448 92.5086 178.851 92.3004C179.665 91.8767 180.237 91.2127 180.441 90.4534C180.645 89.6941 180.465 88.9012 179.94 88.2475C179.83 88.1012 168.576 73.7847 178.119 64.0184C183.399 58.6268 184.323 51.8233 180.791 44.3615C179.176 41.0077 176.936 37.8681 174.148 35.0488C173.841 34.754 173.465 34.5106 173.04 34.3326C172.615 34.1546 172.15 34.0454 171.672 34.0115C171.194 33.9775 170.713 34.0193 170.255 34.1345C169.798 34.2498 169.373 34.4362 169.006 34.683C168.263 35.1824 167.797 35.8963 167.71 36.6691C167.622 37.442 167.921 38.2111 168.539 38.8089C168.668 38.9333 181.258 51.3113 172.364 60.3972C159.591 73.4701 173.215 90.6983 173.801 91.4298V91.4298ZM20.346 92.7832C20.6059 93.1057 20.9428 93.3841 21.3374 93.6025C21.732 93.8208 22.1765 93.9748 22.6457 94.0557C23.1148 94.1365 23.5992 94.1426 24.0713 94.0737C24.5433 94.0047 24.9938 93.862 25.3968 93.6537C26.2108 93.23 26.7822 92.5661 26.9862 91.8068C27.1902 91.0475 27.0102 90.2545 26.4857 89.6009C26.3667 89.4546 15.1213 75.138 24.6648 65.3718C29.9443 59.9802 30.8593 53.1767 27.3366 45.7148C25.7206 42.3612 23.4811 39.2217 20.6937 36.4021C20.3868 36.1074 20.01 35.864 19.5851 35.686C19.1602 35.508 18.6955 35.3988 18.2176 35.3648C17.7398 35.3309 17.2583 35.3727 16.8007 35.4879C16.3432 35.6032 15.9186 35.7895 15.5514 36.0364C14.8085 36.5357 14.3426 37.2496 14.2551 38.0225C14.1677 38.7953 14.4659 39.5645 15.0847 40.1623C15.2128 40.2867 27.8032 52.6646 18.9186 61.7506C6.13605 74.8235 19.7604 92.0516 20.346 92.7832V92.7832ZM44.868 92.7832C45.1279 93.1057 45.4648 93.3841 45.8594 93.6025C46.254 93.8208 46.6986 93.9748 47.1677 94.0557C47.6368 94.1365 48.1212 94.1426 48.5933 94.0737C49.0653 94.0047 49.5158 93.862 49.9188 93.6537C50.7328 93.23 51.3042 92.5661 51.5082 91.8068C51.7122 91.0475 51.5322 90.2545 51.0077 89.6009C50.8979 89.4546 39.6433 75.138 49.1868 65.3718C54.4663 59.9802 55.3905 53.1767 51.8586 45.7148C50.2432 42.361 48.0037 39.2213 45.2157 36.4021C44.9088 36.1074 44.532 35.864 44.1071 35.686C43.6822 35.508 43.2175 35.3988 42.7396 35.3648C42.2618 35.3309 41.7803 35.3727 41.3227 35.4879C40.8652 35.6032 40.4406 35.7895 40.0734 36.0364C39.3318 36.5368 38.8676 37.2512 38.782 38.024C38.6963 38.7968 38.996 39.5654 39.6159 40.1623C39.7349 40.2867 52.3344 52.6646 43.4406 61.7506C30.658 74.8235 44.2824 92.0516 44.868 92.7832V92.7832Z" fill="black"/>
<path fill-rule="evenodd" clip-rule="evenodd" d="M175.536 153.127H181.953C184.621 153.136 187.176 154.242 189.059 156.203C190.943 158.164 192 160.82 192 163.589V167.538C192 170.307 190.943 172.964 189.059 174.925C187.176 176.886 184.621 177.992 181.953 178H19.0467C16.3794 177.992 13.824 176.886 11.9408 174.925C10.0575 172.964 8.99999 170.307 9 167.538V163.589C8.99999 160.82 10.0575 158.164 11.9408 156.203C13.824 154.242 16.3794 153.136 19.0467 153.127H25.4642C26.9719 113.797 56.5362 81.8602 93.8287 78.4857V75.2763C91.4501 73.7906 89.6056 71.5372 88.577 68.8604C87.5485 66.1837 87.3926 63.2308 88.1331 60.4534C88.8737 57.6759 90.4699 55.2267 92.6779 53.48C94.8858 51.7334 97.584 50.7855 100.36 50.7812H100.64C103.416 50.7855 106.114 51.7334 108.322 53.48C110.53 55.2267 112.126 57.6759 112.867 60.4534C113.607 63.2308 113.452 66.1837 112.423 68.8604C111.394 71.5372 109.55 73.7906 107.171 75.2763V78.4857C144.464 81.8602 174.02 113.797 175.536 153.127ZM95.6813 59.1085C94.4397 60.402 93.7434 62.1543 93.7454 63.9805C93.7424 65.3647 94.1433 66.7173 94.8953 67.8603C95.6472 69.0032 96.715 69.883 97.958 70.3835C99.1248 70.8634 99.8825 72.0197 99.8825 73.3176V78.1946H101.118V73.3176C101.117 72.6843 101.3 72.0654 101.643 71.5419C101.987 71.0184 102.474 70.6147 103.042 70.3835C104.477 69.7964 105.671 68.7084 106.417 67.3067C107.164 65.905 107.417 64.2772 107.132 62.7029C106.848 61.1287 106.044 59.7064 104.86 58.6806C103.675 57.6548 102.183 57.0895 100.64 57.0819H100.367C98.6084 57.0861 96.923 57.815 95.6813 59.1085Z" fill="black"/>
<path d="M181.953 153.127L181.955 152.627H181.953V153.127ZM175.536 153.127L175.036 153.147L175.055 153.627H175.536V153.127ZM189.059 156.203L189.42 155.856L189.42 155.856L189.059 156.203ZM192 163.589L191.5 163.589V163.589H192ZM192 167.538L191.5 167.538L191.5 167.538L192 167.538ZM189.059 174.925L188.699 174.578L188.699 174.578L189.059 174.925ZM181.953 178V178.5L181.955 178.5L181.953 178ZM19.0467 178L19.0451 178.5H19.0467V178ZM11.9408 174.925L12.3014 174.578L12.3014 174.578L11.9408 174.925ZM9 167.538L9.5 167.538V167.538H9ZM9 163.589L9.5 163.589L9.5 163.589L9 163.589ZM11.9408 156.203L11.5801 155.856L11.5801 155.856L11.9408 156.203ZM19.0467 153.127L19.0467 152.627L19.0451 152.627L19.0467 153.127ZM25.4642 153.127V153.627H25.9454L25.9638 153.146L25.4642 153.127ZM93.8287 78.4857L93.8738 78.9836L94.3287 78.9425V78.4857H93.8287ZM93.8287 75.2763H94.3287V74.999L94.0936 74.8522L93.8287 75.2763ZM88.577 68.8604L89.0438 68.6811L89.0438 68.6811L88.577 68.8604ZM88.1331 60.4534L87.65 60.3246L87.65 60.3246L88.1331 60.4534ZM92.6779 53.48L92.3677 53.0879L92.3677 53.0879L92.6779 53.48ZM100.36 50.7812L100.36 50.2812L100.359 50.2812L100.36 50.7812ZM100.64 50.7812L100.641 50.2812H100.64V50.7812ZM108.322 53.48L108.632 53.0879L108.632 53.0879L108.322 53.48ZM112.867 60.4534L112.384 60.5822L112.384 60.5822L112.867 60.4534ZM112.423 68.8604L112.89 69.0398L112.89 69.0398L112.423 68.8604ZM107.171 75.2763L106.906 74.8522L106.671 74.999V75.2763H107.171ZM107.171 78.4857H106.671V78.9425L107.126 78.9836L107.171 78.4857ZM93.7454 63.9805L94.2454 63.9816L94.2454 63.98L93.7454 63.9805ZM95.6813 59.1085L96.042 59.4548L96.042 59.4548L95.6813 59.1085ZM94.8953 67.8603L95.313 67.5855L95.313 67.5855L94.8953 67.8603ZM97.958 70.3835L98.1482 69.9211L98.1448 69.9197L97.958 70.3835ZM99.8825 78.1946H99.3825V78.6946H99.8825V78.1946ZM101.118 78.1946V78.6946H101.618V78.1946H101.118ZM101.118 73.3176H101.618L101.617 73.3169L101.118 73.3176ZM101.643 71.5419L101.225 71.2677L101.225 71.2677L101.643 71.5419ZM103.042 70.3835L103.23 70.8466L103.231 70.8463L103.042 70.3835ZM106.417 67.3067L106.859 67.5417L106.859 67.5417L106.417 67.3067ZM107.132 62.7029L107.624 62.6141L107.624 62.6141L107.132 62.7029ZM104.86 58.6806L104.532 59.0586L104.532 59.0586L104.86 58.6806ZM100.64 57.0819L100.643 56.5819H100.64V57.0819ZM100.367 57.0819L100.367 56.5819L100.366 56.5819L100.367 57.0819ZM181.953 152.627H175.536V153.627H181.953V152.627ZM189.42 155.856C187.445 153.8 184.761 152.636 181.955 152.627L181.952 153.627C184.481 153.635 186.907 154.684 188.699 156.549L189.42 155.856ZM192.5 163.589C192.5 160.694 191.394 157.912 189.42 155.856L188.699 156.549C190.491 158.415 191.5 160.946 191.5 163.589L192.5 163.589ZM192.5 167.538V163.589H191.5V167.538H192.5ZM189.42 175.271C191.394 173.215 192.5 170.434 192.5 167.538L191.5 167.538C191.5 170.181 190.491 172.712 188.699 174.578L189.42 175.271ZM181.955 178.5C184.761 178.491 187.445 177.328 189.42 175.271L188.699 174.578C186.907 176.444 184.481 177.492 181.952 177.5L181.955 178.5ZM19.0467 178.5H181.953V177.5H19.0467V178.5ZM11.5801 175.271C13.5552 177.328 16.2393 178.491 19.0451 178.5L19.0483 177.5C16.5194 177.492 14.0928 176.444 12.3014 174.578L11.5801 175.271ZM8.5 167.538C8.49999 170.434 9.60562 173.215 11.5801 175.271L12.3014 174.578C10.5094 172.712 9.49999 170.181 9.5 167.538L8.5 167.538ZM8.5 163.589V167.538H9.5V163.589H8.5ZM11.5801 155.856C9.60562 157.912 8.49999 160.694 8.5 163.589L9.5 163.589C9.49999 160.946 10.5094 158.415 12.3014 156.549L11.5801 155.856ZM19.0451 152.627C16.2393 152.636 13.5552 153.8 11.5801 155.856L12.3014 156.549C14.0928 154.684 16.5194 153.635 19.0483 153.627L19.0451 152.627ZM25.4642 152.627H19.0467V153.627H25.4642V152.627ZM93.7837 77.9877C56.2265 81.3862 26.4814 113.541 24.9645 153.108L25.9638 153.146C27.4625 114.052 56.8459 82.3342 93.8738 78.9836L93.7837 77.9877ZM93.3287 75.2763V78.4857H94.3287V75.2763H93.3287ZM88.1103 69.0398C89.1768 71.8154 91.091 74.1558 93.5638 75.7003L94.0936 74.8522C91.8093 73.4254 90.0343 71.259 89.0438 68.6811L88.1103 69.0398ZM87.65 60.3246C86.8824 63.2036 87.0438 66.2643 88.1103 69.0398L89.0438 68.6811C88.0531 66.103 87.9028 63.258 88.6163 60.5822L87.65 60.3246ZM92.3677 53.0879C90.0733 54.9029 88.4177 57.4454 87.65 60.3246L88.6163 60.5822C89.3297 57.9065 90.8666 55.5504 92.9881 53.8721L92.3677 53.0879ZM100.359 50.2812C97.4691 50.2856 94.6624 51.2726 92.3677 53.0879L92.9881 53.8721C95.1093 52.1941 97.6988 51.2853 100.361 51.2812L100.359 50.2812ZM100.64 50.2812H100.36V51.2812H100.64V50.2812ZM108.632 53.0879C106.338 51.2726 103.531 50.2856 100.641 50.2812L100.639 51.2812C103.301 51.2853 105.891 52.1941 108.012 53.8721L108.632 53.0879ZM113.35 60.3246C112.582 57.4454 110.927 54.9029 108.632 53.0879L108.012 53.8721C110.133 55.5504 111.67 57.9065 112.384 60.5822L113.35 60.3246ZM112.89 69.0398C113.956 66.2643 114.118 63.2036 113.35 60.3246L112.384 60.5822C113.097 63.258 112.947 66.103 111.956 68.6811L112.89 69.0398ZM107.436 75.7003C109.909 74.1558 111.823 71.8154 112.89 69.0398L111.956 68.6811C110.966 71.259 109.191 73.4254 106.906 74.8522L107.436 75.7003ZM107.671 78.4857V75.2763H106.671V78.4857H107.671ZM176.035 153.108C174.511 113.541 144.774 81.3862 107.216 77.9877L107.126 78.9836C144.154 82.3342 173.53 114.052 175.036 153.147L176.035 153.108ZM94.2454 63.98C94.2435 62.2804 94.8917 60.6531 96.042 59.4548L95.3206 58.7623C93.9876 60.1509 93.2432 62.0283 93.2454 63.9811L94.2454 63.98ZM95.313 67.5855C94.6155 66.5254 94.2426 65.2689 94.2454 63.9816L93.2454 63.9794C93.2422 65.4604 93.671 66.9092 94.4776 68.1351L95.313 67.5855ZM98.1448 69.9197C96.9983 69.458 96.0102 68.6453 95.313 67.5855L94.4776 68.1351C95.2842 69.3612 96.4317 70.3079 97.7712 70.8473L98.1448 69.9197ZM100.383 73.3176C100.383 71.825 99.5098 70.481 98.1482 69.9211L97.7679 70.846C98.7399 71.2457 99.3825 72.2144 99.3825 73.3176H100.383ZM100.383 78.1946V73.3176H99.3825V78.1946H100.383ZM101.118 77.6946H99.8825V78.6946H101.118V77.6946ZM100.618 73.3176V78.1946H101.618V73.3176H100.618ZM101.225 71.2677C100.827 71.8739 100.616 72.5885 100.618 73.3183L101.617 73.3169C101.617 72.78 101.772 72.2569 102.061 71.8161L101.225 71.2677ZM102.853 69.9204C102.19 70.1907 101.623 70.6613 101.225 71.2677L102.061 71.8161C102.35 71.3755 102.759 71.0387 103.23 70.8466L102.853 69.9204ZM105.976 67.0717C105.283 68.3731 104.177 69.3789 102.853 69.9208L103.231 70.8463C104.777 70.2138 106.059 69.0437 106.859 67.5417L105.976 67.0717ZM106.64 62.7918C106.905 64.2563 106.669 65.77 105.976 67.0717L106.859 67.5417C107.658 66.0401 107.928 64.298 107.624 62.6141L106.64 62.7918ZM104.532 59.0586C105.629 60.008 106.376 61.3274 106.64 62.7918L107.624 62.6141C107.32 60.93 106.46 59.4048 105.187 58.3026L104.532 59.0586ZM100.638 57.5819C102.059 57.5889 103.436 58.1096 104.532 59.0586L105.187 58.3026C103.913 57.2 102.307 56.5901 100.643 56.5819L100.638 57.5819ZM100.367 57.5819H100.64V56.5819H100.367V57.5819ZM96.042 59.4548C97.1917 58.257 98.7483 57.5858 100.369 57.5819L100.366 56.5819C98.4686 56.5864 96.6542 57.373 95.3206 58.7623L96.042 59.4548Z" fill="black"/>
</svg>
