<svg width="500" height="500" viewBox="0 0 500 500" fill="none" xmlns="http://www.w3.org/2000/svg">
    <path
        d="M424.323 235.648C417.547 218.017 410.123 198.547 398.207 183.632C389.2 172.358 372.308 162.593 357.353 164.877C357.162 164.907 355.912 165.18 353.74 165.665C354.28 169.407 354.553 173.2 354.553 177.035C354.553 187.678 352.463 198.017 348.342 207.763C344.367 217.165 338.68 225.602 331.437 232.843C324.2 240.083 315.76 245.77 306.358 249.747C296.612 253.87 286.273 255.96 275.632 255.96C264.987 255.96 254.648 253.87 244.903 249.747C235.503 245.77 227.065 240.083 219.825 232.843C212.585 225.603 206.898 217.165 202.922 207.763C201.945 205.452 201.085 203.107 200.337 200.732C138.318 214.958 80.8167 228.172 77.4583 228.955C74.4983 229.643 70.895 230.055 68.24 231.468C65.9983 232.66 64.3917 234.567 64.3917 237.953V392.76C64.3917 398.863 70.8417 404.482 78.7883 405.308L136.335 411.295L395.177 438.235C418.982 440.715 438.305 427.883 438.305 409.563C438.305 397.998 430.607 387.047 418.947 379.888C430.607 375.175 438.308 365.803 438.308 354.257C438.308 342.71 430.61 331.76 418.967 324.622C453.372 310.605 433.935 260.67 424.323 235.648ZM348.542 408.213L94.8067 381.79V356.428L348.542 382.828C372.343 385.312 391.663 392.992 391.663 399.993C391.663 406.998 372.343 410.693 348.542 408.213ZM348.542 357.663L94.8067 331.24V305.858L348.542 332.297C372.343 334.78 391.663 342.457 391.663 349.462C391.663 356.467 372.343 360.143 348.542 357.663ZM348.542 307.11L94.8067 280.71V255.328L348.542 281.73C372.343 284.21 391.663 291.908 391.663 298.912C391.663 305.938 372.343 309.593 348.542 307.11Z"
        fill="white" />
    <path
        d="M221.042 177.035C221.042 183.428 222.145 189.565 224.165 195.267C231.668 216.45 251.877 231.627 275.635 231.627C305.785 231.627 330.225 207.185 330.225 177.035C330.225 175.02 330.112 173.03 329.9 171.072C326.928 143.727 303.767 122.445 275.635 122.445C272.76 122.445 269.938 122.668 267.188 123.097C265.317 119.275 263.247 115.538 261.017 111.897C258.767 108.225 256.355 104.648 253.832 101.17C250.742 96.9067 247.48 92.7933 244.137 88.8383C237.92 81.485 231.172 74.5233 223.755 68.3683C217.26 62.98 210.353 57.7867 202.593 54.3533C198.205 52.41 193.173 53.03 190.547 57.5133C188.328 61.3 189.315 67.6167 193.705 69.56C197.348 71.1717 200.808 73.1817 204.103 75.415C205.055 76.06 206 76.7167 206.928 77.395C207.267 77.6417 208.482 78.5683 208.8 78.8033C210.208 79.9167 211.598 81.0517 212.958 82.2267C216.542 85.3233 219.988 88.5817 223.28 91.9883C226.747 95.5767 230.077 99.295 233.235 103.157C234.132 104.253 235.022 105.357 235.893 106.475C235.895 106.477 235.897 106.48 235.898 106.482C235.93 106.523 235.965 106.57 236.003 106.62C236.37 107.105 236.738 107.59 237.102 108.078C237.115 108.097 237.128 108.115 237.142 108.133C238.573 110.063 239.978 112.017 241.33 114.005C242.275 115.395 243.198 116.798 244.103 118.213C245.868 120.977 247.552 123.79 249.118 126.67C249.492 127.352 249.853 128.035 250.213 128.72C232.868 137.86 221.042 156.065 221.042 177.035Z"
        fill="white" />
</svg>
