<?xml version="1.0"?>
<svg xmlns="http://www.w3.org/2000/svg" id="Layer_1" data-name="Layer 1" viewBox="0 0 512 512" width="512" height="512">
    <title>Glass</title>
    <path fill="white"
        d="M231.79,80.243l1.6,55.757H192.877l-15.715,66h185.46l-15.715-66H247.4l-1.611-56.109a48.028,48.028,0,0,0-28.5-42.509L154.5,9.686a7,7,0,1,0-5.65,12.808l62.778,27.7A33.968,33.968,0,0,1,231.79,80.243Z" />
    <path fill="white" d="M317,489H275V337H261V489H221a7,7,0,0,0,0,14h96a7,7,0,1,0,0-14Z" />
    <path fill="white"
        d="M173.983,216a95.727,95.727,0,0,0,16.651,73.278l1.658,2.4A95.689,95.689,0,0,0,270,331.348v-.023a95.549,95.549,0,0,0,77.6-39.731l1.577-2.311A95.732,95.732,0,0,0,365.8,216Z" />
</svg>
