<?xml version="1.0" encoding="utf-8"?><!-- Generator: Adobe Illustrator 23.1.0, SVG Export Plug-In . SVG Version: 6.00 Build 0)  -->
<svg version="1.1" id="Isolation_Mode" xmlns="http://www.w3.org/2000/svg" x="0px" y="0px" viewBox="0 0 500 500"
    style="enable-background:new 0 0 500 500;" xml:space="preserve">
<ellipse style="fill:#EFEFEF;" cx="284.8" cy="448.1" rx="37.4" ry="6.4" />
    <ellipse style="fill:#EFEFEF;" cx="195.3" cy="448.6" rx="35.9" ry="6.4" />
    <g style="opacity:0.5;">
	
		<linearGradient id="SVGID_1_" gradientUnits="userSpaceOnUse" x1="102.7725" y1="400.5735" x2="133.5621"
            y2="400.5735" gradientTransform="matrix(-0.9979 -6.537633e-02 -6.537633e-02 0.9979 523.3864 7.5297)">
		<stop offset="0" style="stop-color:#FAA268" />
            <stop offset="1" style="stop-color:#E3543C" />
            <stop offset="1" style="stop-color:#B2D0EE" />
	</linearGradient>
        <path style="fill:url(#SVGID_1_);" d="M372,403.9c1.2,1.2,2.5,2.3,3.9,3.3c7.8,5.4,17.9,6.8,17.9,6.8l-0.1-3.1
		c-1.8-1.4-3-3.1-9.9-11.6l0,0c-0.6-0.7-1.2-1.4-1.8-2.2c-8.5-10.5-13-13-15.9-11C363.1,388,364.2,395.7,372,403.9z" />

        <linearGradient id="SVGID_2_" gradientUnits="userSpaceOnUse" x1="76.0247" y1="403.2778" x2="100.8408"
            y2="413.0941" gradientTransform="matrix(-0.9979 -6.537633e-02 -6.537633e-02 0.9979 523.3864 7.5297)">
		<stop offset="0" style="stop-color:#FAA268" />
            <stop offset="1" style="stop-color:#E3543C" />
            <stop offset="1" style="stop-color:#B2D0EE" />
	</linearGradient>
        <path style="fill:url(#SVGID_2_);" d="M393.8,414c0,0,0.1,0,0.3,0.1c1.3,0.2,6.4,1.1,11.8,0.8c2.2-0.1,4.4-0.4,6.5-1
		c7.9-2.3,13.6-7,12.9-9.7c-0.5-1.8-3.7-3.6-8.6-3.2c-2.4,0.2-5.3,0.9-8.5,2.5c-9.6,4.7-13.8,7.6-13.8,7.6l-0.3,1.7c0,0,0,0,0,0
		L393.8,414z" />

        <linearGradient id="SVGID_3_" gradientUnits="userSpaceOnUse" x1="118.5715" y1="382.1701" x2="109.5341"
            y2="394.1434" gradientTransform="matrix(-0.9979 -6.537633e-02 -6.537633e-02 0.9979 523.3864 7.5297)">
		<stop offset="0" style="stop-color:#FAA268" />
            <stop offset="1" style="stop-color:#E3543C" />
            <stop offset="1" style="stop-color:#B2D0EE" />
	</linearGradient>
        <path style="fill:url(#SVGID_3_);" d="M379.4,389.3c2.2,3.9,5.2,6.9,7.9,9c3.6,2.8,6.6,4.1,6.6,4.1l0.8-5.1
		c-0.7-1.7-3.6-6.5-6.5-11.9c-0.8-1.6-1.7-3.2-2.5-4.8c-3.6-7.3-8.7-6.2-9.7-4.9C375,377.1,374.2,380.1,379.4,389.3z" />

        <linearGradient id="SVGID_4_" gradientUnits="userSpaceOnUse" x1="79.7533" y1="391.4216" x2="93.4222"
            y2="396.2837" gradientTransform="matrix(-0.9979 -6.537633e-02 -6.537633e-02 0.9979 523.3864 7.5297)">
		<stop offset="0" style="stop-color:#FAA268" />
            <stop offset="1" style="stop-color:#E3543C" />
            <stop offset="1" style="stop-color:#B2D0EE" />
	</linearGradient>
        <path style="fill:url(#SVGID_4_);" d="M394,402.6c0,0,0.1,0.1,0.2,0.1c0.7,0.3,3.1,1.1,8.2,0c4.4-1,10.4-2.7,14.1-4.6
		c1.6-0.8,2.8-1.6,3.2-2.4c1.6-2.6,1.5-5.1-1-6c-1.6-0.6-4.5-0.7-7.5-0.2c-1.8,0.3-3.6,0.8-5.3,1.5c-4.3,1.8-10.1,5.7-11,6.4
		c-0.1,0.1-0.1,0.1-0.1,0.1L394,402.6z" />

        <linearGradient id="SVGID_5_" gradientUnits="userSpaceOnUse" x1="82.0131" y1="379.5393" x2="99.3033"
            y2="386.0518" gradientTransform="matrix(-0.9979 -6.537633e-02 -6.537633e-02 0.9979 523.3864 7.5297)">
		<stop offset="0" style="stop-color:#FAA268" />
            <stop offset="1" style="stop-color:#E3543C" />
            <stop offset="1" style="stop-color:#B2D0EE" />
	</linearGradient>
        <path style="fill:url(#SVGID_5_);" d="M396.9,389.3c0.1,0,0.2-0.1,0.4-0.1c2.2-0.5,5.6-0.2,6.3,0.1c0.5,0.2,3.9-0.7,6.8-1.8
		c1.3-0.5,2.5-1,3.3-1.5c2.5-1.5,5.3-3.5,5-5.7c-0.3-2-2.3-3.2-5.5-2.8c-0.3,0-0.6,0.1-0.9,0.2c-3.7,0.8-11.6,4.5-12.9,6
		c0,0,0,0-0.1,0.1l-2.3,5.3L396.9,389.3z" />

        <linearGradient id="SVGID_6_" gradientUnits="userSpaceOnUse" x1="113.4421" y1="368.775" x2="102.8001"
            y2="382.949" gradientTransform="matrix(-0.9979 -6.537633e-02 -6.537633e-02 0.9979 523.3864 7.5297)">
		<stop offset="0" style="stop-color:#FAA268" />
            <stop offset="1" style="stop-color:#E3543C" />
            <stop offset="1" style="stop-color:#B2D0EE" />
	</linearGradient>
        <path style="fill:url(#SVGID_6_);" d="M386,375.2c0.8,2.5,3,5.5,5.3,8c2.8,3.2,5.7,5.8,5.7,5.8l1.8-4.5c0,0-0.8,0.1-1.8-3.7
		c-0.4-1.5-0.8-2.9-1.3-4.2c0,0,0,0,0,0c-0.9-2.4-2-4.6-3.4-7c-2.1-3.7-4.1-4.4-5.9-4C384.7,366.1,384.2,369.5,386,375.2z" />

        <linearGradient id="SVGID_7_" gradientUnits="userSpaceOnUse" x1="85.9093" y1="370.8828" x2="94.8305"
            y2="373.6348" gradientTransform="matrix(-0.9979 -6.537633e-02 -6.537633e-02 0.9979 523.3864 7.5297)">
		<stop offset="0" style="stop-color:#FAA268" />
            <stop offset="1" style="stop-color:#E3543C" />
            <stop offset="1" style="stop-color:#B2D0EE" />
	</linearGradient>
        <path style="fill:url(#SVGID_7_);" d="M401.8,377.4c0,0,0.1,0,0.2,0c1.3-0.1,7.5-0.6,9.6-1.6c0.2-0.1,0.5-0.3,0.7-0.4
		c1.9-1.3,2.8-3.9,1.6-5.2c-1.4-1.4-4-1.3-6.6,0.4c0,0-0.1,0-0.1,0c-1.7,1.1-2.9,2.2-3.5,2.7c-0.1,0.1-0.2,0.2-0.3,0.3
		c-0.1,0.1-0.2,0.2-0.2,0.2l-0.4,1L401.8,377.4z" />

        <linearGradient id="SVGID_8_" gradientUnits="userSpaceOnUse" x1="104.2048" y1="361.5986" x2="96.9806"
            y2="372.8363" gradientTransform="matrix(-0.9979 -6.537633e-02 -6.537633e-02 0.9979 523.3864 7.5297)">
		<stop offset="0" style="stop-color:#FAA268" />
            <stop offset="1" style="stop-color:#E3543C" />
            <stop offset="1" style="stop-color:#B2D0EE" />
	</linearGradient>
        <path style="fill:url(#SVGID_8_);" d="M395.8,366.5c0.3,1.2,0.8,2.5,1.3,3.7c1.8,3.8,4.6,6.9,4.6,6.9l1.2-2.4l0.6-1.1l0.2-0.4
		c0,0-1.4-1.7-1.8-4.6c0,0,0,0,0,0c-0.5-2.9-1.1-4.9-3.3-7.5C396.4,358.4,394.6,361.2,395.8,366.5z" />

        <linearGradient id="SVGID_9_" gradientUnits="userSpaceOnUse" x1="83.5502" y1="361.179" x2="91.3708"
            y2="363.4954" gradientTransform="matrix(-0.9979 -6.537633e-02 -6.537633e-02 0.9979 523.3864 7.5297)">
		<stop offset="0" style="stop-color:#FAA268" />
            <stop offset="1" style="stop-color:#E3543C" />
            <stop offset="1" style="stop-color:#B2D0EE" />
	</linearGradient>
        <path style="fill:url(#SVGID_9_);" d="M407.3,366.2c0,0,1.3,0.5,4.1,0.2c2.8-0.4,6.2-2.5,5.5-4.6c-0.6-2-4.2-1.7-5.2-0.8
		c-1,1-4.3,4.3-4.3,4.3L407.3,366.2z" />

        <linearGradient id="SVGID_10_" gradientUnits="userSpaceOnUse" x1="98.1158" y1="354.4633" x2="92.7946"
            y2="363.4084" gradientTransform="matrix(-0.9979 -6.537633e-02 -6.537633e-02 0.9979 523.3864 7.5297)">
		<stop offset="0" style="stop-color:#FAA268" />
            <stop offset="1" style="stop-color:#E3543C" />
            <stop offset="1" style="stop-color:#B2D0EE" />
	</linearGradient>
        <path style="fill:url(#SVGID_10_);" d="M407,366c0,0-4.1-3.4-5.2-7.4c-1.1-4.1-0.1-5.4,1.3-5.1c1.4,0.3,2,1.1,2.9,4
		c0.8,2.9,1.9,6.9,1.9,6.9L407,366z" />

        <linearGradient id="SVGID_11_" gradientUnits="userSpaceOnUse" x1="92.0649" y1="346.2096" x2="88.2805"
            y2="351.8748" gradientTransform="matrix(-0.9979 -6.537633e-02 -6.537633e-02 0.9979 523.3864 7.5297)">
		<stop offset="0" style="stop-color:#FAA268" />
            <stop offset="1" style="stop-color:#E3543C" />
            <stop offset="1" style="stop-color:#B2D0EE" />
	</linearGradient>
        <path style="fill:url(#SVGID_11_);" d="M412.8,355.4c0,0-4.6-2.5-4.6-5.5c0-3,1.5-4.2,2.3-4c0.8,0.2,1.6,1,2.2,3.5s0.9,4.8,0.9,4.8
		L412.8,355.4z" />

        <linearGradient id="SVGID_12_" gradientUnits="userSpaceOnUse" x1="81.9233" y1="341.4708" x2="86.6941"
            y2="351.5627" gradientTransform="matrix(-0.9979 -6.537633e-02 -6.537633e-02 0.9979 523.3864 7.5297)">
		<stop offset="0" style="stop-color:#FAA268" />
            <stop offset="1" style="stop-color:#E3543C" />
            <stop offset="1" style="stop-color:#B2D0EE" />
	</linearGradient>
        <path style="fill:url(#SVGID_12_);" d="M413.3,354.1c-0.3-2.8,0.7-9.9,3.8-10.7c3.2-0.8,3.1,2.2,2.7,3.7c-0.4,1.5-5.5,7.7-5.5,7.7
		L413.3,354.1z" />

        <linearGradient id="SVGID_13_" gradientUnits="userSpaceOnUse" x1="76.4526" y1="352.3533" x2="86.429"
            y2="353.8211" gradientTransform="matrix(-0.9979 -6.537633e-02 -6.537633e-02 0.9979 523.3864 7.5297)">
		<stop offset="0" style="stop-color:#FAA268" />
            <stop offset="1" style="stop-color:#E3543C" />
            <stop offset="1" style="stop-color:#B2D0EE" />
	</linearGradient>
        <path style="fill:url(#SVGID_13_);" d="M413.2,355.8c0,0,4,1.5,6.3,1.3c2.3-0.2,5.2-1.5,5.1-3.1c-0.1-1.6-3.3-2.5-5-1.9
		c-1.7,0.6-5.5,2.2-5.5,2.2L413.2,355.8z" />
        <g>
		<g>
			<linearGradient id="SVGID_14_" gradientUnits="userSpaceOnUse" x1="393.2079" y1="387.1226" x2="414.9065"
                y2="387.1226">
				<stop offset="1" style="stop-color:#E3543C" />
                <stop offset="1" style="stop-color:#B2D0EE" />
			</linearGradient>
            <path style="fill:url(#SVGID_14_);" d="M413.8,353.3c-1.4,1.6-2.4,3.4-3.5,5.2c-0.7,1.2-1.3,2.3-1.9,3.5c-0.3,0.7-0.7,1.3-1,2
				c-0.2,0.5-0.7,1.1-0.7,1.6c0.1-0.2,0.1-0.4,0.2-0.5c-0.3,0.2-0.4,0.8-0.6,1.1c-0.2,0.5-0.5,0.9-0.7,1.4c-0.5,0.9-0.9,1.9-1.4,2.9
				c-0.9,2-1.8,3.9-2.7,5.9c-1.7,3.8-3.2,7.6-4.7,11.4c-1.4,3.8-2.5,7.7-3.1,11.7c-0.5,4-0.7,8-0.6,12.1c0.1,2.9,0.2,5.9,0.6,8.8
				c0.1,0.4,0.3,0.8,0.8,0.8c0.4,0,0.8-0.4,0.8-0.8c-0.4-3.4-0.6-6.8-0.6-10.2c0-5.2,0.3-10.4,1.5-15.4c0.6-2.4,1.5-4.8,2.3-7.1
				c0.9-2.4,1.8-4.8,2.8-7.1c2-4.9,4.2-9.7,6.6-14.4c0-0.1,0.1-0.2,0.2-0.3c-1.2,2,1.2-2.3,0,0c0.1-0.3,0.3-0.5,0.4-0.8
				c0.3-0.7,0.7-1.3,1-2c0.6-1.2,1.3-2.4,1.9-3.5c1-1.7,2-3.6,3.3-5.1C415.5,353.6,414.4,352.6,413.8,353.3L413.8,353.3z" />
		</g>
	</g>
</g>
    <g style="opacity:0.8;">
	
		<linearGradient id="SVGID_15_" gradientUnits="userSpaceOnUse" x1="394.7212" y1="445.2655" x2="465.9083"
            y2="363.9846" gradientTransform="matrix(0.8926 -0.4509 0.4509 0.8926 -184.4199 195.3951)">
		<stop offset="0" style="stop-color:#DD1C28" />
            <stop offset="1" style="stop-color:#FF636C" />
	</linearGradient>
        <path style="fill:url(#SVGID_15_);" d="M366.2,410.4c5.9,2,22.4,2.9,27-6.8c4.6-9.7,2.7-18.1,1.6-21.9c-1.1-3.8,0.7-7.9,3.3-9.6
		c2.7-1.6,13.7-1.8,16-8.2c2.3-6.4-0.3-10.8-5.1-16.3c-4.8-5.4-7-8.1-8.1-10.8c-1.1-2.7,3.3-9.7,4.5-11.3c2.1-2.8,0.8-10.2-4-14.5
		c-4.8-4.3-14.7-9.3-19.6-5.6c-4.9,3.6-1.5,8.6-1.7,15.1c-0.2,6.5-3,9.2-5.8,10.7c-2.8,1.4-10.7,4.1-11.1,11.1
		c-0.3,6.3,2,9.4,4.4,13.5c2.5,4.2,1.3,5.6-9.4,8.7c-10.7,3.1-14.3,16.1-14,22C345.5,406.6,366.2,410.4,366.2,410.4z" />
        <path style="opacity:0.52;fill:#1A1A1A;" d="M395.3,343.1c-2.1,1.2-4.2,2.5-6.3,3.7c0.5-1.3,0.9-2.7,1.4-4c0.3-1-1.2-1.4-1.5-0.5
		c-2.6,7.6-5.3,15.2-7.9,22.8c-0.2,0.7-0.5,1.4-0.7,2.1c-1.1-4.9-2.2-9.8-3.4-14.7c-0.2-1-1.8-0.7-1.5,0.3
		c1.3,5.7,2.6,11.5,3.9,17.2c-3.1,8.9-6.1,17.8-9.2,26.6c-2.1-3.8-4.3-7.6-6.4-11.3c-0.5-0.9-1.9-0.2-1.4,0.7
		c2.3,4.2,4.7,8.3,7,12.5c0,0,0.1,0.1,0.1,0.1c-0.3,1-0.7,2-1,3c-1,2.8-2,5.6-2.9,8.5c-0.3,1,1.2,1.4,1.5,0.5
		c2.6-7.6,5.3-15.2,7.9-22.8c0.7-2.1,1.4-4.2,2.2-6.2c3.4-1,6.7-2,10.1-3c1-0.3,0.7-1.8-0.3-1.5c-3.1,0.9-6.1,1.8-9.2,2.7
		c1.1-3.1,2.2-6.2,3.2-9.3c0,0,0-0.1,0-0.1c2.2-6.3,4.4-12.7,6.6-19c0.3-0.7,0.5-1.5,0.8-2.2c2.6-1.5,5.2-3.1,7.8-4.6
		C396.9,344,396.2,342.6,395.3,343.1z" />
</g>
    <g>
	
		<ellipse transform="matrix(0.7071 -0.7071 0.7071 0.7071 -156.9951 241.0391)" style="fill:#DDE6F0;" cx="212.5"
            cy="310" rx="112" ry="112" />
        <path style="fill:#C2D4E6;" d="M371.4,421.3h31.7c0,0-2.1-22.2-28.5-24c0,0,12.4-21.8-7.3-40.1c-19.7-18.3-38.8,4.8-38.8,4.8
		s25.7-50.6-16.1-70.3c-41.8-19.7-57.4,12.4-57.4,12.4s-8.4-62.2-59-51c-50.7,11.2-34.6,56.6-34.6,56.6s-18.5-14.2-34-5.7
		c-15.5,8.5-0.6,30.6,7.8,35.4c0,0-23.8-0.9-28.6,14.8c-4.8,15.7,4,27.6,4,27.6s-42.2,5.4-45.2,44.8L371.4,421.3z" />
        <g>
		<g>
			<g>
				<path style="fill:#C2D4E6;" d="M67,169.6h130.3c0,0-0.1-28.5-23.4-23.1c0,0,4.7-12.3-2-18.8c-6.8-6.5-20.9-5.9-23.9,2.9
					c0,0-7.8-23.1-30.3-16.2c-22.5,7-13.3,25.8-13.3,25.8s-10.8-7.6-18.6-1.6s-2.3,13.1-2.3,13.1S66.4,152.2,67,169.6z" />
                <g>
					<path style="fill:#FFFFFF;" d="M109.9,154.5c-0.7,3.4,1.5,6.7,4.9,7.4c3.4,0.7,6.7-1.5,7.4-4.9c0.7-3.4-1.5-6.7-4.9-7.4
						C113.9,148.9,110.6,151.1,109.9,154.5z" />
                    <g>
						<path style="fill:#FFFFFF;" d="M144.5,153.6c-0.7,3.4,1.5,6.7,4.9,7.4c3.4,0.7,6.7-1.5,7.4-4.9c0.7-3.4-1.5-6.7-4.9-7.4
							C148.6,148,145.2,150.2,144.5,153.6z" />
                        <path style="fill:#4271E9;" d="M140.9,149.1c0.2,2.1,1.9,3.5,3.7,3.3c1.8-0.2,3.1-2,2.8-4.1c-0.2-2.1-1.9,0.7-3.7,0.9
							C141.9,149.4,140.7,147,140.9,149.1z" />
					</g>
                    <g>
						<path style="fill:#4271E9;" d="M116.3,149.3c0.2,2.1,1.9,3.5,3.7,3.3c1.8-0.2,3.1-2,2.8-4.1c-0.2-2.1-1.9,0.7-3.7,0.9
							C117.3,149.7,116.1,147.3,116.3,149.3z" />
					</g>
                    <path style="fill:#4271E9;" d="M136,165.6c-1.4-0.1-2.8-0.2-4.2-0.1c-1.5,0.1-3.3,0.3-4,0.3c-1.2,0.1-2.6-0.1-2.6-1.6
						c0-1.4,2.3-3.2,6.2-3.2c2.3,0,8.7,1,8.7,3.2C140,165.7,137.7,165.8,136,165.6z" />
				</g>
			</g>

            <line style="fill:none;stroke:#4271E9;stroke-width:0.5374;stroke-linecap:round;stroke-miterlimit:10;"
                x1="100.3" y1="181.7" x2="105.7" y2="194.8" />

            <line style="fill:none;stroke:#4271E9;stroke-width:0.5374;stroke-linecap:round;stroke-miterlimit:10;"
                x1="135.5" y1="218.6" x2="140.9" y2="231.7" />

            <line style="fill:none;stroke:#4271E9;stroke-width:0.5374;stroke-linecap:round;stroke-miterlimit:10;"
                x1="111.2" y1="208.3" x2="116.6" y2="221.4" />

            <line style="fill:none;stroke:#4271E9;stroke-width:0.5374;stroke-linecap:round;stroke-miterlimit:10;"
                x1="182.6" y1="196.1" x2="188" y2="209.2" />

            <line style="fill:none;stroke:#4271E9;stroke-width:0.5374;stroke-linecap:round;stroke-miterlimit:10;"
                x1="140.3" y1="188.2" x2="145.7" y2="201.3" />

            <line style="fill:none;stroke:#4271E9;stroke-width:0.5374;stroke-linecap:round;stroke-miterlimit:10;"
                x1="125.1" y1="175.5" x2="130.6" y2="188.6" />

            <line style="fill:none;stroke:#4271E9;stroke-width:0.5374;stroke-linecap:round;stroke-miterlimit:10;"
                x1="159.9" y1="175.5" x2="165.3" y2="188.6" />

            <line style="fill:none;stroke:#4271E9;stroke-width:0.5374;stroke-linecap:round;stroke-miterlimit:10;"
                x1="113.6" y1="180.1" x2="125.3" y2="208.5" />

            <line style="fill:none;stroke:#4271E9;stroke-width:0.5374;stroke-linecap:round;stroke-miterlimit:10;"
                x1="161.1" y1="203.6" x2="172.8" y2="232" />
		</g>
	</g>
</g>
    <g>
	<path style="fill:#F8A700;" d="M239.3,303.9c0,0,19.4,24.3,22.6,30.5l-15.6,6.7l-16.4-16.3L239.3,303.9z" />
        <path style="fill:#F8B500;" d="M168,432.7l57.5-39c0,0,13-52.9,15.4-63.6s2.6-21.5-2.4-27.2c-4.9-5.8-8.7-7.8-8.7-7.8l-27.2-8.9
		c0,0-13-3.1-21.9,1.9c-8.9,5.1-14.2,16.1-15.9,33.7c-1.7,17.6-2.6,48.5-2.4,55c0.2,6.5,1.1,15.5,0,20.1c-1.2,4.6-2.4,16.6-1.9,21.2
		C161,422.6,164.2,431.6,168,432.7z" />
        <path style="fill:#F89000;" d="M214.8,303.7c-0.2-0.2-20.3-11.6-13.1-17.8L214.8,303.7z" />
        <path style="fill:#F89000;" d="M223.5,306.5c0,0,9.2-3.1,7.4-10.8L223.5,306.5z" />
        <g>
		<path style="fill:#F89000;" d="M210.8,281.9c0,0-4.3-1.3-7.3,1.5l6,1.6L210.8,281.9z" />
            <g>
			<g>
				<g>
					<g>
						<g>
							<path style="fill:#F8D4C4;" d="M229.9,284.8c0,0-0.1,0-0.3,0.1c-0.5,0.4-1.6,1.4-2.6,4.6c-0.3,0.9-0.6,1.9-0.8,3.1
								c-1.5,7-1.5,7-1.5,7s-1.4,4.3-7,3.1c-5.6-1.2-11.8-8-9-16.9l11.5-29.2L229.9,284.8z" />
                            <path style="fill:#F2B098;"
                                d="M229.6,284.9c-0.5,0.4-1.6,1.4-2.6,4.6c-1.8-1.5-7.9-7.2-7.5-15.2L229.6,284.9z" />
						</g>
                        <g>
							<path style="fill:#F8D4C4;" d="M258.1,268.9c-0.8,2.4-1.8,4.7-2.9,6.7c-0.9,1.7-2,3.3-3.2,4.7c-2.2,2.8-4.9,5-7.8,6.6
								c-5.5,3-11.1,1.9-15.6-0.9c-4.1-2.5-7.4-6.5-9.1-10.1c-0.1-0.2-0.2-0.4-0.3-0.6c-1.1-2.7-1.7-7.7-1.3-13.2
								c0.8-10.1,5-21.9,16.2-25c17.3-4.7,25.5,10.6,25.6,11.3c0.3,2.1,0.5,4.2,0.5,6.2C260.3,259.8,259.5,264.6,258.1,268.9z" />
                            <g>
								<g>
									<path style="fill:#39414C;" d="M236.3,257.9c0.7-0.2,1.4-0.3,2.1-0.4c0.7-0.1,1.4-0.1,2.1-0.1c1.4,0,2.8,0.4,4.2,1
										c0.8,0.3,1.1,1.3,0.8,2c-0.3,0.8-1.3,1.1-2,0.8c0,0-0.1,0-0.1-0.1l0,0c-0.9-0.5-1.9-0.8-3-1c-0.5-0.1-1.1-0.1-1.7-0.1
										c-0.6,0-1.2,0.1-1.6,0.2l-0.1,0c-0.7,0.1-1.3-0.3-1.4-1C235.3,258.7,235.7,258.1,236.3,257.9z" />
								</g>
                                <g>
									<path style="fill:#39414C;" d="M253.8,262.8c0.4,0.3,0.8,0.7,1.2,1c0.4,0.4,0.7,0.7,1.1,1.1c0.7,0.8,1.3,1.7,1.7,2.8
										c0.2,0.6-0.1,1.2-0.7,1.4c-0.5,0.2-1.1-0.1-1.4-0.6l0-0.1c-0.3-0.6-0.8-1.3-1.5-1.8c-0.3-0.3-0.6-0.6-1-0.8
										c-0.3-0.3-0.7-0.5-1-0.7c-0.7-0.4-0.9-1.3-0.5-2c0.4-0.7,1.3-0.9,2-0.5C253.7,262.7,253.7,262.7,253.8,262.8z" />
								</g>
							</g>
						</g>
					</g>
				</g>
			</g>
                <g>
				<path style="fill:#3D4652;"
                    d="M239.6,244.9c0,0,11.1,3.3,11.8,7.8l3.8-8.8l-8.6-6l-6.5,1.4L239.6,244.9z" />
                    <path style="fill:#4C5765;" d="M214.5,270.9c0,0,5.3-1.8,9-7.3c0,0-4.8-3.4-2-8.2c2.8-4.8,8.8-2.4,7,2.2c0,0,6.4-1.5,11-12.7
					c0,0,6.5-4.5,9.3-0.7c2.8,3.8,4.3,22.4,4.3,22.4s3.5-6.4,4.3-8.9c0,0,1,11,4,15.5c0,0,0.6-6.9,1.4-9.4
					c0.8-2.5,1.7-10.7-0.1-13.2c0,0,6.1,2.2,9.9,0.3c0,0-7.5-2.6-9.8-5.4c-2.2-2.8-12.9-12.7-19.5-13.3c-6.6-0.6-10.3,4.3-10.3,4.3
					s-5.7-2.1-9.6,2.2c-3.9,4.3-5.5,12.6-6.3,15.7C216.4,257.6,214.5,270.9,214.5,270.9z" />
			</g>
		</g>
            <path style="fill:#F8B500;" d="M227,289.5c0,0,2.8,0.3,3.7,3.4c0.9,3.1-0.3,11-10.6,15.4l0.9-8.7C221,299.5,226.4,293.5,227,289.5
			z" />
            <path style="fill:#F89000;" d="M221,299.5c0,0,2.2,3.8-0.9,8.7L221,299.5z" />
            <path style="fill:#F8B500;" d="M220.1,308.3c0,0,3.8-7.7-2.3-15.5c-6.1-7.8-9.8-11.5-13.5-9.8c-3.7,1.7-4.3,7.2,0,11.4
			C208.6,298.5,220.1,308.3,220.1,308.3z" />
	</g>
        <path style="fill:#48455A;" d="M198.1,447.9c0,0,16.1,0.3,32.8-18.4c16.6-18.7,35.9-51.1,35.9-51.1l8.8,69.7h34.2
		c0,0-3.2-13.2-15.5-15.4c0,0-7.9-91.6-12.9-97c-5-5.4-14.3-6.8-20.7,0L198.1,447.9z" />
        <path style="fill:#525464;" d="M168,432.7c0,0,11.9,17.1,30.1,15.3c18.2-1.8,37.9-37.3,49.5-63.2l12.6,63.3h38
		c0,0-6-12.1-20.3-14.1c0,0-9.8-84.1-12.8-93.3c-3-9.2-9.8-12.3-16.1-11.2C242.8,330.5,168,432.7,168,432.7z" />
        <g>
		<path style="fill:#F8D4C4;" d="M249.4,352.1c0,0,8.7-7.4,10.7-8.7c2-1.3,2.3-1.1,4.1,0c1.7,1.1,7,5.9,6,9.4c0,0,1.8,7.8,1.2,10
			c-0.6,2.2-1.6,3.3-1.6,3.3s-3.4-3.5-5.1-3c-1.7,0.5-6.8,3.4-13.1,0.4l-13.7,1.8V353L249.4,352.1z" />
            <path style="fill:#F8A700;" d="M213.2,352.6c0,0-15.6-56-18.9-60.1c-3.3-4.2-8.5-6.6-14.6-3.7c-6.2,2.9-14.5,11.2-11.2,22.7
			c3.3,11.4,25,54.5,29.1,58.9c4.2,4.4,53.9-5.6,53.9-5.6l-2.3-13.1L213.2,352.6z" />
	</g>
        <path style="fill:#F8D4C4;" d="M285.4,356.4c0,0-7.7,4.8-7.1,6.1c0.5,1.3,11.2-1.8,12.3-4.8c1.1-3-0.5-13.6-4.6-14.6
		c-4.1-1-10-0.7-9.7,0.4c0.3,1.2,8.4,3.3,8.4,3.3s-9.9,4-9.5,4.9c0.3,1,10,0.1,10,0.1s-11.1,5-10.6,5.9
		C275,358.8,285.4,356.4,285.4,356.4z" />
</g>
    <g>
	<linearGradient id="SVGID_16_" gradientUnits="userSpaceOnUse" x1="106.7482" y1="367.0603" x2="133.4385"
        y2="367.0603">
		<stop offset="0" style="stop-color:#563751" />
        <stop offset="1" style="stop-color:#815F74" />
	</linearGradient>
        <path style="fill:url(#SVGID_16_);" d="M133.4,405.1c-0.4,21.9-20.1,27.6-20.1,27.6s-3.5-1.6-5.7-5.5c-2.2-3.8,0.2-12.6,2.5-16.1
		c1.2-1.8,1.5-3.7,1.3-5.4c-0.1-1.6-0.7-3-1-3.7c-0.8-1.5-2.8-9.7-0.9-14.7c1.9-5,2.9-7.1,1.4-10.4c-1.3-2.9-3.1-10.7-2.3-15.5
		c0.1-0.5,0.2-1,0.3-1.4c1.5-4.5,2.6-10.1,1.1-15.4c-1.5-5.3-2.7-11.6-1-16.1c1.7-4.4,5.2-5.1,4.2-9.9c-0.9-4.8-0.5-13.7,0-14.5
		c0.5-0.8,1.9-5.9,6.7-0.5c4.8,5.3,4.7,20.6,4.3,24.2c-0.4,3.6,0.5,4.4,4.1,12.6c3.6,8.2,2.9,14.7,1.4,17.7c-1.5,3-0.7,7.4-0.7,7.4
		s6.2,9.9,3,15.6c-3.2,5.7-1.9,10.6-1,13.2C132.1,397.1,133.4,405.1,133.4,405.1z" />
        <g style="opacity:0.27;">
		<path d="M108.7,443c2.4-5.8,4.1-11.9,5.7-18c3.9-15.3,5.8-31.2,6-47c0.1-12-1-23.9-3.1-35.7c-0.2-1.2,1.6-1.6,1.9-0.4
			c5.7,31.5,3.8,64.9-6.3,95.4c-0.7,2.1-1.4,4.2-2.3,6.3C110.1,444.7,108.3,444.1,108.7,443L108.7,443z" />
	</g>
        <path style="opacity:9.000000e-02;" d="M128.2,403.9c0.4,11.2-12.4,4.5-16.7,1.9c-0.1-1.6-0.7-3-1-3.7c-0.8-1.5-2.8-9.7-0.9-14.7
		c1.9-5,2.9-7.1,1.4-10.4c-1.3-2.9-3.1-10.7-2.3-15.5h0c0,0,16.7,14.3,13.3,26.7C122,388.2,127.7,390.4,128.2,403.9z" />
</g>
    <g>
	<linearGradient id="SVGID_17_" gradientUnits="userSpaceOnUse" x1="114.5841" y1="445.3744" x2="88.5944"
        y2="368.7731">
		<stop offset="0" style="stop-color:#A068AF" />
        <stop offset="1" style="stop-color:#B6A7CE" />
	</linearGradient>
        <path style="fill:url(#SVGID_17_);" d="M121,435.1c-0.5,0.6-1.1,1.1-1.7,1.6c-4.8,4.1-6.1,4.6-6.1,4.6s-11.1,2.5-17.1-2.8
		c-6-5.4-9.8-16.3-9.8-16.3s4-2.3,5.6-2.5c1.6-0.3,1.6-0.3,1.6-0.3s-5.6-1.5-6.9-1.2c0,0-6.4-13.3-4.7-20.1c0,0,3.2-2.7,6.1-2.6
		l-6.2-2.5c0,0-0.2-5.1,0.5-13.7c0.7-8.6,3.3-17.7,3.3-17.7s8.2,3.3,15.5,11.2c7.3,7.9,15.1,17.2,16.4,20.7c1.3,3.5,1.8,6.1,1,7.7
		c-0.7,1.6-4,3.8-4,3.8l6.1-0.1c0,0,1.5,3.4,2.8,7.5c0.8,2.7,1.5,5.7,1.6,8.3C125.1,426.6,124.4,431.3,121,435.1z" />
        <g style="opacity:0.54;">
		<path style="fill:#606060;" d="M115,443.4c-6-16.7-11.6-33.5-16.8-50.5c-0.4-1.3-0.8-2.5-1.2-3.8c-0.2-0.8-1.5-0.5-1.3,0.4
			c3.7,12.2,7.6,24.4,11.8,36.5c2,6,4.1,11.9,6.2,17.8C114,444.6,115.2,444.2,115,443.4L115,443.4z" />
	</g>
        <path style="opacity:0.1;" d="M121,435.1c-3.6,3.3-7.8,4.7-10.8-1.3c-6.4-12.7,12.8-21.2,13.2-21.4c0.8,2.7,1.5,5.7,1.6,8.3
		C125.1,426.6,124.4,431.3,121,435.1z" />
</g>
    <polygon style="fill:#FD5759;"
        points="279,246.2 284.1,231 289.3,236.1 295.5,218.5 301,229.8 291.4,243.9 284.4,239.9 " />
    <polygon style="fill:#FD5759;"
        points="283.3,251.6 291.7,247.9 291.6,252.1 301.4,247.9 298.8,254.6 289.1,256 288,251.5 " />
    <polygon style="fill:#FD5759;"
        points="272.4,235.6 270.5,226.6 274.5,227.5 272.3,217.1 278.4,221 277.9,230.8 273.2,230.9 " />
</svg>
