<?xml version="1.0" encoding="utf-8"?>
<!-- Generator: Adobe Illustrator 23.1.0, SVG Export Plug-In . SVG Version: 6.00 Build 0)  -->
<svg version="1.1" id="Layer_1" xmlns="http://www.w3.org/2000/svg" xmlns:xlink="http://www.w3.org/1999/xlink" x="0px" y="0px"
	 viewBox="0 0 380 511" style="enable-background:new 0 0 380 511;" xml:space="preserve">
<g>
	<path style="fill:#FFFFFF;" d="M25,32.3C42.5,15.9,67,8.2,90.7,8c64.7,0,129.5,0,194.2,0c23.7,0.2,48.2,7.9,65.7,24.3
		c12.2,11.3,20.2,27.4,20,44.1c0,133.3,0,266.6,0,399.9c-0.1,5.1,0.8,10.5-1.8,15.1c-0.7,10.5-10.4,19.6-21.1,19.2
		c-8.2,0.1-15.1-5.3-20.8-10.6c-46.4-41.5-92.8-83-139.2-124.4c-47.6,43-95.2,86.2-142.8,129.3c-4.7,4.2-10.7,7.1-17.2,5.8
		c-6.7-1.6-14.6-2-19.1-8c-1.5-2.8-3.8-5.6-3.7-9C5,354.6,5,215.5,5,76.5C4.9,59.7,12.8,43.6,25,32.3z"/>
</g>
</svg>
