<?xml version="1.0" encoding="utf-8"?>
<!-- Generator: Adobe Illustrator 23.1.0, SVG Export Plug-In . SVG Version: 6.00 Build 0)  -->
<svg version="1.2" baseProfile="tiny" id="Isolation_Mode"
	 xmlns="http://www.w3.org/2000/svg" xmlns:xlink="http://www.w3.org/1999/xlink" x="0px" y="0px" viewBox="0 0 551 524.2"
	 xml:space="preserve">
<path fill="#FFE9E9" d="M519.3,284.5c-48.6,108.2-234,111.1-248.5,111.1C199.3,396,51,376.8,25.3,291.7
	c-14.6-48.4,11.9-113.6,46.5-122.6c38.6-10.1,82.7,51.1,97.2,39.9c13.4-10.4-24-57.9-5.4-88.2c17.8-29.1,81.8-33.5,128-13.9
	c46.1,19.5,54.8,54.6,86.1,52c30.2-2.6,33.6-36.8,63.7-39.3c35.5-2.9,74.1,38.5,85.8,80.3C537.8,237.8,525.1,271.6,519.3,284.5z"/>
<g>
	<polygon fill="#FADACB" points="200.2,512.4 4.5,316.3 200.2,120.1 396,316.3 	"/>
	<polygon fill="#F4AAAA" points="381.3,330.9 185.6,134.8 190.4,130 386.1,326.1 	"/>
	<polygon fill="#F4AAAA" points="368.1,344.1 172.4,148 177.2,143.2 373,339.3 	"/>
	<polygon fill="#F4AAAA" points="355,357.3 159.2,161.2 164,156.4 359.8,352.5 	"/>
	<polygon fill="#F4AAAA" points="341.8,370.5 146,174.4 150.9,169.6 346.6,365.7 	"/>
	<polygon fill="#F4AAAA" points="328.6,383.7 132.9,187.6 137.7,182.8 333.4,378.9 	"/>
	<polygon fill="#F4AAAA" points="315.4,396.9 119.7,200.8 124.5,196 320.3,392.1 	"/>
	<polygon fill="#F4AAAA" points="302.3,410.1 106.5,214 111.3,209.2 307.1,405.3 	"/>
	<polygon fill="#F4AAAA" points="289.1,423.3 93.3,227.2 98.2,222.4 293.9,418.5 	"/>
	<polygon fill="#F4AAAA" points="275.9,436.5 80.2,240.4 85,235.6 280.7,431.7 	"/>
	<polygon fill="#F4AAAA" points="262.7,449.7 67,253.6 71.8,248.8 267.6,444.9 	"/>
	<polygon fill="#F4AAAA" points="249.6,462.9 53.8,266.8 58.6,262 254.4,458.1 	"/>
	<polygon fill="#F4AAAA" points="236.4,476.1 40.6,280 45.5,275.2 241.2,471.3 	"/>
	<polygon fill="#F4AAAA" points="223.2,489.3 27.5,293.2 32.3,288.4 228.1,484.5 	"/>
	<polygon fill="#F4AAAA" points="210.1,502.5 14.3,306.4 19.1,301.6 214.9,497.7 	"/>
	<polygon fill="#F4AAAA" points="185.6,497.7 381.3,301.6 386.1,306.4 190.4,502.5 	"/>
	<polygon fill="#F4AAAA" points="172.4,484.5 368.1,288.4 373,293.2 177.2,489.3 	"/>
	<polygon fill="#F4AAAA" points="159.2,471.3 355,275.2 359.8,280 164,476.1 	"/>
	<polygon fill="#F4AAAA" points="146,458.1 341.8,262 346.6,266.8 150.9,462.9 	"/>
	<polygon fill="#F4AAAA" points="132.9,444.9 328.6,248.8 333.4,253.6 137.7,449.7 	"/>
	<polygon fill="#F4AAAA" points="119.7,431.7 315.4,235.6 320.3,240.4 124.5,436.5 	"/>
	<polygon fill="#F4AAAA" points="106.5,418.5 302.3,222.4 307.1,227.2 111.3,423.3 	"/>
	<polygon fill="#F4AAAA" points="93.3,405.3 289.1,209.2 293.9,214 98.2,410.1 	"/>
	<polygon fill="#F4AAAA" points="80.2,392.1 275.9,196 280.7,200.8 85,396.9 	"/>
	<polygon fill="#F4AAAA" points="67,378.9 262.7,182.8 267.6,187.6 71.8,383.7 	"/>
	<polygon fill="#F4AAAA" points="53.8,365.7 249.6,169.6 254.4,174.4 58.6,370.5 	"/>
	<polygon fill="#F4AAAA" points="40.6,352.5 236.4,156.4 241.2,161.2 45.5,357.3 	"/>
	<polygon fill="#F4AAAA" points="27.5,339.3 223.2,143.2 228.1,148 32.3,344.1 	"/>
	<polygon fill="#F4AAAA" points="14.3,326.1 210.1,130 214.9,134.8 19.1,330.9 	"/>
	<g>
		<g>
			<g>
				<line fill="none" stroke="#FFD5D0" stroke-miterlimit="10" x1="205.9" y1="125.4" x2="10.1" y2="321.6"/>
			</g>
			<g>
				<line fill="none" stroke="#FFD5D0" stroke-miterlimit="10" x1="219.1" y1="138.6" x2="23.3" y2="334.8"/>
			</g>
			<g>
				<line fill="none" stroke="#FFD5D0" stroke-miterlimit="10" x1="232.2" y1="151.8" x2="36.5" y2="348"/>
			</g>
			<g>
				<line fill="none" stroke="#FFD5D0" stroke-miterlimit="10" x1="245.4" y1="165" x2="49.6" y2="361.2"/>
			</g>
			<g>
				<line fill="none" stroke="#FFD5D0" stroke-miterlimit="10" x1="258.6" y1="178.2" x2="62.8" y2="374.4"/>
			</g>
			<g>
				<line fill="none" stroke="#FFD5D0" stroke-miterlimit="10" x1="271.7" y1="191.4" x2="76" y2="387.6"/>
			</g>
			<g>
				<line fill="none" stroke="#FFD5D0" stroke-miterlimit="10" x1="284.9" y1="204.6" x2="89.2" y2="400.8"/>
			</g>
			<g>
				<line fill="none" stroke="#FFD5D0" stroke-miterlimit="10" x1="298.1" y1="217.8" x2="102.3" y2="414"/>
			</g>
			<g>
				<line fill="none" stroke="#FFD5D0" stroke-miterlimit="10" x1="311.3" y1="231" x2="115.5" y2="427.2"/>
			</g>
			<g>
				<line fill="none" stroke="#FFD5D0" stroke-miterlimit="10" x1="324.4" y1="244.2" x2="128.7" y2="440.4"/>
			</g>
			<g>
				<line fill="none" stroke="#FFD5D0" stroke-miterlimit="10" x1="337.6" y1="257.4" x2="141.9" y2="453.6"/>
			</g>
			<g>
				<line fill="none" stroke="#FFD5D0" stroke-miterlimit="10" x1="350.8" y1="270.6" x2="155" y2="466.8"/>
			</g>
			<g>
				<line fill="none" stroke="#FFD5D0" stroke-miterlimit="10" x1="364" y1="283.8" x2="168.2" y2="480"/>
			</g>
			<g>
				<line fill="none" stroke="#FFD5D0" stroke-miterlimit="10" x1="377.1" y1="297" x2="181.4" y2="493.2"/>
			</g>
			<g>
				<line fill="none" stroke="#FFD5D0" stroke-miterlimit="10" x1="390.3" y1="310.2" x2="194.6" y2="506.4"/>
			</g>
		</g>
		<g>
			<g>
				<line fill="none" stroke="#FFD5D0" stroke-miterlimit="10" x1="390.3" y1="321.6" x2="194.6" y2="125.4"/>
			</g>
			<g>
				<line fill="none" stroke="#FFD5D0" stroke-miterlimit="10" x1="377.1" y1="334.8" x2="181.4" y2="138.6"/>
			</g>
			<g>
				<line fill="none" stroke="#FFD5D0" stroke-miterlimit="10" x1="364" y1="348" x2="168.2" y2="151.8"/>
			</g>
			<g>
				<line fill="none" stroke="#FFD5D0" stroke-miterlimit="10" x1="350.8" y1="361.2" x2="155" y2="165"/>
			</g>
			<g>
				<line fill="none" stroke="#FFD5D0" stroke-miterlimit="10" x1="337.6" y1="374.4" x2="141.9" y2="178.2"/>
			</g>
			<g>
				<line fill="none" stroke="#FFD5D0" stroke-miterlimit="10" x1="324.4" y1="387.6" x2="128.7" y2="191.4"/>
			</g>
			<g>
				<line fill="none" stroke="#FFD5D0" stroke-miterlimit="10" x1="311.3" y1="400.8" x2="115.5" y2="204.6"/>
			</g>
			<g>
				<line fill="none" stroke="#FFD5D0" stroke-miterlimit="10" x1="298.1" y1="414" x2="102.3" y2="217.8"/>
			</g>
			<g>
				<line fill="none" stroke="#FFD5D0" stroke-miterlimit="10" x1="284.9" y1="427.2" x2="89.2" y2="231"/>
			</g>
			<g>
				<line fill="none" stroke="#FFD5D0" stroke-miterlimit="10" x1="271.7" y1="440.4" x2="76" y2="244.2"/>
			</g>
			<g>
				<line fill="none" stroke="#FFD5D0" stroke-miterlimit="10" x1="258.6" y1="453.6" x2="62.8" y2="257.4"/>
			</g>
			<g>
				<line fill="none" stroke="#FFD5D0" stroke-miterlimit="10" x1="245.4" y1="466.8" x2="49.6" y2="270.6"/>
			</g>
			<g>
				<line fill="none" stroke="#FFD5D0" stroke-miterlimit="10" x1="232.2" y1="480" x2="36.5" y2="283.8"/>
			</g>
			<g>
				<line fill="none" stroke="#FFD5D0" stroke-miterlimit="10" x1="219.1" y1="493.2" x2="23.3" y2="297"/>
			</g>
			<g>
				<line fill="none" stroke="#FFD5D0" stroke-miterlimit="10" x1="205.9" y1="506.4" x2="10.1" y2="310.2"/>
			</g>
		</g>
	</g>
</g>
<circle fill="#FFFFFF" cx="210.7" cy="324.8" r="110.2"/>
<circle fill="#E8E8E8" cx="210.7" cy="324.8" r="104.2"/>
<g>
	<g>
		<g>
			<path fill="#EAA183" d="M179.8,340.7c-8-5.3-10.3-16.2-5-24.2l29.3-44.5c-2.9-8.2-2.5-15.4,1.1-21c9.8-14.9,39.7-11.9,68.1,6.8
				c28.4,18.7,43,45,33.2,59.9c-3.6,5.5-10.1,8.7-18.8,9.3l-29.3,44.5c-5.3,8-16.2,10.3-24.2,5L179.8,340.7z"/>
			<path fill="#FFF8E1" d="M303.8,316c8.7-13.1-5.8-37.9-32.3-55.4c-26.5-17.4-55-20.9-63.6-7.8c-3.4,5.1-3.2,12-0.2,19.6
				l-30.2,45.9c-4.3,6.6-2.5,15.4,4.1,19.7l54.5,35.9c6.6,4.3,15.4,2.5,19.7-4.1l30.2-45.9C294,323.7,300.4,321.1,303.8,316z"/>
		</g>
		<g>
			<path fill="#FDD835" d="M248.7,339.1c3.9-6,12-7.6,18-3.7l20.3-30.8c-5.6-3.7-7.2-11.3-3.5-16.9l-51.7-34l-6.9,10.4
				c0.5,0.1,1,0.3,1.4,0.6c2.3,1.5,2.9,4.6,1.4,6.9s-4.6,2.9-6.9,1.4c-0.4-0.3-0.8-0.7-1.1-1.1l-24.9,37.8c1.4,0.9,1.8,2.8,0.9,4.2
				c-0.9,1.4-2.8,1.8-4.2,0.9l-4,6.1l61.9,40.7l3.1-4.7C246.4,353.1,244.7,345.1,248.7,339.1z M271.5,311.4c0.9,0.6,1.1,1.8,0.6,2.7
				c-0.6,0.9-1.8,1.1-2.7,0.6c-0.9-0.6-1.1-1.8-0.6-2.7C269.4,311,270.6,310.8,271.5,311.4z M237.2,264.3c0.9,0.6,1.1,1.8,0.6,2.7
				c-0.6,0.9-1.8,1.1-2.7,0.6c-0.9-0.6-1.1-1.8-0.6-2.7C235.1,263.9,236.3,263.7,237.2,264.3z M208.1,301.5
				c-0.9-0.6-1.1-1.8-0.6-2.7c0.6-0.9,1.8-1.1,2.7-0.6c0.9,0.6,1.1,1.8,0.6,2.7C210.2,301.8,209,302.1,208.1,301.5z M203.4,322.7
				c-2.3-1.5-2.9-4.6-1.4-6.9s4.6-2.9,6.9-1.4c2.3,1.5,2.9,4.6,1.4,6.9C208.9,323.6,205.8,324.3,203.4,322.7z M221.8,299.1
				c-3.8-2.5-4.9-7.6-2.4-11.4s7.6-4.9,11.4-2.4c3.8,2.5,4.9,7.6,2.4,11.4C230.7,300.6,225.6,301.6,221.8,299.1z M241.4,284.3
				c-0.9-0.6-1.1-1.8-0.6-2.7c0.6-0.9,1.8-1.1,2.7-0.6c0.9,0.6,1.1,1.8,0.6,2.7C243.5,284.6,242.3,284.9,241.4,284.3z M219.9,333.5
				c-1.4-0.9-1.8-2.8-0.9-4.2s2.8-1.8,4.2-0.9s1.8,2.8,0.9,4.2C223.2,334.1,221.3,334.5,219.9,333.5z M231,320.2
				c-2.3-1.5-2.9-4.6-1.4-6.9s4.6-2.9,6.9-1.4c2.3,1.5,2.9,4.6,1.4,6.9S233.3,321.7,231,320.2z M237.4,336.1
				c-1.4-0.9-1.8-2.8-0.9-4.2c0.9-1.4,2.8-1.8,4.2-0.9s1.8,2.8,0.9,4.2C240.7,336.6,238.9,337,237.4,336.1z M252.4,307.7
				c-6-3.9-7.6-12-3.7-18c3.9-6,12-7.6,18-3.7s7.6,12,3.7,18C266.5,310,258.4,311.7,252.4,307.7z M258.7,319.7
				c0.9-1.4,2.8-1.8,4.2-0.9c1.4,0.9,1.8,2.8,0.9,4.2c-0.9,1.4-2.8,1.8-4.2,0.9C258.2,323,257.8,321.1,258.7,319.7z"/>
			<path fill="#FFEE58" d="M249.6,337.7c3.9-6,12-7.6,18-3.7l20.3-30.8c-5.6-3.7-7.2-11.3-3.5-16.9l-51.7-34l-6.9,10.4
				c0.5,0.1,1,0.3,1.4,0.6c2.3,1.5,2.9,4.6,1.4,6.9s-4.6,2.9-6.9,1.4c-0.4-0.3-0.8-0.7-1.1-1.1l-24.9,37.8c1.4,0.9,1.8,2.8,0.9,4.2
				c-0.9,1.4-2.8,1.8-4.2,0.9l-4,6.1l61.9,40.7l3.1-4.7C247.3,351.7,245.6,343.7,249.6,337.7z M272.4,310c0.9,0.6,1.1,1.8,0.6,2.7
				c-0.6,0.9-1.8,1.1-2.7,0.6c-0.9-0.6-1.1-1.8-0.6-2.7C270.3,309.7,271.5,309.4,272.4,310z M238.1,262.9c0.9,0.6,1.1,1.8,0.6,2.7
				c-0.6,0.9-1.8,1.1-2.7,0.6c-0.9-0.6-1.1-1.8-0.6-2.7C236,262.6,237.2,262.3,238.1,262.9z M209,300.1c-0.9-0.6-1.1-1.8-0.6-2.7
				c0.6-0.9,1.8-1.1,2.7-0.6c0.9,0.6,1.1,1.8,0.6,2.7C211.1,300.4,209.9,300.7,209,300.1z M204.3,321.4c-2.3-1.5-2.9-4.6-1.4-6.9
				s4.6-2.9,6.9-1.4c2.3,1.5,2.9,4.6,1.4,6.9S206.7,322.9,204.3,321.4z M222.7,297.8c-3.8-2.5-4.9-7.6-2.4-11.4s7.6-4.9,11.4-2.4
				c3.8,2.5,4.9,7.6,2.4,11.4S226.5,300.3,222.7,297.8z M242.3,282.9c-0.9-0.6-1.1-1.8-0.6-2.7c0.6-0.9,1.8-1.1,2.7-0.6
				c0.9,0.6,1.1,1.8,0.6,2.7C244.4,283.3,243.2,283.5,242.3,282.9z M220.7,332.2c-1.4-0.9-1.8-2.8-0.9-4.2c0.9-1.4,2.8-1.8,4.2-0.9
				s1.8,2.8,0.9,4.2C224.1,332.7,222.2,333.1,220.7,332.2z M231.9,318.8c-2.3-1.5-2.9-4.6-1.4-6.9s4.6-2.9,6.9-1.4
				c2.3,1.5,2.9,4.6,1.4,6.9C237.3,319.7,234.2,320.3,231.9,318.8z M238.3,334.7c-1.4-0.9-1.8-2.8-0.9-4.2c0.9-1.4,2.8-1.8,4.2-0.9
				s1.8,2.8,0.9,4.2C241.6,335.2,239.7,335.6,238.3,334.7z M253.3,306.4c-6-3.9-7.6-12-3.7-18c3.9-6,12-7.6,18-3.7s7.6,12,3.7,18
				C267.4,308.7,259.3,310.3,253.3,306.4z M259.6,318.3c0.9-1.4,2.8-1.8,4.2-0.9c1.4,0.9,1.8,2.8,0.9,4.2c-0.9,1.4-2.8,1.8-4.2,0.9
				C259.1,321.6,258.7,319.7,259.6,318.3z"/>
		</g>
	</g>
	<g>
		<path fill="#EF5350" d="M248,403.5c3.9-2.4,5.1-7.6,2.6-11.4l-22.1-35.3c-2.4-3.9-7.6-5.1-11.4-2.6c-3.9,2.4-5.1,7.6-2.6,11.4
			l22.1,35.3C239,404.7,244.1,405.9,248,403.5z"/>
		<path fill="#FFCA28" d="M219.6,358.1c0.4-0.3,1-0.4,1.5-0.2c2.2,0.5,4,1.8,5.2,3.7c1.2,1.9,1.5,4.1,1,6.3
			c-0.3,1.1-0.1,2.3,0.5,3.3s1.6,1.7,2.7,1.9c4.5,1,7.3,5.5,6.2,10c-0.3,1.1-0.1,2.3,0.5,3.3s1.6,1.7,2.7,1.9c2.2,0.5,4,1.8,5.2,3.7
			c1.2,1.9,1.5,4.1,1,6.3c-0.2,1.1-1.3,1.7-2.4,1.5c-1.1-0.2-1.7-1.3-1.5-2.4c0.3-1.1,0.1-2.3-0.5-3.3s-1.6-1.7-2.7-1.9
			c-4.5-1-7.3-5.5-6.2-10c0.5-2.3-0.9-4.7-3.3-5.2c-2.2-0.5-4-1.8-5.2-3.7c-1.2-1.9-1.5-4.1-1-6.3c0.3-1.1,0.1-2.3-0.5-3.3
			s-1.6-1.7-2.7-1.9c-1.1-0.2-1.7-1.3-1.5-2.4C218.9,358.8,219.2,358.4,219.6,358.1z"/>
		<path fill="#FFE082" d="M220.3,359.1c2,0.5,3.6,1.6,4.7,3.3c1.1,1.7,1.4,3.7,0.9,5.7c-0.3,1.3-0.1,2.7,0.6,3.9
			c0.7,1.2,1.9,2,3.2,2.3c2,0.5,3.6,1.6,4.7,3.3c1.1,1.7,1.4,3.7,1,5.7c-0.3,1.3-0.1,2.7,0.6,3.9c0.7,1.2,1.9,2,3.2,2.3
			c2,0.5,3.6,1.6,4.7,3.3c1.1,1.7,1.4,3.7,0.9,5.7c0,0.2-0.1,0.3-0.2,0.5c0.1,0,0.3-0.1,0.4-0.1c0.3-0.2,0.5-0.4,0.5-0.7
			c0.5-2,0.1-4-0.9-5.7c-1.1-1.7-2.7-2.9-4.7-3.3c-1.3-0.3-2.5-1.1-3.2-2.3c-0.7-1.2-1-2.5-0.6-3.9c0.5-2,0.1-4-1-5.7
			s-2.7-2.9-4.7-3.3c-1.3-0.3-2.5-1.1-3.2-2.3c-0.7-1.2-1-2.5-0.6-3.9c0.5-2,0.1-4-0.9-5.7c-1.1-1.7-2.7-2.9-4.7-3.3
			c-0.3-0.1-0.6,0-0.9,0.1c-0.1,0.1-0.2,0.2-0.3,0.3C219.9,359,220.1,359,220.3,359.1z"/>
	</g>
	<g>
		<path fill="#EF5350" d="M261.2,413.3c4.6-0.5,7.9-4.5,7.4-9.1l-4.2-41.4c-0.5-4.6-4.5-7.9-9.1-7.4s-7.9,4.5-7.4,9.1l4.2,41.4
			C252.6,410.4,256.6,413.7,261.2,413.3z"/>
		<path fill="#FFCA28" d="M255.9,360.1c0.5-0.1,1,0.1,1.4,0.4c1.7,1.4,2.8,3.4,3,5.6s-0.4,4.4-1.8,6.1c-0.7,0.9-1.1,2-1,3.2
			s0.7,2.2,1.6,2.9c3.5,2.9,4.1,8.1,1.2,11.7c-0.7,0.9-1.1,2-1,3.2s0.7,2.2,1.6,2.9c1.7,1.4,2.8,3.4,3,5.6s-0.4,4.4-1.8,6.1
			c-0.7,0.8-1.9,1-2.8,0.3c-0.8-0.7-1-1.9-0.3-2.8s1.1-2,1-3.2s-0.7-2.2-1.6-2.9c-3.5-2.9-4.1-8.1-1.2-11.7c1.5-1.9,1.2-4.6-0.6-6.1
			c-1.7-1.4-2.8-3.4-3-5.6s0.4-4.4,1.8-6.1c0.7-0.9,1.1-2,1-3.2s-0.7-2.2-1.6-2.9c-0.8-0.7-1-1.9-0.3-2.8
			C254.9,360.4,255.4,360.1,255.9,360.1z"/>
		<path fill="#FFE082" d="M256,361.2c1.6,1.3,2.5,3.1,2.7,5.1s-0.4,4-1.7,5.5c-0.9,1.1-1.3,2.4-1.1,3.8c0.1,1.4,0.8,2.6,1.9,3.5
			c1.6,1.3,2.5,3.1,2.7,5.1s-0.4,4-1.7,5.5c-0.9,1.1-1.3,2.4-1.1,3.8c0.1,1.4,0.8,2.6,1.9,3.5c1.6,1.3,2.5,3.1,2.7,5.1
			s-0.4,4-1.7,5.5c-0.1,0.1-0.3,0.2-0.4,0.3c0.1,0,0.3,0,0.4,0c0.3,0,0.6-0.2,0.8-0.4c1.3-1.6,1.9-3.5,1.7-5.5
			c-0.2-2-1.2-3.8-2.7-5.1c-1.1-0.9-1.7-2.1-1.9-3.5c-0.1-1.4,0.3-2.7,1.1-3.8c1.3-1.6,1.9-3.5,1.7-5.5c-0.2-2-1.2-3.8-2.7-5.1
			c-1.1-0.9-1.7-2.1-1.9-3.5c-0.1-1.4,0.3-2.7,1.1-3.8c1.3-1.6,1.9-3.5,1.7-5.5c-0.2-2-1.2-3.8-2.7-5.1c-0.2-0.2-0.6-0.3-0.9-0.3
			c-0.1,0-0.3,0.1-0.4,0.1C255.7,361,255.9,361.1,256,361.2z"/>
	</g>
	<g>
		<ellipse fill="#FAFBFB" cx="184.5" cy="321.3" rx="40.6" ry="40.6"/>
		<ellipse fill="#FDD835" cx="184.5" cy="321.3" rx="15.4" ry="15.4"/>
		<path fill="#FAFBFB" d="M194.3,314.5c1,2.8,1.3,5.8,0.7,8.9s-2.1,5.8-4.1,8c-0.3,0.3,0.1,0.8,0.5,0.6c2.8-1.8,4.8-4.7,5.5-8.2
			s-0.1-6.9-2-9.7C194.7,313.8,194.2,314.1,194.3,314.5z"/>
		<path fill="#FAFBFB" d="M176.5,313.2c-1.7-0.3-3.7,2.2-4.4,5.8c-0.7,3.5,0.1,6.7,1.9,7.1c1.7,0.3,3.7-2.2,4.4-5.8
			C179.1,316.7,178.3,313.5,176.5,313.2z"/>
		<path fill="#FBC02D" d="M188.2,305.9c-4.4-0.9-8.7,0.2-12.1,2.5c3.2-2.1,7.3-3,11.4-2.2c8.3,1.7,13.8,9.8,12.1,18.1
			c-1.7,8.3-9.8,13.8-18.1,12.1c-4.1-0.8-7.5-3.2-9.7-6.4c2.2,3.5,5.8,6.1,10.2,6.9c8.6,1.7,16.9-3.9,18.7-12.5
			C202.4,316,196.8,307.6,188.2,305.9z"/>
		<path fill="#F5F5F5" d="M205.8,286.8c3.3,2.7,6.3,5.9,8.8,9.6c13.2,19.7,7.9,46.4-11.8,59.5c-3.7,2.5-7.7,4.3-11.8,5.5
			c5.6-0.9,11.1-3,16.1-6.3c18.7-12.5,23.7-37.7,11.2-56.3C214.9,293.8,210.6,289.8,205.8,286.8z"/>
	</g>
	<g>
		<path fill="#FF8A65" d="M209.2,384.9c-4.4-11.2-18.9-12.1-23.3-23.3l0.9-0.9c1.2-1.2,3.1-1,4.1,0.4c5.6,8.5,17.8,10.2,21.8,20.3
			c4.1,10.5,17.3,12,22.4,21.4c0.6,1,0.4,2.3-0.4,3.1l-2.1,2.1C228.2,397.1,213.6,396.1,209.2,384.9z"/>
		<path fill="#FFAB91" d="M205.8,388.3c-4.4-11.2-18.9-12.1-23.3-23.3c1.1-1.1,2.3-2.3,3.4-3.4c4.4,11.2,18.9,12.1,23.3,23.3
			c4.4,11.2,18.9,12.1,23.3,23.3c-1.1,1.1-2.3,2.3-3.4,3.4C224.8,400.5,210.2,399.5,205.8,388.3z"/>
		<path fill="#FFAB91" d="M202.4,391.7c-4.4-11.2-18.9-12.1-23.3-23.3c1.1-1.1,2.3-2.3,3.4-3.4c4.4,11.2,18.9,12.1,23.3,23.3
			c4.4,11.2,18.9,12.1,23.3,23.3c-1.1,1.1-2.3,2.3-3.4,3.4C221.3,403.9,206.8,402.9,202.4,391.7z"/>
		<path fill="#FF8A65" d="M199,395.1c-4.4-11.2-18.9-12.1-23.3-23.3c1.1-1.1,2.3-2.3,3.4-3.4c4.4,11.2,18.9,12.1,23.3,23.3
			c4.4,11.2,18.9,12.1,23.3,23.3c-1.1,1.1-2.3,2.3-3.4,3.4C217.9,407.3,203.4,406.3,199,395.1z"/>
		<path fill="#FF7043" d="M195.6,398.5c-4.1-10.5-17.3-12-22.4-21.4c-0.6-1-0.4-2.3,0.4-3.1l2.1-2.1c4.4,11.2,18.9,12.1,23.3,23.3
			c4.4,11.2,18.9,12.1,23.3,23.3l-0.9,0.9c-1.2,1.2-3.1,1-4.1-0.4C211.8,410.4,199.6,408.6,195.6,398.5z"/>
	</g>
	<g>
		<path fill="#FF8A65" d="M177.6,374.6c-4.4-11.2-18.9-12.1-23.3-23.3l0.9-0.9c1.2-1.2,3.1-1,4.1,0.4c5.6,8.5,17.8,10.2,21.8,20.3
			c4.1,10.5,17.3,12,22.4,21.4c0.6,1,0.4,2.3-0.4,3.1l-2.1,2.1C196.6,386.7,182,385.8,177.6,374.6z"/>
		<path fill="#FFAB91" d="M174.2,378c-4.4-11.2-18.9-12.1-23.3-23.3c1.1-1.1,2.3-2.3,3.4-3.4c4.4,11.2,18.9,12.1,23.3,23.3
			c4.4,11.2,18.9,12.1,23.3,23.3c-1.1,1.1-2.3,2.3-3.4,3.4C193.2,390.1,178.6,389.2,174.2,378z"/>
		<path fill="#FFAB91" d="M170.8,381.4c-4.4-11.2-18.9-12.1-23.3-23.3c1.1-1.1,2.3-2.3,3.4-3.4c4.4,11.2,18.9,12.1,23.3,23.3
			c4.4,11.2,18.9,12.1,23.3,23.3c-1.1,1.1-2.3,2.3-3.4,3.4C189.8,393.5,175.2,392.6,170.8,381.4z"/>
		<path fill="#FF8A65" d="M167.4,384.8c-4.4-11.2-18.9-12.1-23.3-23.3c1.1-1.1,2.3-2.3,3.4-3.4c4.4,11.2,18.9,12.1,23.3,23.3
			c4.4,11.2,18.9,12.1,23.3,23.3c-1.1,1.1-2.3,2.3-3.4,3.4C186.4,396.9,171.8,396,167.4,384.8z"/>
		<path fill="#FF7043" d="M164,388.2c-4.1-10.5-17.3-12-22.4-21.4c-0.6-1-0.4-2.3,0.4-3.1l2.1-2.1c4.4,11.2,18.9,12.1,23.3,23.3
			c4.4,11.2,18.9,12.1,23.3,23.3l-0.9,0.9c-1.2,1.2-3.1,1-4.1-0.4C180.2,400,168,398.3,164,388.2z"/>
	</g>
</g>
<g>
	<path fill="#8D6E63" d="M316.9,106.5c-15.9-28-51.4-37.8-79.4-22c-28,15.9-37.8,51.4-22,79.4c15.9,28,51.4,37.8,79.4,22
		C322.9,170,332.7,134.5,316.9,106.5z"/>
	<g>
		<path fill="#EEEEEE" d="M248.4,160c-3.7-2.6-8.8-1.8-11.4,1.9l-11.8,16.4c-2.6,3.7-1.8,8.8,1.9,11.4c3.7,2.6,8.8,1.8,11.4-1.9
			l11.8-16.4C252.9,167.7,252.1,162.6,248.4,160z"/>
		<g>
			<g>
				<path fill="#EEEEEE" d="M267.5,86.4c-26.9-0.7-49.4,20.5-50.1,47.4c-0.7,26.9,20.5,49.4,47.4,50.1c26.9,0.7,49.4-20.5,50.1-47.4
					C315.7,109.6,294.4,87.2,267.5,86.4z"/>
				
					<ellipse transform="matrix(0.3586 -0.9335 0.9335 0.3586 44.5673 335.1789)" fill="#6D4C41" cx="266.2" cy="135.2" rx="40.6" ry="40.6"/>
				<path fill="#5D4037" d="M231,141.9c0.7-23.6,20.3-42.1,43.9-41.5c6.8,0.2,13.2,2,18.9,5c-7-6.5-16.2-10.5-26.5-10.8
					c-22.4-0.6-41.1,17-41.7,39.4c-0.3,10.2,3.3,19.7,9.3,27C232.2,155.3,230.8,148.8,231,141.9z"/>
				<path fill="#FFE0B2" d="M279.2,132.6c0,1.6-1.4,2.9-3,2.9s-2.9-1.4-2.9-3s1.4-2.9,3-2.9C278,129.6,279.3,131,279.2,132.6z"/>
				<path fill="#FFE0B2" d="M289.4,139.5c0,1.6-1.4,2.9-3,2.9s-2.9-1.4-2.9-3s1.4-2.9,3-2.9S289.4,137.8,289.4,139.5z"/>
				<path fill="#FFE0B2" d="M294.2,129.6c-0.1,2.1-1.8,3.8-3.9,3.7s-3.8-1.8-3.7-3.9c0.1-2.1,1.8-3.8,3.9-3.7
					C292.5,125.7,294.2,127.5,294.2,129.6z"/>
				<path fill="#FFE0B2" d="M281.7,141.2c0,1.1-0.9,1.9-2,1.9s-1.9-0.9-1.9-2s0.9-1.9,2-1.9C280.9,139.2,281.7,140.1,281.7,141.2z"
					/>
				<path fill="#FFE0B2" d="M284.8,134.2c0,0.8-0.7,1.5-1.5,1.4c-0.8,0-1.5-0.7-1.4-1.5c0-0.8,0.7-1.5,1.5-1.4
					C284.2,132.7,284.8,133.4,284.8,134.2z"/>
				<path fill="#FFE0B2" d="M283.8,126.5c0,1-0.8,1.7-1.8,1.7s-1.7-0.8-1.7-1.8s0.8-1.7,1.8-1.7
					C283.1,124.7,283.9,125.5,283.8,126.5z"/>
			</g>
		</g>
		<path fill="#BDBDBD" d="M244.8,179c-4.9-2.4-9.4-5.6-13.3-9.5l0,0c0,0,4.8,8.4,10.4,13.6L244.8,179z"/>
	</g>
</g>
<g>
	
		<ellipse transform="matrix(0.7071 -0.7071 0.7071 0.7071 -18.2812 359.4024)" fill="#F7FCFE" cx="424.7" cy="201.8" rx="91.2" ry="91.2"/>
	
		<ellipse transform="matrix(0.7071 -0.7071 0.7071 0.7071 -18.2805 359.4016)" fill="#EFE5E3" cx="424.7" cy="201.8" rx="67.6" ry="67.6"/>
	<path fill="#CFCACE" d="M361.1,205.8c0-37.3,30.2-67.6,67.6-67.6c17.6,0,33.7,6.8,45.7,17.8c-12.3-13.4-30.1-21.9-49.7-21.9
		c-37.3,0-67.6,30.2-67.6,67.6c0,19.7,8.4,37.4,21.9,49.7C367.9,239.5,361.1,223.5,361.1,205.8z"/>
</g>
<g>
	<path fill="#4B752F" d="M416.3,227.3c1.3,1.7,2.8,2.8,4.9,3.3c0.9,0.2,6.2,0.3,6,2.4c0.1-1.4,0.3-2.6,1.7-2.9
		c1.4-0.3,2.8-0.2,4.3-0.4c5.2-0.7,10-6.6,11.2-11.5c2.4-9.9,0.8-20.7-4.4-29.5c-0.8-1.4-1.9-2.8-3.4-3c-1-0.2-2,0.2-2.9,0.5
		c-12.7,5-21.2,18.8-20.1,32.3C413.7,221.7,414.4,224.8,416.3,227.3z"/>
	<path fill="#294123" d="M436.2,187.9l-1.5,3c-0.4,1-0.9,2.1-1.3,3.1c-0.4,1.1-0.8,2.1-1.2,3.2c-0.3,1.1-0.7,2.1-1,3.2
		c-1.2,4.3-2.1,8.8-2.6,13.2c-0.6,4.5-0.9,9-1.1,13.5c-0.1,2.3-0.1,4.5-0.1,6.8v3.4l0.1,3.4c-0.3-2.3-0.4-4.5-0.6-6.8
		c-0.1-2.3-0.2-4.5-0.2-6.8c0-4.5,0.3-9.1,0.8-13.6c0.6-4.5,1.5-9,2.9-13.3C431.9,196,433.7,191.7,436.2,187.9z"/>
</g>
<g>
	<path fill="#4B752F" d="M436.2,211c0,2.2,0.6,3.9,2,5.6c0.6,0.7,4.8,3.9,3.4,5.5c1-1.1,1.8-1.9,3.1-1.4c1.3,0.6,2.4,1.5,3.7,2.2
		c4.7,2.5,12,0.6,15.8-2.7c7.8-6.6,12.9-16.3,13.8-26.4c0.1-1.6,0.1-3.3-1-4.5c-0.7-0.7-1.7-1-2.6-1.3c-13.2-3.5-28.2,2.6-35.3,14.2
		C437.4,204.9,436.2,207.9,436.2,211z"/>
	<path fill="#294123" d="M475.5,191l-3,1.6c-1,0.6-1.9,1.1-2.9,1.7c-0.9,0.6-1.9,1.2-2.8,1.9s-1.8,1.3-2.7,2
		c-3.5,2.8-6.9,5.8-10,9.1c-3.1,3.2-6,6.7-8.8,10.2c-1.4,1.8-2.8,3.6-4.1,5.4l-2,2.7l-2,2.8c1.1-2,2.3-3.9,3.6-5.8
		c1.3-1.9,2.6-3.7,3.9-5.6c2.7-3.7,5.6-7.2,8.7-10.5c3.2-3.3,6.5-6.4,10.2-9C467.3,194.9,471.3,192.6,475.5,191z"/>
</g>
<g>
	<path fill="#4B833A" d="M426.6,255.3c-0.4-1-0.7-2.1-1.6-2.6c-0.8-0.3-1.7,0-2.4,0.4c-0.7,0.4-1.4,1-2.2,1.3c-5,1.7-3-5.2-3.6-7.4
		c-1-3.6-7.2-2.8-8.8-6.1c-1.4-2.7,1.2-6.6-0.8-8.8c-1.4-1.5-4.3-1.3-5.3-3.1c-0.7-1.2-0.2-2.6,0.1-3.9c1.2-4.4,1.2-9.1-0.1-13.5
		c3.1,1.9,6.9,1.9,10.4,2.2c3.4,0.3,6.1,1.7,9.2,3.1c1.7,0.8,3.4,2.6,2.8,4.4c-0.4,1.3-1.8,2.5-1.3,3.7c0.2,0.5,0.7,0.8,1.2,1
		c2.6,1.3,5.6,1.8,7.6,3.8c0.7,0.7,1.2,1.7,0.9,2.6c-0.4,1.2-2,1.7-2.6,2.8c-0.5,0.9-0.4,2,0,2.9c1.4,2.8,4.6,2.6,7.2,3.7
		c3.4,1.4,4.5,5.5,0.3,6.6c-0.6,0.1-1.1,0.3-1.7,0.5c-0.5,0.2-1.1,0.4-1.4,0.9c-0.2,0.4-0.2,0.9-0.1,1.3c0.2,1.1,0.8,2,1.4,2.9
		c0.8,1.5,1,2.8-0.1,4.1c-2.9,3.5-7.7,0.6-9-2.7C426.6,255.4,426.6,255.3,426.6,255.3z"/>
	<path fill="#609240" d="M432.8,256.6c-1.1-2.3-2.7-4.3-4.2-6.4l-4.5-6.2c-3-4.1-5.9-8.3-8.9-12.5s-5.8-8.4-8.8-12.6
		c-2.9-4.2-5.7-8.5-8.4-12.8l0.2-0.2l8.9,12.5l8.8,12.5c2.9,4.2,5.9,8.4,8.7,12.6c1.4,2.1,2.8,4.2,4.2,6.4
		C430.3,252.1,431.9,254.2,432.8,256.6z"/>
</g>
<g>
	<path fill="#569743" d="M409.1,216c-0.4,1-0.9,2.1-0.5,3c0.3,0.8,1.2,1.2,2.1,1.3c0.8,0.2,1.7,0.2,2.5,0.5c4.9,2.1-1.3,5.9-2.3,7.9
		c-1.7,3.3,3.5,6.9,2.5,10.4c-0.8,2.9-5.3,4.1-5.3,7.1c0,2.1,2.3,3.8,1.9,5.8c-0.3,1.3-1.6,2.1-2.7,2.8c-3.8,2.5-7,6-9,10.1
		c-1-3.5-3.8-6-6.3-8.6c-2.3-2.4-3.4-5.3-4.8-8.4c-0.7-1.8-0.7-4.2,0.9-5.2c1.2-0.7,3-0.6,3.4-1.9c0.2-0.5,0-1.1-0.2-1.6
		c-1.1-2.7-3-5.1-3.1-7.9c0-1,0.2-2.1,1-2.6c1.1-0.7,2.6,0.1,3.8-0.3c1-0.3,1.7-1.2,1.9-2.2c0.9-3.1-1.6-5-2.9-7.6
		c-1.6-3.3,0.3-7.1,4.2-5.1c0.5,0.3,1,0.5,1.6,0.7c0.5,0.2,1.1,0.4,1.7,0.3c0.4-0.1,0.7-0.5,1-0.9c0.5-0.9,0.7-2,0.9-3.1
		c0.4-1.6,1.1-2.7,2.8-2.9c4.5-0.7,6.1,4.7,4.8,8C409.1,215.9,409.1,215.9,409.1,216z"/>
	<path fill="#6DA648" d="M405.4,210.9c-0.8,2.4-0.9,5-1.2,7.5l-0.9,7.6c-0.5,5.1-1.2,10.1-1.7,15.2c-0.6,5.1-1.3,10.1-1.9,15.2
		c-0.7,5.1-1.4,10.1-2.3,15.1h-0.3l1.7-15.2l1.8-15.2c0.7-5.1,1.2-10.1,2-15.2c0.4-2.5,0.7-5.1,1.1-7.6
		C404.2,215.9,404.4,213.3,405.4,210.9z"/>
</g>
<g>
	<path fill="#569743" d="M435.2,205.2c0.2-1,0.6-2.2,0-3c-0.5-0.7-1.4-0.9-2.3-1c-0.9,0-1.7,0.1-2.5-0.1c-5.1-1.3,0.3-6,1-8.2
		c1.1-3.5-4.5-6.2-4.1-9.9c0.3-3,4.6-4.9,4.1-7.9c-0.3-2.1-2.9-3.4-2.8-5.5c0.1-1.3,1.2-2.3,2.2-3.2c3.4-3.1,5.9-7,7.3-11.4
		c1.6,3.3,4.7,5.4,7.6,7.5c2.7,2,4.3,4.7,6,7.6c1,1.6,1.4,4,0,5.2c-1,0.9-2.9,1.1-3.1,2.5c-0.1,0.5,0.2,1.1,0.5,1.5
		c1.5,2.5,3.8,4.5,4.3,7.3c0.2,0.9,0.1,2.1-0.6,2.7c-1,0.8-2.5,0.3-3.7,0.9c-0.9,0.4-1.4,1.4-1.6,2.4c-0.4,3.2,2.4,4.7,4,7
		c2.1,3,0.8,7-3.3,5.7c-0.5-0.2-1.1-0.3-1.7-0.5c-0.6-0.1-1.2-0.3-1.7,0c-0.4,0.2-0.7,0.6-0.8,1c-0.4,1-0.3,2.1-0.4,3.2
		c-0.1,1.7-0.7,2.8-2.3,3.4c-4.3,1.4-6.8-3.6-6-7.2C435.2,205.3,435.2,205.2,435.2,205.2z"/>
	<path fill="#6DA648" d="M439.7,209.6c0.4-2.5,0.1-5.1,0-7.6l-0.4-7.6c-0.3-5.1-0.5-10.2-0.7-15.3s-0.4-10.2-0.5-15.3
		s-0.2-10.2-0.1-15.3h0.3l0.7,15.3l0.7,15.3c0.2,5.1,0.4,10.2,0.5,15.3c0,2.6,0.1,5.1,0.1,7.7C440,204.5,440.2,207.1,439.7,209.6z"
		/>
</g>
<g>
	<circle fill="#F15B38" cx="413.3" cy="250.2" r="15.2"/>
	<path fill="#E64437" d="M425.8,250.4c0.2,0.3,0.3,0.6,0.3,1c0.1,3.2-2.1,6.1-4.7,8c-1,0.8-2.4,1.4-3.6,0.8
		c-1.4-0.7-1.8-2.9-2.2-4.2c-0.4-1.6-0.8-3.3-1.1-4.9c-0.3-1.6,1-1.4,2.2-1.3C418.4,249.8,424.4,248.3,425.8,250.4z"/>
	<path fill="#F15B38" d="M416.5,253.6c-1.3-1.2-1.9-2.6-1.3-3.1c0.5-0.5,1.9,0,3.2,1.1c1.3,1.2,1.9,2.6,1.3,3.1
		C419.2,255.3,417.8,254.8,416.5,253.6z"/>
	<path fill="#E64437" d="M407.6,260.8c-0.3,0-0.6,0-1-0.1c-3-1.2-4.8-4.4-5.4-7.6c-0.3-1.3-0.3-2.8,0.7-3.6c1.2-1,3.3-0.5,4.7-0.3
		c1.7,0.3,3.3,0.6,4.9,1s0.8,1.5,0.3,2.5C411.1,254.3,410.1,260.4,407.6,260.8z"/>
	<path fill="#F15B38" d="M408.4,251c1.6-0.7,3.1-0.7,3.4,0s-0.7,1.8-2.3,2.4c-1.6,0.7-3.1,0.7-3.4,0
		C405.8,252.8,406.8,251.7,408.4,251z"/>
	<path fill="#E64437" d="M407.7,239.3c0.1-0.3,0.4-0.5,0.7-0.7c2.7-1.7,6.4-1.3,9.3,0c1.2,0.5,2.4,1.4,2.5,2.6c0.1,1.6-1.5,3-2.5,4
		c-1.2,1.2-2.4,2.3-3.7,3.4c-1.3,1.1-1.7-0.2-2.3-1.2C411,246,406.6,241.6,407.7,239.3z"/>
	<path fill="#F15B38" d="M415.3,245.6c-0.4,1.7-1.3,2.9-2,2.7s-1-1.6-0.7-3.3c0.4-1.7,1.3-2.9,2-2.7S415.6,244,415.3,245.6z"/>
</g>
<g>
	<path fill="#6BA743" d="M433.3,228.5c-1.2,1.8-1.8,3.6-1.6,5.7c0.1,1,1.7,5.9-0.4,6.4c1.4-0.3,2.6-0.5,3.3,0.7
		c0.8,1.2,1.1,2.6,1.7,3.9c2.3,4.7,9.4,7.4,14.5,7c10.2-0.8,19.9-5.8,26.6-13.6c1-1.2,2-2.7,1.8-4.2c-0.1-1-0.8-1.8-1.4-2.6
		c-8.7-10.4-24.5-14.2-37-8.8C437.9,224.2,435.1,225.9,433.3,228.5z"/>
	<path fill="#48733D" d="M477,234.9l-3.4-0.5c-1.1-0.1-2.2-0.2-3.4-0.3c-1.1,0-2.3-0.1-3.4-0.1s-2.3,0-3.4,0.1
		c-4.5,0.2-9,0.8-13.4,1.7c-4.4,0.8-8.8,2-13.1,3.3c-2.2,0.6-4.3,1.3-6.5,2l-3.2,1.1l-3.2,1.1c2.1-1,4.2-1.8,6.3-2.7
		c2.1-0.8,4.2-1.6,6.4-2.3c4.3-1.4,8.7-2.6,13.2-3.5c4.5-0.8,9-1.4,13.6-1.5C468,233.3,472.6,233.7,477,234.9z"/>
</g>
<g>
	<path fill="#69899F" d="M365.6,202.9c1.2-4,2.2-8.1,2.9-12.2c1.6-9.1,2.7-18.8,7.2-26.9c4.4-8.1,10.8-15.3,20.7-17.4
		c9.9-2.2,21.6,1.2,29.1,8.6c15.2,14.9,6.2,34.7-4.7,47.3c-4.8,5.6-10.5,10.4-16.2,15.3c-5.5,4.7-17.8,15.2-17.8,15.2L360.9,218
		C360.8,217.7,364.2,207.7,365.6,202.9z"/>
	<path fill="#D7F1FE" d="M361.9,201c1.2-4,2.2-8.1,2.9-12.2c1.6-9.1,2.7-18.8,7.2-26.9c4.4-8.1,10.8-15.3,20.7-17.4
		c9.9-2.2,21.6,1.2,29.1,8.6c15.2,14.9,6.2,34.7-4.7,47.3c-4.8,5.6-10.5,10.4-16.2,15.3c-5.5,4.7-17.8,15.2-17.8,15.2l-25.8-14.7
		C357.1,215.8,360.5,205.8,361.9,201z"/>
	<path fill="#FAE096" d="M362.6,201.9c1.2-3.9,2.2-7.8,2.9-11.8c1.6-8.8,2.8-18.2,7.1-26.1c4.3-7.8,10.4-14.9,19.8-17
		c9.4-2.2,20.5,0.9,27.5,8c14.3,14.3,5.5,33.4-5,45.7c-4.7,5.5-10.1,10.2-15.6,14.9c-5.3,4.6-17.1,14.9-17.1,14.9L358,216.6
		C357.9,216.3,361.3,206.6,362.6,201.9z"/>
	<path fill="#FE765E" d="M364,203.1c1.2-3.8,2.2-7.6,3-11.4c1.7-8.5,3.1-17.5,7.3-25.2c4.2-7.7,10-14.6,18.8-16.9
		c8.8-2.4,18.9,0.3,25.2,6.9c12.8,13.3,4.2,31.9-5.8,44c-4.4,5.4-9.6,10.1-14.8,14.7c-5,4.6-16.2,14.8-16.2,14.8l-22.1-12.7
		C359.3,217,362.6,207.6,364,203.1z"/>
	<polygon fill="#ED6351" points="387.8,195.6 374.5,225.9 368,222.3 	"/>
	
		<ellipse transform="matrix(0.4658 -0.8849 0.8849 0.4658 54.7278 446.4091)" fill="#FAE096" cx="397.1" cy="177.9" rx="10.8" ry="7.2"/>
	<path fill="#ED6351" d="M401.7,180.2c-2,3.8-5.6,5.7-8.1,4.4s-2.9-5.4-1-9.2c2-3.8,5.6-5.7,8.1-4.4
		C403.2,172.4,403.7,176.5,401.7,180.2z"/>
	<path fill="#E8DCBF" d="M406,172.3c2.3-1.7,5.2-2.4,8.1-2.5c2.9,0,5.8,0.7,8.1,2.3c-2.7-0.9-5.4-1.4-8.1-1.3
		C411.4,170.8,408.7,171.3,406,172.3z"/>
	<path fill="#E8DCBF" d="M404.5,179.4c1.5-0.2,3-0.3,4.6,0.1c1.5,0.4,2.9,1.1,4.2,1.8c1.3,0.7,2.7,1.5,3.8,2.6
		c1.2,1,2.1,2.4,2.5,3.8c-0.8-1.3-1.8-2.4-3-3.2c-1.2-0.9-2.5-1.6-3.8-2.3s-2.6-1.4-4-1.9C407.6,179.7,406.1,179.6,404.5,179.4z"/>
	<path fill="#E8DCBF" d="M400.2,185.9c3.1,1.7,5.4,4.7,6.4,8.1c1,3.4,0.8,7.2-0.9,10.3c0.9-3.4,0.9-6.8-0.1-10
		C404.8,191.1,402.8,188.2,400.2,185.9z"/>
	<path fill="#E8DCBF" d="M394.2,189.2c-0.4,2.5-0.7,4.9-1,7.3c-0.3,2.4-0.5,4.9-0.6,7.3c-0.2,2.5-0.2,4.9-0.3,7.4c0,1.2,0,2.5,0,3.7
		s0.1,2.5,0.1,3.7c-0.2-1.2-0.4-2.4-0.6-3.7c-0.1-1.2-0.2-2.5-0.3-3.7c-0.1-2.5-0.1-5,0-7.5c0.2-2.5,0.4-5,0.9-7.4
		C392.9,194,393.4,191.6,394.2,189.2z"/>
	<path fill="#E8DCBF" d="M395.9,166.9c-0.7-2.6-1.6-5.1-3.1-7.3c-1.4-2.2-3.2-4.1-5.4-5.8c2.6,1,4.7,2.9,6.2,5.3
		C395.2,161.4,396.1,164.2,395.9,166.9z"/>
	<path fill="#E8DCBF" d="M390.9,172.3c-0.9-1.1-1.8-2.2-2.9-3s-2.4-1.4-3.7-2.1c-1.2-0.7-2.5-1.3-3.8-1.7s-2.7-0.7-4.2-0.5
		c1.4-0.5,2.9-0.6,4.4-0.2c1.5,0.3,2.8,0.9,4.1,1.6c1.3,0.7,2.6,1.4,3.7,2.4C389.6,169.6,390.3,171,390.9,172.3z"/>
	<path fill="#E8DCBF" d="M388,179.5c-3.3-0.8-6.7-0.6-9.8,0.5c-3.1,1.1-5.8,3.1-8,5.7c1.6-3,4.4-5.4,7.7-6.6
		C381.1,177.9,384.9,177.9,388,179.5z"/>
	<path fill="#E8DCBF" d="M388.5,186.2c-1.5,2-3.1,3.8-4.9,5.6c-1.7,1.8-3.6,3.4-5.5,5c-1.9,1.5-3.9,3-6,4.3c-1,0.7-2.1,1.3-3.2,1.9
		c-1.1,0.6-2.2,1.2-3.3,1.7l3-2.1c1-0.7,2-1.4,3-2.1c2-1.5,3.9-2.9,5.8-4.5c1.9-1.5,3.7-3.1,5.6-4.7
		C384.9,189.6,386.7,187.9,388.5,186.2z"/>
	<polygon fill="#FAE096" points="406.2,148.2 400.5,168.2 403.7,169.9 417.5,154.7 	"/>
</g>
<g>
	<g>
		<path fill="#00834B" d="M451.6,205.8l-2.2-2.3c3.8-3.5,7.2-7.3,9.9-11.1c2.6-3.6,2.6-3.6,4.8-7.6l2.8,1.5c-2.3,4.2-2.3,4.2-5,7.9
			C459.1,198.2,455.5,202.2,451.6,205.8z"/>
	</g>
	<g>
		<path fill="#00834B" d="M450.5,204.8l-2.5-2c3.2-4.1,5.9-8.4,8-12.5c2-3.9,2-3.9,3.5-8.2l3,1.1c-1.6,4.5-1.6,4.6-3.7,8.6
			C456.6,196.1,453.7,200.6,450.5,204.8z"/>
	</g>
	<g>
		<path fill="#00834B" d="M450.2,204.6l2.3,2.2c3.6-3.7,7.4-7.1,11.2-9.8c3.6-2.5,3.6-2.5,7.6-4.7l-1.5-2.8c-4.2,2.3-4.3,2.3-8,4.9
			C457.9,197.3,453.9,200.8,450.2,204.6z"/>
	</g>
	<g>
		<path fill="#41A359" d="M450.8,205l-2.2-2.3c3.8-3.5,7.2-7.3,9.9-11.1c2.6-3.6,2.6-3.6,4.8-7.6l2.8,1.5c-2.3,4.2-2.3,4.2-5,7.9
			C458.3,197.4,454.7,201.4,450.8,205z"/>
	</g>
	<g>
		<path fill="#41A359" d="M448.7,203.3l2.3,2.2c3.6-3.7,7.4-7.1,11.2-9.8c3.6-2.5,3.6-2.5,7.6-4.7l-1.5-2.8c-4.2,2.3-4.3,2.3-8,4.9
			C456.4,195.9,452.4,199.4,448.7,203.3z"/>
	</g>
	<g>
		<path fill="#41A359" d="M449.6,204.1l-2.5-2c3.2-4.1,5.9-8.4,8-12.5c2-3.9,2-3.9,3.5-8.2l3,1.1c-1.6,4.5-1.6,4.5-3.7,8.6
			C455.7,195.4,452.8,199.9,449.6,204.1z"/>
	</g>
</g>
<g>
	<g>
		<path fill="#00834B" d="M478.5,220.2l-2.4,2.1c-3.4-3.8-7.2-7.3-10.9-10.1c-3.5-2.7-3.5-2.7-7.5-5l1.6-2.8
			c4.1,2.4,4.2,2.4,7.8,5.2C471,212.5,474.9,216.2,478.5,220.2z"/>
	</g>
	<g>
		<path fill="#00834B" d="M477.5,221.3l-2,2.5c-4-3.2-8.3-6.1-12.4-8.2c-3.9-2.1-3.9-2.1-8.2-3.7l1.1-3c4.4,1.7,4.5,1.7,8.5,3.8
			C468.8,214.9,473.3,217.9,477.5,221.3z"/>
	</g>
	<g>
		<path fill="#00834B" d="M477.3,221.5l2.2-2.3c-3.7-3.6-7-7.5-9.6-11.3c-2.5-3.6-2.5-3.6-4.6-7.7l-2.8,1.5c2.2,4.2,2.2,4.3,4.8,8.1
			C470,213.7,473.5,217.7,477.3,221.5z"/>
	</g>
	<g>
		<path fill="#41A359" d="M477.7,220.9l-2.4,2.1c-3.4-3.8-7.2-7.3-10.9-10.1c-3.5-2.7-3.5-2.7-7.5-5l1.6-2.8
			c4.1,2.4,4.2,2.4,7.8,5.2C470.2,213.3,474.1,216.9,477.7,220.9z"/>
	</g>
	<g>
		<path fill="#41A359" d="M475.9,223l2.2-2.3c-3.7-3.6-7-7.5-9.6-11.3c-2.5-3.6-2.5-3.6-4.6-7.7l-2.8,1.5c2.2,4.2,2.2,4.3,4.8,8.1
			C468.7,215.1,472.1,219.2,475.9,223z"/>
	</g>
	<g>
		<path fill="#41A359" d="M476.7,222.1l-2,2.5c-4-3.2-8.3-6.1-12.4-8.2c-3.9-2.1-3.9-2.1-8.2-3.7l1.1-3c4.4,1.7,4.5,1.7,8.5,3.8
			C468.1,215.8,472.6,218.8,476.7,222.1z"/>
	</g>
</g>
</svg>
