<svg
    xmlns="http://www.w3.org/2000/svg"
    xmlns:xlink="http://www.w3.org/1999/xlink"
    viewBox="0 0 156.66 157.19"
    width="120"
    height="120"
  >
    <defs>
      <linearGradient
        id="e"
        x1="1.13"
        y1="1.3"
        x2=".24"
        y2=".19"
        gradientUnits="objectBoundingBox"
      >
        <stop offset="0" stop-color="#dae3fe" />
        <stop offset="1" stop-color="#e9effd" />
      </linearGradient>
      <linearGradient
        id="a"
        y1=".5"
        x2="1"
        y2=".5"
        gradientUnits="objectBoundingBox"
      >
        <stop offset="0" stop-color="#09005d" />
        <stop offset="1" stop-color="#1a0f91" />
      </linearGradient>
      <linearGradient
        id="f"
        x1="-1.25"
        y1=".61"
        x2="-.43"
        y2="-.39"
        xlink:href="#a"
      />
      <linearGradient
        id="g"
        x1="-2.09"
        y1=".84"
        x2="-1.03"
        y2="-.84"
        xlink:href="#a"
      />
      <linearGradient
        id="h"
        x1="-1.53"
        y1="-.05"
        x2="-1.91"
        y2=".65"
        xlink:href="#a"
      />
      <linearGradient
        id="i"
        x1="-6.86"
        y1="-2.69"
        x2="-7.94"
        y2="-.1"
        xlink:href="#a"
      />
      <linearGradient
        id="b"
        x1="-1.65"
        y1="-8.71"
        x2="-.88"
        y2="-9.72"
        gradientUnits="objectBoundingBox"
      >
        <stop offset="0" stop-color="#4f52ff" />
        <stop offset="1" stop-color="#4042e2" />
      </linearGradient>
      <linearGradient
        id="j"
        x1="-7.35"
        y1="-.89"
        x2="-6.78"
        y2="-2.35"
        xlink:href="#a"
      />
      <linearGradient
        id="k"
        x1="-7.15"
        y1="-1"
        x2="-6.63"
        y2="-2.54"
        xlink:href="#a"
      />
      <linearGradient
        id="l"
        x1="-1.53"
        y1="-.12"
        x2="-.68"
        y2="-.12"
        xlink:href="#a"
      />
      <linearGradient
        id="m"
        x1="1.72"
        y1="-1.23"
        x2="1.25"
        y2="-.57"
        xlink:href="#b"
      />
      <linearGradient
        id="c"
        x1="-171.34"
        y1="-117.27"
        x2="-172.58"
        y2="-115.79"
        gradientUnits="objectBoundingBox"
      >
        <stop offset="0" stop-color="#ff928e" />
        <stop offset="1" stop-color="#fe7062" />
      </linearGradient>
      <linearGradient
        id="n"
        x1="-168.7"
        y1="-115.99"
        x2="-169.95"
        y2="-114.51"
        xlink:href="#c"
      />
      <linearGradient
        id="d"
        x1="-196.82"
        y1=".47"
        x2="-196.94"
        y2="1.14"
        gradientUnits="objectBoundingBox"
      >
        <stop offset="0" stop-color="#febbba" />
        <stop offset="1" stop-color="#ff928e" />
      </linearGradient>
      <linearGradient
        id="o"
        x1="6.52"
        y1="2.13"
        x2="3.5"
        y2="1.3"
        xlink:href="#b"
      />
      <linearGradient
        id="p"
        x1="1.14"
        y1="-.03"
        x2="-3.51"
        y2="3.82"
        xlink:href="#b"
      />
      <linearGradient
        id="q"
        x1="-89.3"
        y1=".52"
        x2="-89.39"
        y2="1.25"
        xlink:href="#d"
      />
      <linearGradient
        id="r"
        x1="-9.77"
        y1=".5"
        x2="-8.77"
        y2=".5"
        xlink:href="#a"
      />
      <linearGradient
        id="s"
        x1="-145.84"
        y1="-.27"
        x2="-146.14"
        y2="1.27"
        xlink:href="#d"
      />
      <linearGradient
        id="t"
        x1="1.26"
        y1="-.32"
        x2=".49"
        y2=".66"
        xlink:href="#d"
      />
      <linearGradient
        id="u"
        x1="-23.95"
        y1=".5"
        x2="-22.95"
        y2=".5"
        xlink:href="#d"
      />
      <linearGradient
        id="v"
        x1="-13.22"
        y1=".5"
        x2="-12.22"
        y2=".5"
        xlink:href="#d"
      />
      <linearGradient
        id="w"
        x1="-28.44"
        y1=".5"
        x2="-27.44"
        y2=".5"
        xlink:href="#a"
      />
      <linearGradient
        id="x"
        x1="2.46"
        y1="2.1"
        x2=".88"
        y2=".89"
        xlink:href="#c"
      />
      <linearGradient
        id="y"
        x1="-21.19"
        y1=".5"
        x2="-20.19"
        y2=".5"
        xlink:href="#a"
      />
      <linearGradient
        id="z"
        x1="-168.94"
        y1="-14.52"
        x2="-171.79"
        y2="-10.42"
        xlink:href="#d"
      />
      <linearGradient
        id="A"
        x1="-166.7"
        y1="-31.04"
        x2="-168.05"
        y2="-29.71"
        xlink:href="#d"
      />
      <linearGradient
        id="B"
        x1="-117.6"
        y1="-19.37"
        x2="-116.48"
        y2="-19.37"
        xlink:href="#a"
      />
      <linearGradient
        id="C"
        x1="-455.45"
        y1="-92.21"
        x2="-452.56"
        y2="-94.7"
        xlink:href="#d"
      />
      <linearGradient
        id="D"
        x1=".57"
        y1=".21"
        x2=".27"
        y2="1.42"
        xlink:href="#d"
      />
      <linearGradient
        id="E"
        x1="1.47"
        y1=".72"
        x2="3.1"
        y2="1.12"
        xlink:href="#b"
      />
      <linearGradient
        id="F"
        x1="3"
        y1="1.31"
        x2="1.5"
        y2=".82"
        xlink:href="#b"
      />
      <linearGradient
        id="G"
        x1="-49.23"
        y1=".55"
        x2="-49.27"
        y2="1.52"
        xlink:href="#a"
      />
      <linearGradient
        id="H"
        x1="-92.96"
        y1=".53"
        x2="-93.02"
        y2="1.29"
        xlink:href="#d"
      />
      <linearGradient
        id="I"
        x1="4.34"
        y1=".98"
        x2="18.55"
        y2="2.76"
        xlink:href="#b"
      />
      <linearGradient
        id="J"
        x1=".3"
        y1="6.89"
        x2="-.17"
        y2="21.61"
        xlink:href="#b"
      />
      <linearGradient
        id="K"
        x1="-762.56"
        y1=".5"
        x2="-761.56"
        y2=".5"
        xlink:href="#b"
      />
      <linearGradient
        id="L"
        x1="-749.3"
        y1=".5"
        x2="-748.3"
        y2=".5"
        xlink:href="#b"
      />
      <linearGradient
        id="M"
        x1="-96.32"
        y1=".5"
        x2="-95.32"
        y2=".5"
        xlink:href="#b"
      />
      <linearGradient
        id="N"
        x1="-95.29"
        y1=".5"
        x2="-94.29"
        y2=".5"
        xlink:href="#b"
      />
      <linearGradient
        id="O"
        x1="-126.62"
        y1=".14"
        x2="-126.89"
        y2="2.6"
        xlink:href="#d"
      />
      <linearGradient
        id="P"
        x1="-298.96"
        y1="1.01"
        x2="-299"
        y2="-.33"
        xlink:href="#d"
      />
      <linearGradient
        id="Q"
        x1=".56"
        y1="-.04"
        x2=".29"
        y2="2.4"
        xlink:href="#c"
      />
      <linearGradient
        id="R"
        x1=".54"
        y1="-.08"
        x2=".4"
        y2="1.95"
        xlink:href="#c"
      />
      <linearGradient
        id="S"
        x1=".76"
        y1="-3.16"
        x2=".14"
        y2="5.74"
        xlink:href="#c"
      />
      <linearGradient
        id="T"
        x1=".49"
        y1=".08"
        x2=".52"
        y2="2.23"
        xlink:href="#c"
      />
      <linearGradient
        id="U"
        x1=".55"
        y1=".07"
        x2=".32"
        y2="2.12"
        xlink:href="#c"
      />
    </defs>
    <g data-name="Group 4633">
      <path
        data-name="Path 5185"
        d="M607.98 2379.63a56.59 56.59 0 0 1-8.67 7.27c-28.26 20.21-61.71 14.32-68.82 12.88-10.5-2.12-30.8-6.23-45.46-23.42-22.2-26.01-18.74-66.99-1.53-94.04 3.15-4.95 19.79-32.41 53.6-36.81 20.46-2.67 44.3 2.7 61.58 17.13 36.26 30.26 33.68 91.41 9.3 116.99Z"
        transform="translate(-469.48 -2244.5)"
        fill="url(#e)"
      />
      <g data-name="Group 4600">
        <path
          data-name="Path 5186"
          d="M16.15 2.58c-2.26 14.47-11.99 99.25 65.93 122.66 0 0 20.77-54.16-63.93-123.43a1.24 1.24 0 0 0-2 .77Z"
          fill="#91b3fa"
        />
        <path
          data-name="Path 5187"
          d="M23.35 15.53s.35 1.81 1.07 4.96 1.83 7.64 3.32 12.97 3.4 11.52 5.69 18.05 4.98 13.42 8.01 20.15a185.17 185.17 0 0 0 10 19.22c1.8 2.96 3.62 5.75 5.45 8.34s3.65 4.96 5.43 7.08 3.48 3.99 5.05 5.6l1.15 1.15c.37.37.74.7 1.09 1.04.7.68 1.37 1.26 1.97 1.8l.44.4.42.35.77.65c.47.4.9.73 1.23 1l1.04.81.01.01a.38.38 0 1 1-.47.6l-1.04-.84c-.34-.27-.77-.6-1.24-1.01l-.78-.66-.43-.36-.44-.4c-.6-.54-1.28-1.14-1.98-1.82l-1.1-1.06-1.15-1.17c-1.58-1.62-3.3-3.5-5.07-5.65s-3.6-4.54-5.43-7.14-3.66-5.43-5.44-8.4a185.7 185.7 0 0 1-9.97-19.32c-3.01-6.76-5.7-13.66-7.96-20.21s-4.14-12.76-5.62-18.1c-2.96-10.7-4.33-17.98-4.33-17.98a.16.16 0 0 1 .31-.06Z"
          fill="#fff"
          opacity=".4"
        />
      </g>
      <g data-name="Group 4601">
        <path
          data-name="Path 5188"
          d="M.67 34.51c-1.02 11.47-4.23 78.45 58.09 92.75 0 0 13.46-43.55-56.56-93.46a.97.97 0 0 0-1.53.71Z"
          fill="#bdd0fb"
        />
        <path
          data-name="Path 5189"
          d="M7 44.28s.38 1.37 1.12 3.75a218.87 218.87 0 0 0 3.28 9.76c.71 2.02 1.51 4.18 2.4 6.45s1.86 4.66 2.89 7.12a246.9 246.9 0 0 0 3.33 7.5l.9 1.9.92 1.9c.6 1.28 1.26 2.54 1.9 3.8l.48.95.5.94 1 1.88c.68 1.24 1.37 2.46 2.06 3.68l1.05 1.8.53.9.26.44.27.44 1.08 1.73a135.4 135.4 0 0 0 5.41 8.02l1.08 1.45.52.71.54.68 1.05 1.32.51.65.51.62 1.99 2.31.24.28.24.26.47.5.91.99.86.91.83.82 1.46 1.44c.22.22.44.41.64.6l.58.52.91.81.76.68.01.01a.33.33 0 0 1-.44.49l-.76-.69-.91-.83-.58-.52c-.21-.18-.43-.38-.65-.6l-1.47-1.46-.83-.83-.86-.93-.9-.98-.48-.52-.25-.26-.23-.28-2-2.34-.5-.63-.51-.64-1.06-1.34c-.17-.23-.36-.45-.53-.69l-.53-.7-1.07-1.47a134.3 134.3 0 0 1-4.33-6.36c-.37-.56-.72-1.14-1.08-1.71l-1.07-1.75-.27-.44-.26-.44-.52-.9-1.05-1.81-2.05-3.7-1-1.9-.5-.94-.47-.95c-.64-1.27-1.3-2.54-1.9-3.82l-.92-1.9-.88-1.92A244.74 244.74 0 0 1 9.2 52.39c-.54-1.65-1-3.09-1.36-4.28-.73-2.38-1.1-3.75-1.1-3.75a.14.14 0 0 1 .27-.08Z"
          fill="#fff"
          opacity=".4"
        />
      </g>
      <g data-name="Group 4603">
        <g data-name="Group 4602">
          <path
            data-name="Path 5190"
            d="M742.4 2242.98a7.82 7.82 0 0 0-7.3 7.61c-.61 24.73-2.6 110.01-1.65 140.24a6.07 6.07 0 0 0 5.87 5.87c15.83.52 61.39 1.84 87.3.75a10.22 10.22 0 0 0 9.8-10c.53-25.95 1.72-98.94-1.1-132.38a8.34 8.34 0 0 0-7.5-7.6c-17.24-1.72-63.05-5.94-85.42-4.49Z"
            transform="translate(-691.5 -2242.68)"
            fill="url(#a)"
          />
          <path
            data-name="Path 5191"
            d="M56.47 9.09a6.81 6.81 0 0 0-6.44 6.5c-.87 20.25-3.6 87.62-2.73 112.53a7.05 7.05 0 0 0 6.64 6.8c14.97.88 53.38 2.81 75.34 1.05a7.92 7.92 0 0 0 7.28-7.48c1.1-20.66 4.3-83.38 3.47-108.02a7.79 7.79 0 0 0-7.09-7.49c-16.2-1.45-57.8-4.91-76.47-3.9Z"
            fill="#91b3fa"
          />
          <path
            data-name="Path 5192"
            d="M82.73 4.62a1.42 1.42 0 0 0 1.35 1.43c3.74.2 14.28.75 18.99 1.02a1.43 1.43 0 0 0 1.48-1.7l-.03-.15a1.43 1.43 0 0 0-1.27-1.15A182.07 182.07 0 0 0 84.1 3.2a1.42 1.42 0 0 0-1.37 1.42Z"
            fill="#3f67f9"
            opacity=".5"
          />
        </g>
      </g>
      <g data-name="Group 4611">
        <g data-name="Group 4609" transform="translate(.41 85.98)">
          <path
            data-name="Path 5193"
            d="M498.22 2832.78c-2.6-14.8 2.42-28.7 11.73-35.29a22.04 22.04 0 0 0-9.48-.47c-16.46 2.72-23.82 20.03-20.48 38.98s17.92 32.2 32.57 29.62a21.53 21.53 0 0 0 8.75-3.68c-11.01-3.02-20.48-14.35-23.09-29.16Z"
            transform="translate(-478.07 -2795.1)"
            fill="url(#f)"
          />
          <g data-name="Group 4604">
            <path
              data-name="Path 5194"
              d="M509.95 2797.5a22.04 22.04 0 0 0-9.48-.48c-14.82 2.45-22.26 16.72-21.16 33.37.2 2.92 2.65 5.08 5.22 4.63l9.16-1.62a5.1 5.1 0 0 0 3.94-5.55c-.83-12.9 4.06-24.5 12.32-30.36Z"
              transform="translate(-478.08 -2795.1)"
              fill="url(#g)"
            />
          </g>
          <g data-name="Group 4605">
            <path
              data-name="Path 5195"
              d="M509.95 2797.5a22.04 22.04 0 0 0-9.48-.48c-14.82 2.45-22.26 16.72-21.16 33.37.2 2.92 2.65 5.08 5.22 4.63l9.16-1.62a5.1 5.1 0 0 0 3.94-5.55c-.83-12.9 4.06-24.5 12.32-30.36Z"
              transform="translate(-478.08 -2795.1)"
              fill="url(#h)"
            />
          </g>
          <ellipse
            data-name="Ellipse 30"
            cx="4.25"
            cy="3.24"
            rx="4.25"
            ry="3.24"
            transform="rotate(-10.02 165.99 -16.96)"
            fill="url(#i)"
          />
          <g data-name="Group 4606">
            <path
              data-name="Path 5196"
              d="M11.17 31.36a.33.33 0 0 1 .59-.23c1.86 2.7 6.97 9.61 12.14 12.44 8.42 4.6 16.23 14.08 14.25 21.06 0 0-22.6 3.4-26.98-33.27Z"
              fill="#91b3fa"
            />
            <path
              data-name="Path 5197"
              d="m13.37 35.36.12.23.14.23.27.47.56.92q.57.93 1.16 1.84 1.16 1.83 2.4 3.61c1.65 2.37 3.34 4.71 5.17 6.95.92 1.1 1.84 2.22 2.8 3.3s1.96 2.12 2.99 3.13a47.32 47.32 0 0 0 6.63 5.53.1.1 0 0 1-.1.16 36.36 36.36 0 0 1-3.6-2.47 53.26 53.26 0 0 1-3.3-2.85 68.06 68.06 0 0 1-5.87-6.44 92.22 92.22 0 0 1-7.44-10.72q-.56-.94-1.09-1.89l-.52-.95-.26-.48-.12-.25-.12-.26a.1.1 0 0 1 .16-.08Z"
              fill="#fff"
              opacity=".43"
            />
          </g>
          <g data-name="Group 4607">
            <path
              data-name="Path 5198"
              d="M32 38.78a.23.23 0 0 1 .44.01c.5 2.2 2.01 7.93 4.6 11.05 4.22 5.09 6.8 13.15 3.75 17.11 0 0-15.32-3.58-8.79-28.17Z"
              fill="#7d97f4"
            />
            <path
              data-name="Path 5199"
              d="m32.42 41.91.03.17.02.18.07.37.12.74.29 1.46a82.79 82.79 0 0 0 2.19 8.67 57.25 57.25 0 0 0 2.04 5.58 34.44 34.44 0 0 0 2.79 5.25.1.1 0 0 1-.03.13.1.1 0 0 1-.12-.02 24.35 24.35 0 0 1-1.7-2.48c-.52-.87-.98-1.76-1.4-2.67a44.13 44.13 0 0 1-2.14-5.62q-.88-2.87-1.48-5.82-.3-1.47-.52-2.96l-.2-1.48-.09-.75-.03-.37-.02-.19v-.2a.1.1 0 0 1 .18-.01Z"
              fill="#fff"
              opacity=".43"
            />
          </g>
          <path
            data-name="Path 5200"
            d="M612.53 2819.7c2.6 14.8-3.09 30.87-12.4 37.47 4.48-.7 6.95-1.13 10.15-1.7 14.65-2.58 23.82-20.03 20.48-38.98s-17.92-32.2-32.57-29.63c-3.2.57-10.16 1.16-13.65 2.41 14.48 1.6 25.38 15.64 27.99 30.44Z"
            transform="translate(-566.76 -2786.55)"
            fill="url(#b)"
          />
          <g data-name="Group 4608">
            <path
              data-name="Path 5201"
              d="m17.27 4.53.12-.02a15.23 15.23 0 0 1 8.45 1.1 23.52 23.52 0 0 1 7.87 5.63 36.7 36.7 0 0 1 6.38 9.45 47.69 47.69 0 0 1 3.93 12.38 52.55 52.55 0 0 1 .7 13.08 38.45 38.45 0 0 1-2.44 11.18 22.53 22.53 0 0 1-5.13 8.04 14 14 0 0 1-7.37 3.86 15.32 15.32 0 0 1-8.57-1.07 24.94 24.94 0 0 1-8.22-5.74 37.57 37.57 0 0 1-6.72-9.57A45.3 45.3 0 0 1 2.2 40.44a44.26 44.26 0 0 1-.37-12.96 38.2 38.2 0 0 1 3.02-11.16 25.67 25.67 0 0 1 5.5-8.04 13.51 13.51 0 0 1 6.92-3.74Zm-.3-1.66C6 4.8-2.57 22.05.71 40.7c3.3 18.72 16.98 32.37 29.36 30.19s19.48-19.27 16.18-38S29.52.82 17.12 2.85l-.14.03Z"
              fill="#7d97f4"
            />
          </g>
          <ellipse
            data-name="Ellipse 31"
            cx="4.25"
            cy="3.24"
            rx="4.25"
            ry="3.24"
            transform="rotate(-9.99 110.94 -36.92)"
            fill="url(#j)"
          />
          <ellipse
            data-name="Ellipse 32"
            cx="4.25"
            cy="2.84"
            rx="4.25"
            ry="2.84"
            transform="rotate(-9.99 64.3 -66.72)"
            fill="url(#k)"
          />
        </g>
        <g data-name="Group 4610" transform="translate(28.72 92.52)">
          <path
            data-name="Path 5202"
            d="m663.76 2880.02 27.41-4.48c2.3-.38 3.2-2.33 2.82-4.68l-6.5-39.33a4.27 4.27 0 0 0-4.75-3.6l-27.97 3.61a4.26 4.26 0 0 0-3.52 5.08l7.68 39.93a4.26 4.26 0 0 0 4.83 3.47Z"
            transform="translate(-651.17 -2827.9)"
            fill="url(#l)"
          />
          <path
            data-name="Path 5203"
            d="M708.64 2881.09a3.26 3.26 0 0 0 2.6-3.8l-6.34-38.34a3.24 3.24 0 0 0-3.6-2.77l-26.84 3.44-.08.01a3.1 3.1 0 0 0-2.08 1.36 3.37 3.37 0 0 0-.5 2.53l7.47 38.92a3.24 3.24 0 0 0 3.67 2.67Z"
            transform="translate(-668.48 -2834.85)"
            fill="url(#m)"
          />
          <path
            data-name="Path 5204"
            d="M40.11 43.53a.64.64 0 0 0 .52-.74L34.29 4.45a.62.62 0 0 0-.71-.53L6.35 7.42a.6.6 0 0 0-.41.27.63.63 0 0 0-.1.48l7.48 38.93a.62.62 0 0 0 .72.52Z"
            fill="#91b3fa"
          />
          <path
            data-name="Path 5205"
            d="M865.76 3082.4a1.59 1.59 0 0 0-.06 2.21 1.5 1.5 0 0 0 2.15.09 1.59 1.59 0 0 0 .06-2.2 1.5 1.5 0 0 0-2.15-.1Z"
            transform="translate(-831.44 -3041.82)"
            fill="url(#c)"
          />
          <ellipse
            data-name="Ellipse 33"
            cx="1.52"
            cy="1.56"
            rx="1.52"
            ry="1.56"
            transform="rotate(-10.02 250.05 -140)"
            fill="url(#n)"
          />
          <ellipse
            data-name="Ellipse 34"
            cx="1.52"
            cy="1.56"
            rx="1.52"
            ry="1.56"
            transform="rotate(-9.99 253.28 -108.94)"
            fill="#fff"
            opacity=".61"
          />
          <path
            data-name="Path 5206"
            d="M18.04 43.33a1.59 1.59 0 0 0-.07 2.2 1.5 1.5 0 0 0 2.15.1 1.59 1.59 0 0 0 .06-2.21 1.5 1.5 0 0 0-2.14-.09Z"
            fill="#fff"
            opacity=".61"
          />
          <path
            data-name="Path 5207"
            d="M16.65 7.7a1.04 1.04 0 0 0-.04 1.45.97.97 0 0 0 1.4.05 1.04 1.04 0 0 0 .04-1.44.97.97 0 0 0-1.4-.06Z"
            fill="#fff"
            opacity=".61"
          />
          <path
            data-name="Path 5208"
            d="M13.1 8.3a1.04 1.04 0 0 0-.04 1.45.97.97 0 0 0 1.4.06 1.04 1.04 0 0 0 .04-1.45.97.97 0 0 0-1.4-.05Z"
            fill="#fff"
            opacity=".61"
          />
          <ellipse
            data-name="Ellipse 35"
            cx=".99"
            cy="1.02"
            rx=".99"
            ry="1.02"
            transform="rotate(-9.99 55.02 -47.54)"
            fill="#fff"
            opacity=".61"
          />
        </g>
        <path
          data-name="Path 5209"
          d="M63.76 115.68a11.5 11.5 0 0 1-13.35 13.48 11.48 11.48 0 0 1-8.56-6.93 11.53 11.53 0 0 1-.86-4.5 11.5 11.5 0 0 1 22.77-2.05Zm-1.5.29a9.38 9.38 0 0 0-.55-1.82 9.1 9.1 0 0 0-.92-1.67 9.43 9.43 0 0 0-2.79-2.61 10 10 0 0 0-3.61-1.35 10.28 10.28 0 0 0-3.86.12 10.07 10.07 0 0 0-6.15 4.14 9.43 9.43 0 0 0-1.43 3.34 9.03 9.03 0 0 0 1.32 6.88 9.43 9.43 0 0 0 2.57 2.57 10.07 10.07 0 0 0 7.25 1.56 10.27 10.27 0 0 0 3.63-1.33 10 10 0 0 0 2.86-2.59 9.43 9.43 0 0 0 1.6-3.46 9.11 9.11 0 0 0 .24-1.89 9.37 9.37 0 0 0-.16-1.9Z"
          fill="#fff"
        />
        <path
          data-name="Path 5210"
          d="M54.65 111.8a3.84 3.84 0 0 1-6.33 1.22 4.4 4.4 0 0 0-3.16 5.32 2.68 2.68 0 0 0 .22.64l.87-.17 1.65-2.7a.56.56 0 0 1 .95-.03l2.4 3.4 1.13-3.45a.56.56 0 0 1 1-.14l1.05 1.57 1.98-.38a.57.57 0 0 1 .21 1.1l-2.34.46a.56.56 0 0 1-.58-.24l-.6-.91-1.12 3.41a.56.56 0 0 1-.43.38h-.02a.56.56 0 0 1-.54-.23l-2.57-3.62-1.33 2.18a.56.56 0 0 1-.38.26l-.67.13a20.1 20.1 0 0 0 7.04 5.07 1.41 1.41 0 0 0 1.58-.38c1.84-2.07 5.33-6.91 4.9-9.12a4.4 4.4 0 0 0-4.91-3.77Z"
          fill="#fff"
        />
      </g>
      <g data-name="Group 4612" fill="#fff">
        <path
          data-name="Path 5211"
          d="m79.97 19.24-.27.5a.06.06 0 1 1-.1-.05l.28-.5a.06.06 0 0 1 .1.05Z"
        />
        <path
          data-name="Path 5212"
          d="m79.1 20.93-.23.52a.07.07 0 0 1-.13-.06l.24-.52a.07.07 0 0 1 .12.06Z"
        />
        <path
          data-name="Path 5213"
          d="m78.38 22.68-.19.53a.08.08 0 1 1-.15-.05l.2-.54a.08.08 0 0 1 .15.05Z"
        />
        <path
          data-name="Path 5214"
          d="m77.8 24.49-.14.55a.09.09 0 1 1-.17-.05l.15-.55a.09.09 0 0 1 .17.04Z"
        />
        <path
          data-name="Path 5215"
          d="m77.37 26.33-.1.56a.1.1 0 1 1-.2-.04l.11-.56a.1.1 0 0 1 .2.04Z"
        />
        <path
          data-name="Path 5216"
          d="m77.07 28.2-.06.57a.11.11 0 0 1-.22-.03l.07-.57a.1.1 0 0 1 .21.03Z"
        />
        <path
          data-name="Path 5217"
          d="m76.9 30.09-.02.56a.12.12 0 1 1-.24 0l.03-.58a.12.12 0 0 1 .24.01Z"
        />
        <path
          data-name="Path 5218"
          d="M76.87 31.98v.57a.13.13 0 0 1-.26 0v-.57a.13.13 0 0 1 .26 0Z"
        />
        <path
          data-name="Path 5219"
          d="m76.94 33.87.05.57a.14.14 0 0 1-.29.02l-.04-.57a.14.14 0 0 1 .28-.02Z"
        />
        <path
          data-name="Path 5220"
          d="m77.14 35.76.08.56a.15.15 0 0 1-.3.04l-.08-.57a.15.15 0 0 1 .3-.04Z"
        />
        <path
          data-name="Path 5221"
          d="m77.45 37.62.1.56a.17.17 0 1 1-.32.07l-.1-.57a.16.16 0 0 1 .31-.06Z"
        />
        <path
          data-name="Path 5222"
          d="m77.86 39.47.14.55a.18.18 0 0 1-.34.09l-.14-.56a.17.17 0 0 1 .34-.08Z"
        />
        <path
          data-name="Path 5223"
          d="m78.37 41.3.17.53a.19.19 0 1 1-.36.12l-.16-.55a.18.18 0 0 1 .35-.11Z"
        />
        <path
          data-name="Path 5224"
          d="m78.97 43.09.2.53a.2.2 0 1 1-.37.14l-.2-.54a.2.2 0 0 1 .37-.14Z"
        />
        <path
          data-name="Path 5225"
          d="m79.65 44.85.22.52a.2.2 0 1 1-.38.16l-.22-.53a.2.2 0 0 1 .38-.16Z"
        />
        <path
          data-name="Path 5226"
          d="m80.41 46.59.24.51a.22.22 0 0 1-.4.19l-.24-.53a.22.22 0 0 1 .4-.18Z"
        />
        <path
          data-name="Path 5227"
          d="m81.24 48.29.26.5a.23.23 0 1 1-.41.21l-.26-.51a.23.23 0 0 1 .4-.2Z"
        />
        <path
          data-name="Path 5228"
          d="m82.12 49.96.28.5a.24.24 0 0 1-.42.24l-.27-.5a.24.24 0 0 1 .41-.23Z"
        />
        <path
          data-name="Path 5229"
          d="m83.06 51.6.3.5a.25.25 0 0 1-.43.25l-.3-.5a.25.25 0 0 1 .43-.25Z"
        />
        <path
          data-name="Path 5230"
          d="m84.06 53.22.3.48a.26.26 0 1 1-.44.28l-.3-.49a.26.26 0 0 1 .44-.27Z"
        />
        <path
          data-name="Path 5231"
          d="m85.1 54.8.31.48a.27.27 0 0 1-.45.3l-.32-.48a.27.27 0 0 1 .45-.3Z"
        />
        <path
          data-name="Path 5232"
          d="m86.17 56.37.32.47a.28.28 0 0 1-.46.32l-.32-.47a.28.28 0 0 1 .45-.32Z"
        />
      </g>
      <g data-name="Group 4613" fill="#fff">
        <path
          data-name="Path 5233"
          d="m49.54 38.12.35.45a.14.14 0 0 1-.21.17l-.35-.44a.14.14 0 0 1 .02-.2.14.14 0 0 1 .19.02Z"
        />
        <path
          data-name="Path 5234"
          d="m50.73 39.6.37.44a.15.15 0 0 1-.23.2l-.36-.45a.14.14 0 0 1 .22-.18Z"
        />
        <path
          data-name="Path 5235"
          d="m51.96 41.05.37.43a.15.15 0 0 1-.23.2l-.37-.43a.15.15 0 0 1 .23-.2Z"
        />
        <path
          data-name="Path 5236"
          d="m53.2 42.48.39.43a.16.16 0 1 1-.24.21l-.38-.43a.16.16 0 0 1 .24-.2Z"
        />
        <path
          data-name="Path 5237"
          d="m54.49 43.88.39.42a.17.17 0 1 1-.25.23l-.38-.42a.17.17 0 0 1 .24-.23Z"
        />
        <path
          data-name="Path 5238"
          d="m55.8 45.26.4.4a.18.18 0 1 1-.25.25l-.4-.41a.17.17 0 0 1 .25-.24Z"
        />
        <path
          data-name="Path 5239"
          d="m57.13 46.6.41.4a.18.18 0 1 1-.26.27l-.4-.4a.18.18 0 0 1 .26-.26Z"
        />
        <path
          data-name="Path 5240"
          d="m58.5 47.93.4.39a.19.19 0 0 1-.25.28l-.41-.4a.19.19 0 0 1 .25-.28Z"
        />
        <path
          data-name="Path 5241"
          d="m59.88 49.22.43.39a.2.2 0 0 1-.27.29l-.42-.39a.2.2 0 0 1 .26-.29Z"
        />
        <path
          data-name="Path 5242"
          d="m61.3 50.49.43.37a.2.2 0 1 1-.27.31l-.43-.38a.2.2 0 0 1 .27-.3Z"
        />
        <path
          data-name="Path 5243"
          d="m62.74 51.73.43.36a.21.21 0 0 1-.27.33l-.44-.37a.21.21 0 0 1 .27-.32Z"
        />
        <path
          data-name="Path 5244"
          d="m64.2 52.93.44.36a.22.22 0 1 1-.27.34l-.44-.36a.22.22 0 0 1 .27-.34Z"
        />
        <path
          data-name="Path 5245"
          d="m65.69 54.11.45.35a.23.23 0 0 1-.28.36l-.45-.35a.22.22 0 0 1 .28-.36Z"
        />
        <path
          data-name="Path 5246"
          d="m67.2 55.26.45.34a.23.23 0 1 1-.28.37l-.45-.34a.23.23 0 0 1 .27-.37Z"
        />
        <path
          data-name="Path 5247"
          d="m68.73 56.38.46.33a.24.24 0 1 1-.28.4l-.46-.34a.24.24 0 0 1 .28-.39Z"
        />
        <path
          data-name="Path 5248"
          d="m70.28 57.47.47.32a.25.25 0 1 1-.28.41l-.47-.33a.25.25 0 0 1 .28-.4Z"
        />
        <path
          data-name="Path 5249"
          d="m71.86 58.53.47.3a.26.26 0 0 1-.28.44l-.47-.32a.25.25 0 0 1 .28-.42Z"
        />
        <path
          data-name="Path 5250"
          d="m73.45 59.55.49.3a.26.26 0 1 1-.28.45l-.49-.31a.26.26 0 0 1 .28-.44Z"
        />
        <path
          data-name="Path 5251"
          d="m75.07 60.54.49.3a.27.27 0 1 1-.28.46l-.49-.3a.27.27 0 0 1 .28-.46Z"
        />
        <path
          data-name="Path 5252"
          d="m76.7 61.5.5.28a.28.28 0 0 1-.27.49l-.5-.3a.28.28 0 0 1 .27-.47Z"
        />
        <path
          data-name="Path 5253"
          d="m78.36 62.43.5.27a.28.28 0 0 1-.27.5l-.5-.28a.28.28 0 0 1 .27-.5Z"
        />
      </g>
      <g data-name="Group 4614" fill="#fff">
        <path
          data-name="Path 5254"
          d="m39.54 70.27.57-.06a.17.17 0 0 1 .04.33l-.57.06a.17.17 0 0 1-.03-.33Z"
        />
        <path
          data-name="Path 5255"
          d="m41.44 70.08.57-.05a.18.18 0 1 1 .03.35l-.57.05a.17.17 0 0 1-.03-.35Z"
        />
        <path
          data-name="Path 5256"
          d="m43.34 69.94.57-.04a.18.18 0 1 1 .03.37l-.57.03a.18.18 0 0 1-.02-.36Z"
        />
        <path
          data-name="Path 5257"
          d="m45.24 69.83.57-.02a.19.19 0 1 1 .02.38l-.57.02a.19.19 0 0 1-.02-.38Z"
        />
        <path
          data-name="Path 5258"
          d="m47.15 69.77.57-.02a.2.2 0 1 1 0 .4l-.56.01a.2.2 0 0 1 0-.39Z"
        />
        <path
          data-name="Path 5259"
          d="M49.05 69.73h.58a.2.2 0 1 1 0 .41h-.57a.2.2 0 0 1 0-.4Z"
        />
        <path
          data-name="Path 5260"
          d="m50.96 69.74.57.01a.21.21 0 1 1 0 .43l-.58-.02a.21.21 0 0 1 .01-.42Z"
        />
        <path
          data-name="Path 5261"
          d="m52.86 69.79.58.02a.22.22 0 1 1-.02.44l-.57-.02a.22.22 0 0 1 .02-.44Z"
        />
        <path
          data-name="Path 5262"
          d="m54.77 69.88.57.03a.23.23 0 1 1-.03.46l-.56-.04a.23.23 0 0 1 .02-.45Z"
        />
        <path
          data-name="Path 5263"
          d="m56.67 70 .57.06a.24.24 0 1 1-.04.46l-.57-.05a.23.23 0 0 1 .04-.46Z"
        />
        <path
          data-name="Path 5264"
          d="m58.57 70.18.57.06a.24.24 0 0 1-.05.49l-.57-.07a.24.24 0 0 1 .06-.48Z"
        />
        <path
          data-name="Path 5265"
          d="m60.47 70.4.56.08a.25.25 0 1 1-.06.5l-.57-.08a.25.25 0 0 1 .07-.5Z"
        />
        <path
          data-name="Path 5266"
          d="m62.36 70.68.56.1a.26.26 0 1 1-.08.5l-.56-.1a.26.26 0 0 1 .08-.5Z"
        />
        <path
          data-name="Path 5267"
          d="m64.24 71 .56.12a.27.27 0 1 1-.1.52l-.56-.11a.26.26 0 0 1 .1-.52Z"
        />
        <path
          data-name="Path 5268"
          d="m66.1 71.4.57.13a.27.27 0 0 1-.13.53l-.55-.13a.27.27 0 0 1 .12-.53Z"
        />
        <path
          data-name="Path 5269"
          d="m67.96 71.86.55.15a.28.28 0 0 1-.14.55l-.56-.16a.28.28 0 0 1 .15-.54Z"
        />
      </g>
      <g data-name="Group 4615" fill="#fff">
        <path
          data-name="Path 5270"
          d="m115.93 35.97-.52.25a.13.13 0 0 1-.1-.24l.51-.24a.13.13 0 0 1 .11.23Z"
        />
        <path
          data-name="Path 5271"
          d="m114.23 36.82-.5.28a.14.14 0 0 1-.13-.25l.5-.27a.14.14 0 0 1 .13.24Z"
        />
        <path
          data-name="Path 5272"
          d="m112.6 37.77-.49.3a.15.15 0 1 1-.16-.26l.49-.3a.15.15 0 0 1 .15.25Z"
        />
        <path
          data-name="Path 5273"
          d="m111 38.8-.46.32a.16.16 0 1 1-.18-.26l.47-.32a.16.16 0 0 1 .18.26Z"
        />
        <path
          data-name="Path 5274"
          d="m109.48 39.92-.45.35a.17.17 0 1 1-.2-.27l.45-.35a.17.17 0 0 1 .2.26Z"
        />
        <path
          data-name="Path 5275"
          d="m108.02 41.12-.43.37a.18.18 0 0 1-.23-.27l.43-.37a.18.18 0 0 1 .23.26Z"
        />
        <path
          data-name="Path 5276"
          d="m106.62 42.4-.4.4a.19.19 0 0 1-.27-.28l.41-.4a.19.19 0 0 1 .26.27Z"
        />
        <path
          data-name="Path 5277"
          d="m105.3 43.74-.4.42a.2.2 0 1 1-.28-.27l.39-.42a.2.2 0 0 1 .28.27Z"
        />
        <path
          data-name="Path 5278"
          d="m104.04 45.16-.36.43a.2.2 0 0 1-.32-.26l.37-.44a.2.2 0 0 1 .31.26Z"
        />
        <path
          data-name="Path 5279"
          d="m102.86 46.64-.34.45a.22.22 0 1 1-.35-.26l.35-.46a.21.21 0 0 1 .34.26Z"
        />
        <path
          data-name="Path 5280"
          d="m101.76 48.18-.31.47a.23.23 0 1 1-.38-.25l.32-.48a.22.22 0 0 1 .37.25Z"
        />
        <path
          data-name="Path 5281"
          d="m100.75 49.77-.29.49a.24.24 0 1 1-.4-.24l.3-.5a.23.23 0 0 1 .4.25Z"
        />
        <path
          data-name="Path 5282"
          d="m99.82 51.42-.26.5a.25.25 0 0 1-.44-.23l.27-.5a.24.24 0 0 1 .43.22Z"
        />
        <path
          data-name="Path 5283"
          d="m98.98 53.1-.23.52a.26.26 0 0 1-.47-.2l.25-.53a.25.25 0 0 1 .46.21Z"
        />
        <path
          data-name="Path 5284"
          d="m98.24 54.84-.2.53a.27.27 0 0 1-.5-.19l.21-.53a.26.26 0 0 1 .5.19Z"
        />
        <path
          data-name="Path 5285"
          d="m97.6 56.62-.18.53a.28.28 0 0 1-.52-.17l.18-.54a.27.27 0 0 1 .52.17Z"
        />
        <path
          data-name="Path 5286"
          d="m97.05 58.42-.14.55a.29.29 0 1 1-.55-.15l.15-.55a.28.28 0 0 1 .54.14Z"
        />
      </g>
      <g data-name="Group 4616" opacity=".48" fill="#fff">
        <path
          data-name="Path 5287"
          d="M83.8 95.77a21.94 21.94 0 0 1-10.68-7.37 20.62 20.62 0 0 1-4.48-14.88 18.52 18.52 0 0 1 7.29-13.07 19.72 19.72 0 0 1 15.05-3.66 21.89 21.89 0 0 1 13.86 8.1 20.62 20.62 0 0 1 4.48 14.89 18.52 18.52 0 0 1-7.29 13.07 19.72 19.72 0 0 1-15.05 3.66 21.82 21.82 0 0 1-3.19-.74Zm9.46-35.4a17.67 17.67 0 0 0-2.58-.6 16.24 16.24 0 0 0-12.4 3.04 15.9 15.9 0 0 0-6.23 11.23 17.7 17.7 0 0 0 3.82 12.78 18.04 18.04 0 0 0 11.41 6.71 16.24 16.24 0 0 0 12.4-3.04 15.9 15.9 0 0 0 6.23-11.24 17.7 17.7 0 0 0-3.82-12.78 18.16 18.16 0 0 0-8.83-6.1Z"
        />
        <path
          data-name="Path 5288"
          d="M86.16 88.27a12.75 12.75 0 0 1-8.51-13.37 11.6 11.6 0 0 1 4.5-8.2 10.54 10.54 0 0 1 8.04-2.05 11.11 11.11 0 0 1 1.6.37 12.75 12.75 0 0 1 8.52 13.37 11.6 11.6 0 0 1-4.5 8.21 10.54 10.54 0 0 1-8.04 2.05 11.11 11.11 0 0 1-1.6-.38Z"
        />
      </g>
      <g data-name="Group 4625">
        <g data-name="Group 4624">
          <path
            data-name="Path 5289"
            d="m1122.55 2787.23.24 2.42 1.72-.69-.25-1.73Z"
            transform="translate(-1019.3 -2701.14)"
            fill="url(#d)"
          />
          <g data-name="Group 4617" transform="translate(87.53 75.3)">
            <path
              data-name="Path 5290"
              d="m1029.34 2719.05 3.36-.04-.25.6c2.59 1.3 4.42 4.6 4.42 8.45 0 3.77-1.74 7-4.22 8.37v.7l-2.36-.02-.3.01c-3.8 0-6.88-4.05-6.88-9.05 0-4.72 2.74-8.59 6.23-9.02Z"
              transform="translate(-1023.12 -2719)"
              fill="url(#o)"
            />
            <ellipse
              data-name="Ellipse 36"
              cx="6.88"
              cy="9.06"
              rx="6.88"
              ry="9.06"
              transform="translate(2.4)"
              fill="url(#p)"
            />
            <path
              data-name="Path 5291"
              d="M4.07 16.91a.22.22 0 0 0 .13-.4c-.03-.02-3.01-2.41-2.7-8.45C1.8 2.04 6 .72 6.04.7A.22.22 0 0 0 5.92.3C5.87.3 1.38 1.7 1.05 8.03c-.32 6.3 2.75 8.73 2.88 8.83a.22.22 0 0 0 .14.05Z"
              fill="#bdd0fb"
            />
          </g>
          <path
            data-name="Path 5292"
            d="M1277.63 2789.38c.12 0 1.84-2.66.95-3.4s-3.98-.99-4.22-.87-.38 4.27-.38 4.27Z"
            transform="translate(-1146.8 -2699.34)"
            fill="url(#q)"
          />
          <path
            data-name="Path 5293"
            d="m1120.53 2777.25-.24-.02-41.45-3.7s-.92.4 0 1.14 40.45 4.67 40.45 4.67Z"
            transform="translate(-982.16 -2689.6)"
            fill="url(#r)"
          />
          <path
            data-name="Path 5294"
            d="M1122.19 2780.55s-.35-.69.54-.69 1.07-.27 1.07-.27-.71-.54-.27-.56.99.05 1.18.38-.3 1.15-.3 1.15-2 .45-2.22 0Z"
            transform="translate(-1018.94 -2694.23)"
            fill="url(#s)"
          />
          <path
            data-name="Path 5295"
            d="m1241.23 2836.07 1.65 3.3s6.59 13.38 4.07 13.29-10.38-11.35-10.38-11.35Z"
            transform="translate(-1115.3 -2742.26)"
            fill="url(#t)"
          />
          <path
            data-name="Path 5296"
            d="M1035.03 2986.11c-.72 0-13.55-1.12-14.86 1.5s.85 29.85.85 29.85h3.34l1.84-22.79 8.83 1.65Z"
            transform="translate(-932.75 -2868.38)"
            fill="url(#u)"
          />
          <path
            data-name="Path 5297"
            d="M1132.32 3063.72s7.95 20.94 9.8 20.75 21.8-3.69 21.8-3.69l-.48-3.4-18.42-.38-2.52-16.48Z"
            transform="translate(-1027.53 -2931.23)"
            fill="url(#v)"
          />
          <path
            data-name="Path 5298"
            d="m1121.5 3054.06 1.76 3.19 12.2-2.4v-3.53Z"
            transform="translate(-1018.42 -2923.48)"
            fill="url(#w)"
          />
          <path
            data-name="Path 5299"
            d="M1118.27 2768s-15.12.73-16.14 9.16 2.18 24.29 2.18 24.29l15.56-1.46s-1.6-16 1.16-17.74l2.38 3.1 5.72-6.4s-5.62-9.2-10.86-10.95Z"
            transform="translate(-1001.94 -2684.95)"
            fill="url(#x)"
          />
          <path
            data-name="Path 5300"
            d="M1122.5 2970.37s5.04 15.13-5.29 16.15-12.18-2.48-12.18-2.48v-12.21l17.67-1.46Z"
            transform="translate(-1004.55 -2855.33)"
            fill="url(#y)"
          />
          <path
            data-name="Path 5301"
            d="m1150.53 2708.28 2.65 9.33s-4.53 2.43-7.88 1.77l-.92-8.22Z"
            transform="translate(-1037.69 -2634.67)"
            fill="url(#z)"
          />
          <g data-name="Group 4618">
            <path
              data-name="Path 5302"
              d="M1132.43 2663.85c-.07.13-1.6 9.66-1.6 9.66l5.46.76 2.8-8.83s-5.48-3.73-6.66-1.6Z"
              transform="translate(-1026.28 -2596.7)"
              fill="url(#A)"
            />
            <path
              data-name="Path 5303"
              d="m1134.2 2647.77-1.1 4.76a.67.67 0 0 1-.07.18c-.19.33-.9 1.44-2 .64a6.13 6.13 0 0 0-2.69-1.44.68.68 0 0 0-.72.58 29.5 29.5 0 0 0-.4 4.56.68.68 0 0 0 .64.67 22.02 22.02 0 0 0 5.12-.15.68.68 0 0 0 .53-.46c.38-1.16 1.56-4.69 2.04-5.62.45-.88 1.78-1 2.34-1.02a.67.67 0 0 0 .48-.21 1.77 1.77 0 0 0-.2-2.84.68.68 0 0 1-.1-.98 1.77 1.77 0 0 0-.06-2.64 2.5 2.5 0 0 0-3.05-.38.68.68 0 0 1-.85-.2.54.54 0 0 0-.58-.2.67.67 0 0 1-.8-.61 2.04 2.04 0 0 0-1.8-1.94c-2.4-.46-3.6 1.94-3.55 3.63s2.68 2.04 4.17 1.76c1.14-.21 2.11.83 2.52 1.34a.68.68 0 0 1 .12.57Z"
              transform="translate(-1023.24 -2577.53)"
              fill="url(#B)"
            />
            <path
              data-name="Path 5304"
              d="M1177.2 2703.98s.05-2.95 1.24-3.23 2.48.59 1.46 2.35c-1.26 2.2-2.7.88-2.7.88Z"
              transform="translate(-1065.32 -2628.3)"
              fill="url(#C)"
            />
          </g>
          <path
            data-name="Path 5305"
            d="M1268.79 2805.68a21.2 21.2 0 0 1-2.4-7.88c-.34-4.3 0-11.98 0-11.98s-2.76-.17-2.69-1.7 1-4.29 1.63-3.05a14.91 14.91 0 0 1 .91 2.18s2.99 1.16 2.91 2.62 6.18 23.34-.36 19.82Z"
            transform="translate(-1138.14 -2695.7)"
            fill="url(#D)"
          />
          <g data-name="Group 4619" transform="translate(135.23 77.33)">
            <path
              data-name="Path 5306"
              d="m1332.55 2731.94 4.13-.04-.3.8c3.19 1.76 5.45 6.22 5.45 11.44 0 5.08-2.15 9.45-5.2 11.3v.94l-2.91-.01-.37.01c-4.68 0-8.47-5.48-8.47-12.24 0-6.38 3.36-11.6 7.67-12.2Z"
              transform="translate(-1324.88 -2731.89)"
              fill="url(#E)"
            />
            <ellipse
              data-name="Ellipse 37"
              cx="8.47"
              cy="12.24"
              rx="8.47"
              ry="12.24"
              transform="translate(2.95)"
              fill="url(#F)"
            />
            <path
              data-name="Path 5307"
              d="M5.01 22.79a.22.22 0 0 0 .14-.4c-.03-.02-3.74-3.28-3.36-11.5C2.17 2.7 7.4.91 7.44.9A.22.22 0 0 0 7.3.47c-.05.02-5.55 1.9-5.95 10.4-.4 8.45 3.36 11.73 3.52 11.87a.22.22 0 0 0 .14.05Z"
              fill="#bdd0fb"
            />
          </g>
          <path
            data-name="Path 5308"
            d="M1397.69 2805.26s-1.45.39-.87 1.2a2.85 2.85 0 0 0 2.03.8l6.94.64s1.2-1.46 0-1.84-8.1-.8-8.1-.8Z"
            transform="translate(-1250.1 -2716.32)"
            fill="url(#G)"
          />
          <path
            data-name="Path 5309"
            d="M1273.98 2782.17s.1-1.76 1.72-1.52 3.65 1.46 2.7 1.94-3.81.22-4.42-.42Z"
            transform="translate(-1146.8 -2695.58)"
            fill="url(#H)"
          />
          <path
            data-name="Path 5310"
            d="M1322.7 3160.53a15.26 15.26 0 0 0-.52-3.4c.85-1.08 2-2.32 3.37-1.74s.8 12.15.8 12.15-5.2 1.01-5.5 0 1.85-1.97 1.85-1.97Z"
            transform="translate(-1186.24 -3010.97)"
            fill="url(#I)"
          />
          <path
            data-name="Path 5311"
            d="M982.8 3210.76s.92 3.22 0 3.2-12.66.3-12.66.3-.56-3.6 4.01-3.5 4.7-.77 4.7-.77 3.32 1.16 3.94.77Z"
            transform="translate(-890.97 -3057.07)"
            fill="url(#J)"
          />
          <path
            data-name="Path 5312"
            d="m128.98 146.01.57 4.73 1.02-.18.36-.06.21-.04.37-.06 4.89-.85s.34-2.95-.49-3.4l-4.73-.1H130.35Z"
            fill="#fff"
          />
          <g data-name="Group 4620">
            <path
              data-name="Path 5313"
              d="m1297.67 3166.56.21 4.41.37-.06-.33-4.34Z"
              transform="translate(-1166.74 -3020.5)"
              fill="url(#K)"
            />
            <path
              data-name="Path 5314"
              d="m1294 3166.49.2 4.52.38-.06-.34-4.46Z"
              transform="translate(-1163.64 -3020.44)"
              fill="url(#L)"
            />
          </g>
          <g data-name="Group 4622">
            <path
              data-name="Path 5315"
              d="M87.87 152.93s2.9 1.8 4 .93l-.13-4.02-.02-.35v-.24l-.02-.35-.02-.73-3.63-.21-.02.58-.01.27-.01.31-.01.27Z"
              fill="#fff"
            />
            <g data-name="Group 4621">
              <path
                data-name="Path 5316"
                d="m1026.2 3182.52 3.7.44v-.34l-3.69-.37Z"
                transform="translate(-938.2 -3033.71)"
                fill="url(#M)"
              />
              <path
                data-name="Path 5317"
                d="m1026.08 3186.22 3.74.45-.01-.35-3.72-.37Z"
                transform="translate(-938.09 -3036.83)"
                fill="url(#N)"
              />
            </g>
          </g>
          <path
            data-name="Path 5318"
            d="M1122.65 2775.75s-.14-.32.17-.3c.27-.47-1.02-.5-2.01-.6s-1.21.67-.75.82 2.18.46 2.6.08Z"
            transform="translate(-1017.01 -2690.72)"
            fill="url(#O)"
          />
          <g data-name="Group 4623">
            <path
              data-name="Path 5319"
              d="M1129.82 2779.03a.07.07 0 0 0 .03-.14c-.21-.11-.44-.3-.43-.38 0-.02.04-.04.07-.06.35-.15.96.16.97.17a.07.07 0 1 0 .06-.13 1.59 1.59 0 0 0-1.1-.17c-.12.05-.15.13-.15.19 0 .22.43.46.52.5a.07.07 0 0 0 .03.02Z"
              transform="translate(-1024.96 -2693.6)"
              fill="url(#P)"
            />
          </g>
        </g>
        <path
          data-name="Path 5320"
          d="M107.3 131.31a32.31 32.31 0 0 0 8.12-1.2.17.17 0 0 0-.1-.33c-.07.03-7.56 2.26-12.34.57a.17.17 0 0 0-.11.32 13.55 13.55 0 0 0 4.43.64Z"
          fill="#7d97f4"
        />
      </g>
      <g data-name="Group 4627">
        <path
          data-name="Path 5321"
          d="M912.35 2289.45c0 7.73-7.26 14-15 14a14 14 0 0 1 0-28.01c7.74 0 15 6.27 15 14Z"
          transform="translate(-817.91 -2270.26)"
          fill="url(#Q)"
        />
        <path
          data-name="Path 5322"
          d="M91.37 19.19A11.5 11.5 0 0 1 75.7 29.9a11.48 11.48 0 0 1-7.1-8.42 11.52 11.52 0 0 1 0-4.59 11.5 11.5 0 0 1 22.76 2.3Zm-1.54 0a9.38 9.38 0 0 0-.2-1.9 9.12 9.12 0 0 0-.58-1.8 9.43 9.43 0 0 0-2.24-3.1 10 10 0 0 0-3.3-2 10.28 10.28 0 0 0-3.81-.62 10.07 10.07 0 0 0-6.82 2.9 9.42 9.42 0 0 0-2.04 3.01 9.03 9.03 0 0 0 0 7.01 9.43 9.43 0 0 0 2.04 3.01 10.07 10.07 0 0 0 6.82 2.9A10.27 10.27 0 0 0 83.5 28a10 10 0 0 0 3.3-2 9.44 9.44 0 0 0 2.24-3.1 9.13 9.13 0 0 0 .58-1.81 9.38 9.38 0 0 0 .2-1.9Z"
          fill="#fff"
          opacity=".65"
        />
        <g data-name="Group 4626" fill="#fff">
          <path
            data-name="Path 5323"
            d="m76.7 22.39-2.94.08-.37-4.76 2.93-.17Z"
          />
          <path data-name="Path 5324" d="m81 22.26-3.17.1-.56-7.27 3.16-.23Z" />
          <path
            data-name="Path 5325"
            d="m85.54 22.14-3.3.09-.74-9.6 3.29-.28Z"
          />
          <path
            data-name="Path 5326"
            d="m86.3 24.31-12.98.21-.08-1.07 12.98-.29Z"
          />
        </g>
      </g>
      <g data-name="Group 4629">
        <path
          data-name="Path 5327"
          d="M1157.66 2372.24c0 7.74-7.26 14.01-15 14.01a14 14 0 0 1 0-28.02c7.74 0 15 6.28 15 14.01Z"
          transform="translate(-1024.45 -2339.97)"
          fill="url(#R)"
        />
        <path
          data-name="Path 5328"
          d="M130.15 32.28a11.5 11.5 0 0 1-15.66 10.71 11.48 11.48 0 0 1-6.41-6.22 11.46 11.46 0 0 1-.68-2.2 11.52 11.52 0 0 1 0-4.58 11.49 11.49 0 0 1 3.26-5.98 11.5 11.5 0 0 1 18.65 3.97 11.45 11.45 0 0 1 .84 4.3Zm-1.53 0a9.37 9.37 0 0 0-.2-1.9 9.12 9.12 0 0 0-.6-1.8 9.44 9.44 0 0 0-2.23-3.1 10.01 10.01 0 0 0-3.3-2 10.27 10.27 0 0 0-3.81-.62 10.07 10.07 0 0 0-6.82 2.9 9.42 9.42 0 0 0-2.04 3.01 9.03 9.03 0 0 0 0 7.01 9.42 9.42 0 0 0 2.04 3.01 10.07 10.07 0 0 0 6.82 2.9 10.27 10.27 0 0 0 3.81-.61 10 10 0 0 0 3.3-2 9.44 9.44 0 0 0 2.24-3.1 9.11 9.11 0 0 0 .59-1.81 9.37 9.37 0 0 0 .2-1.9Z"
          fill="#fff"
          opacity=".65"
        />
        <g data-name="Group 4628" transform="translate(112.36 26)">
          <rect
            data-name="Rectangle 42"
            width="12.7"
            height="12.85"
            rx="6.35"
            fill="#fff"
          />
          <path
            data-name="Path 5329"
            d="M1204.93 2419.05a4.31 4.31 0 0 0-7.28 0 .15.15 0 0 0 .04.19l1.62 1.2c.02.02.05-.01.08-.01h3.8c.02 0 .05.03.08 0l1.62-1.21a.12.12 0 0 0 .04-.17Z"
            transform="translate(-1194.87 -2415.47)"
            fill="url(#S)"
          />
          <path
            data-name="Path 5330"
            d="m5.64 4.57-.9-1.89a.05.05 0 0 0-.09.03l.13 1.88a.05.05 0 0 0 .05.05h.77a.05.05 0 0 0 .04-.02.06.06 0 0 0 0-.05Z"
            fill="#fff"
          />
        </g>
      </g>
      <g data-name="Group 4630">
        <path
          data-name="Path 5331"
          d="M656.25 2354.07c0 7.74 7.26 14.01 15 14.01a14 14 0 1 0 0-28.02c-7.75 0-15 6.28-15 14.01Z"
          transform="translate(-626.72 -2324.67)"
          fill="url(#T)"
        />
        <path
          data-name="Path 5332"
          d="M33.43 25.1a11.49 11.49 0 0 1 21.91 2.01 11.52 11.52 0 0 1 0 4.59 11.5 11.5 0 1 1-21.91-6.6Zm.9 6.2a9.12 9.12 0 0 0 .59 1.8 9.43 9.43 0 0 0 2.23 3.1 10 10 0 0 0 3.3 2 10.28 10.28 0 0 0 3.81.62 10.07 10.07 0 0 0 6.82-2.9 9.42 9.42 0 0 0 2.04-3.01 9.03 9.03 0 0 0 0-7.01 9.43 9.43 0 0 0-2.04-3.01 10.07 10.07 0 0 0-6.82-2.9 10.27 10.27 0 0 0-3.81.61 10 10 0 0 0-3.3 2 9.43 9.43 0 0 0-2.23 3.1 9.1 9.1 0 0 0-.6 1.81 9.03 9.03 0 0 0 0 3.78Z"
          fill="#fff"
          opacity=".65"
        />
        <path
          data-name="Path 5333"
          d="M44.12 22.36a.57.57 0 0 0-.93 0c-1.26 1.77-4.62 6.71-4.62 9a5.08 5.08 0 1 0 10.17 0c0-2.28-3.37-7.23-4.62-9Zm-1.48 12.51a.28.28 0 0 1-.33.21 3.42 3.42 0 0 1-2.35-1.56 4.3 4.3 0 0 1-.3-3.1.28.28 0 0 1 .54.17 3.78 3.78 0 0 0 .25 2.65 2.89 2.89 0 0 0 1.98 1.3.28.28 0 0 1 .21.33Z"
          fill="#fff"
        />
      </g>
      <g data-name="Group 4632">
        <path
          data-name="Path 5334"
          d="M605.25 2578.97c0 7.74 7.26 14 15 14a14 14 0 0 0 0-28c-7.74 0-15 6.26-15 14Z"
          transform="translate(-583.79 -2514.01)"
          fill="url(#U)"
        />
        <path
          data-name="Path 5335"
          d="M25.37 60.66a11.49 11.49 0 0 1 21.91 2 11.52 11.52 0 0 1 0 4.6 11.5 11.5 0 1 1-21.91-6.6Zm.9 6.19a9.11 9.11 0 0 0 .58 1.8 9.44 9.44 0 0 0 2.24 3.1 10 10 0 0 0 3.3 2 10.27 10.27 0 0 0 3.81.62 10.07 10.07 0 0 0 6.82-2.9 9.42 9.42 0 0 0 2.04-3 9.03 9.03 0 0 0 0-7.02 9.42 9.42 0 0 0-2.04-3 10.07 10.07 0 0 0-6.82-2.9 10.27 10.27 0 0 0-3.81.6 10 10 0 0 0-3.3 2 9.43 9.43 0 0 0-2.24 3.1 9.11 9.11 0 0 0-.58 1.82 9.03 9.03 0 0 0 0 3.78Z"
          fill="#fff"
          opacity=".65"
        />
        <g
          data-name="Group 4631"
          transform="translate(28.06 60.09)"
          fill="#fff"
        >
          <rect
            data-name="Rectangle 43"
            width="2.64"
            height="10.17"
            rx="1.32"
            transform="translate(1.32)"
          />
          <rect
            data-name="Rectangle 44"
            width=".94"
            height="3.58"
            rx=".47"
            transform="translate(0 3.3)"
          />
          <rect
            data-name="Rectangle 45"
            width="2.64"
            height="10.17"
            rx="1.32"
            transform="rotate(180 7.44 5.09)"
          />
          <rect
            data-name="Rectangle 46"
            width=".94"
            height="3.58"
            rx=".47"
            transform="rotate(180 8.1 3.44)"
          />
          <rect
            data-name="Rectangle 47"
            width="7.53"
            height="1.43"
            rx=".72"
            transform="translate(4.33 4.32)"
          />
        </g>
      </g>
    </g>
  </svg>