<?xml version="1.0" encoding="utf-8"?>
<!-- Generator: Adobe Illustrator 23.1.0, SVG Export Plug-In . SVG Version: 6.00 Build 0)  -->
<svg version="1.1" id="Layer_1" xmlns="http://www.w3.org/2000/svg" xmlns:xlink="http://www.w3.org/1999/xlink" x="0px" y="0px"
	 viewBox="0 0 880 980" style="enable-background:new 0 0 880 980;" xml:space="preserve">
<g>
	<path style="fill:#FFFFFF;" d="M854.5,0h11.3c6.5,3.2,11.7,8.4,14.2,15.2v7.3c-49,255.7-98.5,511.4-148.6,766.9
		c-3.5,16.5-6.3,33.2-10.6,49.6c-2.6,10.7-7.4,20.9-14.6,29.3c-17.1,19.4-46.8,28.8-71,17.6c-37.6-17.8-75-36.1-112.2-54.8
		c-62.5-31.4-125.5-62.1-187.1-95.2c4.2-6.8,8.5-13.4,13.2-19.8C470,547.5,594.1,381.2,716.9,213.9
		c37.8-51.3,75.7-102.5,113.3-153.9c-7.7,6.7-14.5,14.3-21.4,21.8C637.6,265.6,467.3,450.3,296.5,634.5
		c-16.9,18.6-34.4,36.6-50.9,55.6c-41.4-20.7-82.3-42.2-123.6-63.2c-32-16.9-64.7-32.7-96-51c-14.4-7.7-23.5-22.5-26-38.4v-19.9
		c1-5,2.2-9.9,3.9-14.6c4.6-12.4,15.5-20.8,26.1-27.8c17.2-11.2,35.4-20.6,52.9-31.1C331.1,300.3,579.6,157.3,827.9,13.8
		C836.5,8.8,845.3,3.9,854.5,0z"/>
	<path style="fill:#FFFFFF;" d="M208.7,744.6c7.7,2.5,15.1,5.8,22.4,9.2c83.6,38.7,167.6,76.4,250.4,116.7
		c-4.1,6.9-9.5,13.1-14.8,19.1c-23.6,27-47.6,53.7-73.6,78.4c-5.7,5.2-12.2,9.7-19.6,11.8h-18c-14.6-3.7-28.7-12.1-35.9-25.7
		c-30.6-55-60.3-110.6-89.6-166.3C223,773.5,214.5,759.7,208.7,744.6z"/>
</g>
</svg>
