<svg width="13" height="17" viewBox="0 0 13 17" fill="none" xmlns="http://www.w3.org/2000/svg">
<path d="M9.55014 0.0907834L10.3133 0.320369C11.7012 0.73794 12.7206 1.92095 12.9266 3.35315C13.2428 5.55169 12.5356 8.12145 10.8315 11.0674C9.13094 14.0072 7.25917 15.9016 5.1986 16.7304C3.84677 17.274 2.30145 16.9813 1.24322 15.981L0.665271 15.4347C-0.10933 14.7026 -0.221587 13.5113 0.402649 12.6478L1.84713 10.6497C2.24712 10.0964 2.95557 9.85848 3.60929 10.058L5.79284 10.7243L5.84927 10.7353C6.09009 10.7704 6.64508 10.2507 7.33732 9.05394C8.06152 7.80198 8.21161 7.06993 8.01167 6.88121L6.90074 5.84724C6.06816 5.07233 5.82218 3.85438 6.28895 2.81804L6.99325 1.25434C7.43182 0.280607 8.52602 -0.217325 9.55014 0.0907834ZM7.9644 1.69009L7.2601 3.25379C6.98024 3.87514 7.12772 4.60538 7.62691 5.07L8.74056 6.10651C9.453 6.77895 9.21702 7.9299 8.25944 9.58531C7.35843 11.143 6.53643 11.9127 5.6532 11.7792L5.52081 11.751L3.29799 11.0743C3.08008 11.0078 2.84393 11.0871 2.7106 11.2715L1.26612 13.2696C0.953999 13.7014 1.01013 14.297 1.39743 14.6631L1.97537 15.2094C2.73125 15.9239 3.83505 16.133 4.80064 15.7446C6.6087 15.0175 8.31746 13.288 9.90935 10.5361C11.5045 7.77847 12.1501 5.43284 11.8727 3.50417C11.7255 2.48117 10.9974 1.63616 10.006 1.33789L9.24285 1.10831C8.73079 0.954255 8.18369 1.20322 7.9644 1.69009Z" fill="#1ABC9C"/>
</svg>
