<?xml version="1.0" encoding="utf-8"?>
<!-- Generator: Adobe Illustrator 22.0.0, SVG Export Plug-In . SVG Version: 6.00 Build 0)  -->
<svg version="1.1" id="Layer_1" xmlns="http://www.w3.org/2000/svg" xmlns:xlink="http://www.w3.org/1999/xlink" x="0px" y="0px"
	 viewBox="0 0 103 103" style="enable-background:new 0 0 103 103;" xml:space="preserve">
<g>
	<g>
		<g>
			<path style="fill:#FFFFFF;" d="M7.5,25.5C15,12.6,28.3,3.3,43,0.9c14-2.5,28.9,1.2,40,10c12.1,9.2,19.6,24,19.8,39.2
				c0.7,18.9-10.3,37.8-27.1,46.3c-2-4.4-5.3-8.4-9.8-10.2c-2.8-1-5.8-1.5-8.8-1.9c-1.9-1-1.4-3.3-0.8-4.9c5.4-2,11-5,13.7-10.4
				c1.2-2.7,2.8-5.1,4.6-7.4c1.9-2.6,1-6.1-0.3-8.7c2.2-5.7,4.3-11.6,3.8-17.8c-0.2-3-2.1-5.5-3.6-8c1.4,0.3,2.6,0,3.3-0.8
				c-1-1.2-2.3-1.7-3.8-2.1c-0.1-1.7-1.2-3.5-3.1-3.4c0,0.8,0.1,2.5,0.2,3.4c-4-2.5-8.5-4-13.1-4.6c-4.7-0.8-9.9,0.4-14.1-2.4
				c-3.2-1.6-5.2-4.8-7.7-7c-2.3,2.1-2.9,5.3-1.4,8.1c-2.3,0.4-4.3-0.6-5.8-2.3c-4.4,2.8-4.2,8.8-2.5,13.1
				c-3.6,7.8-1.1,16.7,0.9,24.6c0.9,5.1-0.7,10.5,1.5,15.4c2.2,5.4,7.3,8.6,12.4,10.7c2.3,0.6,2.5,3.3,0.7,4.6
				c-3.7,1.4-8.3,1.4-11,4.7c-2,2.2-1.6,5.3-2.7,7.9C16.2,90.5,6.7,79.4,2.8,66.2C-1.4,52.7,0.3,37.6,7.5,25.5 M88.3,29.3
				c-0.7,0.8-1,3.3,0.4,3.4C89.4,31.9,89.7,29.4,88.3,29.3 M15.1,36.9c2.5,1.8,5.3-1.2,3.5-3.7C16.2,31.1,12.6,34.7,15.1,36.9
				 M83.3,34.3c0,1.4,2.6,1.2,3.3,0.4C86.6,33.3,84.1,33.6,83.3,34.3 M90.3,34.3c0,1.4,2.5,1.1,3.4,0.5
				C93.8,33.3,91.1,33.5,90.3,34.3 M88.3,36.3c-0.7,0.8-1,3.3,0.4,3.4C89.4,38.9,89.7,36.3,88.3,36.3 M85.1,59.2
				C82.8,60,82.2,63.4,84,65c1.8,2.1,5.7,0.8,5.9-2C90.5,60.4,87.5,58.1,85.1,59.2 M14.3,61.3c-1.1,1.2,0.9,3.5,2.1,2.1
				C18.2,62.1,15.7,59.8,14.3,61.3 M11.3,64.3c-1.5,1.4,0.9,3.9,2.2,2.1C14.8,65.1,12.5,63.1,11.3,64.3 M18.2,64.2
				c-1.9,0.5-0.9,3.2,0.8,2.9C21,66.7,20.1,63.2,18.2,64.2 M15.2,67.2c-1.9,0.4-1.3,3.6,0.7,2.9C17.9,69.8,16.9,66.8,15.2,67.2z"/>
			<path style="fill:#FFFFFF;" d="M84.7,63c-0.6-2.2,1.7-2.8,3.3-2C89.9,63.4,85.6,66,84.7,63z"/>
		</g>
	</g>
</g>
<g>
	<path style="fill:#606161;" d="M36.2,10.1c2.5,2.2,4.5,5.4,7.7,7c4.2,2.9,9.4,1.7,14.1,2.4c4.7,0.5,9.1,2.1,13.1,4.6
		c-0.1-0.8-0.1-2.5-0.2-3.4c1.9-0.1,3,1.7,3.1,3.4c1.4,0.4,2.8,0.9,3.8,2.1C77.1,27,76,27.3,74.5,27c1.5,2.5,3.4,5,3.6,8
		c0.4,6.2-1.6,12.1-3.8,17.8c-1.9-1.6-4.6-2.7-7-1.4c-3.9,1.8-4.9,6.8-3.5,10.5c-0.4,0-1.2-0.1-1.6-0.2c0-4.3,0.1-8.6,0.7-12.8
		c0.2-2.7,1-5.9-0.7-8.3c-1.4-2-4.1-2-6.3-2c-7.3,0.1-14.6-0.3-22,0c-5,3.2-4.8,9.8-6.6,14.8c-2-7.9-4.5-16.8-0.9-24.6
		c-1.7-4.3-1.8-10.4,2.5-13.1c1.5,1.7,3.5,2.6,5.8,2.3C33.3,15.4,33.8,12.1,36.2,10.1z"/>
</g>
<g>
	<path style="fill:#AED8FD;" d="M88.3,29.3c1.4,0,1.2,2.6,0.4,3.4C87.3,32.6,87.6,30.1,88.3,29.3z"/>
	<path style="fill:#AED8FD;" d="M15.1,36.9c-2.5-2.2,1.1-5.8,3.5-3.7C20.4,35.6,17.6,38.7,15.1,36.9z"/>
	<path style="fill:#AED8FD;" d="M83.3,34.3c0.8-0.8,3.3-1,3.3,0.4C85.9,35.5,83.4,35.7,83.3,34.3z"/>
	<path style="fill:#AED8FD;" d="M90.3,34.3c0.8-0.7,3.5-0.9,3.4,0.5C92.8,35.4,90.3,35.7,90.3,34.3z"/>
	<path style="fill:#AED8FD;" d="M88.3,36.3c1.4,0.1,1.2,2.6,0.4,3.4C87.3,39.6,87.6,37.1,88.3,36.3z"/>
	<path style="fill:#AED8FD;" d="M14.3,61.3c1.4-1.5,3.9,0.8,2.1,2.1C15.2,64.8,13.1,62.5,14.3,61.3z"/>
	<path style="fill:#AED8FD;" d="M11.3,64.3c1.2-1.2,3.5,0.8,2.2,2.1C12.1,68.2,9.8,65.7,11.3,64.3z"/>
	<path style="fill:#AED8FD;" d="M18.2,64.2c1.9-1,2.8,2.6,0.8,2.9C17.3,67.3,16.3,64.7,18.2,64.2z"/>
	<path style="fill:#AED8FD;" d="M15.2,67.2c1.7-0.5,2.7,2.6,0.7,2.9C13.9,70.8,13.3,67.7,15.2,67.2z"/>
</g>
<g>
	<path style="fill:#FEE8D7;" d="M27.4,53.7c1.9-5,1.6-11.6,6.6-14.8c7.3-0.4,14.6,0.1,22,0c2.2-0.1,4.8,0,6.3,2
		c1.8,2.4,1,5.5,0.7,8.3c-0.6,4.2-0.7,8.5-0.7,12.8c0.4,0,1.2,0.2,1.6,0.2c-1.3-3.8-0.3-8.7,3.5-10.5c2.4-1.3,5.1-0.2,7,1.4
		c1.3,2.7,2.2,6.1,0.3,8.7c-1.9,2.3-3.4,4.7-4.6,7.4c-2.7,5.4-8.3,8.4-13.8,10.3c-0.5,1.6-1,3.9,0.8,4.9C53.6,87.6,48.4,88,44,87
		c-1.3-0.2-1.6-1.5-2-2.5c1.8-1.3,1.6-4-0.7-4.6c-5.2-2.1-10.3-5.3-12.4-10.7C26.7,64.2,28.3,58.7,27.4,53.7z"/>
</g>
<g>
	<path style="fill:#7CA3D7;" d="M85.1,59.2c2.4-1.2,5.4,1.2,4.9,3.8c-0.3,2.8-4.1,4.1-5.9,2C82.2,63.5,82.8,60,85.1,59.2 M84.7,63
		c0.9,3,5.2,0.4,3.3-2C86.4,60.2,84.1,60.8,84.7,63z"/>
	<path style="fill:#7CA3D7;" d="M31.1,89c2.7-3.2,7.3-3.3,11-4.7c0.3,1,0.7,2.3,2,2.5c4.4,1.1,9.6,0.6,13.1-2.6
		c3,0.4,5.9,0.9,8.8,1.9c4.6,1.8,7.9,5.8,9.8,10.2l0.1,0.1c-14.5,7.8-32.7,7.9-47.4,0.4l0,0C29.4,94.3,29.1,91.2,31.1,89z"/>
</g>
</svg>
