<?xml version="1.0" encoding="utf-8"?>
<!-- Generator: Adobe Illustrator 22.0.0, SVG Export Plug-In . SVG Version: 6.00 Build 0)  -->
<svg version="1.1" id="Layer_1" xmlns="http://www.w3.org/2000/svg" xmlns:xlink="http://www.w3.org/1999/xlink" x="0px" y="0px"
	 viewBox="0 0 415 128" style="enable-background:new 0 0 415 128;" xml:space="preserve">
<g>
	<g>
		<g>
			<path style="fill:#DAEEFF;stroke:#A5DCF2;stroke-miterlimit:10;" d="M61.8,0h291.4c16.5,0.6,32.6,7.8,44,19.8
				c10.7,11.1,17.1,26.1,17.8,41.5v5.2c-0.6,15.5-7,30.6-17.8,41.8c-11.3,11.9-27.3,19-43.6,19.7H61.7c-16.5-0.6-32.6-7.8-44-19.8
				C7.1,97.2,0.7,82.1,0,66.8v-5.3c0.7-16.6,8.1-32.8,20.3-44.2C31.5,6.8,46.5,0.6,61.8,0 M143.5,20.5c-1.3,4.1,0.1,8.3,2.6,11.6
				c0.9-3.3,1.4-6.8,3.3-9.7c1.6-2.6,4.1-4.5,6.4-6.5c1.2,0.7,2.4,1.4,3.6,2.1c0.4,6.5-2.8,12.2-6.4,17.4c3.4-0.8,7.3-1.7,9.4-4.7
				c4.3-5.3,1.6-14.1-4.6-16.6C152.5,11.9,145.5,14.9,143.5,20.5 M210.4,24.2c1,3.9,2.1,7.8,3.1,11.7c3.1-2.5,6.1-5.1,9-8
				c-1-3.8-2.1-7.6-3.3-11.4C216.2,18.9,213.2,21.5,210.4,24.2 M165.5,54c-2.6,8.3-5,16.6-7.4,24.9c6.3,5.5,12.8,10.7,19.1,16.2
				c-0.6,3.7-1.5,7.8,0.7,11.2c3.7,2,6.2-3.6,10-3.2c2.7,5.1-0.3,11.1-0.4,16.5c1.5-5.3,3.1-11.2,1.5-16.6c-3.3-2.2-6.7,2-9.4,3.6
				c-3.1-2.5-2.8-7-1.8-10.4c2.6-8.4,5.1-16.9,7.6-25.3C178.9,65.1,172.2,59.5,165.5,54 M102.6,86.6c-3,4.6-3.3,10.6-1.8,15.8
				c2.2,5.4,6.5,10.2,12.2,12c-0.9-5.1-2.6-10.1-2.1-15.4c0.5-6,2.4-11.9,4.9-17.3c2.6-0.2,5.2-0.3,7.8-0.2
				c2.9,5.8,4.9,12.1,5.1,18.6c0.2,4.8-1.1,9.5-1.9,14.2c7.8-3.2,13.4-11.7,12.2-20.2c-1.3-9.6-10.3-17.2-19.9-17.6
				C112.5,77.2,106,80.8,102.6,86.6 M208.7,91c-0.7,3,0.9,5.7,2.3,8.2c1.1-5.2,3.5-10,7.8-13.2c1,0.4,2.1,0.9,3.1,1.3
				c0.8,5.5-2.3,10.3-5,14.8c2.8-1,6.1-1.7,7.9-4.3c3.1-4.3,1.2-11-3.5-13.3C216.4,82.3,209.7,85.5,208.7,91z"/>
		</g>
	</g>
</g>
<g>
	<path style="fill:#C6DFFA;" d="M143.5,20.5c2-5.5,9-8.6,14.4-6.4c6.2,2.5,8.8,11.3,4.6,16.6c-2.1,3.1-6,3.9-9.4,4.7
		c3.5-5.1,6.7-10.9,6.4-17.4c-1.2-0.7-2.4-1.4-3.6-2.1c-2.4,1.9-4.8,3.9-6.4,6.5c-1.9,2.9-2.4,6.4-3.3,9.7
		C143.7,28.8,142.3,24.5,143.5,20.5z"/>
	<path style="fill:#C6DFFA;" d="M102.6,86.6c3.4-5.8,9.9-9.4,16.4-10.2c9.6,0.3,18.6,7.9,19.9,17.6c1.3,8.5-4.4,17.1-12.2,20.2
		c0.8-4.7,2.1-9.4,1.9-14.2c-0.2-6.5-2.2-12.8-5.1-18.6c-2.6-0.1-5.2,0-7.8,0.2c-2.5,5.5-4.4,11.3-4.9,17.3
		c-0.4,5.2,1.3,10.3,2.1,15.4c-5.7-1.8-10-6.6-12.2-12C99.3,97.2,99.6,91.2,102.6,86.6z"/>
</g>
<g>
	<path style="fill:#B4D1F6;" d="M210.4,24.2c2.8-2.7,5.8-5.3,8.8-7.7c1.3,3.8,2.4,7.5,3.3,11.4c-2.8,2.8-5.9,5.5-9,8
		C212.5,32,211.4,28.1,210.4,24.2z"/>
</g>
<g>
	<path style="fill:#93BFF9;" d="M165.5,54c6.7,5.5,13.4,11.1,19.9,16.8c-2.5,8.5-5,16.9-7.6,25.3c-1,3.5-1.4,7.9,1.8,10.4
		c2.7-1.6,6.1-5.8,9.4-3.6c1.6,5.4,0,11.3-1.5,16.5c0.1-5.5,3.1-11.4,0.4-16.5c-3.8-0.4-6.3,5.2-10,3.2c-2.2-3.3-1.3-7.5-0.7-11.2
		c-6.3-5.5-12.8-10.7-19.1-16.2C160.5,70.5,163,62.2,165.5,54z"/>
</g>
<g>
	<path style="fill:#C0DAF9;" d="M208.7,91c1-5.5,7.7-8.7,12.6-6.4c4.7,2.3,6.7,9,3.5,13.3c-1.8,2.6-5.1,3.4-7.9,4.3
		c2.7-4.5,5.7-9.3,5-14.8c-1.1-0.4-2.1-0.9-3.1-1.3c-4.4,3.1-6.8,8-7.8,13.2C209.6,96.7,208,94,208.7,91z"/>
</g>
</svg>
