<?xml version="1.0" encoding="UTF-8" ?>
<!DOCTYPE svg PUBLIC "-//W3C//DTD SVG 1.1//EN" "http://www.w3.org/Graphics/SVG/1.1/DTD/svg11.dtd">
<svg width="278pt" height="298pt" viewBox="0 0 278 298" version="1.1" xmlns="http://www.w3.org/2000/svg">
<g id="#ffffffff">
<path fill="#ffffff" opacity="1.00" d=" M 134.76 0.00 L 143.08 0.00 C 174.59 0.96 205.67 12.86 229.50 33.53 C 252.41 53.14 268.76 80.36 274.92 109.91 C 276.74 118.31 277.64 126.88 278.00 135.45 L 278.00 140.75 C 276.96 146.38 276.84 152.12 277.43 157.82 C 276.33 161.72 275.30 165.64 274.51 169.61 C 269.51 193.59 257.31 215.81 240.73 233.73 C 218.96 257.27 188.83 272.86 157.01 276.86 C 125.55 281.08 92.70 274.01 65.79 257.19 C 34.48 237.86 11.12 205.67 3.49 169.58 C 2.70 166.11 1.33 162.81 0.01 159.52 L 0.00 159.24 L 0.00 159.17 C 1.28 153.27 1.32 147.20 0.00 141.30 L 0.00 138.28 C -0.00 100.41 16.42 62.99 44.26 37.33 C 68.57 14.42 101.40 1.05 134.76 0.00 M 115.04 18.12 C 113.05 20.15 116.66 23.61 118.07 20.90 C 119.51 18.71 117.02 17.34 115.04 18.12 M 110.10 23.01 C 109.02 25.60 111.57 27.67 113.68 25.60 C 114.67 23.34 111.97 21.69 110.10 23.01 M 119.41 23.39 C 117.52 25.87 123.05 28.03 122.95 24.92 C 123.86 22.59 120.69 21.81 119.41 23.39 M 115.33 27.42 C 114.47 28.48 114.36 29.64 115.02 30.88 C 116.77 31.16 118.69 31.22 118.56 28.87 C 117.90 27.62 116.77 26.46 115.33 27.42 M 202.28 52.29 C 196.04 53.31 193.92 63.18 199.76 66.19 C 203.79 69.00 210.05 67.04 211.12 62.07 C 213.45 56.65 207.64 51.17 202.28 52.29 M 60.53 75.86 C 60.56 78.57 60.63 81.28 60.83 83.98 C 64.03 82.50 62.73 78.66 63.09 75.89 C 62.45 75.89 61.17 75.87 60.53 75.86 M 121.04 80.02 C 111.47 84.86 104.14 93.88 101.36 104.24 C 99.38 111.43 100.21 118.95 100.17 126.31 C 94.90 126.58 89.17 125.69 84.35 128.34 C 79.63 131.03 77.79 136.76 77.96 141.93 C 78.29 164.26 78.68 186.60 78.90 208.93 C 79.02 213.50 78.64 218.59 81.54 222.45 C 84.54 226.73 90.08 228.06 95.03 227.93 C 125.70 227.48 156.38 227.14 187.05 226.77 C 190.94 226.75 195.03 225.62 197.70 222.63 C 200.89 219.28 201.38 214.40 201.35 209.99 C 200.93 186.45 200.64 162.91 200.31 139.37 C 200.30 135.03 198.67 130.56 195.03 127.98 C 190.06 124.21 183.45 125.50 177.65 125.37 C 177.28 117.96 177.97 110.33 175.70 103.14 C 172.13 91.44 162.71 81.56 150.92 78.00 C 141.24 74.44 130.17 75.31 121.04 80.02 M 51.13 86.16 C 54.34 86.47 57.57 86.46 60.78 86.10 C 58.73 82.97 53.05 82.85 51.13 86.16 M 63.01 86.16 C 65.72 86.37 68.43 86.45 71.14 86.47 C 71.13 85.83 71.11 84.55 71.10 83.91 C 68.34 84.27 64.49 82.97 63.01 86.16 M 60.90 86.23 C 60.55 89.43 60.53 92.66 60.83 95.87 C 64.14 93.97 64.07 88.24 60.90 86.23 M 243.64 101.61 C 245.78 99.99 247.34 97.79 248.46 95.37 C 245.08 95.59 244.29 98.92 243.64 101.61 M 236.49 97.76 C 238.14 99.43 239.97 100.90 241.87 102.28 C 242.16 101.68 242.74 100.47 243.02 99.87 C 240.88 99.07 238.71 98.34 236.49 97.76 M 244.21 101.50 C 245.22 104.37 248.00 105.57 250.68 106.40 C 249.59 103.60 246.85 102.38 244.21 101.50 M 239.49 108.89 C 241.95 107.42 243.15 104.87 243.64 102.14 C 241.25 103.66 239.93 106.14 239.49 108.89 M 26.19 124.03 C 25.13 125.33 27.36 126.95 28.30 125.59 C 29.36 124.29 27.13 122.68 26.19 124.03 M 22.12 124.92 C 21.53 126.53 22.06 127.10 23.71 126.65 C 24.29 125.03 23.76 124.46 22.12 124.92 M 27.33 128.32 C 26.83 129.96 27.39 130.51 29.01 129.96 C 29.51 128.33 28.95 127.78 27.33 128.32 M 23.01 129.29 C 22.52 130.92 23.09 131.46 24.71 130.91 C 25.19 129.27 24.63 128.73 23.01 129.29 Z" />
<path fill="#ffffff" opacity="1.00" d=" M 203.27 56.25 C 206.23 55.58 208.79 59.32 206.97 61.80 C 205.63 64.25 201.63 63.88 200.62 61.33 C 199.59 59.30 201.05 56.61 203.27 56.25 Z" />
<path fill="#ffffff" opacity="1.00" d=" M 134.01 93.83 C 142.12 91.87 151.11 95.37 155.88 102.18 C 160.97 108.90 159.85 117.76 159.94 125.65 C 145.89 125.76 131.84 126.04 117.79 126.11 C 117.66 121.09 117.23 116.04 117.90 111.04 C 118.99 102.69 125.84 95.60 134.01 93.83 Z" />
<path fill="#ffffff" opacity="1.00" d=" M 125.00 182.89 C 120.76 173.08 128.35 160.89 138.96 160.20 C 149.30 158.77 159.07 168.71 157.41 179.03 C 156.96 184.55 153.07 188.77 148.69 191.74 C 146.67 192.76 147.03 195.13 146.96 197.02 C 147.04 202.33 147.26 207.64 147.05 212.95 C 143.13 213.08 139.21 213.09 135.29 212.97 C 134.80 206.38 135.54 199.71 134.62 193.17 C 131.10 190.07 126.45 187.72 125.00 182.89 Z" />
</g>
<g id="#c5c5c5ff">
<path fill="#c5c5c5" opacity="1.00" d=" M 115.04 18.12 C 117.02 17.34 119.51 18.71 118.07 20.90 C 116.66 23.61 113.05 20.15 115.04 18.12 Z" />
<path fill="#c5c5c5" opacity="1.00" d=" M 110.10 23.01 C 111.97 21.69 114.67 23.34 113.68 25.60 C 111.57 27.67 109.02 25.60 110.10 23.01 Z" />
<path fill="#c5c5c5" opacity="1.00" d=" M 119.41 23.39 C 120.69 21.81 123.86 22.59 122.95 24.92 C 123.05 28.03 117.52 25.87 119.41 23.39 Z" />
<path fill="#c5c5c5" opacity="1.00" d=" M 115.33 27.42 C 116.77 26.46 117.90 27.62 118.56 28.87 C 118.69 31.22 116.77 31.16 115.02 30.88 C 114.36 29.64 114.47 28.48 115.33 27.42 Z" />
</g>
<g id="#ffccc8ff">
<path fill="#ffccc8" opacity="1.00" d=" M 202.28 52.29 C 207.64 51.17 213.45 56.65 211.12 62.07 C 210.05 67.04 203.79 69.00 199.76 66.19 C 193.92 63.18 196.04 53.31 202.28 52.29 M 203.27 56.25 C 201.05 56.61 199.59 59.30 200.62 61.33 C 201.63 63.88 205.63 64.25 206.97 61.80 C 208.79 59.32 206.23 55.58 203.27 56.25 Z" />
</g>
<g id="#ff8383ff">
<path fill="#ff8383" opacity="1.00" d=" M 60.53 75.86 C 61.17 75.87 62.45 75.89 63.09 75.89 C 62.73 78.66 64.03 82.50 60.83 83.98 C 60.63 81.28 60.56 78.57 60.53 75.86 Z" />
<path fill="#ff8383" opacity="1.00" d=" M 63.01 86.16 C 64.49 82.97 68.34 84.27 71.10 83.91 C 71.11 84.55 71.13 85.83 71.14 86.47 C 68.43 86.45 65.72 86.37 63.01 86.16 Z" />
</g>
<g id="#ffd9d9ff">
<path fill="#ffd9d9" opacity="1.00" d=" M 121.04 80.02 C 130.17 75.31 141.24 74.44 150.92 78.00 C 162.71 81.56 172.13 91.44 175.70 103.14 C 177.97 110.33 177.28 117.96 177.65 125.37 C 183.45 125.50 190.06 124.21 195.03 127.98 C 198.67 130.56 200.30 135.03 200.31 139.37 C 200.64 162.91 200.93 186.45 201.35 209.99 C 201.38 214.40 200.89 219.28 197.70 222.63 C 195.03 225.62 190.94 226.75 187.05 226.77 C 156.38 227.14 125.70 227.48 95.03 227.93 C 90.08 228.06 84.54 226.73 81.54 222.45 C 78.64 218.59 79.02 213.50 78.90 208.93 C 78.68 186.60 78.29 164.26 77.96 141.93 C 77.79 136.76 79.63 131.03 84.35 128.34 C 89.17 125.69 94.90 126.58 100.17 126.31 C 100.21 118.95 99.38 111.43 101.36 104.24 C 104.14 93.88 111.47 84.86 121.04 80.02 M 134.01 93.83 C 125.84 95.60 118.99 102.69 117.90 111.04 C 117.23 116.04 117.66 121.09 117.79 126.11 C 131.84 126.04 145.89 125.76 159.94 125.65 C 159.85 117.76 160.97 108.90 155.88 102.18 C 151.11 95.37 142.12 91.87 134.01 93.83 M 125.00 182.89 C 126.45 187.72 131.10 190.07 134.62 193.17 C 135.54 199.71 134.80 206.38 135.29 212.97 C 139.21 213.09 143.13 213.08 147.05 212.95 C 147.26 207.64 147.04 202.33 146.96 197.02 C 147.03 195.13 146.67 192.76 148.69 191.74 C 153.07 188.77 156.96 184.55 157.41 179.03 C 159.07 168.71 149.30 158.77 138.96 160.20 C 128.35 160.89 120.76 173.08 125.00 182.89 Z" />
</g>
<g id="#ff8a8aff">
<path fill="#ff8a8a" opacity="1.00" d=" M 51.13 86.16 C 53.05 82.85 58.73 82.97 60.78 86.10 C 57.57 86.46 54.34 86.47 51.13 86.16 Z" />
<path fill="#ff8a8a" opacity="1.00" d=" M 60.90 86.23 C 64.07 88.24 64.14 93.97 60.83 95.87 C 60.53 92.66 60.55 89.43 60.90 86.23 Z" />
</g>
<g id="#c6c6c6ff">
<path fill="#c6c6c6" opacity="1.00" d=" M 243.64 101.61 C 244.29 98.92 245.08 95.59 248.46 95.37 C 247.34 97.79 245.78 99.99 243.64 101.61 Z" />
</g>
<g id="#ccccccff">
<path fill="#cccccc" opacity="1.00" d=" M 236.49 97.76 C 238.71 98.34 240.88 99.07 243.02 99.87 C 242.74 100.47 242.16 101.68 241.87 102.28 C 239.97 100.90 238.14 99.43 236.49 97.76 Z" />
</g>
<g id="#c8c8c8ff">
<path fill="#c8c8c8" opacity="1.00" d=" M 244.21 101.50 C 246.85 102.38 249.59 103.60 250.68 106.40 C 248.00 105.57 245.22 104.37 244.21 101.50 Z" />
</g>
<g id="#c4c4c4ff">
<path fill="#c4c4c4" opacity="1.00" d=" M 239.49 108.89 C 239.93 106.14 241.25 103.66 243.64 102.14 C 243.15 104.87 241.95 107.42 239.49 108.89 Z" />
<path fill="#c4c4c4" opacity="1.00" d=" M 26.19 124.03 C 27.13 122.68 29.36 124.29 28.30 125.59 C 27.36 126.95 25.13 125.33 26.19 124.03 Z" />
</g>
<g id="#bdbdbdff">
<path fill="#bdbdbd" opacity="1.00" d=" M 22.12 124.92 C 23.76 124.46 24.29 125.03 23.71 126.65 C 22.06 127.10 21.53 126.53 22.12 124.92 Z" />
<path fill="#bdbdbd" opacity="1.00" d=" M 27.33 128.32 C 28.95 127.78 29.51 128.33 29.01 129.96 C 27.39 130.51 26.83 129.96 27.33 128.32 Z" />
</g>
<g id="#bcbcbcff">
<path fill="#bcbcbc" opacity="1.00" d=" M 23.01 129.29 C 24.63 128.73 25.19 129.27 24.71 130.91 C 23.09 131.46 22.52 130.92 23.01 129.29 Z" />
</g>
<g id="#dfdfdfe3">
<path fill="#dfdfdf" opacity="0.89" d=" M 0.00 141.30 C 1.32 147.20 1.28 153.27 0.00 159.17 L 0.00 141.30 Z" />
</g>
<g id="#e1e1e1e5">
<path fill="#e1e1e1" opacity="0.90" d=" M 277.43 157.82 C 276.84 152.12 276.96 146.38 278.00 140.75 L 278.00 155.82 L 277.43 157.82 Z" />
</g>
<g id="#f5f5f5ff">
<path fill="#f5f5f5" opacity="1.00" d=" M 277.43 157.82 L 278.00 155.82 L 278.00 163.13 C 276.99 196.76 263.43 229.86 240.20 254.25 C 215.14 281.17 179.04 297.22 142.28 298.00 L 134.88 298.00 C 101.74 296.99 69.11 283.82 44.82 261.20 C 16.60 235.48 -0.09 197.71 0.01 159.52 C 1.33 162.81 2.70 166.11 3.49 169.58 C 11.12 205.67 34.48 237.86 65.79 257.19 C 92.70 274.01 125.55 281.08 157.01 276.86 C 188.83 272.86 218.96 257.27 240.73 233.73 C 257.31 215.81 269.51 193.59 274.51 169.61 C 275.30 165.64 276.33 161.72 277.43 157.82 Z" />
</g>
</svg>
