<svg width="24" height="15" viewBox="0 0 24 15" fill="none" xmlns="http://www.w3.org/2000/svg">
<path d="M1.53609 9.9032C2.597 4.99033 7.02389 1.5 12 1.5C16.9761 1.5 21.4029 4.99032 22.4639 9.90322C22.5515 10.3087 22.9626 10.5688 23.3823 10.4842C23.8019 10.3996 24.071 10.0023 23.9835 9.59678C22.7768 4.00968 17.7333 0 12 0C6.26672 0 1.22304 4.00967 0.0165219 9.5968C-0.0710396 10.0023 0.198144 10.3996 0.61776 10.4842C1.03738 10.5688 1.44853 10.3087 1.53609 9.9032ZM12 4.5C8.99939 4.5 6.56694 6.8505 6.56694 9.75C6.56694 12.6495 8.99939 15 12 15C15.0006 15 17.433 12.6495 17.433 9.75C17.433 6.8505 15.0006 4.5 12 4.5ZM8.11924 9.75C8.11924 7.67893 9.8567 6 12 6C14.1432 6 15.8807 7.67893 15.8807 9.75C15.8807 11.8211 14.1432 13.5 12 13.5C9.8567 13.5 8.11924 11.8211 8.11924 9.75Z" fill="#C9D1E1"/>
</svg>
